%TF.GenerationSoftware,KiCad,Pcbnew,9.0.3*%
%TF.CreationDate,2025-07-11T07:37:11+02:00*%
%TF.ProjectId,fredo,66726564-6f2e-46b6-9963-61645f706362,rev?*%
%TF.SameCoordinates,Original*%
%TF.FileFunction,Soldermask,Top*%
%TF.FilePolarity,Negative*%
%FSLAX46Y46*%
G04 Gerber Fmt 4.6, Leading zero omitted, Abs format (unit mm)*
G04 Created by KiCad (PCBNEW 9.0.3) date 2025-07-11 07:37:11*
%MOMM*%
%LPD*%
G01*
G04 APERTURE LIST*
G04 Aperture macros list*
%AMRoundRect*
0 Rectangle with rounded corners*
0 $1 Rounding radius*
0 $2 $3 $4 $5 $6 $7 $8 $9 X,Y pos of 4 corners*
0 Add a 4 corners polygon primitive as box body*
4,1,4,$2,$3,$4,$5,$6,$7,$8,$9,$2,$3,0*
0 Add four circle primitives for the rounded corners*
1,1,$1+$1,$2,$3*
1,1,$1+$1,$4,$5*
1,1,$1+$1,$6,$7*
1,1,$1+$1,$8,$9*
0 Add four rect primitives between the rounded corners*
20,1,$1+$1,$2,$3,$4,$5,0*
20,1,$1+$1,$4,$5,$6,$7,0*
20,1,$1+$1,$6,$7,$8,$9,0*
20,1,$1+$1,$8,$9,$2,$3,0*%
G04 Aperture macros list end*
%ADD10C,1.600000*%
%ADD11R,3.000000X1.000000*%
%ADD12RoundRect,0.150000X0.150000X-0.587500X0.150000X0.587500X-0.150000X0.587500X-0.150000X-0.587500X0*%
%ADD13RoundRect,0.200000X-0.275000X0.200000X-0.275000X-0.200000X0.275000X-0.200000X0.275000X0.200000X0*%
%ADD14RoundRect,0.218750X-0.218750X-0.256250X0.218750X-0.256250X0.218750X0.256250X-0.218750X0.256250X0*%
%ADD15RoundRect,0.200000X0.200000X0.275000X-0.200000X0.275000X-0.200000X-0.275000X0.200000X-0.275000X0*%
%ADD16R,1.200000X1.200000*%
%ADD17R,1.000000X3.000000*%
%ADD18R,1.550000X2.600000*%
%ADD19R,0.990600X0.711200*%
%ADD20R,0.249999X0.499999*%
%ADD21R,2.000001X0.900001*%
%ADD22RoundRect,0.250000X-0.250000X-2.500000X0.250000X-2.500000X0.250000X2.500000X-0.250000X2.500000X0*%
%ADD23RoundRect,0.250000X-0.550000X-1.250000X0.550000X-1.250000X0.550000X1.250000X-0.550000X1.250000X0*%
%ADD24C,4.400000*%
%ADD25RoundRect,0.140000X-0.140000X-0.170000X0.140000X-0.170000X0.140000X0.170000X-0.140000X0.170000X0*%
%ADD26RoundRect,0.250000X-0.550000X1.412500X-0.550000X-1.412500X0.550000X-1.412500X0.550000X1.412500X0*%
G04 APERTURE END LIST*
D10*
%TO.C,J1*%
X20820000Y-5370000D03*
X20820000Y-51090000D03*
D11*
X23340000Y-4100000D03*
X18300000Y-4100000D03*
X23340000Y-6640000D03*
X18300000Y-6640000D03*
X23340000Y-9180000D03*
X18300000Y-9180000D03*
X23340000Y-11720000D03*
X18300000Y-11720000D03*
X23340000Y-14260000D03*
X18300000Y-14260000D03*
X23340000Y-16800000D03*
X18300000Y-16800000D03*
X23340000Y-19340000D03*
X18300000Y-19340000D03*
X23340000Y-21880000D03*
X18300000Y-21880000D03*
X23340000Y-24420000D03*
X18300000Y-24420000D03*
X23340000Y-26960000D03*
X18300000Y-26960000D03*
X23340000Y-29500000D03*
X18300000Y-29500000D03*
X23340000Y-32040000D03*
X18300000Y-32040000D03*
X23340000Y-34580000D03*
X18300000Y-34580000D03*
X23340000Y-37120000D03*
X18300000Y-37120000D03*
X23340000Y-39660000D03*
X18300000Y-39660000D03*
X23340000Y-42200000D03*
X18300000Y-42200000D03*
X23340000Y-44740000D03*
X18300000Y-44740000D03*
X23340000Y-47280000D03*
X18300000Y-47280000D03*
X23340000Y-49820000D03*
X18300000Y-49820000D03*
X23340000Y-52360000D03*
X18300000Y-52360000D03*
%TD*%
D10*
%TO.C,J2*%
X41100000Y-5370000D03*
X41100000Y-51090000D03*
D11*
X43620000Y-4100000D03*
X38580000Y-4100000D03*
X43620000Y-6640000D03*
X38580000Y-6640000D03*
X43620000Y-9180000D03*
X38580000Y-9180000D03*
X43620000Y-11720000D03*
X38580000Y-11720000D03*
X43620000Y-14260000D03*
X38580000Y-14260000D03*
X43620000Y-16800000D03*
X38580000Y-16800000D03*
X43620000Y-19340000D03*
X38580000Y-19340000D03*
X43620000Y-21880000D03*
X38580000Y-21880000D03*
X43620000Y-24420000D03*
X38580000Y-24420000D03*
X43620000Y-26960000D03*
X38580000Y-26960000D03*
X43620000Y-29500000D03*
X38580000Y-29500000D03*
X43620000Y-32040000D03*
X38580000Y-32040000D03*
X43620000Y-34580000D03*
X38580000Y-34580000D03*
X43620000Y-37120000D03*
X38580000Y-37120000D03*
X43620000Y-39660000D03*
X38580000Y-39660000D03*
X43620000Y-42200000D03*
X38580000Y-42200000D03*
X43620000Y-44740000D03*
X38580000Y-44740000D03*
X43620000Y-47280000D03*
X38580000Y-47280000D03*
X43620000Y-49820000D03*
X38580000Y-49820000D03*
X43620000Y-52360000D03*
X38580000Y-52360000D03*
%TD*%
D12*
%TO.C,Q1*%
X4550000Y-54937500D03*
X6450000Y-54937500D03*
X5500000Y-53062500D03*
%TD*%
D13*
%TO.C,R5*%
X33000000Y-20150000D03*
X33000000Y-18500000D03*
%TD*%
D14*
%TO.C,D2*%
X10500000Y-59500000D03*
X8925000Y-59500000D03*
%TD*%
D13*
%TO.C,R1*%
X26500000Y-17650000D03*
X26500000Y-16000000D03*
%TD*%
%TO.C,R2*%
X26500000Y-20650000D03*
X26500000Y-19000000D03*
%TD*%
D15*
%TO.C,R4*%
X33350000Y-17000000D03*
X35000000Y-17000000D03*
%TD*%
D13*
%TO.C,R3*%
X26500000Y-23650000D03*
X26500000Y-22000000D03*
%TD*%
D14*
%TO.C,D3*%
X16075000Y-59500000D03*
X14500000Y-59500000D03*
%TD*%
D13*
%TO.C,R6*%
X33000000Y-23150000D03*
X33000000Y-21500000D03*
%TD*%
D16*
%TO.C,D1*%
X33000000Y-11000000D03*
X30200000Y-11000000D03*
%TD*%
D17*
%TO.C,A1*%
X50000000Y-32000000D03*
X52000000Y-32000000D03*
X54000000Y-32000000D03*
X56000000Y-32000000D03*
D18*
X47425000Y-28510840D03*
X58575000Y-28510840D03*
%TD*%
D19*
%TO.C,SW1*%
X51749999Y-46425001D03*
X56250001Y-46425001D03*
X51749999Y-48574999D03*
X56250001Y-48574999D03*
%TD*%
D20*
%TO.C,U1*%
X31500000Y-51950001D03*
X32000002Y-51950001D03*
X32500000Y-51950001D03*
X33000000Y-51950001D03*
X33500001Y-51950001D03*
X34000000Y-51950001D03*
X34000000Y-50050002D03*
X33500001Y-50050002D03*
X33000000Y-50050002D03*
X32500000Y-50050002D03*
X32000002Y-50050002D03*
X31500000Y-50050002D03*
D21*
X32750000Y-51000000D03*
%TD*%
D22*
%TO.C,MotL1*%
X37000000Y-61500000D03*
X39000000Y-61500000D03*
D23*
X34600000Y-59250000D03*
X41400000Y-59250000D03*
%TD*%
D24*
%TO.C,H3*%
X57000000Y-53000000D03*
%TD*%
D17*
%TO.C,D20*%
X5500000Y-40000000D03*
X7500000Y-40000000D03*
X9500000Y-40000000D03*
X11500000Y-40000000D03*
D18*
X2925000Y-36510840D03*
X14075000Y-36510840D03*
%TD*%
D17*
%TO.C,I2C1*%
X50000000Y-16000000D03*
X52000000Y-16000000D03*
X54000000Y-16000000D03*
X56000000Y-16000000D03*
D18*
X47425000Y-12510840D03*
X58575000Y-12510840D03*
%TD*%
D17*
%TO.C,A2*%
X50000000Y-40000000D03*
X52000000Y-40000000D03*
X54000000Y-40000000D03*
X56000000Y-40000000D03*
D18*
X47425000Y-36510840D03*
X58575000Y-36510840D03*
%TD*%
D24*
%TO.C,H2*%
X4000000Y-62000000D03*
%TD*%
D22*
%TO.C,BAT0*%
X5500000Y-48000000D03*
X7500000Y-48000000D03*
D23*
X3100000Y-45750000D03*
X9900000Y-45750000D03*
%TD*%
D17*
%TO.C,UART1*%
X5500000Y-16000000D03*
X7500000Y-16000000D03*
X9500000Y-16000000D03*
X11500000Y-16000000D03*
D18*
X2925000Y-12510840D03*
X14075000Y-12510840D03*
%TD*%
D17*
%TO.C,I2C0*%
X50000000Y-8000000D03*
X52000000Y-8000000D03*
X54000000Y-8000000D03*
X56000000Y-8000000D03*
D18*
X47425000Y-4510840D03*
X58575000Y-4510840D03*
%TD*%
D22*
%TO.C,MotR1*%
X52000000Y-61500000D03*
X54000000Y-61500000D03*
D23*
X49600000Y-59250000D03*
X56400000Y-59250000D03*
%TD*%
D25*
%TO.C,C2*%
X30020000Y-49000000D03*
X30980000Y-49000000D03*
%TD*%
D17*
%TO.C,A0*%
X50000000Y-24000000D03*
X52000000Y-24000000D03*
X54000000Y-24000000D03*
X56000000Y-24000000D03*
D18*
X47425000Y-20510840D03*
X58575000Y-20510840D03*
%TD*%
D17*
%TO.C,D18*%
X5500000Y-32000000D03*
X7500000Y-32000000D03*
X9500000Y-32000000D03*
X11500000Y-32000000D03*
D18*
X2925000Y-28510840D03*
X14075000Y-28510840D03*
%TD*%
D26*
%TO.C,C3*%
X27500000Y-57462500D03*
X27500000Y-62537500D03*
%TD*%
D17*
%TO.C,UART0*%
X5500000Y-8000000D03*
X7500000Y-8000000D03*
X9500000Y-8000000D03*
X11500000Y-8000000D03*
D18*
X2925000Y-4510840D03*
X14075000Y-4510840D03*
%TD*%
D24*
%TO.C,H1*%
X30000000Y-6000000D03*
%TD*%
D25*
%TO.C,C1*%
X30020000Y-53000000D03*
X30980000Y-53000000D03*
%TD*%
D17*
%TO.C,D16*%
X5500000Y-24000000D03*
X7500000Y-24000000D03*
X9500000Y-24000000D03*
X11500000Y-24000000D03*
D18*
X2925000Y-20510840D03*
X14075000Y-20510840D03*
%TD*%
M02*
