%TF.GenerationSoftware,KiCad,Pcbnew,9.0.3*%
%TF.CreationDate,2025-07-11T07:37:28+02:00*%
%TF.ProjectId,fredo,66726564-6f2e-46b6-9963-61645f706362,rev?*%
%TF.SameCoordinates,Original*%
%TF.FileFunction,Drillmap*%
%TF.FilePolarity,Positive*%
%FSLAX45Y45*%
G04 Gerber Fmt 4.5, Leading zero omitted, Abs format (unit mm)*
G04 Created by KiCad (PCBNEW 9.0.3) date 2025-07-11 07:37:28*
%MOMM*%
%LPD*%
G01*
G04 APERTURE LIST*
%ADD10C,0.100000*%
%ADD11C,0.200000*%
G04 APERTURE END LIST*
D10*
X0Y0D02*
X6100000Y0D01*
X6100000Y-6600000D01*
X0Y-6600000D01*
X0Y0D01*
D11*
X255777Y-6916484D02*
X255777Y-6716484D01*
X255777Y-6716484D02*
X303396Y-6716484D01*
X303396Y-6716484D02*
X331967Y-6726008D01*
X331967Y-6726008D02*
X351015Y-6745055D01*
X351015Y-6745055D02*
X360539Y-6764103D01*
X360539Y-6764103D02*
X370062Y-6802198D01*
X370062Y-6802198D02*
X370062Y-6830769D01*
X370062Y-6830769D02*
X360539Y-6868865D01*
X360539Y-6868865D02*
X351015Y-6887912D01*
X351015Y-6887912D02*
X331967Y-6906960D01*
X331967Y-6906960D02*
X303396Y-6916484D01*
X303396Y-6916484D02*
X255777Y-6916484D01*
X455777Y-6916484D02*
X455777Y-6783150D01*
X455777Y-6821246D02*
X465301Y-6802198D01*
X465301Y-6802198D02*
X474824Y-6792674D01*
X474824Y-6792674D02*
X493872Y-6783150D01*
X493872Y-6783150D02*
X512920Y-6783150D01*
X579586Y-6916484D02*
X579586Y-6783150D01*
X579586Y-6716484D02*
X570063Y-6726008D01*
X570063Y-6726008D02*
X579586Y-6735531D01*
X579586Y-6735531D02*
X589110Y-6726008D01*
X589110Y-6726008D02*
X579586Y-6716484D01*
X579586Y-6716484D02*
X579586Y-6735531D01*
X703396Y-6916484D02*
X684348Y-6906960D01*
X684348Y-6906960D02*
X674824Y-6887912D01*
X674824Y-6887912D02*
X674824Y-6716484D01*
X808158Y-6916484D02*
X789110Y-6906960D01*
X789110Y-6906960D02*
X779586Y-6887912D01*
X779586Y-6887912D02*
X779586Y-6716484D01*
X1036729Y-6916484D02*
X1036729Y-6716484D01*
X1036729Y-6716484D02*
X1103396Y-6859341D01*
X1103396Y-6859341D02*
X1170063Y-6716484D01*
X1170063Y-6716484D02*
X1170063Y-6916484D01*
X1351015Y-6916484D02*
X1351015Y-6811722D01*
X1351015Y-6811722D02*
X1341491Y-6792674D01*
X1341491Y-6792674D02*
X1322444Y-6783150D01*
X1322444Y-6783150D02*
X1284348Y-6783150D01*
X1284348Y-6783150D02*
X1265301Y-6792674D01*
X1351015Y-6906960D02*
X1331967Y-6916484D01*
X1331967Y-6916484D02*
X1284348Y-6916484D01*
X1284348Y-6916484D02*
X1265301Y-6906960D01*
X1265301Y-6906960D02*
X1255777Y-6887912D01*
X1255777Y-6887912D02*
X1255777Y-6868865D01*
X1255777Y-6868865D02*
X1265301Y-6849817D01*
X1265301Y-6849817D02*
X1284348Y-6840293D01*
X1284348Y-6840293D02*
X1331967Y-6840293D01*
X1331967Y-6840293D02*
X1351015Y-6830769D01*
X1446253Y-6783150D02*
X1446253Y-6983150D01*
X1446253Y-6792674D02*
X1465301Y-6783150D01*
X1465301Y-6783150D02*
X1503396Y-6783150D01*
X1503396Y-6783150D02*
X1522443Y-6792674D01*
X1522443Y-6792674D02*
X1531967Y-6802198D01*
X1531967Y-6802198D02*
X1541491Y-6821246D01*
X1541491Y-6821246D02*
X1541491Y-6878388D01*
X1541491Y-6878388D02*
X1531967Y-6897436D01*
X1531967Y-6897436D02*
X1522443Y-6906960D01*
X1522443Y-6906960D02*
X1503396Y-6916484D01*
X1503396Y-6916484D02*
X1465301Y-6916484D01*
X1465301Y-6916484D02*
X1446253Y-6906960D01*
X1627205Y-6897436D02*
X1636729Y-6906960D01*
X1636729Y-6906960D02*
X1627205Y-6916484D01*
X1627205Y-6916484D02*
X1617682Y-6906960D01*
X1617682Y-6906960D02*
X1627205Y-6897436D01*
X1627205Y-6897436D02*
X1627205Y-6916484D01*
X1627205Y-6792674D02*
X1636729Y-6802198D01*
X1636729Y-6802198D02*
X1627205Y-6811722D01*
X1627205Y-6811722D02*
X1617682Y-6802198D01*
X1617682Y-6802198D02*
X1627205Y-6792674D01*
X1627205Y-6792674D02*
X1627205Y-6811722D01*
M02*
