M48
; DRILL file {KiCad 9.0.3} date 2025-07-11T07:37:28+0200
; FORMAT={-:-/ absolute / metric / decimal}
; #@! TF.CreationDate,2025-07-11T07:37:28+02:00
; #@! TF.GenerationSoftware,Kicad,Pcbnew,9.0.3
; #@! TF.FileFunction,Plated,1,2,PTH
FMAT,2
METRIC
; #@! TA.AperFunction,Plated,PTH,ViaDrill
T1C0.400
; #@! TA.AperFunction,Plated,PTH,ComponentDrill
T2C1.200
; #@! TA.AperFunction,Plated,PTH,ComponentDrill
T3C2.200
%
G90
G05
T1
X3.0Y-52.3
X3.0Y-53.5
X3.0Y-55.0
X3.0Y-56.5
X3.5Y-7.0
X3.5Y-15.0
X3.5Y-23.0
X3.5Y-31.0
X3.5Y-39.0
X4.5Y-56.5
X5.5Y-5.5
X5.5Y-13.5
X5.5Y-20.5
X5.5Y-29.0
X5.5Y-37.5
X7.5Y-4.0
X7.5Y-12.0
X7.5Y-21.5
X7.5Y-29.0
X7.5Y-36.0
X9.0Y-51.0
X10.5Y-49.5
X10.5Y-51.0
X10.5Y-53.0
X10.5Y-54.5
X12.0Y-59.5
X12.5Y-45.5
X12.5Y-47.0
X12.5Y-48.5
X12.5Y-50.0
X12.5Y-51.5
X12.5Y-53.0
X12.5Y-54.5
X13.5Y-9.0
X13.5Y-25.0
X13.5Y-39.0
X17.5Y-59.5
X18.0Y-55.0
X20.0Y-21.88
X20.478Y-3.6
X20.5Y-7.0
X20.5Y-38.5
X20.5Y-41.0
X21.0Y-14.26
X21.0Y-16.8
X21.0Y-19.34
X21.0Y-55.0
X21.0Y-60.5
X21.0Y-62.0
X21.5Y-21.88
X23.0Y-15.5
X23.0Y-18.0
X23.0Y-59.0
X23.0Y-60.5
X23.0Y-62.0
X23.0Y-63.5
X23.5Y-10.5
X23.5Y-55.0
X26.0Y-44.74
X26.5Y-46.5
X26.5Y-48.0
X26.5Y-49.5
X26.5Y-51.0
X26.5Y-52.5
X26.5Y-54.5
X27.0Y-40.0
X27.5Y-9.0
X28.0Y-15.5
X28.0Y-20.0
X28.0Y-21.5
X28.0Y-24.0
X28.0Y-43.5
X28.5Y-30.5
X28.5Y-46.5
X28.5Y-48.0
X28.5Y-49.5
X28.5Y-51.0
X28.5Y-52.5
X28.5Y-54.5
X29.0Y-9.0
X29.0Y-16.5
X29.0Y-18.0
X29.0Y-27.0
X29.0Y-42.0
X29.5Y-13.0
X29.5Y-29.5
X30.0Y-50.0
X30.0Y-51.5
X30.5Y-9.0
X31.0Y-13.0
X32.0Y-9.0
X32.0Y-46.5
X32.0Y-59.5
X32.0Y-61.0
X32.0Y-62.5
X32.0Y-64.0
X33.0Y-24.5
X33.0Y-28.0
X33.0Y-33.0
X33.0Y-47.5
X33.5Y-9.0
X34.0Y-43.5
X34.013Y-42.487
X34.5Y-19.0
X34.5Y-29.5
X34.5Y-33.5
X34.5Y-35.5
X34.5Y-46.0
X35.0Y-4.5
X35.0Y-6.0
X35.0Y-7.5
X35.0Y-9.0
X35.0Y-10.5
X35.5Y-49.0
X35.5Y-50.0
X35.5Y-51.0
X35.5Y-52.0
X35.5Y-53.0
X36.5Y-37.0
X36.5Y-39.5
X39.5Y-38.5
X39.5Y-41.0
X41.5Y-49.5
X41.5Y-53.0
X44.0Y-58.0
X44.0Y-60.5
X46.0Y-26.0
X46.5Y-58.0
X46.5Y-60.5
X48.425Y-16.0
X49.5Y-43.5
X49.5Y-51.5
X50.0Y-4.0
X50.5Y-21.0
X50.925Y-29.0
X51.0Y-51.5
X51.0Y-53.0
X51.425Y-13.0
X51.5Y-11.0
X52.0Y-43.5
X52.5Y-51.5
X54.5Y-43.5
X56.0Y-4.5
X56.0Y-12.5
X56.0Y-20.5
X56.0Y-28.5
X56.0Y-36.5
T2
X20.82Y-5.37
X20.82Y-51.09
X41.1Y-5.37
X41.1Y-51.09
T3
X4.0Y-62.0
X30.0Y-6.0
X57.0Y-53.0
M30
