%TF.GenerationSoftware,KiCad,Pcbnew,9.0.3*%
%TF.CreationDate,2025-07-11T07:37:28+02:00*%
%TF.ProjectId,fredo,66726564-6f2e-46b6-9963-61645f706362,rev?*%
%TF.SameCoordinates,Original*%
%TF.FileFunction,Drillmap*%
%TF.FilePolarity,Positive*%
%FSLAX45Y45*%
G04 Gerber Fmt 4.5, Leading zero omitted, Abs format (unit mm)*
G04 Created by KiCad (PCBNEW 9.0.3) date 2025-07-11 07:37:28*
%MOMM*%
%LPD*%
G01*
G04 APERTURE LIST*
%ADD10C,0.100000*%
%ADD11C,0.200000*%
%ADD12C,0.120000*%
%ADD13C,0.220000*%
G04 APERTURE END LIST*
D10*
X0Y0D02*
X6100000Y0D01*
X6100000Y-6600000D01*
X0Y-6600000D01*
X0Y0D01*
D11*
D10*
X280000Y-5210000D02*
X320000Y-5250000D01*
X320000Y-5210000D02*
X280000Y-5250000D01*
X280000Y-5330000D02*
X320000Y-5370000D01*
X320000Y-5330000D02*
X280000Y-5370000D01*
X280000Y-5480000D02*
X320000Y-5520000D01*
X320000Y-5480000D02*
X280000Y-5520000D01*
X280000Y-5630000D02*
X320000Y-5670000D01*
X320000Y-5630000D02*
X280000Y-5670000D01*
X330000Y-680000D02*
X370000Y-720000D01*
X370000Y-680000D02*
X330000Y-720000D01*
X330000Y-1480000D02*
X370000Y-1520000D01*
X370000Y-1480000D02*
X330000Y-1520000D01*
X330000Y-2280000D02*
X370000Y-2320000D01*
X370000Y-2280000D02*
X330000Y-2320000D01*
X330000Y-3080000D02*
X370000Y-3120000D01*
X370000Y-3080000D02*
X330000Y-3120000D01*
X330000Y-3880000D02*
X370000Y-3920000D01*
X370000Y-3880000D02*
X330000Y-3920000D01*
X430000Y-5630000D02*
X470000Y-5670000D01*
X470000Y-5630000D02*
X430000Y-5670000D01*
X530000Y-530000D02*
X570000Y-570000D01*
X570000Y-530000D02*
X530000Y-570000D01*
X530000Y-1330000D02*
X570000Y-1370000D01*
X570000Y-1330000D02*
X530000Y-1370000D01*
X530000Y-2030000D02*
X570000Y-2070000D01*
X570000Y-2030000D02*
X530000Y-2070000D01*
X530000Y-2880000D02*
X570000Y-2920000D01*
X570000Y-2880000D02*
X530000Y-2920000D01*
X530000Y-3730000D02*
X570000Y-3770000D01*
X570000Y-3730000D02*
X530000Y-3770000D01*
X730000Y-380000D02*
X770000Y-420000D01*
X770000Y-380000D02*
X730000Y-420000D01*
X730000Y-1180000D02*
X770000Y-1220000D01*
X770000Y-1180000D02*
X730000Y-1220000D01*
X730000Y-2130000D02*
X770000Y-2170000D01*
X770000Y-2130000D02*
X730000Y-2170000D01*
X730000Y-2880000D02*
X770000Y-2920000D01*
X770000Y-2880000D02*
X730000Y-2920000D01*
X730000Y-3580000D02*
X770000Y-3620000D01*
X770000Y-3580000D02*
X730000Y-3620000D01*
X880000Y-5080000D02*
X920000Y-5120000D01*
X920000Y-5080000D02*
X880000Y-5120000D01*
X1030000Y-4930000D02*
X1070000Y-4970000D01*
X1070000Y-4930000D02*
X1030000Y-4970000D01*
X1030000Y-5080000D02*
X1070000Y-5120000D01*
X1070000Y-5080000D02*
X1030000Y-5120000D01*
X1030000Y-5280000D02*
X1070000Y-5320000D01*
X1070000Y-5280000D02*
X1030000Y-5320000D01*
X1030000Y-5430000D02*
X1070000Y-5470000D01*
X1070000Y-5430000D02*
X1030000Y-5470000D01*
X1180000Y-5930000D02*
X1220000Y-5970000D01*
X1220000Y-5930000D02*
X1180000Y-5970000D01*
X1230000Y-4530000D02*
X1270000Y-4570000D01*
X1270000Y-4530000D02*
X1230000Y-4570000D01*
X1230000Y-4680000D02*
X1270000Y-4720000D01*
X1270000Y-4680000D02*
X1230000Y-4720000D01*
X1230000Y-4830000D02*
X1270000Y-4870000D01*
X1270000Y-4830000D02*
X1230000Y-4870000D01*
X1230000Y-4980000D02*
X1270000Y-5020000D01*
X1270000Y-4980000D02*
X1230000Y-5020000D01*
X1230000Y-5130000D02*
X1270000Y-5170000D01*
X1270000Y-5130000D02*
X1230000Y-5170000D01*
X1230000Y-5280000D02*
X1270000Y-5320000D01*
X1270000Y-5280000D02*
X1230000Y-5320000D01*
X1230000Y-5430000D02*
X1270000Y-5470000D01*
X1270000Y-5430000D02*
X1230000Y-5470000D01*
X1330000Y-880000D02*
X1370000Y-920000D01*
X1370000Y-880000D02*
X1330000Y-920000D01*
X1330000Y-2480000D02*
X1370000Y-2520000D01*
X1370000Y-2480000D02*
X1330000Y-2520000D01*
X1330000Y-3880000D02*
X1370000Y-3920000D01*
X1370000Y-3880000D02*
X1330000Y-3920000D01*
X1730000Y-5930000D02*
X1770000Y-5970000D01*
X1770000Y-5930000D02*
X1730000Y-5970000D01*
X1780000Y-5480000D02*
X1820000Y-5520000D01*
X1820000Y-5480000D02*
X1780000Y-5520000D01*
X1980000Y-2168000D02*
X2020000Y-2208000D01*
X2020000Y-2168000D02*
X1980000Y-2208000D01*
X2027815Y-340000D02*
X2067815Y-380000D01*
X2067815Y-340000D02*
X2027815Y-380000D01*
X2030000Y-680000D02*
X2070000Y-720000D01*
X2070000Y-680000D02*
X2030000Y-720000D01*
X2030000Y-3830000D02*
X2070000Y-3870000D01*
X2070000Y-3830000D02*
X2030000Y-3870000D01*
X2030000Y-4080000D02*
X2070000Y-4120000D01*
X2070000Y-4080000D02*
X2030000Y-4120000D01*
X2080000Y-1406000D02*
X2120000Y-1446000D01*
X2120000Y-1406000D02*
X2080000Y-1446000D01*
X2080000Y-1660000D02*
X2120000Y-1700000D01*
X2120000Y-1660000D02*
X2080000Y-1700000D01*
X2080000Y-1914000D02*
X2120000Y-1954000D01*
X2120000Y-1914000D02*
X2080000Y-1954000D01*
X2080000Y-5480000D02*
X2120000Y-5520000D01*
X2120000Y-5480000D02*
X2080000Y-5520000D01*
X2080000Y-6030000D02*
X2120000Y-6070000D01*
X2120000Y-6030000D02*
X2080000Y-6070000D01*
X2080000Y-6180000D02*
X2120000Y-6220000D01*
X2120000Y-6180000D02*
X2080000Y-6220000D01*
X2130000Y-2168000D02*
X2170000Y-2208000D01*
X2170000Y-2168000D02*
X2130000Y-2208000D01*
X2280000Y-1530000D02*
X2320000Y-1570000D01*
X2320000Y-1530000D02*
X2280000Y-1570000D01*
X2280000Y-1780000D02*
X2320000Y-1820000D01*
X2320000Y-1780000D02*
X2280000Y-1820000D01*
X2280000Y-5880000D02*
X2320000Y-5920000D01*
X2320000Y-5880000D02*
X2280000Y-5920000D01*
X2280000Y-6030000D02*
X2320000Y-6070000D01*
X2320000Y-6030000D02*
X2280000Y-6070000D01*
X2280000Y-6180000D02*
X2320000Y-6220000D01*
X2320000Y-6180000D02*
X2280000Y-6220000D01*
X2280000Y-6330000D02*
X2320000Y-6370000D01*
X2320000Y-6330000D02*
X2280000Y-6370000D01*
X2330000Y-1030000D02*
X2370000Y-1070000D01*
X2370000Y-1030000D02*
X2330000Y-1070000D01*
X2330000Y-5480000D02*
X2370000Y-5520000D01*
X2370000Y-5480000D02*
X2330000Y-5520000D01*
X2580000Y-4454000D02*
X2620000Y-4494000D01*
X2620000Y-4454000D02*
X2580000Y-4494000D01*
X2630000Y-4630000D02*
X2670000Y-4670000D01*
X2670000Y-4630000D02*
X2630000Y-4670000D01*
X2630000Y-4780000D02*
X2670000Y-4820000D01*
X2670000Y-4780000D02*
X2630000Y-4820000D01*
X2630000Y-4930000D02*
X2670000Y-4970000D01*
X2670000Y-4930000D02*
X2630000Y-4970000D01*
X2630000Y-5080000D02*
X2670000Y-5120000D01*
X2670000Y-5080000D02*
X2630000Y-5120000D01*
X2630000Y-5230000D02*
X2670000Y-5270000D01*
X2670000Y-5230000D02*
X2630000Y-5270000D01*
X2630000Y-5430000D02*
X2670000Y-5470000D01*
X2670000Y-5430000D02*
X2630000Y-5470000D01*
X2680000Y-3980000D02*
X2720000Y-4020000D01*
X2720000Y-3980000D02*
X2680000Y-4020000D01*
X2730000Y-880000D02*
X2770000Y-920000D01*
X2770000Y-880000D02*
X2730000Y-920000D01*
X2780000Y-1530000D02*
X2820000Y-1570000D01*
X2820000Y-1530000D02*
X2780000Y-1570000D01*
X2780000Y-1980000D02*
X2820000Y-2020000D01*
X2820000Y-1980000D02*
X2780000Y-2020000D01*
X2780000Y-2130000D02*
X2820000Y-2170000D01*
X2820000Y-2130000D02*
X2780000Y-2170000D01*
X2780000Y-2380000D02*
X2820000Y-2420000D01*
X2820000Y-2380000D02*
X2780000Y-2420000D01*
X2780000Y-4330000D02*
X2820000Y-4370000D01*
X2820000Y-4330000D02*
X2780000Y-4370000D01*
X2830000Y-3030000D02*
X2870000Y-3070000D01*
X2870000Y-3030000D02*
X2830000Y-3070000D01*
X2830000Y-4630000D02*
X2870000Y-4670000D01*
X2870000Y-4630000D02*
X2830000Y-4670000D01*
X2830000Y-4780000D02*
X2870000Y-4820000D01*
X2870000Y-4780000D02*
X2830000Y-4820000D01*
X2830000Y-4930000D02*
X2870000Y-4970000D01*
X2870000Y-4930000D02*
X2830000Y-4970000D01*
X2830000Y-5080000D02*
X2870000Y-5120000D01*
X2870000Y-5080000D02*
X2830000Y-5120000D01*
X2830000Y-5230000D02*
X2870000Y-5270000D01*
X2870000Y-5230000D02*
X2830000Y-5270000D01*
X2830000Y-5430000D02*
X2870000Y-5470000D01*
X2870000Y-5430000D02*
X2830000Y-5470000D01*
X2880000Y-880000D02*
X2920000Y-920000D01*
X2920000Y-880000D02*
X2880000Y-920000D01*
X2880000Y-1630000D02*
X2920000Y-1670000D01*
X2920000Y-1630000D02*
X2880000Y-1670000D01*
X2880000Y-1780000D02*
X2920000Y-1820000D01*
X2920000Y-1780000D02*
X2880000Y-1820000D01*
X2880000Y-2680000D02*
X2920000Y-2720000D01*
X2920000Y-2680000D02*
X2880000Y-2720000D01*
X2880000Y-4180000D02*
X2920000Y-4220000D01*
X2920000Y-4180000D02*
X2880000Y-4220000D01*
X2930000Y-1280000D02*
X2970000Y-1320000D01*
X2970000Y-1280000D02*
X2930000Y-1320000D01*
X2930000Y-2930000D02*
X2970000Y-2970000D01*
X2970000Y-2930000D02*
X2930000Y-2970000D01*
X2980000Y-4980000D02*
X3020000Y-5020000D01*
X3020000Y-4980000D02*
X2980000Y-5020000D01*
X2980000Y-5130000D02*
X3020000Y-5170000D01*
X3020000Y-5130000D02*
X2980000Y-5170000D01*
X3030000Y-880000D02*
X3070000Y-920000D01*
X3070000Y-880000D02*
X3030000Y-920000D01*
X3080000Y-1280000D02*
X3120000Y-1320000D01*
X3120000Y-1280000D02*
X3080000Y-1320000D01*
X3180000Y-880000D02*
X3220000Y-920000D01*
X3220000Y-880000D02*
X3180000Y-920000D01*
X3180000Y-4630000D02*
X3220000Y-4670000D01*
X3220000Y-4630000D02*
X3180000Y-4670000D01*
X3180000Y-5930000D02*
X3220000Y-5970000D01*
X3220000Y-5930000D02*
X3180000Y-5970000D01*
X3180000Y-6080000D02*
X3220000Y-6120000D01*
X3220000Y-6080000D02*
X3180000Y-6120000D01*
X3180000Y-6230000D02*
X3220000Y-6270000D01*
X3220000Y-6230000D02*
X3180000Y-6270000D01*
X3180000Y-6380000D02*
X3220000Y-6420000D01*
X3220000Y-6380000D02*
X3180000Y-6420000D01*
X3280000Y-2430000D02*
X3320000Y-2470000D01*
X3320000Y-2430000D02*
X3280000Y-2470000D01*
X3280000Y-2780000D02*
X3320000Y-2820000D01*
X3320000Y-2780000D02*
X3280000Y-2820000D01*
X3280000Y-3280000D02*
X3320000Y-3320000D01*
X3320000Y-3280000D02*
X3280000Y-3320000D01*
X3280000Y-4730000D02*
X3320000Y-4770000D01*
X3320000Y-4730000D02*
X3280000Y-4770000D01*
X3330000Y-880000D02*
X3370000Y-920000D01*
X3370000Y-880000D02*
X3330000Y-920000D01*
X3380000Y-4330000D02*
X3420000Y-4370000D01*
X3420000Y-4330000D02*
X3380000Y-4370000D01*
X3381265Y-4228735D02*
X3421265Y-4268735D01*
X3421265Y-4228735D02*
X3381265Y-4268735D01*
X3430000Y-1880000D02*
X3470000Y-1920000D01*
X3470000Y-1880000D02*
X3430000Y-1920000D01*
X3430000Y-2930000D02*
X3470000Y-2970000D01*
X3470000Y-2930000D02*
X3430000Y-2970000D01*
X3430000Y-3330000D02*
X3470000Y-3370000D01*
X3470000Y-3330000D02*
X3430000Y-3370000D01*
X3430000Y-3530000D02*
X3470000Y-3570000D01*
X3470000Y-3530000D02*
X3430000Y-3570000D01*
X3430000Y-4580000D02*
X3470000Y-4620000D01*
X3470000Y-4580000D02*
X3430000Y-4620000D01*
X3480000Y-430000D02*
X3520000Y-470000D01*
X3520000Y-430000D02*
X3480000Y-470000D01*
X3480000Y-580000D02*
X3520000Y-620000D01*
X3520000Y-580000D02*
X3480000Y-620000D01*
X3480000Y-730000D02*
X3520000Y-770000D01*
X3520000Y-730000D02*
X3480000Y-770000D01*
X3480000Y-880000D02*
X3520000Y-920000D01*
X3520000Y-880000D02*
X3480000Y-920000D01*
X3480000Y-1030000D02*
X3520000Y-1070000D01*
X3520000Y-1030000D02*
X3480000Y-1070000D01*
X3530000Y-4880000D02*
X3570000Y-4920000D01*
X3570000Y-4880000D02*
X3530000Y-4920000D01*
X3530000Y-4980000D02*
X3570000Y-5020000D01*
X3570000Y-4980000D02*
X3530000Y-5020000D01*
X3530000Y-5080000D02*
X3570000Y-5120000D01*
X3570000Y-5080000D02*
X3530000Y-5120000D01*
X3530000Y-5180000D02*
X3570000Y-5220000D01*
X3570000Y-5180000D02*
X3530000Y-5220000D01*
X3530000Y-5280000D02*
X3570000Y-5320000D01*
X3570000Y-5280000D02*
X3530000Y-5320000D01*
X3630000Y-3680000D02*
X3670000Y-3720000D01*
X3670000Y-3680000D02*
X3630000Y-3720000D01*
X3630000Y-3930000D02*
X3670000Y-3970000D01*
X3670000Y-3930000D02*
X3630000Y-3970000D01*
X3930000Y-3830000D02*
X3970000Y-3870000D01*
X3970000Y-3830000D02*
X3930000Y-3870000D01*
X3930000Y-4080000D02*
X3970000Y-4120000D01*
X3970000Y-4080000D02*
X3930000Y-4120000D01*
X4130000Y-4930000D02*
X4170000Y-4970000D01*
X4170000Y-4930000D02*
X4130000Y-4970000D01*
X4130000Y-5280000D02*
X4170000Y-5320000D01*
X4170000Y-5280000D02*
X4130000Y-5320000D01*
X4380000Y-5780000D02*
X4420000Y-5820000D01*
X4420000Y-5780000D02*
X4380000Y-5820000D01*
X4380000Y-6030000D02*
X4420000Y-6070000D01*
X4420000Y-6030000D02*
X4380000Y-6070000D01*
X4580000Y-2580000D02*
X4620000Y-2620000D01*
X4620000Y-2580000D02*
X4580000Y-2620000D01*
X4630000Y-5780000D02*
X4670000Y-5820000D01*
X4670000Y-5780000D02*
X4630000Y-5820000D01*
X4630000Y-6030000D02*
X4670000Y-6070000D01*
X4670000Y-6030000D02*
X4630000Y-6070000D01*
X4822500Y-1580000D02*
X4862500Y-1620000D01*
X4862500Y-1580000D02*
X4822500Y-1620000D01*
X4930000Y-4330000D02*
X4970000Y-4370000D01*
X4970000Y-4330000D02*
X4930000Y-4370000D01*
X4930000Y-5130000D02*
X4970000Y-5170000D01*
X4970000Y-5130000D02*
X4930000Y-5170000D01*
X4980000Y-380000D02*
X5020000Y-420000D01*
X5020000Y-380000D02*
X4980000Y-420000D01*
X5030000Y-2080000D02*
X5070000Y-2120000D01*
X5070000Y-2080000D02*
X5030000Y-2120000D01*
X5072500Y-2880000D02*
X5112500Y-2920000D01*
X5112500Y-2880000D02*
X5072500Y-2920000D01*
X5080000Y-5130000D02*
X5120000Y-5170000D01*
X5120000Y-5130000D02*
X5080000Y-5170000D01*
X5080000Y-5280000D02*
X5120000Y-5320000D01*
X5120000Y-5280000D02*
X5080000Y-5320000D01*
X5122500Y-1280000D02*
X5162500Y-1320000D01*
X5162500Y-1280000D02*
X5122500Y-1320000D01*
X5130000Y-1080000D02*
X5170000Y-1120000D01*
X5170000Y-1080000D02*
X5130000Y-1120000D01*
X5180000Y-4330000D02*
X5220000Y-4370000D01*
X5220000Y-4330000D02*
X5180000Y-4370000D01*
X5230000Y-5130000D02*
X5270000Y-5170000D01*
X5270000Y-5130000D02*
X5230000Y-5170000D01*
X5430000Y-4330000D02*
X5470000Y-4370000D01*
X5470000Y-4330000D02*
X5430000Y-4370000D01*
X5580000Y-430000D02*
X5620000Y-470000D01*
X5620000Y-430000D02*
X5580000Y-470000D01*
X5580000Y-1230000D02*
X5620000Y-1270000D01*
X5620000Y-1230000D02*
X5580000Y-1270000D01*
X5580000Y-2030000D02*
X5620000Y-2070000D01*
X5620000Y-2030000D02*
X5580000Y-2070000D01*
X5580000Y-2830000D02*
X5620000Y-2870000D01*
X5620000Y-2830000D02*
X5580000Y-2870000D01*
X5580000Y-3630000D02*
X5620000Y-3670000D01*
X5620000Y-3630000D02*
X5580000Y-3670000D01*
D12*
X2142000Y-537000D02*
G75*
G02*
X2022000Y-537000I-60000J0D01*
G01*
X2022000Y-537000D02*
G75*
G02*
X2142000Y-537000I60000J0D01*
G01*
X2142000Y-5109000D02*
G75*
G02*
X2022000Y-5109000I-60000J0D01*
G01*
X2022000Y-5109000D02*
G75*
G02*
X2142000Y-5109000I60000J0D01*
G01*
X4170000Y-537000D02*
G75*
G02*
X4050000Y-537000I-60000J0D01*
G01*
X4050000Y-537000D02*
G75*
G02*
X4170000Y-537000I60000J0D01*
G01*
X4170000Y-5109000D02*
G75*
G02*
X4050000Y-5109000I-60000J0D01*
G01*
X4050000Y-5109000D02*
G75*
G02*
X4170000Y-5109000I60000J0D01*
G01*
D13*
X400000Y-6090000D02*
X400000Y-6310000D01*
X290000Y-6200000D02*
X510000Y-6200000D01*
X3000000Y-490000D02*
X3000000Y-710000D01*
X2890000Y-600000D02*
X3110000Y-600000D01*
X5700000Y-5190000D02*
X5700000Y-5410000D01*
X5590000Y-5300000D02*
X5810000Y-5300000D01*
D11*
X255777Y-6916484D02*
X255777Y-6716484D01*
X255777Y-6716484D02*
X303396Y-6716484D01*
X303396Y-6716484D02*
X331967Y-6726008D01*
X331967Y-6726008D02*
X351015Y-6745055D01*
X351015Y-6745055D02*
X360539Y-6764103D01*
X360539Y-6764103D02*
X370062Y-6802198D01*
X370062Y-6802198D02*
X370062Y-6830769D01*
X370062Y-6830769D02*
X360539Y-6868865D01*
X360539Y-6868865D02*
X351015Y-6887912D01*
X351015Y-6887912D02*
X331967Y-6906960D01*
X331967Y-6906960D02*
X303396Y-6916484D01*
X303396Y-6916484D02*
X255777Y-6916484D01*
X455777Y-6916484D02*
X455777Y-6783150D01*
X455777Y-6821246D02*
X465301Y-6802198D01*
X465301Y-6802198D02*
X474824Y-6792674D01*
X474824Y-6792674D02*
X493872Y-6783150D01*
X493872Y-6783150D02*
X512920Y-6783150D01*
X579586Y-6916484D02*
X579586Y-6783150D01*
X579586Y-6716484D02*
X570063Y-6726008D01*
X570063Y-6726008D02*
X579586Y-6735531D01*
X579586Y-6735531D02*
X589110Y-6726008D01*
X589110Y-6726008D02*
X579586Y-6716484D01*
X579586Y-6716484D02*
X579586Y-6735531D01*
X703396Y-6916484D02*
X684348Y-6906960D01*
X684348Y-6906960D02*
X674824Y-6887912D01*
X674824Y-6887912D02*
X674824Y-6716484D01*
X808158Y-6916484D02*
X789110Y-6906960D01*
X789110Y-6906960D02*
X779586Y-6887912D01*
X779586Y-6887912D02*
X779586Y-6716484D01*
X1036729Y-6916484D02*
X1036729Y-6716484D01*
X1036729Y-6716484D02*
X1103396Y-6859341D01*
X1103396Y-6859341D02*
X1170063Y-6716484D01*
X1170063Y-6716484D02*
X1170063Y-6916484D01*
X1351015Y-6916484D02*
X1351015Y-6811722D01*
X1351015Y-6811722D02*
X1341491Y-6792674D01*
X1341491Y-6792674D02*
X1322444Y-6783150D01*
X1322444Y-6783150D02*
X1284348Y-6783150D01*
X1284348Y-6783150D02*
X1265301Y-6792674D01*
X1351015Y-6906960D02*
X1331967Y-6916484D01*
X1331967Y-6916484D02*
X1284348Y-6916484D01*
X1284348Y-6916484D02*
X1265301Y-6906960D01*
X1265301Y-6906960D02*
X1255777Y-6887912D01*
X1255777Y-6887912D02*
X1255777Y-6868865D01*
X1255777Y-6868865D02*
X1265301Y-6849817D01*
X1265301Y-6849817D02*
X1284348Y-6840293D01*
X1284348Y-6840293D02*
X1331967Y-6840293D01*
X1331967Y-6840293D02*
X1351015Y-6830769D01*
X1446253Y-6783150D02*
X1446253Y-6983150D01*
X1446253Y-6792674D02*
X1465301Y-6783150D01*
X1465301Y-6783150D02*
X1503396Y-6783150D01*
X1503396Y-6783150D02*
X1522443Y-6792674D01*
X1522443Y-6792674D02*
X1531967Y-6802198D01*
X1531967Y-6802198D02*
X1541491Y-6821246D01*
X1541491Y-6821246D02*
X1541491Y-6878388D01*
X1541491Y-6878388D02*
X1531967Y-6897436D01*
X1531967Y-6897436D02*
X1522443Y-6906960D01*
X1522443Y-6906960D02*
X1503396Y-6916484D01*
X1503396Y-6916484D02*
X1465301Y-6916484D01*
X1465301Y-6916484D02*
X1446253Y-6906960D01*
X1627205Y-6897436D02*
X1636729Y-6906960D01*
X1636729Y-6906960D02*
X1627205Y-6916484D01*
X1627205Y-6916484D02*
X1617682Y-6906960D01*
X1617682Y-6906960D02*
X1627205Y-6897436D01*
X1627205Y-6897436D02*
X1627205Y-6916484D01*
X1627205Y-6792674D02*
X1636729Y-6802198D01*
X1636729Y-6802198D02*
X1627205Y-6811722D01*
X1627205Y-6811722D02*
X1617682Y-6802198D01*
X1617682Y-6802198D02*
X1627205Y-6792674D01*
X1627205Y-6792674D02*
X1627205Y-6811722D01*
D10*
X-45000Y-7225000D02*
X-5000Y-7265000D01*
X-5000Y-7225000D02*
X-45000Y-7265000D01*
D11*
X293872Y-7136484D02*
X312920Y-7136484D01*
X312920Y-7136484D02*
X331967Y-7146008D01*
X331967Y-7146008D02*
X341491Y-7155531D01*
X341491Y-7155531D02*
X351015Y-7174579D01*
X351015Y-7174579D02*
X360539Y-7212674D01*
X360539Y-7212674D02*
X360539Y-7260293D01*
X360539Y-7260293D02*
X351015Y-7298388D01*
X351015Y-7298388D02*
X341491Y-7317436D01*
X341491Y-7317436D02*
X331967Y-7326960D01*
X331967Y-7326960D02*
X312920Y-7336484D01*
X312920Y-7336484D02*
X293872Y-7336484D01*
X293872Y-7336484D02*
X274824Y-7326960D01*
X274824Y-7326960D02*
X265301Y-7317436D01*
X265301Y-7317436D02*
X255777Y-7298388D01*
X255777Y-7298388D02*
X246253Y-7260293D01*
X246253Y-7260293D02*
X246253Y-7212674D01*
X246253Y-7212674D02*
X255777Y-7174579D01*
X255777Y-7174579D02*
X265301Y-7155531D01*
X265301Y-7155531D02*
X274824Y-7146008D01*
X274824Y-7146008D02*
X293872Y-7136484D01*
X446253Y-7317436D02*
X455777Y-7326960D01*
X455777Y-7326960D02*
X446253Y-7336484D01*
X446253Y-7336484D02*
X436729Y-7326960D01*
X436729Y-7326960D02*
X446253Y-7317436D01*
X446253Y-7317436D02*
X446253Y-7336484D01*
X627205Y-7203150D02*
X627205Y-7336484D01*
X579586Y-7126960D02*
X531967Y-7269817D01*
X531967Y-7269817D02*
X655777Y-7269817D01*
X770062Y-7136484D02*
X789110Y-7136484D01*
X789110Y-7136484D02*
X808158Y-7146008D01*
X808158Y-7146008D02*
X817682Y-7155531D01*
X817682Y-7155531D02*
X827205Y-7174579D01*
X827205Y-7174579D02*
X836729Y-7212674D01*
X836729Y-7212674D02*
X836729Y-7260293D01*
X836729Y-7260293D02*
X827205Y-7298388D01*
X827205Y-7298388D02*
X817682Y-7317436D01*
X817682Y-7317436D02*
X808158Y-7326960D01*
X808158Y-7326960D02*
X789110Y-7336484D01*
X789110Y-7336484D02*
X770062Y-7336484D01*
X770062Y-7336484D02*
X751015Y-7326960D01*
X751015Y-7326960D02*
X741491Y-7317436D01*
X741491Y-7317436D02*
X731967Y-7298388D01*
X731967Y-7298388D02*
X722443Y-7260293D01*
X722443Y-7260293D02*
X722443Y-7212674D01*
X722443Y-7212674D02*
X731967Y-7174579D01*
X731967Y-7174579D02*
X741491Y-7155531D01*
X741491Y-7155531D02*
X751015Y-7146008D01*
X751015Y-7146008D02*
X770062Y-7136484D01*
X960539Y-7136484D02*
X979586Y-7136484D01*
X979586Y-7136484D02*
X998634Y-7146008D01*
X998634Y-7146008D02*
X1008158Y-7155531D01*
X1008158Y-7155531D02*
X1017682Y-7174579D01*
X1017682Y-7174579D02*
X1027205Y-7212674D01*
X1027205Y-7212674D02*
X1027205Y-7260293D01*
X1027205Y-7260293D02*
X1017682Y-7298388D01*
X1017682Y-7298388D02*
X1008158Y-7317436D01*
X1008158Y-7317436D02*
X998634Y-7326960D01*
X998634Y-7326960D02*
X979586Y-7336484D01*
X979586Y-7336484D02*
X960539Y-7336484D01*
X960539Y-7336484D02*
X941491Y-7326960D01*
X941491Y-7326960D02*
X931967Y-7317436D01*
X931967Y-7317436D02*
X922443Y-7298388D01*
X922443Y-7298388D02*
X912920Y-7260293D01*
X912920Y-7260293D02*
X912920Y-7212674D01*
X912920Y-7212674D02*
X922443Y-7174579D01*
X922443Y-7174579D02*
X931967Y-7155531D01*
X931967Y-7155531D02*
X941491Y-7146008D01*
X941491Y-7146008D02*
X960539Y-7136484D01*
X1112920Y-7336484D02*
X1112920Y-7203150D01*
X1112920Y-7222198D02*
X1122444Y-7212674D01*
X1122444Y-7212674D02*
X1141491Y-7203150D01*
X1141491Y-7203150D02*
X1170063Y-7203150D01*
X1170063Y-7203150D02*
X1189110Y-7212674D01*
X1189110Y-7212674D02*
X1198634Y-7231722D01*
X1198634Y-7231722D02*
X1198634Y-7336484D01*
X1198634Y-7231722D02*
X1208158Y-7212674D01*
X1208158Y-7212674D02*
X1227205Y-7203150D01*
X1227205Y-7203150D02*
X1255777Y-7203150D01*
X1255777Y-7203150D02*
X1274825Y-7212674D01*
X1274825Y-7212674D02*
X1284348Y-7231722D01*
X1284348Y-7231722D02*
X1284348Y-7336484D01*
X1379586Y-7336484D02*
X1379586Y-7203150D01*
X1379586Y-7222198D02*
X1389110Y-7212674D01*
X1389110Y-7212674D02*
X1408158Y-7203150D01*
X1408158Y-7203150D02*
X1436729Y-7203150D01*
X1436729Y-7203150D02*
X1455777Y-7212674D01*
X1455777Y-7212674D02*
X1465301Y-7231722D01*
X1465301Y-7231722D02*
X1465301Y-7336484D01*
X1465301Y-7231722D02*
X1474824Y-7212674D01*
X1474824Y-7212674D02*
X1493872Y-7203150D01*
X1493872Y-7203150D02*
X1522443Y-7203150D01*
X1522443Y-7203150D02*
X1541491Y-7212674D01*
X1541491Y-7212674D02*
X1551015Y-7231722D01*
X1551015Y-7231722D02*
X1551015Y-7336484D01*
X1941491Y-7126960D02*
X1770063Y-7384103D01*
X2198634Y-7136484D02*
X2217682Y-7136484D01*
X2217682Y-7136484D02*
X2236729Y-7146008D01*
X2236729Y-7146008D02*
X2246253Y-7155531D01*
X2246253Y-7155531D02*
X2255777Y-7174579D01*
X2255777Y-7174579D02*
X2265301Y-7212674D01*
X2265301Y-7212674D02*
X2265301Y-7260293D01*
X2265301Y-7260293D02*
X2255777Y-7298388D01*
X2255777Y-7298388D02*
X2246253Y-7317436D01*
X2246253Y-7317436D02*
X2236729Y-7326960D01*
X2236729Y-7326960D02*
X2217682Y-7336484D01*
X2217682Y-7336484D02*
X2198634Y-7336484D01*
X2198634Y-7336484D02*
X2179587Y-7326960D01*
X2179587Y-7326960D02*
X2170063Y-7317436D01*
X2170063Y-7317436D02*
X2160539Y-7298388D01*
X2160539Y-7298388D02*
X2151015Y-7260293D01*
X2151015Y-7260293D02*
X2151015Y-7212674D01*
X2151015Y-7212674D02*
X2160539Y-7174579D01*
X2160539Y-7174579D02*
X2170063Y-7155531D01*
X2170063Y-7155531D02*
X2179587Y-7146008D01*
X2179587Y-7146008D02*
X2198634Y-7136484D01*
X2351015Y-7317436D02*
X2360539Y-7326960D01*
X2360539Y-7326960D02*
X2351015Y-7336484D01*
X2351015Y-7336484D02*
X2341491Y-7326960D01*
X2341491Y-7326960D02*
X2351015Y-7317436D01*
X2351015Y-7317436D02*
X2351015Y-7336484D01*
X2484348Y-7136484D02*
X2503396Y-7136484D01*
X2503396Y-7136484D02*
X2522444Y-7146008D01*
X2522444Y-7146008D02*
X2531968Y-7155531D01*
X2531968Y-7155531D02*
X2541491Y-7174579D01*
X2541491Y-7174579D02*
X2551015Y-7212674D01*
X2551015Y-7212674D02*
X2551015Y-7260293D01*
X2551015Y-7260293D02*
X2541491Y-7298388D01*
X2541491Y-7298388D02*
X2531968Y-7317436D01*
X2531968Y-7317436D02*
X2522444Y-7326960D01*
X2522444Y-7326960D02*
X2503396Y-7336484D01*
X2503396Y-7336484D02*
X2484348Y-7336484D01*
X2484348Y-7336484D02*
X2465301Y-7326960D01*
X2465301Y-7326960D02*
X2455777Y-7317436D01*
X2455777Y-7317436D02*
X2446253Y-7298388D01*
X2446253Y-7298388D02*
X2436729Y-7260293D01*
X2436729Y-7260293D02*
X2436729Y-7212674D01*
X2436729Y-7212674D02*
X2446253Y-7174579D01*
X2446253Y-7174579D02*
X2455777Y-7155531D01*
X2455777Y-7155531D02*
X2465301Y-7146008D01*
X2465301Y-7146008D02*
X2484348Y-7136484D01*
X2741491Y-7336484D02*
X2627206Y-7336484D01*
X2684348Y-7336484D02*
X2684348Y-7136484D01*
X2684348Y-7136484D02*
X2665301Y-7165055D01*
X2665301Y-7165055D02*
X2646253Y-7184103D01*
X2646253Y-7184103D02*
X2627206Y-7193627D01*
X2922444Y-7136484D02*
X2827206Y-7136484D01*
X2827206Y-7136484D02*
X2817682Y-7231722D01*
X2817682Y-7231722D02*
X2827206Y-7222198D01*
X2827206Y-7222198D02*
X2846253Y-7212674D01*
X2846253Y-7212674D02*
X2893872Y-7212674D01*
X2893872Y-7212674D02*
X2912920Y-7222198D01*
X2912920Y-7222198D02*
X2922444Y-7231722D01*
X2922444Y-7231722D02*
X2931967Y-7250769D01*
X2931967Y-7250769D02*
X2931967Y-7298388D01*
X2931967Y-7298388D02*
X2922444Y-7317436D01*
X2922444Y-7317436D02*
X2912920Y-7326960D01*
X2912920Y-7326960D02*
X2893872Y-7336484D01*
X2893872Y-7336484D02*
X2846253Y-7336484D01*
X2846253Y-7336484D02*
X2827206Y-7326960D01*
X2827206Y-7326960D02*
X2817682Y-7317436D01*
X2998634Y-7136484D02*
X3131967Y-7136484D01*
X3131967Y-7136484D02*
X3046253Y-7336484D01*
X3198634Y-7136484D02*
X3198634Y-7174579D01*
X3274825Y-7136484D02*
X3274825Y-7174579D01*
X3570063Y-7412674D02*
X3560539Y-7403150D01*
X3560539Y-7403150D02*
X3541491Y-7374579D01*
X3541491Y-7374579D02*
X3531968Y-7355531D01*
X3531968Y-7355531D02*
X3522444Y-7326960D01*
X3522444Y-7326960D02*
X3512920Y-7279341D01*
X3512920Y-7279341D02*
X3512920Y-7241246D01*
X3512920Y-7241246D02*
X3522444Y-7193627D01*
X3522444Y-7193627D02*
X3531968Y-7165055D01*
X3531968Y-7165055D02*
X3541491Y-7146008D01*
X3541491Y-7146008D02*
X3560539Y-7117436D01*
X3560539Y-7117436D02*
X3570063Y-7107912D01*
X3751015Y-7336484D02*
X3636729Y-7336484D01*
X3693872Y-7336484D02*
X3693872Y-7136484D01*
X3693872Y-7136484D02*
X3674825Y-7165055D01*
X3674825Y-7165055D02*
X3655777Y-7184103D01*
X3655777Y-7184103D02*
X3636729Y-7193627D01*
X3922444Y-7203150D02*
X3922444Y-7336484D01*
X3874825Y-7126960D02*
X3827206Y-7269817D01*
X3827206Y-7269817D02*
X3951015Y-7269817D01*
X4008158Y-7136484D02*
X4141491Y-7136484D01*
X4141491Y-7136484D02*
X4055777Y-7336484D01*
X4370063Y-7336484D02*
X4370063Y-7136484D01*
X4455777Y-7336484D02*
X4455777Y-7231722D01*
X4455777Y-7231722D02*
X4446253Y-7212674D01*
X4446253Y-7212674D02*
X4427206Y-7203150D01*
X4427206Y-7203150D02*
X4398634Y-7203150D01*
X4398634Y-7203150D02*
X4379587Y-7212674D01*
X4379587Y-7212674D02*
X4370063Y-7222198D01*
X4579587Y-7336484D02*
X4560539Y-7326960D01*
X4560539Y-7326960D02*
X4551015Y-7317436D01*
X4551015Y-7317436D02*
X4541492Y-7298388D01*
X4541492Y-7298388D02*
X4541492Y-7241246D01*
X4541492Y-7241246D02*
X4551015Y-7222198D01*
X4551015Y-7222198D02*
X4560539Y-7212674D01*
X4560539Y-7212674D02*
X4579587Y-7203150D01*
X4579587Y-7203150D02*
X4608158Y-7203150D01*
X4608158Y-7203150D02*
X4627206Y-7212674D01*
X4627206Y-7212674D02*
X4636730Y-7222198D01*
X4636730Y-7222198D02*
X4646253Y-7241246D01*
X4646253Y-7241246D02*
X4646253Y-7298388D01*
X4646253Y-7298388D02*
X4636730Y-7317436D01*
X4636730Y-7317436D02*
X4627206Y-7326960D01*
X4627206Y-7326960D02*
X4608158Y-7336484D01*
X4608158Y-7336484D02*
X4579587Y-7336484D01*
X4760539Y-7336484D02*
X4741492Y-7326960D01*
X4741492Y-7326960D02*
X4731968Y-7307912D01*
X4731968Y-7307912D02*
X4731968Y-7136484D01*
X4912920Y-7326960D02*
X4893873Y-7336484D01*
X4893873Y-7336484D02*
X4855777Y-7336484D01*
X4855777Y-7336484D02*
X4836730Y-7326960D01*
X4836730Y-7326960D02*
X4827206Y-7307912D01*
X4827206Y-7307912D02*
X4827206Y-7231722D01*
X4827206Y-7231722D02*
X4836730Y-7212674D01*
X4836730Y-7212674D02*
X4855777Y-7203150D01*
X4855777Y-7203150D02*
X4893873Y-7203150D01*
X4893873Y-7203150D02*
X4912920Y-7212674D01*
X4912920Y-7212674D02*
X4922444Y-7231722D01*
X4922444Y-7231722D02*
X4922444Y-7250769D01*
X4922444Y-7250769D02*
X4827206Y-7269817D01*
X4998634Y-7326960D02*
X5017682Y-7336484D01*
X5017682Y-7336484D02*
X5055777Y-7336484D01*
X5055777Y-7336484D02*
X5074825Y-7326960D01*
X5074825Y-7326960D02*
X5084349Y-7307912D01*
X5084349Y-7307912D02*
X5084349Y-7298388D01*
X5084349Y-7298388D02*
X5074825Y-7279341D01*
X5074825Y-7279341D02*
X5055777Y-7269817D01*
X5055777Y-7269817D02*
X5027206Y-7269817D01*
X5027206Y-7269817D02*
X5008158Y-7260293D01*
X5008158Y-7260293D02*
X4998634Y-7241246D01*
X4998634Y-7241246D02*
X4998634Y-7231722D01*
X4998634Y-7231722D02*
X5008158Y-7212674D01*
X5008158Y-7212674D02*
X5027206Y-7203150D01*
X5027206Y-7203150D02*
X5055777Y-7203150D01*
X5055777Y-7203150D02*
X5074825Y-7212674D01*
X5151015Y-7412674D02*
X5160539Y-7403150D01*
X5160539Y-7403150D02*
X5179587Y-7374579D01*
X5179587Y-7374579D02*
X5189111Y-7355531D01*
X5189111Y-7355531D02*
X5198634Y-7326960D01*
X5198634Y-7326960D02*
X5208158Y-7279341D01*
X5208158Y-7279341D02*
X5208158Y-7241246D01*
X5208158Y-7241246D02*
X5198634Y-7193627D01*
X5198634Y-7193627D02*
X5189111Y-7165055D01*
X5189111Y-7165055D02*
X5179587Y-7146008D01*
X5179587Y-7146008D02*
X5160539Y-7117436D01*
X5160539Y-7117436D02*
X5151015Y-7107912D01*
D12*
X-5000Y-7509000D02*
G75*
G02*
X-125000Y-7509000I-60000J0D01*
G01*
X-125000Y-7509000D02*
G75*
G02*
X-5000Y-7509000I60000J0D01*
G01*
D11*
X360539Y-7600484D02*
X246253Y-7600484D01*
X303396Y-7600484D02*
X303396Y-7400484D01*
X303396Y-7400484D02*
X284348Y-7429055D01*
X284348Y-7429055D02*
X265301Y-7448103D01*
X265301Y-7448103D02*
X246253Y-7457627D01*
X446253Y-7581436D02*
X455777Y-7590960D01*
X455777Y-7590960D02*
X446253Y-7600484D01*
X446253Y-7600484D02*
X436729Y-7590960D01*
X436729Y-7590960D02*
X446253Y-7581436D01*
X446253Y-7581436D02*
X446253Y-7600484D01*
X531967Y-7419531D02*
X541491Y-7410008D01*
X541491Y-7410008D02*
X560539Y-7400484D01*
X560539Y-7400484D02*
X608158Y-7400484D01*
X608158Y-7400484D02*
X627205Y-7410008D01*
X627205Y-7410008D02*
X636729Y-7419531D01*
X636729Y-7419531D02*
X646253Y-7438579D01*
X646253Y-7438579D02*
X646253Y-7457627D01*
X646253Y-7457627D02*
X636729Y-7486198D01*
X636729Y-7486198D02*
X522443Y-7600484D01*
X522443Y-7600484D02*
X646253Y-7600484D01*
X770062Y-7400484D02*
X789110Y-7400484D01*
X789110Y-7400484D02*
X808158Y-7410008D01*
X808158Y-7410008D02*
X817682Y-7419531D01*
X817682Y-7419531D02*
X827205Y-7438579D01*
X827205Y-7438579D02*
X836729Y-7476674D01*
X836729Y-7476674D02*
X836729Y-7524293D01*
X836729Y-7524293D02*
X827205Y-7562388D01*
X827205Y-7562388D02*
X817682Y-7581436D01*
X817682Y-7581436D02*
X808158Y-7590960D01*
X808158Y-7590960D02*
X789110Y-7600484D01*
X789110Y-7600484D02*
X770062Y-7600484D01*
X770062Y-7600484D02*
X751015Y-7590960D01*
X751015Y-7590960D02*
X741491Y-7581436D01*
X741491Y-7581436D02*
X731967Y-7562388D01*
X731967Y-7562388D02*
X722443Y-7524293D01*
X722443Y-7524293D02*
X722443Y-7476674D01*
X722443Y-7476674D02*
X731967Y-7438579D01*
X731967Y-7438579D02*
X741491Y-7419531D01*
X741491Y-7419531D02*
X751015Y-7410008D01*
X751015Y-7410008D02*
X770062Y-7400484D01*
X960539Y-7400484D02*
X979586Y-7400484D01*
X979586Y-7400484D02*
X998634Y-7410008D01*
X998634Y-7410008D02*
X1008158Y-7419531D01*
X1008158Y-7419531D02*
X1017682Y-7438579D01*
X1017682Y-7438579D02*
X1027205Y-7476674D01*
X1027205Y-7476674D02*
X1027205Y-7524293D01*
X1027205Y-7524293D02*
X1017682Y-7562388D01*
X1017682Y-7562388D02*
X1008158Y-7581436D01*
X1008158Y-7581436D02*
X998634Y-7590960D01*
X998634Y-7590960D02*
X979586Y-7600484D01*
X979586Y-7600484D02*
X960539Y-7600484D01*
X960539Y-7600484D02*
X941491Y-7590960D01*
X941491Y-7590960D02*
X931967Y-7581436D01*
X931967Y-7581436D02*
X922443Y-7562388D01*
X922443Y-7562388D02*
X912920Y-7524293D01*
X912920Y-7524293D02*
X912920Y-7476674D01*
X912920Y-7476674D02*
X922443Y-7438579D01*
X922443Y-7438579D02*
X931967Y-7419531D01*
X931967Y-7419531D02*
X941491Y-7410008D01*
X941491Y-7410008D02*
X960539Y-7400484D01*
X1112920Y-7600484D02*
X1112920Y-7467150D01*
X1112920Y-7486198D02*
X1122444Y-7476674D01*
X1122444Y-7476674D02*
X1141491Y-7467150D01*
X1141491Y-7467150D02*
X1170063Y-7467150D01*
X1170063Y-7467150D02*
X1189110Y-7476674D01*
X1189110Y-7476674D02*
X1198634Y-7495722D01*
X1198634Y-7495722D02*
X1198634Y-7600484D01*
X1198634Y-7495722D02*
X1208158Y-7476674D01*
X1208158Y-7476674D02*
X1227205Y-7467150D01*
X1227205Y-7467150D02*
X1255777Y-7467150D01*
X1255777Y-7467150D02*
X1274825Y-7476674D01*
X1274825Y-7476674D02*
X1284348Y-7495722D01*
X1284348Y-7495722D02*
X1284348Y-7600484D01*
X1379586Y-7600484D02*
X1379586Y-7467150D01*
X1379586Y-7486198D02*
X1389110Y-7476674D01*
X1389110Y-7476674D02*
X1408158Y-7467150D01*
X1408158Y-7467150D02*
X1436729Y-7467150D01*
X1436729Y-7467150D02*
X1455777Y-7476674D01*
X1455777Y-7476674D02*
X1465301Y-7495722D01*
X1465301Y-7495722D02*
X1465301Y-7600484D01*
X1465301Y-7495722D02*
X1474824Y-7476674D01*
X1474824Y-7476674D02*
X1493872Y-7467150D01*
X1493872Y-7467150D02*
X1522443Y-7467150D01*
X1522443Y-7467150D02*
X1541491Y-7476674D01*
X1541491Y-7476674D02*
X1551015Y-7495722D01*
X1551015Y-7495722D02*
X1551015Y-7600484D01*
X1941491Y-7390960D02*
X1770063Y-7648103D01*
X2198634Y-7400484D02*
X2217682Y-7400484D01*
X2217682Y-7400484D02*
X2236729Y-7410008D01*
X2236729Y-7410008D02*
X2246253Y-7419531D01*
X2246253Y-7419531D02*
X2255777Y-7438579D01*
X2255777Y-7438579D02*
X2265301Y-7476674D01*
X2265301Y-7476674D02*
X2265301Y-7524293D01*
X2265301Y-7524293D02*
X2255777Y-7562388D01*
X2255777Y-7562388D02*
X2246253Y-7581436D01*
X2246253Y-7581436D02*
X2236729Y-7590960D01*
X2236729Y-7590960D02*
X2217682Y-7600484D01*
X2217682Y-7600484D02*
X2198634Y-7600484D01*
X2198634Y-7600484D02*
X2179587Y-7590960D01*
X2179587Y-7590960D02*
X2170063Y-7581436D01*
X2170063Y-7581436D02*
X2160539Y-7562388D01*
X2160539Y-7562388D02*
X2151015Y-7524293D01*
X2151015Y-7524293D02*
X2151015Y-7476674D01*
X2151015Y-7476674D02*
X2160539Y-7438579D01*
X2160539Y-7438579D02*
X2170063Y-7419531D01*
X2170063Y-7419531D02*
X2179587Y-7410008D01*
X2179587Y-7410008D02*
X2198634Y-7400484D01*
X2351015Y-7581436D02*
X2360539Y-7590960D01*
X2360539Y-7590960D02*
X2351015Y-7600484D01*
X2351015Y-7600484D02*
X2341491Y-7590960D01*
X2341491Y-7590960D02*
X2351015Y-7581436D01*
X2351015Y-7581436D02*
X2351015Y-7600484D01*
X2484348Y-7400484D02*
X2503396Y-7400484D01*
X2503396Y-7400484D02*
X2522444Y-7410008D01*
X2522444Y-7410008D02*
X2531968Y-7419531D01*
X2531968Y-7419531D02*
X2541491Y-7438579D01*
X2541491Y-7438579D02*
X2551015Y-7476674D01*
X2551015Y-7476674D02*
X2551015Y-7524293D01*
X2551015Y-7524293D02*
X2541491Y-7562388D01*
X2541491Y-7562388D02*
X2531968Y-7581436D01*
X2531968Y-7581436D02*
X2522444Y-7590960D01*
X2522444Y-7590960D02*
X2503396Y-7600484D01*
X2503396Y-7600484D02*
X2484348Y-7600484D01*
X2484348Y-7600484D02*
X2465301Y-7590960D01*
X2465301Y-7590960D02*
X2455777Y-7581436D01*
X2455777Y-7581436D02*
X2446253Y-7562388D01*
X2446253Y-7562388D02*
X2436729Y-7524293D01*
X2436729Y-7524293D02*
X2436729Y-7476674D01*
X2436729Y-7476674D02*
X2446253Y-7438579D01*
X2446253Y-7438579D02*
X2455777Y-7419531D01*
X2455777Y-7419531D02*
X2465301Y-7410008D01*
X2465301Y-7410008D02*
X2484348Y-7400484D01*
X2722444Y-7467150D02*
X2722444Y-7600484D01*
X2674825Y-7390960D02*
X2627206Y-7533817D01*
X2627206Y-7533817D02*
X2751015Y-7533817D01*
X2808158Y-7400484D02*
X2941491Y-7400484D01*
X2941491Y-7400484D02*
X2855777Y-7600484D01*
X3008158Y-7419531D02*
X3017682Y-7410008D01*
X3017682Y-7410008D02*
X3036729Y-7400484D01*
X3036729Y-7400484D02*
X3084348Y-7400484D01*
X3084348Y-7400484D02*
X3103396Y-7410008D01*
X3103396Y-7410008D02*
X3112920Y-7419531D01*
X3112920Y-7419531D02*
X3122444Y-7438579D01*
X3122444Y-7438579D02*
X3122444Y-7457627D01*
X3122444Y-7457627D02*
X3112920Y-7486198D01*
X3112920Y-7486198D02*
X2998634Y-7600484D01*
X2998634Y-7600484D02*
X3122444Y-7600484D01*
X3198634Y-7400484D02*
X3198634Y-7438579D01*
X3274825Y-7400484D02*
X3274825Y-7438579D01*
X3570063Y-7676674D02*
X3560539Y-7667150D01*
X3560539Y-7667150D02*
X3541491Y-7638579D01*
X3541491Y-7638579D02*
X3531968Y-7619531D01*
X3531968Y-7619531D02*
X3522444Y-7590960D01*
X3522444Y-7590960D02*
X3512920Y-7543341D01*
X3512920Y-7543341D02*
X3512920Y-7505246D01*
X3512920Y-7505246D02*
X3522444Y-7457627D01*
X3522444Y-7457627D02*
X3531968Y-7429055D01*
X3531968Y-7429055D02*
X3541491Y-7410008D01*
X3541491Y-7410008D02*
X3560539Y-7381436D01*
X3560539Y-7381436D02*
X3570063Y-7371912D01*
X3731968Y-7467150D02*
X3731968Y-7600484D01*
X3684348Y-7390960D02*
X3636729Y-7533817D01*
X3636729Y-7533817D02*
X3760539Y-7533817D01*
X3989110Y-7600484D02*
X3989110Y-7400484D01*
X4074825Y-7600484D02*
X4074825Y-7495722D01*
X4074825Y-7495722D02*
X4065301Y-7476674D01*
X4065301Y-7476674D02*
X4046253Y-7467150D01*
X4046253Y-7467150D02*
X4017682Y-7467150D01*
X4017682Y-7467150D02*
X3998634Y-7476674D01*
X3998634Y-7476674D02*
X3989110Y-7486198D01*
X4198634Y-7600484D02*
X4179587Y-7590960D01*
X4179587Y-7590960D02*
X4170063Y-7581436D01*
X4170063Y-7581436D02*
X4160539Y-7562388D01*
X4160539Y-7562388D02*
X4160539Y-7505246D01*
X4160539Y-7505246D02*
X4170063Y-7486198D01*
X4170063Y-7486198D02*
X4179587Y-7476674D01*
X4179587Y-7476674D02*
X4198634Y-7467150D01*
X4198634Y-7467150D02*
X4227206Y-7467150D01*
X4227206Y-7467150D02*
X4246253Y-7476674D01*
X4246253Y-7476674D02*
X4255777Y-7486198D01*
X4255777Y-7486198D02*
X4265301Y-7505246D01*
X4265301Y-7505246D02*
X4265301Y-7562388D01*
X4265301Y-7562388D02*
X4255777Y-7581436D01*
X4255777Y-7581436D02*
X4246253Y-7590960D01*
X4246253Y-7590960D02*
X4227206Y-7600484D01*
X4227206Y-7600484D02*
X4198634Y-7600484D01*
X4379587Y-7600484D02*
X4360539Y-7590960D01*
X4360539Y-7590960D02*
X4351015Y-7571912D01*
X4351015Y-7571912D02*
X4351015Y-7400484D01*
X4531968Y-7590960D02*
X4512920Y-7600484D01*
X4512920Y-7600484D02*
X4474825Y-7600484D01*
X4474825Y-7600484D02*
X4455777Y-7590960D01*
X4455777Y-7590960D02*
X4446253Y-7571912D01*
X4446253Y-7571912D02*
X4446253Y-7495722D01*
X4446253Y-7495722D02*
X4455777Y-7476674D01*
X4455777Y-7476674D02*
X4474825Y-7467150D01*
X4474825Y-7467150D02*
X4512920Y-7467150D01*
X4512920Y-7467150D02*
X4531968Y-7476674D01*
X4531968Y-7476674D02*
X4541492Y-7495722D01*
X4541492Y-7495722D02*
X4541492Y-7514769D01*
X4541492Y-7514769D02*
X4446253Y-7533817D01*
X4617682Y-7590960D02*
X4636730Y-7600484D01*
X4636730Y-7600484D02*
X4674825Y-7600484D01*
X4674825Y-7600484D02*
X4693873Y-7590960D01*
X4693873Y-7590960D02*
X4703396Y-7571912D01*
X4703396Y-7571912D02*
X4703396Y-7562388D01*
X4703396Y-7562388D02*
X4693873Y-7543341D01*
X4693873Y-7543341D02*
X4674825Y-7533817D01*
X4674825Y-7533817D02*
X4646253Y-7533817D01*
X4646253Y-7533817D02*
X4627206Y-7524293D01*
X4627206Y-7524293D02*
X4617682Y-7505246D01*
X4617682Y-7505246D02*
X4617682Y-7495722D01*
X4617682Y-7495722D02*
X4627206Y-7476674D01*
X4627206Y-7476674D02*
X4646253Y-7467150D01*
X4646253Y-7467150D02*
X4674825Y-7467150D01*
X4674825Y-7467150D02*
X4693873Y-7476674D01*
X4770063Y-7676674D02*
X4779587Y-7667150D01*
X4779587Y-7667150D02*
X4798634Y-7638579D01*
X4798634Y-7638579D02*
X4808158Y-7619531D01*
X4808158Y-7619531D02*
X4817682Y-7590960D01*
X4817682Y-7590960D02*
X4827206Y-7543341D01*
X4827206Y-7543341D02*
X4827206Y-7505246D01*
X4827206Y-7505246D02*
X4817682Y-7457627D01*
X4817682Y-7457627D02*
X4808158Y-7429055D01*
X4808158Y-7429055D02*
X4798634Y-7410008D01*
X4798634Y-7410008D02*
X4779587Y-7381436D01*
X4779587Y-7381436D02*
X4770063Y-7371912D01*
X-105000Y-7673000D02*
X-105000Y-7873000D01*
X-205000Y-7773000D02*
X-5000Y-7773000D01*
X246253Y-7683531D02*
X255777Y-7674008D01*
X255777Y-7674008D02*
X274824Y-7664484D01*
X274824Y-7664484D02*
X322444Y-7664484D01*
X322444Y-7664484D02*
X341491Y-7674008D01*
X341491Y-7674008D02*
X351015Y-7683531D01*
X351015Y-7683531D02*
X360539Y-7702579D01*
X360539Y-7702579D02*
X360539Y-7721627D01*
X360539Y-7721627D02*
X351015Y-7750198D01*
X351015Y-7750198D02*
X236729Y-7864484D01*
X236729Y-7864484D02*
X360539Y-7864484D01*
X446253Y-7845436D02*
X455777Y-7854960D01*
X455777Y-7854960D02*
X446253Y-7864484D01*
X446253Y-7864484D02*
X436729Y-7854960D01*
X436729Y-7854960D02*
X446253Y-7845436D01*
X446253Y-7845436D02*
X446253Y-7864484D01*
X531967Y-7683531D02*
X541491Y-7674008D01*
X541491Y-7674008D02*
X560539Y-7664484D01*
X560539Y-7664484D02*
X608158Y-7664484D01*
X608158Y-7664484D02*
X627205Y-7674008D01*
X627205Y-7674008D02*
X636729Y-7683531D01*
X636729Y-7683531D02*
X646253Y-7702579D01*
X646253Y-7702579D02*
X646253Y-7721627D01*
X646253Y-7721627D02*
X636729Y-7750198D01*
X636729Y-7750198D02*
X522443Y-7864484D01*
X522443Y-7864484D02*
X646253Y-7864484D01*
X770062Y-7664484D02*
X789110Y-7664484D01*
X789110Y-7664484D02*
X808158Y-7674008D01*
X808158Y-7674008D02*
X817682Y-7683531D01*
X817682Y-7683531D02*
X827205Y-7702579D01*
X827205Y-7702579D02*
X836729Y-7740674D01*
X836729Y-7740674D02*
X836729Y-7788293D01*
X836729Y-7788293D02*
X827205Y-7826388D01*
X827205Y-7826388D02*
X817682Y-7845436D01*
X817682Y-7845436D02*
X808158Y-7854960D01*
X808158Y-7854960D02*
X789110Y-7864484D01*
X789110Y-7864484D02*
X770062Y-7864484D01*
X770062Y-7864484D02*
X751015Y-7854960D01*
X751015Y-7854960D02*
X741491Y-7845436D01*
X741491Y-7845436D02*
X731967Y-7826388D01*
X731967Y-7826388D02*
X722443Y-7788293D01*
X722443Y-7788293D02*
X722443Y-7740674D01*
X722443Y-7740674D02*
X731967Y-7702579D01*
X731967Y-7702579D02*
X741491Y-7683531D01*
X741491Y-7683531D02*
X751015Y-7674008D01*
X751015Y-7674008D02*
X770062Y-7664484D01*
X960539Y-7664484D02*
X979586Y-7664484D01*
X979586Y-7664484D02*
X998634Y-7674008D01*
X998634Y-7674008D02*
X1008158Y-7683531D01*
X1008158Y-7683531D02*
X1017682Y-7702579D01*
X1017682Y-7702579D02*
X1027205Y-7740674D01*
X1027205Y-7740674D02*
X1027205Y-7788293D01*
X1027205Y-7788293D02*
X1017682Y-7826388D01*
X1017682Y-7826388D02*
X1008158Y-7845436D01*
X1008158Y-7845436D02*
X998634Y-7854960D01*
X998634Y-7854960D02*
X979586Y-7864484D01*
X979586Y-7864484D02*
X960539Y-7864484D01*
X960539Y-7864484D02*
X941491Y-7854960D01*
X941491Y-7854960D02*
X931967Y-7845436D01*
X931967Y-7845436D02*
X922443Y-7826388D01*
X922443Y-7826388D02*
X912920Y-7788293D01*
X912920Y-7788293D02*
X912920Y-7740674D01*
X912920Y-7740674D02*
X922443Y-7702579D01*
X922443Y-7702579D02*
X931967Y-7683531D01*
X931967Y-7683531D02*
X941491Y-7674008D01*
X941491Y-7674008D02*
X960539Y-7664484D01*
X1112920Y-7864484D02*
X1112920Y-7731150D01*
X1112920Y-7750198D02*
X1122444Y-7740674D01*
X1122444Y-7740674D02*
X1141491Y-7731150D01*
X1141491Y-7731150D02*
X1170063Y-7731150D01*
X1170063Y-7731150D02*
X1189110Y-7740674D01*
X1189110Y-7740674D02*
X1198634Y-7759722D01*
X1198634Y-7759722D02*
X1198634Y-7864484D01*
X1198634Y-7759722D02*
X1208158Y-7740674D01*
X1208158Y-7740674D02*
X1227205Y-7731150D01*
X1227205Y-7731150D02*
X1255777Y-7731150D01*
X1255777Y-7731150D02*
X1274825Y-7740674D01*
X1274825Y-7740674D02*
X1284348Y-7759722D01*
X1284348Y-7759722D02*
X1284348Y-7864484D01*
X1379586Y-7864484D02*
X1379586Y-7731150D01*
X1379586Y-7750198D02*
X1389110Y-7740674D01*
X1389110Y-7740674D02*
X1408158Y-7731150D01*
X1408158Y-7731150D02*
X1436729Y-7731150D01*
X1436729Y-7731150D02*
X1455777Y-7740674D01*
X1455777Y-7740674D02*
X1465301Y-7759722D01*
X1465301Y-7759722D02*
X1465301Y-7864484D01*
X1465301Y-7759722D02*
X1474824Y-7740674D01*
X1474824Y-7740674D02*
X1493872Y-7731150D01*
X1493872Y-7731150D02*
X1522443Y-7731150D01*
X1522443Y-7731150D02*
X1541491Y-7740674D01*
X1541491Y-7740674D02*
X1551015Y-7759722D01*
X1551015Y-7759722D02*
X1551015Y-7864484D01*
X1941491Y-7654960D02*
X1770063Y-7912103D01*
X2198634Y-7664484D02*
X2217682Y-7664484D01*
X2217682Y-7664484D02*
X2236729Y-7674008D01*
X2236729Y-7674008D02*
X2246253Y-7683531D01*
X2246253Y-7683531D02*
X2255777Y-7702579D01*
X2255777Y-7702579D02*
X2265301Y-7740674D01*
X2265301Y-7740674D02*
X2265301Y-7788293D01*
X2265301Y-7788293D02*
X2255777Y-7826388D01*
X2255777Y-7826388D02*
X2246253Y-7845436D01*
X2246253Y-7845436D02*
X2236729Y-7854960D01*
X2236729Y-7854960D02*
X2217682Y-7864484D01*
X2217682Y-7864484D02*
X2198634Y-7864484D01*
X2198634Y-7864484D02*
X2179587Y-7854960D01*
X2179587Y-7854960D02*
X2170063Y-7845436D01*
X2170063Y-7845436D02*
X2160539Y-7826388D01*
X2160539Y-7826388D02*
X2151015Y-7788293D01*
X2151015Y-7788293D02*
X2151015Y-7740674D01*
X2151015Y-7740674D02*
X2160539Y-7702579D01*
X2160539Y-7702579D02*
X2170063Y-7683531D01*
X2170063Y-7683531D02*
X2179587Y-7674008D01*
X2179587Y-7674008D02*
X2198634Y-7664484D01*
X2351015Y-7845436D02*
X2360539Y-7854960D01*
X2360539Y-7854960D02*
X2351015Y-7864484D01*
X2351015Y-7864484D02*
X2341491Y-7854960D01*
X2341491Y-7854960D02*
X2351015Y-7845436D01*
X2351015Y-7845436D02*
X2351015Y-7864484D01*
X2484348Y-7664484D02*
X2503396Y-7664484D01*
X2503396Y-7664484D02*
X2522444Y-7674008D01*
X2522444Y-7674008D02*
X2531968Y-7683531D01*
X2531968Y-7683531D02*
X2541491Y-7702579D01*
X2541491Y-7702579D02*
X2551015Y-7740674D01*
X2551015Y-7740674D02*
X2551015Y-7788293D01*
X2551015Y-7788293D02*
X2541491Y-7826388D01*
X2541491Y-7826388D02*
X2531968Y-7845436D01*
X2531968Y-7845436D02*
X2522444Y-7854960D01*
X2522444Y-7854960D02*
X2503396Y-7864484D01*
X2503396Y-7864484D02*
X2484348Y-7864484D01*
X2484348Y-7864484D02*
X2465301Y-7854960D01*
X2465301Y-7854960D02*
X2455777Y-7845436D01*
X2455777Y-7845436D02*
X2446253Y-7826388D01*
X2446253Y-7826388D02*
X2436729Y-7788293D01*
X2436729Y-7788293D02*
X2436729Y-7740674D01*
X2436729Y-7740674D02*
X2446253Y-7702579D01*
X2446253Y-7702579D02*
X2455777Y-7683531D01*
X2455777Y-7683531D02*
X2465301Y-7674008D01*
X2465301Y-7674008D02*
X2484348Y-7664484D01*
X2665301Y-7750198D02*
X2646253Y-7740674D01*
X2646253Y-7740674D02*
X2636729Y-7731150D01*
X2636729Y-7731150D02*
X2627206Y-7712103D01*
X2627206Y-7712103D02*
X2627206Y-7702579D01*
X2627206Y-7702579D02*
X2636729Y-7683531D01*
X2636729Y-7683531D02*
X2646253Y-7674008D01*
X2646253Y-7674008D02*
X2665301Y-7664484D01*
X2665301Y-7664484D02*
X2703396Y-7664484D01*
X2703396Y-7664484D02*
X2722444Y-7674008D01*
X2722444Y-7674008D02*
X2731968Y-7683531D01*
X2731968Y-7683531D02*
X2741491Y-7702579D01*
X2741491Y-7702579D02*
X2741491Y-7712103D01*
X2741491Y-7712103D02*
X2731968Y-7731150D01*
X2731968Y-7731150D02*
X2722444Y-7740674D01*
X2722444Y-7740674D02*
X2703396Y-7750198D01*
X2703396Y-7750198D02*
X2665301Y-7750198D01*
X2665301Y-7750198D02*
X2646253Y-7759722D01*
X2646253Y-7759722D02*
X2636729Y-7769246D01*
X2636729Y-7769246D02*
X2627206Y-7788293D01*
X2627206Y-7788293D02*
X2627206Y-7826388D01*
X2627206Y-7826388D02*
X2636729Y-7845436D01*
X2636729Y-7845436D02*
X2646253Y-7854960D01*
X2646253Y-7854960D02*
X2665301Y-7864484D01*
X2665301Y-7864484D02*
X2703396Y-7864484D01*
X2703396Y-7864484D02*
X2722444Y-7854960D01*
X2722444Y-7854960D02*
X2731968Y-7845436D01*
X2731968Y-7845436D02*
X2741491Y-7826388D01*
X2741491Y-7826388D02*
X2741491Y-7788293D01*
X2741491Y-7788293D02*
X2731968Y-7769246D01*
X2731968Y-7769246D02*
X2722444Y-7759722D01*
X2722444Y-7759722D02*
X2703396Y-7750198D01*
X2912920Y-7664484D02*
X2874825Y-7664484D01*
X2874825Y-7664484D02*
X2855777Y-7674008D01*
X2855777Y-7674008D02*
X2846253Y-7683531D01*
X2846253Y-7683531D02*
X2827206Y-7712103D01*
X2827206Y-7712103D02*
X2817682Y-7750198D01*
X2817682Y-7750198D02*
X2817682Y-7826388D01*
X2817682Y-7826388D02*
X2827206Y-7845436D01*
X2827206Y-7845436D02*
X2836729Y-7854960D01*
X2836729Y-7854960D02*
X2855777Y-7864484D01*
X2855777Y-7864484D02*
X2893872Y-7864484D01*
X2893872Y-7864484D02*
X2912920Y-7854960D01*
X2912920Y-7854960D02*
X2922444Y-7845436D01*
X2922444Y-7845436D02*
X2931967Y-7826388D01*
X2931967Y-7826388D02*
X2931967Y-7778769D01*
X2931967Y-7778769D02*
X2922444Y-7759722D01*
X2922444Y-7759722D02*
X2912920Y-7750198D01*
X2912920Y-7750198D02*
X2893872Y-7740674D01*
X2893872Y-7740674D02*
X2855777Y-7740674D01*
X2855777Y-7740674D02*
X2836729Y-7750198D01*
X2836729Y-7750198D02*
X2827206Y-7759722D01*
X2827206Y-7759722D02*
X2817682Y-7778769D01*
X3103396Y-7664484D02*
X3065301Y-7664484D01*
X3065301Y-7664484D02*
X3046253Y-7674008D01*
X3046253Y-7674008D02*
X3036729Y-7683531D01*
X3036729Y-7683531D02*
X3017682Y-7712103D01*
X3017682Y-7712103D02*
X3008158Y-7750198D01*
X3008158Y-7750198D02*
X3008158Y-7826388D01*
X3008158Y-7826388D02*
X3017682Y-7845436D01*
X3017682Y-7845436D02*
X3027206Y-7854960D01*
X3027206Y-7854960D02*
X3046253Y-7864484D01*
X3046253Y-7864484D02*
X3084348Y-7864484D01*
X3084348Y-7864484D02*
X3103396Y-7854960D01*
X3103396Y-7854960D02*
X3112920Y-7845436D01*
X3112920Y-7845436D02*
X3122444Y-7826388D01*
X3122444Y-7826388D02*
X3122444Y-7778769D01*
X3122444Y-7778769D02*
X3112920Y-7759722D01*
X3112920Y-7759722D02*
X3103396Y-7750198D01*
X3103396Y-7750198D02*
X3084348Y-7740674D01*
X3084348Y-7740674D02*
X3046253Y-7740674D01*
X3046253Y-7740674D02*
X3027206Y-7750198D01*
X3027206Y-7750198D02*
X3017682Y-7759722D01*
X3017682Y-7759722D02*
X3008158Y-7778769D01*
X3198634Y-7664484D02*
X3198634Y-7702579D01*
X3274825Y-7664484D02*
X3274825Y-7702579D01*
X3570063Y-7940674D02*
X3560539Y-7931150D01*
X3560539Y-7931150D02*
X3541491Y-7902579D01*
X3541491Y-7902579D02*
X3531968Y-7883531D01*
X3531968Y-7883531D02*
X3522444Y-7854960D01*
X3522444Y-7854960D02*
X3512920Y-7807341D01*
X3512920Y-7807341D02*
X3512920Y-7769246D01*
X3512920Y-7769246D02*
X3522444Y-7721627D01*
X3522444Y-7721627D02*
X3531968Y-7693055D01*
X3531968Y-7693055D02*
X3541491Y-7674008D01*
X3541491Y-7674008D02*
X3560539Y-7645436D01*
X3560539Y-7645436D02*
X3570063Y-7635912D01*
X3627206Y-7664484D02*
X3751015Y-7664484D01*
X3751015Y-7664484D02*
X3684348Y-7740674D01*
X3684348Y-7740674D02*
X3712920Y-7740674D01*
X3712920Y-7740674D02*
X3731968Y-7750198D01*
X3731968Y-7750198D02*
X3741491Y-7759722D01*
X3741491Y-7759722D02*
X3751015Y-7778769D01*
X3751015Y-7778769D02*
X3751015Y-7826388D01*
X3751015Y-7826388D02*
X3741491Y-7845436D01*
X3741491Y-7845436D02*
X3731968Y-7854960D01*
X3731968Y-7854960D02*
X3712920Y-7864484D01*
X3712920Y-7864484D02*
X3655777Y-7864484D01*
X3655777Y-7864484D02*
X3636729Y-7854960D01*
X3636729Y-7854960D02*
X3627206Y-7845436D01*
X3989110Y-7864484D02*
X3989110Y-7664484D01*
X4074825Y-7864484D02*
X4074825Y-7759722D01*
X4074825Y-7759722D02*
X4065301Y-7740674D01*
X4065301Y-7740674D02*
X4046253Y-7731150D01*
X4046253Y-7731150D02*
X4017682Y-7731150D01*
X4017682Y-7731150D02*
X3998634Y-7740674D01*
X3998634Y-7740674D02*
X3989110Y-7750198D01*
X4198634Y-7864484D02*
X4179587Y-7854960D01*
X4179587Y-7854960D02*
X4170063Y-7845436D01*
X4170063Y-7845436D02*
X4160539Y-7826388D01*
X4160539Y-7826388D02*
X4160539Y-7769246D01*
X4160539Y-7769246D02*
X4170063Y-7750198D01*
X4170063Y-7750198D02*
X4179587Y-7740674D01*
X4179587Y-7740674D02*
X4198634Y-7731150D01*
X4198634Y-7731150D02*
X4227206Y-7731150D01*
X4227206Y-7731150D02*
X4246253Y-7740674D01*
X4246253Y-7740674D02*
X4255777Y-7750198D01*
X4255777Y-7750198D02*
X4265301Y-7769246D01*
X4265301Y-7769246D02*
X4265301Y-7826388D01*
X4265301Y-7826388D02*
X4255777Y-7845436D01*
X4255777Y-7845436D02*
X4246253Y-7854960D01*
X4246253Y-7854960D02*
X4227206Y-7864484D01*
X4227206Y-7864484D02*
X4198634Y-7864484D01*
X4379587Y-7864484D02*
X4360539Y-7854960D01*
X4360539Y-7854960D02*
X4351015Y-7835912D01*
X4351015Y-7835912D02*
X4351015Y-7664484D01*
X4531968Y-7854960D02*
X4512920Y-7864484D01*
X4512920Y-7864484D02*
X4474825Y-7864484D01*
X4474825Y-7864484D02*
X4455777Y-7854960D01*
X4455777Y-7854960D02*
X4446253Y-7835912D01*
X4446253Y-7835912D02*
X4446253Y-7759722D01*
X4446253Y-7759722D02*
X4455777Y-7740674D01*
X4455777Y-7740674D02*
X4474825Y-7731150D01*
X4474825Y-7731150D02*
X4512920Y-7731150D01*
X4512920Y-7731150D02*
X4531968Y-7740674D01*
X4531968Y-7740674D02*
X4541492Y-7759722D01*
X4541492Y-7759722D02*
X4541492Y-7778769D01*
X4541492Y-7778769D02*
X4446253Y-7797817D01*
X4617682Y-7854960D02*
X4636730Y-7864484D01*
X4636730Y-7864484D02*
X4674825Y-7864484D01*
X4674825Y-7864484D02*
X4693873Y-7854960D01*
X4693873Y-7854960D02*
X4703396Y-7835912D01*
X4703396Y-7835912D02*
X4703396Y-7826388D01*
X4703396Y-7826388D02*
X4693873Y-7807341D01*
X4693873Y-7807341D02*
X4674825Y-7797817D01*
X4674825Y-7797817D02*
X4646253Y-7797817D01*
X4646253Y-7797817D02*
X4627206Y-7788293D01*
X4627206Y-7788293D02*
X4617682Y-7769246D01*
X4617682Y-7769246D02*
X4617682Y-7759722D01*
X4617682Y-7759722D02*
X4627206Y-7740674D01*
X4627206Y-7740674D02*
X4646253Y-7731150D01*
X4646253Y-7731150D02*
X4674825Y-7731150D01*
X4674825Y-7731150D02*
X4693873Y-7740674D01*
X4770063Y-7940674D02*
X4779587Y-7931150D01*
X4779587Y-7931150D02*
X4798634Y-7902579D01*
X4798634Y-7902579D02*
X4808158Y-7883531D01*
X4808158Y-7883531D02*
X4817682Y-7854960D01*
X4817682Y-7854960D02*
X4827206Y-7807341D01*
X4827206Y-7807341D02*
X4827206Y-7769246D01*
X4827206Y-7769246D02*
X4817682Y-7721627D01*
X4817682Y-7721627D02*
X4808158Y-7693055D01*
X4808158Y-7693055D02*
X4798634Y-7674008D01*
X4798634Y-7674008D02*
X4779587Y-7645436D01*
X4779587Y-7645436D02*
X4770063Y-7635912D01*
M02*
