M48
; DRILL file {KiCad 9.0.3} date 2025-07-16T23:37:29+0200
; FORMAT={-:-/ absolute / metric / decimal}
; #@! TF.CreationDate,2025-07-16T23:37:29+02:00
; #@! TF.GenerationSoftware,Kicad,Pcbnew,9.0.3
; #@! TF.FileFunction,Plated,1,2,PTH
FMAT,2
METRIC
; #@! TA.AperFunction,Plated,PTH,ViaDrill
T1C0.300
%
G90
G05
T1
X2.5Y-7.0
X2.5Y-9.0
X2.5Y-11.0
X2.5Y-12.5
X2.5Y-18.0
X4.0Y-18.0
X4.5Y-2.5
X5.5Y-2.5
X5.5Y-18.0
X6.5Y-2.5
X6.5Y-3.5
X6.5Y-4.5
X6.5Y-5.5
X9.595Y-4.0
X10.0Y-3.0
X10.5Y-7.5
X10.5Y-8.5
X11.5Y-7.5
X11.5Y-8.5
X12.5Y-7.5
X12.5Y-8.5
X14.5Y-3.8
X14.5Y-4.5
X15.0Y-17.5
X16.0Y-7.0
X16.5Y-11.5
X16.5Y-17.5
X17.5Y-7.0
X17.5Y-11.5
X18.0Y-17.5
M30
