%TF.GenerationSoftware,KiCad,Pcbnew,9.0.3*%
%TF.CreationDate,2025-07-16T23:37:23+02:00*%
%TF.ProjectId,ialightsens,69616c69-6768-4747-9365-6e732e6b6963,rev?*%
%TF.SameCoordinates,Original*%
%TF.FileFunction,Legend,Top*%
%TF.FilePolarity,Positive*%
%FSLAX46Y46*%
G04 Gerber Fmt 4.6, Leading zero omitted, Abs format (unit mm)*
G04 Created by KiCad (PCBNEW 9.0.3) date 2025-07-16 23:37:23*
%MOMM*%
%LPD*%
G01*
G04 APERTURE LIST*
%ADD10C,0.100000*%
%ADD11C,0.250000*%
%ADD12C,0.150000*%
%ADD13C,0.120000*%
%ADD14C,0.127000*%
G04 APERTURE END LIST*
D10*
X15500000Y-9200000D02*
X18500000Y-9200000D01*
X18500000Y-10800000D01*
X15500000Y-10800000D01*
X15500000Y-9200000D01*
D11*
X16054949Y-8417000D02*
X16150187Y-8464619D01*
X16150187Y-8464619D02*
X16340663Y-8464619D01*
X16340663Y-8464619D02*
X16435901Y-8417000D01*
X16435901Y-8417000D02*
X16483520Y-8321761D01*
X16483520Y-8321761D02*
X16483520Y-8274142D01*
X16483520Y-8274142D02*
X16435901Y-8178904D01*
X16435901Y-8178904D02*
X16340663Y-8131285D01*
X16340663Y-8131285D02*
X16197806Y-8131285D01*
X16197806Y-8131285D02*
X16102568Y-8083666D01*
X16102568Y-8083666D02*
X16054949Y-7988428D01*
X16054949Y-7988428D02*
X16054949Y-7940809D01*
X16054949Y-7940809D02*
X16102568Y-7845571D01*
X16102568Y-7845571D02*
X16197806Y-7797952D01*
X16197806Y-7797952D02*
X16340663Y-7797952D01*
X16340663Y-7797952D02*
X16435901Y-7845571D01*
X17293044Y-8417000D02*
X17197806Y-8464619D01*
X17197806Y-8464619D02*
X17007330Y-8464619D01*
X17007330Y-8464619D02*
X16912092Y-8417000D01*
X16912092Y-8417000D02*
X16864473Y-8321761D01*
X16864473Y-8321761D02*
X16864473Y-7940809D01*
X16864473Y-7940809D02*
X16912092Y-7845571D01*
X16912092Y-7845571D02*
X17007330Y-7797952D01*
X17007330Y-7797952D02*
X17197806Y-7797952D01*
X17197806Y-7797952D02*
X17293044Y-7845571D01*
X17293044Y-7845571D02*
X17340663Y-7940809D01*
X17340663Y-7940809D02*
X17340663Y-8036047D01*
X17340663Y-8036047D02*
X16864473Y-8131285D01*
X17769235Y-7797952D02*
X17769235Y-8464619D01*
X17769235Y-7893190D02*
X17816854Y-7845571D01*
X17816854Y-7845571D02*
X17912092Y-7797952D01*
X17912092Y-7797952D02*
X18054949Y-7797952D01*
X18054949Y-7797952D02*
X18150187Y-7845571D01*
X18150187Y-7845571D02*
X18197806Y-7940809D01*
X18197806Y-7940809D02*
X18197806Y-8464619D01*
X18626378Y-8417000D02*
X18721616Y-8464619D01*
X18721616Y-8464619D02*
X18912092Y-8464619D01*
X18912092Y-8464619D02*
X19007330Y-8417000D01*
X19007330Y-8417000D02*
X19054949Y-8321761D01*
X19054949Y-8321761D02*
X19054949Y-8274142D01*
X19054949Y-8274142D02*
X19007330Y-8178904D01*
X19007330Y-8178904D02*
X18912092Y-8131285D01*
X18912092Y-8131285D02*
X18769235Y-8131285D01*
X18769235Y-8131285D02*
X18673997Y-8083666D01*
X18673997Y-8083666D02*
X18626378Y-7988428D01*
X18626378Y-7988428D02*
X18626378Y-7940809D01*
X18626378Y-7940809D02*
X18673997Y-7845571D01*
X18673997Y-7845571D02*
X18769235Y-7797952D01*
X18769235Y-7797952D02*
X18912092Y-7797952D01*
X18912092Y-7797952D02*
X19007330Y-7845571D01*
X902568Y-18364619D02*
X902568Y-17697952D01*
X902568Y-17364619D02*
X854949Y-17412238D01*
X854949Y-17412238D02*
X902568Y-17459857D01*
X902568Y-17459857D02*
X950187Y-17412238D01*
X950187Y-17412238D02*
X902568Y-17364619D01*
X902568Y-17364619D02*
X902568Y-17459857D01*
X1807329Y-18364619D02*
X1807329Y-17840809D01*
X1807329Y-17840809D02*
X1759710Y-17745571D01*
X1759710Y-17745571D02*
X1664472Y-17697952D01*
X1664472Y-17697952D02*
X1473996Y-17697952D01*
X1473996Y-17697952D02*
X1378758Y-17745571D01*
X1807329Y-18317000D02*
X1712091Y-18364619D01*
X1712091Y-18364619D02*
X1473996Y-18364619D01*
X1473996Y-18364619D02*
X1378758Y-18317000D01*
X1378758Y-18317000D02*
X1331139Y-18221761D01*
X1331139Y-18221761D02*
X1331139Y-18126523D01*
X1331139Y-18126523D02*
X1378758Y-18031285D01*
X1378758Y-18031285D02*
X1473996Y-17983666D01*
X1473996Y-17983666D02*
X1712091Y-17983666D01*
X1712091Y-17983666D02*
X1807329Y-17936047D01*
X2426377Y-18364619D02*
X2331139Y-18317000D01*
X2331139Y-18317000D02*
X2283520Y-18221761D01*
X2283520Y-18221761D02*
X2283520Y-17364619D01*
X2807330Y-18364619D02*
X2807330Y-17697952D01*
X2807330Y-17364619D02*
X2759711Y-17412238D01*
X2759711Y-17412238D02*
X2807330Y-17459857D01*
X2807330Y-17459857D02*
X2854949Y-17412238D01*
X2854949Y-17412238D02*
X2807330Y-17364619D01*
X2807330Y-17364619D02*
X2807330Y-17459857D01*
X3712091Y-17697952D02*
X3712091Y-18507476D01*
X3712091Y-18507476D02*
X3664472Y-18602714D01*
X3664472Y-18602714D02*
X3616853Y-18650333D01*
X3616853Y-18650333D02*
X3521615Y-18697952D01*
X3521615Y-18697952D02*
X3378758Y-18697952D01*
X3378758Y-18697952D02*
X3283520Y-18650333D01*
X3712091Y-18317000D02*
X3616853Y-18364619D01*
X3616853Y-18364619D02*
X3426377Y-18364619D01*
X3426377Y-18364619D02*
X3331139Y-18317000D01*
X3331139Y-18317000D02*
X3283520Y-18269380D01*
X3283520Y-18269380D02*
X3235901Y-18174142D01*
X3235901Y-18174142D02*
X3235901Y-17888428D01*
X3235901Y-17888428D02*
X3283520Y-17793190D01*
X3283520Y-17793190D02*
X3331139Y-17745571D01*
X3331139Y-17745571D02*
X3426377Y-17697952D01*
X3426377Y-17697952D02*
X3616853Y-17697952D01*
X3616853Y-17697952D02*
X3712091Y-17745571D01*
X4188282Y-18364619D02*
X4188282Y-17364619D01*
X4616853Y-18364619D02*
X4616853Y-17840809D01*
X4616853Y-17840809D02*
X4569234Y-17745571D01*
X4569234Y-17745571D02*
X4473996Y-17697952D01*
X4473996Y-17697952D02*
X4331139Y-17697952D01*
X4331139Y-17697952D02*
X4235901Y-17745571D01*
X4235901Y-17745571D02*
X4188282Y-17793190D01*
X4950187Y-17697952D02*
X5331139Y-17697952D01*
X5093044Y-17364619D02*
X5093044Y-18221761D01*
X5093044Y-18221761D02*
X5140663Y-18317000D01*
X5140663Y-18317000D02*
X5235901Y-18364619D01*
X5235901Y-18364619D02*
X5331139Y-18364619D01*
X5616854Y-18317000D02*
X5712092Y-18364619D01*
X5712092Y-18364619D02*
X5902568Y-18364619D01*
X5902568Y-18364619D02*
X5997806Y-18317000D01*
X5997806Y-18317000D02*
X6045425Y-18221761D01*
X6045425Y-18221761D02*
X6045425Y-18174142D01*
X6045425Y-18174142D02*
X5997806Y-18078904D01*
X5997806Y-18078904D02*
X5902568Y-18031285D01*
X5902568Y-18031285D02*
X5759711Y-18031285D01*
X5759711Y-18031285D02*
X5664473Y-17983666D01*
X5664473Y-17983666D02*
X5616854Y-17888428D01*
X5616854Y-17888428D02*
X5616854Y-17840809D01*
X5616854Y-17840809D02*
X5664473Y-17745571D01*
X5664473Y-17745571D02*
X5759711Y-17697952D01*
X5759711Y-17697952D02*
X5902568Y-17697952D01*
X5902568Y-17697952D02*
X5997806Y-17745571D01*
X6854949Y-18317000D02*
X6759711Y-18364619D01*
X6759711Y-18364619D02*
X6569235Y-18364619D01*
X6569235Y-18364619D02*
X6473997Y-18317000D01*
X6473997Y-18317000D02*
X6426378Y-18221761D01*
X6426378Y-18221761D02*
X6426378Y-17840809D01*
X6426378Y-17840809D02*
X6473997Y-17745571D01*
X6473997Y-17745571D02*
X6569235Y-17697952D01*
X6569235Y-17697952D02*
X6759711Y-17697952D01*
X6759711Y-17697952D02*
X6854949Y-17745571D01*
X6854949Y-17745571D02*
X6902568Y-17840809D01*
X6902568Y-17840809D02*
X6902568Y-17936047D01*
X6902568Y-17936047D02*
X6426378Y-18031285D01*
X7331140Y-17697952D02*
X7331140Y-18364619D01*
X7331140Y-17793190D02*
X7378759Y-17745571D01*
X7378759Y-17745571D02*
X7473997Y-17697952D01*
X7473997Y-17697952D02*
X7616854Y-17697952D01*
X7616854Y-17697952D02*
X7712092Y-17745571D01*
X7712092Y-17745571D02*
X7759711Y-17840809D01*
X7759711Y-17840809D02*
X7759711Y-18364619D01*
X8188283Y-18317000D02*
X8283521Y-18364619D01*
X8283521Y-18364619D02*
X8473997Y-18364619D01*
X8473997Y-18364619D02*
X8569235Y-18317000D01*
X8569235Y-18317000D02*
X8616854Y-18221761D01*
X8616854Y-18221761D02*
X8616854Y-18174142D01*
X8616854Y-18174142D02*
X8569235Y-18078904D01*
X8569235Y-18078904D02*
X8473997Y-18031285D01*
X8473997Y-18031285D02*
X8331140Y-18031285D01*
X8331140Y-18031285D02*
X8235902Y-17983666D01*
X8235902Y-17983666D02*
X8188283Y-17888428D01*
X8188283Y-17888428D02*
X8188283Y-17840809D01*
X8188283Y-17840809D02*
X8235902Y-17745571D01*
X8235902Y-17745571D02*
X8331140Y-17697952D01*
X8331140Y-17697952D02*
X8473997Y-17697952D01*
X8473997Y-17697952D02*
X8569235Y-17745571D01*
X15307330Y-18197952D02*
X15545425Y-18864619D01*
X15545425Y-18864619D02*
X15783520Y-18197952D01*
X16354949Y-17864619D02*
X16450187Y-17864619D01*
X16450187Y-17864619D02*
X16545425Y-17912238D01*
X16545425Y-17912238D02*
X16593044Y-17959857D01*
X16593044Y-17959857D02*
X16640663Y-18055095D01*
X16640663Y-18055095D02*
X16688282Y-18245571D01*
X16688282Y-18245571D02*
X16688282Y-18483666D01*
X16688282Y-18483666D02*
X16640663Y-18674142D01*
X16640663Y-18674142D02*
X16593044Y-18769380D01*
X16593044Y-18769380D02*
X16545425Y-18817000D01*
X16545425Y-18817000D02*
X16450187Y-18864619D01*
X16450187Y-18864619D02*
X16354949Y-18864619D01*
X16354949Y-18864619D02*
X16259711Y-18817000D01*
X16259711Y-18817000D02*
X16212092Y-18769380D01*
X16212092Y-18769380D02*
X16164473Y-18674142D01*
X16164473Y-18674142D02*
X16116854Y-18483666D01*
X16116854Y-18483666D02*
X16116854Y-18245571D01*
X16116854Y-18245571D02*
X16164473Y-18055095D01*
X16164473Y-18055095D02*
X16212092Y-17959857D01*
X16212092Y-17959857D02*
X16259711Y-17912238D01*
X16259711Y-17912238D02*
X16354949Y-17864619D01*
X17116854Y-18769380D02*
X17164473Y-18817000D01*
X17164473Y-18817000D02*
X17116854Y-18864619D01*
X17116854Y-18864619D02*
X17069235Y-18817000D01*
X17069235Y-18817000D02*
X17116854Y-18769380D01*
X17116854Y-18769380D02*
X17116854Y-18864619D01*
X18116853Y-18864619D02*
X17545425Y-18864619D01*
X17831139Y-18864619D02*
X17831139Y-17864619D01*
X17831139Y-17864619D02*
X17735901Y-18007476D01*
X17735901Y-18007476D02*
X17640663Y-18102714D01*
X17640663Y-18102714D02*
X17545425Y-18150333D01*
X1426377Y-2364619D02*
X854949Y-2364619D01*
X1140663Y-2364619D02*
X1140663Y-1364619D01*
X1140663Y-1364619D02*
X1045425Y-1507476D01*
X1045425Y-1507476D02*
X950187Y-1602714D01*
X950187Y-1602714D02*
X854949Y-1650333D01*
X2283520Y-1364619D02*
X2093044Y-1364619D01*
X2093044Y-1364619D02*
X1997806Y-1412238D01*
X1997806Y-1412238D02*
X1950187Y-1459857D01*
X1950187Y-1459857D02*
X1854949Y-1602714D01*
X1854949Y-1602714D02*
X1807330Y-1793190D01*
X1807330Y-1793190D02*
X1807330Y-2174142D01*
X1807330Y-2174142D02*
X1854949Y-2269380D01*
X1854949Y-2269380D02*
X1902568Y-2317000D01*
X1902568Y-2317000D02*
X1997806Y-2364619D01*
X1997806Y-2364619D02*
X2188282Y-2364619D01*
X2188282Y-2364619D02*
X2283520Y-2317000D01*
X2283520Y-2317000D02*
X2331139Y-2269380D01*
X2331139Y-2269380D02*
X2378758Y-2174142D01*
X2378758Y-2174142D02*
X2378758Y-1936047D01*
X2378758Y-1936047D02*
X2331139Y-1840809D01*
X2331139Y-1840809D02*
X2283520Y-1793190D01*
X2283520Y-1793190D02*
X2188282Y-1745571D01*
X2188282Y-1745571D02*
X1997806Y-1745571D01*
X1997806Y-1745571D02*
X1902568Y-1793190D01*
X1902568Y-1793190D02*
X1854949Y-1840809D01*
X1854949Y-1840809D02*
X1807330Y-1936047D01*
X2807330Y-2269380D02*
X2854949Y-2317000D01*
X2854949Y-2317000D02*
X2807330Y-2364619D01*
X2807330Y-2364619D02*
X2759711Y-2317000D01*
X2759711Y-2317000D02*
X2807330Y-2269380D01*
X2807330Y-2269380D02*
X2807330Y-2364619D01*
X3188282Y-1364619D02*
X3854948Y-1364619D01*
X3854948Y-1364619D02*
X3426377Y-2364619D01*
X4235901Y-2269380D02*
X4283520Y-2317000D01*
X4283520Y-2317000D02*
X4235901Y-2364619D01*
X4235901Y-2364619D02*
X4188282Y-2317000D01*
X4188282Y-2317000D02*
X4235901Y-2269380D01*
X4235901Y-2269380D02*
X4235901Y-2364619D01*
X4664472Y-1459857D02*
X4712091Y-1412238D01*
X4712091Y-1412238D02*
X4807329Y-1364619D01*
X4807329Y-1364619D02*
X5045424Y-1364619D01*
X5045424Y-1364619D02*
X5140662Y-1412238D01*
X5140662Y-1412238D02*
X5188281Y-1459857D01*
X5188281Y-1459857D02*
X5235900Y-1555095D01*
X5235900Y-1555095D02*
X5235900Y-1650333D01*
X5235900Y-1650333D02*
X5188281Y-1793190D01*
X5188281Y-1793190D02*
X4616853Y-2364619D01*
X4616853Y-2364619D02*
X5235900Y-2364619D01*
X6140662Y-1364619D02*
X5664472Y-1364619D01*
X5664472Y-1364619D02*
X5616853Y-1840809D01*
X5616853Y-1840809D02*
X5664472Y-1793190D01*
X5664472Y-1793190D02*
X5759710Y-1745571D01*
X5759710Y-1745571D02*
X5997805Y-1745571D01*
X5997805Y-1745571D02*
X6093043Y-1793190D01*
X6093043Y-1793190D02*
X6140662Y-1840809D01*
X6140662Y-1840809D02*
X6188281Y-1936047D01*
X6188281Y-1936047D02*
X6188281Y-2174142D01*
X6188281Y-2174142D02*
X6140662Y-2269380D01*
X6140662Y-2269380D02*
X6093043Y-2317000D01*
X6093043Y-2317000D02*
X5997805Y-2364619D01*
X5997805Y-2364619D02*
X5759710Y-2364619D01*
X5759710Y-2364619D02*
X5664472Y-2317000D01*
X5664472Y-2317000D02*
X5616853Y-2269380D01*
D12*
X12158333Y-13454819D02*
X11825000Y-12978628D01*
X11586905Y-13454819D02*
X11586905Y-12454819D01*
X11586905Y-12454819D02*
X11967857Y-12454819D01*
X11967857Y-12454819D02*
X12063095Y-12502438D01*
X12063095Y-12502438D02*
X12110714Y-12550057D01*
X12110714Y-12550057D02*
X12158333Y-12645295D01*
X12158333Y-12645295D02*
X12158333Y-12788152D01*
X12158333Y-12788152D02*
X12110714Y-12883390D01*
X12110714Y-12883390D02*
X12063095Y-12931009D01*
X12063095Y-12931009D02*
X11967857Y-12978628D01*
X11967857Y-12978628D02*
X11586905Y-12978628D01*
X12491667Y-12454819D02*
X13110714Y-12454819D01*
X13110714Y-12454819D02*
X12777381Y-12835771D01*
X12777381Y-12835771D02*
X12920238Y-12835771D01*
X12920238Y-12835771D02*
X13015476Y-12883390D01*
X13015476Y-12883390D02*
X13063095Y-12931009D01*
X13063095Y-12931009D02*
X13110714Y-13026247D01*
X13110714Y-13026247D02*
X13110714Y-13264342D01*
X13110714Y-13264342D02*
X13063095Y-13359580D01*
X13063095Y-13359580D02*
X13015476Y-13407200D01*
X13015476Y-13407200D02*
X12920238Y-13454819D01*
X12920238Y-13454819D02*
X12634524Y-13454819D01*
X12634524Y-13454819D02*
X12539286Y-13407200D01*
X12539286Y-13407200D02*
X12491667Y-13359580D01*
X13884819Y-16841666D02*
X13408628Y-17174999D01*
X13884819Y-17413094D02*
X12884819Y-17413094D01*
X12884819Y-17413094D02*
X12884819Y-17032142D01*
X12884819Y-17032142D02*
X12932438Y-16936904D01*
X12932438Y-16936904D02*
X12980057Y-16889285D01*
X12980057Y-16889285D02*
X13075295Y-16841666D01*
X13075295Y-16841666D02*
X13218152Y-16841666D01*
X13218152Y-16841666D02*
X13313390Y-16889285D01*
X13313390Y-16889285D02*
X13361009Y-16936904D01*
X13361009Y-16936904D02*
X13408628Y-17032142D01*
X13408628Y-17032142D02*
X13408628Y-17413094D01*
X12884819Y-15936904D02*
X12884819Y-16413094D01*
X12884819Y-16413094D02*
X13361009Y-16460713D01*
X13361009Y-16460713D02*
X13313390Y-16413094D01*
X13313390Y-16413094D02*
X13265771Y-16317856D01*
X13265771Y-16317856D02*
X13265771Y-16079761D01*
X13265771Y-16079761D02*
X13313390Y-15984523D01*
X13313390Y-15984523D02*
X13361009Y-15936904D01*
X13361009Y-15936904D02*
X13456247Y-15889285D01*
X13456247Y-15889285D02*
X13694342Y-15889285D01*
X13694342Y-15889285D02*
X13789580Y-15936904D01*
X13789580Y-15936904D02*
X13837200Y-15984523D01*
X13837200Y-15984523D02*
X13884819Y-16079761D01*
X13884819Y-16079761D02*
X13884819Y-16317856D01*
X13884819Y-16317856D02*
X13837200Y-16413094D01*
X13837200Y-16413094D02*
X13789580Y-16460713D01*
X6502438Y-5214285D02*
X6454819Y-5309523D01*
X6454819Y-5309523D02*
X6454819Y-5452380D01*
X6454819Y-5452380D02*
X6502438Y-5595237D01*
X6502438Y-5595237D02*
X6597676Y-5690475D01*
X6597676Y-5690475D02*
X6692914Y-5738094D01*
X6692914Y-5738094D02*
X6883390Y-5785713D01*
X6883390Y-5785713D02*
X7026247Y-5785713D01*
X7026247Y-5785713D02*
X7216723Y-5738094D01*
X7216723Y-5738094D02*
X7311961Y-5690475D01*
X7311961Y-5690475D02*
X7407200Y-5595237D01*
X7407200Y-5595237D02*
X7454819Y-5452380D01*
X7454819Y-5452380D02*
X7454819Y-5357142D01*
X7454819Y-5357142D02*
X7407200Y-5214285D01*
X7407200Y-5214285D02*
X7359580Y-5166666D01*
X7359580Y-5166666D02*
X7026247Y-5166666D01*
X7026247Y-5166666D02*
X7026247Y-5357142D01*
X7454819Y-4214285D02*
X7454819Y-4785713D01*
X7454819Y-4499999D02*
X6454819Y-4499999D01*
X6454819Y-4499999D02*
X6597676Y-4595237D01*
X6597676Y-4595237D02*
X6692914Y-4690475D01*
X6692914Y-4690475D02*
X6740533Y-4785713D01*
X8954819Y-16341666D02*
X8478628Y-16674999D01*
X8954819Y-16913094D02*
X7954819Y-16913094D01*
X7954819Y-16913094D02*
X7954819Y-16532142D01*
X7954819Y-16532142D02*
X8002438Y-16436904D01*
X8002438Y-16436904D02*
X8050057Y-16389285D01*
X8050057Y-16389285D02*
X8145295Y-16341666D01*
X8145295Y-16341666D02*
X8288152Y-16341666D01*
X8288152Y-16341666D02*
X8383390Y-16389285D01*
X8383390Y-16389285D02*
X8431009Y-16436904D01*
X8431009Y-16436904D02*
X8478628Y-16532142D01*
X8478628Y-16532142D02*
X8478628Y-16913094D01*
X8288152Y-15484523D02*
X8954819Y-15484523D01*
X7907200Y-15722618D02*
X8621485Y-15960713D01*
X8621485Y-15960713D02*
X8621485Y-15341666D01*
X16333333Y-3429580D02*
X16285714Y-3477200D01*
X16285714Y-3477200D02*
X16142857Y-3524819D01*
X16142857Y-3524819D02*
X16047619Y-3524819D01*
X16047619Y-3524819D02*
X15904762Y-3477200D01*
X15904762Y-3477200D02*
X15809524Y-3381961D01*
X15809524Y-3381961D02*
X15761905Y-3286723D01*
X15761905Y-3286723D02*
X15714286Y-3096247D01*
X15714286Y-3096247D02*
X15714286Y-2953390D01*
X15714286Y-2953390D02*
X15761905Y-2762914D01*
X15761905Y-2762914D02*
X15809524Y-2667676D01*
X15809524Y-2667676D02*
X15904762Y-2572438D01*
X15904762Y-2572438D02*
X16047619Y-2524819D01*
X16047619Y-2524819D02*
X16142857Y-2524819D01*
X16142857Y-2524819D02*
X16285714Y-2572438D01*
X16285714Y-2572438D02*
X16333333Y-2620057D01*
X17285714Y-3524819D02*
X16714286Y-3524819D01*
X17000000Y-3524819D02*
X17000000Y-2524819D01*
X17000000Y-2524819D02*
X16904762Y-2667676D01*
X16904762Y-2667676D02*
X16809524Y-2762914D01*
X16809524Y-2762914D02*
X16714286Y-2810533D01*
X14549819Y-7786904D02*
X15359342Y-7786904D01*
X15359342Y-7786904D02*
X15454580Y-7739285D01*
X15454580Y-7739285D02*
X15502200Y-7691666D01*
X15502200Y-7691666D02*
X15549819Y-7596428D01*
X15549819Y-7596428D02*
X15549819Y-7405952D01*
X15549819Y-7405952D02*
X15502200Y-7310714D01*
X15502200Y-7310714D02*
X15454580Y-7263095D01*
X15454580Y-7263095D02*
X15359342Y-7215476D01*
X15359342Y-7215476D02*
X14549819Y-7215476D01*
X15549819Y-6215476D02*
X15549819Y-6786904D01*
X15549819Y-6501190D02*
X14549819Y-6501190D01*
X14549819Y-6501190D02*
X14692676Y-6596428D01*
X14692676Y-6596428D02*
X14787914Y-6691666D01*
X14787914Y-6691666D02*
X14835533Y-6786904D01*
X12608333Y-1859580D02*
X12560714Y-1907200D01*
X12560714Y-1907200D02*
X12417857Y-1954819D01*
X12417857Y-1954819D02*
X12322619Y-1954819D01*
X12322619Y-1954819D02*
X12179762Y-1907200D01*
X12179762Y-1907200D02*
X12084524Y-1811961D01*
X12084524Y-1811961D02*
X12036905Y-1716723D01*
X12036905Y-1716723D02*
X11989286Y-1526247D01*
X11989286Y-1526247D02*
X11989286Y-1383390D01*
X11989286Y-1383390D02*
X12036905Y-1192914D01*
X12036905Y-1192914D02*
X12084524Y-1097676D01*
X12084524Y-1097676D02*
X12179762Y-1002438D01*
X12179762Y-1002438D02*
X12322619Y-954819D01*
X12322619Y-954819D02*
X12417857Y-954819D01*
X12417857Y-954819D02*
X12560714Y-1002438D01*
X12560714Y-1002438D02*
X12608333Y-1050057D01*
X12989286Y-1050057D02*
X13036905Y-1002438D01*
X13036905Y-1002438D02*
X13132143Y-954819D01*
X13132143Y-954819D02*
X13370238Y-954819D01*
X13370238Y-954819D02*
X13465476Y-1002438D01*
X13465476Y-1002438D02*
X13513095Y-1050057D01*
X13513095Y-1050057D02*
X13560714Y-1145295D01*
X13560714Y-1145295D02*
X13560714Y-1240533D01*
X13560714Y-1240533D02*
X13513095Y-1383390D01*
X13513095Y-1383390D02*
X12941667Y-1954819D01*
X12941667Y-1954819D02*
X13560714Y-1954819D01*
X12238095Y-19454819D02*
X12238095Y-18454819D01*
X12238095Y-18931009D02*
X12809523Y-18931009D01*
X12809523Y-19454819D02*
X12809523Y-18454819D01*
X13238095Y-18550057D02*
X13285714Y-18502438D01*
X13285714Y-18502438D02*
X13380952Y-18454819D01*
X13380952Y-18454819D02*
X13619047Y-18454819D01*
X13619047Y-18454819D02*
X13714285Y-18502438D01*
X13714285Y-18502438D02*
X13761904Y-18550057D01*
X13761904Y-18550057D02*
X13809523Y-18645295D01*
X13809523Y-18645295D02*
X13809523Y-18740533D01*
X13809523Y-18740533D02*
X13761904Y-18883390D01*
X13761904Y-18883390D02*
X13190476Y-19454819D01*
X13190476Y-19454819D02*
X13809523Y-19454819D01*
X6738095Y-1954819D02*
X6738095Y-954819D01*
X6738095Y-1431009D02*
X7309523Y-1431009D01*
X7309523Y-1954819D02*
X7309523Y-954819D01*
X8309523Y-1954819D02*
X7738095Y-1954819D01*
X8023809Y-1954819D02*
X8023809Y-954819D01*
X8023809Y-954819D02*
X7928571Y-1097676D01*
X7928571Y-1097676D02*
X7833333Y-1192914D01*
X7833333Y-1192914D02*
X7738095Y-1240533D01*
X18454819Y-16341666D02*
X17978628Y-16674999D01*
X18454819Y-16913094D02*
X17454819Y-16913094D01*
X17454819Y-16913094D02*
X17454819Y-16532142D01*
X17454819Y-16532142D02*
X17502438Y-16436904D01*
X17502438Y-16436904D02*
X17550057Y-16389285D01*
X17550057Y-16389285D02*
X17645295Y-16341666D01*
X17645295Y-16341666D02*
X17788152Y-16341666D01*
X17788152Y-16341666D02*
X17883390Y-16389285D01*
X17883390Y-16389285D02*
X17931009Y-16436904D01*
X17931009Y-16436904D02*
X17978628Y-16532142D01*
X17978628Y-16532142D02*
X17978628Y-16913094D01*
X17550057Y-15960713D02*
X17502438Y-15913094D01*
X17502438Y-15913094D02*
X17454819Y-15817856D01*
X17454819Y-15817856D02*
X17454819Y-15579761D01*
X17454819Y-15579761D02*
X17502438Y-15484523D01*
X17502438Y-15484523D02*
X17550057Y-15436904D01*
X17550057Y-15436904D02*
X17645295Y-15389285D01*
X17645295Y-15389285D02*
X17740533Y-15389285D01*
X17740533Y-15389285D02*
X17883390Y-15436904D01*
X17883390Y-15436904D02*
X18454819Y-16008332D01*
X18454819Y-16008332D02*
X18454819Y-15389285D01*
X15954819Y-15841666D02*
X15478628Y-16174999D01*
X15954819Y-16413094D02*
X14954819Y-16413094D01*
X14954819Y-16413094D02*
X14954819Y-16032142D01*
X14954819Y-16032142D02*
X15002438Y-15936904D01*
X15002438Y-15936904D02*
X15050057Y-15889285D01*
X15050057Y-15889285D02*
X15145295Y-15841666D01*
X15145295Y-15841666D02*
X15288152Y-15841666D01*
X15288152Y-15841666D02*
X15383390Y-15889285D01*
X15383390Y-15889285D02*
X15431009Y-15936904D01*
X15431009Y-15936904D02*
X15478628Y-16032142D01*
X15478628Y-16032142D02*
X15478628Y-16413094D01*
X15954819Y-14889285D02*
X15954819Y-15460713D01*
X15954819Y-15174999D02*
X14954819Y-15174999D01*
X14954819Y-15174999D02*
X15097676Y-15270237D01*
X15097676Y-15270237D02*
X15192914Y-15365475D01*
X15192914Y-15365475D02*
X15240533Y-15460713D01*
D13*
%TO.C,R3*%
X9762742Y-12477500D02*
X10237258Y-12477500D01*
X9762742Y-13522500D02*
X10237258Y-13522500D01*
%TO.C,R5*%
X11477500Y-15762742D02*
X11477500Y-16237258D01*
X12522500Y-15762742D02*
X12522500Y-16237258D01*
D14*
%TO.C,G1*%
X350000Y-4000000D02*
X1060500Y-4000000D01*
X350000Y-16000000D02*
X350000Y-4000000D01*
X350000Y-16000000D02*
X1060500Y-16000000D01*
X3925000Y-4000000D02*
X5850000Y-4000000D01*
X3950000Y-16000000D02*
X5850000Y-16000000D01*
X4560620Y-6200000D02*
X5850000Y-6200000D01*
X4560620Y-8351040D02*
X4560620Y-7650000D01*
X4560620Y-10348500D02*
X4560620Y-9650000D01*
X4560620Y-12348500D02*
X4560620Y-11650000D01*
X5850000Y-6200000D02*
X5850000Y-4000000D01*
X5850000Y-13800000D02*
X4560000Y-13800000D01*
X5850000Y-16000000D02*
X5850000Y-13800000D01*
D13*
%TO.C,R4*%
X9477500Y-15762742D02*
X9477500Y-16237258D01*
X10522500Y-15762742D02*
X10522500Y-16237258D01*
%TO.C,C1*%
X16359420Y-3990000D02*
X16640580Y-3990000D01*
X16359420Y-5010000D02*
X16640580Y-5010000D01*
%TO.C,U1*%
X8940000Y-8000000D02*
X8940000Y-6050000D01*
X8940000Y-8000000D02*
X8940000Y-9950000D01*
X14060000Y-8000000D02*
X14060000Y-6050000D01*
X14060000Y-8000000D02*
X14060000Y-9950000D01*
X9035000Y-10700000D02*
X8705000Y-10940000D01*
X8705000Y-10460000D01*
X9035000Y-10700000D01*
G36*
X9035000Y-10700000D02*
G01*
X8705000Y-10940000D01*
X8705000Y-10460000D01*
X9035000Y-10700000D01*
G37*
%TO.C,C2*%
X11859420Y-2490000D02*
X12140580Y-2490000D01*
X11859420Y-3510000D02*
X12140580Y-3510000D01*
%TO.C,R2*%
X16977500Y-13262742D02*
X16977500Y-13737258D01*
X18022500Y-13262742D02*
X18022500Y-13737258D01*
%TO.C,R1*%
X14477500Y-13262742D02*
X14477500Y-13737258D01*
X15522500Y-13262742D02*
X15522500Y-13737258D01*
%TD*%
M02*
