%TF.GenerationSoftware,KiCad,Pcbnew,9.0.3*%
%TF.CreationDate,2025-07-16T23:37:23+02:00*%
%TF.ProjectId,ialightsens,69616c69-6768-4747-9365-6e732e6b6963,rev?*%
%TF.SameCoordinates,Original*%
%TF.FileFunction,Copper,L2,Bot*%
%TF.FilePolarity,Positive*%
%FSLAX46Y46*%
G04 Gerber Fmt 4.6, Leading zero omitted, Abs format (unit mm)*
G04 Created by KiCad (PCBNEW 9.0.3) date 2025-07-16 23:37:23*
%MOMM*%
%LPD*%
G01*
G04 APERTURE LIST*
G04 Aperture macros list*
%AMRoundRect*
0 Rectangle with rounded corners*
0 $1 Rounding radius*
0 $2 $3 $4 $5 $6 $7 $8 $9 X,Y pos of 4 corners*
0 Add a 4 corners polygon primitive as box body*
4,1,4,$2,$3,$4,$5,$6,$7,$8,$9,$2,$3,0*
0 Add four circle primitives for the rounded corners*
1,1,$1+$1,$2,$3*
1,1,$1+$1,$4,$5*
1,1,$1+$1,$6,$7*
1,1,$1+$1,$8,$9*
0 Add four rect primitives between the rounded corners*
20,1,$1+$1,$2,$3,$4,$5,0*
20,1,$1+$1,$4,$5,$6,$7,0*
20,1,$1+$1,$6,$7,$8,$9,0*
20,1,$1+$1,$8,$9,$2,$3,0*%
G04 Aperture macros list end*
%TA.AperFunction,SMDPad,CuDef*%
%ADD10RoundRect,0.243750X-0.243750X-0.456250X0.243750X-0.456250X0.243750X0.456250X-0.243750X0.456250X0*%
%TD*%
%TA.AperFunction,ViaPad*%
%ADD11C,0.600000*%
%TD*%
%TA.AperFunction,Conductor*%
%ADD12C,0.500000*%
%TD*%
%TA.AperFunction,Conductor*%
%ADD13C,0.200000*%
%TD*%
G04 APERTURE END LIST*
D10*
%TO.P,Q1,1,C*%
%TO.N,+3V3*%
X16062500Y-10000000D03*
%TO.P,Q1,2,E*%
%TO.N,Net-(Q1-E)*%
X17937500Y-10000000D03*
%TD*%
D11*
%TO.N,+3V3*%
X9595000Y-4000000D03*
X14500000Y-3799997D03*
X10000000Y-3000000D03*
X14500000Y-4500000D03*
%TO.N,GND*%
X2500000Y-11000000D03*
X6500000Y-3500000D03*
X15000000Y-17500000D03*
X6500000Y-2500000D03*
X2500000Y-7000000D03*
X10500000Y-8500000D03*
X2500000Y-9000000D03*
X16500000Y-17500000D03*
X6500000Y-4500000D03*
X4000000Y-18000000D03*
X5500000Y-2500000D03*
X17500000Y-7000000D03*
X5500000Y-18000000D03*
X2500000Y-18000000D03*
X11500000Y-8500000D03*
X4500000Y-2500000D03*
X2500000Y-12500000D03*
X18000000Y-17500000D03*
X16000000Y-7000000D03*
X12500000Y-8500000D03*
X12500000Y-7500000D03*
X10500000Y-7500000D03*
X11500000Y-7500000D03*
X6500000Y-5500000D03*
%TO.N,Net-(Q1-E)*%
X17500000Y-11500000D03*
X16500000Y-11500000D03*
%TD*%
D12*
%TO.N,+3V3*%
X10000000Y-3000000D02*
X9595000Y-3405000D01*
X9595000Y-3405000D02*
X9595000Y-4000000D01*
X14000000Y-3000000D02*
X10000000Y-3000000D01*
X14500000Y-3799997D02*
X14500000Y-3500000D01*
X14500000Y-3799997D02*
X14500000Y-9500000D01*
X14500000Y-9500000D02*
X15000000Y-10000000D01*
X15000000Y-10000000D02*
X16062500Y-10000000D01*
X14500000Y-3500000D02*
X14000000Y-3000000D01*
D13*
%TO.N,Net-(Q1-E)*%
X17937500Y-11062500D02*
X17500000Y-11500000D01*
X17937500Y-10000000D02*
X17937500Y-11062500D01*
X17500000Y-11500000D02*
X16500000Y-11500000D01*
%TD*%
%TA.AperFunction,Conductor*%
%TO.N,GND*%
G36*
X8629839Y-193381D02*
G01*
X8670367Y-250296D01*
X8675660Y-271454D01*
X8681339Y-307314D01*
X8682754Y-316243D01*
X8743119Y-502027D01*
X8748444Y-518414D01*
X8844951Y-707820D01*
X8969890Y-879786D01*
X9120213Y-1030109D01*
X9292179Y-1155048D01*
X9292181Y-1155049D01*
X9292184Y-1155051D01*
X9481588Y-1251557D01*
X9683757Y-1317246D01*
X9893713Y-1350500D01*
X9893714Y-1350500D01*
X10106286Y-1350500D01*
X10106287Y-1350500D01*
X10316243Y-1317246D01*
X10518412Y-1251557D01*
X10707816Y-1155051D01*
X10729789Y-1139086D01*
X10879786Y-1030109D01*
X10879788Y-1030106D01*
X10879792Y-1030104D01*
X11030104Y-879792D01*
X11030106Y-879788D01*
X11030109Y-879786D01*
X11155048Y-707820D01*
X11155047Y-707820D01*
X11155051Y-707816D01*
X11251557Y-518412D01*
X11317246Y-316243D01*
X11324340Y-271452D01*
X11354266Y-208321D01*
X11413577Y-171389D01*
X11483440Y-172385D01*
X11541673Y-210994D01*
X11554199Y-228851D01*
X11599500Y-307314D01*
X11692686Y-400500D01*
X11806814Y-466392D01*
X11934108Y-500500D01*
X12065892Y-500500D01*
X19134108Y-500500D01*
X19190243Y-500500D01*
X19209640Y-502027D01*
X19225080Y-504472D01*
X19273154Y-512086D01*
X19310046Y-524073D01*
X19358544Y-548783D01*
X19389929Y-571586D01*
X19428413Y-610070D01*
X19451217Y-641457D01*
X19475925Y-689950D01*
X19487913Y-726845D01*
X19497973Y-790358D01*
X19499500Y-809757D01*
X19499500Y-19190242D01*
X19497973Y-19209639D01*
X19497973Y-19209641D01*
X19487913Y-19273154D01*
X19475925Y-19310049D01*
X19451217Y-19358542D01*
X19428413Y-19389929D01*
X19389929Y-19428413D01*
X19358542Y-19451217D01*
X19310049Y-19475925D01*
X19273154Y-19487913D01*
X19235734Y-19493840D01*
X19209639Y-19497973D01*
X19190243Y-19499500D01*
X11934106Y-19499500D01*
X11806813Y-19533608D01*
X11806810Y-19533609D01*
X11692684Y-19599500D01*
X11625793Y-19666390D01*
X11625794Y-19666391D01*
X11599499Y-19692686D01*
X11554199Y-19771147D01*
X11503631Y-19819362D01*
X11435024Y-19832584D01*
X11370159Y-19806616D01*
X11329631Y-19749701D01*
X11324341Y-19728556D01*
X11317246Y-19683757D01*
X11251557Y-19481588D01*
X11155051Y-19292184D01*
X11155049Y-19292181D01*
X11155048Y-19292179D01*
X11030109Y-19120213D01*
X10879786Y-18969890D01*
X10707820Y-18844951D01*
X10518414Y-18748444D01*
X10518413Y-18748443D01*
X10518412Y-18748443D01*
X10316243Y-18682754D01*
X10316241Y-18682753D01*
X10316240Y-18682753D01*
X10154957Y-18657208D01*
X10106287Y-18649500D01*
X9893713Y-18649500D01*
X9845042Y-18657208D01*
X9683760Y-18682753D01*
X9481585Y-18748444D01*
X9292179Y-18844951D01*
X9120213Y-18969890D01*
X8969890Y-19120213D01*
X8844951Y-19292179D01*
X8748444Y-19481585D01*
X8682753Y-19683758D01*
X8675660Y-19728543D01*
X8665719Y-19749510D01*
X8660068Y-19772011D01*
X8651036Y-19780484D01*
X8645730Y-19791677D01*
X8626031Y-19803942D01*
X8609112Y-19819815D01*
X8596932Y-19822060D01*
X8586418Y-19828607D01*
X8563218Y-19828275D01*
X8540401Y-19832482D01*
X8528940Y-19827785D01*
X8516555Y-19827609D01*
X8497215Y-19814785D01*
X8475748Y-19805989D01*
X8464884Y-19793348D01*
X8458323Y-19788998D01*
X8451600Y-19780250D01*
X8448507Y-19775831D01*
X8400503Y-19692686D01*
X8374209Y-19666392D01*
X8307318Y-19599500D01*
X8193189Y-19533608D01*
X8065896Y-19499500D01*
X8065895Y-19499500D01*
X809757Y-19499500D01*
X790360Y-19497973D01*
X749549Y-19491509D01*
X726845Y-19487913D01*
X689950Y-19475925D01*
X641457Y-19451217D01*
X610070Y-19428413D01*
X571586Y-19389929D01*
X548782Y-19358542D01*
X524073Y-19310046D01*
X512086Y-19273152D01*
X502027Y-19209639D01*
X500500Y-19190242D01*
X500500Y-3921158D01*
X8794500Y-3921158D01*
X8794500Y-3929001D01*
X8794500Y-4078846D01*
X8825261Y-4233489D01*
X8825264Y-4233501D01*
X8885602Y-4379172D01*
X8885609Y-4379185D01*
X8973210Y-4510288D01*
X8973213Y-4510292D01*
X9084707Y-4621786D01*
X9084711Y-4621789D01*
X9215814Y-4709390D01*
X9215827Y-4709397D01*
X9331117Y-4757151D01*
X9361503Y-4769737D01*
X9516153Y-4800499D01*
X9516156Y-4800500D01*
X9516158Y-4800500D01*
X9673844Y-4800500D01*
X9673845Y-4800499D01*
X9828497Y-4769737D01*
X9974179Y-4709394D01*
X10105289Y-4621789D01*
X10216789Y-4510289D01*
X10304394Y-4379179D01*
X10364737Y-4233497D01*
X10395500Y-4078842D01*
X10395500Y-3921158D01*
X10391031Y-3898690D01*
X10397260Y-3829099D01*
X10440123Y-3773922D01*
X10506013Y-3750678D01*
X10512649Y-3750500D01*
X13575500Y-3750500D01*
X13642539Y-3770185D01*
X13688294Y-3822989D01*
X13696672Y-3848170D01*
X13699500Y-3861184D01*
X13699500Y-3878839D01*
X13730263Y-4033494D01*
X13744312Y-4067412D01*
X13746672Y-4078271D01*
X13746033Y-4087172D01*
X13749500Y-4104601D01*
X13749500Y-4195396D01*
X13740062Y-4242844D01*
X13730263Y-4266503D01*
X13730262Y-4266506D01*
X13730260Y-4266511D01*
X13699500Y-4421153D01*
X13699500Y-4578846D01*
X13730261Y-4733489D01*
X13730263Y-4733497D01*
X13740061Y-4757151D01*
X13749500Y-4804604D01*
X13749500Y-9573918D01*
X13749500Y-9573920D01*
X13749499Y-9573920D01*
X13778340Y-9718907D01*
X13778343Y-9718917D01*
X13834914Y-9855492D01*
X13867812Y-9904727D01*
X13867813Y-9904730D01*
X13917046Y-9978414D01*
X13917052Y-9978421D01*
X14521584Y-10582952D01*
X14521586Y-10582954D01*
X14551058Y-10602645D01*
X14595270Y-10632186D01*
X14644505Y-10665084D01*
X14644506Y-10665084D01*
X14644507Y-10665085D01*
X14644509Y-10665086D01*
X14781082Y-10721656D01*
X14781087Y-10721658D01*
X14781091Y-10721658D01*
X14781092Y-10721659D01*
X14926079Y-10750500D01*
X14926082Y-10750500D01*
X14926083Y-10750500D01*
X15056600Y-10750500D01*
X15123639Y-10770185D01*
X15162136Y-10809400D01*
X15230972Y-10920999D01*
X15230975Y-10921004D01*
X15353996Y-11044025D01*
X15354000Y-11044028D01*
X15502066Y-11135357D01*
X15502069Y-11135358D01*
X15502075Y-11135362D01*
X15636640Y-11179952D01*
X15694085Y-11219725D01*
X15720908Y-11284240D01*
X15719253Y-11321849D01*
X15699500Y-11421153D01*
X15699500Y-11578846D01*
X15730261Y-11733489D01*
X15730264Y-11733501D01*
X15790602Y-11879172D01*
X15790609Y-11879185D01*
X15878210Y-12010288D01*
X15878213Y-12010292D01*
X15989707Y-12121786D01*
X15989711Y-12121789D01*
X16120814Y-12209390D01*
X16120827Y-12209397D01*
X16266498Y-12269735D01*
X16266503Y-12269737D01*
X16421153Y-12300499D01*
X16421156Y-12300500D01*
X16421158Y-12300500D01*
X16578844Y-12300500D01*
X16578845Y-12300499D01*
X16733497Y-12269737D01*
X16879179Y-12209394D01*
X16931110Y-12174694D01*
X16997785Y-12153816D01*
X17065165Y-12172300D01*
X17068863Y-12174676D01*
X17120821Y-12209394D01*
X17120823Y-12209395D01*
X17120825Y-12209396D01*
X17266498Y-12269735D01*
X17266503Y-12269737D01*
X17421153Y-12300499D01*
X17421156Y-12300500D01*
X17421158Y-12300500D01*
X17578844Y-12300500D01*
X17578845Y-12300499D01*
X17733497Y-12269737D01*
X17879179Y-12209394D01*
X18010289Y-12121789D01*
X18121789Y-12010289D01*
X18209394Y-11879179D01*
X18269737Y-11733497D01*
X18300500Y-11578842D01*
X18300500Y-11578840D01*
X18300637Y-11578152D01*
X18333021Y-11516241D01*
X18334462Y-11514773D01*
X18418020Y-11431216D01*
X18497077Y-11294284D01*
X18535174Y-11152101D01*
X18571536Y-11092446D01*
X18589844Y-11078665D01*
X18646003Y-11044026D01*
X18769026Y-10921003D01*
X18860362Y-10772925D01*
X18915087Y-10607775D01*
X18925500Y-10505848D01*
X18925500Y-9494152D01*
X18915087Y-9392225D01*
X18860362Y-9227075D01*
X18860358Y-9227069D01*
X18860357Y-9227066D01*
X18769028Y-9079000D01*
X18769025Y-9078996D01*
X18646003Y-8955974D01*
X18645999Y-8955971D01*
X18497933Y-8864642D01*
X18497927Y-8864639D01*
X18497925Y-8864638D01*
X18444848Y-8847050D01*
X18332776Y-8809913D01*
X18230855Y-8799500D01*
X18230848Y-8799500D01*
X17644152Y-8799500D01*
X17644144Y-8799500D01*
X17542223Y-8809913D01*
X17377077Y-8864637D01*
X17377066Y-8864642D01*
X17229000Y-8955971D01*
X17228996Y-8955974D01*
X17105974Y-9078996D01*
X17105971Y-9079000D01*
X17105538Y-9079703D01*
X17105114Y-9080083D01*
X17101493Y-9084664D01*
X17100710Y-9084045D01*
X17053590Y-9126428D01*
X16984628Y-9137649D01*
X16920546Y-9109806D01*
X16898657Y-9084544D01*
X16898507Y-9084664D01*
X16895859Y-9081315D01*
X16894462Y-9079703D01*
X16894028Y-9079000D01*
X16894025Y-9078996D01*
X16771003Y-8955974D01*
X16770999Y-8955971D01*
X16622933Y-8864642D01*
X16622927Y-8864639D01*
X16622925Y-8864638D01*
X16569848Y-8847050D01*
X16457776Y-8809913D01*
X16355855Y-8799500D01*
X16355848Y-8799500D01*
X15769152Y-8799500D01*
X15769144Y-8799500D01*
X15667223Y-8809913D01*
X15502077Y-8864637D01*
X15502072Y-8864639D01*
X15439597Y-8903175D01*
X15372204Y-8921615D01*
X15305541Y-8900692D01*
X15260771Y-8847050D01*
X15250500Y-8797636D01*
X15250500Y-4804604D01*
X15259939Y-4757151D01*
X15269737Y-4733497D01*
X15300500Y-4578842D01*
X15300500Y-4421158D01*
X15300500Y-4421155D01*
X15300499Y-4421153D01*
X15269739Y-4266511D01*
X15269738Y-4266508D01*
X15269737Y-4266503D01*
X15259937Y-4242844D01*
X15258311Y-4234670D01*
X15255523Y-4230331D01*
X15250500Y-4195396D01*
X15250500Y-4104601D01*
X15259939Y-4057148D01*
X15269737Y-4033494D01*
X15300500Y-3878839D01*
X15300500Y-3721155D01*
X15300500Y-3721152D01*
X15300499Y-3721150D01*
X15269739Y-3566508D01*
X15269738Y-3566505D01*
X15269737Y-3566500D01*
X15259937Y-3542841D01*
X15250500Y-3495393D01*
X15250500Y-3426079D01*
X15221659Y-3281092D01*
X15221658Y-3281091D01*
X15221658Y-3281087D01*
X15165084Y-3144505D01*
X15129068Y-3090603D01*
X15129067Y-3090601D01*
X15129066Y-3090599D01*
X15082953Y-3021585D01*
X15082947Y-3021578D01*
X14478421Y-2417052D01*
X14478414Y-2417046D01*
X14404729Y-2367812D01*
X14404729Y-2367813D01*
X14355491Y-2334913D01*
X14218917Y-2278343D01*
X14218907Y-2278340D01*
X14073920Y-2249500D01*
X14073918Y-2249500D01*
X10304604Y-2249500D01*
X10257155Y-2240062D01*
X10233497Y-2230263D01*
X10233493Y-2230262D01*
X10233488Y-2230260D01*
X10078845Y-2199500D01*
X10078842Y-2199500D01*
X9921158Y-2199500D01*
X9921155Y-2199500D01*
X9766510Y-2230261D01*
X9766498Y-2230264D01*
X9620827Y-2290602D01*
X9620814Y-2290609D01*
X9489711Y-2378210D01*
X9489707Y-2378213D01*
X9378213Y-2489707D01*
X9378210Y-2489711D01*
X9290609Y-2620814D01*
X9290603Y-2620826D01*
X9280806Y-2644478D01*
X9253927Y-2684704D01*
X9012052Y-2926578D01*
X9012046Y-2926585D01*
X8963329Y-2999496D01*
X8963330Y-2999497D01*
X8929914Y-3049508D01*
X8873343Y-3186082D01*
X8873340Y-3186092D01*
X8844500Y-3331079D01*
X8844500Y-3695396D01*
X8843049Y-3702687D01*
X8841408Y-3722916D01*
X8839079Y-3733147D01*
X8825263Y-3766503D01*
X8794500Y-3921158D01*
X500500Y-3921158D01*
X500500Y-809758D01*
X502027Y-790360D01*
X510936Y-734109D01*
X512087Y-726845D01*
X524072Y-689955D01*
X548786Y-641452D01*
X571585Y-610073D01*
X610073Y-571585D01*
X641452Y-548786D01*
X689955Y-524072D01*
X726846Y-512086D01*
X790360Y-502026D01*
X809758Y-500500D01*
X8065890Y-500500D01*
X8065892Y-500500D01*
X8193186Y-466392D01*
X8307314Y-400500D01*
X8400500Y-307314D01*
X8445800Y-228851D01*
X8496367Y-180636D01*
X8564974Y-167413D01*
X8629839Y-193381D01*
G37*
%TD.AperFunction*%
%TD*%
M02*
