%TF.GenerationSoftware,KiCad,Pcbnew,9.0.3*%
%TF.CreationDate,2025-07-16T23:37:23+02:00*%
%TF.ProjectId,ialightsens,69616c69-6768-4747-9365-6e732e6b6963,rev?*%
%TF.SameCoordinates,Original*%
%TF.FileFunction,Copper,L1,Top*%
%TF.FilePolarity,Positive*%
%FSLAX46Y46*%
G04 Gerber Fmt 4.6, Leading zero omitted, Abs format (unit mm)*
G04 Created by KiCad (PCBNEW 9.0.3) date 2025-07-16 23:37:23*
%MOMM*%
%LPD*%
G01*
G04 APERTURE LIST*
G04 Aperture macros list*
%AMRoundRect*
0 Rectangle with rounded corners*
0 $1 Rounding radius*
0 $2 $3 $4 $5 $6 $7 $8 $9 X,Y pos of 4 corners*
0 Add a 4 corners polygon primitive as box body*
4,1,4,$2,$3,$4,$5,$6,$7,$8,$9,$2,$3,0*
0 Add four circle primitives for the rounded corners*
1,1,$1+$1,$2,$3*
1,1,$1+$1,$4,$5*
1,1,$1+$1,$6,$7*
1,1,$1+$1,$8,$9*
0 Add four rect primitives between the rounded corners*
20,1,$1+$1,$2,$3,$4,$5,0*
20,1,$1+$1,$4,$5,$6,$7,0*
20,1,$1+$1,$6,$7,$8,$9,0*
20,1,$1+$1,$8,$9,$2,$3,0*%
G04 Aperture macros list end*
%TA.AperFunction,SMDPad,CuDef*%
%ADD10RoundRect,0.200000X-0.200000X-0.275000X0.200000X-0.275000X0.200000X0.275000X-0.200000X0.275000X0*%
%TD*%
%TA.AperFunction,SMDPad,CuDef*%
%ADD11RoundRect,0.200000X-0.275000X0.200000X-0.275000X-0.200000X0.275000X-0.200000X0.275000X0.200000X0*%
%TD*%
%TA.AperFunction,SMDPad,CuDef*%
%ADD12R,3.000000X1.000000*%
%TD*%
%TA.AperFunction,SMDPad,CuDef*%
%ADD13R,2.600000X1.550000*%
%TD*%
%TA.AperFunction,SMDPad,CuDef*%
%ADD14RoundRect,0.225000X-0.225000X-0.250000X0.225000X-0.250000X0.225000X0.250000X-0.225000X0.250000X0*%
%TD*%
%TA.AperFunction,SMDPad,CuDef*%
%ADD15RoundRect,0.150000X0.150000X-0.825000X0.150000X0.825000X-0.150000X0.825000X-0.150000X-0.825000X0*%
%TD*%
%TA.AperFunction,ViaPad*%
%ADD16C,0.600000*%
%TD*%
%TA.AperFunction,Conductor*%
%ADD17C,0.500000*%
%TD*%
%TA.AperFunction,Conductor*%
%ADD18C,0.200000*%
%TD*%
G04 APERTURE END LIST*
D10*
%TO.P,R3,1*%
%TO.N,/SIG*%
X9175000Y-13000000D03*
%TO.P,R3,2*%
%TO.N,Net-(U1A--)*%
X10825000Y-13000000D03*
%TD*%
D11*
%TO.P,R5,1*%
%TO.N,Net-(U1A--)*%
X12000000Y-15175000D03*
%TO.P,R5,2*%
%TO.N,GND*%
X12000000Y-16825000D03*
%TD*%
D12*
%TO.P,G1,1,1*%
%TO.N,/SIG*%
X6000000Y-13000000D03*
%TO.P,G1,2,2*%
%TO.N,unconnected-(G1-Pad2)*%
X6000000Y-11000000D03*
%TO.P,G1,3,3*%
%TO.N,+3V3*%
X6000000Y-9000000D03*
%TO.P,G1,4,4*%
%TO.N,GND*%
X6000000Y-7000000D03*
D13*
%TO.P,G1,5,SS1*%
X2510840Y-15575000D03*
%TO.P,G1,6,SS2*%
X2510840Y-4425000D03*
%TD*%
D11*
%TO.P,R4,1*%
%TO.N,Net-(U1A--)*%
X10000000Y-15175000D03*
%TO.P,R4,2*%
%TO.N,GND*%
X10000000Y-16825000D03*
%TD*%
D14*
%TO.P,C1,1*%
%TO.N,+3V3*%
X15725000Y-4500000D03*
%TO.P,C1,2*%
%TO.N,GND*%
X17275000Y-4500000D03*
%TD*%
D15*
%TO.P,U1,1*%
%TO.N,/SIG*%
X9595000Y-10475000D03*
%TO.P,U1,2,-*%
%TO.N,Net-(U1A--)*%
X10865000Y-10475000D03*
%TO.P,U1,3,+*%
%TO.N,Net-(Q1-E)*%
X12135000Y-10475000D03*
%TO.P,U1,4,V-*%
%TO.N,GND*%
X13405000Y-10475000D03*
%TO.P,U1,5,+*%
X13405000Y-5525000D03*
%TO.P,U1,6,-*%
%TO.N,Net-(U1B--)*%
X12135000Y-5525000D03*
%TO.P,U1,7*%
X10865000Y-5525000D03*
%TO.P,U1,8,V+*%
%TO.N,+3V3*%
X9595000Y-5525000D03*
%TD*%
D14*
%TO.P,C2,1*%
%TO.N,+3V3*%
X11225000Y-3000000D03*
%TO.P,C2,2*%
%TO.N,GND*%
X12775000Y-3000000D03*
%TD*%
D11*
%TO.P,R2,1*%
%TO.N,Net-(Q1-E)*%
X17500000Y-12675000D03*
%TO.P,R2,2*%
%TO.N,GND*%
X17500000Y-14325000D03*
%TD*%
%TO.P,R1,1*%
%TO.N,Net-(Q1-E)*%
X15000000Y-12675000D03*
%TO.P,R1,2*%
%TO.N,GND*%
X15000000Y-14325000D03*
%TD*%
D16*
%TO.N,+3V3*%
X9595000Y-4000000D03*
X14500000Y-3799997D03*
X10000000Y-3000000D03*
X14500000Y-4500000D03*
%TO.N,GND*%
X2500000Y-11000000D03*
X6500000Y-3500000D03*
X15000000Y-17500000D03*
X6500000Y-2500000D03*
X2500000Y-7000000D03*
X10500000Y-8500000D03*
X2500000Y-9000000D03*
X16500000Y-17500000D03*
X6500000Y-4500000D03*
X4000000Y-18000000D03*
X5500000Y-2500000D03*
X17500000Y-7000000D03*
X5500000Y-18000000D03*
X2500000Y-18000000D03*
X11500000Y-8500000D03*
X4500000Y-2500000D03*
X2500000Y-12500000D03*
X18000000Y-17500000D03*
X16000000Y-7000000D03*
X12500000Y-8500000D03*
X12500000Y-7500000D03*
X10500000Y-7500000D03*
X11500000Y-7500000D03*
X6500000Y-5500000D03*
%TO.N,Net-(Q1-E)*%
X17500000Y-11500000D03*
X16500000Y-11500000D03*
%TD*%
D17*
%TO.N,+3V3*%
X9595000Y-5525000D02*
X9595000Y-4000000D01*
X9595000Y-4000000D02*
X9595000Y-3405000D01*
X9595000Y-3405000D02*
X10000000Y-3000000D01*
X6000000Y-9000000D02*
X8000000Y-9000000D01*
X9595000Y-7405000D02*
X9595000Y-5525000D01*
X8000000Y-9000000D02*
X9595000Y-7405000D01*
D18*
%TO.N,Net-(U1A--)*%
X10200000Y-14300000D02*
X10800000Y-14300000D01*
X10825000Y-13000000D02*
X10825000Y-14275000D01*
X10825000Y-14275000D02*
X10800000Y-14300000D01*
X10800000Y-14300000D02*
X11800000Y-14300000D01*
X10000000Y-15175000D02*
X10000000Y-14500000D01*
X10000000Y-14500000D02*
X10200000Y-14300000D01*
X12000000Y-14500000D02*
X12000000Y-15175000D01*
X11800000Y-14300000D02*
X12000000Y-14500000D01*
%TO.N,/SIG*%
X9175000Y-13000000D02*
X6000000Y-13000000D01*
X9600000Y-11900000D02*
X9175000Y-12325000D01*
X9175000Y-12325000D02*
X9175000Y-13000000D01*
X9595000Y-11895000D02*
X9600000Y-11900000D01*
X9595000Y-10475000D02*
X9595000Y-11895000D01*
%TO.N,Net-(U1A--)*%
X10865000Y-10475000D02*
X10865000Y-11935000D01*
X10865000Y-11935000D02*
X10825000Y-11975000D01*
X10825000Y-13000000D02*
X10825000Y-11975000D01*
%TO.N,Net-(Q1-E)*%
X15000000Y-12675000D02*
X12875000Y-12675000D01*
X12875000Y-12675000D02*
X12135000Y-11935000D01*
X12135000Y-11935000D02*
X12135000Y-10475000D01*
X16500000Y-12000000D02*
X15825000Y-12675000D01*
X15825000Y-12675000D02*
X15000000Y-12675000D01*
X17500000Y-11500000D02*
X17500000Y-12675000D01*
D17*
%TO.N,+3V3*%
X14500000Y-3799997D02*
X14500000Y-4500000D01*
X14500000Y-4500000D02*
X15950000Y-4500000D01*
X10000000Y-3000000D02*
X11450000Y-3000000D01*
D18*
%TO.N,Net-(Q1-E)*%
X16500000Y-11500000D02*
X16500000Y-12000000D01*
X17500000Y-11500000D02*
X16500000Y-11500000D01*
%TO.N,Net-(U1B--)*%
X10770000Y-5500000D02*
X12040000Y-5500000D01*
%TD*%
%TA.AperFunction,Conductor*%
%TO.N,GND*%
G36*
X8629839Y-193381D02*
G01*
X8670367Y-250296D01*
X8675660Y-271454D01*
X8681339Y-307314D01*
X8682754Y-316243D01*
X8743119Y-502027D01*
X8748444Y-518414D01*
X8844951Y-707820D01*
X8969890Y-879786D01*
X9120213Y-1030109D01*
X9292179Y-1155048D01*
X9292181Y-1155049D01*
X9292184Y-1155051D01*
X9481588Y-1251557D01*
X9683757Y-1317246D01*
X9893713Y-1350500D01*
X9893714Y-1350500D01*
X10106286Y-1350500D01*
X10106287Y-1350500D01*
X10316243Y-1317246D01*
X10518412Y-1251557D01*
X10707816Y-1155051D01*
X10729789Y-1139086D01*
X10879786Y-1030109D01*
X10879788Y-1030106D01*
X10879792Y-1030104D01*
X11030104Y-879792D01*
X11030106Y-879788D01*
X11030109Y-879786D01*
X11155048Y-707820D01*
X11155047Y-707820D01*
X11155051Y-707816D01*
X11251557Y-518412D01*
X11317246Y-316243D01*
X11324340Y-271452D01*
X11336510Y-245777D01*
X11345804Y-218926D01*
X11351280Y-214619D01*
X11354266Y-208321D01*
X11378391Y-193298D01*
X11400725Y-175735D01*
X11407661Y-175072D01*
X11413577Y-171389D01*
X11441992Y-171794D01*
X11470278Y-169093D01*
X11476471Y-172285D01*
X11483440Y-172385D01*
X11507123Y-188087D01*
X11532381Y-201108D01*
X11538502Y-208891D01*
X11541673Y-210994D01*
X11554199Y-228851D01*
X11566581Y-250296D01*
X11599500Y-307314D01*
X11692686Y-400500D01*
X11806814Y-466392D01*
X11934108Y-500500D01*
X12065892Y-500500D01*
X19134108Y-500500D01*
X19190243Y-500500D01*
X19209640Y-502027D01*
X19225080Y-504472D01*
X19273154Y-512086D01*
X19310046Y-524073D01*
X19358544Y-548783D01*
X19389929Y-571586D01*
X19428413Y-610070D01*
X19451217Y-641457D01*
X19475925Y-689950D01*
X19487913Y-726845D01*
X19497973Y-790358D01*
X19499500Y-809757D01*
X19499500Y-19190242D01*
X19497973Y-19209639D01*
X19497973Y-19209641D01*
X19487913Y-19273154D01*
X19475925Y-19310049D01*
X19451217Y-19358542D01*
X19428413Y-19389929D01*
X19389929Y-19428413D01*
X19358542Y-19451217D01*
X19310049Y-19475925D01*
X19273154Y-19487913D01*
X19235734Y-19493840D01*
X19209639Y-19497973D01*
X19190243Y-19499500D01*
X11934106Y-19499500D01*
X11806813Y-19533608D01*
X11806810Y-19533609D01*
X11692684Y-19599500D01*
X11625793Y-19666390D01*
X11625794Y-19666391D01*
X11599499Y-19692686D01*
X11554199Y-19771147D01*
X11503631Y-19819362D01*
X11435024Y-19832584D01*
X11370159Y-19806616D01*
X11329631Y-19749701D01*
X11324341Y-19728556D01*
X11317246Y-19683757D01*
X11251557Y-19481588D01*
X11155051Y-19292184D01*
X11155049Y-19292181D01*
X11155048Y-19292179D01*
X11030109Y-19120213D01*
X10879786Y-18969890D01*
X10707820Y-18844951D01*
X10518414Y-18748444D01*
X10518413Y-18748443D01*
X10518412Y-18748443D01*
X10316243Y-18682754D01*
X10316241Y-18682753D01*
X10316240Y-18682753D01*
X10154957Y-18657208D01*
X10106287Y-18649500D01*
X9893713Y-18649500D01*
X9845042Y-18657208D01*
X9683760Y-18682753D01*
X9481585Y-18748444D01*
X9292179Y-18844951D01*
X9120213Y-18969890D01*
X8969890Y-19120213D01*
X8844951Y-19292179D01*
X8748444Y-19481585D01*
X8682753Y-19683758D01*
X8675660Y-19728543D01*
X8665719Y-19749510D01*
X8660068Y-19772011D01*
X8651036Y-19780484D01*
X8645730Y-19791677D01*
X8626031Y-19803942D01*
X8609112Y-19819815D01*
X8596932Y-19822060D01*
X8586418Y-19828607D01*
X8563218Y-19828275D01*
X8540401Y-19832482D01*
X8528940Y-19827785D01*
X8516555Y-19827609D01*
X8497215Y-19814785D01*
X8475748Y-19805989D01*
X8464884Y-19793348D01*
X8458323Y-19788998D01*
X8451600Y-19780250D01*
X8448507Y-19775831D01*
X8400503Y-19692686D01*
X8374209Y-19666392D01*
X8307318Y-19599500D01*
X8193189Y-19533608D01*
X8065896Y-19499500D01*
X8065895Y-19499500D01*
X809757Y-19499500D01*
X790360Y-19497973D01*
X749549Y-19491509D01*
X726845Y-19487913D01*
X689950Y-19475925D01*
X641457Y-19451217D01*
X610070Y-19428413D01*
X571586Y-19389929D01*
X548782Y-19358542D01*
X524073Y-19310046D01*
X512086Y-19273152D01*
X502027Y-19209639D01*
X500500Y-19190242D01*
X500500Y-17081582D01*
X9025001Y-17081582D01*
X9031408Y-17152102D01*
X9031409Y-17152107D01*
X9081981Y-17314396D01*
X9169927Y-17459877D01*
X9290122Y-17580072D01*
X9435604Y-17668019D01*
X9435603Y-17668019D01*
X9597894Y-17718590D01*
X9597892Y-17718590D01*
X9668418Y-17724999D01*
X10250000Y-17724999D01*
X10331581Y-17724999D01*
X10402102Y-17718591D01*
X10402107Y-17718590D01*
X10564396Y-17668018D01*
X10709877Y-17580072D01*
X10830072Y-17459877D01*
X10893883Y-17354322D01*
X10945411Y-17307135D01*
X11014270Y-17295296D01*
X11078599Y-17322565D01*
X11106117Y-17354322D01*
X11169927Y-17459877D01*
X11290122Y-17580072D01*
X11435604Y-17668019D01*
X11435603Y-17668019D01*
X11597894Y-17718590D01*
X11597892Y-17718590D01*
X11668418Y-17724999D01*
X12250000Y-17724999D01*
X12331581Y-17724999D01*
X12402102Y-17718591D01*
X12402107Y-17718590D01*
X12564396Y-17668018D01*
X12709877Y-17580072D01*
X12830072Y-17459877D01*
X12918019Y-17314395D01*
X12968590Y-17152106D01*
X12975000Y-17081572D01*
X12975000Y-17075000D01*
X12250000Y-17075000D01*
X12250000Y-17724999D01*
X11668418Y-17724999D01*
X11749999Y-17724998D01*
X11750000Y-17724998D01*
X11750000Y-17075000D01*
X10250000Y-17075000D01*
X10250000Y-17724999D01*
X9668418Y-17724999D01*
X9749999Y-17724998D01*
X9750000Y-17724998D01*
X9750000Y-17075000D01*
X9025001Y-17075000D01*
X9025001Y-17081582D01*
X500500Y-17081582D01*
X500500Y-16563555D01*
X520185Y-16496516D01*
X572989Y-16450761D01*
X642147Y-16440817D01*
X705703Y-16469842D01*
X740682Y-16520222D01*
X767485Y-16592086D01*
X767489Y-16592093D01*
X853649Y-16707187D01*
X853652Y-16707190D01*
X968746Y-16793350D01*
X968753Y-16793354D01*
X1103460Y-16843596D01*
X1103467Y-16843598D01*
X1162995Y-16849999D01*
X1163012Y-16850000D01*
X2260840Y-16850000D01*
X2760840Y-16850000D01*
X3858668Y-16850000D01*
X3858684Y-16849999D01*
X3918212Y-16843598D01*
X3918219Y-16843596D01*
X4052926Y-16793354D01*
X4052933Y-16793350D01*
X4168027Y-16707190D01*
X4168030Y-16707187D01*
X4254190Y-16592093D01*
X4254194Y-16592086D01*
X4304436Y-16457379D01*
X4304438Y-16457372D01*
X4310839Y-16397844D01*
X4310840Y-16397827D01*
X4310840Y-15825000D01*
X2760840Y-15825000D01*
X2760840Y-16850000D01*
X2260840Y-16850000D01*
X2260840Y-15325000D01*
X2760840Y-15325000D01*
X4310840Y-15325000D01*
X4310840Y-14752172D01*
X4310839Y-14752155D01*
X4304438Y-14692627D01*
X4304436Y-14692620D01*
X4254194Y-14557913D01*
X4254190Y-14557906D01*
X4168030Y-14442812D01*
X4168027Y-14442809D01*
X4052933Y-14356649D01*
X4052926Y-14356645D01*
X3918219Y-14306403D01*
X3918212Y-14306401D01*
X3858684Y-14300000D01*
X2760840Y-14300000D01*
X2760840Y-15325000D01*
X2260840Y-15325000D01*
X2260840Y-14300000D01*
X1162995Y-14300000D01*
X1103467Y-14306401D01*
X1103460Y-14306403D01*
X968753Y-14356645D01*
X968746Y-14356649D01*
X853652Y-14442809D01*
X853649Y-14442812D01*
X767489Y-14557906D01*
X767485Y-14557913D01*
X740682Y-14629777D01*
X698811Y-14685711D01*
X633346Y-14710128D01*
X565073Y-14695276D01*
X515668Y-14645871D01*
X500500Y-14586444D01*
X500500Y-8452135D01*
X3999500Y-8452135D01*
X3999500Y-9547870D01*
X3999501Y-9547876D01*
X4005908Y-9607483D01*
X4056202Y-9742328D01*
X4056206Y-9742335D01*
X4142452Y-9857544D01*
X4142453Y-9857544D01*
X4142454Y-9857546D01*
X4171615Y-9879376D01*
X4200145Y-9900734D01*
X4242015Y-9956668D01*
X4246999Y-10026360D01*
X4213513Y-10087683D01*
X4200145Y-10099266D01*
X4142452Y-10142455D01*
X4056206Y-10257664D01*
X4056202Y-10257671D01*
X4005908Y-10392517D01*
X4004834Y-10402511D01*
X3999501Y-10452123D01*
X3999500Y-10452135D01*
X3999500Y-11547870D01*
X3999501Y-11547876D01*
X4005908Y-11607483D01*
X4056202Y-11742328D01*
X4056206Y-11742335D01*
X4142452Y-11857544D01*
X4142453Y-11857544D01*
X4142454Y-11857546D01*
X4171352Y-11879179D01*
X4200145Y-11900734D01*
X4242015Y-11956668D01*
X4246999Y-12026360D01*
X4213513Y-12087683D01*
X4200145Y-12099266D01*
X4142452Y-12142455D01*
X4056206Y-12257664D01*
X4056202Y-12257671D01*
X4005908Y-12392517D01*
X3999501Y-12452116D01*
X3999500Y-12452135D01*
X3999500Y-13547870D01*
X3999501Y-13547876D01*
X4005908Y-13607483D01*
X4056202Y-13742328D01*
X4056206Y-13742335D01*
X4142452Y-13857544D01*
X4142455Y-13857547D01*
X4257664Y-13943793D01*
X4257671Y-13943797D01*
X4392517Y-13994091D01*
X4392516Y-13994091D01*
X4399444Y-13994835D01*
X4452127Y-14000500D01*
X7547872Y-14000499D01*
X7607483Y-13994091D01*
X7742331Y-13943796D01*
X7857546Y-13857546D01*
X7943796Y-13742331D01*
X7966609Y-13681167D01*
X7979878Y-13663440D01*
X7989078Y-13643297D01*
X8000408Y-13636015D01*
X8008480Y-13625233D01*
X8029228Y-13617494D01*
X8047856Y-13605523D01*
X8069772Y-13602371D01*
X8073944Y-13600816D01*
X8082791Y-13600500D01*
X8283285Y-13600500D01*
X8350324Y-13620185D01*
X8389401Y-13660349D01*
X8413068Y-13699499D01*
X8419530Y-13710188D01*
X8539811Y-13830469D01*
X8539813Y-13830470D01*
X8539815Y-13830472D01*
X8685394Y-13918478D01*
X8847804Y-13969086D01*
X8918384Y-13975500D01*
X8918387Y-13975500D01*
X9394648Y-13975500D01*
X9396879Y-13976155D01*
X9399134Y-13975581D01*
X9430247Y-13985953D01*
X9461687Y-13995185D01*
X9463209Y-13996941D01*
X9465418Y-13997678D01*
X9485989Y-14023231D01*
X9507442Y-14047989D01*
X9507772Y-14050290D01*
X9509232Y-14052103D01*
X9512720Y-14084699D01*
X9517386Y-14117147D01*
X9516496Y-14119984D01*
X9516667Y-14121576D01*
X9512050Y-14134171D01*
X9505505Y-14155059D01*
X9503869Y-14158322D01*
X9469360Y-14218095D01*
X9440423Y-14268215D01*
X9430804Y-14304109D01*
X9425151Y-14315390D01*
X9409583Y-14332094D01*
X9397700Y-14351588D01*
X9378446Y-14365947D01*
X9289811Y-14419530D01*
X9169530Y-14539811D01*
X9081522Y-14685393D01*
X9030913Y-14847807D01*
X9024500Y-14918386D01*
X9024500Y-15431613D01*
X9030913Y-15502192D01*
X9030913Y-15502194D01*
X9030914Y-15502196D01*
X9081522Y-15664606D01*
X9106116Y-15705290D01*
X9169530Y-15810188D01*
X9272015Y-15912673D01*
X9305500Y-15973996D01*
X9300516Y-16043688D01*
X9272015Y-16088035D01*
X9169928Y-16190121D01*
X9169927Y-16190122D01*
X9081980Y-16335604D01*
X9031409Y-16497893D01*
X9025000Y-16568427D01*
X9025000Y-16575000D01*
X12974999Y-16575000D01*
X12974999Y-16568417D01*
X12968591Y-16497897D01*
X12968590Y-16497892D01*
X12918018Y-16335603D01*
X12830072Y-16190122D01*
X12727984Y-16088034D01*
X12694499Y-16026711D01*
X12699483Y-15957019D01*
X12727983Y-15912673D01*
X12830472Y-15810185D01*
X12918478Y-15664606D01*
X12969086Y-15502196D01*
X12975500Y-15431616D01*
X12975500Y-14918384D01*
X12969086Y-14847804D01*
X12918478Y-14685394D01*
X12855721Y-14581582D01*
X14025001Y-14581582D01*
X14031408Y-14652102D01*
X14031409Y-14652107D01*
X14081981Y-14814396D01*
X14169927Y-14959877D01*
X14290122Y-15080072D01*
X14435604Y-15168019D01*
X14435603Y-15168019D01*
X14597894Y-15218590D01*
X14597892Y-15218590D01*
X14668418Y-15224999D01*
X15250000Y-15224999D01*
X15331581Y-15224999D01*
X15402102Y-15218591D01*
X15402107Y-15218590D01*
X15564396Y-15168018D01*
X15709877Y-15080072D01*
X15830072Y-14959877D01*
X15918019Y-14814395D01*
X15968590Y-14652106D01*
X15974999Y-14581582D01*
X16525001Y-14581582D01*
X16531408Y-14652102D01*
X16531409Y-14652107D01*
X16581981Y-14814396D01*
X16669927Y-14959877D01*
X16790122Y-15080072D01*
X16935604Y-15168019D01*
X16935603Y-15168019D01*
X17097894Y-15218590D01*
X17097892Y-15218590D01*
X17168418Y-15224999D01*
X17750000Y-15224999D01*
X17831581Y-15224999D01*
X17902102Y-15218591D01*
X17902107Y-15218590D01*
X18064396Y-15168018D01*
X18209877Y-15080072D01*
X18330072Y-14959877D01*
X18418019Y-14814395D01*
X18468590Y-14652106D01*
X18475000Y-14581572D01*
X18475000Y-14575000D01*
X17750000Y-14575000D01*
X17750000Y-15224999D01*
X17168418Y-15224999D01*
X17249999Y-15224998D01*
X17250000Y-15224998D01*
X17250000Y-14575000D01*
X16525001Y-14575000D01*
X16525001Y-14581582D01*
X15974999Y-14581582D01*
X15975000Y-14581572D01*
X15975000Y-14575000D01*
X15250000Y-14575000D01*
X15250000Y-15224999D01*
X14668418Y-15224999D01*
X14749999Y-15224998D01*
X14750000Y-15224998D01*
X14750000Y-14575000D01*
X14025001Y-14575000D01*
X14025001Y-14581582D01*
X12855721Y-14581582D01*
X12830472Y-14539815D01*
X12830470Y-14539813D01*
X12830469Y-14539811D01*
X12710188Y-14419530D01*
X12710185Y-14419528D01*
X12621552Y-14365947D01*
X12574366Y-14314421D01*
X12565931Y-14291930D01*
X12559577Y-14268216D01*
X12530640Y-14218095D01*
X12480524Y-14131290D01*
X12480518Y-14131282D01*
X12297961Y-13948726D01*
X12297959Y-13948723D01*
X12168717Y-13819481D01*
X12168716Y-13819480D01*
X12081904Y-13769360D01*
X12081904Y-13769359D01*
X12081900Y-13769358D01*
X12031785Y-13740423D01*
X11879057Y-13699499D01*
X11794964Y-13699499D01*
X11727925Y-13679814D01*
X11682170Y-13627010D01*
X11672226Y-13557852D01*
X11676575Y-13538618D01*
X11719086Y-13402196D01*
X11725500Y-13331616D01*
X11725500Y-12674097D01*
X11745185Y-12607058D01*
X11797989Y-12561303D01*
X11867147Y-12551359D01*
X11930703Y-12580384D01*
X11937181Y-12586416D01*
X12390139Y-13039374D01*
X12390149Y-13039385D01*
X12394479Y-13043715D01*
X12394480Y-13043716D01*
X12506284Y-13155520D01*
X12593095Y-13205639D01*
X12593097Y-13205641D01*
X12631151Y-13227611D01*
X12643215Y-13234577D01*
X12795943Y-13275501D01*
X12795946Y-13275501D01*
X12961653Y-13275501D01*
X12961669Y-13275500D01*
X14083480Y-13275500D01*
X14112920Y-13284144D01*
X14142907Y-13290668D01*
X14147922Y-13294422D01*
X14150519Y-13295185D01*
X14171161Y-13311819D01*
X14272015Y-13412673D01*
X14305500Y-13473996D01*
X14300516Y-13543688D01*
X14272015Y-13588035D01*
X14169928Y-13690121D01*
X14169927Y-13690122D01*
X14081980Y-13835604D01*
X14031409Y-13997893D01*
X14025000Y-14068427D01*
X14025000Y-14075000D01*
X15974999Y-14075000D01*
X15974999Y-14068417D01*
X15968591Y-13997897D01*
X15968590Y-13997892D01*
X15918018Y-13835603D01*
X15830072Y-13690122D01*
X15727984Y-13588034D01*
X15723645Y-13580088D01*
X15716398Y-13574663D01*
X15707163Y-13549903D01*
X15694499Y-13526711D01*
X15695144Y-13517681D01*
X15691981Y-13509199D01*
X15697597Y-13483378D01*
X15699483Y-13457019D01*
X15705301Y-13447965D01*
X15706833Y-13440926D01*
X15727981Y-13412675D01*
X15829496Y-13311160D01*
X15890817Y-13277677D01*
X15900997Y-13275903D01*
X15904048Y-13275501D01*
X15904057Y-13275501D01*
X16056785Y-13234577D01*
X16106904Y-13205639D01*
X16193716Y-13155520D01*
X16305520Y-13043716D01*
X16305520Y-13043714D01*
X16315728Y-13033507D01*
X16315729Y-13033504D01*
X16342188Y-13007045D01*
X16403509Y-12973562D01*
X16473201Y-12978546D01*
X16529134Y-13020418D01*
X16548251Y-13057835D01*
X16578690Y-13155519D01*
X16581522Y-13164606D01*
X16669530Y-13310188D01*
X16772015Y-13412673D01*
X16805500Y-13473996D01*
X16800516Y-13543688D01*
X16772015Y-13588035D01*
X16669928Y-13690121D01*
X16669927Y-13690122D01*
X16581980Y-13835604D01*
X16531409Y-13997893D01*
X16525000Y-14068427D01*
X16525000Y-14075000D01*
X18474999Y-14075000D01*
X18474999Y-14068417D01*
X18468591Y-13997897D01*
X18468590Y-13997892D01*
X18418018Y-13835603D01*
X18330072Y-13690122D01*
X18227984Y-13588034D01*
X18194499Y-13526711D01*
X18199483Y-13457019D01*
X18227983Y-13412673D01*
X18330472Y-13310185D01*
X18418478Y-13164606D01*
X18469086Y-13002196D01*
X18475500Y-12931616D01*
X18475500Y-12418384D01*
X18469086Y-12347804D01*
X18418478Y-12185394D01*
X18330472Y-12039815D01*
X18330470Y-12039813D01*
X18330469Y-12039811D01*
X18256394Y-11965736D01*
X18222909Y-11904413D01*
X18227893Y-11834721D01*
X18229493Y-11830655D01*
X18269737Y-11733497D01*
X18300500Y-11578842D01*
X18300500Y-11421158D01*
X18300500Y-11421155D01*
X18300499Y-11421153D01*
X18289458Y-11365649D01*
X18269737Y-11266503D01*
X18269735Y-11266498D01*
X18209397Y-11120827D01*
X18209390Y-11120814D01*
X18121789Y-10989711D01*
X18121786Y-10989707D01*
X18010292Y-10878213D01*
X18010288Y-10878210D01*
X17879185Y-10790609D01*
X17879172Y-10790602D01*
X17733501Y-10730264D01*
X17733489Y-10730261D01*
X17578845Y-10699500D01*
X17578842Y-10699500D01*
X17421158Y-10699500D01*
X17421155Y-10699500D01*
X17266510Y-10730261D01*
X17266498Y-10730264D01*
X17120827Y-10790602D01*
X17120814Y-10790609D01*
X17068891Y-10825304D01*
X17002214Y-10846182D01*
X16934833Y-10827698D01*
X16931109Y-10825304D01*
X16879185Y-10790609D01*
X16879172Y-10790602D01*
X16733501Y-10730264D01*
X16733489Y-10730261D01*
X16578845Y-10699500D01*
X16578842Y-10699500D01*
X16421158Y-10699500D01*
X16421155Y-10699500D01*
X16266510Y-10730261D01*
X16266498Y-10730264D01*
X16120827Y-10790602D01*
X16120814Y-10790609D01*
X15989711Y-10878210D01*
X15989707Y-10878213D01*
X15878213Y-10989707D01*
X15878210Y-10989711D01*
X15790609Y-11120814D01*
X15790602Y-11120827D01*
X15730264Y-11266498D01*
X15730261Y-11266510D01*
X15699500Y-11421153D01*
X15699500Y-11578846D01*
X15721287Y-11688376D01*
X15715060Y-11757967D01*
X15672197Y-11813145D01*
X15606307Y-11836389D01*
X15562781Y-11830953D01*
X15505631Y-11813145D01*
X15402196Y-11780914D01*
X15331616Y-11774500D01*
X14668384Y-11774500D01*
X14649145Y-11776248D01*
X14597807Y-11780913D01*
X14435393Y-11831522D01*
X14289811Y-11919530D01*
X14289810Y-11919531D01*
X14171161Y-12038181D01*
X14144233Y-12052884D01*
X14118415Y-12069477D01*
X14112214Y-12070368D01*
X14109838Y-12071666D01*
X14083480Y-12074500D01*
X13975570Y-12074500D01*
X13908531Y-12054815D01*
X13862776Y-12002011D01*
X13852832Y-11932853D01*
X13881857Y-11869297D01*
X13912449Y-11843768D01*
X13956552Y-11817685D01*
X13956561Y-11817678D01*
X14072678Y-11701561D01*
X14072685Y-11701552D01*
X14156282Y-11560196D01*
X14156283Y-11560193D01*
X14202099Y-11402495D01*
X14202100Y-11402489D01*
X14204999Y-11365649D01*
X14205000Y-11365634D01*
X14205000Y-10725000D01*
X13529000Y-10725000D01*
X13461961Y-10705315D01*
X13416206Y-10652511D01*
X13405000Y-10601000D01*
X13405000Y-10475000D01*
X13279000Y-10475000D01*
X13211961Y-10455315D01*
X13166206Y-10402511D01*
X13155000Y-10351000D01*
X13155000Y-10225000D01*
X13655000Y-10225000D01*
X14205000Y-10225000D01*
X14205000Y-9584365D01*
X14204999Y-9584350D01*
X14202100Y-9547510D01*
X14202099Y-9547504D01*
X14156283Y-9389806D01*
X14156282Y-9389803D01*
X14072685Y-9248447D01*
X14072678Y-9248438D01*
X13956561Y-9132321D01*
X13956552Y-9132314D01*
X13815196Y-9048717D01*
X13815193Y-9048716D01*
X13657494Y-9002900D01*
X13657497Y-9002900D01*
X13655000Y-9002703D01*
X13655000Y-10225000D01*
X13155000Y-10225000D01*
X13155000Y-9002703D01*
X13152503Y-9002900D01*
X12994806Y-9048716D01*
X12994803Y-9048717D01*
X12853449Y-9132313D01*
X12847283Y-9137097D01*
X12845389Y-9134655D01*
X12796580Y-9161239D01*
X12726894Y-9156179D01*
X12694227Y-9135159D01*
X12693031Y-9136702D01*
X12686862Y-9131917D01*
X12608681Y-9085681D01*
X12545398Y-9048256D01*
X12545397Y-9048255D01*
X12545396Y-9048255D01*
X12545393Y-9048254D01*
X12387573Y-9002402D01*
X12387567Y-9002401D01*
X12350701Y-8999500D01*
X12350694Y-8999500D01*
X11919306Y-8999500D01*
X11919298Y-8999500D01*
X11882432Y-9002401D01*
X11882426Y-9002402D01*
X11724606Y-9048254D01*
X11724603Y-9048255D01*
X11583137Y-9131917D01*
X11576969Y-9136702D01*
X11575072Y-9134256D01*
X11526358Y-9160857D01*
X11456666Y-9155873D01*
X11424296Y-9135069D01*
X11423031Y-9136702D01*
X11416862Y-9131917D01*
X11338681Y-9085681D01*
X11275398Y-9048256D01*
X11275397Y-9048255D01*
X11275396Y-9048255D01*
X11275393Y-9048254D01*
X11117573Y-9002402D01*
X11117567Y-9002401D01*
X11080701Y-8999500D01*
X11080694Y-8999500D01*
X10649306Y-8999500D01*
X10649298Y-8999500D01*
X10612432Y-9002401D01*
X10612426Y-9002402D01*
X10454606Y-9048254D01*
X10454603Y-9048255D01*
X10313137Y-9131917D01*
X10306969Y-9136702D01*
X10305072Y-9134256D01*
X10256358Y-9160857D01*
X10186666Y-9155873D01*
X10154296Y-9135069D01*
X10153031Y-9136702D01*
X10146862Y-9131917D01*
X10068681Y-9085681D01*
X10005398Y-9048256D01*
X10005397Y-9048255D01*
X10005396Y-9048255D01*
X10005393Y-9048254D01*
X9847573Y-9002402D01*
X9847567Y-9002401D01*
X9810701Y-8999500D01*
X9810694Y-8999500D01*
X9379306Y-8999500D01*
X9379301Y-8999500D01*
X9379278Y-8999501D01*
X9369821Y-9000245D01*
X9301445Y-8985876D01*
X9251692Y-8936822D01*
X9236358Y-8868655D01*
X9260311Y-8803020D01*
X9272410Y-8788956D01*
X10177952Y-7883415D01*
X10205205Y-7842627D01*
X10260084Y-7760495D01*
X10283518Y-7703920D01*
X10316659Y-7623912D01*
X10345500Y-7478917D01*
X10345500Y-7331082D01*
X10345500Y-7085199D01*
X10365185Y-7018160D01*
X10417989Y-6972405D01*
X10487147Y-6962461D01*
X10504089Y-6966121D01*
X10612431Y-6997598D01*
X10649306Y-7000500D01*
X10649314Y-7000500D01*
X11080686Y-7000500D01*
X11080694Y-7000500D01*
X11117569Y-6997598D01*
X11117571Y-6997597D01*
X11117573Y-6997597D01*
X11159191Y-6985505D01*
X11275398Y-6951744D01*
X11416865Y-6868081D01*
X11416870Y-6868075D01*
X11423031Y-6863298D01*
X11424933Y-6865750D01*
X11473579Y-6839155D01*
X11543274Y-6844104D01*
X11575695Y-6864940D01*
X11576969Y-6863298D01*
X11583132Y-6868078D01*
X11583135Y-6868081D01*
X11724602Y-6951744D01*
X11761490Y-6962461D01*
X11882426Y-6997597D01*
X11882429Y-6997597D01*
X11882431Y-6997598D01*
X11919306Y-7000500D01*
X11919314Y-7000500D01*
X12350686Y-7000500D01*
X12350694Y-7000500D01*
X12387569Y-6997598D01*
X12387571Y-6997597D01*
X12387573Y-6997597D01*
X12429191Y-6985505D01*
X12545398Y-6951744D01*
X12686865Y-6868081D01*
X12686868Y-6868077D01*
X12693026Y-6863301D01*
X12694839Y-6865638D01*
X12743949Y-6838798D01*
X12813643Y-6843756D01*
X12845996Y-6864551D01*
X12847278Y-6862900D01*
X12853447Y-6867685D01*
X12994801Y-6951281D01*
X13152514Y-6997100D01*
X13152511Y-6997100D01*
X13154998Y-6997295D01*
X13155000Y-6997295D01*
X13655000Y-6997295D01*
X13655001Y-6997295D01*
X13657486Y-6997100D01*
X13815198Y-6951281D01*
X13956552Y-6867685D01*
X13956561Y-6867678D01*
X14072678Y-6751561D01*
X14072685Y-6751552D01*
X14156282Y-6610196D01*
X14156283Y-6610193D01*
X14202099Y-6452495D01*
X14202100Y-6452489D01*
X14204999Y-6415649D01*
X14205000Y-6415634D01*
X14205000Y-5775000D01*
X13655000Y-5775000D01*
X13655000Y-6997295D01*
X13155000Y-6997295D01*
X13155000Y-4044000D01*
X13174685Y-3976961D01*
X13227489Y-3931206D01*
X13279000Y-3920000D01*
X13282971Y-3920000D01*
X13282975Y-3919999D01*
X13308481Y-3911547D01*
X13308492Y-3911542D01*
X13452728Y-3822575D01*
X13452732Y-3822572D01*
X13487819Y-3787486D01*
X13549142Y-3754001D01*
X13618834Y-3758985D01*
X13674767Y-3800857D01*
X13698038Y-3856181D01*
X13699500Y-3865616D01*
X13699500Y-3878839D01*
X13708766Y-3925426D01*
X13709174Y-3928054D01*
X13704913Y-3960173D01*
X13702025Y-3992441D01*
X13700297Y-3994966D01*
X13699986Y-3997317D01*
X13693275Y-4005234D01*
X13670790Y-4038112D01*
X13655000Y-4052702D01*
X13655000Y-5275000D01*
X14231821Y-5275000D01*
X14234034Y-5273791D01*
X14284598Y-5273337D01*
X14421153Y-5300499D01*
X14421156Y-5300500D01*
X14421158Y-5300500D01*
X14578844Y-5300500D01*
X14578845Y-5300499D01*
X14682626Y-5279856D01*
X14733488Y-5269739D01*
X14733489Y-5269738D01*
X14733497Y-5269737D01*
X14757155Y-5259937D01*
X14765329Y-5258311D01*
X14769669Y-5255523D01*
X14804604Y-5250500D01*
X14923126Y-5250500D01*
X14990165Y-5270185D01*
X15010807Y-5286819D01*
X15046955Y-5322967D01*
X15046959Y-5322970D01*
X15191294Y-5411998D01*
X15191297Y-5411999D01*
X15191303Y-5412003D01*
X15352292Y-5465349D01*
X15451655Y-5475500D01*
X15998344Y-5475499D01*
X15998352Y-5475498D01*
X15998355Y-5475498D01*
X16052760Y-5469940D01*
X16097708Y-5465349D01*
X16258697Y-5412003D01*
X16403044Y-5322968D01*
X16412668Y-5313343D01*
X16473987Y-5279856D01*
X16543679Y-5284835D01*
X16588034Y-5313339D01*
X16597267Y-5322572D01*
X16597271Y-5322575D01*
X16741507Y-5411542D01*
X16741518Y-5411547D01*
X16902393Y-5464855D01*
X17001683Y-5474999D01*
X17525000Y-5474999D01*
X17548308Y-5474999D01*
X17548322Y-5474998D01*
X17647607Y-5464855D01*
X17808481Y-5411547D01*
X17808492Y-5411542D01*
X17952728Y-5322575D01*
X17952732Y-5322572D01*
X18072572Y-5202732D01*
X18072575Y-5202728D01*
X18161542Y-5058492D01*
X18161547Y-5058481D01*
X18214855Y-4897606D01*
X18224999Y-4798322D01*
X18225000Y-4798309D01*
X18225000Y-4750000D01*
X17525000Y-4750000D01*
X17525000Y-5474999D01*
X17001683Y-5474999D01*
X17025000Y-5474998D01*
X17025000Y-4250000D01*
X17525000Y-4250000D01*
X18224999Y-4250000D01*
X18224999Y-4201692D01*
X18224998Y-4201677D01*
X18214855Y-4102392D01*
X18161547Y-3941518D01*
X18161542Y-3941507D01*
X18072575Y-3797271D01*
X18072572Y-3797267D01*
X17952732Y-3677427D01*
X17952728Y-3677424D01*
X17808492Y-3588457D01*
X17808481Y-3588452D01*
X17647606Y-3535144D01*
X17548322Y-3525000D01*
X17525000Y-3525000D01*
X17525000Y-4250000D01*
X17025000Y-4250000D01*
X17025000Y-3524999D01*
X17001693Y-3525000D01*
X17001674Y-3525001D01*
X16902392Y-3535144D01*
X16741518Y-3588452D01*
X16741507Y-3588457D01*
X16597271Y-3677424D01*
X16597265Y-3677428D01*
X16588031Y-3686663D01*
X16526707Y-3720146D01*
X16457015Y-3715159D01*
X16412672Y-3686660D01*
X16403044Y-3677032D01*
X16403040Y-3677029D01*
X16258705Y-3588001D01*
X16258699Y-3587998D01*
X16258697Y-3587997D01*
X16193823Y-3566500D01*
X16097709Y-3534651D01*
X15998346Y-3524500D01*
X15451662Y-3524500D01*
X15451644Y-3524501D01*
X15352266Y-3534653D01*
X15283573Y-3521883D01*
X15232689Y-3474002D01*
X15225109Y-3458758D01*
X15209394Y-3420818D01*
X15200766Y-3407906D01*
X15121789Y-3289708D01*
X15121786Y-3289704D01*
X15010292Y-3178210D01*
X15010288Y-3178207D01*
X14879185Y-3090606D01*
X14879172Y-3090599D01*
X14733501Y-3030261D01*
X14733489Y-3030258D01*
X14578845Y-2999497D01*
X14578842Y-2999497D01*
X14421158Y-2999497D01*
X14421155Y-2999497D01*
X14266510Y-3030258D01*
X14266498Y-3030261D01*
X14120827Y-3090599D01*
X14120814Y-3090606D01*
X13989711Y-3178207D01*
X13989707Y-3178210D01*
X13909140Y-3258778D01*
X13847817Y-3292263D01*
X13778125Y-3287279D01*
X13733778Y-3258778D01*
X13725000Y-3250000D01*
X12899000Y-3250000D01*
X12831961Y-3230315D01*
X12786206Y-3177511D01*
X12775000Y-3126000D01*
X12775000Y-3000000D01*
X12649000Y-3000000D01*
X12581961Y-2980315D01*
X12536206Y-2927511D01*
X12525000Y-2876000D01*
X12525000Y-2750000D01*
X13025000Y-2750000D01*
X13724999Y-2750000D01*
X13724999Y-2701692D01*
X13724998Y-2701677D01*
X13714855Y-2602392D01*
X13661547Y-2441518D01*
X13661542Y-2441507D01*
X13572575Y-2297271D01*
X13572572Y-2297267D01*
X13452732Y-2177427D01*
X13452728Y-2177424D01*
X13308492Y-2088457D01*
X13308481Y-2088452D01*
X13147606Y-2035144D01*
X13048322Y-2025000D01*
X13025000Y-2025000D01*
X13025000Y-2750000D01*
X12525000Y-2750000D01*
X12525000Y-2024999D01*
X12501693Y-2025000D01*
X12501674Y-2025001D01*
X12402392Y-2035144D01*
X12241518Y-2088452D01*
X12241507Y-2088457D01*
X12097271Y-2177424D01*
X12097265Y-2177428D01*
X12088031Y-2186663D01*
X12026707Y-2220146D01*
X11957015Y-2215159D01*
X11912672Y-2186660D01*
X11903044Y-2177032D01*
X11903040Y-2177029D01*
X11758705Y-2088001D01*
X11758699Y-2087998D01*
X11758697Y-2087997D01*
X11758694Y-2087996D01*
X11597709Y-2034651D01*
X11498346Y-2024500D01*
X10951662Y-2024500D01*
X10951644Y-2024501D01*
X10852292Y-2034650D01*
X10852289Y-2034651D01*
X10691305Y-2087996D01*
X10691294Y-2088001D01*
X10546959Y-2177029D01*
X10546955Y-2177032D01*
X10510807Y-2213181D01*
X10483879Y-2227884D01*
X10458061Y-2244477D01*
X10451860Y-2245368D01*
X10449484Y-2246666D01*
X10423126Y-2249500D01*
X10304604Y-2249500D01*
X10257155Y-2240062D01*
X10233497Y-2230263D01*
X10233493Y-2230262D01*
X10233488Y-2230260D01*
X10078845Y-2199500D01*
X10078842Y-2199500D01*
X9921158Y-2199500D01*
X9921155Y-2199500D01*
X9766510Y-2230261D01*
X9766498Y-2230264D01*
X9620827Y-2290602D01*
X9620814Y-2290609D01*
X9489711Y-2378210D01*
X9489707Y-2378213D01*
X9378213Y-2489707D01*
X9378210Y-2489711D01*
X9290609Y-2620814D01*
X9290603Y-2620826D01*
X9280806Y-2644478D01*
X9253927Y-2684704D01*
X9012052Y-2926578D01*
X9012046Y-2926585D01*
X8963329Y-2999496D01*
X8963330Y-2999497D01*
X8929914Y-3049508D01*
X8873343Y-3186082D01*
X8873340Y-3186092D01*
X8844500Y-3331079D01*
X8844500Y-3695396D01*
X8835062Y-3742844D01*
X8828377Y-3758985D01*
X8825262Y-3766506D01*
X8825260Y-3766511D01*
X8794500Y-3921153D01*
X8794500Y-4078846D01*
X8825261Y-4233489D01*
X8825263Y-4233497D01*
X8835061Y-4257151D01*
X8836687Y-4265328D01*
X8839477Y-4269669D01*
X8844500Y-4304604D01*
X8844500Y-4417670D01*
X8839576Y-4452265D01*
X8797402Y-4597426D01*
X8797401Y-4597432D01*
X8794500Y-4634298D01*
X8794500Y-6415701D01*
X8797401Y-6452567D01*
X8797402Y-6452573D01*
X8839576Y-6597733D01*
X8844500Y-6632328D01*
X8844500Y-7042769D01*
X8824815Y-7109808D01*
X8808181Y-7130450D01*
X8195807Y-7742823D01*
X8134484Y-7776308D01*
X8064792Y-7771324D01*
X8008859Y-7729452D01*
X7984442Y-7663988D01*
X7991947Y-7611802D01*
X7993596Y-7607379D01*
X7993598Y-7607372D01*
X7999999Y-7547844D01*
X8000000Y-7547827D01*
X8000000Y-7250000D01*
X4000000Y-7250000D01*
X4000000Y-7547844D01*
X4006401Y-7607372D01*
X4006403Y-7607379D01*
X4056645Y-7742086D01*
X4056649Y-7742093D01*
X4142809Y-7857186D01*
X4200561Y-7900420D01*
X4242432Y-7956354D01*
X4247416Y-8026046D01*
X4213931Y-8087369D01*
X4200563Y-8098952D01*
X4142454Y-8142453D01*
X4142452Y-8142455D01*
X4056206Y-8257664D01*
X4056202Y-8257671D01*
X4005908Y-8392517D01*
X3999501Y-8452116D01*
X3999500Y-8452135D01*
X500500Y-8452135D01*
X500500Y-6452155D01*
X4000000Y-6452155D01*
X4000000Y-6750000D01*
X5750000Y-6750000D01*
X6250000Y-6750000D01*
X8000000Y-6750000D01*
X8000000Y-6452172D01*
X7999999Y-6452155D01*
X7993598Y-6392627D01*
X7993596Y-6392620D01*
X7943354Y-6257913D01*
X7943350Y-6257906D01*
X7857190Y-6142812D01*
X7857187Y-6142809D01*
X7742093Y-6056649D01*
X7742086Y-6056645D01*
X7607379Y-6006403D01*
X7607372Y-6006401D01*
X7547844Y-6000000D01*
X6250000Y-6000000D01*
X6250000Y-6750000D01*
X5750000Y-6750000D01*
X5750000Y-6000000D01*
X4452155Y-6000000D01*
X4392627Y-6006401D01*
X4392620Y-6006403D01*
X4257913Y-6056645D01*
X4257906Y-6056649D01*
X4142812Y-6142809D01*
X4142809Y-6142812D01*
X4056649Y-6257906D01*
X4056645Y-6257913D01*
X4006403Y-6392620D01*
X4006401Y-6392627D01*
X4000000Y-6452155D01*
X500500Y-6452155D01*
X500500Y-5413555D01*
X520185Y-5346516D01*
X572989Y-5300761D01*
X642147Y-5290817D01*
X705703Y-5319842D01*
X740682Y-5370222D01*
X767485Y-5442086D01*
X767489Y-5442093D01*
X853649Y-5557187D01*
X853652Y-5557190D01*
X968746Y-5643350D01*
X968753Y-5643354D01*
X1103460Y-5693596D01*
X1103467Y-5693598D01*
X1162995Y-5699999D01*
X1163012Y-5700000D01*
X2260840Y-5700000D01*
X2760840Y-5700000D01*
X3858668Y-5700000D01*
X3858684Y-5699999D01*
X3918212Y-5693598D01*
X3918219Y-5693596D01*
X4052926Y-5643354D01*
X4052933Y-5643350D01*
X4168027Y-5557190D01*
X4168030Y-5557187D01*
X4254190Y-5442093D01*
X4254194Y-5442086D01*
X4304436Y-5307379D01*
X4304438Y-5307372D01*
X4310839Y-5247844D01*
X4310840Y-5247827D01*
X4310840Y-4675000D01*
X2760840Y-4675000D01*
X2760840Y-5700000D01*
X2260840Y-5700000D01*
X2260840Y-4175000D01*
X2760840Y-4175000D01*
X4310840Y-4175000D01*
X4310840Y-3602172D01*
X4310839Y-3602155D01*
X4304438Y-3542627D01*
X4304436Y-3542620D01*
X4254194Y-3407913D01*
X4254190Y-3407906D01*
X4168030Y-3292812D01*
X4168027Y-3292809D01*
X4052933Y-3206649D01*
X4052926Y-3206645D01*
X3918219Y-3156403D01*
X3918212Y-3156401D01*
X3858684Y-3150000D01*
X2760840Y-3150000D01*
X2760840Y-4175000D01*
X2260840Y-4175000D01*
X2260840Y-3150000D01*
X1162995Y-3150000D01*
X1103467Y-3156401D01*
X1103460Y-3156403D01*
X968753Y-3206645D01*
X968746Y-3206649D01*
X853652Y-3292809D01*
X853649Y-3292812D01*
X767489Y-3407906D01*
X767485Y-3407913D01*
X740682Y-3479777D01*
X698811Y-3535711D01*
X633346Y-3560128D01*
X565073Y-3545276D01*
X515668Y-3495871D01*
X500500Y-3436444D01*
X500500Y-809758D01*
X502027Y-790360D01*
X510936Y-734109D01*
X512087Y-726845D01*
X524072Y-689955D01*
X548786Y-641452D01*
X571585Y-610073D01*
X610073Y-571585D01*
X641452Y-548786D01*
X689955Y-524072D01*
X726846Y-512086D01*
X790360Y-502026D01*
X809758Y-500500D01*
X8065890Y-500500D01*
X8065892Y-500500D01*
X8193186Y-466392D01*
X8307314Y-400500D01*
X8400500Y-307314D01*
X8445800Y-228851D01*
X8496367Y-180636D01*
X8564974Y-167413D01*
X8629839Y-193381D01*
G37*
%TD.AperFunction*%
%TD*%
M02*
