%TF.GenerationSoftware,KiCad,Pcbnew,9.0.2*%
%TF.CreationDate,2025-07-10T11:39:35+02:00*%
%TF.ProjectId,iagabel,69616761-6265-46c2-9e6b-696361645f70,rev?*%
%TF.SameCoordinates,Original*%
%TF.FileFunction,Copper,L1,Top*%
%TF.FilePolarity,Positive*%
%FSLAX46Y46*%
G04 Gerber Fmt 4.6, Leading zero omitted, Abs format (unit mm)*
G04 Created by KiCad (PCBNEW 9.0.2) date 2025-07-10 11:39:35*
%MOMM*%
%LPD*%
G01*
G04 APERTURE LIST*
G04 Aperture macros list*
%AMRoundRect*
0 Rectangle with rounded corners*
0 $1 Rounding radius*
0 $2 $3 $4 $5 $6 $7 $8 $9 X,Y pos of 4 corners*
0 Add a 4 corners polygon primitive as box body*
4,1,4,$2,$3,$4,$5,$6,$7,$8,$9,$2,$3,0*
0 Add four circle primitives for the rounded corners*
1,1,$1+$1,$2,$3*
1,1,$1+$1,$4,$5*
1,1,$1+$1,$6,$7*
1,1,$1+$1,$8,$9*
0 Add four rect primitives between the rounded corners*
20,1,$1+$1,$2,$3,$4,$5,0*
20,1,$1+$1,$4,$5,$6,$7,0*
20,1,$1+$1,$6,$7,$8,$9,0*
20,1,$1+$1,$8,$9,$2,$3,0*%
G04 Aperture macros list end*
%TA.AperFunction,SMDPad,CuDef*%
%ADD10RoundRect,0.200000X-0.275000X0.200000X-0.275000X-0.200000X0.275000X-0.200000X0.275000X0.200000X0*%
%TD*%
%TA.AperFunction,SMDPad,CuDef*%
%ADD11RoundRect,0.250000X0.450000X-0.262500X0.450000X0.262500X-0.450000X0.262500X-0.450000X-0.262500X0*%
%TD*%
%TA.AperFunction,SMDPad,CuDef*%
%ADD12RoundRect,0.250000X-0.450000X0.262500X-0.450000X-0.262500X0.450000X-0.262500X0.450000X0.262500X0*%
%TD*%
%TA.AperFunction,SMDPad,CuDef*%
%ADD13RoundRect,0.100000X0.225000X0.100000X-0.225000X0.100000X-0.225000X-0.100000X0.225000X-0.100000X0*%
%TD*%
%TA.AperFunction,SMDPad,CuDef*%
%ADD14RoundRect,0.218750X-0.256250X0.218750X-0.256250X-0.218750X0.256250X-0.218750X0.256250X0.218750X0*%
%TD*%
%TA.AperFunction,SMDPad,CuDef*%
%ADD15C,2.000000*%
%TD*%
%TA.AperFunction,SMDPad,CuDef*%
%ADD16RoundRect,0.200000X0.275000X-0.200000X0.275000X0.200000X-0.275000X0.200000X-0.275000X-0.200000X0*%
%TD*%
%TA.AperFunction,SMDPad,CuDef*%
%ADD17RoundRect,0.225000X-0.225000X-0.250000X0.225000X-0.250000X0.225000X0.250000X-0.225000X0.250000X0*%
%TD*%
%TA.AperFunction,SMDPad,CuDef*%
%ADD18RoundRect,0.135000X-0.465000X-0.315000X0.465000X-0.315000X0.465000X0.315000X-0.465000X0.315000X0*%
%TD*%
%TA.AperFunction,SMDPad,CuDef*%
%ADD19R,0.700000X1.900000*%
%TD*%
%TA.AperFunction,SMDPad,CuDef*%
%ADD20R,1.000000X1.900000*%
%TD*%
%TA.AperFunction,SMDPad,CuDef*%
%ADD21R,3.500000X1.000000*%
%TD*%
%TA.AperFunction,SMDPad,CuDef*%
%ADD22R,3.800000X1.500000*%
%TD*%
%TA.AperFunction,ViaPad*%
%ADD23C,0.600000*%
%TD*%
%TA.AperFunction,Conductor*%
%ADD24C,0.200000*%
%TD*%
G04 APERTURE END LIST*
D10*
%TO.P,R7,2*%
%TO.N,GND*%
X17000000Y-14325000D03*
%TO.P,R7,1*%
%TO.N,Net-(U1-1A)*%
X17000000Y-12675000D03*
%TD*%
D11*
%TO.P,R2,1*%
%TO.N,+3.3V*%
X27000000Y-10912500D03*
%TO.P,R2,2*%
%TO.N,Net-(K1-ANODE)*%
X27000000Y-9087500D03*
%TD*%
D12*
%TO.P,R5,1*%
%TO.N,+3.3V*%
X17500000Y-16087500D03*
%TO.P,R5,2*%
%TO.N,Net-(D1-A)*%
X17500000Y-17912500D03*
%TD*%
D13*
%TO.P,U1,1,1A*%
%TO.N,Net-(U1-1A)*%
X16950000Y-10650000D03*
%TO.P,U1,2,GND*%
%TO.N,GND*%
X16950000Y-10000000D03*
%TO.P,U1,3,2A*%
%TO.N,Net-(U1-2A)*%
X16950000Y-9350000D03*
%TO.P,U1,4,2Y*%
%TO.N,Net-(D1-K)*%
X15050000Y-9350000D03*
%TO.P,U1,5,V_{CC}*%
%TO.N,+3.3V*%
X15050000Y-10000000D03*
%TO.P,U1,6,1Y*%
%TO.N,Net-(J1-Pin_1)*%
X15050000Y-10650000D03*
%TD*%
D10*
%TO.P,R6,1*%
%TO.N,Net-(U1-1A)*%
X15000000Y-12675000D03*
%TO.P,R6,2*%
%TO.N,GND*%
X15000000Y-14325000D03*
%TD*%
D14*
%TO.P,D1,1,K*%
%TO.N,Net-(D1-K)*%
X15500000Y-16712500D03*
%TO.P,D1,2,A*%
%TO.N,Net-(D1-A)*%
X15500000Y-18287500D03*
%TD*%
D15*
%TO.P,TP1,1,1*%
%TO.N,Net-(U1-1A)*%
X24000000Y-12000000D03*
%TD*%
D16*
%TO.P,R3,1*%
%TO.N,Net-(U1-2A)*%
X17000000Y-6825000D03*
%TO.P,R3,2*%
%TO.N,GND*%
X17000000Y-5175000D03*
%TD*%
D17*
%TO.P,C1,1*%
%TO.N,+3.3V*%
X15225000Y-2500000D03*
%TO.P,C1,2*%
%TO.N,GND*%
X16775000Y-2500000D03*
%TD*%
D11*
%TO.P,R1,1*%
%TO.N,+3.3V*%
X29000000Y-10912500D03*
%TO.P,R1,2*%
%TO.N,Net-(K1-ANODE)*%
X29000000Y-9087500D03*
%TD*%
D18*
%TO.P,K1,1,EMITTER*%
%TO.N,Net-(U1-1A)*%
X32350000Y-12950000D03*
D19*
X32600000Y-12450000D03*
%TO.P,K1,2,EMITTER*%
%TO.N,Net-(U1-2A)*%
X34000000Y-12450000D03*
%TO.P,K1,3,COLLECTOR*%
%TO.N,+3.3V*%
X35400000Y-12450000D03*
D18*
X35650000Y-12950000D03*
D19*
%TO.P,K1,4,ANODE*%
%TO.N,Net-(K1-ANODE)*%
X35400000Y-7550000D03*
D18*
X35650000Y-7050000D03*
D20*
%TO.P,K1,5,NC*%
%TO.N,GND*%
X34000000Y-7550000D03*
D18*
%TO.P,K1,6,CATHODE*%
X32350000Y-7050000D03*
D19*
X32600000Y-7550000D03*
%TD*%
D15*
%TO.P,TP2,1,1*%
%TO.N,Net-(U1-2A)*%
X24000000Y-7000000D03*
%TD*%
D21*
%TO.P,J1,1,Pin_1*%
%TO.N,Net-(J1-Pin_1)*%
X10650000Y-13000000D03*
%TO.P,J1,2,Pin_2*%
%TO.N,Net-(D1-K)*%
X10650000Y-11000000D03*
%TO.P,J1,3,Pin_3*%
%TO.N,+3.3V*%
X10650000Y-9000000D03*
%TO.P,J1,4,Pin_4*%
%TO.N,GND*%
X10650000Y-7000000D03*
D22*
%TO.P,J1,5,MP1*%
X3500000Y-4650000D03*
%TO.P,J1,6,MP2*%
X3500000Y-15350000D03*
%TD*%
D16*
%TO.P,R4,1*%
%TO.N,Net-(U1-2A)*%
X15000000Y-6825000D03*
%TO.P,R4,2*%
%TO.N,GND*%
X15000000Y-5175000D03*
%TD*%
D23*
%TO.N,+3.3V*%
X13500000Y-9500000D03*
X13500000Y-2500000D03*
X34000000Y-10000000D03*
X13500000Y-3500000D03*
X35000000Y-10000000D03*
X29000000Y-12500000D03*
X27000000Y-12500000D03*
X13500000Y-10500000D03*
%TO.N,GND*%
X28000000Y-7500000D03*
X38000000Y-13000000D03*
X22000000Y-14000000D03*
X9000000Y-4500000D03*
X21500000Y-9000000D03*
X15000000Y-8000000D03*
X17000000Y-8000000D03*
X23500000Y-9000000D03*
X3000000Y-7500000D03*
X29000000Y-14000000D03*
X3000000Y-9000000D03*
X11000000Y-14500000D03*
X30800000Y-9700000D03*
X38000000Y-7000000D03*
X8000000Y-10000000D03*
X26500000Y-7500000D03*
X7000000Y-16000000D03*
X4500000Y-7500000D03*
X21000000Y-14000000D03*
X4500000Y-12000000D03*
X38000000Y-10000000D03*
X4500000Y-10500000D03*
X12000000Y-14500000D03*
X4500000Y-9000000D03*
X3000000Y-10500000D03*
X17900000Y-3600000D03*
X27000000Y-14000000D03*
X11500000Y-4500000D03*
X3000000Y-12000000D03*
X20000000Y-8000000D03*
%TD*%
D24*
%TO.N,Net-(D1-A)*%
X16112500Y-18287500D02*
X16487500Y-17912500D01*
X16487500Y-17912500D02*
X17500000Y-17912500D01*
%TO.N,Net-(D1-K)*%
X10650000Y-11000000D02*
X7500000Y-11000000D01*
X10095400Y-16162500D02*
X7500000Y-13567100D01*
X14000000Y-16162500D02*
X10095400Y-16162500D01*
X7500000Y-13567100D02*
X7500000Y-11000000D01*
X14550000Y-16712500D02*
X14000000Y-16162500D01*
X15500000Y-16712500D02*
X14550000Y-16712500D01*
%TO.N,+3.3V*%
X17500000Y-16087500D02*
X16587500Y-16087500D01*
X8000000Y-12500000D02*
X8500000Y-12000000D01*
X16587500Y-16087500D02*
X16261500Y-15761500D01*
X13500000Y-11400000D02*
X13500000Y-10500000D01*
X16261500Y-15761500D02*
X10261500Y-15761500D01*
X10261500Y-15761500D02*
X8000000Y-13500000D01*
X8000000Y-13500000D02*
X8000000Y-12500000D01*
X12900000Y-12000000D02*
X13500000Y-11400000D01*
X8500000Y-12000000D02*
X12900000Y-12000000D01*
X15225000Y-2500000D02*
X13500000Y-2500000D01*
%TO.N,Net-(U1-1A)*%
X17000000Y-12675000D02*
X17825000Y-12675000D01*
X17825000Y-12675000D02*
X18500000Y-12000000D01*
X15000000Y-12675000D02*
X17000000Y-12675000D01*
%TO.N,Net-(D1-A)*%
X15500000Y-18287500D02*
X16112500Y-18287500D01*
%TO.N,+3.3V*%
X34000000Y-10000000D02*
X34000000Y-10500000D01*
X27000000Y-10912500D02*
X29000000Y-10912500D01*
X35400000Y-11000000D02*
X35400000Y-12450000D01*
X29000000Y-12500000D02*
X29000000Y-10912500D01*
X35400000Y-10400000D02*
X35400000Y-11000000D01*
X13500000Y-2500000D02*
X13500000Y-3500000D01*
X35000000Y-10000000D02*
X35400000Y-10400000D01*
X27000000Y-10912500D02*
X27000000Y-12500000D01*
X13000000Y-9000000D02*
X10650000Y-9000000D01*
X13500000Y-10500000D02*
X14000000Y-10000000D01*
X34900000Y-10500000D02*
X35400000Y-11000000D01*
X17261500Y-15761500D02*
X17500000Y-16000000D01*
X34000000Y-10500000D02*
X34900000Y-10500000D01*
X14000000Y-10000000D02*
X15050000Y-10000000D01*
X13500000Y-9500000D02*
X13000000Y-9000000D01*
X13500000Y-9500000D02*
X14000000Y-10000000D01*
%TO.N,GND*%
X16200000Y-10000000D02*
X16000000Y-9800000D01*
X16950000Y-10000000D02*
X16200000Y-10000000D01*
X15000000Y-5175000D02*
X17000000Y-5175000D01*
X34000000Y-5900000D02*
X34000000Y-7550000D01*
X16950000Y-10000000D02*
X20500000Y-10000000D01*
X20500000Y-10000000D02*
X21500000Y-9000000D01*
X16000000Y-9800000D02*
X16000000Y-9000000D01*
X32600000Y-7550000D02*
X34000000Y-7550000D01*
X16000000Y-9000000D02*
X17000000Y-8000000D01*
%TO.N,Net-(D1-K)*%
X15050000Y-9350000D02*
X13899000Y-8199000D01*
X7500000Y-11000000D02*
X7000000Y-11000000D01*
X13899000Y-8199000D02*
X8599000Y-8199000D01*
X7000000Y-9798000D02*
X7000000Y-11000000D01*
X8599000Y-8199000D02*
X7000000Y-9798000D01*
%TO.N,Net-(J1-Pin_1)*%
X14350000Y-10650000D02*
X14000000Y-11000000D01*
X15050000Y-10650000D02*
X14350000Y-10650000D01*
X13000000Y-13000000D02*
X10650000Y-13000000D01*
X14000000Y-12000000D02*
X13000000Y-13000000D01*
X14000000Y-11000000D02*
X14000000Y-12000000D01*
%TO.N,Net-(U1-2A)*%
X17825000Y-6825000D02*
X17000000Y-6825000D01*
X31449057Y-11199000D02*
X30250057Y-10000000D01*
X34000000Y-11850000D02*
X33349000Y-11199000D01*
X15000000Y-6825000D02*
X17000000Y-6825000D01*
X18500000Y-8500000D02*
X18500000Y-7500000D01*
X17650000Y-9350000D02*
X18500000Y-8500000D01*
X34000000Y-12450000D02*
X34000000Y-12952000D01*
X16950000Y-9350000D02*
X17650000Y-9350000D01*
X24000000Y-7000000D02*
X19000000Y-7000000D01*
X30250057Y-10000000D02*
X25585787Y-10000000D01*
X19000000Y-7000000D02*
X18500000Y-7500000D01*
X34000000Y-12450000D02*
X34000000Y-11850000D01*
X18500000Y-7500000D02*
X17825000Y-6825000D01*
X24000000Y-8414213D02*
X24000000Y-7000000D01*
X25585787Y-10000000D02*
X24000000Y-8414213D01*
X33349000Y-11199000D02*
X31449057Y-11199000D01*
%TO.N,Net-(K1-ANODE)*%
X34912500Y-9087500D02*
X35400000Y-8600000D01*
X29000000Y-9087500D02*
X34912500Y-9087500D01*
X35400000Y-8600000D02*
X35400000Y-7550000D01*
X27000000Y-9087500D02*
X29000000Y-9087500D01*
%TO.N,Net-(U1-1A)*%
X32350000Y-12950000D02*
X32199000Y-13101000D01*
X24000000Y-12000000D02*
X18500000Y-12000000D01*
X16950000Y-10650000D02*
X17650000Y-10650000D01*
X32199000Y-13101000D02*
X25101000Y-13101000D01*
X18500000Y-11500000D02*
X18500000Y-12000000D01*
X17650000Y-10650000D02*
X18500000Y-11500000D01*
X25101000Y-13101000D02*
X24000000Y-12000000D01*
%TD*%
%TA.AperFunction,Conductor*%
%TO.N,GND*%
G36*
X8730113Y-519685D02*
G01*
X8773559Y-567705D01*
X8844951Y-707820D01*
X8969890Y-879786D01*
X9120213Y-1030109D01*
X9292179Y-1155048D01*
X9292181Y-1155049D01*
X9292184Y-1155051D01*
X9481588Y-1251557D01*
X9683757Y-1317246D01*
X9893713Y-1350500D01*
X9893714Y-1350500D01*
X10106286Y-1350500D01*
X10106287Y-1350500D01*
X10316243Y-1317246D01*
X10518412Y-1251557D01*
X10707816Y-1155051D01*
X10734223Y-1135865D01*
X10879786Y-1030109D01*
X10879788Y-1030106D01*
X10879792Y-1030104D01*
X11030104Y-879792D01*
X11030106Y-879788D01*
X11030109Y-879786D01*
X11155048Y-707820D01*
X11155047Y-707820D01*
X11155051Y-707816D01*
X11226441Y-567704D01*
X11274416Y-516909D01*
X11336926Y-500000D01*
X12567119Y-500000D01*
X12567651Y-500001D01*
X12575763Y-500035D01*
X12578947Y-500550D01*
X12683300Y-500499D01*
X12749192Y-500499D01*
X18697468Y-500499D01*
X18711350Y-501278D01*
X18864132Y-518493D01*
X18891198Y-524670D01*
X19014185Y-567705D01*
X19033921Y-574611D01*
X19058938Y-586659D01*
X19186965Y-667103D01*
X19208672Y-684415D01*
X19315584Y-791327D01*
X19332897Y-813036D01*
X19413340Y-941061D01*
X19425388Y-966078D01*
X19475328Y-1108798D01*
X19481506Y-1135869D01*
X19498720Y-1288639D01*
X19499500Y-1302523D01*
X19499500Y-4274999D01*
X19499501Y-4275074D01*
X19499501Y-4302350D01*
X19499895Y-4304839D01*
X19499989Y-4311916D01*
X19499941Y-4312084D01*
X19500000Y-4313559D01*
X19500000Y-5500000D01*
X20686433Y-5500000D01*
X20696156Y-5500382D01*
X20697643Y-5500499D01*
X20697648Y-5500499D01*
X20734108Y-5500499D01*
X23129450Y-5500499D01*
X23196489Y-5520184D01*
X23242244Y-5572988D01*
X23252188Y-5642146D01*
X23223163Y-5705702D01*
X23202336Y-5724816D01*
X23022490Y-5855483D01*
X23022488Y-5855485D01*
X23022487Y-5855485D01*
X22855485Y-6022487D01*
X22855485Y-6022488D01*
X22855483Y-6022490D01*
X22830668Y-6056645D01*
X22716657Y-6213566D01*
X22711086Y-6224500D01*
X22671332Y-6302523D01*
X22656417Y-6331795D01*
X22608442Y-6382591D01*
X22545932Y-6399500D01*
X19086670Y-6399500D01*
X19086654Y-6399499D01*
X19079058Y-6399499D01*
X18920943Y-6399499D01*
X18844579Y-6419961D01*
X18768214Y-6440423D01*
X18768209Y-6440426D01*
X18631290Y-6519475D01*
X18631282Y-6519481D01*
X18587679Y-6563084D01*
X18579734Y-6567422D01*
X18574309Y-6574669D01*
X18549548Y-6583904D01*
X18526356Y-6596568D01*
X18517327Y-6595922D01*
X18508845Y-6599086D01*
X18483021Y-6593468D01*
X18456664Y-6591583D01*
X18447611Y-6585765D01*
X18440572Y-6584234D01*
X18412318Y-6563083D01*
X18312590Y-6463355D01*
X18312588Y-6463352D01*
X18193717Y-6344481D01*
X18193716Y-6344480D01*
X18106904Y-6294360D01*
X18106904Y-6294359D01*
X18106900Y-6294358D01*
X18056785Y-6265423D01*
X17904057Y-6224499D01*
X17904054Y-6224499D01*
X17900986Y-6224095D01*
X17898589Y-6223034D01*
X17896206Y-6222396D01*
X17896305Y-6222024D01*
X17880081Y-6214846D01*
X17857748Y-6209988D01*
X17841343Y-6197707D01*
X17837090Y-6195826D01*
X17829505Y-6188848D01*
X17727983Y-6087326D01*
X17694499Y-6026002D01*
X17699483Y-5956311D01*
X17727985Y-5911963D01*
X17830071Y-5809878D01*
X17830072Y-5809877D01*
X17918019Y-5664395D01*
X17968590Y-5502106D01*
X17975000Y-5431572D01*
X17975000Y-5425000D01*
X14025001Y-5425000D01*
X14025001Y-5431582D01*
X14031408Y-5502102D01*
X14031409Y-5502107D01*
X14081981Y-5664396D01*
X14169927Y-5809877D01*
X14272015Y-5911965D01*
X14305500Y-5973288D01*
X14300516Y-6042980D01*
X14272015Y-6087327D01*
X14169531Y-6189810D01*
X14169530Y-6189811D01*
X14081522Y-6335393D01*
X14030913Y-6497807D01*
X14028944Y-6519480D01*
X14024588Y-6567422D01*
X14024500Y-6568386D01*
X14024500Y-7081613D01*
X14030913Y-7152192D01*
X14030913Y-7152194D01*
X14030914Y-7152196D01*
X14081522Y-7314606D01*
X14140926Y-7412872D01*
X14146921Y-7422788D01*
X14164757Y-7490343D01*
X14143239Y-7556816D01*
X14089199Y-7601104D01*
X14034063Y-7610755D01*
X14021178Y-7610053D01*
X13978057Y-7598499D01*
X13819943Y-7598499D01*
X13819939Y-7598500D01*
X13024000Y-7598500D01*
X12956961Y-7578815D01*
X12911206Y-7526011D01*
X12900000Y-7474500D01*
X12900000Y-6452172D01*
X12899999Y-6452155D01*
X12893598Y-6392627D01*
X12893596Y-6392620D01*
X12843354Y-6257913D01*
X12843350Y-6257906D01*
X12757190Y-6142812D01*
X12757187Y-6142809D01*
X12642093Y-6056649D01*
X12642086Y-6056645D01*
X12507379Y-6006403D01*
X12507372Y-6006401D01*
X12447844Y-6000000D01*
X11910000Y-6000000D01*
X11901989Y-6019338D01*
X11902579Y-6020418D01*
X11897595Y-6090110D01*
X11869094Y-6134457D01*
X10914457Y-7089095D01*
X10853134Y-7122580D01*
X10783443Y-7117596D01*
X10739095Y-7089095D01*
X10650000Y-7000000D01*
X10560905Y-7089095D01*
X10499582Y-7122580D01*
X10429890Y-7117596D01*
X10385543Y-7089095D01*
X9430905Y-6134457D01*
X9426566Y-6126511D01*
X9419317Y-6121084D01*
X9410083Y-6096324D01*
X9397420Y-6073134D01*
X9398065Y-6064102D01*
X9394902Y-6055619D01*
X9400519Y-6029799D01*
X9400787Y-6026044D01*
X9390000Y-6000000D01*
X10003551Y-6000000D01*
X10650000Y-6646448D01*
X11296448Y-6000000D01*
X10003551Y-6000000D01*
X9390000Y-6000000D01*
X8852155Y-6000000D01*
X8792627Y-6006401D01*
X8792620Y-6006403D01*
X8657913Y-6056645D01*
X8657906Y-6056649D01*
X8542812Y-6142809D01*
X8542809Y-6142812D01*
X8456649Y-6257906D01*
X8456645Y-6257913D01*
X8406403Y-6392620D01*
X8406401Y-6392627D01*
X8400000Y-6452155D01*
X8400000Y-7548903D01*
X8380315Y-7615942D01*
X8338000Y-7656290D01*
X8230287Y-7718477D01*
X8230282Y-7718481D01*
X6519479Y-9429284D01*
X6495099Y-9471512D01*
X6484795Y-9489361D01*
X6440423Y-9566215D01*
X6399499Y-9718943D01*
X6399499Y-9718945D01*
X6399499Y-9887046D01*
X6399500Y-9887059D01*
X6399500Y-11079057D01*
X6438611Y-11225019D01*
X6440423Y-11231783D01*
X6440426Y-11231790D01*
X6519475Y-11368709D01*
X6519479Y-11368714D01*
X6519480Y-11368716D01*
X6631284Y-11480520D01*
X6631286Y-11480521D01*
X6631290Y-11480524D01*
X6764670Y-11557530D01*
X6768216Y-11559577D01*
X6807593Y-11570128D01*
X6867253Y-11606491D01*
X6897783Y-11669337D01*
X6899500Y-11689902D01*
X6899500Y-13480430D01*
X6899499Y-13480448D01*
X6899499Y-13646154D01*
X6899498Y-13646154D01*
X6911279Y-13690121D01*
X6939563Y-13795677D01*
X6940423Y-13798884D01*
X6940424Y-13798888D01*
X6966352Y-13843797D01*
X6966353Y-13843797D01*
X7019477Y-13935812D01*
X7019481Y-13935817D01*
X7138349Y-14054685D01*
X7138355Y-14054690D01*
X9610539Y-16526874D01*
X9610549Y-16526885D01*
X9614879Y-16531215D01*
X9614880Y-16531216D01*
X9726684Y-16643020D01*
X9804594Y-16688001D01*
X9863615Y-16722077D01*
X10016343Y-16763001D01*
X10016346Y-16763001D01*
X10182053Y-16763001D01*
X10182069Y-16763000D01*
X13699903Y-16763000D01*
X13766942Y-16782685D01*
X13787584Y-16799319D01*
X14065139Y-17076874D01*
X14065149Y-17076885D01*
X14069479Y-17081215D01*
X14069480Y-17081216D01*
X14181284Y-17193020D01*
X14181286Y-17193021D01*
X14181290Y-17193024D01*
X14257957Y-17237287D01*
X14318216Y-17272077D01*
X14430019Y-17302034D01*
X14470942Y-17313000D01*
X14470943Y-17313000D01*
X14570571Y-17313000D01*
X14576178Y-17313510D01*
X14603649Y-17324364D01*
X14631984Y-17332685D01*
X14636596Y-17337383D01*
X14641158Y-17339186D01*
X14648796Y-17349811D01*
X14670483Y-17371903D01*
X14675716Y-17380387D01*
X14675719Y-17380391D01*
X14707647Y-17412319D01*
X14741132Y-17473642D01*
X14736148Y-17543334D01*
X14707647Y-17587681D01*
X14675719Y-17619608D01*
X14675716Y-17619612D01*
X14587455Y-17762704D01*
X14587451Y-17762713D01*
X14534564Y-17922315D01*
X14534564Y-17922316D01*
X14534563Y-17922316D01*
X14524500Y-18020818D01*
X14524500Y-18554181D01*
X14534563Y-18652683D01*
X14587450Y-18812284D01*
X14587455Y-18812295D01*
X14675716Y-18955387D01*
X14675719Y-18955391D01*
X14794608Y-19074280D01*
X14794612Y-19074283D01*
X14937704Y-19162544D01*
X14937707Y-19162545D01*
X14937713Y-19162549D01*
X15097315Y-19215436D01*
X15195826Y-19225500D01*
X15195831Y-19225500D01*
X15804169Y-19225500D01*
X15804174Y-19225500D01*
X15902685Y-19215436D01*
X16062287Y-19162549D01*
X16205391Y-19074281D01*
X16324281Y-18955391D01*
X16400548Y-18831742D01*
X16411044Y-18821547D01*
X16416343Y-18811271D01*
X16444079Y-18789460D01*
X16469098Y-18775015D01*
X16536994Y-18758547D01*
X16596185Y-18776866D01*
X16730666Y-18859814D01*
X16897203Y-18914999D01*
X16999991Y-18925500D01*
X18000008Y-18925499D01*
X18000016Y-18925498D01*
X18000019Y-18925498D01*
X18056302Y-18919748D01*
X18102797Y-18914999D01*
X18269334Y-18859814D01*
X18418656Y-18767712D01*
X18542712Y-18643656D01*
X18634814Y-18494334D01*
X18689999Y-18327797D01*
X18700500Y-18225009D01*
X18700499Y-17599992D01*
X18699241Y-17587681D01*
X18689999Y-17497203D01*
X18689998Y-17497200D01*
X18651291Y-17380391D01*
X18634814Y-17330666D01*
X18542712Y-17181344D01*
X18449049Y-17087681D01*
X18415564Y-17026358D01*
X18420548Y-16956666D01*
X18449049Y-16912319D01*
X18542712Y-16818656D01*
X18634814Y-16669334D01*
X18689999Y-16502797D01*
X18700500Y-16400009D01*
X18700499Y-15774992D01*
X18689999Y-15672203D01*
X18634814Y-15505666D01*
X18542712Y-15356344D01*
X18418656Y-15232288D01*
X18303079Y-15161000D01*
X18269336Y-15140187D01*
X18269331Y-15140185D01*
X18222543Y-15124681D01*
X18102797Y-15085001D01*
X18102795Y-15085000D01*
X18000016Y-15074500D01*
X17980638Y-15074500D01*
X17913599Y-15054815D01*
X17867844Y-15002011D01*
X17857900Y-14932853D01*
X17874522Y-14886349D01*
X17918018Y-14814398D01*
X17918019Y-14814396D01*
X17968590Y-14652106D01*
X17975000Y-14581572D01*
X17975000Y-14575000D01*
X14025001Y-14575000D01*
X14025001Y-14581582D01*
X14031408Y-14652102D01*
X14031409Y-14652107D01*
X14081981Y-14814396D01*
X14169928Y-14959879D01*
X14170437Y-14960528D01*
X14170661Y-14961090D01*
X14173806Y-14966293D01*
X14172940Y-14966815D01*
X14196286Y-15025440D01*
X14182937Y-15094023D01*
X14134628Y-15144501D01*
X14072826Y-15161000D01*
X10561597Y-15161000D01*
X10494558Y-15141315D01*
X10473916Y-15124681D01*
X9561415Y-14212180D01*
X9527930Y-14150857D01*
X9532914Y-14081165D01*
X9574786Y-14025232D01*
X9640250Y-14000815D01*
X9649096Y-14000499D01*
X12447871Y-14000499D01*
X12447872Y-14000499D01*
X12507483Y-13994091D01*
X12642331Y-13943796D01*
X12757546Y-13857546D01*
X12843796Y-13742331D01*
X12845479Y-13737820D01*
X12866608Y-13681169D01*
X12908478Y-13625235D01*
X12973942Y-13600817D01*
X12982790Y-13600501D01*
X13079054Y-13600501D01*
X13079057Y-13600501D01*
X13231785Y-13559577D01*
X13314923Y-13511577D01*
X13368716Y-13480520D01*
X13480520Y-13368716D01*
X13480520Y-13368714D01*
X13490724Y-13358511D01*
X13490727Y-13358506D01*
X13842187Y-13007047D01*
X13903509Y-12973563D01*
X13973201Y-12978547D01*
X14029134Y-13020419D01*
X14048252Y-13057837D01*
X14081522Y-13164606D01*
X14153301Y-13283343D01*
X14169530Y-13310188D01*
X14272015Y-13412673D01*
X14305500Y-13473996D01*
X14300516Y-13543688D01*
X14272015Y-13588035D01*
X14169928Y-13690121D01*
X14169927Y-13690122D01*
X14081980Y-13835604D01*
X14031409Y-13997893D01*
X14025000Y-14068427D01*
X14025000Y-14075000D01*
X17974999Y-14075000D01*
X17974999Y-14068417D01*
X17968591Y-13997897D01*
X17968590Y-13997892D01*
X17918018Y-13835603D01*
X17830072Y-13690122D01*
X17727984Y-13588034D01*
X17723645Y-13580088D01*
X17716398Y-13574663D01*
X17707163Y-13549903D01*
X17694499Y-13526711D01*
X17695144Y-13517681D01*
X17691981Y-13509199D01*
X17697597Y-13483378D01*
X17699483Y-13457019D01*
X17705301Y-13447965D01*
X17706833Y-13440926D01*
X17727981Y-13412675D01*
X17829496Y-13311160D01*
X17890817Y-13277677D01*
X17900997Y-13275903D01*
X17904048Y-13275501D01*
X17904057Y-13275501D01*
X18056785Y-13234577D01*
X18106904Y-13205639D01*
X18193716Y-13155520D01*
X18305520Y-13043716D01*
X18305520Y-13043714D01*
X18315728Y-13033507D01*
X18315729Y-13033504D01*
X18712416Y-12636819D01*
X18773739Y-12603334D01*
X18800097Y-12600500D01*
X22545932Y-12600500D01*
X22612971Y-12620185D01*
X22656416Y-12668203D01*
X22716657Y-12786433D01*
X22855483Y-12977510D01*
X23022490Y-13144517D01*
X23213567Y-13283343D01*
X23303529Y-13329181D01*
X23424003Y-13390566D01*
X23424005Y-13390566D01*
X23424008Y-13390568D01*
X23521093Y-13422113D01*
X23648631Y-13463553D01*
X23881903Y-13500500D01*
X23881908Y-13500500D01*
X24118097Y-13500500D01*
X24226203Y-13483377D01*
X24351368Y-13463553D01*
X24477566Y-13422547D01*
X24492776Y-13422113D01*
X24507036Y-13416795D01*
X24526991Y-13421136D01*
X24547404Y-13420553D01*
X24561490Y-13428640D01*
X24575309Y-13431647D01*
X24603563Y-13452798D01*
X24616139Y-13465374D01*
X24616149Y-13465385D01*
X24620479Y-13469715D01*
X24620480Y-13469716D01*
X24732284Y-13581520D01*
X24732286Y-13581521D01*
X24777254Y-13607483D01*
X24777253Y-13607483D01*
X24777256Y-13607484D01*
X24869209Y-13660574D01*
X24869210Y-13660574D01*
X24869215Y-13660577D01*
X25021943Y-13701500D01*
X25180057Y-13701500D01*
X31371405Y-13701500D01*
X31438444Y-13721185D01*
X31459087Y-13737820D01*
X31492396Y-13771130D01*
X31492400Y-13771133D01*
X31492402Y-13771135D01*
X31630607Y-13852869D01*
X31646709Y-13857547D01*
X31784791Y-13897664D01*
X31784794Y-13897664D01*
X31784796Y-13897665D01*
X31820819Y-13900500D01*
X32202123Y-13900499D01*
X32202127Y-13900500D01*
X32997872Y-13900499D01*
X33057483Y-13894091D01*
X33192329Y-13843797D01*
X33192329Y-13843796D01*
X33192331Y-13843796D01*
X33225689Y-13818823D01*
X33291151Y-13794406D01*
X33359425Y-13809257D01*
X33374305Y-13818820D01*
X33407669Y-13843796D01*
X33407670Y-13843796D01*
X33407670Y-13843797D01*
X33542517Y-13894091D01*
X33542516Y-13894091D01*
X33549444Y-13894835D01*
X33602127Y-13900500D01*
X34397872Y-13900499D01*
X34457483Y-13894091D01*
X34592329Y-13843797D01*
X34592329Y-13843796D01*
X34592331Y-13843796D01*
X34625689Y-13818823D01*
X34691151Y-13794406D01*
X34759425Y-13809257D01*
X34774305Y-13818820D01*
X34807669Y-13843796D01*
X34807670Y-13843796D01*
X34807670Y-13843797D01*
X34942516Y-13894091D01*
X34968419Y-13896875D01*
X35002127Y-13900500D01*
X35120817Y-13900499D01*
X35120819Y-13900500D01*
X36179180Y-13900499D01*
X36215204Y-13897665D01*
X36369393Y-13852869D01*
X36507598Y-13771135D01*
X36621135Y-13657598D01*
X36702869Y-13519393D01*
X36747665Y-13365204D01*
X36750500Y-13329181D01*
X36750499Y-12570820D01*
X36747665Y-12534796D01*
X36702869Y-12380607D01*
X36621135Y-12242402D01*
X36621133Y-12242400D01*
X36621130Y-12242396D01*
X36507603Y-12128869D01*
X36507595Y-12128863D01*
X36431218Y-12083694D01*
X36369393Y-12047131D01*
X36369392Y-12047130D01*
X36369391Y-12047130D01*
X36369388Y-12047129D01*
X36339904Y-12038563D01*
X36281018Y-12000957D01*
X36251812Y-11937484D01*
X36250499Y-11919487D01*
X36250499Y-11452129D01*
X36250498Y-11452123D01*
X36248873Y-11437009D01*
X36244091Y-11392517D01*
X36239353Y-11379815D01*
X36193797Y-11257671D01*
X36193793Y-11257664D01*
X36107547Y-11142455D01*
X36050189Y-11099516D01*
X36047453Y-11095861D01*
X36043299Y-11093964D01*
X36026705Y-11068144D01*
X36008319Y-11043582D01*
X36007303Y-11037955D01*
X36005524Y-11035186D01*
X36000501Y-11000250D01*
X36000501Y-10964028D01*
X36000501Y-10920943D01*
X36000500Y-10920939D01*
X36000500Y-10320943D01*
X35999240Y-10316243D01*
X35997636Y-10310256D01*
X35983303Y-10256762D01*
X35959577Y-10168216D01*
X35944704Y-10142455D01*
X35880524Y-10031290D01*
X35880518Y-10031282D01*
X35834573Y-9985337D01*
X35801088Y-9924014D01*
X35800637Y-9921847D01*
X35791728Y-9877057D01*
X35769737Y-9766503D01*
X35760155Y-9743370D01*
X35709397Y-9620827D01*
X35709390Y-9620814D01*
X35621789Y-9489711D01*
X35621786Y-9489707D01*
X35578337Y-9446258D01*
X35544852Y-9384935D01*
X35549836Y-9315243D01*
X35578335Y-9270898D01*
X35768713Y-9080521D01*
X35768716Y-9080520D01*
X35834681Y-9014553D01*
X35834688Y-9014549D01*
X35879025Y-8986056D01*
X35992331Y-8943796D01*
X36107546Y-8857546D01*
X36193796Y-8742331D01*
X36244091Y-8607483D01*
X36250500Y-8547873D01*
X36250499Y-8080511D01*
X36270183Y-8013473D01*
X36322987Y-7967718D01*
X36339899Y-7961437D01*
X36369393Y-7952869D01*
X36507598Y-7871135D01*
X36621135Y-7757598D01*
X36702869Y-7619393D01*
X36735851Y-7505865D01*
X36747664Y-7465208D01*
X36747665Y-7465202D01*
X36748060Y-7460185D01*
X36750500Y-7429181D01*
X36750499Y-6670820D01*
X36747665Y-6634796D01*
X36702869Y-6480607D01*
X36621135Y-6342402D01*
X36621133Y-6342400D01*
X36621130Y-6342396D01*
X36507603Y-6228869D01*
X36507595Y-6228863D01*
X36369393Y-6147131D01*
X36369388Y-6147129D01*
X36215208Y-6102335D01*
X36215202Y-6102334D01*
X36179188Y-6099500D01*
X36179181Y-6099500D01*
X35797876Y-6099500D01*
X35797873Y-6099500D01*
X35002129Y-6099500D01*
X35002123Y-6099501D01*
X34942515Y-6105909D01*
X34817617Y-6152492D01*
X34747926Y-6157476D01*
X34730952Y-6152492D01*
X34607380Y-6106403D01*
X34607372Y-6106401D01*
X34547844Y-6100000D01*
X33560000Y-6100000D01*
X33551989Y-6119338D01*
X33552579Y-6120418D01*
X33547595Y-6190110D01*
X33519094Y-6234457D01*
X32526776Y-7226776D01*
X31750000Y-8003551D01*
X31750000Y-8363000D01*
X31730315Y-8430039D01*
X31677511Y-8475794D01*
X31626000Y-8487000D01*
X30192508Y-8487000D01*
X30125469Y-8467315D01*
X30086969Y-8428097D01*
X30082556Y-8420942D01*
X30042712Y-8356344D01*
X29918656Y-8232288D01*
X29776351Y-8144514D01*
X29769336Y-8140187D01*
X29769331Y-8140185D01*
X29767862Y-8139698D01*
X29602797Y-8085001D01*
X29602795Y-8085000D01*
X29500010Y-8074500D01*
X28499998Y-8074500D01*
X28499980Y-8074501D01*
X28397203Y-8085000D01*
X28397200Y-8085001D01*
X28230668Y-8140185D01*
X28230663Y-8140187D01*
X28081342Y-8232289D01*
X28076909Y-8235795D01*
X28012113Y-8261934D01*
X27943471Y-8248892D01*
X27923091Y-8235795D01*
X27918657Y-8232289D01*
X27918656Y-8232288D01*
X27776351Y-8144514D01*
X27769336Y-8140187D01*
X27769331Y-8140185D01*
X27767862Y-8139698D01*
X27602797Y-8085001D01*
X27602795Y-8085000D01*
X27500010Y-8074500D01*
X26499998Y-8074500D01*
X26499980Y-8074501D01*
X26397203Y-8085000D01*
X26397200Y-8085001D01*
X26230668Y-8140185D01*
X26230663Y-8140187D01*
X26081342Y-8232289D01*
X25957289Y-8356342D01*
X25865187Y-8505663D01*
X25865186Y-8505666D01*
X25810001Y-8672203D01*
X25810001Y-8672204D01*
X25810000Y-8672204D01*
X25799500Y-8774983D01*
X25799500Y-9065116D01*
X25779815Y-9132155D01*
X25727011Y-9177910D01*
X25657853Y-9187854D01*
X25594297Y-9158829D01*
X25587819Y-9152797D01*
X24849669Y-8414647D01*
X24816184Y-8353324D01*
X24821168Y-8283632D01*
X24863040Y-8227699D01*
X24864272Y-8226789D01*
X24977510Y-8144517D01*
X25144517Y-7977510D01*
X25283343Y-7786433D01*
X25390568Y-7575992D01*
X25463553Y-7351368D01*
X25500500Y-7118097D01*
X25500500Y-6881902D01*
X25469762Y-6687835D01*
X25469762Y-6687834D01*
X25467074Y-6670864D01*
X31250000Y-6670864D01*
X31250000Y-7429135D01*
X31252832Y-7465123D01*
X31252833Y-7465129D01*
X31297593Y-7619191D01*
X31297595Y-7619196D01*
X31345777Y-7700668D01*
X31345778Y-7700669D01*
X31996448Y-7050000D01*
X31345778Y-6399330D01*
X31297594Y-6480805D01*
X31297592Y-6480811D01*
X31252833Y-6634870D01*
X31252832Y-6634876D01*
X31250000Y-6670864D01*
X25467074Y-6670864D01*
X25463553Y-6648631D01*
X25409024Y-6480811D01*
X25390568Y-6424008D01*
X25390566Y-6424005D01*
X25390566Y-6424003D01*
X25324509Y-6294360D01*
X25283343Y-6213567D01*
X25207549Y-6109246D01*
X31762798Y-6109246D01*
X31762798Y-6109247D01*
X32349999Y-6696448D01*
X32946448Y-6100000D01*
X31820866Y-6100000D01*
X31784877Y-6102832D01*
X31784875Y-6102833D01*
X31762798Y-6109246D01*
X25207549Y-6109246D01*
X25144517Y-6022490D01*
X24977510Y-5855483D01*
X24797663Y-5724816D01*
X24754999Y-5669487D01*
X24749020Y-5599873D01*
X24781626Y-5538078D01*
X24842465Y-5503721D01*
X24870550Y-5500499D01*
X38697468Y-5500499D01*
X38711350Y-5501278D01*
X38864132Y-5518493D01*
X38891198Y-5524670D01*
X39029283Y-5572988D01*
X39033921Y-5574611D01*
X39058938Y-5586659D01*
X39186965Y-5667103D01*
X39208672Y-5684415D01*
X39315584Y-5791327D01*
X39332897Y-5813036D01*
X39413340Y-5941061D01*
X39425388Y-5966078D01*
X39475328Y-6108798D01*
X39481506Y-6135869D01*
X39498720Y-6288639D01*
X39499500Y-6302523D01*
X39499500Y-7309892D01*
X39498802Y-7412872D01*
X39499960Y-7420321D01*
X39499999Y-7429645D01*
X39499968Y-7429750D01*
X39500000Y-7430159D01*
X39500000Y-8663074D01*
X39480315Y-8730113D01*
X39432295Y-8773559D01*
X39292179Y-8844951D01*
X39120213Y-8969890D01*
X38969890Y-9120213D01*
X38844951Y-9292179D01*
X38748444Y-9481585D01*
X38682753Y-9683760D01*
X38664343Y-9800000D01*
X38649500Y-9893713D01*
X38649500Y-10106287D01*
X38656659Y-10151487D01*
X38681805Y-10310256D01*
X38682754Y-10316243D01*
X38745917Y-10510639D01*
X38748444Y-10518414D01*
X38844951Y-10707820D01*
X38969890Y-10879786D01*
X39120213Y-11030109D01*
X39292182Y-11155050D01*
X39292184Y-11155051D01*
X39432295Y-11226441D01*
X39483090Y-11274414D01*
X39500000Y-11336925D01*
X39500000Y-12567109D01*
X39499999Y-12567642D01*
X39499964Y-12575756D01*
X39499449Y-12578946D01*
X39499500Y-12683298D01*
X39499500Y-12683659D01*
X39499500Y-13697475D01*
X39498720Y-13711359D01*
X39481506Y-13864130D01*
X39475328Y-13891201D01*
X39425388Y-14033921D01*
X39413340Y-14058938D01*
X39332897Y-14186963D01*
X39315584Y-14208672D01*
X39208672Y-14315584D01*
X39186963Y-14332897D01*
X39058938Y-14413340D01*
X39033921Y-14425388D01*
X38891201Y-14475328D01*
X38864130Y-14481506D01*
X38711369Y-14498719D01*
X38697485Y-14499499D01*
X20727322Y-14499499D01*
X20727242Y-14499500D01*
X20697649Y-14499500D01*
X20695118Y-14499900D01*
X20687967Y-14499990D01*
X20687808Y-14499945D01*
X20686420Y-14500000D01*
X19500000Y-14500000D01*
X19500000Y-15686430D01*
X19499618Y-15696155D01*
X19499500Y-15697643D01*
X19499500Y-18697475D01*
X19498720Y-18711358D01*
X19498720Y-18711359D01*
X19481506Y-18864130D01*
X19475328Y-18891201D01*
X19425388Y-19033921D01*
X19413340Y-19058938D01*
X19332897Y-19186963D01*
X19315584Y-19208672D01*
X19208672Y-19315584D01*
X19186963Y-19332897D01*
X19058938Y-19413340D01*
X19033921Y-19425388D01*
X18891201Y-19475328D01*
X18864130Y-19481506D01*
X18711369Y-19498719D01*
X18697485Y-19499499D01*
X12690105Y-19499499D01*
X12587126Y-19498801D01*
X12579670Y-19499960D01*
X12570346Y-19499999D01*
X12570240Y-19499968D01*
X12569831Y-19500000D01*
X11336926Y-19500000D01*
X11269887Y-19480315D01*
X11226441Y-19432295D01*
X11175795Y-19332897D01*
X11155051Y-19292184D01*
X11155049Y-19292181D01*
X11155048Y-19292179D01*
X11030109Y-19120213D01*
X10879786Y-18969890D01*
X10707820Y-18844951D01*
X10518414Y-18748444D01*
X10518413Y-18748443D01*
X10518412Y-18748443D01*
X10316243Y-18682754D01*
X10316241Y-18682753D01*
X10316240Y-18682753D01*
X10126396Y-18652685D01*
X10106287Y-18649500D01*
X9893713Y-18649500D01*
X9873604Y-18652685D01*
X9683760Y-18682753D01*
X9481585Y-18748444D01*
X9292179Y-18844951D01*
X9120213Y-18969890D01*
X8969890Y-19120213D01*
X8844951Y-19292179D01*
X8773559Y-19432295D01*
X8725584Y-19483091D01*
X8663074Y-19500000D01*
X7432903Y-19500000D01*
X7432369Y-19499999D01*
X7424247Y-19499964D01*
X7421053Y-19499448D01*
X7316700Y-19499499D01*
X1302515Y-19499499D01*
X1288631Y-19498719D01*
X1135869Y-19481506D01*
X1108798Y-19475328D01*
X966078Y-19425388D01*
X941061Y-19413340D01*
X813036Y-19332897D01*
X791327Y-19315584D01*
X684415Y-19208672D01*
X667102Y-19186963D01*
X625160Y-19120213D01*
X586659Y-19058938D01*
X574611Y-19033921D01*
X552206Y-18969890D01*
X524670Y-18891198D01*
X518493Y-18864129D01*
X501280Y-18711358D01*
X500500Y-18697475D01*
X500500Y-14552155D01*
X1100000Y-14552155D01*
X1100000Y-16147844D01*
X1106401Y-16207372D01*
X1106403Y-16207379D01*
X1156645Y-16342086D01*
X1156649Y-16342093D01*
X1242809Y-16457187D01*
X1242812Y-16457190D01*
X1357906Y-16543350D01*
X1357913Y-16543354D01*
X1492620Y-16593596D01*
X1492627Y-16593598D01*
X1552155Y-16599999D01*
X1552172Y-16600000D01*
X1990000Y-16600000D01*
X1990000Y-16599999D01*
X2603551Y-16599999D01*
X2603552Y-16600000D01*
X4396448Y-16600000D01*
X4396448Y-16599999D01*
X3500000Y-15703552D01*
X2603551Y-16599999D01*
X1990000Y-16599999D01*
X1998010Y-16580661D01*
X1997420Y-16579581D01*
X2002404Y-16509889D01*
X2030905Y-16465542D01*
X3146447Y-15349999D01*
X3853552Y-15349999D01*
X3853552Y-15350000D01*
X4969094Y-16465542D01*
X5002579Y-16526865D01*
X4999211Y-16573953D01*
X5010000Y-16600000D01*
X5447828Y-16600000D01*
X5447844Y-16599999D01*
X5507372Y-16593598D01*
X5507379Y-16593596D01*
X5642086Y-16543354D01*
X5642093Y-16543350D01*
X5757187Y-16457190D01*
X5757190Y-16457187D01*
X5843350Y-16342093D01*
X5843354Y-16342086D01*
X5893596Y-16207379D01*
X5893598Y-16207372D01*
X5899999Y-16147844D01*
X5900000Y-16147827D01*
X5900000Y-14552172D01*
X5899999Y-14552155D01*
X5893598Y-14492627D01*
X5893596Y-14492620D01*
X5843354Y-14357913D01*
X5843350Y-14357906D01*
X5757190Y-14242812D01*
X5757187Y-14242809D01*
X5642093Y-14156649D01*
X5642086Y-14156645D01*
X5507379Y-14106403D01*
X5507372Y-14106401D01*
X5447844Y-14100000D01*
X5010000Y-14100000D01*
X5001989Y-14119338D01*
X5002579Y-14120418D01*
X4997595Y-14190110D01*
X4969094Y-14234457D01*
X3853552Y-15349999D01*
X3146447Y-15349999D01*
X2030905Y-14234457D01*
X2026566Y-14226511D01*
X2019317Y-14221084D01*
X2010083Y-14196324D01*
X1997420Y-14173134D01*
X1998065Y-14164102D01*
X1994902Y-14155619D01*
X2000519Y-14129799D01*
X2000787Y-14126044D01*
X1990000Y-14100000D01*
X2603551Y-14100000D01*
X3500000Y-14996448D01*
X4396448Y-14100000D01*
X2603551Y-14100000D01*
X1990000Y-14100000D01*
X1552155Y-14100000D01*
X1492627Y-14106401D01*
X1492620Y-14106403D01*
X1357913Y-14156645D01*
X1357906Y-14156649D01*
X1242812Y-14242809D01*
X1242809Y-14242812D01*
X1156649Y-14357906D01*
X1156645Y-14357913D01*
X1106403Y-14492620D01*
X1106401Y-14492627D01*
X1100000Y-14552155D01*
X500500Y-14552155D01*
X500500Y-3852155D01*
X1100000Y-3852155D01*
X1100000Y-5447844D01*
X1106401Y-5507372D01*
X1106403Y-5507379D01*
X1156645Y-5642086D01*
X1156649Y-5642093D01*
X1242809Y-5757187D01*
X1242812Y-5757190D01*
X1357906Y-5843350D01*
X1357913Y-5843354D01*
X1492620Y-5893596D01*
X1492627Y-5893598D01*
X1552155Y-5899999D01*
X1552172Y-5900000D01*
X1990000Y-5900000D01*
X1990000Y-5899999D01*
X2603551Y-5899999D01*
X2603552Y-5900000D01*
X4396448Y-5900000D01*
X4396448Y-5899999D01*
X3500000Y-5003552D01*
X2603551Y-5899999D01*
X1990000Y-5899999D01*
X1998010Y-5880661D01*
X1997420Y-5879581D01*
X2002404Y-5809889D01*
X2030905Y-5765542D01*
X3146447Y-4649999D01*
X3853552Y-4649999D01*
X3853552Y-4650000D01*
X4969094Y-5765542D01*
X5002579Y-5826865D01*
X4999211Y-5873953D01*
X5010000Y-5900000D01*
X5447828Y-5900000D01*
X5447844Y-5899999D01*
X5507372Y-5893598D01*
X5507379Y-5893596D01*
X5642086Y-5843354D01*
X5642093Y-5843350D01*
X5757187Y-5757190D01*
X5757190Y-5757187D01*
X5843350Y-5642093D01*
X5843354Y-5642086D01*
X5893596Y-5507379D01*
X5893598Y-5507372D01*
X5899999Y-5447844D01*
X5900000Y-5447827D01*
X5900000Y-4918427D01*
X14025000Y-4918427D01*
X14025000Y-4925000D01*
X14750000Y-4925000D01*
X14750000Y-4275000D01*
X15250000Y-4275000D01*
X15250000Y-4925000D01*
X16750000Y-4925000D01*
X17250000Y-4925000D01*
X17974999Y-4925000D01*
X17974999Y-4918417D01*
X17968591Y-4847897D01*
X17968590Y-4847892D01*
X17918018Y-4685603D01*
X17830072Y-4540122D01*
X17709877Y-4419927D01*
X17564395Y-4331980D01*
X17564396Y-4331980D01*
X17402105Y-4281409D01*
X17402106Y-4281409D01*
X17331572Y-4275000D01*
X17250000Y-4275000D01*
X17250000Y-4925000D01*
X16750000Y-4925000D01*
X16750000Y-4275000D01*
X16749999Y-4274999D01*
X16668417Y-4275000D01*
X16597897Y-4281408D01*
X16597892Y-4281409D01*
X16435603Y-4331981D01*
X16290122Y-4419927D01*
X16169927Y-4540122D01*
X16106117Y-4645677D01*
X16054589Y-4692865D01*
X15985729Y-4704703D01*
X15921401Y-4677434D01*
X15893883Y-4645677D01*
X15830072Y-4540122D01*
X15709877Y-4419927D01*
X15564395Y-4331980D01*
X15564396Y-4331980D01*
X15402105Y-4281409D01*
X15402106Y-4281409D01*
X15331572Y-4275000D01*
X15250000Y-4275000D01*
X14750000Y-4275000D01*
X14749999Y-4274999D01*
X14668417Y-4275000D01*
X14597897Y-4281408D01*
X14597892Y-4281409D01*
X14435603Y-4331981D01*
X14290122Y-4419927D01*
X14169927Y-4540122D01*
X14081980Y-4685604D01*
X14031409Y-4847893D01*
X14025000Y-4918427D01*
X5900000Y-4918427D01*
X5900000Y-3852172D01*
X5899999Y-3852155D01*
X5893598Y-3792627D01*
X5893596Y-3792620D01*
X5843354Y-3657913D01*
X5843350Y-3657906D01*
X5757190Y-3542812D01*
X5757187Y-3542809D01*
X5642093Y-3456649D01*
X5642086Y-3456645D01*
X5507379Y-3406403D01*
X5507372Y-3406401D01*
X5447844Y-3400000D01*
X5010000Y-3400000D01*
X5001989Y-3419338D01*
X5002579Y-3420418D01*
X4997595Y-3490110D01*
X4969094Y-3534457D01*
X3853552Y-4649999D01*
X3146447Y-4649999D01*
X2030905Y-3534457D01*
X2026566Y-3526511D01*
X2019317Y-3521084D01*
X2010083Y-3496324D01*
X1997420Y-3473134D01*
X1998065Y-3464102D01*
X1994902Y-3455619D01*
X2000519Y-3429799D01*
X2000787Y-3426044D01*
X1990000Y-3400000D01*
X2603551Y-3400000D01*
X3500000Y-4296448D01*
X4396448Y-3400000D01*
X2603551Y-3400000D01*
X1990000Y-3400000D01*
X1552155Y-3400000D01*
X1492627Y-3406401D01*
X1492620Y-3406403D01*
X1357913Y-3456645D01*
X1357906Y-3456649D01*
X1242812Y-3542809D01*
X1242809Y-3542812D01*
X1156649Y-3657906D01*
X1156645Y-3657913D01*
X1106403Y-3792620D01*
X1106401Y-3792627D01*
X1100000Y-3852155D01*
X500500Y-3852155D01*
X500500Y-2421153D01*
X12699500Y-2421153D01*
X12699500Y-2578846D01*
X12730261Y-2733489D01*
X12730264Y-2733501D01*
X12790602Y-2879172D01*
X12790609Y-2879185D01*
X12825304Y-2931109D01*
X12846182Y-2997786D01*
X12827698Y-3065167D01*
X12825304Y-3068891D01*
X12790609Y-3120814D01*
X12790602Y-3120827D01*
X12730264Y-3266498D01*
X12730261Y-3266510D01*
X12699500Y-3421153D01*
X12699500Y-3578846D01*
X12730261Y-3733489D01*
X12730264Y-3733501D01*
X12790602Y-3879172D01*
X12790609Y-3879185D01*
X12878210Y-4010288D01*
X12878213Y-4010292D01*
X12989707Y-4121786D01*
X12989711Y-4121789D01*
X13120814Y-4209390D01*
X13120827Y-4209397D01*
X13257218Y-4265891D01*
X13266503Y-4269737D01*
X13421153Y-4300499D01*
X13421156Y-4300500D01*
X13421158Y-4300500D01*
X13578844Y-4300500D01*
X13578845Y-4300499D01*
X13733497Y-4269737D01*
X13879179Y-4209394D01*
X14010289Y-4121789D01*
X14121789Y-4010289D01*
X14209394Y-3879179D01*
X14269737Y-3733497D01*
X14300500Y-3578842D01*
X14300500Y-3421158D01*
X14294671Y-3391854D01*
X14300897Y-3322263D01*
X14343760Y-3267085D01*
X14409649Y-3243840D01*
X14477646Y-3259907D01*
X14503969Y-3279981D01*
X14546955Y-3322967D01*
X14546959Y-3322970D01*
X14691294Y-3411998D01*
X14691297Y-3411999D01*
X14691303Y-3412003D01*
X14852292Y-3465349D01*
X14951655Y-3475500D01*
X15498344Y-3475499D01*
X15498352Y-3475498D01*
X15498355Y-3475498D01*
X15552760Y-3469940D01*
X15597708Y-3465349D01*
X15758697Y-3412003D01*
X15903044Y-3322968D01*
X15912668Y-3313343D01*
X15973987Y-3279856D01*
X16043679Y-3284835D01*
X16088034Y-3313339D01*
X16097267Y-3322572D01*
X16097271Y-3322575D01*
X16241507Y-3411542D01*
X16241518Y-3411547D01*
X16402393Y-3464855D01*
X16501683Y-3474999D01*
X17025000Y-3474999D01*
X17048308Y-3474999D01*
X17048322Y-3474998D01*
X17147607Y-3464855D01*
X17308481Y-3411547D01*
X17308492Y-3411542D01*
X17452728Y-3322575D01*
X17452732Y-3322572D01*
X17572572Y-3202732D01*
X17572575Y-3202728D01*
X17661542Y-3058492D01*
X17661547Y-3058481D01*
X17714855Y-2897606D01*
X17724999Y-2798322D01*
X17725000Y-2798309D01*
X17725000Y-2750000D01*
X17025000Y-2750000D01*
X17025000Y-3474999D01*
X16501683Y-3474999D01*
X16525000Y-3474998D01*
X16525000Y-2250000D01*
X17025000Y-2250000D01*
X17724999Y-2250000D01*
X17724999Y-2201692D01*
X17724998Y-2201677D01*
X17714855Y-2102392D01*
X17661547Y-1941518D01*
X17661542Y-1941507D01*
X17572575Y-1797271D01*
X17572572Y-1797267D01*
X17452732Y-1677427D01*
X17452728Y-1677424D01*
X17308492Y-1588457D01*
X17308481Y-1588452D01*
X17147606Y-1535144D01*
X17048322Y-1525000D01*
X17025000Y-1525000D01*
X17025000Y-2250000D01*
X16525000Y-2250000D01*
X16525000Y-1524999D01*
X16501693Y-1525000D01*
X16501674Y-1525001D01*
X16402392Y-1535144D01*
X16241518Y-1588452D01*
X16241507Y-1588457D01*
X16097271Y-1677424D01*
X16097265Y-1677428D01*
X16088031Y-1686663D01*
X16026707Y-1720146D01*
X15957015Y-1715159D01*
X15912672Y-1686660D01*
X15903044Y-1677032D01*
X15903040Y-1677029D01*
X15758705Y-1588001D01*
X15758699Y-1587998D01*
X15758697Y-1587997D01*
X15758694Y-1587996D01*
X15597709Y-1534651D01*
X15498346Y-1524500D01*
X14951662Y-1524500D01*
X14951644Y-1524501D01*
X14852292Y-1534650D01*
X14852289Y-1534651D01*
X14691305Y-1587996D01*
X14691294Y-1588001D01*
X14546959Y-1677029D01*
X14546955Y-1677032D01*
X14427031Y-1796956D01*
X14400113Y-1840598D01*
X14392526Y-1847421D01*
X14388288Y-1856703D01*
X14366989Y-1870390D01*
X14348165Y-1887322D01*
X14336528Y-1889966D01*
X14329510Y-1894477D01*
X14294575Y-1899500D01*
X14079766Y-1899500D01*
X14012727Y-1879815D01*
X14010875Y-1878602D01*
X13879185Y-1790609D01*
X13879172Y-1790602D01*
X13733501Y-1730264D01*
X13733489Y-1730261D01*
X13578845Y-1699500D01*
X13578842Y-1699500D01*
X13421158Y-1699500D01*
X13421155Y-1699500D01*
X13266510Y-1730261D01*
X13266498Y-1730264D01*
X13120827Y-1790602D01*
X13120814Y-1790609D01*
X12989711Y-1878210D01*
X12989707Y-1878213D01*
X12878213Y-1989707D01*
X12878210Y-1989711D01*
X12790609Y-2120814D01*
X12790602Y-2120827D01*
X12730264Y-2266498D01*
X12730261Y-2266510D01*
X12699500Y-2421153D01*
X500500Y-2421153D01*
X500500Y-1302523D01*
X501280Y-1288639D01*
X518493Y-1135865D01*
X524669Y-1108803D01*
X574612Y-966075D01*
X586657Y-941064D01*
X667106Y-813030D01*
X684411Y-791331D01*
X791331Y-684411D01*
X813030Y-667106D01*
X941064Y-586657D01*
X966075Y-574612D01*
X1108803Y-524669D01*
X1135865Y-518493D01*
X1288649Y-501278D01*
X1302532Y-500499D01*
X7250848Y-500499D01*
X7316740Y-500499D01*
X7316740Y-500500D01*
X7421092Y-500551D01*
X7424284Y-500035D01*
X7432408Y-500001D01*
X7432468Y-500018D01*
X7432932Y-500000D01*
X8663074Y-500000D01*
X8730113Y-519685D01*
G37*
%TD.AperFunction*%
%TA.AperFunction,Conductor*%
G36*
X22612971Y-7620185D02*
G01*
X22656416Y-7668203D01*
X22716657Y-7786433D01*
X22855483Y-7977510D01*
X23022490Y-8144517D01*
X23148123Y-8235795D01*
X23213568Y-8283344D01*
X23331793Y-8343582D01*
X23382590Y-8391556D01*
X23399499Y-8454067D01*
X23399499Y-8493267D01*
X23399498Y-8493267D01*
X23440423Y-8646000D01*
X23451368Y-8664955D01*
X23451369Y-8664957D01*
X23514897Y-8774991D01*
X23519479Y-8782927D01*
X23519481Y-8782930D01*
X23638349Y-8901798D01*
X23638355Y-8901803D01*
X25100926Y-10364374D01*
X25100936Y-10364385D01*
X25105266Y-10368715D01*
X25105267Y-10368716D01*
X25217071Y-10480520D01*
X25217073Y-10480521D01*
X25217077Y-10480524D01*
X25313940Y-10536447D01*
X25354003Y-10559577D01*
X25465806Y-10589534D01*
X25506729Y-10600500D01*
X25506730Y-10600500D01*
X25679393Y-10600500D01*
X25683276Y-10600744D01*
X25712606Y-10611395D01*
X25742539Y-10620185D01*
X25745170Y-10623221D01*
X25748949Y-10624594D01*
X25767869Y-10649417D01*
X25788294Y-10672989D01*
X25789276Y-10677503D01*
X25791303Y-10680163D01*
X25792149Y-10690709D01*
X25799500Y-10724500D01*
X25799500Y-11225001D01*
X25799501Y-11225019D01*
X25810000Y-11327796D01*
X25810001Y-11327799D01*
X25865185Y-11494331D01*
X25865187Y-11494336D01*
X25900069Y-11550888D01*
X25957288Y-11643656D01*
X26081344Y-11767712D01*
X26230666Y-11859814D01*
X26267967Y-11872174D01*
X26325412Y-11911947D01*
X26352235Y-11976463D01*
X26339920Y-12045239D01*
X26332066Y-12058770D01*
X26290608Y-12120816D01*
X26290602Y-12120827D01*
X26230264Y-12266498D01*
X26230261Y-12266510D01*
X26203571Y-12400691D01*
X26171186Y-12462602D01*
X26110471Y-12497176D01*
X26081954Y-12500500D01*
X25585043Y-12500500D01*
X25518004Y-12480815D01*
X25472249Y-12428011D01*
X25462305Y-12358853D01*
X25462815Y-12356183D01*
X25462791Y-12356180D01*
X25500500Y-12118097D01*
X25500500Y-11881902D01*
X25463553Y-11648631D01*
X25404706Y-11467520D01*
X25390568Y-11424008D01*
X25390566Y-11424005D01*
X25390566Y-11424003D01*
X25305814Y-11257669D01*
X25283343Y-11213567D01*
X25144517Y-11022490D01*
X24977510Y-10855483D01*
X24786433Y-10716657D01*
X24575996Y-10609433D01*
X24351368Y-10536446D01*
X24118097Y-10499500D01*
X24118092Y-10499500D01*
X23881908Y-10499500D01*
X23881903Y-10499500D01*
X23648631Y-10536446D01*
X23424003Y-10609433D01*
X23213566Y-10716657D01*
X23113500Y-10789360D01*
X23022490Y-10855483D01*
X23022488Y-10855485D01*
X23022487Y-10855485D01*
X22855485Y-11022487D01*
X22855485Y-11022488D01*
X22855483Y-11022490D01*
X22814385Y-11079056D01*
X22716657Y-11213566D01*
X22707375Y-11231783D01*
X22658455Y-11327796D01*
X22656417Y-11331795D01*
X22608442Y-11382591D01*
X22545932Y-11399500D01*
X19189903Y-11399500D01*
X19122864Y-11379815D01*
X19077109Y-11327011D01*
X19070128Y-11307594D01*
X19065393Y-11289924D01*
X19059577Y-11268216D01*
X19035458Y-11226440D01*
X18980524Y-11131290D01*
X18980518Y-11131282D01*
X18565893Y-10716657D01*
X18137589Y-10288354D01*
X18137588Y-10288352D01*
X18018717Y-10169481D01*
X18018709Y-10169475D01*
X17911168Y-10107387D01*
X17906978Y-10102993D01*
X17901240Y-10101007D01*
X17883147Y-10078000D01*
X17862952Y-10056821D01*
X17861802Y-10050859D01*
X17858049Y-10046086D01*
X17855267Y-10016952D01*
X17849728Y-9988214D01*
X17851985Y-9982576D01*
X17851408Y-9976533D01*
X17864817Y-9950520D01*
X17875696Y-9923349D01*
X17881353Y-9918447D01*
X17883424Y-9914430D01*
X17911167Y-9892613D01*
X17920810Y-9887046D01*
X17952558Y-9868716D01*
X18018716Y-9830520D01*
X18130520Y-9718716D01*
X18130520Y-9718714D01*
X18140724Y-9708511D01*
X18140727Y-9708506D01*
X18980520Y-8868716D01*
X19059577Y-8731784D01*
X19100501Y-8579057D01*
X19100501Y-8420942D01*
X19100501Y-8413347D01*
X19100500Y-8413329D01*
X19100500Y-7800098D01*
X19109144Y-7770660D01*
X19115668Y-7740670D01*
X19119423Y-7735653D01*
X19120185Y-7733059D01*
X19136819Y-7712416D01*
X19212418Y-7636818D01*
X19273742Y-7603334D01*
X19300099Y-7600500D01*
X22545932Y-7600500D01*
X22612971Y-7620185D01*
G37*
%TD.AperFunction*%
%TA.AperFunction,Conductor*%
G36*
X16150519Y-7445185D02*
G01*
X16171161Y-7461819D01*
X16289811Y-7580469D01*
X16289813Y-7580470D01*
X16289815Y-7580472D01*
X16435394Y-7668478D01*
X16597804Y-7719086D01*
X16668384Y-7725500D01*
X16668387Y-7725500D01*
X17331613Y-7725500D01*
X17331616Y-7725500D01*
X17402196Y-7719086D01*
X17564606Y-7668478D01*
X17640168Y-7622798D01*
X17668252Y-7615383D01*
X17695472Y-7605231D01*
X17701629Y-7606570D01*
X17707722Y-7604962D01*
X17735360Y-7613908D01*
X17763745Y-7620083D01*
X17770836Y-7625391D01*
X17774196Y-7626479D01*
X17791999Y-7641234D01*
X17863181Y-7712416D01*
X17896666Y-7773739D01*
X17899500Y-7800097D01*
X17899500Y-8199902D01*
X17879815Y-8266941D01*
X17863181Y-8287583D01*
X17499275Y-8651488D01*
X17437952Y-8684973D01*
X17368260Y-8679989D01*
X17364142Y-8678368D01*
X17331765Y-8664957D01*
X17331760Y-8664955D01*
X17214361Y-8649500D01*
X16685636Y-8649500D01*
X16568246Y-8664953D01*
X16568237Y-8664956D01*
X16422160Y-8725463D01*
X16296718Y-8821718D01*
X16200463Y-8947160D01*
X16139956Y-9093237D01*
X16139955Y-9093239D01*
X16124500Y-9210638D01*
X16124501Y-9489360D01*
X16139953Y-9606753D01*
X16139956Y-9606762D01*
X16148837Y-9628203D01*
X16152403Y-9661382D01*
X16156838Y-9694476D01*
X16156204Y-9696744D01*
X16156304Y-9697673D01*
X16155490Y-9699298D01*
X16148838Y-9723103D01*
X16140443Y-9743370D01*
X16132987Y-9800000D01*
X16175500Y-9800000D01*
X16204880Y-9808627D01*
X16234818Y-9815108D01*
X16238930Y-9818625D01*
X16242539Y-9819685D01*
X16263094Y-9836231D01*
X16268888Y-9842014D01*
X16296718Y-9878282D01*
X16333540Y-9906536D01*
X16339246Y-9912231D01*
X16352304Y-9936088D01*
X16368341Y-9958052D01*
X16368831Y-9966284D01*
X16372792Y-9973521D01*
X16370878Y-10000651D01*
X16372496Y-10027798D01*
X16368457Y-10034989D01*
X16367877Y-10043217D01*
X16351599Y-10065006D01*
X16338283Y-10088719D01*
X16327146Y-10098369D01*
X16296718Y-10121718D01*
X16296717Y-10121719D01*
X16296716Y-10121720D01*
X16273875Y-10151487D01*
X16217447Y-10192690D01*
X16175500Y-10200000D01*
X16132990Y-10200000D01*
X16132988Y-10200001D01*
X16140441Y-10256622D01*
X16140445Y-10256634D01*
X16148837Y-10276895D01*
X16152282Y-10308951D01*
X16157176Y-10340814D01*
X16156126Y-10344713D01*
X16156304Y-10346364D01*
X16154959Y-10349050D01*
X16148838Y-10371794D01*
X16139956Y-10393238D01*
X16139955Y-10393239D01*
X16124500Y-10510638D01*
X16124500Y-10789363D01*
X16139953Y-10906753D01*
X16139956Y-10906762D01*
X16200464Y-11052841D01*
X16296718Y-11178282D01*
X16422159Y-11274536D01*
X16568238Y-11335044D01*
X16685639Y-11350500D01*
X17214360Y-11350499D01*
X17214363Y-11350499D01*
X17331753Y-11335046D01*
X17331756Y-11335044D01*
X17331762Y-11335044D01*
X17364143Y-11321630D01*
X17433610Y-11314162D01*
X17496090Y-11345436D01*
X17499276Y-11348511D01*
X17813084Y-11662319D01*
X17817422Y-11670265D01*
X17824672Y-11675692D01*
X17833905Y-11700451D01*
X17846569Y-11723642D01*
X17845923Y-11732673D01*
X17849087Y-11741157D01*
X17843470Y-11766975D01*
X17841585Y-11793334D01*
X17835765Y-11802388D01*
X17834234Y-11809429D01*
X17813082Y-11837683D01*
X17791997Y-11858767D01*
X17730673Y-11892251D01*
X17660982Y-11887265D01*
X17640168Y-11877201D01*
X17564606Y-11831522D01*
X17525014Y-11819185D01*
X17402196Y-11780914D01*
X17402194Y-11780913D01*
X17402192Y-11780913D01*
X17352778Y-11776423D01*
X17331616Y-11774500D01*
X16668384Y-11774500D01*
X16649145Y-11776248D01*
X16597807Y-11780913D01*
X16435393Y-11831522D01*
X16289811Y-11919530D01*
X16289810Y-11919531D01*
X16171161Y-12038181D01*
X16144233Y-12052884D01*
X16118415Y-12069477D01*
X16112214Y-12070368D01*
X16109838Y-12071666D01*
X16083480Y-12074500D01*
X15916520Y-12074500D01*
X15849481Y-12054815D01*
X15828839Y-12038181D01*
X15710188Y-11919530D01*
X15697644Y-11911947D01*
X15564606Y-11831522D01*
X15402196Y-11780914D01*
X15402194Y-11780913D01*
X15402192Y-11780913D01*
X15352778Y-11776423D01*
X15331616Y-11774500D01*
X14724500Y-11774500D01*
X14715814Y-11771949D01*
X14706853Y-11773238D01*
X14682812Y-11762259D01*
X14657461Y-11754815D01*
X14651533Y-11747974D01*
X14643297Y-11744213D01*
X14629007Y-11721978D01*
X14611706Y-11702011D01*
X14609418Y-11691496D01*
X14605523Y-11685435D01*
X14600500Y-11650500D01*
X14600500Y-11467520D01*
X14620185Y-11400481D01*
X14672989Y-11354726D01*
X14740683Y-11344581D01*
X14785639Y-11350500D01*
X15314360Y-11350499D01*
X15314363Y-11350499D01*
X15431753Y-11335046D01*
X15431757Y-11335044D01*
X15431762Y-11335044D01*
X15577841Y-11274536D01*
X15703282Y-11178282D01*
X15799536Y-11052841D01*
X15860044Y-10906762D01*
X15875500Y-10789361D01*
X15875499Y-10510640D01*
X15860044Y-10393238D01*
X15859745Y-10392517D01*
X15851435Y-10372455D01*
X15847987Y-10340395D01*
X15843094Y-10308531D01*
X15844275Y-10305876D01*
X15843965Y-10302986D01*
X15851435Y-10277545D01*
X15859667Y-10257671D01*
X15860044Y-10256762D01*
X15875500Y-10139361D01*
X15875499Y-9860640D01*
X15875091Y-9857544D01*
X15871419Y-9829647D01*
X15860044Y-9743238D01*
X15859668Y-9742331D01*
X15854391Y-9729592D01*
X15851434Y-9722454D01*
X15847867Y-9689274D01*
X15843432Y-9656178D01*
X15844144Y-9654656D01*
X15843965Y-9652986D01*
X15851435Y-9627545D01*
X15860044Y-9606762D01*
X15875500Y-9489361D01*
X15875499Y-9210640D01*
X15875499Y-9210638D01*
X15875499Y-9210636D01*
X15860046Y-9093246D01*
X15860044Y-9093239D01*
X15860044Y-9093238D01*
X15799536Y-8947159D01*
X15703282Y-8821718D01*
X15577841Y-8725464D01*
X15431762Y-8664956D01*
X15431760Y-8664955D01*
X15314370Y-8649501D01*
X15314367Y-8649500D01*
X15314361Y-8649500D01*
X15314354Y-8649500D01*
X15250097Y-8649500D01*
X15183058Y-8629815D01*
X15162416Y-8613181D01*
X14474909Y-7925674D01*
X14441424Y-7864351D01*
X14446408Y-7794659D01*
X14488280Y-7738726D01*
X14553744Y-7714309D01*
X14591201Y-7718649D01*
X14591369Y-7717806D01*
X14597800Y-7719084D01*
X14597804Y-7719086D01*
X14668384Y-7725500D01*
X14668387Y-7725500D01*
X15331613Y-7725500D01*
X15331616Y-7725500D01*
X15402196Y-7719086D01*
X15564606Y-7668478D01*
X15710185Y-7580472D01*
X15766327Y-7524330D01*
X15828839Y-7461819D01*
X15855766Y-7447115D01*
X15881585Y-7430523D01*
X15887785Y-7429631D01*
X15890162Y-7428334D01*
X15916520Y-7425500D01*
X16083480Y-7425500D01*
X16150519Y-7445185D01*
G37*
%TD.AperFunction*%
%TA.AperFunction,Conductor*%
G36*
X33161823Y-9707685D02*
G01*
X33207578Y-9760489D01*
X33217522Y-9829647D01*
X33216401Y-9836192D01*
X33199500Y-9921155D01*
X33199500Y-10078846D01*
X33230261Y-10233489D01*
X33230264Y-10233501D01*
X33290602Y-10379172D01*
X33290608Y-10379183D01*
X33308266Y-10405610D01*
X33329143Y-10472288D01*
X33310658Y-10539668D01*
X33258679Y-10586357D01*
X33205163Y-10598500D01*
X31749154Y-10598500D01*
X31682115Y-10578815D01*
X31661473Y-10562181D01*
X30998973Y-9899681D01*
X30965488Y-9838358D01*
X30970472Y-9768666D01*
X31012344Y-9712733D01*
X31077808Y-9688316D01*
X31086654Y-9688000D01*
X33094784Y-9688000D01*
X33161823Y-9707685D01*
G37*
%TD.AperFunction*%
%TA.AperFunction,Conductor*%
G36*
X8318833Y-9430913D02*
G01*
X8374767Y-9472784D01*
X8399184Y-9538249D01*
X8399500Y-9547065D01*
X8399500Y-9547855D01*
X8399501Y-9547876D01*
X8405908Y-9607483D01*
X8456202Y-9742328D01*
X8456206Y-9742335D01*
X8542452Y-9857544D01*
X8542453Y-9857544D01*
X8542454Y-9857546D01*
X8568517Y-9877057D01*
X8600145Y-9900734D01*
X8642015Y-9956668D01*
X8646999Y-10026360D01*
X8613513Y-10087683D01*
X8600145Y-10099266D01*
X8542452Y-10142455D01*
X8456206Y-10257664D01*
X8456202Y-10257671D01*
X8433391Y-10318833D01*
X8391520Y-10374767D01*
X8326056Y-10399184D01*
X8317209Y-10399500D01*
X7724500Y-10399500D01*
X7715814Y-10396949D01*
X7706853Y-10398238D01*
X7682812Y-10387259D01*
X7657461Y-10379815D01*
X7651533Y-10372974D01*
X7643297Y-10369213D01*
X7629007Y-10346978D01*
X7611706Y-10327011D01*
X7609418Y-10316496D01*
X7605523Y-10310435D01*
X7600500Y-10275500D01*
X7600500Y-10098096D01*
X7620185Y-10031057D01*
X7636815Y-10010419D01*
X8187821Y-9459412D01*
X8249142Y-9425929D01*
X8318833Y-9430913D01*
G37*
%TD.AperFunction*%
%TD*%
M02*
