%TF.GenerationSoftware,KiCad,Pcbnew,9.0.2*%
%TF.CreationDate,2025-07-10T11:39:35+02:00*%
%TF.ProjectId,iagabel,69616761-6265-46c2-9e6b-696361645f70,rev?*%
%TF.SameCoordinates,Original*%
%TF.FileFunction,Legend,Top*%
%TF.FilePolarity,Positive*%
%FSLAX46Y46*%
G04 Gerber Fmt 4.6, Leading zero omitted, Abs format (unit mm)*
G04 Created by KiCad (PCBNEW 9.0.2) date 2025-07-10 11:39:35*
%MOMM*%
%LPD*%
G01*
G04 APERTURE LIST*
%ADD10C,0.150000*%
%ADD11C,0.120000*%
G04 APERTURE END LIST*
D10*
X12953152Y-6284649D02*
X13762676Y-6284649D01*
X13762676Y-6284649D02*
X13857914Y-6332268D01*
X13857914Y-6332268D02*
X13905533Y-6379887D01*
X13905533Y-6379887D02*
X13953152Y-6475125D01*
X13953152Y-6475125D02*
X13953152Y-6617982D01*
X13953152Y-6617982D02*
X13905533Y-6713220D01*
X13572200Y-6284649D02*
X13619819Y-6379887D01*
X13619819Y-6379887D02*
X13619819Y-6570363D01*
X13619819Y-6570363D02*
X13572200Y-6665601D01*
X13572200Y-6665601D02*
X13524580Y-6713220D01*
X13524580Y-6713220D02*
X13429342Y-6760839D01*
X13429342Y-6760839D02*
X13143628Y-6760839D01*
X13143628Y-6760839D02*
X13048390Y-6713220D01*
X13048390Y-6713220D02*
X13000771Y-6665601D01*
X13000771Y-6665601D02*
X12953152Y-6570363D01*
X12953152Y-6570363D02*
X12953152Y-6379887D01*
X12953152Y-6379887D02*
X13000771Y-6284649D01*
X12953152Y-5808458D02*
X13619819Y-5808458D01*
X13048390Y-5808458D02*
X13000771Y-5760839D01*
X13000771Y-5760839D02*
X12953152Y-5665601D01*
X12953152Y-5665601D02*
X12953152Y-5522744D01*
X12953152Y-5522744D02*
X13000771Y-5427506D01*
X13000771Y-5427506D02*
X13096009Y-5379887D01*
X13096009Y-5379887D02*
X13619819Y-5379887D01*
X13619819Y-4475125D02*
X12619819Y-4475125D01*
X13572200Y-4475125D02*
X13619819Y-4570363D01*
X13619819Y-4570363D02*
X13619819Y-4760839D01*
X13619819Y-4760839D02*
X13572200Y-4856077D01*
X13572200Y-4856077D02*
X13524580Y-4903696D01*
X13524580Y-4903696D02*
X13429342Y-4951315D01*
X13429342Y-4951315D02*
X13143628Y-4951315D01*
X13143628Y-4951315D02*
X13048390Y-4903696D01*
X13048390Y-4903696D02*
X13000771Y-4856077D01*
X13000771Y-4856077D02*
X12953152Y-4760839D01*
X12953152Y-4760839D02*
X12953152Y-4570363D01*
X12953152Y-4570363D02*
X13000771Y-4475125D01*
X12919819Y-9608458D02*
X12919819Y-8989411D01*
X12919819Y-8989411D02*
X13300771Y-9322744D01*
X13300771Y-9322744D02*
X13300771Y-9179887D01*
X13300771Y-9179887D02*
X13348390Y-9084649D01*
X13348390Y-9084649D02*
X13396009Y-9037030D01*
X13396009Y-9037030D02*
X13491247Y-8989411D01*
X13491247Y-8989411D02*
X13729342Y-8989411D01*
X13729342Y-8989411D02*
X13824580Y-9037030D01*
X13824580Y-9037030D02*
X13872200Y-9084649D01*
X13872200Y-9084649D02*
X13919819Y-9179887D01*
X13919819Y-9179887D02*
X13919819Y-9465601D01*
X13919819Y-9465601D02*
X13872200Y-9560839D01*
X13872200Y-9560839D02*
X13824580Y-9608458D01*
X13824580Y-8560839D02*
X13872200Y-8513220D01*
X13872200Y-8513220D02*
X13919819Y-8560839D01*
X13919819Y-8560839D02*
X13872200Y-8608458D01*
X13872200Y-8608458D02*
X13824580Y-8560839D01*
X13824580Y-8560839D02*
X13919819Y-8560839D01*
X12919819Y-8179887D02*
X12919819Y-7560840D01*
X12919819Y-7560840D02*
X13300771Y-7894173D01*
X13300771Y-7894173D02*
X13300771Y-7751316D01*
X13300771Y-7751316D02*
X13348390Y-7656078D01*
X13348390Y-7656078D02*
X13396009Y-7608459D01*
X13396009Y-7608459D02*
X13491247Y-7560840D01*
X13491247Y-7560840D02*
X13729342Y-7560840D01*
X13729342Y-7560840D02*
X13824580Y-7608459D01*
X13824580Y-7608459D02*
X13872200Y-7656078D01*
X13872200Y-7656078D02*
X13919819Y-7751316D01*
X13919819Y-7751316D02*
X13919819Y-8037030D01*
X13919819Y-8037030D02*
X13872200Y-8132268D01*
X13872200Y-8132268D02*
X13824580Y-8179887D01*
X13312969Y-11469819D02*
X12836779Y-11469819D01*
X12836779Y-11469819D02*
X12836779Y-10469819D01*
X13598684Y-10565057D02*
X13646303Y-10517438D01*
X13646303Y-10517438D02*
X13741541Y-10469819D01*
X13741541Y-10469819D02*
X13979636Y-10469819D01*
X13979636Y-10469819D02*
X14074874Y-10517438D01*
X14074874Y-10517438D02*
X14122493Y-10565057D01*
X14122493Y-10565057D02*
X14170112Y-10660295D01*
X14170112Y-10660295D02*
X14170112Y-10755533D01*
X14170112Y-10755533D02*
X14122493Y-10898390D01*
X14122493Y-10898390D02*
X13551065Y-11469819D01*
X13551065Y-11469819D02*
X14170112Y-11469819D01*
X13312969Y-13419819D02*
X12836779Y-13419819D01*
X12836779Y-13419819D02*
X12836779Y-12419819D01*
X14170112Y-13419819D02*
X13598684Y-13419819D01*
X13884398Y-13419819D02*
X13884398Y-12419819D01*
X13884398Y-12419819D02*
X13789160Y-12562676D01*
X13789160Y-12562676D02*
X13693922Y-12657914D01*
X13693922Y-12657914D02*
X13598684Y-12705533D01*
X1510588Y-2219819D02*
X939160Y-2219819D01*
X1224874Y-2219819D02*
X1224874Y-1219819D01*
X1224874Y-1219819D02*
X1129636Y-1362676D01*
X1129636Y-1362676D02*
X1034398Y-1457914D01*
X1034398Y-1457914D02*
X939160Y-1505533D01*
X2129636Y-1219819D02*
X2224874Y-1219819D01*
X2224874Y-1219819D02*
X2320112Y-1267438D01*
X2320112Y-1267438D02*
X2367731Y-1315057D01*
X2367731Y-1315057D02*
X2415350Y-1410295D01*
X2415350Y-1410295D02*
X2462969Y-1600771D01*
X2462969Y-1600771D02*
X2462969Y-1838866D01*
X2462969Y-1838866D02*
X2415350Y-2029342D01*
X2415350Y-2029342D02*
X2367731Y-2124580D01*
X2367731Y-2124580D02*
X2320112Y-2172200D01*
X2320112Y-2172200D02*
X2224874Y-2219819D01*
X2224874Y-2219819D02*
X2129636Y-2219819D01*
X2129636Y-2219819D02*
X2034398Y-2172200D01*
X2034398Y-2172200D02*
X1986779Y-2124580D01*
X1986779Y-2124580D02*
X1939160Y-2029342D01*
X1939160Y-2029342D02*
X1891541Y-1838866D01*
X1891541Y-1838866D02*
X1891541Y-1600771D01*
X1891541Y-1600771D02*
X1939160Y-1410295D01*
X1939160Y-1410295D02*
X1986779Y-1315057D01*
X1986779Y-1315057D02*
X2034398Y-1267438D01*
X2034398Y-1267438D02*
X2129636Y-1219819D01*
X2891541Y-2124580D02*
X2939160Y-2172200D01*
X2939160Y-2172200D02*
X2891541Y-2219819D01*
X2891541Y-2219819D02*
X2843922Y-2172200D01*
X2843922Y-2172200D02*
X2891541Y-2124580D01*
X2891541Y-2124580D02*
X2891541Y-2219819D01*
X3272493Y-1219819D02*
X3939159Y-1219819D01*
X3939159Y-1219819D02*
X3510588Y-2219819D01*
X4320112Y-2124580D02*
X4367731Y-2172200D01*
X4367731Y-2172200D02*
X4320112Y-2219819D01*
X4320112Y-2219819D02*
X4272493Y-2172200D01*
X4272493Y-2172200D02*
X4320112Y-2124580D01*
X4320112Y-2124580D02*
X4320112Y-2219819D01*
X4748683Y-1315057D02*
X4796302Y-1267438D01*
X4796302Y-1267438D02*
X4891540Y-1219819D01*
X4891540Y-1219819D02*
X5129635Y-1219819D01*
X5129635Y-1219819D02*
X5224873Y-1267438D01*
X5224873Y-1267438D02*
X5272492Y-1315057D01*
X5272492Y-1315057D02*
X5320111Y-1410295D01*
X5320111Y-1410295D02*
X5320111Y-1505533D01*
X5320111Y-1505533D02*
X5272492Y-1648390D01*
X5272492Y-1648390D02*
X4701064Y-2219819D01*
X4701064Y-2219819D02*
X5320111Y-2219819D01*
X5939159Y-1219819D02*
X6034397Y-1219819D01*
X6034397Y-1219819D02*
X6129635Y-1267438D01*
X6129635Y-1267438D02*
X6177254Y-1315057D01*
X6177254Y-1315057D02*
X6224873Y-1410295D01*
X6224873Y-1410295D02*
X6272492Y-1600771D01*
X6272492Y-1600771D02*
X6272492Y-1838866D01*
X6272492Y-1838866D02*
X6224873Y-2029342D01*
X6224873Y-2029342D02*
X6177254Y-2124580D01*
X6177254Y-2124580D02*
X6129635Y-2172200D01*
X6129635Y-2172200D02*
X6034397Y-2219819D01*
X6034397Y-2219819D02*
X5939159Y-2219819D01*
X5939159Y-2219819D02*
X5843921Y-2172200D01*
X5843921Y-2172200D02*
X5796302Y-2124580D01*
X5796302Y-2124580D02*
X5748683Y-2029342D01*
X5748683Y-2029342D02*
X5701064Y-1838866D01*
X5701064Y-1838866D02*
X5701064Y-1600771D01*
X5701064Y-1600771D02*
X5748683Y-1410295D01*
X5748683Y-1410295D02*
X5796302Y-1315057D01*
X5796302Y-1315057D02*
X5843921Y-1267438D01*
X5843921Y-1267438D02*
X5939159Y-1219819D01*
X6653445Y-1315057D02*
X6701064Y-1267438D01*
X6701064Y-1267438D02*
X6796302Y-1219819D01*
X6796302Y-1219819D02*
X7034397Y-1219819D01*
X7034397Y-1219819D02*
X7129635Y-1267438D01*
X7129635Y-1267438D02*
X7177254Y-1315057D01*
X7177254Y-1315057D02*
X7224873Y-1410295D01*
X7224873Y-1410295D02*
X7224873Y-1505533D01*
X7224873Y-1505533D02*
X7177254Y-1648390D01*
X7177254Y-1648390D02*
X6605826Y-2219819D01*
X6605826Y-2219819D02*
X7224873Y-2219819D01*
X8129635Y-1219819D02*
X7653445Y-1219819D01*
X7653445Y-1219819D02*
X7605826Y-1696009D01*
X7605826Y-1696009D02*
X7653445Y-1648390D01*
X7653445Y-1648390D02*
X7748683Y-1600771D01*
X7748683Y-1600771D02*
X7986778Y-1600771D01*
X7986778Y-1600771D02*
X8082016Y-1648390D01*
X8082016Y-1648390D02*
X8129635Y-1696009D01*
X8129635Y-1696009D02*
X8177254Y-1791247D01*
X8177254Y-1791247D02*
X8177254Y-2029342D01*
X8177254Y-2029342D02*
X8129635Y-2124580D01*
X8129635Y-2124580D02*
X8082016Y-2172200D01*
X8082016Y-2172200D02*
X7986778Y-2219819D01*
X7986778Y-2219819D02*
X7748683Y-2219819D01*
X7748683Y-2219819D02*
X7653445Y-2172200D01*
X7653445Y-2172200D02*
X7605826Y-2124580D01*
X1360588Y-17917438D02*
X1265350Y-17869819D01*
X1265350Y-17869819D02*
X1122493Y-17869819D01*
X1122493Y-17869819D02*
X979636Y-17917438D01*
X979636Y-17917438D02*
X884398Y-18012676D01*
X884398Y-18012676D02*
X836779Y-18107914D01*
X836779Y-18107914D02*
X789160Y-18298390D01*
X789160Y-18298390D02*
X789160Y-18441247D01*
X789160Y-18441247D02*
X836779Y-18631723D01*
X836779Y-18631723D02*
X884398Y-18726961D01*
X884398Y-18726961D02*
X979636Y-18822200D01*
X979636Y-18822200D02*
X1122493Y-18869819D01*
X1122493Y-18869819D02*
X1217731Y-18869819D01*
X1217731Y-18869819D02*
X1360588Y-18822200D01*
X1360588Y-18822200D02*
X1408207Y-18774580D01*
X1408207Y-18774580D02*
X1408207Y-18441247D01*
X1408207Y-18441247D02*
X1217731Y-18441247D01*
X2265350Y-18869819D02*
X2265350Y-18346009D01*
X2265350Y-18346009D02*
X2217731Y-18250771D01*
X2217731Y-18250771D02*
X2122493Y-18203152D01*
X2122493Y-18203152D02*
X1932017Y-18203152D01*
X1932017Y-18203152D02*
X1836779Y-18250771D01*
X2265350Y-18822200D02*
X2170112Y-18869819D01*
X2170112Y-18869819D02*
X1932017Y-18869819D01*
X1932017Y-18869819D02*
X1836779Y-18822200D01*
X1836779Y-18822200D02*
X1789160Y-18726961D01*
X1789160Y-18726961D02*
X1789160Y-18631723D01*
X1789160Y-18631723D02*
X1836779Y-18536485D01*
X1836779Y-18536485D02*
X1932017Y-18488866D01*
X1932017Y-18488866D02*
X2170112Y-18488866D01*
X2170112Y-18488866D02*
X2265350Y-18441247D01*
X2741541Y-18869819D02*
X2741541Y-17869819D01*
X2741541Y-18250771D02*
X2836779Y-18203152D01*
X2836779Y-18203152D02*
X3027255Y-18203152D01*
X3027255Y-18203152D02*
X3122493Y-18250771D01*
X3122493Y-18250771D02*
X3170112Y-18298390D01*
X3170112Y-18298390D02*
X3217731Y-18393628D01*
X3217731Y-18393628D02*
X3217731Y-18679342D01*
X3217731Y-18679342D02*
X3170112Y-18774580D01*
X3170112Y-18774580D02*
X3122493Y-18822200D01*
X3122493Y-18822200D02*
X3027255Y-18869819D01*
X3027255Y-18869819D02*
X2836779Y-18869819D01*
X2836779Y-18869819D02*
X2741541Y-18822200D01*
X4027255Y-18822200D02*
X3932017Y-18869819D01*
X3932017Y-18869819D02*
X3741541Y-18869819D01*
X3741541Y-18869819D02*
X3646303Y-18822200D01*
X3646303Y-18822200D02*
X3598684Y-18726961D01*
X3598684Y-18726961D02*
X3598684Y-18346009D01*
X3598684Y-18346009D02*
X3646303Y-18250771D01*
X3646303Y-18250771D02*
X3741541Y-18203152D01*
X3741541Y-18203152D02*
X3932017Y-18203152D01*
X3932017Y-18203152D02*
X4027255Y-18250771D01*
X4027255Y-18250771D02*
X4074874Y-18346009D01*
X4074874Y-18346009D02*
X4074874Y-18441247D01*
X4074874Y-18441247D02*
X3598684Y-18536485D01*
X4646303Y-18869819D02*
X4551065Y-18822200D01*
X4551065Y-18822200D02*
X4503446Y-18726961D01*
X4503446Y-18726961D02*
X4503446Y-17869819D01*
X5693923Y-18203152D02*
X5932018Y-18869819D01*
X5932018Y-18869819D02*
X6170113Y-18203152D01*
X6741542Y-17869819D02*
X6836780Y-17869819D01*
X6836780Y-17869819D02*
X6932018Y-17917438D01*
X6932018Y-17917438D02*
X6979637Y-17965057D01*
X6979637Y-17965057D02*
X7027256Y-18060295D01*
X7027256Y-18060295D02*
X7074875Y-18250771D01*
X7074875Y-18250771D02*
X7074875Y-18488866D01*
X7074875Y-18488866D02*
X7027256Y-18679342D01*
X7027256Y-18679342D02*
X6979637Y-18774580D01*
X6979637Y-18774580D02*
X6932018Y-18822200D01*
X6932018Y-18822200D02*
X6836780Y-18869819D01*
X6836780Y-18869819D02*
X6741542Y-18869819D01*
X6741542Y-18869819D02*
X6646304Y-18822200D01*
X6646304Y-18822200D02*
X6598685Y-18774580D01*
X6598685Y-18774580D02*
X6551066Y-18679342D01*
X6551066Y-18679342D02*
X6503447Y-18488866D01*
X6503447Y-18488866D02*
X6503447Y-18250771D01*
X6503447Y-18250771D02*
X6551066Y-18060295D01*
X6551066Y-18060295D02*
X6598685Y-17965057D01*
X6598685Y-17965057D02*
X6646304Y-17917438D01*
X6646304Y-17917438D02*
X6741542Y-17869819D01*
X7503447Y-18774580D02*
X7551066Y-18822200D01*
X7551066Y-18822200D02*
X7503447Y-18869819D01*
X7503447Y-18869819D02*
X7455828Y-18822200D01*
X7455828Y-18822200D02*
X7503447Y-18774580D01*
X7503447Y-18774580D02*
X7503447Y-18869819D01*
X8503446Y-18869819D02*
X7932018Y-18869819D01*
X8217732Y-18869819D02*
X8217732Y-17869819D01*
X8217732Y-17869819D02*
X8122494Y-18012676D01*
X8122494Y-18012676D02*
X8027256Y-18107914D01*
X8027256Y-18107914D02*
X7932018Y-18155533D01*
X18884819Y-13666666D02*
X18408628Y-13999999D01*
X18884819Y-14238094D02*
X17884819Y-14238094D01*
X17884819Y-14238094D02*
X17884819Y-13857142D01*
X17884819Y-13857142D02*
X17932438Y-13761904D01*
X17932438Y-13761904D02*
X17980057Y-13714285D01*
X17980057Y-13714285D02*
X18075295Y-13666666D01*
X18075295Y-13666666D02*
X18218152Y-13666666D01*
X18218152Y-13666666D02*
X18313390Y-13714285D01*
X18313390Y-13714285D02*
X18361009Y-13761904D01*
X18361009Y-13761904D02*
X18408628Y-13857142D01*
X18408628Y-13857142D02*
X18408628Y-14238094D01*
X17884819Y-13333332D02*
X17884819Y-12666666D01*
X17884819Y-12666666D02*
X18884819Y-13095237D01*
X27454819Y-7166666D02*
X26978628Y-7499999D01*
X27454819Y-7738094D02*
X26454819Y-7738094D01*
X26454819Y-7738094D02*
X26454819Y-7357142D01*
X26454819Y-7357142D02*
X26502438Y-7261904D01*
X26502438Y-7261904D02*
X26550057Y-7214285D01*
X26550057Y-7214285D02*
X26645295Y-7166666D01*
X26645295Y-7166666D02*
X26788152Y-7166666D01*
X26788152Y-7166666D02*
X26883390Y-7214285D01*
X26883390Y-7214285D02*
X26931009Y-7261904D01*
X26931009Y-7261904D02*
X26978628Y-7357142D01*
X26978628Y-7357142D02*
X26978628Y-7738094D01*
X26550057Y-6785713D02*
X26502438Y-6738094D01*
X26502438Y-6738094D02*
X26454819Y-6642856D01*
X26454819Y-6642856D02*
X26454819Y-6404761D01*
X26454819Y-6404761D02*
X26502438Y-6309523D01*
X26502438Y-6309523D02*
X26550057Y-6261904D01*
X26550057Y-6261904D02*
X26645295Y-6214285D01*
X26645295Y-6214285D02*
X26740533Y-6214285D01*
X26740533Y-6214285D02*
X26883390Y-6261904D01*
X26883390Y-6261904D02*
X27454819Y-6833332D01*
X27454819Y-6833332D02*
X27454819Y-6214285D01*
X19454819Y-17579166D02*
X18978628Y-17912499D01*
X19454819Y-18150594D02*
X18454819Y-18150594D01*
X18454819Y-18150594D02*
X18454819Y-17769642D01*
X18454819Y-17769642D02*
X18502438Y-17674404D01*
X18502438Y-17674404D02*
X18550057Y-17626785D01*
X18550057Y-17626785D02*
X18645295Y-17579166D01*
X18645295Y-17579166D02*
X18788152Y-17579166D01*
X18788152Y-17579166D02*
X18883390Y-17626785D01*
X18883390Y-17626785D02*
X18931009Y-17674404D01*
X18931009Y-17674404D02*
X18978628Y-17769642D01*
X18978628Y-17769642D02*
X18978628Y-18150594D01*
X18454819Y-16674404D02*
X18454819Y-17150594D01*
X18454819Y-17150594D02*
X18931009Y-17198213D01*
X18931009Y-17198213D02*
X18883390Y-17150594D01*
X18883390Y-17150594D02*
X18835771Y-17055356D01*
X18835771Y-17055356D02*
X18835771Y-16817261D01*
X18835771Y-16817261D02*
X18883390Y-16722023D01*
X18883390Y-16722023D02*
X18931009Y-16674404D01*
X18931009Y-16674404D02*
X19026247Y-16626785D01*
X19026247Y-16626785D02*
X19264342Y-16626785D01*
X19264342Y-16626785D02*
X19359580Y-16674404D01*
X19359580Y-16674404D02*
X19407200Y-16722023D01*
X19407200Y-16722023D02*
X19454819Y-16817261D01*
X19454819Y-16817261D02*
X19454819Y-17055356D01*
X19454819Y-17055356D02*
X19407200Y-17150594D01*
X19407200Y-17150594D02*
X19359580Y-17198213D01*
X37688095Y-8254819D02*
X37688095Y-7254819D01*
X37688095Y-7731009D02*
X38259523Y-7731009D01*
X38259523Y-8254819D02*
X38259523Y-7254819D01*
X38688095Y-7350057D02*
X38735714Y-7302438D01*
X38735714Y-7302438D02*
X38830952Y-7254819D01*
X38830952Y-7254819D02*
X39069047Y-7254819D01*
X39069047Y-7254819D02*
X39164285Y-7302438D01*
X39164285Y-7302438D02*
X39211904Y-7350057D01*
X39211904Y-7350057D02*
X39259523Y-7445295D01*
X39259523Y-7445295D02*
X39259523Y-7540533D01*
X39259523Y-7540533D02*
X39211904Y-7683390D01*
X39211904Y-7683390D02*
X38640476Y-8254819D01*
X38640476Y-8254819D02*
X39259523Y-8254819D01*
X17788095Y-9454819D02*
X17788095Y-10264342D01*
X17788095Y-10264342D02*
X17835714Y-10359580D01*
X17835714Y-10359580D02*
X17883333Y-10407200D01*
X17883333Y-10407200D02*
X17978571Y-10454819D01*
X17978571Y-10454819D02*
X18169047Y-10454819D01*
X18169047Y-10454819D02*
X18264285Y-10407200D01*
X18264285Y-10407200D02*
X18311904Y-10359580D01*
X18311904Y-10359580D02*
X18359523Y-10264342D01*
X18359523Y-10264342D02*
X18359523Y-9454819D01*
X19359523Y-10454819D02*
X18788095Y-10454819D01*
X19073809Y-10454819D02*
X19073809Y-9454819D01*
X19073809Y-9454819D02*
X18978571Y-9597676D01*
X18978571Y-9597676D02*
X18883333Y-9692914D01*
X18883333Y-9692914D02*
X18788095Y-9740533D01*
X13233333Y-15579819D02*
X12900000Y-15103628D01*
X12661905Y-15579819D02*
X12661905Y-14579819D01*
X12661905Y-14579819D02*
X13042857Y-14579819D01*
X13042857Y-14579819D02*
X13138095Y-14627438D01*
X13138095Y-14627438D02*
X13185714Y-14675057D01*
X13185714Y-14675057D02*
X13233333Y-14770295D01*
X13233333Y-14770295D02*
X13233333Y-14913152D01*
X13233333Y-14913152D02*
X13185714Y-15008390D01*
X13185714Y-15008390D02*
X13138095Y-15056009D01*
X13138095Y-15056009D02*
X13042857Y-15103628D01*
X13042857Y-15103628D02*
X12661905Y-15103628D01*
X14090476Y-14579819D02*
X13900000Y-14579819D01*
X13900000Y-14579819D02*
X13804762Y-14627438D01*
X13804762Y-14627438D02*
X13757143Y-14675057D01*
X13757143Y-14675057D02*
X13661905Y-14817914D01*
X13661905Y-14817914D02*
X13614286Y-15008390D01*
X13614286Y-15008390D02*
X13614286Y-15389342D01*
X13614286Y-15389342D02*
X13661905Y-15484580D01*
X13661905Y-15484580D02*
X13709524Y-15532200D01*
X13709524Y-15532200D02*
X13804762Y-15579819D01*
X13804762Y-15579819D02*
X13995238Y-15579819D01*
X13995238Y-15579819D02*
X14090476Y-15532200D01*
X14090476Y-15532200D02*
X14138095Y-15484580D01*
X14138095Y-15484580D02*
X14185714Y-15389342D01*
X14185714Y-15389342D02*
X14185714Y-15151247D01*
X14185714Y-15151247D02*
X14138095Y-15056009D01*
X14138095Y-15056009D02*
X14090476Y-15008390D01*
X14090476Y-15008390D02*
X13995238Y-14960771D01*
X13995238Y-14960771D02*
X13804762Y-14960771D01*
X13804762Y-14960771D02*
X13709524Y-15008390D01*
X13709524Y-15008390D02*
X13661905Y-15056009D01*
X13661905Y-15056009D02*
X13614286Y-15151247D01*
X14454819Y-19250594D02*
X13454819Y-19250594D01*
X13454819Y-19250594D02*
X13454819Y-19012499D01*
X13454819Y-19012499D02*
X13502438Y-18869642D01*
X13502438Y-18869642D02*
X13597676Y-18774404D01*
X13597676Y-18774404D02*
X13692914Y-18726785D01*
X13692914Y-18726785D02*
X13883390Y-18679166D01*
X13883390Y-18679166D02*
X14026247Y-18679166D01*
X14026247Y-18679166D02*
X14216723Y-18726785D01*
X14216723Y-18726785D02*
X14311961Y-18774404D01*
X14311961Y-18774404D02*
X14407200Y-18869642D01*
X14407200Y-18869642D02*
X14454819Y-19012499D01*
X14454819Y-19012499D02*
X14454819Y-19250594D01*
X14454819Y-17726785D02*
X14454819Y-18298213D01*
X14454819Y-18012499D02*
X13454819Y-18012499D01*
X13454819Y-18012499D02*
X13597676Y-18107737D01*
X13597676Y-18107737D02*
X13692914Y-18202975D01*
X13692914Y-18202975D02*
X13740533Y-18298213D01*
X25238095Y-12954819D02*
X25809523Y-12954819D01*
X25523809Y-13954819D02*
X25523809Y-12954819D01*
X26142857Y-13954819D02*
X26142857Y-12954819D01*
X26142857Y-12954819D02*
X26523809Y-12954819D01*
X26523809Y-12954819D02*
X26619047Y-13002438D01*
X26619047Y-13002438D02*
X26666666Y-13050057D01*
X26666666Y-13050057D02*
X26714285Y-13145295D01*
X26714285Y-13145295D02*
X26714285Y-13288152D01*
X26714285Y-13288152D02*
X26666666Y-13383390D01*
X26666666Y-13383390D02*
X26619047Y-13431009D01*
X26619047Y-13431009D02*
X26523809Y-13478628D01*
X26523809Y-13478628D02*
X26142857Y-13478628D01*
X27666666Y-13954819D02*
X27095238Y-13954819D01*
X27380952Y-13954819D02*
X27380952Y-12954819D01*
X27380952Y-12954819D02*
X27285714Y-13097676D01*
X27285714Y-13097676D02*
X27190476Y-13192914D01*
X27190476Y-13192914D02*
X27095238Y-13240533D01*
X18954819Y-6166666D02*
X18478628Y-6499999D01*
X18954819Y-6738094D02*
X17954819Y-6738094D01*
X17954819Y-6738094D02*
X17954819Y-6357142D01*
X17954819Y-6357142D02*
X18002438Y-6261904D01*
X18002438Y-6261904D02*
X18050057Y-6214285D01*
X18050057Y-6214285D02*
X18145295Y-6166666D01*
X18145295Y-6166666D02*
X18288152Y-6166666D01*
X18288152Y-6166666D02*
X18383390Y-6214285D01*
X18383390Y-6214285D02*
X18431009Y-6261904D01*
X18431009Y-6261904D02*
X18478628Y-6357142D01*
X18478628Y-6357142D02*
X18478628Y-6738094D01*
X17954819Y-5833332D02*
X17954819Y-5214285D01*
X17954819Y-5214285D02*
X18335771Y-5547618D01*
X18335771Y-5547618D02*
X18335771Y-5404761D01*
X18335771Y-5404761D02*
X18383390Y-5309523D01*
X18383390Y-5309523D02*
X18431009Y-5261904D01*
X18431009Y-5261904D02*
X18526247Y-5214285D01*
X18526247Y-5214285D02*
X18764342Y-5214285D01*
X18764342Y-5214285D02*
X18859580Y-5261904D01*
X18859580Y-5261904D02*
X18907200Y-5309523D01*
X18907200Y-5309523D02*
X18954819Y-5404761D01*
X18954819Y-5404761D02*
X18954819Y-5690475D01*
X18954819Y-5690475D02*
X18907200Y-5785713D01*
X18907200Y-5785713D02*
X18859580Y-5833332D01*
X18333333Y-2859580D02*
X18285714Y-2907200D01*
X18285714Y-2907200D02*
X18142857Y-2954819D01*
X18142857Y-2954819D02*
X18047619Y-2954819D01*
X18047619Y-2954819D02*
X17904762Y-2907200D01*
X17904762Y-2907200D02*
X17809524Y-2811961D01*
X17809524Y-2811961D02*
X17761905Y-2716723D01*
X17761905Y-2716723D02*
X17714286Y-2526247D01*
X17714286Y-2526247D02*
X17714286Y-2383390D01*
X17714286Y-2383390D02*
X17761905Y-2192914D01*
X17761905Y-2192914D02*
X17809524Y-2097676D01*
X17809524Y-2097676D02*
X17904762Y-2002438D01*
X17904762Y-2002438D02*
X18047619Y-1954819D01*
X18047619Y-1954819D02*
X18142857Y-1954819D01*
X18142857Y-1954819D02*
X18285714Y-2002438D01*
X18285714Y-2002438D02*
X18333333Y-2050057D01*
X19285714Y-2954819D02*
X18714286Y-2954819D01*
X19000000Y-2954819D02*
X19000000Y-1954819D01*
X19000000Y-1954819D02*
X18904762Y-2097676D01*
X18904762Y-2097676D02*
X18809524Y-2192914D01*
X18809524Y-2192914D02*
X18714286Y-2240533D01*
X29454819Y-7166666D02*
X28978628Y-7499999D01*
X29454819Y-7738094D02*
X28454819Y-7738094D01*
X28454819Y-7738094D02*
X28454819Y-7357142D01*
X28454819Y-7357142D02*
X28502438Y-7261904D01*
X28502438Y-7261904D02*
X28550057Y-7214285D01*
X28550057Y-7214285D02*
X28645295Y-7166666D01*
X28645295Y-7166666D02*
X28788152Y-7166666D01*
X28788152Y-7166666D02*
X28883390Y-7214285D01*
X28883390Y-7214285D02*
X28931009Y-7261904D01*
X28931009Y-7261904D02*
X28978628Y-7357142D01*
X28978628Y-7357142D02*
X28978628Y-7738094D01*
X29454819Y-6214285D02*
X29454819Y-6785713D01*
X29454819Y-6499999D02*
X28454819Y-6499999D01*
X28454819Y-6499999D02*
X28597676Y-6595237D01*
X28597676Y-6595237D02*
X28692914Y-6690475D01*
X28692914Y-6690475D02*
X28740533Y-6785713D01*
X12388095Y-1504819D02*
X12388095Y-504819D01*
X12388095Y-981009D02*
X12959523Y-981009D01*
X12959523Y-1504819D02*
X12959523Y-504819D01*
X13959523Y-1504819D02*
X13388095Y-1504819D01*
X13673809Y-1504819D02*
X13673809Y-504819D01*
X13673809Y-504819D02*
X13578571Y-647676D01*
X13578571Y-647676D02*
X13483333Y-742914D01*
X13483333Y-742914D02*
X13388095Y-790533D01*
X30454819Y-13738094D02*
X29454819Y-13738094D01*
X30454819Y-13166666D02*
X29883390Y-13595237D01*
X29454819Y-13166666D02*
X30026247Y-13738094D01*
X30454819Y-12214285D02*
X30454819Y-12785713D01*
X30454819Y-12499999D02*
X29454819Y-12499999D01*
X29454819Y-12499999D02*
X29597676Y-12595237D01*
X29597676Y-12595237D02*
X29692914Y-12690475D01*
X29692914Y-12690475D02*
X29740533Y-12785713D01*
X20238095Y-5454819D02*
X20809523Y-5454819D01*
X20523809Y-6454819D02*
X20523809Y-5454819D01*
X21142857Y-6454819D02*
X21142857Y-5454819D01*
X21142857Y-5454819D02*
X21523809Y-5454819D01*
X21523809Y-5454819D02*
X21619047Y-5502438D01*
X21619047Y-5502438D02*
X21666666Y-5550057D01*
X21666666Y-5550057D02*
X21714285Y-5645295D01*
X21714285Y-5645295D02*
X21714285Y-5788152D01*
X21714285Y-5788152D02*
X21666666Y-5883390D01*
X21666666Y-5883390D02*
X21619047Y-5931009D01*
X21619047Y-5931009D02*
X21523809Y-5978628D01*
X21523809Y-5978628D02*
X21142857Y-5978628D01*
X22095238Y-5550057D02*
X22142857Y-5502438D01*
X22142857Y-5502438D02*
X22238095Y-5454819D01*
X22238095Y-5454819D02*
X22476190Y-5454819D01*
X22476190Y-5454819D02*
X22571428Y-5502438D01*
X22571428Y-5502438D02*
X22619047Y-5550057D01*
X22619047Y-5550057D02*
X22666666Y-5645295D01*
X22666666Y-5645295D02*
X22666666Y-5740533D01*
X22666666Y-5740533D02*
X22619047Y-5883390D01*
X22619047Y-5883390D02*
X22047619Y-6454819D01*
X22047619Y-6454819D02*
X22666666Y-6454819D01*
X2166666Y-12454819D02*
X2166666Y-13169104D01*
X2166666Y-13169104D02*
X2119047Y-13311961D01*
X2119047Y-13311961D02*
X2023809Y-13407200D01*
X2023809Y-13407200D02*
X1880952Y-13454819D01*
X1880952Y-13454819D02*
X1785714Y-13454819D01*
X3166666Y-13454819D02*
X2595238Y-13454819D01*
X2880952Y-13454819D02*
X2880952Y-12454819D01*
X2880952Y-12454819D02*
X2785714Y-12597676D01*
X2785714Y-12597676D02*
X2690476Y-12692914D01*
X2690476Y-12692914D02*
X2595238Y-12740533D01*
X14833333Y-4554819D02*
X14500000Y-4078628D01*
X14261905Y-4554819D02*
X14261905Y-3554819D01*
X14261905Y-3554819D02*
X14642857Y-3554819D01*
X14642857Y-3554819D02*
X14738095Y-3602438D01*
X14738095Y-3602438D02*
X14785714Y-3650057D01*
X14785714Y-3650057D02*
X14833333Y-3745295D01*
X14833333Y-3745295D02*
X14833333Y-3888152D01*
X14833333Y-3888152D02*
X14785714Y-3983390D01*
X14785714Y-3983390D02*
X14738095Y-4031009D01*
X14738095Y-4031009D02*
X14642857Y-4078628D01*
X14642857Y-4078628D02*
X14261905Y-4078628D01*
X15690476Y-3888152D02*
X15690476Y-4554819D01*
X15452381Y-3507200D02*
X15214286Y-4221485D01*
X15214286Y-4221485D02*
X15833333Y-4221485D01*
X11238095Y-18954819D02*
X11238095Y-17954819D01*
X11238095Y-18431009D02*
X11809523Y-18431009D01*
X11809523Y-18954819D02*
X11809523Y-17954819D01*
X12190476Y-17954819D02*
X12809523Y-17954819D01*
X12809523Y-17954819D02*
X12476190Y-18335771D01*
X12476190Y-18335771D02*
X12619047Y-18335771D01*
X12619047Y-18335771D02*
X12714285Y-18383390D01*
X12714285Y-18383390D02*
X12761904Y-18431009D01*
X12761904Y-18431009D02*
X12809523Y-18526247D01*
X12809523Y-18526247D02*
X12809523Y-18764342D01*
X12809523Y-18764342D02*
X12761904Y-18859580D01*
X12761904Y-18859580D02*
X12714285Y-18907200D01*
X12714285Y-18907200D02*
X12619047Y-18954819D01*
X12619047Y-18954819D02*
X12333333Y-18954819D01*
X12333333Y-18954819D02*
X12238095Y-18907200D01*
X12238095Y-18907200D02*
X12190476Y-18859580D01*
D11*
%TO.C,R7*%
X17522500Y-13262742D02*
X17522500Y-13737258D01*
X16477500Y-13262742D02*
X16477500Y-13737258D01*
%TO.C,R2*%
X26265000Y-10227064D02*
X26265000Y-9772936D01*
X27735000Y-10227064D02*
X27735000Y-9772936D01*
%TO.C,R5*%
X16765000Y-16772936D02*
X16765000Y-17227064D01*
X18235000Y-16772936D02*
X18235000Y-17227064D01*
%TO.C,U1*%
X16700000Y-8840000D02*
X15300000Y-8840000D01*
X16710000Y-11160000D02*
X15300000Y-11160000D01*
X17320000Y-11440000D02*
X16840000Y-11440000D01*
X17080000Y-11110000D01*
X17320000Y-11440000D01*
G36*
X17320000Y-11440000D02*
G01*
X16840000Y-11440000D01*
X17080000Y-11110000D01*
X17320000Y-11440000D01*
G37*
%TO.C,R6*%
X14477500Y-13262742D02*
X14477500Y-13737258D01*
X15522500Y-13262742D02*
X15522500Y-13737258D01*
%TO.C,D1*%
X14765000Y-16015000D02*
X14765000Y-18300000D01*
X16235000Y-16015000D02*
X14765000Y-16015000D01*
X16235000Y-18300000D02*
X16235000Y-16015000D01*
%TO.C,TP1*%
X25200000Y-12000000D02*
G75*
G02*
X22800000Y-12000000I-1200000J0D01*
G01*
X22800000Y-12000000D02*
G75*
G02*
X25200000Y-12000000I1200000J0D01*
G01*
%TO.C,R3*%
X16477500Y-6237258D02*
X16477500Y-5762742D01*
X17522500Y-6237258D02*
X17522500Y-5762742D01*
%TO.C,C1*%
X15859420Y-1990000D02*
X16140580Y-1990000D01*
X15859420Y-3010000D02*
X16140580Y-3010000D01*
%TO.C,R1*%
X28265000Y-10227064D02*
X28265000Y-9772936D01*
X29735000Y-10227064D02*
X29735000Y-9772936D01*
%TO.C,K1*%
X30750000Y-6100000D02*
X37250000Y-6100000D01*
X30750000Y-13900000D02*
X30750000Y-6100000D01*
X37250000Y-6100000D02*
X37250000Y-13900000D01*
X37250000Y-13900000D02*
X30750000Y-13900000D01*
%TO.C,TP2*%
X25200000Y-7000000D02*
G75*
G02*
X22800000Y-7000000I-1200000J0D01*
G01*
X22800000Y-7000000D02*
G75*
G02*
X25200000Y-7000000I1200000J0D01*
G01*
%TO.C,R4*%
X14477500Y-6237258D02*
X14477500Y-5762742D01*
X15522500Y-6237258D02*
X15522500Y-5762742D01*
%TD*%
M02*
