%TF.GenerationSoftware,KiCad,Pcbnew,9.0.2*%
%TF.CreationDate,2025-07-10T11:39:35+02:00*%
%TF.ProjectId,iagabel,69616761-6265-46c2-9e6b-696361645f70,rev?*%
%TF.SameCoordinates,Original*%
%TF.FileFunction,Paste,Top*%
%TF.FilePolarity,Positive*%
%FSLAX46Y46*%
G04 Gerber Fmt 4.6, Leading zero omitted, Abs format (unit mm)*
G04 Created by KiCad (PCBNEW 9.0.2) date 2025-07-10 11:39:35*
%MOMM*%
%LPD*%
G01*
G04 APERTURE LIST*
G04 Aperture macros list*
%AMRoundRect*
0 Rectangle with rounded corners*
0 $1 Rounding radius*
0 $2 $3 $4 $5 $6 $7 $8 $9 X,Y pos of 4 corners*
0 Add a 4 corners polygon primitive as box body*
4,1,4,$2,$3,$4,$5,$6,$7,$8,$9,$2,$3,0*
0 Add four circle primitives for the rounded corners*
1,1,$1+$1,$2,$3*
1,1,$1+$1,$4,$5*
1,1,$1+$1,$6,$7*
1,1,$1+$1,$8,$9*
0 Add four rect primitives between the rounded corners*
20,1,$1+$1,$2,$3,$4,$5,0*
20,1,$1+$1,$4,$5,$6,$7,0*
20,1,$1+$1,$6,$7,$8,$9,0*
20,1,$1+$1,$8,$9,$2,$3,0*%
G04 Aperture macros list end*
%ADD10RoundRect,0.200000X-0.275000X0.200000X-0.275000X-0.200000X0.275000X-0.200000X0.275000X0.200000X0*%
%ADD11RoundRect,0.250000X0.450000X-0.262500X0.450000X0.262500X-0.450000X0.262500X-0.450000X-0.262500X0*%
%ADD12RoundRect,0.250000X-0.450000X0.262500X-0.450000X-0.262500X0.450000X-0.262500X0.450000X0.262500X0*%
%ADD13RoundRect,0.100000X0.225000X0.100000X-0.225000X0.100000X-0.225000X-0.100000X0.225000X-0.100000X0*%
%ADD14RoundRect,0.218750X-0.256250X0.218750X-0.256250X-0.218750X0.256250X-0.218750X0.256250X0.218750X0*%
%ADD15RoundRect,0.200000X0.275000X-0.200000X0.275000X0.200000X-0.275000X0.200000X-0.275000X-0.200000X0*%
%ADD16RoundRect,0.225000X-0.225000X-0.250000X0.225000X-0.250000X0.225000X0.250000X-0.225000X0.250000X0*%
%ADD17RoundRect,0.135000X-0.465000X-0.315000X0.465000X-0.315000X0.465000X0.315000X-0.465000X0.315000X0*%
%ADD18R,0.700000X1.900000*%
%ADD19R,1.000000X1.900000*%
%ADD20R,3.500000X1.000000*%
%ADD21R,3.800000X1.500000*%
G04 APERTURE END LIST*
D10*
%TO.C,R7*%
X17000000Y-14325000D03*
X17000000Y-12675000D03*
%TD*%
D11*
%TO.C,R2*%
X27000000Y-10912500D03*
X27000000Y-9087500D03*
%TD*%
D12*
%TO.C,R5*%
X17500000Y-16087500D03*
X17500000Y-17912500D03*
%TD*%
D13*
%TO.C,U1*%
X16950000Y-10650000D03*
X16950000Y-10000000D03*
X16950000Y-9350000D03*
X15050000Y-9350000D03*
X15050000Y-10000000D03*
X15050000Y-10650000D03*
%TD*%
D10*
%TO.C,R6*%
X15000000Y-12675000D03*
X15000000Y-14325000D03*
%TD*%
D14*
%TO.C,D1*%
X15500000Y-16712500D03*
X15500000Y-18287500D03*
%TD*%
D15*
%TO.C,R3*%
X17000000Y-6825000D03*
X17000000Y-5175000D03*
%TD*%
D16*
%TO.C,C1*%
X15225000Y-2500000D03*
X16775000Y-2500000D03*
%TD*%
D11*
%TO.C,R1*%
X29000000Y-10912500D03*
X29000000Y-9087500D03*
%TD*%
D17*
%TO.C,K1*%
X32350000Y-12950000D03*
D18*
X32600000Y-12450000D03*
X34000000Y-12450000D03*
X35400000Y-12450000D03*
D17*
X35650000Y-12950000D03*
D18*
X35400000Y-7550000D03*
D17*
X35650000Y-7050000D03*
D19*
X34000000Y-7550000D03*
D17*
X32350000Y-7050000D03*
D18*
X32600000Y-7550000D03*
%TD*%
D20*
%TO.C,J1*%
X10650000Y-13000000D03*
X10650000Y-11000000D03*
X10650000Y-9000000D03*
X10650000Y-7000000D03*
D21*
X3500000Y-4650000D03*
X3500000Y-15350000D03*
%TD*%
D15*
%TO.C,R4*%
X15000000Y-6825000D03*
X15000000Y-5175000D03*
%TD*%
M02*
