%TF.GenerationSoftware,KiCad,Pcbnew,9.0.2*%
%TF.CreationDate,2025-07-10T11:39:35+02:00*%
%TF.ProjectId,iagabel,69616761-6265-46c2-9e6b-696361645f70,rev?*%
%TF.SameCoordinates,Original*%
%TF.FileFunction,Profile,NP*%
%FSLAX46Y46*%
G04 Gerber Fmt 4.6, Leading zero omitted, Abs format (unit mm)*
G04 Created by KiCad (PCBNEW 9.0.2) date 2025-07-10 11:39:35*
%MOMM*%
%LPD*%
G01*
G04 APERTURE LIST*
%TA.AperFunction,Profile*%
%ADD10C,0.050000*%
%TD*%
G04 APERTURE END LIST*
D10*
X20800000Y-4999999D02*
X39200000Y-4999999D01*
X12683300Y1D02*
G75*
G02*
X11916647Y571435I0J800000D01*
G01*
X40000000Y-14199999D02*
X40000000Y-12683299D01*
X8083370Y571430D02*
G75*
G02*
X7316740Y1I-766630J228541D01*
G01*
X20000000Y-799999D02*
X20000000Y-4199999D01*
X0Y-800000D02*
G75*
G02*
X800001Y1I800001J0D01*
G01*
X12688666Y-19999999D02*
X19200000Y-19999999D01*
X0Y-800000D02*
X0Y-19199999D01*
X800000Y-19999999D02*
G75*
G02*
X0Y-19199999I0J800000D01*
G01*
X40571429Y-8083369D02*
G75*
G02*
X40000001Y-7311333I228571J766670D01*
G01*
X7316700Y-19999999D02*
G75*
G02*
X8083353Y-20571433I0J-800000D01*
G01*
X800001Y1D02*
X7316740Y1D01*
X11916630Y-20571428D02*
G75*
G02*
X12688666Y-20000000I766670J-228571D01*
G01*
X20000000Y-19199999D02*
G75*
G02*
X19200000Y-19999999I-800000J0D01*
G01*
X20000000Y-15799999D02*
G75*
G02*
X20800000Y-14999999I800000J0D01*
G01*
X40000000Y-14199999D02*
G75*
G02*
X39200000Y-14999999I-800000J0D01*
G01*
X19200000Y1D02*
G75*
G02*
X20000000Y-799999I0J-800000D01*
G01*
X20000000Y-19199999D02*
X20000000Y-15799999D01*
X20800000Y-4999999D02*
G75*
G02*
X20000000Y-4199999I0J800000D01*
G01*
X20800000Y-14999999D02*
X39200000Y-14999999D01*
X40571429Y-8083369D02*
G75*
G02*
X40571429Y-11916629I-571429J-1916630D01*
G01*
X40000000Y-7311333D02*
X40000000Y-5799999D01*
X8083370Y571430D02*
G75*
G02*
X11916630Y571430I1916630J-571430D01*
G01*
X12683300Y1D02*
X19200000Y1D01*
X39200000Y-4999999D02*
G75*
G02*
X40000000Y-5799999I0J-800000D01*
G01*
X800000Y-19999999D02*
X7316700Y-19999999D01*
X40000000Y-12683299D02*
G75*
G02*
X40571434Y-11916646I800000J0D01*
G01*
X11916630Y-20571428D02*
G75*
G02*
X8083370Y-20571428I-1916630J571430D01*
G01*
M02*
