M48
; DRILL file {KiCad 9.0.2} date 2025-07-10T11:39:38+0200
; FORMAT={-:-/ absolute / metric / decimal}
; #@! TF.CreationDate,2025-07-10T11:39:38+02:00
; #@! TF.GenerationSoftware,Kicad,Pcbnew,9.0.2
; #@! TF.FileFunction,Plated,1,2,PTH
FMAT,2
METRIC
; #@! TA.AperFunction,Plated,PTH,ViaDrill
T1C0.300
%
G90
G05
T1
X3.0Y-7.5
X3.0Y-9.0
X3.0Y-10.5
X3.0Y-12.0
X4.5Y-7.5
X4.5Y-9.0
X4.5Y-10.5
X4.5Y-12.0
X7.0Y-16.0
X8.0Y-10.0
X9.0Y-4.5
X11.0Y-14.5
X11.5Y-4.5
X12.0Y-14.5
X13.5Y-2.5
X13.5Y-3.5
X13.5Y-9.5
X13.5Y-10.5
X15.0Y-8.0
X17.0Y-8.0
X17.9Y-3.6
X20.0Y-8.0
X21.0Y-14.0
X21.5Y-9.0
X22.0Y-14.0
X23.5Y-9.0
X26.5Y-7.5
X27.0Y-12.5
X27.0Y-14.0
X28.0Y-7.5
X29.0Y-12.5
X29.0Y-14.0
X30.8Y-9.7
X34.0Y-10.0
X35.0Y-10.0
X38.0Y-7.0
X38.0Y-10.0
X38.0Y-13.0
M30
