%TF.GenerationSoftware,KiCad,Pcbnew,9.0.3*%
%TF.CreationDate,2025-07-12T02:05:46+02:00*%
%TF.ProjectId,ialed,69616c65-642e-46b6-9963-61645f706362,rev?*%
%TF.SameCoordinates,Original*%
%TF.FileFunction,Drillmap*%
%TF.FilePolarity,Positive*%
%FSLAX45Y45*%
G04 Gerber Fmt 4.5, Leading zero omitted, Abs format (unit mm)*
G04 Created by KiCad (PCBNEW 9.0.3) date 2025-07-12 02:05:46*
%MOMM*%
%LPD*%
G01*
G04 APERTURE LIST*
%ADD10C,0.050000*%
%ADD11C,0.200000*%
%ADD12C,0.220000*%
G04 APERTURE END LIST*
D10*
X1200000Y0D02*
X1920000Y0D01*
X800000Y0D02*
G75*
G02*
X1200000Y0I200000J0D01*
G01*
X2000000Y-1920000D02*
X2000000Y-80000D01*
X0Y-1920000D02*
X0Y-80000D01*
X80000Y0D02*
X800000Y0D01*
X80000Y-2000000D02*
X800000Y-2000000D01*
X2000000Y-1920000D02*
G75*
G02*
X1920000Y-2000000I-80000J0D01*
G01*
X1200000Y-2000000D02*
G75*
G02*
X800000Y-2000000I-200000J0D01*
G01*
X1200000Y-2000000D02*
X1920000Y-2000000D01*
X0Y-80000D02*
G75*
G02*
X80000Y0I80000J0D01*
G01*
X80000Y-2000000D02*
G75*
G02*
X0Y-1920000I0J80000D01*
G01*
X1920000Y0D02*
G75*
G02*
X2000000Y-80000I0J-80000D01*
G01*
D11*
D12*
X890000Y110000D02*
X1110000Y-110000D01*
X1110000Y110000D02*
X890000Y-110000D01*
X890000Y-1890000D02*
X1110000Y-2110000D01*
X1110000Y-1890000D02*
X890000Y-2110000D01*
D11*
X258277Y-2513984D02*
X258277Y-2313984D01*
X258277Y-2313984D02*
X305896Y-2313984D01*
X305896Y-2313984D02*
X334467Y-2323508D01*
X334467Y-2323508D02*
X353515Y-2342555D01*
X353515Y-2342555D02*
X363039Y-2361603D01*
X363039Y-2361603D02*
X372562Y-2399698D01*
X372562Y-2399698D02*
X372562Y-2428270D01*
X372562Y-2428270D02*
X363039Y-2466365D01*
X363039Y-2466365D02*
X353515Y-2485412D01*
X353515Y-2485412D02*
X334467Y-2504460D01*
X334467Y-2504460D02*
X305896Y-2513984D01*
X305896Y-2513984D02*
X258277Y-2513984D01*
X458277Y-2513984D02*
X458277Y-2380650D01*
X458277Y-2418746D02*
X467801Y-2399698D01*
X467801Y-2399698D02*
X477324Y-2390174D01*
X477324Y-2390174D02*
X496372Y-2380650D01*
X496372Y-2380650D02*
X515420Y-2380650D01*
X582086Y-2513984D02*
X582086Y-2380650D01*
X582086Y-2313984D02*
X572563Y-2323508D01*
X572563Y-2323508D02*
X582086Y-2333031D01*
X582086Y-2333031D02*
X591610Y-2323508D01*
X591610Y-2323508D02*
X582086Y-2313984D01*
X582086Y-2313984D02*
X582086Y-2333031D01*
X705896Y-2513984D02*
X686848Y-2504460D01*
X686848Y-2504460D02*
X677324Y-2485412D01*
X677324Y-2485412D02*
X677324Y-2313984D01*
X810658Y-2513984D02*
X791610Y-2504460D01*
X791610Y-2504460D02*
X782086Y-2485412D01*
X782086Y-2485412D02*
X782086Y-2313984D01*
X1039229Y-2513984D02*
X1039229Y-2313984D01*
X1039229Y-2313984D02*
X1105896Y-2456841D01*
X1105896Y-2456841D02*
X1172563Y-2313984D01*
X1172563Y-2313984D02*
X1172563Y-2513984D01*
X1353515Y-2513984D02*
X1353515Y-2409222D01*
X1353515Y-2409222D02*
X1343991Y-2390174D01*
X1343991Y-2390174D02*
X1324944Y-2380650D01*
X1324944Y-2380650D02*
X1286848Y-2380650D01*
X1286848Y-2380650D02*
X1267801Y-2390174D01*
X1353515Y-2504460D02*
X1334467Y-2513984D01*
X1334467Y-2513984D02*
X1286848Y-2513984D01*
X1286848Y-2513984D02*
X1267801Y-2504460D01*
X1267801Y-2504460D02*
X1258277Y-2485412D01*
X1258277Y-2485412D02*
X1258277Y-2466365D01*
X1258277Y-2466365D02*
X1267801Y-2447317D01*
X1267801Y-2447317D02*
X1286848Y-2437793D01*
X1286848Y-2437793D02*
X1334467Y-2437793D01*
X1334467Y-2437793D02*
X1353515Y-2428270D01*
X1448753Y-2380650D02*
X1448753Y-2580650D01*
X1448753Y-2390174D02*
X1467801Y-2380650D01*
X1467801Y-2380650D02*
X1505896Y-2380650D01*
X1505896Y-2380650D02*
X1524943Y-2390174D01*
X1524943Y-2390174D02*
X1534467Y-2399698D01*
X1534467Y-2399698D02*
X1543991Y-2418746D01*
X1543991Y-2418746D02*
X1543991Y-2475889D01*
X1543991Y-2475889D02*
X1534467Y-2494936D01*
X1534467Y-2494936D02*
X1524943Y-2504460D01*
X1524943Y-2504460D02*
X1505896Y-2513984D01*
X1505896Y-2513984D02*
X1467801Y-2513984D01*
X1467801Y-2513984D02*
X1448753Y-2504460D01*
X1629705Y-2494936D02*
X1639229Y-2504460D01*
X1639229Y-2504460D02*
X1629705Y-2513984D01*
X1629705Y-2513984D02*
X1620182Y-2504460D01*
X1620182Y-2504460D02*
X1629705Y-2494936D01*
X1629705Y-2494936D02*
X1629705Y-2513984D01*
X1629705Y-2390174D02*
X1639229Y-2399698D01*
X1639229Y-2399698D02*
X1629705Y-2409222D01*
X1629705Y-2409222D02*
X1620182Y-2399698D01*
X1620182Y-2399698D02*
X1629705Y-2390174D01*
X1629705Y-2390174D02*
X1629705Y-2409222D01*
X-202500Y-2742500D02*
X-2500Y-2942500D01*
X-2500Y-2742500D02*
X-202500Y-2942500D01*
X248753Y-2753031D02*
X258277Y-2743508D01*
X258277Y-2743508D02*
X277324Y-2733984D01*
X277324Y-2733984D02*
X324944Y-2733984D01*
X324944Y-2733984D02*
X343991Y-2743508D01*
X343991Y-2743508D02*
X353515Y-2753031D01*
X353515Y-2753031D02*
X363039Y-2772079D01*
X363039Y-2772079D02*
X363039Y-2791127D01*
X363039Y-2791127D02*
X353515Y-2819698D01*
X353515Y-2819698D02*
X239229Y-2933984D01*
X239229Y-2933984D02*
X363039Y-2933984D01*
X448753Y-2914936D02*
X458277Y-2924460D01*
X458277Y-2924460D02*
X448753Y-2933984D01*
X448753Y-2933984D02*
X439229Y-2924460D01*
X439229Y-2924460D02*
X448753Y-2914936D01*
X448753Y-2914936D02*
X448753Y-2933984D01*
X534467Y-2753031D02*
X543991Y-2743508D01*
X543991Y-2743508D02*
X563039Y-2733984D01*
X563039Y-2733984D02*
X610658Y-2733984D01*
X610658Y-2733984D02*
X629705Y-2743508D01*
X629705Y-2743508D02*
X639229Y-2753031D01*
X639229Y-2753031D02*
X648753Y-2772079D01*
X648753Y-2772079D02*
X648753Y-2791127D01*
X648753Y-2791127D02*
X639229Y-2819698D01*
X639229Y-2819698D02*
X524944Y-2933984D01*
X524944Y-2933984D02*
X648753Y-2933984D01*
X772562Y-2733984D02*
X791610Y-2733984D01*
X791610Y-2733984D02*
X810658Y-2743508D01*
X810658Y-2743508D02*
X820182Y-2753031D01*
X820182Y-2753031D02*
X829705Y-2772079D01*
X829705Y-2772079D02*
X839229Y-2810174D01*
X839229Y-2810174D02*
X839229Y-2857793D01*
X839229Y-2857793D02*
X829705Y-2895888D01*
X829705Y-2895888D02*
X820182Y-2914936D01*
X820182Y-2914936D02*
X810658Y-2924460D01*
X810658Y-2924460D02*
X791610Y-2933984D01*
X791610Y-2933984D02*
X772562Y-2933984D01*
X772562Y-2933984D02*
X753515Y-2924460D01*
X753515Y-2924460D02*
X743991Y-2914936D01*
X743991Y-2914936D02*
X734467Y-2895888D01*
X734467Y-2895888D02*
X724943Y-2857793D01*
X724943Y-2857793D02*
X724943Y-2810174D01*
X724943Y-2810174D02*
X734467Y-2772079D01*
X734467Y-2772079D02*
X743991Y-2753031D01*
X743991Y-2753031D02*
X753515Y-2743508D01*
X753515Y-2743508D02*
X772562Y-2733984D01*
X963039Y-2733984D02*
X982086Y-2733984D01*
X982086Y-2733984D02*
X1001134Y-2743508D01*
X1001134Y-2743508D02*
X1010658Y-2753031D01*
X1010658Y-2753031D02*
X1020182Y-2772079D01*
X1020182Y-2772079D02*
X1029705Y-2810174D01*
X1029705Y-2810174D02*
X1029705Y-2857793D01*
X1029705Y-2857793D02*
X1020182Y-2895888D01*
X1020182Y-2895888D02*
X1010658Y-2914936D01*
X1010658Y-2914936D02*
X1001134Y-2924460D01*
X1001134Y-2924460D02*
X982086Y-2933984D01*
X982086Y-2933984D02*
X963039Y-2933984D01*
X963039Y-2933984D02*
X943991Y-2924460D01*
X943991Y-2924460D02*
X934467Y-2914936D01*
X934467Y-2914936D02*
X924943Y-2895888D01*
X924943Y-2895888D02*
X915420Y-2857793D01*
X915420Y-2857793D02*
X915420Y-2810174D01*
X915420Y-2810174D02*
X924943Y-2772079D01*
X924943Y-2772079D02*
X934467Y-2753031D01*
X934467Y-2753031D02*
X943991Y-2743508D01*
X943991Y-2743508D02*
X963039Y-2733984D01*
X1115420Y-2933984D02*
X1115420Y-2800650D01*
X1115420Y-2819698D02*
X1124944Y-2810174D01*
X1124944Y-2810174D02*
X1143991Y-2800650D01*
X1143991Y-2800650D02*
X1172563Y-2800650D01*
X1172563Y-2800650D02*
X1191610Y-2810174D01*
X1191610Y-2810174D02*
X1201134Y-2829222D01*
X1201134Y-2829222D02*
X1201134Y-2933984D01*
X1201134Y-2829222D02*
X1210658Y-2810174D01*
X1210658Y-2810174D02*
X1229705Y-2800650D01*
X1229705Y-2800650D02*
X1258277Y-2800650D01*
X1258277Y-2800650D02*
X1277325Y-2810174D01*
X1277325Y-2810174D02*
X1286848Y-2829222D01*
X1286848Y-2829222D02*
X1286848Y-2933984D01*
X1382086Y-2933984D02*
X1382086Y-2800650D01*
X1382086Y-2819698D02*
X1391610Y-2810174D01*
X1391610Y-2810174D02*
X1410658Y-2800650D01*
X1410658Y-2800650D02*
X1439229Y-2800650D01*
X1439229Y-2800650D02*
X1458277Y-2810174D01*
X1458277Y-2810174D02*
X1467801Y-2829222D01*
X1467801Y-2829222D02*
X1467801Y-2933984D01*
X1467801Y-2829222D02*
X1477324Y-2810174D01*
X1477324Y-2810174D02*
X1496372Y-2800650D01*
X1496372Y-2800650D02*
X1524943Y-2800650D01*
X1524943Y-2800650D02*
X1543991Y-2810174D01*
X1543991Y-2810174D02*
X1553515Y-2829222D01*
X1553515Y-2829222D02*
X1553515Y-2933984D01*
X1943991Y-2724460D02*
X1772563Y-2981603D01*
X2201134Y-2733984D02*
X2220182Y-2733984D01*
X2220182Y-2733984D02*
X2239229Y-2743508D01*
X2239229Y-2743508D02*
X2248753Y-2753031D01*
X2248753Y-2753031D02*
X2258277Y-2772079D01*
X2258277Y-2772079D02*
X2267801Y-2810174D01*
X2267801Y-2810174D02*
X2267801Y-2857793D01*
X2267801Y-2857793D02*
X2258277Y-2895888D01*
X2258277Y-2895888D02*
X2248753Y-2914936D01*
X2248753Y-2914936D02*
X2239229Y-2924460D01*
X2239229Y-2924460D02*
X2220182Y-2933984D01*
X2220182Y-2933984D02*
X2201134Y-2933984D01*
X2201134Y-2933984D02*
X2182087Y-2924460D01*
X2182087Y-2924460D02*
X2172563Y-2914936D01*
X2172563Y-2914936D02*
X2163039Y-2895888D01*
X2163039Y-2895888D02*
X2153515Y-2857793D01*
X2153515Y-2857793D02*
X2153515Y-2810174D01*
X2153515Y-2810174D02*
X2163039Y-2772079D01*
X2163039Y-2772079D02*
X2172563Y-2753031D01*
X2172563Y-2753031D02*
X2182087Y-2743508D01*
X2182087Y-2743508D02*
X2201134Y-2733984D01*
X2353515Y-2914936D02*
X2363039Y-2924460D01*
X2363039Y-2924460D02*
X2353515Y-2933984D01*
X2353515Y-2933984D02*
X2343991Y-2924460D01*
X2343991Y-2924460D02*
X2353515Y-2914936D01*
X2353515Y-2914936D02*
X2353515Y-2933984D01*
X2486848Y-2733984D02*
X2505896Y-2733984D01*
X2505896Y-2733984D02*
X2524944Y-2743508D01*
X2524944Y-2743508D02*
X2534468Y-2753031D01*
X2534468Y-2753031D02*
X2543991Y-2772079D01*
X2543991Y-2772079D02*
X2553515Y-2810174D01*
X2553515Y-2810174D02*
X2553515Y-2857793D01*
X2553515Y-2857793D02*
X2543991Y-2895888D01*
X2543991Y-2895888D02*
X2534468Y-2914936D01*
X2534468Y-2914936D02*
X2524944Y-2924460D01*
X2524944Y-2924460D02*
X2505896Y-2933984D01*
X2505896Y-2933984D02*
X2486848Y-2933984D01*
X2486848Y-2933984D02*
X2467801Y-2924460D01*
X2467801Y-2924460D02*
X2458277Y-2914936D01*
X2458277Y-2914936D02*
X2448753Y-2895888D01*
X2448753Y-2895888D02*
X2439229Y-2857793D01*
X2439229Y-2857793D02*
X2439229Y-2810174D01*
X2439229Y-2810174D02*
X2448753Y-2772079D01*
X2448753Y-2772079D02*
X2458277Y-2753031D01*
X2458277Y-2753031D02*
X2467801Y-2743508D01*
X2467801Y-2743508D02*
X2486848Y-2733984D01*
X2667801Y-2819698D02*
X2648753Y-2810174D01*
X2648753Y-2810174D02*
X2639229Y-2800650D01*
X2639229Y-2800650D02*
X2629706Y-2781603D01*
X2629706Y-2781603D02*
X2629706Y-2772079D01*
X2629706Y-2772079D02*
X2639229Y-2753031D01*
X2639229Y-2753031D02*
X2648753Y-2743508D01*
X2648753Y-2743508D02*
X2667801Y-2733984D01*
X2667801Y-2733984D02*
X2705896Y-2733984D01*
X2705896Y-2733984D02*
X2724944Y-2743508D01*
X2724944Y-2743508D02*
X2734468Y-2753031D01*
X2734468Y-2753031D02*
X2743991Y-2772079D01*
X2743991Y-2772079D02*
X2743991Y-2781603D01*
X2743991Y-2781603D02*
X2734468Y-2800650D01*
X2734468Y-2800650D02*
X2724944Y-2810174D01*
X2724944Y-2810174D02*
X2705896Y-2819698D01*
X2705896Y-2819698D02*
X2667801Y-2819698D01*
X2667801Y-2819698D02*
X2648753Y-2829222D01*
X2648753Y-2829222D02*
X2639229Y-2838746D01*
X2639229Y-2838746D02*
X2629706Y-2857793D01*
X2629706Y-2857793D02*
X2629706Y-2895888D01*
X2629706Y-2895888D02*
X2639229Y-2914936D01*
X2639229Y-2914936D02*
X2648753Y-2924460D01*
X2648753Y-2924460D02*
X2667801Y-2933984D01*
X2667801Y-2933984D02*
X2705896Y-2933984D01*
X2705896Y-2933984D02*
X2724944Y-2924460D01*
X2724944Y-2924460D02*
X2734468Y-2914936D01*
X2734468Y-2914936D02*
X2743991Y-2895888D01*
X2743991Y-2895888D02*
X2743991Y-2857793D01*
X2743991Y-2857793D02*
X2734468Y-2838746D01*
X2734468Y-2838746D02*
X2724944Y-2829222D01*
X2724944Y-2829222D02*
X2705896Y-2819698D01*
X2915420Y-2733984D02*
X2877325Y-2733984D01*
X2877325Y-2733984D02*
X2858277Y-2743508D01*
X2858277Y-2743508D02*
X2848753Y-2753031D01*
X2848753Y-2753031D02*
X2829706Y-2781603D01*
X2829706Y-2781603D02*
X2820182Y-2819698D01*
X2820182Y-2819698D02*
X2820182Y-2895888D01*
X2820182Y-2895888D02*
X2829706Y-2914936D01*
X2829706Y-2914936D02*
X2839229Y-2924460D01*
X2839229Y-2924460D02*
X2858277Y-2933984D01*
X2858277Y-2933984D02*
X2896372Y-2933984D01*
X2896372Y-2933984D02*
X2915420Y-2924460D01*
X2915420Y-2924460D02*
X2924944Y-2914936D01*
X2924944Y-2914936D02*
X2934467Y-2895888D01*
X2934467Y-2895888D02*
X2934467Y-2848269D01*
X2934467Y-2848269D02*
X2924944Y-2829222D01*
X2924944Y-2829222D02*
X2915420Y-2819698D01*
X2915420Y-2819698D02*
X2896372Y-2810174D01*
X2896372Y-2810174D02*
X2858277Y-2810174D01*
X2858277Y-2810174D02*
X2839229Y-2819698D01*
X2839229Y-2819698D02*
X2829706Y-2829222D01*
X2829706Y-2829222D02*
X2820182Y-2848269D01*
X3105896Y-2733984D02*
X3067801Y-2733984D01*
X3067801Y-2733984D02*
X3048753Y-2743508D01*
X3048753Y-2743508D02*
X3039229Y-2753031D01*
X3039229Y-2753031D02*
X3020182Y-2781603D01*
X3020182Y-2781603D02*
X3010658Y-2819698D01*
X3010658Y-2819698D02*
X3010658Y-2895888D01*
X3010658Y-2895888D02*
X3020182Y-2914936D01*
X3020182Y-2914936D02*
X3029706Y-2924460D01*
X3029706Y-2924460D02*
X3048753Y-2933984D01*
X3048753Y-2933984D02*
X3086848Y-2933984D01*
X3086848Y-2933984D02*
X3105896Y-2924460D01*
X3105896Y-2924460D02*
X3115420Y-2914936D01*
X3115420Y-2914936D02*
X3124944Y-2895888D01*
X3124944Y-2895888D02*
X3124944Y-2848269D01*
X3124944Y-2848269D02*
X3115420Y-2829222D01*
X3115420Y-2829222D02*
X3105896Y-2819698D01*
X3105896Y-2819698D02*
X3086848Y-2810174D01*
X3086848Y-2810174D02*
X3048753Y-2810174D01*
X3048753Y-2810174D02*
X3029706Y-2819698D01*
X3029706Y-2819698D02*
X3020182Y-2829222D01*
X3020182Y-2829222D02*
X3010658Y-2848269D01*
X3201134Y-2733984D02*
X3201134Y-2772079D01*
X3277325Y-2733984D02*
X3277325Y-2772079D01*
X3572563Y-3010174D02*
X3563039Y-3000650D01*
X3563039Y-3000650D02*
X3543991Y-2972079D01*
X3543991Y-2972079D02*
X3534468Y-2953031D01*
X3534468Y-2953031D02*
X3524944Y-2924460D01*
X3524944Y-2924460D02*
X3515420Y-2876841D01*
X3515420Y-2876841D02*
X3515420Y-2838746D01*
X3515420Y-2838746D02*
X3524944Y-2791127D01*
X3524944Y-2791127D02*
X3534468Y-2762555D01*
X3534468Y-2762555D02*
X3543991Y-2743508D01*
X3543991Y-2743508D02*
X3563039Y-2714936D01*
X3563039Y-2714936D02*
X3572563Y-2705412D01*
X3639229Y-2753031D02*
X3648753Y-2743508D01*
X3648753Y-2743508D02*
X3667801Y-2733984D01*
X3667801Y-2733984D02*
X3715420Y-2733984D01*
X3715420Y-2733984D02*
X3734468Y-2743508D01*
X3734468Y-2743508D02*
X3743991Y-2753031D01*
X3743991Y-2753031D02*
X3753515Y-2772079D01*
X3753515Y-2772079D02*
X3753515Y-2791127D01*
X3753515Y-2791127D02*
X3743991Y-2819698D01*
X3743991Y-2819698D02*
X3629706Y-2933984D01*
X3629706Y-2933984D02*
X3753515Y-2933984D01*
X3991610Y-2933984D02*
X3991610Y-2733984D01*
X4077325Y-2933984D02*
X4077325Y-2829222D01*
X4077325Y-2829222D02*
X4067801Y-2810174D01*
X4067801Y-2810174D02*
X4048753Y-2800650D01*
X4048753Y-2800650D02*
X4020182Y-2800650D01*
X4020182Y-2800650D02*
X4001134Y-2810174D01*
X4001134Y-2810174D02*
X3991610Y-2819698D01*
X4201134Y-2933984D02*
X4182087Y-2924460D01*
X4182087Y-2924460D02*
X4172563Y-2914936D01*
X4172563Y-2914936D02*
X4163039Y-2895888D01*
X4163039Y-2895888D02*
X4163039Y-2838746D01*
X4163039Y-2838746D02*
X4172563Y-2819698D01*
X4172563Y-2819698D02*
X4182087Y-2810174D01*
X4182087Y-2810174D02*
X4201134Y-2800650D01*
X4201134Y-2800650D02*
X4229706Y-2800650D01*
X4229706Y-2800650D02*
X4248753Y-2810174D01*
X4248753Y-2810174D02*
X4258277Y-2819698D01*
X4258277Y-2819698D02*
X4267801Y-2838746D01*
X4267801Y-2838746D02*
X4267801Y-2895888D01*
X4267801Y-2895888D02*
X4258277Y-2914936D01*
X4258277Y-2914936D02*
X4248753Y-2924460D01*
X4248753Y-2924460D02*
X4229706Y-2933984D01*
X4229706Y-2933984D02*
X4201134Y-2933984D01*
X4382087Y-2933984D02*
X4363039Y-2924460D01*
X4363039Y-2924460D02*
X4353515Y-2905412D01*
X4353515Y-2905412D02*
X4353515Y-2733984D01*
X4534468Y-2924460D02*
X4515420Y-2933984D01*
X4515420Y-2933984D02*
X4477325Y-2933984D01*
X4477325Y-2933984D02*
X4458277Y-2924460D01*
X4458277Y-2924460D02*
X4448753Y-2905412D01*
X4448753Y-2905412D02*
X4448753Y-2829222D01*
X4448753Y-2829222D02*
X4458277Y-2810174D01*
X4458277Y-2810174D02*
X4477325Y-2800650D01*
X4477325Y-2800650D02*
X4515420Y-2800650D01*
X4515420Y-2800650D02*
X4534468Y-2810174D01*
X4534468Y-2810174D02*
X4543992Y-2829222D01*
X4543992Y-2829222D02*
X4543992Y-2848269D01*
X4543992Y-2848269D02*
X4448753Y-2867317D01*
X4620182Y-2924460D02*
X4639230Y-2933984D01*
X4639230Y-2933984D02*
X4677325Y-2933984D01*
X4677325Y-2933984D02*
X4696373Y-2924460D01*
X4696373Y-2924460D02*
X4705896Y-2905412D01*
X4705896Y-2905412D02*
X4705896Y-2895888D01*
X4705896Y-2895888D02*
X4696373Y-2876841D01*
X4696373Y-2876841D02*
X4677325Y-2867317D01*
X4677325Y-2867317D02*
X4648753Y-2867317D01*
X4648753Y-2867317D02*
X4629706Y-2857793D01*
X4629706Y-2857793D02*
X4620182Y-2838746D01*
X4620182Y-2838746D02*
X4620182Y-2829222D01*
X4620182Y-2829222D02*
X4629706Y-2810174D01*
X4629706Y-2810174D02*
X4648753Y-2800650D01*
X4648753Y-2800650D02*
X4677325Y-2800650D01*
X4677325Y-2800650D02*
X4696373Y-2810174D01*
X4772563Y-3010174D02*
X4782087Y-3000650D01*
X4782087Y-3000650D02*
X4801134Y-2972079D01*
X4801134Y-2972079D02*
X4810658Y-2953031D01*
X4810658Y-2953031D02*
X4820182Y-2924460D01*
X4820182Y-2924460D02*
X4829706Y-2876841D01*
X4829706Y-2876841D02*
X4829706Y-2838746D01*
X4829706Y-2838746D02*
X4820182Y-2791127D01*
X4820182Y-2791127D02*
X4810658Y-2762555D01*
X4810658Y-2762555D02*
X4801134Y-2743508D01*
X4801134Y-2743508D02*
X4782087Y-2714936D01*
X4782087Y-2714936D02*
X4772563Y-2705412D01*
X5134468Y-3010174D02*
X5124944Y-3000650D01*
X5124944Y-3000650D02*
X5105896Y-2972079D01*
X5105896Y-2972079D02*
X5096373Y-2953031D01*
X5096373Y-2953031D02*
X5086849Y-2924460D01*
X5086849Y-2924460D02*
X5077325Y-2876841D01*
X5077325Y-2876841D02*
X5077325Y-2838746D01*
X5077325Y-2838746D02*
X5086849Y-2791127D01*
X5086849Y-2791127D02*
X5096373Y-2762555D01*
X5096373Y-2762555D02*
X5105896Y-2743508D01*
X5105896Y-2743508D02*
X5124944Y-2714936D01*
X5124944Y-2714936D02*
X5134468Y-2705412D01*
X5210658Y-2800650D02*
X5210658Y-2933984D01*
X5210658Y-2819698D02*
X5220182Y-2810174D01*
X5220182Y-2810174D02*
X5239230Y-2800650D01*
X5239230Y-2800650D02*
X5267801Y-2800650D01*
X5267801Y-2800650D02*
X5286849Y-2810174D01*
X5286849Y-2810174D02*
X5296373Y-2829222D01*
X5296373Y-2829222D02*
X5296373Y-2933984D01*
X5420182Y-2933984D02*
X5401134Y-2924460D01*
X5401134Y-2924460D02*
X5391611Y-2914936D01*
X5391611Y-2914936D02*
X5382087Y-2895888D01*
X5382087Y-2895888D02*
X5382087Y-2838746D01*
X5382087Y-2838746D02*
X5391611Y-2819698D01*
X5391611Y-2819698D02*
X5401134Y-2810174D01*
X5401134Y-2810174D02*
X5420182Y-2800650D01*
X5420182Y-2800650D02*
X5448754Y-2800650D01*
X5448754Y-2800650D02*
X5467801Y-2810174D01*
X5467801Y-2810174D02*
X5477325Y-2819698D01*
X5477325Y-2819698D02*
X5486849Y-2838746D01*
X5486849Y-2838746D02*
X5486849Y-2895888D01*
X5486849Y-2895888D02*
X5477325Y-2914936D01*
X5477325Y-2914936D02*
X5467801Y-2924460D01*
X5467801Y-2924460D02*
X5448754Y-2933984D01*
X5448754Y-2933984D02*
X5420182Y-2933984D01*
X5543992Y-2800650D02*
X5620182Y-2800650D01*
X5572563Y-2733984D02*
X5572563Y-2905412D01*
X5572563Y-2905412D02*
X5582087Y-2924460D01*
X5582087Y-2924460D02*
X5601134Y-2933984D01*
X5601134Y-2933984D02*
X5620182Y-2933984D01*
X5839230Y-2800650D02*
X5839230Y-3000650D01*
X5839230Y-2810174D02*
X5858277Y-2800650D01*
X5858277Y-2800650D02*
X5896373Y-2800650D01*
X5896373Y-2800650D02*
X5915420Y-2810174D01*
X5915420Y-2810174D02*
X5924944Y-2819698D01*
X5924944Y-2819698D02*
X5934468Y-2838746D01*
X5934468Y-2838746D02*
X5934468Y-2895888D01*
X5934468Y-2895888D02*
X5924944Y-2914936D01*
X5924944Y-2914936D02*
X5915420Y-2924460D01*
X5915420Y-2924460D02*
X5896373Y-2933984D01*
X5896373Y-2933984D02*
X5858277Y-2933984D01*
X5858277Y-2933984D02*
X5839230Y-2924460D01*
X6048753Y-2933984D02*
X6029706Y-2924460D01*
X6029706Y-2924460D02*
X6020182Y-2905412D01*
X6020182Y-2905412D02*
X6020182Y-2733984D01*
X6210658Y-2933984D02*
X6210658Y-2829222D01*
X6210658Y-2829222D02*
X6201134Y-2810174D01*
X6201134Y-2810174D02*
X6182087Y-2800650D01*
X6182087Y-2800650D02*
X6143992Y-2800650D01*
X6143992Y-2800650D02*
X6124944Y-2810174D01*
X6210658Y-2924460D02*
X6191611Y-2933984D01*
X6191611Y-2933984D02*
X6143992Y-2933984D01*
X6143992Y-2933984D02*
X6124944Y-2924460D01*
X6124944Y-2924460D02*
X6115420Y-2905412D01*
X6115420Y-2905412D02*
X6115420Y-2886365D01*
X6115420Y-2886365D02*
X6124944Y-2867317D01*
X6124944Y-2867317D02*
X6143992Y-2857793D01*
X6143992Y-2857793D02*
X6191611Y-2857793D01*
X6191611Y-2857793D02*
X6210658Y-2848269D01*
X6277325Y-2800650D02*
X6353515Y-2800650D01*
X6305896Y-2733984D02*
X6305896Y-2905412D01*
X6305896Y-2905412D02*
X6315420Y-2924460D01*
X6315420Y-2924460D02*
X6334468Y-2933984D01*
X6334468Y-2933984D02*
X6353515Y-2933984D01*
X6496373Y-2924460D02*
X6477325Y-2933984D01*
X6477325Y-2933984D02*
X6439230Y-2933984D01*
X6439230Y-2933984D02*
X6420182Y-2924460D01*
X6420182Y-2924460D02*
X6410658Y-2905412D01*
X6410658Y-2905412D02*
X6410658Y-2829222D01*
X6410658Y-2829222D02*
X6420182Y-2810174D01*
X6420182Y-2810174D02*
X6439230Y-2800650D01*
X6439230Y-2800650D02*
X6477325Y-2800650D01*
X6477325Y-2800650D02*
X6496373Y-2810174D01*
X6496373Y-2810174D02*
X6505896Y-2829222D01*
X6505896Y-2829222D02*
X6505896Y-2848269D01*
X6505896Y-2848269D02*
X6410658Y-2867317D01*
X6677325Y-2933984D02*
X6677325Y-2733984D01*
X6677325Y-2924460D02*
X6658277Y-2933984D01*
X6658277Y-2933984D02*
X6620182Y-2933984D01*
X6620182Y-2933984D02*
X6601134Y-2924460D01*
X6601134Y-2924460D02*
X6591611Y-2914936D01*
X6591611Y-2914936D02*
X6582087Y-2895888D01*
X6582087Y-2895888D02*
X6582087Y-2838746D01*
X6582087Y-2838746D02*
X6591611Y-2819698D01*
X6591611Y-2819698D02*
X6601134Y-2810174D01*
X6601134Y-2810174D02*
X6620182Y-2800650D01*
X6620182Y-2800650D02*
X6658277Y-2800650D01*
X6658277Y-2800650D02*
X6677325Y-2810174D01*
X6753515Y-3010174D02*
X6763039Y-3000650D01*
X6763039Y-3000650D02*
X6782087Y-2972079D01*
X6782087Y-2972079D02*
X6791611Y-2953031D01*
X6791611Y-2953031D02*
X6801134Y-2924460D01*
X6801134Y-2924460D02*
X6810658Y-2876841D01*
X6810658Y-2876841D02*
X6810658Y-2838746D01*
X6810658Y-2838746D02*
X6801134Y-2791127D01*
X6801134Y-2791127D02*
X6791611Y-2762555D01*
X6791611Y-2762555D02*
X6782087Y-2743508D01*
X6782087Y-2743508D02*
X6763039Y-2714936D01*
X6763039Y-2714936D02*
X6753515Y-2705412D01*
M02*
