%TF.GenerationSoftware,KiCad,Pcbnew,8.0.4*%
%TF.CreationDate,2024-09-18T19:52:05+02:00*%
%TF.ProjectId,fredo,66726564-6f2e-46b6-9963-61645f706362,rev?*%
%TF.SameCoordinates,Original*%
%TF.FileFunction,Soldermask,Top*%
%TF.FilePolarity,Negative*%
%FSLAX46Y46*%
G04 Gerber Fmt 4.6, Leading zero omitted, Abs format (unit mm)*
G04 Created by KiCad (PCBNEW 8.0.4) date 2024-09-18 19:52:05*
%MOMM*%
%LPD*%
G01*
G04 APERTURE LIST*
G04 Aperture macros list*
%AMRoundRect*
0 Rectangle with rounded corners*
0 $1 Rounding radius*
0 $2 $3 $4 $5 $6 $7 $8 $9 X,Y pos of 4 corners*
0 Add a 4 corners polygon primitive as box body*
4,1,4,$2,$3,$4,$5,$6,$7,$8,$9,$2,$3,0*
0 Add four circle primitives for the rounded corners*
1,1,$1+$1,$2,$3*
1,1,$1+$1,$4,$5*
1,1,$1+$1,$6,$7*
1,1,$1+$1,$8,$9*
0 Add four rect primitives between the rounded corners*
20,1,$1+$1,$2,$3,$4,$5,0*
20,1,$1+$1,$4,$5,$6,$7,0*
20,1,$1+$1,$6,$7,$8,$9,0*
20,1,$1+$1,$8,$9,$2,$3,0*%
G04 Aperture macros list end*
%ADD10R,1.200000X1.200000*%
%ADD11R,1.000000X3.000000*%
%ADD12R,1.550000X2.600000*%
%ADD13R,0.990600X0.711200*%
%ADD14R,0.249999X0.499999*%
%ADD15R,2.000001X0.900001*%
%ADD16RoundRect,0.250000X-0.250000X-2.500000X0.250000X-2.500000X0.250000X2.500000X-0.250000X2.500000X0*%
%ADD17RoundRect,0.250000X-0.550000X-1.250000X0.550000X-1.250000X0.550000X1.250000X-0.550000X1.250000X0*%
%ADD18C,4.400000*%
%ADD19C,1.600000*%
%ADD20R,3.000000X1.000000*%
%ADD21RoundRect,0.140000X-0.140000X-0.170000X0.140000X-0.170000X0.140000X0.170000X-0.140000X0.170000X0*%
%ADD22RoundRect,0.250000X-0.550000X1.412500X-0.550000X-1.412500X0.550000X-1.412500X0.550000X1.412500X0*%
%ADD23RoundRect,0.150000X0.150000X-0.587500X0.150000X0.587500X-0.150000X0.587500X-0.150000X-0.587500X0*%
G04 APERTURE END LIST*
D10*
%TO.C,D1*%
X63000000Y-45000000D03*
X60200000Y-45000000D03*
%TD*%
D11*
%TO.C,A1*%
X80000000Y-66000000D03*
X82000000Y-66000000D03*
X84000000Y-66000000D03*
X86000000Y-66000000D03*
D12*
X77425000Y-62510840D03*
X88575000Y-62510840D03*
%TD*%
D13*
%TO.C,SW1*%
X81749999Y-80425001D03*
X86250001Y-80425001D03*
X81749999Y-82574999D03*
X86250001Y-82574999D03*
%TD*%
D14*
%TO.C,U1*%
X61500000Y-85950001D03*
X62000002Y-85950001D03*
X62500000Y-85950001D03*
X63000000Y-85950001D03*
X63500001Y-85950001D03*
X64000000Y-85950001D03*
X64000000Y-84050002D03*
X63500001Y-84050002D03*
X63000000Y-84050002D03*
X62500000Y-84050002D03*
X62000002Y-84050002D03*
X61500000Y-84050002D03*
D15*
X62750000Y-85000000D03*
%TD*%
D16*
%TO.C,MotL1*%
X67000000Y-95500000D03*
X69000000Y-95500000D03*
D17*
X64600000Y-93250000D03*
X71400000Y-93250000D03*
%TD*%
D18*
%TO.C,H3*%
X87000000Y-87000000D03*
%TD*%
D19*
%TO.C,J1*%
X50820000Y-39370000D03*
X50820000Y-85090000D03*
D20*
X53340000Y-38100000D03*
X48300000Y-38100000D03*
X53340000Y-40640000D03*
X48300000Y-40640000D03*
X53340000Y-43180000D03*
X48300000Y-43180000D03*
X53340000Y-45720000D03*
X48300000Y-45720000D03*
X53340000Y-48260000D03*
X48300000Y-48260000D03*
X53340000Y-50800000D03*
X48300000Y-50800000D03*
X53340000Y-53340000D03*
X48300000Y-53340000D03*
X53340000Y-55880000D03*
X48300000Y-55880000D03*
X53340000Y-58420000D03*
X48300000Y-58420000D03*
X53340000Y-60960000D03*
X48300000Y-60960000D03*
X53340000Y-63500000D03*
X48300000Y-63500000D03*
X53340000Y-66040000D03*
X48300000Y-66040000D03*
X53340000Y-68580000D03*
X48300000Y-68580000D03*
X53340000Y-71120000D03*
X48300000Y-71120000D03*
X53340000Y-73660000D03*
X48300000Y-73660000D03*
X53340000Y-76200000D03*
X48300000Y-76200000D03*
X53340000Y-78740000D03*
X48300000Y-78740000D03*
X53340000Y-81280000D03*
X48300000Y-81280000D03*
X53340000Y-83820000D03*
X48300000Y-83820000D03*
X53340000Y-86360000D03*
X48300000Y-86360000D03*
%TD*%
D11*
%TO.C,D20*%
X35500000Y-74000000D03*
X37500000Y-74000000D03*
X39500000Y-74000000D03*
X41500000Y-74000000D03*
D12*
X32925000Y-70510840D03*
X44075000Y-70510840D03*
%TD*%
D11*
%TO.C,I2C1*%
X80000000Y-50000000D03*
X82000000Y-50000000D03*
X84000000Y-50000000D03*
X86000000Y-50000000D03*
D12*
X77425000Y-46510840D03*
X88575000Y-46510840D03*
%TD*%
D11*
%TO.C,A2*%
X80000000Y-74000000D03*
X82000000Y-74000000D03*
X84000000Y-74000000D03*
X86000000Y-74000000D03*
D12*
X77425000Y-70510840D03*
X88575000Y-70510840D03*
%TD*%
D18*
%TO.C,H2*%
X34000000Y-96000000D03*
%TD*%
D16*
%TO.C,BAT0*%
X35500000Y-82000000D03*
X37500000Y-82000000D03*
D17*
X33100000Y-79750000D03*
X39900000Y-79750000D03*
%TD*%
D19*
%TO.C,J2*%
X71100000Y-39370000D03*
X71100000Y-85090000D03*
D20*
X73620000Y-38100000D03*
X68580000Y-38100000D03*
X73620000Y-40640000D03*
X68580000Y-40640000D03*
X73620000Y-43180000D03*
X68580000Y-43180000D03*
X73620000Y-45720000D03*
X68580000Y-45720000D03*
X73620000Y-48260000D03*
X68580000Y-48260000D03*
X73620000Y-50800000D03*
X68580000Y-50800000D03*
X73620000Y-53340000D03*
X68580000Y-53340000D03*
X73620000Y-55880000D03*
X68580000Y-55880000D03*
X73620000Y-58420000D03*
X68580000Y-58420000D03*
X73620000Y-60960000D03*
X68580000Y-60960000D03*
X73620000Y-63500000D03*
X68580000Y-63500000D03*
X73620000Y-66040000D03*
X68580000Y-66040000D03*
X73620000Y-68580000D03*
X68580000Y-68580000D03*
X73620000Y-71120000D03*
X68580000Y-71120000D03*
X73620000Y-73660000D03*
X68580000Y-73660000D03*
X73620000Y-76200000D03*
X68580000Y-76200000D03*
X73620000Y-78740000D03*
X68580000Y-78740000D03*
X73620000Y-81280000D03*
X68580000Y-81280000D03*
X73620000Y-83820000D03*
X68580000Y-83820000D03*
X73620000Y-86360000D03*
X68580000Y-86360000D03*
%TD*%
D11*
%TO.C,UART1*%
X35500000Y-50000000D03*
X37500000Y-50000000D03*
X39500000Y-50000000D03*
X41500000Y-50000000D03*
D12*
X32925000Y-46510840D03*
X44075000Y-46510840D03*
%TD*%
D11*
%TO.C,I2C0*%
X80000000Y-42000000D03*
X82000000Y-42000000D03*
X84000000Y-42000000D03*
X86000000Y-42000000D03*
D12*
X77425000Y-38510840D03*
X88575000Y-38510840D03*
%TD*%
D16*
%TO.C,MotR1*%
X82000000Y-95500000D03*
X84000000Y-95500000D03*
D17*
X79600000Y-93250000D03*
X86400000Y-93250000D03*
%TD*%
D21*
%TO.C,C2*%
X60020000Y-83000000D03*
X60980000Y-83000000D03*
%TD*%
D11*
%TO.C,A0*%
X80000000Y-58000000D03*
X82000000Y-58000000D03*
X84000000Y-58000000D03*
X86000000Y-58000000D03*
D12*
X77425000Y-54510840D03*
X88575000Y-54510840D03*
%TD*%
D11*
%TO.C,D18*%
X35500000Y-66000000D03*
X37500000Y-66000000D03*
X39500000Y-66000000D03*
X41500000Y-66000000D03*
D12*
X32925000Y-62510840D03*
X44075000Y-62510840D03*
%TD*%
D22*
%TO.C,C3*%
X57500000Y-91462500D03*
X57500000Y-96537500D03*
%TD*%
D11*
%TO.C,UART0*%
X35500000Y-42000000D03*
X37500000Y-42000000D03*
X39500000Y-42000000D03*
X41500000Y-42000000D03*
D12*
X32925000Y-38510840D03*
X44075000Y-38510840D03*
%TD*%
D23*
%TO.C,Q1*%
X34550000Y-88937500D03*
X36450000Y-88937500D03*
X35500000Y-87062500D03*
%TD*%
D18*
%TO.C,H1*%
X60000000Y-40000000D03*
%TD*%
D21*
%TO.C,C1*%
X60020000Y-87000000D03*
X60980000Y-87000000D03*
%TD*%
D11*
%TO.C,D16*%
X35500000Y-58000000D03*
X37500000Y-58000000D03*
X39500000Y-58000000D03*
X41500000Y-58000000D03*
D12*
X32925000Y-54510840D03*
X44075000Y-54510840D03*
%TD*%
M02*
