M48
; DRILL file {KiCad 8.0.4} date 2024-09-18T19:52:11+0200
; FORMAT={-:-/ absolute / metric / decimal}
; #@! TF.CreationDate,2024-09-18T19:52:11+02:00
; #@! TF.GenerationSoftware,Kicad,Pcbnew,8.0.4
; #@! TF.FileFunction,Plated,1,2,PTH
FMAT,2
METRIC
; #@! TA.AperFunction,Plated,PTH,ViaDrill
T1C0.400
; #@! TA.AperFunction,Plated,PTH,ComponentDrill
T2C1.200
; #@! TA.AperFunction,Plated,PTH,ComponentDrill
T3C2.200
%
G90
G05
T1
X33.0Y-86.3
X33.0Y-87.5
X33.0Y-89.0
X33.0Y-90.5
X33.5Y-41.0
X33.5Y-49.0
X33.5Y-57.0
X33.5Y-65.0
X33.5Y-73.0
X34.5Y-90.5
X35.5Y-39.5
X35.5Y-47.5
X35.5Y-54.5
X35.5Y-63.0
X35.5Y-71.5
X37.5Y-38.0
X37.5Y-46.0
X37.5Y-55.5
X37.5Y-63.0
X37.5Y-70.0
X39.0Y-85.0
X40.5Y-83.5
X40.5Y-85.0
X42.0Y-83.5
X42.0Y-85.0
X43.5Y-43.0
X43.5Y-59.0
X43.5Y-73.0
X43.5Y-79.0
X43.5Y-80.5
X43.5Y-82.0
X43.5Y-83.5
X43.5Y-85.0
X48.0Y-89.0
X50.478Y-37.6
X50.5Y-41.0
X50.5Y-72.5
X50.5Y-75.0
X51.0Y-50.8
X51.0Y-53.34
X51.0Y-89.0
X51.0Y-94.5
X51.0Y-96.0
X53.0Y-93.0
X53.0Y-94.5
X53.0Y-96.0
X53.0Y-97.5
X53.5Y-89.0
X56.0Y-78.74
X56.5Y-49.5
X56.5Y-50.5
X56.5Y-80.5
X56.5Y-82.0
X56.5Y-83.5
X56.5Y-85.0
X56.5Y-86.5
X56.5Y-88.5
X57.0Y-58.5
X57.0Y-74.0
X57.5Y-43.0
X58.0Y-77.5
X58.5Y-50.5
X58.5Y-52.0
X58.5Y-61.0
X58.5Y-64.5
X58.5Y-80.5
X58.5Y-82.0
X58.5Y-83.5
X58.5Y-85.0
X58.5Y-86.5
X58.5Y-88.5
X59.0Y-43.0
X59.0Y-54.5
X59.0Y-57.5
X59.0Y-76.0
X59.5Y-47.0
X59.5Y-63.5
X60.0Y-84.0
X60.0Y-85.5
X60.5Y-43.0
X61.0Y-47.0
X62.0Y-43.0
X62.0Y-80.5
X62.0Y-93.5
X62.0Y-95.0
X62.0Y-96.5
X62.0Y-98.0
X63.0Y-53.0
X63.0Y-54.5
X63.0Y-56.0
X63.0Y-67.0
X63.0Y-81.5
X63.5Y-43.0
X64.0Y-77.5
X64.013Y-76.487
X64.5Y-69.5
X64.5Y-80.0
X65.0Y-38.5
X65.0Y-40.0
X65.0Y-41.5
X65.0Y-43.0
X65.0Y-44.5
X65.5Y-83.0
X65.5Y-84.0
X65.5Y-85.0
X65.5Y-86.0
X65.5Y-87.0
X66.5Y-71.0
X66.5Y-73.5
X69.5Y-72.5
X69.5Y-75.0
X71.5Y-83.5
X71.5Y-87.0
X76.0Y-60.0
X78.425Y-50.0
X79.5Y-85.5
X80.0Y-38.0
X80.5Y-55.0
X80.925Y-63.0
X81.0Y-85.5
X81.0Y-87.0
X81.425Y-47.0
X81.5Y-45.0
X82.5Y-85.5
X86.0Y-38.5
X86.0Y-46.5
X86.0Y-54.5
X86.0Y-62.5
X86.0Y-70.5
T2
X50.82Y-39.37
X50.82Y-85.09
X71.1Y-39.37
X71.1Y-85.09
T3
X34.0Y-96.0
X60.0Y-40.0
X87.0Y-87.0
M30
