%TF.GenerationSoftware,KiCad,Pcbnew,8.0.4*%
%TF.CreationDate,2024-09-18T19:52:14+02:00*%
%TF.ProjectId,fredo,66726564-6f2e-46b6-9963-61645f706362,rev?*%
%TF.SameCoordinates,Original*%
%TF.FileFunction,Drillmap*%
%TF.FilePolarity,Positive*%
%FSLAX45Y45*%
G04 Gerber Fmt 4.5, Leading zero omitted, Abs format (unit mm)*
G04 Created by KiCad (PCBNEW 8.0.4) date 2024-09-18 19:52:14*
%MOMM*%
%LPD*%
G01*
G04 APERTURE LIST*
%ADD10C,0.100000*%
%ADD11C,0.200000*%
G04 APERTURE END LIST*
D10*
X3000000Y-3400000D02*
X9100000Y-3400000D01*
X9100000Y-10000000D01*
X3000000Y-10000000D01*
X3000000Y-3400000D01*
D11*
X3255777Y-10316484D02*
X3255777Y-10116484D01*
X3255777Y-10116484D02*
X3303396Y-10116484D01*
X3303396Y-10116484D02*
X3331967Y-10126008D01*
X3331967Y-10126008D02*
X3351015Y-10145055D01*
X3351015Y-10145055D02*
X3360539Y-10164103D01*
X3360539Y-10164103D02*
X3370062Y-10202198D01*
X3370062Y-10202198D02*
X3370062Y-10230770D01*
X3370062Y-10230770D02*
X3360539Y-10268865D01*
X3360539Y-10268865D02*
X3351015Y-10287912D01*
X3351015Y-10287912D02*
X3331967Y-10306960D01*
X3331967Y-10306960D02*
X3303396Y-10316484D01*
X3303396Y-10316484D02*
X3255777Y-10316484D01*
X3455777Y-10316484D02*
X3455777Y-10183150D01*
X3455777Y-10221246D02*
X3465301Y-10202198D01*
X3465301Y-10202198D02*
X3474824Y-10192674D01*
X3474824Y-10192674D02*
X3493872Y-10183150D01*
X3493872Y-10183150D02*
X3512920Y-10183150D01*
X3579586Y-10316484D02*
X3579586Y-10183150D01*
X3579586Y-10116484D02*
X3570062Y-10126008D01*
X3570062Y-10126008D02*
X3579586Y-10135531D01*
X3579586Y-10135531D02*
X3589110Y-10126008D01*
X3589110Y-10126008D02*
X3579586Y-10116484D01*
X3579586Y-10116484D02*
X3579586Y-10135531D01*
X3703396Y-10316484D02*
X3684348Y-10306960D01*
X3684348Y-10306960D02*
X3674824Y-10287912D01*
X3674824Y-10287912D02*
X3674824Y-10116484D01*
X3808158Y-10316484D02*
X3789110Y-10306960D01*
X3789110Y-10306960D02*
X3779586Y-10287912D01*
X3779586Y-10287912D02*
X3779586Y-10116484D01*
X4036729Y-10316484D02*
X4036729Y-10116484D01*
X4036729Y-10116484D02*
X4103396Y-10259341D01*
X4103396Y-10259341D02*
X4170062Y-10116484D01*
X4170062Y-10116484D02*
X4170062Y-10316484D01*
X4351015Y-10316484D02*
X4351015Y-10211722D01*
X4351015Y-10211722D02*
X4341491Y-10192674D01*
X4341491Y-10192674D02*
X4322444Y-10183150D01*
X4322444Y-10183150D02*
X4284348Y-10183150D01*
X4284348Y-10183150D02*
X4265301Y-10192674D01*
X4351015Y-10306960D02*
X4331967Y-10316484D01*
X4331967Y-10316484D02*
X4284348Y-10316484D01*
X4284348Y-10316484D02*
X4265301Y-10306960D01*
X4265301Y-10306960D02*
X4255777Y-10287912D01*
X4255777Y-10287912D02*
X4255777Y-10268865D01*
X4255777Y-10268865D02*
X4265301Y-10249817D01*
X4265301Y-10249817D02*
X4284348Y-10240293D01*
X4284348Y-10240293D02*
X4331967Y-10240293D01*
X4331967Y-10240293D02*
X4351015Y-10230770D01*
X4446253Y-10183150D02*
X4446253Y-10383150D01*
X4446253Y-10192674D02*
X4465301Y-10183150D01*
X4465301Y-10183150D02*
X4503396Y-10183150D01*
X4503396Y-10183150D02*
X4522444Y-10192674D01*
X4522444Y-10192674D02*
X4531967Y-10202198D01*
X4531967Y-10202198D02*
X4541491Y-10221246D01*
X4541491Y-10221246D02*
X4541491Y-10278389D01*
X4541491Y-10278389D02*
X4531967Y-10297436D01*
X4531967Y-10297436D02*
X4522444Y-10306960D01*
X4522444Y-10306960D02*
X4503396Y-10316484D01*
X4503396Y-10316484D02*
X4465301Y-10316484D01*
X4465301Y-10316484D02*
X4446253Y-10306960D01*
X4627205Y-10297436D02*
X4636729Y-10306960D01*
X4636729Y-10306960D02*
X4627205Y-10316484D01*
X4627205Y-10316484D02*
X4617682Y-10306960D01*
X4617682Y-10306960D02*
X4627205Y-10297436D01*
X4627205Y-10297436D02*
X4627205Y-10316484D01*
X4627205Y-10192674D02*
X4636729Y-10202198D01*
X4636729Y-10202198D02*
X4627205Y-10211722D01*
X4627205Y-10211722D02*
X4617682Y-10202198D01*
X4617682Y-10202198D02*
X4627205Y-10192674D01*
X4627205Y-10192674D02*
X4627205Y-10211722D01*
M02*
