%TF.GenerationSoftware,KiCad,Pcbnew,8.0.4*%
%TF.CreationDate,2024-09-18T19:52:14+02:00*%
%TF.ProjectId,fredo,66726564-6f2e-46b6-9963-61645f706362,rev?*%
%TF.SameCoordinates,Original*%
%TF.FileFunction,Drillmap*%
%TF.FilePolarity,Positive*%
%FSLAX45Y45*%
G04 Gerber Fmt 4.5, Leading zero omitted, Abs format (unit mm)*
G04 Created by KiCad (PCBNEW 8.0.4) date 2024-09-18 19:52:14*
%MOMM*%
%LPD*%
G01*
G04 APERTURE LIST*
%ADD10C,0.100000*%
%ADD11C,0.200000*%
%ADD12C,0.120000*%
%ADD13C,0.220000*%
G04 APERTURE END LIST*
D10*
X3000000Y-3400000D02*
X9100000Y-3400000D01*
X9100000Y-10000000D01*
X3000000Y-10000000D01*
X3000000Y-3400000D01*
D11*
D10*
X3280000Y-8610000D02*
X3320000Y-8650000D01*
X3320000Y-8610000D02*
X3280000Y-8650000D01*
X3280000Y-8730000D02*
X3320000Y-8770000D01*
X3320000Y-8730000D02*
X3280000Y-8770000D01*
X3280000Y-8880000D02*
X3320000Y-8920000D01*
X3320000Y-8880000D02*
X3280000Y-8920000D01*
X3280000Y-9030000D02*
X3320000Y-9070000D01*
X3320000Y-9030000D02*
X3280000Y-9070000D01*
X3330000Y-4080000D02*
X3370000Y-4120000D01*
X3370000Y-4080000D02*
X3330000Y-4120000D01*
X3330000Y-4880000D02*
X3370000Y-4920000D01*
X3370000Y-4880000D02*
X3330000Y-4920000D01*
X3330000Y-5680000D02*
X3370000Y-5720000D01*
X3370000Y-5680000D02*
X3330000Y-5720000D01*
X3330000Y-6480000D02*
X3370000Y-6520000D01*
X3370000Y-6480000D02*
X3330000Y-6520000D01*
X3330000Y-7280000D02*
X3370000Y-7320000D01*
X3370000Y-7280000D02*
X3330000Y-7320000D01*
X3430000Y-9030000D02*
X3470000Y-9070000D01*
X3470000Y-9030000D02*
X3430000Y-9070000D01*
X3530000Y-3930000D02*
X3570000Y-3970000D01*
X3570000Y-3930000D02*
X3530000Y-3970000D01*
X3530000Y-4730000D02*
X3570000Y-4770000D01*
X3570000Y-4730000D02*
X3530000Y-4770000D01*
X3530000Y-5430000D02*
X3570000Y-5470000D01*
X3570000Y-5430000D02*
X3530000Y-5470000D01*
X3530000Y-6280000D02*
X3570000Y-6320000D01*
X3570000Y-6280000D02*
X3530000Y-6320000D01*
X3530000Y-7130000D02*
X3570000Y-7170000D01*
X3570000Y-7130000D02*
X3530000Y-7170000D01*
X3730000Y-3780000D02*
X3770000Y-3820000D01*
X3770000Y-3780000D02*
X3730000Y-3820000D01*
X3730000Y-4580000D02*
X3770000Y-4620000D01*
X3770000Y-4580000D02*
X3730000Y-4620000D01*
X3730000Y-5530000D02*
X3770000Y-5570000D01*
X3770000Y-5530000D02*
X3730000Y-5570000D01*
X3730000Y-6280000D02*
X3770000Y-6320000D01*
X3770000Y-6280000D02*
X3730000Y-6320000D01*
X3730000Y-6980000D02*
X3770000Y-7020000D01*
X3770000Y-6980000D02*
X3730000Y-7020000D01*
X3880000Y-8480000D02*
X3920000Y-8520000D01*
X3920000Y-8480000D02*
X3880000Y-8520000D01*
X4030000Y-8330000D02*
X4070000Y-8370000D01*
X4070000Y-8330000D02*
X4030000Y-8370000D01*
X4030000Y-8480000D02*
X4070000Y-8520000D01*
X4070000Y-8480000D02*
X4030000Y-8520000D01*
X4180000Y-8330000D02*
X4220000Y-8370000D01*
X4220000Y-8330000D02*
X4180000Y-8370000D01*
X4180000Y-8480000D02*
X4220000Y-8520000D01*
X4220000Y-8480000D02*
X4180000Y-8520000D01*
X4330000Y-4280000D02*
X4370000Y-4320000D01*
X4370000Y-4280000D02*
X4330000Y-4320000D01*
X4330000Y-5880000D02*
X4370000Y-5920000D01*
X4370000Y-5880000D02*
X4330000Y-5920000D01*
X4330000Y-7280000D02*
X4370000Y-7320000D01*
X4370000Y-7280000D02*
X4330000Y-7320000D01*
X4330000Y-7880000D02*
X4370000Y-7920000D01*
X4370000Y-7880000D02*
X4330000Y-7920000D01*
X4330000Y-8030000D02*
X4370000Y-8070000D01*
X4370000Y-8030000D02*
X4330000Y-8070000D01*
X4330000Y-8180000D02*
X4370000Y-8220000D01*
X4370000Y-8180000D02*
X4330000Y-8220000D01*
X4330000Y-8330000D02*
X4370000Y-8370000D01*
X4370000Y-8330000D02*
X4330000Y-8370000D01*
X4330000Y-8480000D02*
X4370000Y-8520000D01*
X4370000Y-8480000D02*
X4330000Y-8520000D01*
X4780000Y-8880000D02*
X4820000Y-8920000D01*
X4820000Y-8880000D02*
X4780000Y-8920000D01*
X5027815Y-3740000D02*
X5067815Y-3780000D01*
X5067815Y-3740000D02*
X5027815Y-3780000D01*
X5030000Y-4080000D02*
X5070000Y-4120000D01*
X5070000Y-4080000D02*
X5030000Y-4120000D01*
X5030000Y-7230000D02*
X5070000Y-7270000D01*
X5070000Y-7230000D02*
X5030000Y-7270000D01*
X5030000Y-7480000D02*
X5070000Y-7520000D01*
X5070000Y-7480000D02*
X5030000Y-7520000D01*
X5080000Y-5060000D02*
X5120000Y-5100000D01*
X5120000Y-5060000D02*
X5080000Y-5100000D01*
X5080000Y-5314000D02*
X5120000Y-5354000D01*
X5120000Y-5314000D02*
X5080000Y-5354000D01*
X5080000Y-8880000D02*
X5120000Y-8920000D01*
X5120000Y-8880000D02*
X5080000Y-8920000D01*
X5080000Y-9430000D02*
X5120000Y-9470000D01*
X5120000Y-9430000D02*
X5080000Y-9470000D01*
X5080000Y-9580000D02*
X5120000Y-9620000D01*
X5120000Y-9580000D02*
X5080000Y-9620000D01*
X5280000Y-9280000D02*
X5320000Y-9320000D01*
X5320000Y-9280000D02*
X5280000Y-9320000D01*
X5280000Y-9430000D02*
X5320000Y-9470000D01*
X5320000Y-9430000D02*
X5280000Y-9470000D01*
X5280000Y-9580000D02*
X5320000Y-9620000D01*
X5320000Y-9580000D02*
X5280000Y-9620000D01*
X5280000Y-9730000D02*
X5320000Y-9770000D01*
X5320000Y-9730000D02*
X5280000Y-9770000D01*
X5330000Y-8880000D02*
X5370000Y-8920000D01*
X5370000Y-8880000D02*
X5330000Y-8920000D01*
X5580000Y-7854000D02*
X5620000Y-7894000D01*
X5620000Y-7854000D02*
X5580000Y-7894000D01*
X5630000Y-4930000D02*
X5670000Y-4970000D01*
X5670000Y-4930000D02*
X5630000Y-4970000D01*
X5630000Y-5030000D02*
X5670000Y-5070000D01*
X5670000Y-5030000D02*
X5630000Y-5070000D01*
X5630000Y-8030000D02*
X5670000Y-8070000D01*
X5670000Y-8030000D02*
X5630000Y-8070000D01*
X5630000Y-8180000D02*
X5670000Y-8220000D01*
X5670000Y-8180000D02*
X5630000Y-8220000D01*
X5630000Y-8330000D02*
X5670000Y-8370000D01*
X5670000Y-8330000D02*
X5630000Y-8370000D01*
X5630000Y-8480000D02*
X5670000Y-8520000D01*
X5670000Y-8480000D02*
X5630000Y-8520000D01*
X5630000Y-8630000D02*
X5670000Y-8670000D01*
X5670000Y-8630000D02*
X5630000Y-8670000D01*
X5630000Y-8830000D02*
X5670000Y-8870000D01*
X5670000Y-8830000D02*
X5630000Y-8870000D01*
X5680000Y-5830000D02*
X5720000Y-5870000D01*
X5720000Y-5830000D02*
X5680000Y-5870000D01*
X5680000Y-7380000D02*
X5720000Y-7420000D01*
X5720000Y-7380000D02*
X5680000Y-7420000D01*
X5730000Y-4280000D02*
X5770000Y-4320000D01*
X5770000Y-4280000D02*
X5730000Y-4320000D01*
X5780000Y-7730000D02*
X5820000Y-7770000D01*
X5820000Y-7730000D02*
X5780000Y-7770000D01*
X5830000Y-5030000D02*
X5870000Y-5070000D01*
X5870000Y-5030000D02*
X5830000Y-5070000D01*
X5830000Y-5180000D02*
X5870000Y-5220000D01*
X5870000Y-5180000D02*
X5830000Y-5220000D01*
X5830000Y-6080000D02*
X5870000Y-6120000D01*
X5870000Y-6080000D02*
X5830000Y-6120000D01*
X5830000Y-6430000D02*
X5870000Y-6470000D01*
X5870000Y-6430000D02*
X5830000Y-6470000D01*
X5830000Y-8030000D02*
X5870000Y-8070000D01*
X5870000Y-8030000D02*
X5830000Y-8070000D01*
X5830000Y-8180000D02*
X5870000Y-8220000D01*
X5870000Y-8180000D02*
X5830000Y-8220000D01*
X5830000Y-8330000D02*
X5870000Y-8370000D01*
X5870000Y-8330000D02*
X5830000Y-8370000D01*
X5830000Y-8480000D02*
X5870000Y-8520000D01*
X5870000Y-8480000D02*
X5830000Y-8520000D01*
X5830000Y-8630000D02*
X5870000Y-8670000D01*
X5870000Y-8630000D02*
X5830000Y-8670000D01*
X5830000Y-8830000D02*
X5870000Y-8870000D01*
X5870000Y-8830000D02*
X5830000Y-8870000D01*
X5880000Y-4280000D02*
X5920000Y-4320000D01*
X5920000Y-4280000D02*
X5880000Y-4320000D01*
X5880000Y-5430000D02*
X5920000Y-5470000D01*
X5920000Y-5430000D02*
X5880000Y-5470000D01*
X5880000Y-5730000D02*
X5920000Y-5770000D01*
X5920000Y-5730000D02*
X5880000Y-5770000D01*
X5880000Y-7580000D02*
X5920000Y-7620000D01*
X5920000Y-7580000D02*
X5880000Y-7620000D01*
X5930000Y-4680000D02*
X5970000Y-4720000D01*
X5970000Y-4680000D02*
X5930000Y-4720000D01*
X5930000Y-6330000D02*
X5970000Y-6370000D01*
X5970000Y-6330000D02*
X5930000Y-6370000D01*
X5980000Y-8380000D02*
X6020000Y-8420000D01*
X6020000Y-8380000D02*
X5980000Y-8420000D01*
X5980000Y-8530000D02*
X6020000Y-8570000D01*
X6020000Y-8530000D02*
X5980000Y-8570000D01*
X6030000Y-4280000D02*
X6070000Y-4320000D01*
X6070000Y-4280000D02*
X6030000Y-4320000D01*
X6080000Y-4680000D02*
X6120000Y-4720000D01*
X6120000Y-4680000D02*
X6080000Y-4720000D01*
X6180000Y-4280000D02*
X6220000Y-4320000D01*
X6220000Y-4280000D02*
X6180000Y-4320000D01*
X6180000Y-8030000D02*
X6220000Y-8070000D01*
X6220000Y-8030000D02*
X6180000Y-8070000D01*
X6180000Y-9330000D02*
X6220000Y-9370000D01*
X6220000Y-9330000D02*
X6180000Y-9370000D01*
X6180000Y-9480000D02*
X6220000Y-9520000D01*
X6220000Y-9480000D02*
X6180000Y-9520000D01*
X6180000Y-9630000D02*
X6220000Y-9670000D01*
X6220000Y-9630000D02*
X6180000Y-9670000D01*
X6180000Y-9780000D02*
X6220000Y-9820000D01*
X6220000Y-9780000D02*
X6180000Y-9820000D01*
X6280000Y-5280000D02*
X6320000Y-5320000D01*
X6320000Y-5280000D02*
X6280000Y-5320000D01*
X6280000Y-5430000D02*
X6320000Y-5470000D01*
X6320000Y-5430000D02*
X6280000Y-5470000D01*
X6280000Y-5580000D02*
X6320000Y-5620000D01*
X6320000Y-5580000D02*
X6280000Y-5620000D01*
X6280000Y-6680000D02*
X6320000Y-6720000D01*
X6320000Y-6680000D02*
X6280000Y-6720000D01*
X6280000Y-8130000D02*
X6320000Y-8170000D01*
X6320000Y-8130000D02*
X6280000Y-8170000D01*
X6330000Y-4280000D02*
X6370000Y-4320000D01*
X6370000Y-4280000D02*
X6330000Y-4320000D01*
X6380000Y-7730000D02*
X6420000Y-7770000D01*
X6420000Y-7730000D02*
X6380000Y-7770000D01*
X6381265Y-7628735D02*
X6421265Y-7668735D01*
X6421265Y-7628735D02*
X6381265Y-7668735D01*
X6430000Y-6930000D02*
X6470000Y-6970000D01*
X6470000Y-6930000D02*
X6430000Y-6970000D01*
X6430000Y-7980000D02*
X6470000Y-8020000D01*
X6470000Y-7980000D02*
X6430000Y-8020000D01*
X6480000Y-3830000D02*
X6520000Y-3870000D01*
X6520000Y-3830000D02*
X6480000Y-3870000D01*
X6480000Y-3980000D02*
X6520000Y-4020000D01*
X6520000Y-3980000D02*
X6480000Y-4020000D01*
X6480000Y-4130000D02*
X6520000Y-4170000D01*
X6520000Y-4130000D02*
X6480000Y-4170000D01*
X6480000Y-4280000D02*
X6520000Y-4320000D01*
X6520000Y-4280000D02*
X6480000Y-4320000D01*
X6480000Y-4430000D02*
X6520000Y-4470000D01*
X6520000Y-4430000D02*
X6480000Y-4470000D01*
X6530000Y-8280000D02*
X6570000Y-8320000D01*
X6570000Y-8280000D02*
X6530000Y-8320000D01*
X6530000Y-8380000D02*
X6570000Y-8420000D01*
X6570000Y-8380000D02*
X6530000Y-8420000D01*
X6530000Y-8480000D02*
X6570000Y-8520000D01*
X6570000Y-8480000D02*
X6530000Y-8520000D01*
X6530000Y-8580000D02*
X6570000Y-8620000D01*
X6570000Y-8580000D02*
X6530000Y-8620000D01*
X6530000Y-8680000D02*
X6570000Y-8720000D01*
X6570000Y-8680000D02*
X6530000Y-8720000D01*
X6630000Y-7080000D02*
X6670000Y-7120000D01*
X6670000Y-7080000D02*
X6630000Y-7120000D01*
X6630000Y-7330000D02*
X6670000Y-7370000D01*
X6670000Y-7330000D02*
X6630000Y-7370000D01*
X6930000Y-7230000D02*
X6970000Y-7270000D01*
X6970000Y-7230000D02*
X6930000Y-7270000D01*
X6930000Y-7480000D02*
X6970000Y-7520000D01*
X6970000Y-7480000D02*
X6930000Y-7520000D01*
X7130000Y-8330000D02*
X7170000Y-8370000D01*
X7170000Y-8330000D02*
X7130000Y-8370000D01*
X7130000Y-8680000D02*
X7170000Y-8720000D01*
X7170000Y-8680000D02*
X7130000Y-8720000D01*
X7580000Y-5980000D02*
X7620000Y-6020000D01*
X7620000Y-5980000D02*
X7580000Y-6020000D01*
X7822500Y-4980000D02*
X7862500Y-5020000D01*
X7862500Y-4980000D02*
X7822500Y-5020000D01*
X7930000Y-8530000D02*
X7970000Y-8570000D01*
X7970000Y-8530000D02*
X7930000Y-8570000D01*
X7980000Y-3780000D02*
X8020000Y-3820000D01*
X8020000Y-3780000D02*
X7980000Y-3820000D01*
X8030000Y-5480000D02*
X8070000Y-5520000D01*
X8070000Y-5480000D02*
X8030000Y-5520000D01*
X8072500Y-6280000D02*
X8112500Y-6320000D01*
X8112500Y-6280000D02*
X8072500Y-6320000D01*
X8080000Y-8530000D02*
X8120000Y-8570000D01*
X8120000Y-8530000D02*
X8080000Y-8570000D01*
X8080000Y-8680000D02*
X8120000Y-8720000D01*
X8120000Y-8680000D02*
X8080000Y-8720000D01*
X8122500Y-4680000D02*
X8162500Y-4720000D01*
X8162500Y-4680000D02*
X8122500Y-4720000D01*
X8130000Y-4480000D02*
X8170000Y-4520000D01*
X8170000Y-4480000D02*
X8130000Y-4520000D01*
X8230000Y-8530000D02*
X8270000Y-8570000D01*
X8270000Y-8530000D02*
X8230000Y-8570000D01*
X8580000Y-3830000D02*
X8620000Y-3870000D01*
X8620000Y-3830000D02*
X8580000Y-3870000D01*
X8580000Y-4630000D02*
X8620000Y-4670000D01*
X8620000Y-4630000D02*
X8580000Y-4670000D01*
X8580000Y-5430000D02*
X8620000Y-5470000D01*
X8620000Y-5430000D02*
X8580000Y-5470000D01*
X8580000Y-6230000D02*
X8620000Y-6270000D01*
X8620000Y-6230000D02*
X8580000Y-6270000D01*
X8580000Y-7030000D02*
X8620000Y-7070000D01*
X8620000Y-7030000D02*
X8580000Y-7070000D01*
D12*
X5142000Y-3937000D02*
G75*
G02*
X5022000Y-3937000I-60000J0D01*
G01*
X5022000Y-3937000D02*
G75*
G02*
X5142000Y-3937000I60000J0D01*
G01*
X5142000Y-8509000D02*
G75*
G02*
X5022000Y-8509000I-60000J0D01*
G01*
X5022000Y-8509000D02*
G75*
G02*
X5142000Y-8509000I60000J0D01*
G01*
X7170000Y-3937000D02*
G75*
G02*
X7050000Y-3937000I-60000J0D01*
G01*
X7050000Y-3937000D02*
G75*
G02*
X7170000Y-3937000I60000J0D01*
G01*
X7170000Y-8509000D02*
G75*
G02*
X7050000Y-8509000I-60000J0D01*
G01*
X7050000Y-8509000D02*
G75*
G02*
X7170000Y-8509000I60000J0D01*
G01*
D13*
X3400000Y-9490000D02*
X3400000Y-9710000D01*
X3290000Y-9600000D02*
X3510000Y-9600000D01*
X6000000Y-3890000D02*
X6000000Y-4110000D01*
X5890000Y-4000000D02*
X6110000Y-4000000D01*
X8700000Y-8590000D02*
X8700000Y-8810000D01*
X8590000Y-8700000D02*
X8810000Y-8700000D01*
D11*
X3255777Y-10316484D02*
X3255777Y-10116484D01*
X3255777Y-10116484D02*
X3303396Y-10116484D01*
X3303396Y-10116484D02*
X3331967Y-10126008D01*
X3331967Y-10126008D02*
X3351015Y-10145055D01*
X3351015Y-10145055D02*
X3360539Y-10164103D01*
X3360539Y-10164103D02*
X3370062Y-10202198D01*
X3370062Y-10202198D02*
X3370062Y-10230770D01*
X3370062Y-10230770D02*
X3360539Y-10268865D01*
X3360539Y-10268865D02*
X3351015Y-10287912D01*
X3351015Y-10287912D02*
X3331967Y-10306960D01*
X3331967Y-10306960D02*
X3303396Y-10316484D01*
X3303396Y-10316484D02*
X3255777Y-10316484D01*
X3455777Y-10316484D02*
X3455777Y-10183150D01*
X3455777Y-10221246D02*
X3465301Y-10202198D01*
X3465301Y-10202198D02*
X3474824Y-10192674D01*
X3474824Y-10192674D02*
X3493872Y-10183150D01*
X3493872Y-10183150D02*
X3512920Y-10183150D01*
X3579586Y-10316484D02*
X3579586Y-10183150D01*
X3579586Y-10116484D02*
X3570062Y-10126008D01*
X3570062Y-10126008D02*
X3579586Y-10135531D01*
X3579586Y-10135531D02*
X3589110Y-10126008D01*
X3589110Y-10126008D02*
X3579586Y-10116484D01*
X3579586Y-10116484D02*
X3579586Y-10135531D01*
X3703396Y-10316484D02*
X3684348Y-10306960D01*
X3684348Y-10306960D02*
X3674824Y-10287912D01*
X3674824Y-10287912D02*
X3674824Y-10116484D01*
X3808158Y-10316484D02*
X3789110Y-10306960D01*
X3789110Y-10306960D02*
X3779586Y-10287912D01*
X3779586Y-10287912D02*
X3779586Y-10116484D01*
X4036729Y-10316484D02*
X4036729Y-10116484D01*
X4036729Y-10116484D02*
X4103396Y-10259341D01*
X4103396Y-10259341D02*
X4170062Y-10116484D01*
X4170062Y-10116484D02*
X4170062Y-10316484D01*
X4351015Y-10316484D02*
X4351015Y-10211722D01*
X4351015Y-10211722D02*
X4341491Y-10192674D01*
X4341491Y-10192674D02*
X4322444Y-10183150D01*
X4322444Y-10183150D02*
X4284348Y-10183150D01*
X4284348Y-10183150D02*
X4265301Y-10192674D01*
X4351015Y-10306960D02*
X4331967Y-10316484D01*
X4331967Y-10316484D02*
X4284348Y-10316484D01*
X4284348Y-10316484D02*
X4265301Y-10306960D01*
X4265301Y-10306960D02*
X4255777Y-10287912D01*
X4255777Y-10287912D02*
X4255777Y-10268865D01*
X4255777Y-10268865D02*
X4265301Y-10249817D01*
X4265301Y-10249817D02*
X4284348Y-10240293D01*
X4284348Y-10240293D02*
X4331967Y-10240293D01*
X4331967Y-10240293D02*
X4351015Y-10230770D01*
X4446253Y-10183150D02*
X4446253Y-10383150D01*
X4446253Y-10192674D02*
X4465301Y-10183150D01*
X4465301Y-10183150D02*
X4503396Y-10183150D01*
X4503396Y-10183150D02*
X4522444Y-10192674D01*
X4522444Y-10192674D02*
X4531967Y-10202198D01*
X4531967Y-10202198D02*
X4541491Y-10221246D01*
X4541491Y-10221246D02*
X4541491Y-10278389D01*
X4541491Y-10278389D02*
X4531967Y-10297436D01*
X4531967Y-10297436D02*
X4522444Y-10306960D01*
X4522444Y-10306960D02*
X4503396Y-10316484D01*
X4503396Y-10316484D02*
X4465301Y-10316484D01*
X4465301Y-10316484D02*
X4446253Y-10306960D01*
X4627205Y-10297436D02*
X4636729Y-10306960D01*
X4636729Y-10306960D02*
X4627205Y-10316484D01*
X4627205Y-10316484D02*
X4617682Y-10306960D01*
X4617682Y-10306960D02*
X4627205Y-10297436D01*
X4627205Y-10297436D02*
X4627205Y-10316484D01*
X4627205Y-10192674D02*
X4636729Y-10202198D01*
X4636729Y-10202198D02*
X4627205Y-10211722D01*
X4627205Y-10211722D02*
X4617682Y-10202198D01*
X4617682Y-10202198D02*
X4627205Y-10192674D01*
X4627205Y-10192674D02*
X4627205Y-10211722D01*
D10*
X2955000Y-10625000D02*
X2995000Y-10665000D01*
X2995000Y-10625000D02*
X2955000Y-10665000D01*
D11*
X3293872Y-10536484D02*
X3312920Y-10536484D01*
X3312920Y-10536484D02*
X3331967Y-10546008D01*
X3331967Y-10546008D02*
X3341491Y-10555531D01*
X3341491Y-10555531D02*
X3351015Y-10574579D01*
X3351015Y-10574579D02*
X3360539Y-10612674D01*
X3360539Y-10612674D02*
X3360539Y-10660293D01*
X3360539Y-10660293D02*
X3351015Y-10698389D01*
X3351015Y-10698389D02*
X3341491Y-10717436D01*
X3341491Y-10717436D02*
X3331967Y-10726960D01*
X3331967Y-10726960D02*
X3312920Y-10736484D01*
X3312920Y-10736484D02*
X3293872Y-10736484D01*
X3293872Y-10736484D02*
X3274824Y-10726960D01*
X3274824Y-10726960D02*
X3265301Y-10717436D01*
X3265301Y-10717436D02*
X3255777Y-10698389D01*
X3255777Y-10698389D02*
X3246253Y-10660293D01*
X3246253Y-10660293D02*
X3246253Y-10612674D01*
X3246253Y-10612674D02*
X3255777Y-10574579D01*
X3255777Y-10574579D02*
X3265301Y-10555531D01*
X3265301Y-10555531D02*
X3274824Y-10546008D01*
X3274824Y-10546008D02*
X3293872Y-10536484D01*
X3446253Y-10717436D02*
X3455777Y-10726960D01*
X3455777Y-10726960D02*
X3446253Y-10736484D01*
X3446253Y-10736484D02*
X3436729Y-10726960D01*
X3436729Y-10726960D02*
X3446253Y-10717436D01*
X3446253Y-10717436D02*
X3446253Y-10736484D01*
X3627205Y-10603150D02*
X3627205Y-10736484D01*
X3579586Y-10526960D02*
X3531967Y-10669817D01*
X3531967Y-10669817D02*
X3655777Y-10669817D01*
X3770062Y-10536484D02*
X3789110Y-10536484D01*
X3789110Y-10536484D02*
X3808158Y-10546008D01*
X3808158Y-10546008D02*
X3817682Y-10555531D01*
X3817682Y-10555531D02*
X3827205Y-10574579D01*
X3827205Y-10574579D02*
X3836729Y-10612674D01*
X3836729Y-10612674D02*
X3836729Y-10660293D01*
X3836729Y-10660293D02*
X3827205Y-10698389D01*
X3827205Y-10698389D02*
X3817682Y-10717436D01*
X3817682Y-10717436D02*
X3808158Y-10726960D01*
X3808158Y-10726960D02*
X3789110Y-10736484D01*
X3789110Y-10736484D02*
X3770062Y-10736484D01*
X3770062Y-10736484D02*
X3751015Y-10726960D01*
X3751015Y-10726960D02*
X3741491Y-10717436D01*
X3741491Y-10717436D02*
X3731967Y-10698389D01*
X3731967Y-10698389D02*
X3722443Y-10660293D01*
X3722443Y-10660293D02*
X3722443Y-10612674D01*
X3722443Y-10612674D02*
X3731967Y-10574579D01*
X3731967Y-10574579D02*
X3741491Y-10555531D01*
X3741491Y-10555531D02*
X3751015Y-10546008D01*
X3751015Y-10546008D02*
X3770062Y-10536484D01*
X3960539Y-10536484D02*
X3979586Y-10536484D01*
X3979586Y-10536484D02*
X3998634Y-10546008D01*
X3998634Y-10546008D02*
X4008158Y-10555531D01*
X4008158Y-10555531D02*
X4017682Y-10574579D01*
X4017682Y-10574579D02*
X4027205Y-10612674D01*
X4027205Y-10612674D02*
X4027205Y-10660293D01*
X4027205Y-10660293D02*
X4017682Y-10698389D01*
X4017682Y-10698389D02*
X4008158Y-10717436D01*
X4008158Y-10717436D02*
X3998634Y-10726960D01*
X3998634Y-10726960D02*
X3979586Y-10736484D01*
X3979586Y-10736484D02*
X3960539Y-10736484D01*
X3960539Y-10736484D02*
X3941491Y-10726960D01*
X3941491Y-10726960D02*
X3931967Y-10717436D01*
X3931967Y-10717436D02*
X3922443Y-10698389D01*
X3922443Y-10698389D02*
X3912920Y-10660293D01*
X3912920Y-10660293D02*
X3912920Y-10612674D01*
X3912920Y-10612674D02*
X3922443Y-10574579D01*
X3922443Y-10574579D02*
X3931967Y-10555531D01*
X3931967Y-10555531D02*
X3941491Y-10546008D01*
X3941491Y-10546008D02*
X3960539Y-10536484D01*
X4112920Y-10736484D02*
X4112920Y-10603150D01*
X4112920Y-10622198D02*
X4122443Y-10612674D01*
X4122443Y-10612674D02*
X4141491Y-10603150D01*
X4141491Y-10603150D02*
X4170063Y-10603150D01*
X4170063Y-10603150D02*
X4189110Y-10612674D01*
X4189110Y-10612674D02*
X4198634Y-10631722D01*
X4198634Y-10631722D02*
X4198634Y-10736484D01*
X4198634Y-10631722D02*
X4208158Y-10612674D01*
X4208158Y-10612674D02*
X4227205Y-10603150D01*
X4227205Y-10603150D02*
X4255777Y-10603150D01*
X4255777Y-10603150D02*
X4274825Y-10612674D01*
X4274825Y-10612674D02*
X4284348Y-10631722D01*
X4284348Y-10631722D02*
X4284348Y-10736484D01*
X4379586Y-10736484D02*
X4379586Y-10603150D01*
X4379586Y-10622198D02*
X4389110Y-10612674D01*
X4389110Y-10612674D02*
X4408158Y-10603150D01*
X4408158Y-10603150D02*
X4436729Y-10603150D01*
X4436729Y-10603150D02*
X4455777Y-10612674D01*
X4455777Y-10612674D02*
X4465301Y-10631722D01*
X4465301Y-10631722D02*
X4465301Y-10736484D01*
X4465301Y-10631722D02*
X4474825Y-10612674D01*
X4474825Y-10612674D02*
X4493872Y-10603150D01*
X4493872Y-10603150D02*
X4522444Y-10603150D01*
X4522444Y-10603150D02*
X4541491Y-10612674D01*
X4541491Y-10612674D02*
X4551015Y-10631722D01*
X4551015Y-10631722D02*
X4551015Y-10736484D01*
X4941491Y-10526960D02*
X4770063Y-10784103D01*
X5198634Y-10536484D02*
X5217682Y-10536484D01*
X5217682Y-10536484D02*
X5236729Y-10546008D01*
X5236729Y-10546008D02*
X5246253Y-10555531D01*
X5246253Y-10555531D02*
X5255777Y-10574579D01*
X5255777Y-10574579D02*
X5265301Y-10612674D01*
X5265301Y-10612674D02*
X5265301Y-10660293D01*
X5265301Y-10660293D02*
X5255777Y-10698389D01*
X5255777Y-10698389D02*
X5246253Y-10717436D01*
X5246253Y-10717436D02*
X5236729Y-10726960D01*
X5236729Y-10726960D02*
X5217682Y-10736484D01*
X5217682Y-10736484D02*
X5198634Y-10736484D01*
X5198634Y-10736484D02*
X5179587Y-10726960D01*
X5179587Y-10726960D02*
X5170063Y-10717436D01*
X5170063Y-10717436D02*
X5160539Y-10698389D01*
X5160539Y-10698389D02*
X5151015Y-10660293D01*
X5151015Y-10660293D02*
X5151015Y-10612674D01*
X5151015Y-10612674D02*
X5160539Y-10574579D01*
X5160539Y-10574579D02*
X5170063Y-10555531D01*
X5170063Y-10555531D02*
X5179587Y-10546008D01*
X5179587Y-10546008D02*
X5198634Y-10536484D01*
X5351015Y-10717436D02*
X5360539Y-10726960D01*
X5360539Y-10726960D02*
X5351015Y-10736484D01*
X5351015Y-10736484D02*
X5341491Y-10726960D01*
X5341491Y-10726960D02*
X5351015Y-10717436D01*
X5351015Y-10717436D02*
X5351015Y-10736484D01*
X5484348Y-10536484D02*
X5503396Y-10536484D01*
X5503396Y-10536484D02*
X5522444Y-10546008D01*
X5522444Y-10546008D02*
X5531968Y-10555531D01*
X5531968Y-10555531D02*
X5541491Y-10574579D01*
X5541491Y-10574579D02*
X5551015Y-10612674D01*
X5551015Y-10612674D02*
X5551015Y-10660293D01*
X5551015Y-10660293D02*
X5541491Y-10698389D01*
X5541491Y-10698389D02*
X5531968Y-10717436D01*
X5531968Y-10717436D02*
X5522444Y-10726960D01*
X5522444Y-10726960D02*
X5503396Y-10736484D01*
X5503396Y-10736484D02*
X5484348Y-10736484D01*
X5484348Y-10736484D02*
X5465301Y-10726960D01*
X5465301Y-10726960D02*
X5455777Y-10717436D01*
X5455777Y-10717436D02*
X5446253Y-10698389D01*
X5446253Y-10698389D02*
X5436729Y-10660293D01*
X5436729Y-10660293D02*
X5436729Y-10612674D01*
X5436729Y-10612674D02*
X5446253Y-10574579D01*
X5446253Y-10574579D02*
X5455777Y-10555531D01*
X5455777Y-10555531D02*
X5465301Y-10546008D01*
X5465301Y-10546008D02*
X5484348Y-10536484D01*
X5741491Y-10736484D02*
X5627206Y-10736484D01*
X5684348Y-10736484D02*
X5684348Y-10536484D01*
X5684348Y-10536484D02*
X5665301Y-10565055D01*
X5665301Y-10565055D02*
X5646253Y-10584103D01*
X5646253Y-10584103D02*
X5627206Y-10593627D01*
X5922444Y-10536484D02*
X5827206Y-10536484D01*
X5827206Y-10536484D02*
X5817682Y-10631722D01*
X5817682Y-10631722D02*
X5827206Y-10622198D01*
X5827206Y-10622198D02*
X5846253Y-10612674D01*
X5846253Y-10612674D02*
X5893872Y-10612674D01*
X5893872Y-10612674D02*
X5912920Y-10622198D01*
X5912920Y-10622198D02*
X5922444Y-10631722D01*
X5922444Y-10631722D02*
X5931967Y-10650770D01*
X5931967Y-10650770D02*
X5931967Y-10698389D01*
X5931967Y-10698389D02*
X5922444Y-10717436D01*
X5922444Y-10717436D02*
X5912920Y-10726960D01*
X5912920Y-10726960D02*
X5893872Y-10736484D01*
X5893872Y-10736484D02*
X5846253Y-10736484D01*
X5846253Y-10736484D02*
X5827206Y-10726960D01*
X5827206Y-10726960D02*
X5817682Y-10717436D01*
X5998634Y-10536484D02*
X6131967Y-10536484D01*
X6131967Y-10536484D02*
X6046253Y-10736484D01*
X6198634Y-10536484D02*
X6198634Y-10574579D01*
X6274825Y-10536484D02*
X6274825Y-10574579D01*
X6570063Y-10812674D02*
X6560539Y-10803150D01*
X6560539Y-10803150D02*
X6541491Y-10774579D01*
X6541491Y-10774579D02*
X6531968Y-10755531D01*
X6531968Y-10755531D02*
X6522444Y-10726960D01*
X6522444Y-10726960D02*
X6512920Y-10679341D01*
X6512920Y-10679341D02*
X6512920Y-10641246D01*
X6512920Y-10641246D02*
X6522444Y-10593627D01*
X6522444Y-10593627D02*
X6531968Y-10565055D01*
X6531968Y-10565055D02*
X6541491Y-10546008D01*
X6541491Y-10546008D02*
X6560539Y-10517436D01*
X6560539Y-10517436D02*
X6570063Y-10507912D01*
X6751015Y-10736484D02*
X6636729Y-10736484D01*
X6693872Y-10736484D02*
X6693872Y-10536484D01*
X6693872Y-10536484D02*
X6674825Y-10565055D01*
X6674825Y-10565055D02*
X6655777Y-10584103D01*
X6655777Y-10584103D02*
X6636729Y-10593627D01*
X6827206Y-10555531D02*
X6836729Y-10546008D01*
X6836729Y-10546008D02*
X6855777Y-10536484D01*
X6855777Y-10536484D02*
X6903396Y-10536484D01*
X6903396Y-10536484D02*
X6922444Y-10546008D01*
X6922444Y-10546008D02*
X6931968Y-10555531D01*
X6931968Y-10555531D02*
X6941491Y-10574579D01*
X6941491Y-10574579D02*
X6941491Y-10593627D01*
X6941491Y-10593627D02*
X6931968Y-10622198D01*
X6931968Y-10622198D02*
X6817682Y-10736484D01*
X6817682Y-10736484D02*
X6941491Y-10736484D01*
X7036729Y-10736484D02*
X7074825Y-10736484D01*
X7074825Y-10736484D02*
X7093872Y-10726960D01*
X7093872Y-10726960D02*
X7103396Y-10717436D01*
X7103396Y-10717436D02*
X7122444Y-10688865D01*
X7122444Y-10688865D02*
X7131968Y-10650770D01*
X7131968Y-10650770D02*
X7131968Y-10574579D01*
X7131968Y-10574579D02*
X7122444Y-10555531D01*
X7122444Y-10555531D02*
X7112920Y-10546008D01*
X7112920Y-10546008D02*
X7093872Y-10536484D01*
X7093872Y-10536484D02*
X7055777Y-10536484D01*
X7055777Y-10536484D02*
X7036729Y-10546008D01*
X7036729Y-10546008D02*
X7027206Y-10555531D01*
X7027206Y-10555531D02*
X7017682Y-10574579D01*
X7017682Y-10574579D02*
X7017682Y-10622198D01*
X7017682Y-10622198D02*
X7027206Y-10641246D01*
X7027206Y-10641246D02*
X7036729Y-10650770D01*
X7036729Y-10650770D02*
X7055777Y-10660293D01*
X7055777Y-10660293D02*
X7093872Y-10660293D01*
X7093872Y-10660293D02*
X7112920Y-10650770D01*
X7112920Y-10650770D02*
X7122444Y-10641246D01*
X7122444Y-10641246D02*
X7131968Y-10622198D01*
X7370063Y-10736484D02*
X7370063Y-10536484D01*
X7455777Y-10736484D02*
X7455777Y-10631722D01*
X7455777Y-10631722D02*
X7446253Y-10612674D01*
X7446253Y-10612674D02*
X7427206Y-10603150D01*
X7427206Y-10603150D02*
X7398634Y-10603150D01*
X7398634Y-10603150D02*
X7379587Y-10612674D01*
X7379587Y-10612674D02*
X7370063Y-10622198D01*
X7579587Y-10736484D02*
X7560539Y-10726960D01*
X7560539Y-10726960D02*
X7551015Y-10717436D01*
X7551015Y-10717436D02*
X7541491Y-10698389D01*
X7541491Y-10698389D02*
X7541491Y-10641246D01*
X7541491Y-10641246D02*
X7551015Y-10622198D01*
X7551015Y-10622198D02*
X7560539Y-10612674D01*
X7560539Y-10612674D02*
X7579587Y-10603150D01*
X7579587Y-10603150D02*
X7608158Y-10603150D01*
X7608158Y-10603150D02*
X7627206Y-10612674D01*
X7627206Y-10612674D02*
X7636730Y-10622198D01*
X7636730Y-10622198D02*
X7646253Y-10641246D01*
X7646253Y-10641246D02*
X7646253Y-10698389D01*
X7646253Y-10698389D02*
X7636730Y-10717436D01*
X7636730Y-10717436D02*
X7627206Y-10726960D01*
X7627206Y-10726960D02*
X7608158Y-10736484D01*
X7608158Y-10736484D02*
X7579587Y-10736484D01*
X7760539Y-10736484D02*
X7741491Y-10726960D01*
X7741491Y-10726960D02*
X7731968Y-10707912D01*
X7731968Y-10707912D02*
X7731968Y-10536484D01*
X7912920Y-10726960D02*
X7893872Y-10736484D01*
X7893872Y-10736484D02*
X7855777Y-10736484D01*
X7855777Y-10736484D02*
X7836730Y-10726960D01*
X7836730Y-10726960D02*
X7827206Y-10707912D01*
X7827206Y-10707912D02*
X7827206Y-10631722D01*
X7827206Y-10631722D02*
X7836730Y-10612674D01*
X7836730Y-10612674D02*
X7855777Y-10603150D01*
X7855777Y-10603150D02*
X7893872Y-10603150D01*
X7893872Y-10603150D02*
X7912920Y-10612674D01*
X7912920Y-10612674D02*
X7922444Y-10631722D01*
X7922444Y-10631722D02*
X7922444Y-10650770D01*
X7922444Y-10650770D02*
X7827206Y-10669817D01*
X7998634Y-10726960D02*
X8017682Y-10736484D01*
X8017682Y-10736484D02*
X8055777Y-10736484D01*
X8055777Y-10736484D02*
X8074825Y-10726960D01*
X8074825Y-10726960D02*
X8084349Y-10707912D01*
X8084349Y-10707912D02*
X8084349Y-10698389D01*
X8084349Y-10698389D02*
X8074825Y-10679341D01*
X8074825Y-10679341D02*
X8055777Y-10669817D01*
X8055777Y-10669817D02*
X8027206Y-10669817D01*
X8027206Y-10669817D02*
X8008158Y-10660293D01*
X8008158Y-10660293D02*
X7998634Y-10641246D01*
X7998634Y-10641246D02*
X7998634Y-10631722D01*
X7998634Y-10631722D02*
X8008158Y-10612674D01*
X8008158Y-10612674D02*
X8027206Y-10603150D01*
X8027206Y-10603150D02*
X8055777Y-10603150D01*
X8055777Y-10603150D02*
X8074825Y-10612674D01*
X8151015Y-10812674D02*
X8160539Y-10803150D01*
X8160539Y-10803150D02*
X8179587Y-10774579D01*
X8179587Y-10774579D02*
X8189111Y-10755531D01*
X8189111Y-10755531D02*
X8198634Y-10726960D01*
X8198634Y-10726960D02*
X8208158Y-10679341D01*
X8208158Y-10679341D02*
X8208158Y-10641246D01*
X8208158Y-10641246D02*
X8198634Y-10593627D01*
X8198634Y-10593627D02*
X8189111Y-10565055D01*
X8189111Y-10565055D02*
X8179587Y-10546008D01*
X8179587Y-10546008D02*
X8160539Y-10517436D01*
X8160539Y-10517436D02*
X8151015Y-10507912D01*
D12*
X2995000Y-10909000D02*
G75*
G02*
X2875000Y-10909000I-60000J0D01*
G01*
X2875000Y-10909000D02*
G75*
G02*
X2995000Y-10909000I60000J0D01*
G01*
D11*
X3360539Y-11000484D02*
X3246253Y-11000484D01*
X3303396Y-11000484D02*
X3303396Y-10800484D01*
X3303396Y-10800484D02*
X3284348Y-10829055D01*
X3284348Y-10829055D02*
X3265301Y-10848103D01*
X3265301Y-10848103D02*
X3246253Y-10857627D01*
X3446253Y-10981436D02*
X3455777Y-10990960D01*
X3455777Y-10990960D02*
X3446253Y-11000484D01*
X3446253Y-11000484D02*
X3436729Y-10990960D01*
X3436729Y-10990960D02*
X3446253Y-10981436D01*
X3446253Y-10981436D02*
X3446253Y-11000484D01*
X3531967Y-10819531D02*
X3541491Y-10810008D01*
X3541491Y-10810008D02*
X3560539Y-10800484D01*
X3560539Y-10800484D02*
X3608158Y-10800484D01*
X3608158Y-10800484D02*
X3627205Y-10810008D01*
X3627205Y-10810008D02*
X3636729Y-10819531D01*
X3636729Y-10819531D02*
X3646253Y-10838579D01*
X3646253Y-10838579D02*
X3646253Y-10857627D01*
X3646253Y-10857627D02*
X3636729Y-10886198D01*
X3636729Y-10886198D02*
X3522443Y-11000484D01*
X3522443Y-11000484D02*
X3646253Y-11000484D01*
X3770062Y-10800484D02*
X3789110Y-10800484D01*
X3789110Y-10800484D02*
X3808158Y-10810008D01*
X3808158Y-10810008D02*
X3817682Y-10819531D01*
X3817682Y-10819531D02*
X3827205Y-10838579D01*
X3827205Y-10838579D02*
X3836729Y-10876674D01*
X3836729Y-10876674D02*
X3836729Y-10924293D01*
X3836729Y-10924293D02*
X3827205Y-10962389D01*
X3827205Y-10962389D02*
X3817682Y-10981436D01*
X3817682Y-10981436D02*
X3808158Y-10990960D01*
X3808158Y-10990960D02*
X3789110Y-11000484D01*
X3789110Y-11000484D02*
X3770062Y-11000484D01*
X3770062Y-11000484D02*
X3751015Y-10990960D01*
X3751015Y-10990960D02*
X3741491Y-10981436D01*
X3741491Y-10981436D02*
X3731967Y-10962389D01*
X3731967Y-10962389D02*
X3722443Y-10924293D01*
X3722443Y-10924293D02*
X3722443Y-10876674D01*
X3722443Y-10876674D02*
X3731967Y-10838579D01*
X3731967Y-10838579D02*
X3741491Y-10819531D01*
X3741491Y-10819531D02*
X3751015Y-10810008D01*
X3751015Y-10810008D02*
X3770062Y-10800484D01*
X3960539Y-10800484D02*
X3979586Y-10800484D01*
X3979586Y-10800484D02*
X3998634Y-10810008D01*
X3998634Y-10810008D02*
X4008158Y-10819531D01*
X4008158Y-10819531D02*
X4017682Y-10838579D01*
X4017682Y-10838579D02*
X4027205Y-10876674D01*
X4027205Y-10876674D02*
X4027205Y-10924293D01*
X4027205Y-10924293D02*
X4017682Y-10962389D01*
X4017682Y-10962389D02*
X4008158Y-10981436D01*
X4008158Y-10981436D02*
X3998634Y-10990960D01*
X3998634Y-10990960D02*
X3979586Y-11000484D01*
X3979586Y-11000484D02*
X3960539Y-11000484D01*
X3960539Y-11000484D02*
X3941491Y-10990960D01*
X3941491Y-10990960D02*
X3931967Y-10981436D01*
X3931967Y-10981436D02*
X3922443Y-10962389D01*
X3922443Y-10962389D02*
X3912920Y-10924293D01*
X3912920Y-10924293D02*
X3912920Y-10876674D01*
X3912920Y-10876674D02*
X3922443Y-10838579D01*
X3922443Y-10838579D02*
X3931967Y-10819531D01*
X3931967Y-10819531D02*
X3941491Y-10810008D01*
X3941491Y-10810008D02*
X3960539Y-10800484D01*
X4112920Y-11000484D02*
X4112920Y-10867150D01*
X4112920Y-10886198D02*
X4122443Y-10876674D01*
X4122443Y-10876674D02*
X4141491Y-10867150D01*
X4141491Y-10867150D02*
X4170063Y-10867150D01*
X4170063Y-10867150D02*
X4189110Y-10876674D01*
X4189110Y-10876674D02*
X4198634Y-10895722D01*
X4198634Y-10895722D02*
X4198634Y-11000484D01*
X4198634Y-10895722D02*
X4208158Y-10876674D01*
X4208158Y-10876674D02*
X4227205Y-10867150D01*
X4227205Y-10867150D02*
X4255777Y-10867150D01*
X4255777Y-10867150D02*
X4274825Y-10876674D01*
X4274825Y-10876674D02*
X4284348Y-10895722D01*
X4284348Y-10895722D02*
X4284348Y-11000484D01*
X4379586Y-11000484D02*
X4379586Y-10867150D01*
X4379586Y-10886198D02*
X4389110Y-10876674D01*
X4389110Y-10876674D02*
X4408158Y-10867150D01*
X4408158Y-10867150D02*
X4436729Y-10867150D01*
X4436729Y-10867150D02*
X4455777Y-10876674D01*
X4455777Y-10876674D02*
X4465301Y-10895722D01*
X4465301Y-10895722D02*
X4465301Y-11000484D01*
X4465301Y-10895722D02*
X4474825Y-10876674D01*
X4474825Y-10876674D02*
X4493872Y-10867150D01*
X4493872Y-10867150D02*
X4522444Y-10867150D01*
X4522444Y-10867150D02*
X4541491Y-10876674D01*
X4541491Y-10876674D02*
X4551015Y-10895722D01*
X4551015Y-10895722D02*
X4551015Y-11000484D01*
X4941491Y-10790960D02*
X4770063Y-11048103D01*
X5198634Y-10800484D02*
X5217682Y-10800484D01*
X5217682Y-10800484D02*
X5236729Y-10810008D01*
X5236729Y-10810008D02*
X5246253Y-10819531D01*
X5246253Y-10819531D02*
X5255777Y-10838579D01*
X5255777Y-10838579D02*
X5265301Y-10876674D01*
X5265301Y-10876674D02*
X5265301Y-10924293D01*
X5265301Y-10924293D02*
X5255777Y-10962389D01*
X5255777Y-10962389D02*
X5246253Y-10981436D01*
X5246253Y-10981436D02*
X5236729Y-10990960D01*
X5236729Y-10990960D02*
X5217682Y-11000484D01*
X5217682Y-11000484D02*
X5198634Y-11000484D01*
X5198634Y-11000484D02*
X5179587Y-10990960D01*
X5179587Y-10990960D02*
X5170063Y-10981436D01*
X5170063Y-10981436D02*
X5160539Y-10962389D01*
X5160539Y-10962389D02*
X5151015Y-10924293D01*
X5151015Y-10924293D02*
X5151015Y-10876674D01*
X5151015Y-10876674D02*
X5160539Y-10838579D01*
X5160539Y-10838579D02*
X5170063Y-10819531D01*
X5170063Y-10819531D02*
X5179587Y-10810008D01*
X5179587Y-10810008D02*
X5198634Y-10800484D01*
X5351015Y-10981436D02*
X5360539Y-10990960D01*
X5360539Y-10990960D02*
X5351015Y-11000484D01*
X5351015Y-11000484D02*
X5341491Y-10990960D01*
X5341491Y-10990960D02*
X5351015Y-10981436D01*
X5351015Y-10981436D02*
X5351015Y-11000484D01*
X5484348Y-10800484D02*
X5503396Y-10800484D01*
X5503396Y-10800484D02*
X5522444Y-10810008D01*
X5522444Y-10810008D02*
X5531968Y-10819531D01*
X5531968Y-10819531D02*
X5541491Y-10838579D01*
X5541491Y-10838579D02*
X5551015Y-10876674D01*
X5551015Y-10876674D02*
X5551015Y-10924293D01*
X5551015Y-10924293D02*
X5541491Y-10962389D01*
X5541491Y-10962389D02*
X5531968Y-10981436D01*
X5531968Y-10981436D02*
X5522444Y-10990960D01*
X5522444Y-10990960D02*
X5503396Y-11000484D01*
X5503396Y-11000484D02*
X5484348Y-11000484D01*
X5484348Y-11000484D02*
X5465301Y-10990960D01*
X5465301Y-10990960D02*
X5455777Y-10981436D01*
X5455777Y-10981436D02*
X5446253Y-10962389D01*
X5446253Y-10962389D02*
X5436729Y-10924293D01*
X5436729Y-10924293D02*
X5436729Y-10876674D01*
X5436729Y-10876674D02*
X5446253Y-10838579D01*
X5446253Y-10838579D02*
X5455777Y-10819531D01*
X5455777Y-10819531D02*
X5465301Y-10810008D01*
X5465301Y-10810008D02*
X5484348Y-10800484D01*
X5722444Y-10867150D02*
X5722444Y-11000484D01*
X5674825Y-10790960D02*
X5627206Y-10933817D01*
X5627206Y-10933817D02*
X5751015Y-10933817D01*
X5808158Y-10800484D02*
X5941491Y-10800484D01*
X5941491Y-10800484D02*
X5855777Y-11000484D01*
X6008158Y-10819531D02*
X6017682Y-10810008D01*
X6017682Y-10810008D02*
X6036729Y-10800484D01*
X6036729Y-10800484D02*
X6084348Y-10800484D01*
X6084348Y-10800484D02*
X6103396Y-10810008D01*
X6103396Y-10810008D02*
X6112920Y-10819531D01*
X6112920Y-10819531D02*
X6122444Y-10838579D01*
X6122444Y-10838579D02*
X6122444Y-10857627D01*
X6122444Y-10857627D02*
X6112920Y-10886198D01*
X6112920Y-10886198D02*
X5998634Y-11000484D01*
X5998634Y-11000484D02*
X6122444Y-11000484D01*
X6198634Y-10800484D02*
X6198634Y-10838579D01*
X6274825Y-10800484D02*
X6274825Y-10838579D01*
X6570063Y-11076674D02*
X6560539Y-11067150D01*
X6560539Y-11067150D02*
X6541491Y-11038579D01*
X6541491Y-11038579D02*
X6531968Y-11019531D01*
X6531968Y-11019531D02*
X6522444Y-10990960D01*
X6522444Y-10990960D02*
X6512920Y-10943341D01*
X6512920Y-10943341D02*
X6512920Y-10905246D01*
X6512920Y-10905246D02*
X6522444Y-10857627D01*
X6522444Y-10857627D02*
X6531968Y-10829055D01*
X6531968Y-10829055D02*
X6541491Y-10810008D01*
X6541491Y-10810008D02*
X6560539Y-10781436D01*
X6560539Y-10781436D02*
X6570063Y-10771912D01*
X6731968Y-10867150D02*
X6731968Y-11000484D01*
X6684348Y-10790960D02*
X6636729Y-10933817D01*
X6636729Y-10933817D02*
X6760539Y-10933817D01*
X6989110Y-11000484D02*
X6989110Y-10800484D01*
X7074825Y-11000484D02*
X7074825Y-10895722D01*
X7074825Y-10895722D02*
X7065301Y-10876674D01*
X7065301Y-10876674D02*
X7046253Y-10867150D01*
X7046253Y-10867150D02*
X7017682Y-10867150D01*
X7017682Y-10867150D02*
X6998634Y-10876674D01*
X6998634Y-10876674D02*
X6989110Y-10886198D01*
X7198634Y-11000484D02*
X7179587Y-10990960D01*
X7179587Y-10990960D02*
X7170063Y-10981436D01*
X7170063Y-10981436D02*
X7160539Y-10962389D01*
X7160539Y-10962389D02*
X7160539Y-10905246D01*
X7160539Y-10905246D02*
X7170063Y-10886198D01*
X7170063Y-10886198D02*
X7179587Y-10876674D01*
X7179587Y-10876674D02*
X7198634Y-10867150D01*
X7198634Y-10867150D02*
X7227206Y-10867150D01*
X7227206Y-10867150D02*
X7246253Y-10876674D01*
X7246253Y-10876674D02*
X7255777Y-10886198D01*
X7255777Y-10886198D02*
X7265301Y-10905246D01*
X7265301Y-10905246D02*
X7265301Y-10962389D01*
X7265301Y-10962389D02*
X7255777Y-10981436D01*
X7255777Y-10981436D02*
X7246253Y-10990960D01*
X7246253Y-10990960D02*
X7227206Y-11000484D01*
X7227206Y-11000484D02*
X7198634Y-11000484D01*
X7379587Y-11000484D02*
X7360539Y-10990960D01*
X7360539Y-10990960D02*
X7351015Y-10971912D01*
X7351015Y-10971912D02*
X7351015Y-10800484D01*
X7531968Y-10990960D02*
X7512920Y-11000484D01*
X7512920Y-11000484D02*
X7474825Y-11000484D01*
X7474825Y-11000484D02*
X7455777Y-10990960D01*
X7455777Y-10990960D02*
X7446253Y-10971912D01*
X7446253Y-10971912D02*
X7446253Y-10895722D01*
X7446253Y-10895722D02*
X7455777Y-10876674D01*
X7455777Y-10876674D02*
X7474825Y-10867150D01*
X7474825Y-10867150D02*
X7512920Y-10867150D01*
X7512920Y-10867150D02*
X7531968Y-10876674D01*
X7531968Y-10876674D02*
X7541491Y-10895722D01*
X7541491Y-10895722D02*
X7541491Y-10914770D01*
X7541491Y-10914770D02*
X7446253Y-10933817D01*
X7617682Y-10990960D02*
X7636730Y-11000484D01*
X7636730Y-11000484D02*
X7674825Y-11000484D01*
X7674825Y-11000484D02*
X7693872Y-10990960D01*
X7693872Y-10990960D02*
X7703396Y-10971912D01*
X7703396Y-10971912D02*
X7703396Y-10962389D01*
X7703396Y-10962389D02*
X7693872Y-10943341D01*
X7693872Y-10943341D02*
X7674825Y-10933817D01*
X7674825Y-10933817D02*
X7646253Y-10933817D01*
X7646253Y-10933817D02*
X7627206Y-10924293D01*
X7627206Y-10924293D02*
X7617682Y-10905246D01*
X7617682Y-10905246D02*
X7617682Y-10895722D01*
X7617682Y-10895722D02*
X7627206Y-10876674D01*
X7627206Y-10876674D02*
X7646253Y-10867150D01*
X7646253Y-10867150D02*
X7674825Y-10867150D01*
X7674825Y-10867150D02*
X7693872Y-10876674D01*
X7770063Y-11076674D02*
X7779587Y-11067150D01*
X7779587Y-11067150D02*
X7798634Y-11038579D01*
X7798634Y-11038579D02*
X7808158Y-11019531D01*
X7808158Y-11019531D02*
X7817682Y-10990960D01*
X7817682Y-10990960D02*
X7827206Y-10943341D01*
X7827206Y-10943341D02*
X7827206Y-10905246D01*
X7827206Y-10905246D02*
X7817682Y-10857627D01*
X7817682Y-10857627D02*
X7808158Y-10829055D01*
X7808158Y-10829055D02*
X7798634Y-10810008D01*
X7798634Y-10810008D02*
X7779587Y-10781436D01*
X7779587Y-10781436D02*
X7770063Y-10771912D01*
X2895000Y-11073000D02*
X2895000Y-11273000D01*
X2795000Y-11173000D02*
X2995000Y-11173000D01*
X3246253Y-11083531D02*
X3255777Y-11074008D01*
X3255777Y-11074008D02*
X3274824Y-11064484D01*
X3274824Y-11064484D02*
X3322443Y-11064484D01*
X3322443Y-11064484D02*
X3341491Y-11074008D01*
X3341491Y-11074008D02*
X3351015Y-11083531D01*
X3351015Y-11083531D02*
X3360539Y-11102579D01*
X3360539Y-11102579D02*
X3360539Y-11121627D01*
X3360539Y-11121627D02*
X3351015Y-11150198D01*
X3351015Y-11150198D02*
X3236729Y-11264484D01*
X3236729Y-11264484D02*
X3360539Y-11264484D01*
X3446253Y-11245436D02*
X3455777Y-11254960D01*
X3455777Y-11254960D02*
X3446253Y-11264484D01*
X3446253Y-11264484D02*
X3436729Y-11254960D01*
X3436729Y-11254960D02*
X3446253Y-11245436D01*
X3446253Y-11245436D02*
X3446253Y-11264484D01*
X3531967Y-11083531D02*
X3541491Y-11074008D01*
X3541491Y-11074008D02*
X3560539Y-11064484D01*
X3560539Y-11064484D02*
X3608158Y-11064484D01*
X3608158Y-11064484D02*
X3627205Y-11074008D01*
X3627205Y-11074008D02*
X3636729Y-11083531D01*
X3636729Y-11083531D02*
X3646253Y-11102579D01*
X3646253Y-11102579D02*
X3646253Y-11121627D01*
X3646253Y-11121627D02*
X3636729Y-11150198D01*
X3636729Y-11150198D02*
X3522443Y-11264484D01*
X3522443Y-11264484D02*
X3646253Y-11264484D01*
X3770062Y-11064484D02*
X3789110Y-11064484D01*
X3789110Y-11064484D02*
X3808158Y-11074008D01*
X3808158Y-11074008D02*
X3817682Y-11083531D01*
X3817682Y-11083531D02*
X3827205Y-11102579D01*
X3827205Y-11102579D02*
X3836729Y-11140674D01*
X3836729Y-11140674D02*
X3836729Y-11188293D01*
X3836729Y-11188293D02*
X3827205Y-11226388D01*
X3827205Y-11226388D02*
X3817682Y-11245436D01*
X3817682Y-11245436D02*
X3808158Y-11254960D01*
X3808158Y-11254960D02*
X3789110Y-11264484D01*
X3789110Y-11264484D02*
X3770062Y-11264484D01*
X3770062Y-11264484D02*
X3751015Y-11254960D01*
X3751015Y-11254960D02*
X3741491Y-11245436D01*
X3741491Y-11245436D02*
X3731967Y-11226388D01*
X3731967Y-11226388D02*
X3722443Y-11188293D01*
X3722443Y-11188293D02*
X3722443Y-11140674D01*
X3722443Y-11140674D02*
X3731967Y-11102579D01*
X3731967Y-11102579D02*
X3741491Y-11083531D01*
X3741491Y-11083531D02*
X3751015Y-11074008D01*
X3751015Y-11074008D02*
X3770062Y-11064484D01*
X3960539Y-11064484D02*
X3979586Y-11064484D01*
X3979586Y-11064484D02*
X3998634Y-11074008D01*
X3998634Y-11074008D02*
X4008158Y-11083531D01*
X4008158Y-11083531D02*
X4017682Y-11102579D01*
X4017682Y-11102579D02*
X4027205Y-11140674D01*
X4027205Y-11140674D02*
X4027205Y-11188293D01*
X4027205Y-11188293D02*
X4017682Y-11226388D01*
X4017682Y-11226388D02*
X4008158Y-11245436D01*
X4008158Y-11245436D02*
X3998634Y-11254960D01*
X3998634Y-11254960D02*
X3979586Y-11264484D01*
X3979586Y-11264484D02*
X3960539Y-11264484D01*
X3960539Y-11264484D02*
X3941491Y-11254960D01*
X3941491Y-11254960D02*
X3931967Y-11245436D01*
X3931967Y-11245436D02*
X3922443Y-11226388D01*
X3922443Y-11226388D02*
X3912920Y-11188293D01*
X3912920Y-11188293D02*
X3912920Y-11140674D01*
X3912920Y-11140674D02*
X3922443Y-11102579D01*
X3922443Y-11102579D02*
X3931967Y-11083531D01*
X3931967Y-11083531D02*
X3941491Y-11074008D01*
X3941491Y-11074008D02*
X3960539Y-11064484D01*
X4112920Y-11264484D02*
X4112920Y-11131150D01*
X4112920Y-11150198D02*
X4122443Y-11140674D01*
X4122443Y-11140674D02*
X4141491Y-11131150D01*
X4141491Y-11131150D02*
X4170063Y-11131150D01*
X4170063Y-11131150D02*
X4189110Y-11140674D01*
X4189110Y-11140674D02*
X4198634Y-11159722D01*
X4198634Y-11159722D02*
X4198634Y-11264484D01*
X4198634Y-11159722D02*
X4208158Y-11140674D01*
X4208158Y-11140674D02*
X4227205Y-11131150D01*
X4227205Y-11131150D02*
X4255777Y-11131150D01*
X4255777Y-11131150D02*
X4274825Y-11140674D01*
X4274825Y-11140674D02*
X4284348Y-11159722D01*
X4284348Y-11159722D02*
X4284348Y-11264484D01*
X4379586Y-11264484D02*
X4379586Y-11131150D01*
X4379586Y-11150198D02*
X4389110Y-11140674D01*
X4389110Y-11140674D02*
X4408158Y-11131150D01*
X4408158Y-11131150D02*
X4436729Y-11131150D01*
X4436729Y-11131150D02*
X4455777Y-11140674D01*
X4455777Y-11140674D02*
X4465301Y-11159722D01*
X4465301Y-11159722D02*
X4465301Y-11264484D01*
X4465301Y-11159722D02*
X4474825Y-11140674D01*
X4474825Y-11140674D02*
X4493872Y-11131150D01*
X4493872Y-11131150D02*
X4522444Y-11131150D01*
X4522444Y-11131150D02*
X4541491Y-11140674D01*
X4541491Y-11140674D02*
X4551015Y-11159722D01*
X4551015Y-11159722D02*
X4551015Y-11264484D01*
X4941491Y-11054960D02*
X4770063Y-11312103D01*
X5198634Y-11064484D02*
X5217682Y-11064484D01*
X5217682Y-11064484D02*
X5236729Y-11074008D01*
X5236729Y-11074008D02*
X5246253Y-11083531D01*
X5246253Y-11083531D02*
X5255777Y-11102579D01*
X5255777Y-11102579D02*
X5265301Y-11140674D01*
X5265301Y-11140674D02*
X5265301Y-11188293D01*
X5265301Y-11188293D02*
X5255777Y-11226388D01*
X5255777Y-11226388D02*
X5246253Y-11245436D01*
X5246253Y-11245436D02*
X5236729Y-11254960D01*
X5236729Y-11254960D02*
X5217682Y-11264484D01*
X5217682Y-11264484D02*
X5198634Y-11264484D01*
X5198634Y-11264484D02*
X5179587Y-11254960D01*
X5179587Y-11254960D02*
X5170063Y-11245436D01*
X5170063Y-11245436D02*
X5160539Y-11226388D01*
X5160539Y-11226388D02*
X5151015Y-11188293D01*
X5151015Y-11188293D02*
X5151015Y-11140674D01*
X5151015Y-11140674D02*
X5160539Y-11102579D01*
X5160539Y-11102579D02*
X5170063Y-11083531D01*
X5170063Y-11083531D02*
X5179587Y-11074008D01*
X5179587Y-11074008D02*
X5198634Y-11064484D01*
X5351015Y-11245436D02*
X5360539Y-11254960D01*
X5360539Y-11254960D02*
X5351015Y-11264484D01*
X5351015Y-11264484D02*
X5341491Y-11254960D01*
X5341491Y-11254960D02*
X5351015Y-11245436D01*
X5351015Y-11245436D02*
X5351015Y-11264484D01*
X5484348Y-11064484D02*
X5503396Y-11064484D01*
X5503396Y-11064484D02*
X5522444Y-11074008D01*
X5522444Y-11074008D02*
X5531968Y-11083531D01*
X5531968Y-11083531D02*
X5541491Y-11102579D01*
X5541491Y-11102579D02*
X5551015Y-11140674D01*
X5551015Y-11140674D02*
X5551015Y-11188293D01*
X5551015Y-11188293D02*
X5541491Y-11226388D01*
X5541491Y-11226388D02*
X5531968Y-11245436D01*
X5531968Y-11245436D02*
X5522444Y-11254960D01*
X5522444Y-11254960D02*
X5503396Y-11264484D01*
X5503396Y-11264484D02*
X5484348Y-11264484D01*
X5484348Y-11264484D02*
X5465301Y-11254960D01*
X5465301Y-11254960D02*
X5455777Y-11245436D01*
X5455777Y-11245436D02*
X5446253Y-11226388D01*
X5446253Y-11226388D02*
X5436729Y-11188293D01*
X5436729Y-11188293D02*
X5436729Y-11140674D01*
X5436729Y-11140674D02*
X5446253Y-11102579D01*
X5446253Y-11102579D02*
X5455777Y-11083531D01*
X5455777Y-11083531D02*
X5465301Y-11074008D01*
X5465301Y-11074008D02*
X5484348Y-11064484D01*
X5665301Y-11150198D02*
X5646253Y-11140674D01*
X5646253Y-11140674D02*
X5636729Y-11131150D01*
X5636729Y-11131150D02*
X5627206Y-11112103D01*
X5627206Y-11112103D02*
X5627206Y-11102579D01*
X5627206Y-11102579D02*
X5636729Y-11083531D01*
X5636729Y-11083531D02*
X5646253Y-11074008D01*
X5646253Y-11074008D02*
X5665301Y-11064484D01*
X5665301Y-11064484D02*
X5703396Y-11064484D01*
X5703396Y-11064484D02*
X5722444Y-11074008D01*
X5722444Y-11074008D02*
X5731967Y-11083531D01*
X5731967Y-11083531D02*
X5741491Y-11102579D01*
X5741491Y-11102579D02*
X5741491Y-11112103D01*
X5741491Y-11112103D02*
X5731967Y-11131150D01*
X5731967Y-11131150D02*
X5722444Y-11140674D01*
X5722444Y-11140674D02*
X5703396Y-11150198D01*
X5703396Y-11150198D02*
X5665301Y-11150198D01*
X5665301Y-11150198D02*
X5646253Y-11159722D01*
X5646253Y-11159722D02*
X5636729Y-11169246D01*
X5636729Y-11169246D02*
X5627206Y-11188293D01*
X5627206Y-11188293D02*
X5627206Y-11226388D01*
X5627206Y-11226388D02*
X5636729Y-11245436D01*
X5636729Y-11245436D02*
X5646253Y-11254960D01*
X5646253Y-11254960D02*
X5665301Y-11264484D01*
X5665301Y-11264484D02*
X5703396Y-11264484D01*
X5703396Y-11264484D02*
X5722444Y-11254960D01*
X5722444Y-11254960D02*
X5731967Y-11245436D01*
X5731967Y-11245436D02*
X5741491Y-11226388D01*
X5741491Y-11226388D02*
X5741491Y-11188293D01*
X5741491Y-11188293D02*
X5731967Y-11169246D01*
X5731967Y-11169246D02*
X5722444Y-11159722D01*
X5722444Y-11159722D02*
X5703396Y-11150198D01*
X5912920Y-11064484D02*
X5874825Y-11064484D01*
X5874825Y-11064484D02*
X5855777Y-11074008D01*
X5855777Y-11074008D02*
X5846253Y-11083531D01*
X5846253Y-11083531D02*
X5827206Y-11112103D01*
X5827206Y-11112103D02*
X5817682Y-11150198D01*
X5817682Y-11150198D02*
X5817682Y-11226388D01*
X5817682Y-11226388D02*
X5827206Y-11245436D01*
X5827206Y-11245436D02*
X5836729Y-11254960D01*
X5836729Y-11254960D02*
X5855777Y-11264484D01*
X5855777Y-11264484D02*
X5893872Y-11264484D01*
X5893872Y-11264484D02*
X5912920Y-11254960D01*
X5912920Y-11254960D02*
X5922444Y-11245436D01*
X5922444Y-11245436D02*
X5931967Y-11226388D01*
X5931967Y-11226388D02*
X5931967Y-11178770D01*
X5931967Y-11178770D02*
X5922444Y-11159722D01*
X5922444Y-11159722D02*
X5912920Y-11150198D01*
X5912920Y-11150198D02*
X5893872Y-11140674D01*
X5893872Y-11140674D02*
X5855777Y-11140674D01*
X5855777Y-11140674D02*
X5836729Y-11150198D01*
X5836729Y-11150198D02*
X5827206Y-11159722D01*
X5827206Y-11159722D02*
X5817682Y-11178770D01*
X6103396Y-11064484D02*
X6065301Y-11064484D01*
X6065301Y-11064484D02*
X6046253Y-11074008D01*
X6046253Y-11074008D02*
X6036729Y-11083531D01*
X6036729Y-11083531D02*
X6017682Y-11112103D01*
X6017682Y-11112103D02*
X6008158Y-11150198D01*
X6008158Y-11150198D02*
X6008158Y-11226388D01*
X6008158Y-11226388D02*
X6017682Y-11245436D01*
X6017682Y-11245436D02*
X6027206Y-11254960D01*
X6027206Y-11254960D02*
X6046253Y-11264484D01*
X6046253Y-11264484D02*
X6084348Y-11264484D01*
X6084348Y-11264484D02*
X6103396Y-11254960D01*
X6103396Y-11254960D02*
X6112920Y-11245436D01*
X6112920Y-11245436D02*
X6122444Y-11226388D01*
X6122444Y-11226388D02*
X6122444Y-11178770D01*
X6122444Y-11178770D02*
X6112920Y-11159722D01*
X6112920Y-11159722D02*
X6103396Y-11150198D01*
X6103396Y-11150198D02*
X6084348Y-11140674D01*
X6084348Y-11140674D02*
X6046253Y-11140674D01*
X6046253Y-11140674D02*
X6027206Y-11150198D01*
X6027206Y-11150198D02*
X6017682Y-11159722D01*
X6017682Y-11159722D02*
X6008158Y-11178770D01*
X6198634Y-11064484D02*
X6198634Y-11102579D01*
X6274825Y-11064484D02*
X6274825Y-11102579D01*
X6570063Y-11340674D02*
X6560539Y-11331150D01*
X6560539Y-11331150D02*
X6541491Y-11302579D01*
X6541491Y-11302579D02*
X6531968Y-11283531D01*
X6531968Y-11283531D02*
X6522444Y-11254960D01*
X6522444Y-11254960D02*
X6512920Y-11207341D01*
X6512920Y-11207341D02*
X6512920Y-11169246D01*
X6512920Y-11169246D02*
X6522444Y-11121627D01*
X6522444Y-11121627D02*
X6531968Y-11093055D01*
X6531968Y-11093055D02*
X6541491Y-11074008D01*
X6541491Y-11074008D02*
X6560539Y-11045436D01*
X6560539Y-11045436D02*
X6570063Y-11035912D01*
X6627206Y-11064484D02*
X6751015Y-11064484D01*
X6751015Y-11064484D02*
X6684348Y-11140674D01*
X6684348Y-11140674D02*
X6712920Y-11140674D01*
X6712920Y-11140674D02*
X6731968Y-11150198D01*
X6731968Y-11150198D02*
X6741491Y-11159722D01*
X6741491Y-11159722D02*
X6751015Y-11178770D01*
X6751015Y-11178770D02*
X6751015Y-11226388D01*
X6751015Y-11226388D02*
X6741491Y-11245436D01*
X6741491Y-11245436D02*
X6731968Y-11254960D01*
X6731968Y-11254960D02*
X6712920Y-11264484D01*
X6712920Y-11264484D02*
X6655777Y-11264484D01*
X6655777Y-11264484D02*
X6636729Y-11254960D01*
X6636729Y-11254960D02*
X6627206Y-11245436D01*
X6989110Y-11264484D02*
X6989110Y-11064484D01*
X7074825Y-11264484D02*
X7074825Y-11159722D01*
X7074825Y-11159722D02*
X7065301Y-11140674D01*
X7065301Y-11140674D02*
X7046253Y-11131150D01*
X7046253Y-11131150D02*
X7017682Y-11131150D01*
X7017682Y-11131150D02*
X6998634Y-11140674D01*
X6998634Y-11140674D02*
X6989110Y-11150198D01*
X7198634Y-11264484D02*
X7179587Y-11254960D01*
X7179587Y-11254960D02*
X7170063Y-11245436D01*
X7170063Y-11245436D02*
X7160539Y-11226388D01*
X7160539Y-11226388D02*
X7160539Y-11169246D01*
X7160539Y-11169246D02*
X7170063Y-11150198D01*
X7170063Y-11150198D02*
X7179587Y-11140674D01*
X7179587Y-11140674D02*
X7198634Y-11131150D01*
X7198634Y-11131150D02*
X7227206Y-11131150D01*
X7227206Y-11131150D02*
X7246253Y-11140674D01*
X7246253Y-11140674D02*
X7255777Y-11150198D01*
X7255777Y-11150198D02*
X7265301Y-11169246D01*
X7265301Y-11169246D02*
X7265301Y-11226388D01*
X7265301Y-11226388D02*
X7255777Y-11245436D01*
X7255777Y-11245436D02*
X7246253Y-11254960D01*
X7246253Y-11254960D02*
X7227206Y-11264484D01*
X7227206Y-11264484D02*
X7198634Y-11264484D01*
X7379587Y-11264484D02*
X7360539Y-11254960D01*
X7360539Y-11254960D02*
X7351015Y-11235912D01*
X7351015Y-11235912D02*
X7351015Y-11064484D01*
X7531968Y-11254960D02*
X7512920Y-11264484D01*
X7512920Y-11264484D02*
X7474825Y-11264484D01*
X7474825Y-11264484D02*
X7455777Y-11254960D01*
X7455777Y-11254960D02*
X7446253Y-11235912D01*
X7446253Y-11235912D02*
X7446253Y-11159722D01*
X7446253Y-11159722D02*
X7455777Y-11140674D01*
X7455777Y-11140674D02*
X7474825Y-11131150D01*
X7474825Y-11131150D02*
X7512920Y-11131150D01*
X7512920Y-11131150D02*
X7531968Y-11140674D01*
X7531968Y-11140674D02*
X7541491Y-11159722D01*
X7541491Y-11159722D02*
X7541491Y-11178770D01*
X7541491Y-11178770D02*
X7446253Y-11197817D01*
X7617682Y-11254960D02*
X7636730Y-11264484D01*
X7636730Y-11264484D02*
X7674825Y-11264484D01*
X7674825Y-11264484D02*
X7693872Y-11254960D01*
X7693872Y-11254960D02*
X7703396Y-11235912D01*
X7703396Y-11235912D02*
X7703396Y-11226388D01*
X7703396Y-11226388D02*
X7693872Y-11207341D01*
X7693872Y-11207341D02*
X7674825Y-11197817D01*
X7674825Y-11197817D02*
X7646253Y-11197817D01*
X7646253Y-11197817D02*
X7627206Y-11188293D01*
X7627206Y-11188293D02*
X7617682Y-11169246D01*
X7617682Y-11169246D02*
X7617682Y-11159722D01*
X7617682Y-11159722D02*
X7627206Y-11140674D01*
X7627206Y-11140674D02*
X7646253Y-11131150D01*
X7646253Y-11131150D02*
X7674825Y-11131150D01*
X7674825Y-11131150D02*
X7693872Y-11140674D01*
X7770063Y-11340674D02*
X7779587Y-11331150D01*
X7779587Y-11331150D02*
X7798634Y-11302579D01*
X7798634Y-11302579D02*
X7808158Y-11283531D01*
X7808158Y-11283531D02*
X7817682Y-11254960D01*
X7817682Y-11254960D02*
X7827206Y-11207341D01*
X7827206Y-11207341D02*
X7827206Y-11169246D01*
X7827206Y-11169246D02*
X7817682Y-11121627D01*
X7817682Y-11121627D02*
X7808158Y-11093055D01*
X7808158Y-11093055D02*
X7798634Y-11074008D01*
X7798634Y-11074008D02*
X7779587Y-11045436D01*
X7779587Y-11045436D02*
X7770063Y-11035912D01*
M02*
