%TF.GenerationSoftware,KiCad,Pcbnew,9.0.3*%
%TF.CreationDate,2025-08-08T18:23:52+02:00*%
%TF.ProjectId,iagabel-panel,69616761-6265-46c2-9d70-616e656c2e6b,rev?*%
%TF.SameCoordinates,Original*%
%TF.FileFunction,Drillmap*%
%TF.FilePolarity,Positive*%
%FSLAX45Y45*%
G04 Gerber Fmt 4.5, Leading zero omitted, Abs format (unit mm)*
G04 Created by KiCad (PCBNEW 9.0.3) date 2025-08-08 18:23:52*
%MOMM*%
%LPD*%
G01*
G04 APERTURE LIST*
%ADD10C,0.050000*%
%ADD11C,0.200000*%
%ADD12C,0.100000*%
G04 APERTURE END LIST*
D10*
X-700000Y1000000D02*
X10000000Y1000000D01*
X10000000Y-10800000D01*
X-700000Y-10800000D01*
X-700000Y1000000D01*
X7400000Y-10300000D02*
X7400000Y-10100000D01*
X4900000Y-10300000D02*
X7400000Y-10300000D01*
X4900000Y-10100000D02*
X4900000Y-10300000D01*
X2300000Y-10300000D02*
X2300000Y-10100000D01*
X-200000Y-10300000D02*
X2300000Y-10300000D01*
X-200000Y-10100000D02*
X-200000Y-10300000D01*
X7400000Y500000D02*
X7400000Y300000D01*
X4900000Y500000D02*
X7400000Y500000D01*
X4900000Y300000D02*
X4900000Y500000D01*
X2300000Y500000D02*
X2300000Y300000D01*
X-200000Y500000D02*
X2300000Y500000D01*
X-200000Y300000D02*
X-200000Y500000D01*
X2820000Y-8200000D02*
X2820000Y-8000000D01*
X-200000Y-9110000D02*
G75*
G02*
X0Y-9110000I100000J0D01*
G01*
X2000000Y-7880000D02*
X2000000Y-8200000D01*
X2000000Y-9720000D02*
X2000000Y-9400000D01*
X4400000Y-9600000D02*
G75*
G02*
X4300000Y-9700000I-100000J0D01*
G01*
X2820711Y-9400000D02*
G75*
G02*
X2920711Y-9300001I99999J0D01*
G01*
X3Y-8489289D02*
G75*
G02*
X-200000Y-8490000I-100002J0D01*
G01*
X2300000Y-8200000D02*
X2300000Y-7500000D01*
X0Y-9110000D02*
X0Y-9720000D01*
X2920000Y-9700000D02*
G75*
G02*
X2820000Y-9600000I0J100000D01*
G01*
X2100000Y-9300000D02*
X2200000Y-9300000D01*
X2100000Y-8300000D02*
X2200000Y-8300000D01*
X2000000Y-9400000D02*
G75*
G02*
X2100000Y-9300000I100000J0D01*
G01*
X2300000Y-8200000D02*
G75*
G02*
X2200000Y-8300000I-100000J0D01*
G01*
X2820000Y-8000000D02*
G75*
G02*
X2920000Y-7900000I100000J0D01*
G01*
X2200000Y-9300000D02*
G75*
G02*
X2300000Y-9400000I0J-100000D01*
G01*
X2920000Y-8300000D02*
X3920000Y-8300000D01*
X-200000Y-9110000D02*
X-200000Y-10100000D01*
X4300000Y-7900000D02*
G75*
G02*
X4400000Y-8000000I0J-100000D01*
G01*
X2920000Y-9700000D02*
X4300000Y-9700000D01*
X0Y-7880000D02*
X3Y-8489289D01*
X2920000Y-8300000D02*
G75*
G02*
X2820000Y-8200000I0J100000D01*
G01*
X4400000Y-8000000D02*
X4400000Y-9600000D01*
X2820711Y-9400000D02*
X2820000Y-9600000D01*
X2100000Y-8300000D02*
G75*
G02*
X2000000Y-8200000I0J100000D01*
G01*
X2920711Y-9300000D02*
X3920000Y-9300000D01*
X-200000Y-8490000D02*
X-200000Y-7500000D01*
X2300000Y-9400000D02*
X2300000Y-10100000D01*
X2920000Y-7900000D02*
X4300000Y-7900000D01*
X3920000Y-8300000D02*
G75*
G02*
X4000000Y-8380000I0J-80000D01*
G01*
X2000000Y-9720000D02*
G75*
G02*
X1920000Y-9800000I-80000J0D01*
G01*
X1920000Y-7800000D02*
G75*
G02*
X2000000Y-7880000I0J-80000D01*
G01*
X4057143Y-8608337D02*
G75*
G02*
X4000000Y-8531133I22857J76667D01*
G01*
X4000000Y-9068330D02*
G75*
G02*
X4057143Y-8991665I80000J0D01*
G01*
X4000000Y-8531133D02*
X4000000Y-8380000D01*
X80000Y-7800000D02*
X731674Y-7800000D01*
X808337Y-7742857D02*
G75*
G02*
X1191663Y-7742857I191663J-57143D01*
G01*
X731670Y-9800000D02*
G75*
G02*
X808335Y-9857143I0J-80000D01*
G01*
X1191663Y-9857143D02*
G75*
G02*
X808337Y-9857143I-191663J57143D01*
G01*
X1268330Y-7800000D02*
G75*
G02*
X1191665Y-7742857I0J80000D01*
G01*
X4000000Y-9220000D02*
X4000000Y-9068330D01*
X1191663Y-9857143D02*
G75*
G02*
X1268867Y-9800000I76667J-22857D01*
G01*
X0Y-7880000D02*
G75*
G02*
X80000Y-7800000I80000J0D01*
G01*
X80000Y-9800000D02*
G75*
G02*
X0Y-9720000I0J80000D01*
G01*
X1268867Y-9800000D02*
X1920000Y-9800000D01*
X80000Y-9800000D02*
X731670Y-9800000D01*
X808337Y-7742857D02*
G75*
G02*
X731674Y-7800000I-76663J22854D01*
G01*
X1268330Y-7800000D02*
X1920000Y-7800000D01*
X4000000Y-9220000D02*
G75*
G02*
X3920000Y-9300000I-80000J0D01*
G01*
X4057143Y-8608337D02*
G75*
G02*
X4057143Y-8991663I-57143J-191663D01*
G01*
X7920000Y-5600000D02*
X7920000Y-5400000D01*
X4900000Y-6510000D02*
G75*
G02*
X5100000Y-6510000I100000J0D01*
G01*
X7100000Y-5280000D02*
X7100000Y-5600000D01*
X7100000Y-7120000D02*
X7100000Y-6800000D01*
X9500000Y-7000000D02*
G75*
G02*
X9400000Y-7100000I-100000J0D01*
G01*
X7920711Y-6800000D02*
G75*
G02*
X8020711Y-6700001I99999J0D01*
G01*
X5100003Y-5889289D02*
G75*
G02*
X4900000Y-5890000I-100003J0D01*
G01*
X7400000Y-5600000D02*
X7400000Y-4900000D01*
X5100000Y-6510000D02*
X5100000Y-7120000D01*
X8020000Y-7100000D02*
G75*
G02*
X7920000Y-7000000I0J100000D01*
G01*
X7200000Y-6700000D02*
X7300000Y-6700000D01*
X7200000Y-5700000D02*
X7300000Y-5700000D01*
X7100000Y-6800000D02*
G75*
G02*
X7200000Y-6700000I100000J0D01*
G01*
X7400000Y-5600000D02*
G75*
G02*
X7300000Y-5700000I-100000J0D01*
G01*
X7920000Y-5400000D02*
G75*
G02*
X8020000Y-5300000I100000J0D01*
G01*
X7300000Y-6700000D02*
G75*
G02*
X7400000Y-6800000I0J-100000D01*
G01*
X8020000Y-5700000D02*
X9020000Y-5700000D01*
X4900000Y-6510000D02*
X4900000Y-7500000D01*
X9400000Y-5300000D02*
G75*
G02*
X9500000Y-5400000I0J-100000D01*
G01*
X8020000Y-7100000D02*
X9400000Y-7100000D01*
X5100000Y-5280000D02*
X5100003Y-5889289D01*
X8020000Y-5700000D02*
G75*
G02*
X7920000Y-5600000I0J100000D01*
G01*
X9500000Y-5400000D02*
X9500000Y-7000000D01*
X7920711Y-6800000D02*
X7920000Y-7000000D01*
X7200000Y-5700000D02*
G75*
G02*
X7100000Y-5600000I0J100000D01*
G01*
X8020711Y-6700000D02*
X9020000Y-6700000D01*
X4900000Y-5890000D02*
X4900000Y-4900000D01*
X7400000Y-6800000D02*
X7400000Y-7500000D01*
X8020000Y-5300000D02*
X9400000Y-5300000D01*
X9020000Y-5700000D02*
G75*
G02*
X9100000Y-5780000I0J-80000D01*
G01*
X7100000Y-7120000D02*
G75*
G02*
X7020000Y-7200000I-80000J0D01*
G01*
X7020000Y-5200000D02*
G75*
G02*
X7100000Y-5280000I0J-80000D01*
G01*
X9157143Y-6008337D02*
G75*
G02*
X9100000Y-5931133I22857J76667D01*
G01*
X9100000Y-6468330D02*
G75*
G02*
X9157143Y-6391665I80000J0D01*
G01*
X9100000Y-5931133D02*
X9100000Y-5780000D01*
X5180000Y-5200000D02*
X5831674Y-5200000D01*
X5908337Y-5142857D02*
G75*
G02*
X6291663Y-5142857I191663J-57143D01*
G01*
X5831670Y-7200000D02*
G75*
G02*
X5908335Y-7257143I0J-80000D01*
G01*
X6291663Y-7257143D02*
G75*
G02*
X5908337Y-7257143I-191663J57143D01*
G01*
X6368330Y-5200000D02*
G75*
G02*
X6291664Y-5142857I0J80000D01*
G01*
X9100000Y-6620000D02*
X9100000Y-6468330D01*
X6291663Y-7257143D02*
G75*
G02*
X6368867Y-7200000I76667J-22857D01*
G01*
X5100000Y-5280000D02*
G75*
G02*
X5180000Y-5200000I80000J0D01*
G01*
X5180000Y-7200000D02*
G75*
G02*
X5100000Y-7120000I0J80000D01*
G01*
X6368867Y-7200000D02*
X7020000Y-7200000D01*
X5180000Y-7200000D02*
X5831670Y-7200000D01*
X5908337Y-5142857D02*
G75*
G02*
X5831674Y-5200000I-76663J22854D01*
G01*
X6368330Y-5200000D02*
X7020000Y-5200000D01*
X9100000Y-6620000D02*
G75*
G02*
X9020000Y-6700000I-80000J0D01*
G01*
X9157143Y-6008337D02*
G75*
G02*
X9157143Y-6391663I-57143J-191663D01*
G01*
X2820000Y-5600000D02*
X2820000Y-5400000D01*
X-200000Y-6510000D02*
G75*
G02*
X0Y-6510000I100000J0D01*
G01*
X2000000Y-5280000D02*
X2000000Y-5600000D01*
X2000000Y-7120000D02*
X2000000Y-6800000D01*
X4400000Y-7000000D02*
G75*
G02*
X4300000Y-7100000I-100000J0D01*
G01*
X2820711Y-6800000D02*
G75*
G02*
X2920711Y-6700001I99999J0D01*
G01*
X3Y-5889289D02*
G75*
G02*
X-200000Y-5890000I-100002J0D01*
G01*
X2300000Y-5600000D02*
X2300000Y-4900000D01*
X0Y-6510000D02*
X0Y-7120000D01*
X2920000Y-7100000D02*
G75*
G02*
X2820000Y-7000000I0J100000D01*
G01*
X2100000Y-6700000D02*
X2200000Y-6700000D01*
X2100000Y-5700000D02*
X2200000Y-5700000D01*
X2000000Y-6800000D02*
G75*
G02*
X2100000Y-6700000I100000J0D01*
G01*
X2300000Y-5600000D02*
G75*
G02*
X2200000Y-5700000I-100000J0D01*
G01*
X2820000Y-5400000D02*
G75*
G02*
X2920000Y-5300000I100000J0D01*
G01*
X2200000Y-6700000D02*
G75*
G02*
X2300000Y-6800000I0J-100000D01*
G01*
X2920000Y-5700000D02*
X3920000Y-5700000D01*
X-200000Y-6510000D02*
X-200000Y-7500000D01*
X4300000Y-5300000D02*
G75*
G02*
X4400000Y-5400000I0J-100000D01*
G01*
X2920000Y-7100000D02*
X4300000Y-7100000D01*
X0Y-5280000D02*
X3Y-5889289D01*
X2920000Y-5700000D02*
G75*
G02*
X2820000Y-5600000I0J100000D01*
G01*
X4400000Y-5400000D02*
X4400000Y-7000000D01*
X2820711Y-6800000D02*
X2820000Y-7000000D01*
X2100000Y-5700000D02*
G75*
G02*
X2000000Y-5600000I0J100000D01*
G01*
X2920711Y-6700000D02*
X3920000Y-6700000D01*
X-200000Y-5890000D02*
X-200000Y-4900000D01*
X2300000Y-6800000D02*
X2300000Y-7500000D01*
X2920000Y-5300000D02*
X4300000Y-5300000D01*
X3920000Y-5700000D02*
G75*
G02*
X4000000Y-5780000I0J-80000D01*
G01*
X2000000Y-7120000D02*
G75*
G02*
X1920000Y-7200000I-80000J0D01*
G01*
X1920000Y-5200000D02*
G75*
G02*
X2000000Y-5280000I0J-80000D01*
G01*
X4057143Y-6008337D02*
G75*
G02*
X4000000Y-5931133I22857J76667D01*
G01*
X4000000Y-6468330D02*
G75*
G02*
X4057143Y-6391665I80000J0D01*
G01*
X4000000Y-5931133D02*
X4000000Y-5780000D01*
X80000Y-5200000D02*
X731674Y-5200000D01*
X808337Y-5142857D02*
G75*
G02*
X1191663Y-5142857I191663J-57143D01*
G01*
X731670Y-7200000D02*
G75*
G02*
X808335Y-7257143I0J-80000D01*
G01*
X1191663Y-7257143D02*
G75*
G02*
X808337Y-7257143I-191663J57143D01*
G01*
X1268330Y-5200000D02*
G75*
G02*
X1191665Y-5142857I0J80000D01*
G01*
X4000000Y-6620000D02*
X4000000Y-6468330D01*
X1191663Y-7257143D02*
G75*
G02*
X1268867Y-7200000I76667J-22857D01*
G01*
X0Y-5280000D02*
G75*
G02*
X80000Y-5200000I80000J0D01*
G01*
X80000Y-7200000D02*
G75*
G02*
X0Y-7120000I0J80000D01*
G01*
X1268867Y-7200000D02*
X1920000Y-7200000D01*
X80000Y-7200000D02*
X731670Y-7200000D01*
X808337Y-5142857D02*
G75*
G02*
X731674Y-5200000I-76663J22854D01*
G01*
X1268330Y-5200000D02*
X1920000Y-5200000D01*
X4000000Y-6620000D02*
G75*
G02*
X3920000Y-6700000I-80000J0D01*
G01*
X4057143Y-6008337D02*
G75*
G02*
X4057143Y-6391663I-57143J-191663D01*
G01*
X7920000Y-3000000D02*
X7920000Y-2800000D01*
X4900000Y-3910000D02*
G75*
G02*
X5100000Y-3910000I100000J0D01*
G01*
X7100000Y-2680000D02*
X7100000Y-3000000D01*
X7100000Y-4520000D02*
X7100000Y-4200000D01*
X9500000Y-4400000D02*
G75*
G02*
X9400000Y-4500000I-100000J0D01*
G01*
X7920711Y-4200000D02*
G75*
G02*
X8020711Y-4100001I99999J0D01*
G01*
X5100003Y-3289289D02*
G75*
G02*
X4900000Y-3290000I-100003J0D01*
G01*
X7400000Y-3000000D02*
X7400000Y-2300000D01*
X5100000Y-3910000D02*
X5100000Y-4520000D01*
X8020000Y-4500000D02*
G75*
G02*
X7920000Y-4400000I0J100000D01*
G01*
X7200000Y-4100000D02*
X7300000Y-4100000D01*
X7200000Y-3100000D02*
X7300000Y-3100000D01*
X7100000Y-4200000D02*
G75*
G02*
X7200000Y-4100000I100000J0D01*
G01*
X7400000Y-3000000D02*
G75*
G02*
X7300000Y-3100000I-100000J0D01*
G01*
X7920000Y-2800000D02*
G75*
G02*
X8020000Y-2700000I100000J0D01*
G01*
X7300000Y-4100000D02*
G75*
G02*
X7400000Y-4200000I0J-100000D01*
G01*
X8020000Y-3100000D02*
X9020000Y-3100000D01*
X4900000Y-3910000D02*
X4900000Y-4900000D01*
X9400000Y-2700000D02*
G75*
G02*
X9500000Y-2800000I0J-100000D01*
G01*
X8020000Y-4500000D02*
X9400000Y-4500000D01*
X5100000Y-2680000D02*
X5100003Y-3289289D01*
X8020000Y-3100000D02*
G75*
G02*
X7920000Y-3000000I0J100000D01*
G01*
X9500000Y-2800000D02*
X9500000Y-4400000D01*
X7920711Y-4200000D02*
X7920000Y-4400000D01*
X7200000Y-3100000D02*
G75*
G02*
X7100000Y-3000000I0J100000D01*
G01*
X8020711Y-4100000D02*
X9020000Y-4100000D01*
X4900000Y-3290000D02*
X4900000Y-2300000D01*
X7400000Y-4200000D02*
X7400000Y-4900000D01*
X8020000Y-2700000D02*
X9400000Y-2700000D01*
X9020000Y-3100000D02*
G75*
G02*
X9100000Y-3180000I0J-80000D01*
G01*
X7100000Y-4520000D02*
G75*
G02*
X7020000Y-4600000I-80000J0D01*
G01*
X7020000Y-2600000D02*
G75*
G02*
X7100000Y-2680000I0J-80000D01*
G01*
X9157143Y-3408337D02*
G75*
G02*
X9100000Y-3331133I22857J76667D01*
G01*
X9100000Y-3868330D02*
G75*
G02*
X9157143Y-3791665I80000J0D01*
G01*
X9100000Y-3331133D02*
X9100000Y-3180000D01*
X5180000Y-2600000D02*
X5831674Y-2600000D01*
X5908337Y-2542857D02*
G75*
G02*
X6291663Y-2542857I191663J-57143D01*
G01*
X5831670Y-4600000D02*
G75*
G02*
X5908335Y-4657143I0J-80000D01*
G01*
X6291663Y-4657143D02*
G75*
G02*
X5908337Y-4657143I-191663J57143D01*
G01*
X6368330Y-2600000D02*
G75*
G02*
X6291664Y-2542857I0J80000D01*
G01*
X9100000Y-4020000D02*
X9100000Y-3868330D01*
X6291663Y-4657143D02*
G75*
G02*
X6368867Y-4600000I76667J-22857D01*
G01*
X5100000Y-2680000D02*
G75*
G02*
X5180000Y-2600000I80000J0D01*
G01*
X5180000Y-4600000D02*
G75*
G02*
X5100000Y-4520000I0J80000D01*
G01*
X6368867Y-4600000D02*
X7020000Y-4600000D01*
X5180000Y-4600000D02*
X5831670Y-4600000D01*
X5908337Y-2542857D02*
G75*
G02*
X5831674Y-2600000I-76663J22854D01*
G01*
X6368330Y-2600000D02*
X7020000Y-2600000D01*
X9100000Y-4020000D02*
G75*
G02*
X9020000Y-4100000I-80000J0D01*
G01*
X9157143Y-3408337D02*
G75*
G02*
X9157143Y-3791663I-57143J-191663D01*
G01*
X2820000Y-3000000D02*
X2820000Y-2800000D01*
X-200000Y-3910000D02*
G75*
G02*
X0Y-3910000I100000J0D01*
G01*
X2000000Y-2680000D02*
X2000000Y-3000000D01*
X2000000Y-4520000D02*
X2000000Y-4200000D01*
X4400000Y-4400000D02*
G75*
G02*
X4300000Y-4500000I-100000J0D01*
G01*
X2820711Y-4200000D02*
G75*
G02*
X2920711Y-4100001I99999J0D01*
G01*
X3Y-3289289D02*
G75*
G02*
X-200000Y-3290000I-100002J0D01*
G01*
X2300000Y-3000000D02*
X2300000Y-2300000D01*
X0Y-3910000D02*
X0Y-4520000D01*
X2920000Y-4500000D02*
G75*
G02*
X2820000Y-4400000I0J100000D01*
G01*
X2100000Y-4100000D02*
X2200000Y-4100000D01*
X2100000Y-3100000D02*
X2200000Y-3100000D01*
X2000000Y-4200000D02*
G75*
G02*
X2100000Y-4100000I100000J0D01*
G01*
X2300000Y-3000000D02*
G75*
G02*
X2200000Y-3100000I-100000J0D01*
G01*
X2820000Y-2800000D02*
G75*
G02*
X2920000Y-2700000I100000J0D01*
G01*
X2200000Y-4100000D02*
G75*
G02*
X2300000Y-4200000I0J-100000D01*
G01*
X2920000Y-3100000D02*
X3920000Y-3100000D01*
X-200000Y-3910000D02*
X-200000Y-4900000D01*
X4300000Y-2700000D02*
G75*
G02*
X4400000Y-2800000I0J-100000D01*
G01*
X2920000Y-4500000D02*
X4300000Y-4500000D01*
X0Y-2680000D02*
X3Y-3289289D01*
X2920000Y-3100000D02*
G75*
G02*
X2820000Y-3000000I0J100000D01*
G01*
X4400000Y-2800000D02*
X4400000Y-4400000D01*
X2820711Y-4200000D02*
X2820000Y-4400000D01*
X2100000Y-3100000D02*
G75*
G02*
X2000000Y-3000000I0J100000D01*
G01*
X2920711Y-4100000D02*
X3920000Y-4100000D01*
X-200000Y-3290000D02*
X-200000Y-2300000D01*
X2300000Y-4200000D02*
X2300000Y-4900000D01*
X2920000Y-2700000D02*
X4300000Y-2700000D01*
X3920000Y-3100000D02*
G75*
G02*
X4000000Y-3180000I0J-80000D01*
G01*
X2000000Y-4520000D02*
G75*
G02*
X1920000Y-4600000I-80000J0D01*
G01*
X1920000Y-2600000D02*
G75*
G02*
X2000000Y-2680000I0J-80000D01*
G01*
X4057143Y-3408337D02*
G75*
G02*
X4000000Y-3331133I22857J76667D01*
G01*
X4000000Y-3868330D02*
G75*
G02*
X4057143Y-3791665I80000J0D01*
G01*
X4000000Y-3331133D02*
X4000000Y-3180000D01*
X80000Y-2600000D02*
X731674Y-2600000D01*
X808337Y-2542857D02*
G75*
G02*
X1191663Y-2542857I191663J-57143D01*
G01*
X731670Y-4600000D02*
G75*
G02*
X808335Y-4657143I0J-80000D01*
G01*
X1191663Y-4657143D02*
G75*
G02*
X808337Y-4657143I-191663J57143D01*
G01*
X1268330Y-2600000D02*
G75*
G02*
X1191665Y-2542857I0J80000D01*
G01*
X4000000Y-4020000D02*
X4000000Y-3868330D01*
X1191663Y-4657143D02*
G75*
G02*
X1268867Y-4600000I76667J-22857D01*
G01*
X0Y-2680000D02*
G75*
G02*
X80000Y-2600000I80000J0D01*
G01*
X80000Y-4600000D02*
G75*
G02*
X0Y-4520000I0J80000D01*
G01*
X1268867Y-4600000D02*
X1920000Y-4600000D01*
X80000Y-4600000D02*
X731670Y-4600000D01*
X808337Y-2542857D02*
G75*
G02*
X731674Y-2600000I-76663J22854D01*
G01*
X1268330Y-2600000D02*
X1920000Y-2600000D01*
X4000000Y-4020000D02*
G75*
G02*
X3920000Y-4100000I-80000J0D01*
G01*
X4057143Y-3408337D02*
G75*
G02*
X4057143Y-3791663I-57143J-191663D01*
G01*
X7920000Y-400000D02*
X7920000Y-200000D01*
X4900000Y-1310000D02*
G75*
G02*
X5100000Y-1310000I100000J0D01*
G01*
X7100000Y-80000D02*
X7100000Y-400000D01*
X7100000Y-1920000D02*
X7100000Y-1600000D01*
X9500000Y-1800000D02*
G75*
G02*
X9400000Y-1900000I-100000J0D01*
G01*
X7920711Y-1600000D02*
G75*
G02*
X8020711Y-1500001I99999J0D01*
G01*
X5100003Y-689289D02*
G75*
G02*
X4900000Y-690000I-100003J0D01*
G01*
X7400000Y-400000D02*
X7400000Y300000D01*
X5100000Y-1310000D02*
X5100000Y-1920000D01*
X8020000Y-1900000D02*
G75*
G02*
X7920000Y-1800000I0J100000D01*
G01*
X7200000Y-1500000D02*
X7300000Y-1500000D01*
X7200000Y-500000D02*
X7300000Y-500000D01*
X7100000Y-1600000D02*
G75*
G02*
X7200000Y-1500000I100000J0D01*
G01*
X7400000Y-400000D02*
G75*
G02*
X7300000Y-500000I-100000J0D01*
G01*
X7920000Y-200000D02*
G75*
G02*
X8020000Y-100000I100000J0D01*
G01*
X7300000Y-1500000D02*
G75*
G02*
X7400000Y-1600000I0J-100000D01*
G01*
X8020000Y-500000D02*
X9020000Y-500000D01*
X4900000Y-1310000D02*
X4900000Y-2300000D01*
X9400000Y-100000D02*
G75*
G02*
X9500000Y-200000I0J-100000D01*
G01*
X8020000Y-1900000D02*
X9400000Y-1900000D01*
X5100000Y-80000D02*
X5100003Y-689289D01*
X8020000Y-500000D02*
G75*
G02*
X7920000Y-400000I0J100000D01*
G01*
X9500000Y-200000D02*
X9500000Y-1800000D01*
X7920711Y-1600000D02*
X7920000Y-1800000D01*
X7200000Y-500000D02*
G75*
G02*
X7100000Y-400000I0J100000D01*
G01*
X8020711Y-1500000D02*
X9020000Y-1500000D01*
X4900000Y-690000D02*
X4900000Y300000D01*
X7400000Y-1600000D02*
X7400000Y-2300000D01*
X8020000Y-100000D02*
X9400000Y-100000D01*
X9020000Y-500000D02*
G75*
G02*
X9100000Y-580000I0J-80000D01*
G01*
X7100000Y-1920000D02*
G75*
G02*
X7020000Y-2000000I-80000J0D01*
G01*
X7020000Y0D02*
G75*
G02*
X7100000Y-80000I0J-80000D01*
G01*
X9157143Y-808337D02*
G75*
G02*
X9100000Y-731133I22857J76667D01*
G01*
X9100000Y-1268330D02*
G75*
G02*
X9157143Y-1191665I80000J0D01*
G01*
X9100000Y-731133D02*
X9100000Y-580000D01*
X5180000Y0D02*
X5831674Y0D01*
X5908337Y57143D02*
G75*
G02*
X6291663Y57143I191663J-57143D01*
G01*
X5831670Y-2000000D02*
G75*
G02*
X5908335Y-2057143I0J-80000D01*
G01*
X6291663Y-2057143D02*
G75*
G02*
X5908337Y-2057143I-191663J57143D01*
G01*
X6368330Y0D02*
G75*
G02*
X6291664Y57143I0J80000D01*
G01*
X9100000Y-1420000D02*
X9100000Y-1268330D01*
X6291663Y-2057143D02*
G75*
G02*
X6368867Y-2000000I76667J-22857D01*
G01*
X5100000Y-80000D02*
G75*
G02*
X5180000Y0I80000J0D01*
G01*
X5180000Y-2000000D02*
G75*
G02*
X5100000Y-1920000I0J80000D01*
G01*
X6368867Y-2000000D02*
X7020000Y-2000000D01*
X5180000Y-2000000D02*
X5831670Y-2000000D01*
X5908337Y57143D02*
G75*
G02*
X5831674Y0I-76663J22854D01*
G01*
X6368330Y0D02*
X7020000Y0D01*
X9100000Y-1420000D02*
G75*
G02*
X9020000Y-1500000I-80000J0D01*
G01*
X9157143Y-808337D02*
G75*
G02*
X9157143Y-1191663I-57143J-191663D01*
G01*
X2820000Y-400000D02*
X2820000Y-200000D01*
X-200000Y-1310000D02*
G75*
G02*
X0Y-1310000I100000J0D01*
G01*
X2000000Y-80000D02*
X2000000Y-400000D01*
X2000000Y-1920000D02*
X2000000Y-1600000D01*
X4400000Y-1800000D02*
G75*
G02*
X4300000Y-1900000I-100000J0D01*
G01*
X2820711Y-1600000D02*
G75*
G02*
X2920711Y-1500001I99999J0D01*
G01*
X3Y-689289D02*
G75*
G02*
X-200000Y-690000I-100002J0D01*
G01*
X2300000Y-400000D02*
X2300000Y300000D01*
X0Y-1310000D02*
X0Y-1920000D01*
X2920000Y-1900000D02*
G75*
G02*
X2820000Y-1800000I0J100000D01*
G01*
X2100000Y-1500000D02*
X2200000Y-1500000D01*
X2100000Y-500000D02*
X2200000Y-500000D01*
X2000000Y-1600000D02*
G75*
G02*
X2100000Y-1500000I100000J0D01*
G01*
X2300000Y-400000D02*
G75*
G02*
X2200000Y-500000I-100000J0D01*
G01*
X2820000Y-200000D02*
G75*
G02*
X2920000Y-100000I100000J0D01*
G01*
X2200000Y-1500000D02*
G75*
G02*
X2300000Y-1600000I0J-100000D01*
G01*
X2920000Y-500000D02*
X3920000Y-500000D01*
X-200000Y-1310000D02*
X-200000Y-2300000D01*
X4300000Y-100000D02*
G75*
G02*
X4400000Y-200000I0J-100000D01*
G01*
X2920000Y-1900000D02*
X4300000Y-1900000D01*
X0Y-80000D02*
X3Y-689289D01*
X2920000Y-500000D02*
G75*
G02*
X2820000Y-400000I0J100000D01*
G01*
X4400000Y-200000D02*
X4400000Y-1800000D01*
X2820711Y-1600000D02*
X2820000Y-1800000D01*
X2100000Y-500000D02*
G75*
G02*
X2000000Y-400000I0J100000D01*
G01*
X2920711Y-1500000D02*
X3920000Y-1500000D01*
X-200000Y-690000D02*
X-200000Y300000D01*
X2300000Y-1600000D02*
X2300000Y-2300000D01*
X2920000Y-100000D02*
X4300000Y-100000D01*
X3920000Y-500000D02*
G75*
G02*
X4000000Y-580000I0J-80000D01*
G01*
X2000000Y-1920000D02*
G75*
G02*
X1920000Y-2000000I-80000J0D01*
G01*
X1920000Y0D02*
G75*
G02*
X2000000Y-80000I0J-80000D01*
G01*
X4057143Y-808337D02*
G75*
G02*
X4000000Y-731133I22857J76667D01*
G01*
X4000000Y-1268330D02*
G75*
G02*
X4057143Y-1191665I80000J0D01*
G01*
X4000000Y-731133D02*
X4000000Y-580000D01*
X80000Y0D02*
X731674Y0D01*
X808337Y57143D02*
G75*
G02*
X1191663Y57143I191663J-57143D01*
G01*
X731670Y-2000000D02*
G75*
G02*
X808335Y-2057143I0J-80000D01*
G01*
X1191663Y-2057143D02*
G75*
G02*
X808337Y-2057143I-191663J57143D01*
G01*
X1268330Y0D02*
G75*
G02*
X1191665Y57143I0J80000D01*
G01*
X4000000Y-1420000D02*
X4000000Y-1268330D01*
X1191663Y-2057143D02*
G75*
G02*
X1268867Y-2000000I76667J-22857D01*
G01*
X0Y-80000D02*
G75*
G02*
X80000Y0I80000J0D01*
G01*
X80000Y-2000000D02*
G75*
G02*
X0Y-1920000I0J80000D01*
G01*
X1268867Y-2000000D02*
X1920000Y-2000000D01*
X80000Y-2000000D02*
X731670Y-2000000D01*
X808337Y57143D02*
G75*
G02*
X731674Y0I-76663J22854D01*
G01*
X1268330Y0D02*
X1920000Y0D01*
X4000000Y-1420000D02*
G75*
G02*
X3920000Y-1500000I-80000J0D01*
G01*
X4057143Y-808337D02*
G75*
G02*
X4057143Y-1191663I-57143J-191663D01*
G01*
X7920000Y-8200000D02*
X7920000Y-8000000D01*
X4900000Y-9110000D02*
G75*
G02*
X5100000Y-9110000I100000J0D01*
G01*
X7100000Y-7880000D02*
X7100000Y-8200000D01*
X7100000Y-9720000D02*
X7100000Y-9400000D01*
X7920711Y-9400000D02*
G75*
G02*
X8020711Y-9300001I99999J0D01*
G01*
X5100003Y-8489289D02*
G75*
G02*
X4900000Y-8490000I-100003J0D01*
G01*
X7400000Y-8200000D02*
X7400000Y-7500000D01*
X7200000Y-9300000D02*
X7300000Y-9300000D01*
X7200000Y-8300000D02*
X7300000Y-8300000D01*
X7400000Y-8200000D02*
G75*
G02*
X7300000Y-8300000I-100000J0D01*
G01*
X8020000Y-8300000D02*
X9020000Y-8300000D01*
X8020000Y-9700000D02*
X9400000Y-9700000D01*
X7920000Y-8000000D02*
G75*
G02*
X8020000Y-7900000I100000J0D01*
G01*
X5100000Y-7880000D02*
X5100003Y-8489289D01*
X8020000Y-8300000D02*
G75*
G02*
X7920000Y-8200000I0J100000D01*
G01*
X7200000Y-8300000D02*
G75*
G02*
X7100000Y-8200000I0J100000D01*
G01*
X8020711Y-9300000D02*
X9020000Y-9300000D01*
X4900000Y-8490000D02*
X4900000Y-7500000D01*
X8020000Y-7900000D02*
X9400000Y-7900000D01*
X6368330Y-7800000D02*
X7020000Y-7800000D01*
X9500000Y-9600000D02*
G75*
G02*
X9400000Y-9700000I-100000J0D01*
G01*
X7300000Y-9300000D02*
G75*
G02*
X7400000Y-9400000I0J-100000D01*
G01*
X7400000Y-9400000D02*
X7400000Y-10100000D01*
X5180000Y-7800000D02*
X5831674Y-7800000D01*
X5100000Y-7880000D02*
G75*
G02*
X5180000Y-7800000I80000J0D01*
G01*
X9100000Y-8531133D02*
X9100000Y-8380000D01*
X8020000Y-9700000D02*
G75*
G02*
X7920000Y-9600000I0J100000D01*
G01*
X9100000Y-9220000D02*
X9100000Y-9068330D01*
X9500000Y-8000000D02*
X9500000Y-9600000D01*
X7020000Y-7800000D02*
G75*
G02*
X7100000Y-7880000I0J-80000D01*
G01*
X6368330Y-7800000D02*
G75*
G02*
X6291664Y-7742857I0J80000D01*
G01*
X6291663Y-9857143D02*
G75*
G02*
X5908337Y-9857143I-191663J57143D01*
G01*
X9100000Y-9068330D02*
G75*
G02*
X9157143Y-8991665I80000J0D01*
G01*
X9157143Y-8608337D02*
G75*
G02*
X9100000Y-8531133I22857J76667D01*
G01*
X5908337Y-7742857D02*
G75*
G02*
X6291663Y-7742857I191663J-57143D01*
G01*
X5831670Y-9800000D02*
G75*
G02*
X5908335Y-9857143I0J-80000D01*
G01*
X5180000Y-9800000D02*
G75*
G02*
X5100000Y-9720000I0J80000D01*
G01*
X6368867Y-9800000D02*
X7020000Y-9800000D01*
X5100000Y-9110000D02*
X5100000Y-9720000D01*
X7920711Y-9400000D02*
X7920000Y-9600000D01*
X5180000Y-9800000D02*
X5831670Y-9800000D01*
X7100000Y-9400000D02*
G75*
G02*
X7200000Y-9300000I100000J0D01*
G01*
X5908337Y-7742857D02*
G75*
G02*
X5831674Y-7800000I-76663J22854D01*
G01*
X7100000Y-9720000D02*
G75*
G02*
X7020000Y-9800000I-80000J0D01*
G01*
X4900000Y-9110000D02*
X4900000Y-10100000D01*
X9400000Y-7900000D02*
G75*
G02*
X9500000Y-8000000I0J-100000D01*
G01*
X9020000Y-8300000D02*
G75*
G02*
X9100000Y-8380000I0J-80000D01*
G01*
X9157143Y-8608337D02*
G75*
G02*
X9157143Y-8991663I-57143J-191663D01*
G01*
X6291663Y-9857143D02*
G75*
G02*
X6368867Y-9800000I76667J-22857D01*
G01*
X9100000Y-9220000D02*
G75*
G02*
X9020000Y-9300000I-80000J0D01*
G01*
D11*
D12*
X285000Y-735000D02*
X315000Y-765000D01*
X315000Y-735000D02*
X285000Y-765000D01*
X285000Y-885000D02*
X315000Y-915000D01*
X315000Y-885000D02*
X285000Y-915000D01*
X285000Y-1035000D02*
X315000Y-1065000D01*
X315000Y-1035000D02*
X285000Y-1065000D01*
X285000Y-1185000D02*
X315000Y-1215000D01*
X315000Y-1185000D02*
X285000Y-1215000D01*
X285000Y-3335000D02*
X315000Y-3365000D01*
X315000Y-3335000D02*
X285000Y-3365000D01*
X285000Y-3485000D02*
X315000Y-3515000D01*
X315000Y-3485000D02*
X285000Y-3515000D01*
X285000Y-3635000D02*
X315000Y-3665000D01*
X315000Y-3635000D02*
X285000Y-3665000D01*
X285000Y-3785000D02*
X315000Y-3815000D01*
X315000Y-3785000D02*
X285000Y-3815000D01*
X285000Y-5935000D02*
X315000Y-5965000D01*
X315000Y-5935000D02*
X285000Y-5965000D01*
X285000Y-6085000D02*
X315000Y-6115000D01*
X315000Y-6085000D02*
X285000Y-6115000D01*
X285000Y-6235000D02*
X315000Y-6265000D01*
X315000Y-6235000D02*
X285000Y-6265000D01*
X285000Y-6385000D02*
X315000Y-6415000D01*
X315000Y-6385000D02*
X285000Y-6415000D01*
X285000Y-8535000D02*
X315000Y-8565000D01*
X315000Y-8535000D02*
X285000Y-8565000D01*
X285000Y-8685000D02*
X315000Y-8715000D01*
X315000Y-8685000D02*
X285000Y-8715000D01*
X285000Y-8835000D02*
X315000Y-8865000D01*
X315000Y-8835000D02*
X285000Y-8865000D01*
X285000Y-8985000D02*
X315000Y-9015000D01*
X315000Y-8985000D02*
X285000Y-9015000D01*
X435000Y-735000D02*
X465000Y-765000D01*
X465000Y-735000D02*
X435000Y-765000D01*
X435000Y-885000D02*
X465000Y-915000D01*
X465000Y-885000D02*
X435000Y-915000D01*
X435000Y-1035000D02*
X465000Y-1065000D01*
X465000Y-1035000D02*
X435000Y-1065000D01*
X435000Y-1185000D02*
X465000Y-1215000D01*
X465000Y-1185000D02*
X435000Y-1215000D01*
X435000Y-3335000D02*
X465000Y-3365000D01*
X465000Y-3335000D02*
X435000Y-3365000D01*
X435000Y-3485000D02*
X465000Y-3515000D01*
X465000Y-3485000D02*
X435000Y-3515000D01*
X435000Y-3635000D02*
X465000Y-3665000D01*
X465000Y-3635000D02*
X435000Y-3665000D01*
X435000Y-3785000D02*
X465000Y-3815000D01*
X465000Y-3785000D02*
X435000Y-3815000D01*
X435000Y-5935000D02*
X465000Y-5965000D01*
X465000Y-5935000D02*
X435000Y-5965000D01*
X435000Y-6085000D02*
X465000Y-6115000D01*
X465000Y-6085000D02*
X435000Y-6115000D01*
X435000Y-6235000D02*
X465000Y-6265000D01*
X465000Y-6235000D02*
X435000Y-6265000D01*
X435000Y-6385000D02*
X465000Y-6415000D01*
X465000Y-6385000D02*
X435000Y-6415000D01*
X435000Y-8535000D02*
X465000Y-8565000D01*
X465000Y-8535000D02*
X435000Y-8565000D01*
X435000Y-8685000D02*
X465000Y-8715000D01*
X465000Y-8685000D02*
X435000Y-8715000D01*
X435000Y-8835000D02*
X465000Y-8865000D01*
X465000Y-8835000D02*
X435000Y-8865000D01*
X435000Y-8985000D02*
X465000Y-9015000D01*
X465000Y-8985000D02*
X435000Y-9015000D01*
X685000Y-1585000D02*
X715000Y-1615000D01*
X715000Y-1585000D02*
X685000Y-1615000D01*
X685000Y-4185000D02*
X715000Y-4215000D01*
X715000Y-4185000D02*
X685000Y-4215000D01*
X685000Y-6785000D02*
X715000Y-6815000D01*
X715000Y-6785000D02*
X685000Y-6815000D01*
X685000Y-9385000D02*
X715000Y-9415000D01*
X715000Y-9385000D02*
X685000Y-9415000D01*
X785000Y-985000D02*
X815000Y-1015000D01*
X815000Y-985000D02*
X785000Y-1015000D01*
X785000Y-3585000D02*
X815000Y-3615000D01*
X815000Y-3585000D02*
X785000Y-3615000D01*
X785000Y-6185000D02*
X815000Y-6215000D01*
X815000Y-6185000D02*
X785000Y-6215000D01*
X785000Y-8785000D02*
X815000Y-8815000D01*
X815000Y-8785000D02*
X785000Y-8815000D01*
X885000Y-435000D02*
X915000Y-465000D01*
X915000Y-435000D02*
X885000Y-465000D01*
X885000Y-3035000D02*
X915000Y-3065000D01*
X915000Y-3035000D02*
X885000Y-3065000D01*
X885000Y-5635000D02*
X915000Y-5665000D01*
X915000Y-5635000D02*
X885000Y-5665000D01*
X885000Y-8235000D02*
X915000Y-8265000D01*
X915000Y-8235000D02*
X885000Y-8265000D01*
X1085000Y-1435000D02*
X1115000Y-1465000D01*
X1115000Y-1435000D02*
X1085000Y-1465000D01*
X1085000Y-4035000D02*
X1115000Y-4065000D01*
X1115000Y-4035000D02*
X1085000Y-4065000D01*
X1085000Y-6635000D02*
X1115000Y-6665000D01*
X1115000Y-6635000D02*
X1085000Y-6665000D01*
X1085000Y-9235000D02*
X1115000Y-9265000D01*
X1115000Y-9235000D02*
X1085000Y-9265000D01*
X1135000Y-435000D02*
X1165000Y-465000D01*
X1165000Y-435000D02*
X1135000Y-465000D01*
X1135000Y-3035000D02*
X1165000Y-3065000D01*
X1165000Y-3035000D02*
X1135000Y-3065000D01*
X1135000Y-5635000D02*
X1165000Y-5665000D01*
X1165000Y-5635000D02*
X1135000Y-5665000D01*
X1135000Y-8235000D02*
X1165000Y-8265000D01*
X1165000Y-8235000D02*
X1135000Y-8265000D01*
X1185000Y-1435000D02*
X1215000Y-1465000D01*
X1215000Y-1435000D02*
X1185000Y-1465000D01*
X1185000Y-4035000D02*
X1215000Y-4065000D01*
X1215000Y-4035000D02*
X1185000Y-4065000D01*
X1185000Y-6635000D02*
X1215000Y-6665000D01*
X1215000Y-6635000D02*
X1185000Y-6665000D01*
X1185000Y-9235000D02*
X1215000Y-9265000D01*
X1215000Y-9235000D02*
X1185000Y-9265000D01*
X1335000Y-235000D02*
X1365000Y-265000D01*
X1365000Y-235000D02*
X1335000Y-265000D01*
X1335000Y-335000D02*
X1365000Y-365000D01*
X1365000Y-335000D02*
X1335000Y-365000D01*
X1335000Y-935000D02*
X1365000Y-965000D01*
X1365000Y-935000D02*
X1335000Y-965000D01*
X1335000Y-1035000D02*
X1365000Y-1065000D01*
X1365000Y-1035000D02*
X1335000Y-1065000D01*
X1335000Y-2835000D02*
X1365000Y-2865000D01*
X1365000Y-2835000D02*
X1335000Y-2865000D01*
X1335000Y-2935000D02*
X1365000Y-2965000D01*
X1365000Y-2935000D02*
X1335000Y-2965000D01*
X1335000Y-3535000D02*
X1365000Y-3565000D01*
X1365000Y-3535000D02*
X1335000Y-3565000D01*
X1335000Y-3635000D02*
X1365000Y-3665000D01*
X1365000Y-3635000D02*
X1335000Y-3665000D01*
X1335000Y-5435000D02*
X1365000Y-5465000D01*
X1365000Y-5435000D02*
X1335000Y-5465000D01*
X1335000Y-5535000D02*
X1365000Y-5565000D01*
X1365000Y-5535000D02*
X1335000Y-5565000D01*
X1335000Y-6135000D02*
X1365000Y-6165000D01*
X1365000Y-6135000D02*
X1335000Y-6165000D01*
X1335000Y-6235000D02*
X1365000Y-6265000D01*
X1365000Y-6235000D02*
X1335000Y-6265000D01*
X1335000Y-8035000D02*
X1365000Y-8065000D01*
X1365000Y-8035000D02*
X1335000Y-8065000D01*
X1335000Y-8135000D02*
X1365000Y-8165000D01*
X1365000Y-8135000D02*
X1335000Y-8165000D01*
X1335000Y-8735000D02*
X1365000Y-8765000D01*
X1365000Y-8735000D02*
X1335000Y-8765000D01*
X1335000Y-8835000D02*
X1365000Y-8865000D01*
X1365000Y-8835000D02*
X1335000Y-8865000D01*
X1485000Y-785000D02*
X1515000Y-815000D01*
X1515000Y-785000D02*
X1485000Y-815000D01*
X1485000Y-3385000D02*
X1515000Y-3415000D01*
X1515000Y-3385000D02*
X1485000Y-3415000D01*
X1485000Y-5985000D02*
X1515000Y-6015000D01*
X1515000Y-5985000D02*
X1485000Y-6015000D01*
X1485000Y-8585000D02*
X1515000Y-8615000D01*
X1515000Y-8585000D02*
X1485000Y-8615000D01*
X1685000Y-785000D02*
X1715000Y-815000D01*
X1715000Y-785000D02*
X1685000Y-815000D01*
X1685000Y-3385000D02*
X1715000Y-3415000D01*
X1715000Y-3385000D02*
X1685000Y-3415000D01*
X1685000Y-5985000D02*
X1715000Y-6015000D01*
X1715000Y-5985000D02*
X1685000Y-6015000D01*
X1685000Y-8585000D02*
X1715000Y-8615000D01*
X1715000Y-8585000D02*
X1685000Y-8615000D01*
X1775000Y-345000D02*
X1805000Y-375000D01*
X1805000Y-345000D02*
X1775000Y-375000D01*
X1775000Y-2945000D02*
X1805000Y-2975000D01*
X1805000Y-2945000D02*
X1775000Y-2975000D01*
X1775000Y-5545000D02*
X1805000Y-5575000D01*
X1805000Y-5545000D02*
X1775000Y-5575000D01*
X1775000Y-8145000D02*
X1805000Y-8175000D01*
X1805000Y-8145000D02*
X1775000Y-8175000D01*
X1985000Y-785000D02*
X2015000Y-815000D01*
X2015000Y-785000D02*
X1985000Y-815000D01*
X1985000Y-3385000D02*
X2015000Y-3415000D01*
X2015000Y-3385000D02*
X1985000Y-3415000D01*
X1985000Y-5985000D02*
X2015000Y-6015000D01*
X2015000Y-5985000D02*
X1985000Y-6015000D01*
X1985000Y-8585000D02*
X2015000Y-8615000D01*
X2015000Y-8585000D02*
X1985000Y-8615000D01*
X2085000Y-1385000D02*
X2115000Y-1415000D01*
X2115000Y-1385000D02*
X2085000Y-1415000D01*
X2085000Y-3985000D02*
X2115000Y-4015000D01*
X2115000Y-3985000D02*
X2085000Y-4015000D01*
X2085000Y-6585000D02*
X2115000Y-6615000D01*
X2115000Y-6585000D02*
X2085000Y-6615000D01*
X2085000Y-9185000D02*
X2115000Y-9215000D01*
X2115000Y-9185000D02*
X2085000Y-9215000D01*
X2135000Y-885000D02*
X2165000Y-915000D01*
X2165000Y-885000D02*
X2135000Y-915000D01*
X2135000Y-3485000D02*
X2165000Y-3515000D01*
X2165000Y-3485000D02*
X2135000Y-3515000D01*
X2135000Y-6085000D02*
X2165000Y-6115000D01*
X2165000Y-6085000D02*
X2135000Y-6115000D01*
X2135000Y-8685000D02*
X2165000Y-8715000D01*
X2165000Y-8685000D02*
X2135000Y-8715000D01*
X2185000Y-1385000D02*
X2215000Y-1415000D01*
X2215000Y-1385000D02*
X2185000Y-1415000D01*
X2185000Y-3985000D02*
X2215000Y-4015000D01*
X2215000Y-3985000D02*
X2185000Y-4015000D01*
X2185000Y-6585000D02*
X2215000Y-6615000D01*
X2215000Y-6585000D02*
X2185000Y-6615000D01*
X2185000Y-9185000D02*
X2215000Y-9215000D01*
X2215000Y-9185000D02*
X2185000Y-9215000D01*
X2335000Y-885000D02*
X2365000Y-915000D01*
X2365000Y-885000D02*
X2335000Y-915000D01*
X2335000Y-3485000D02*
X2365000Y-3515000D01*
X2365000Y-3485000D02*
X2335000Y-3515000D01*
X2335000Y-6085000D02*
X2365000Y-6115000D01*
X2365000Y-6085000D02*
X2335000Y-6115000D01*
X2335000Y-8685000D02*
X2365000Y-8715000D01*
X2365000Y-8685000D02*
X2335000Y-8715000D01*
X2635000Y-735000D02*
X2665000Y-765000D01*
X2665000Y-735000D02*
X2635000Y-765000D01*
X2635000Y-3335000D02*
X2665000Y-3365000D01*
X2665000Y-3335000D02*
X2635000Y-3365000D01*
X2635000Y-5935000D02*
X2665000Y-5965000D01*
X2665000Y-5935000D02*
X2635000Y-5965000D01*
X2635000Y-8535000D02*
X2665000Y-8565000D01*
X2665000Y-8535000D02*
X2635000Y-8565000D01*
X2685000Y-1235000D02*
X2715000Y-1265000D01*
X2715000Y-1235000D02*
X2685000Y-1265000D01*
X2685000Y-1385000D02*
X2715000Y-1415000D01*
X2715000Y-1385000D02*
X2685000Y-1415000D01*
X2685000Y-3835000D02*
X2715000Y-3865000D01*
X2715000Y-3835000D02*
X2685000Y-3865000D01*
X2685000Y-3985000D02*
X2715000Y-4015000D01*
X2715000Y-3985000D02*
X2685000Y-4015000D01*
X2685000Y-6435000D02*
X2715000Y-6465000D01*
X2715000Y-6435000D02*
X2685000Y-6465000D01*
X2685000Y-6585000D02*
X2715000Y-6615000D01*
X2715000Y-6585000D02*
X2685000Y-6615000D01*
X2685000Y-9035000D02*
X2715000Y-9065000D01*
X2715000Y-9035000D02*
X2685000Y-9065000D01*
X2685000Y-9185000D02*
X2715000Y-9215000D01*
X2715000Y-9185000D02*
X2685000Y-9215000D01*
X2785000Y-735000D02*
X2815000Y-765000D01*
X2815000Y-735000D02*
X2785000Y-765000D01*
X2785000Y-3335000D02*
X2815000Y-3365000D01*
X2815000Y-3335000D02*
X2785000Y-3365000D01*
X2785000Y-5935000D02*
X2815000Y-5965000D01*
X2815000Y-5935000D02*
X2785000Y-5965000D01*
X2785000Y-8535000D02*
X2815000Y-8565000D01*
X2815000Y-8535000D02*
X2785000Y-8565000D01*
X2885000Y-1235000D02*
X2915000Y-1265000D01*
X2915000Y-1235000D02*
X2885000Y-1265000D01*
X2885000Y-1385000D02*
X2915000Y-1415000D01*
X2915000Y-1385000D02*
X2885000Y-1415000D01*
X2885000Y-3835000D02*
X2915000Y-3865000D01*
X2915000Y-3835000D02*
X2885000Y-3865000D01*
X2885000Y-3985000D02*
X2915000Y-4015000D01*
X2915000Y-3985000D02*
X2885000Y-4015000D01*
X2885000Y-6435000D02*
X2915000Y-6465000D01*
X2915000Y-6435000D02*
X2885000Y-6465000D01*
X2885000Y-6585000D02*
X2915000Y-6615000D01*
X2915000Y-6585000D02*
X2885000Y-6615000D01*
X2885000Y-9035000D02*
X2915000Y-9065000D01*
X2915000Y-9035000D02*
X2885000Y-9065000D01*
X2885000Y-9185000D02*
X2915000Y-9215000D01*
X2915000Y-9185000D02*
X2885000Y-9215000D01*
X3065000Y-955000D02*
X3095000Y-985000D01*
X3095000Y-955000D02*
X3065000Y-985000D01*
X3065000Y-3555000D02*
X3095000Y-3585000D01*
X3095000Y-3555000D02*
X3065000Y-3585000D01*
X3065000Y-6155000D02*
X3095000Y-6185000D01*
X3095000Y-6155000D02*
X3065000Y-6185000D01*
X3065000Y-8755000D02*
X3095000Y-8785000D01*
X3095000Y-8755000D02*
X3065000Y-8785000D01*
X3385000Y-985000D02*
X3415000Y-1015000D01*
X3415000Y-985000D02*
X3385000Y-1015000D01*
X3385000Y-3585000D02*
X3415000Y-3615000D01*
X3415000Y-3585000D02*
X3385000Y-3615000D01*
X3385000Y-6185000D02*
X3415000Y-6215000D01*
X3415000Y-6185000D02*
X3385000Y-6215000D01*
X3385000Y-8785000D02*
X3415000Y-8815000D01*
X3415000Y-8785000D02*
X3385000Y-8815000D01*
X3485000Y-985000D02*
X3515000Y-1015000D01*
X3515000Y-985000D02*
X3485000Y-1015000D01*
X3485000Y-3585000D02*
X3515000Y-3615000D01*
X3515000Y-3585000D02*
X3485000Y-3615000D01*
X3485000Y-6185000D02*
X3515000Y-6215000D01*
X3515000Y-6185000D02*
X3485000Y-6215000D01*
X3485000Y-8785000D02*
X3515000Y-8815000D01*
X3515000Y-8785000D02*
X3485000Y-8815000D01*
X3785000Y-685000D02*
X3815000Y-715000D01*
X3815000Y-685000D02*
X3785000Y-715000D01*
X3785000Y-985000D02*
X3815000Y-1015000D01*
X3815000Y-985000D02*
X3785000Y-1015000D01*
X3785000Y-1285000D02*
X3815000Y-1315000D01*
X3815000Y-1285000D02*
X3785000Y-1315000D01*
X3785000Y-3285000D02*
X3815000Y-3315000D01*
X3815000Y-3285000D02*
X3785000Y-3315000D01*
X3785000Y-3585000D02*
X3815000Y-3615000D01*
X3815000Y-3585000D02*
X3785000Y-3615000D01*
X3785000Y-3885000D02*
X3815000Y-3915000D01*
X3815000Y-3885000D02*
X3785000Y-3915000D01*
X3785000Y-5885000D02*
X3815000Y-5915000D01*
X3815000Y-5885000D02*
X3785000Y-5915000D01*
X3785000Y-6185000D02*
X3815000Y-6215000D01*
X3815000Y-6185000D02*
X3785000Y-6215000D01*
X3785000Y-6485000D02*
X3815000Y-6515000D01*
X3815000Y-6485000D02*
X3785000Y-6515000D01*
X3785000Y-8485000D02*
X3815000Y-8515000D01*
X3815000Y-8485000D02*
X3785000Y-8515000D01*
X3785000Y-8785000D02*
X3815000Y-8815000D01*
X3815000Y-8785000D02*
X3785000Y-8815000D01*
X3785000Y-9085000D02*
X3815000Y-9115000D01*
X3815000Y-9085000D02*
X3785000Y-9115000D01*
X5385000Y-735000D02*
X5415000Y-765000D01*
X5415000Y-735000D02*
X5385000Y-765000D01*
X5385000Y-885000D02*
X5415000Y-915000D01*
X5415000Y-885000D02*
X5385000Y-915000D01*
X5385000Y-1035000D02*
X5415000Y-1065000D01*
X5415000Y-1035000D02*
X5385000Y-1065000D01*
X5385000Y-1185000D02*
X5415000Y-1215000D01*
X5415000Y-1185000D02*
X5385000Y-1215000D01*
X5385000Y-3335000D02*
X5415000Y-3365000D01*
X5415000Y-3335000D02*
X5385000Y-3365000D01*
X5385000Y-3485000D02*
X5415000Y-3515000D01*
X5415000Y-3485000D02*
X5385000Y-3515000D01*
X5385000Y-3635000D02*
X5415000Y-3665000D01*
X5415000Y-3635000D02*
X5385000Y-3665000D01*
X5385000Y-3785000D02*
X5415000Y-3815000D01*
X5415000Y-3785000D02*
X5385000Y-3815000D01*
X5385000Y-5935000D02*
X5415000Y-5965000D01*
X5415000Y-5935000D02*
X5385000Y-5965000D01*
X5385000Y-6085000D02*
X5415000Y-6115000D01*
X5415000Y-6085000D02*
X5385000Y-6115000D01*
X5385000Y-6235000D02*
X5415000Y-6265000D01*
X5415000Y-6235000D02*
X5385000Y-6265000D01*
X5385000Y-6385000D02*
X5415000Y-6415000D01*
X5415000Y-6385000D02*
X5385000Y-6415000D01*
X5385000Y-8535000D02*
X5415000Y-8565000D01*
X5415000Y-8535000D02*
X5385000Y-8565000D01*
X5385000Y-8685000D02*
X5415000Y-8715000D01*
X5415000Y-8685000D02*
X5385000Y-8715000D01*
X5385000Y-8835000D02*
X5415000Y-8865000D01*
X5415000Y-8835000D02*
X5385000Y-8865000D01*
X5385000Y-8985000D02*
X5415000Y-9015000D01*
X5415000Y-8985000D02*
X5385000Y-9015000D01*
X5535000Y-735000D02*
X5565000Y-765000D01*
X5565000Y-735000D02*
X5535000Y-765000D01*
X5535000Y-885000D02*
X5565000Y-915000D01*
X5565000Y-885000D02*
X5535000Y-915000D01*
X5535000Y-1035000D02*
X5565000Y-1065000D01*
X5565000Y-1035000D02*
X5535000Y-1065000D01*
X5535000Y-1185000D02*
X5565000Y-1215000D01*
X5565000Y-1185000D02*
X5535000Y-1215000D01*
X5535000Y-3335000D02*
X5565000Y-3365000D01*
X5565000Y-3335000D02*
X5535000Y-3365000D01*
X5535000Y-3485000D02*
X5565000Y-3515000D01*
X5565000Y-3485000D02*
X5535000Y-3515000D01*
X5535000Y-3635000D02*
X5565000Y-3665000D01*
X5565000Y-3635000D02*
X5535000Y-3665000D01*
X5535000Y-3785000D02*
X5565000Y-3815000D01*
X5565000Y-3785000D02*
X5535000Y-3815000D01*
X5535000Y-5935000D02*
X5565000Y-5965000D01*
X5565000Y-5935000D02*
X5535000Y-5965000D01*
X5535000Y-6085000D02*
X5565000Y-6115000D01*
X5565000Y-6085000D02*
X5535000Y-6115000D01*
X5535000Y-6235000D02*
X5565000Y-6265000D01*
X5565000Y-6235000D02*
X5535000Y-6265000D01*
X5535000Y-6385000D02*
X5565000Y-6415000D01*
X5565000Y-6385000D02*
X5535000Y-6415000D01*
X5535000Y-8535000D02*
X5565000Y-8565000D01*
X5565000Y-8535000D02*
X5535000Y-8565000D01*
X5535000Y-8685000D02*
X5565000Y-8715000D01*
X5565000Y-8685000D02*
X5535000Y-8715000D01*
X5535000Y-8835000D02*
X5565000Y-8865000D01*
X5565000Y-8835000D02*
X5535000Y-8865000D01*
X5535000Y-8985000D02*
X5565000Y-9015000D01*
X5565000Y-8985000D02*
X5535000Y-9015000D01*
X5785000Y-1585000D02*
X5815000Y-1615000D01*
X5815000Y-1585000D02*
X5785000Y-1615000D01*
X5785000Y-4185000D02*
X5815000Y-4215000D01*
X5815000Y-4185000D02*
X5785000Y-4215000D01*
X5785000Y-6785000D02*
X5815000Y-6815000D01*
X5815000Y-6785000D02*
X5785000Y-6815000D01*
X5785000Y-9385000D02*
X5815000Y-9415000D01*
X5815000Y-9385000D02*
X5785000Y-9415000D01*
X5885000Y-985000D02*
X5915000Y-1015000D01*
X5915000Y-985000D02*
X5885000Y-1015000D01*
X5885000Y-3585000D02*
X5915000Y-3615000D01*
X5915000Y-3585000D02*
X5885000Y-3615000D01*
X5885000Y-6185000D02*
X5915000Y-6215000D01*
X5915000Y-6185000D02*
X5885000Y-6215000D01*
X5885000Y-8785000D02*
X5915000Y-8815000D01*
X5915000Y-8785000D02*
X5885000Y-8815000D01*
X5985000Y-435000D02*
X6015000Y-465000D01*
X6015000Y-435000D02*
X5985000Y-465000D01*
X5985000Y-3035000D02*
X6015000Y-3065000D01*
X6015000Y-3035000D02*
X5985000Y-3065000D01*
X5985000Y-5635000D02*
X6015000Y-5665000D01*
X6015000Y-5635000D02*
X5985000Y-5665000D01*
X5985000Y-8235000D02*
X6015000Y-8265000D01*
X6015000Y-8235000D02*
X5985000Y-8265000D01*
X6185000Y-1435000D02*
X6215000Y-1465000D01*
X6215000Y-1435000D02*
X6185000Y-1465000D01*
X6185000Y-4035000D02*
X6215000Y-4065000D01*
X6215000Y-4035000D02*
X6185000Y-4065000D01*
X6185000Y-6635000D02*
X6215000Y-6665000D01*
X6215000Y-6635000D02*
X6185000Y-6665000D01*
X6185000Y-9235000D02*
X6215000Y-9265000D01*
X6215000Y-9235000D02*
X6185000Y-9265000D01*
X6235000Y-435000D02*
X6265000Y-465000D01*
X6265000Y-435000D02*
X6235000Y-465000D01*
X6235000Y-3035000D02*
X6265000Y-3065000D01*
X6265000Y-3035000D02*
X6235000Y-3065000D01*
X6235000Y-5635000D02*
X6265000Y-5665000D01*
X6265000Y-5635000D02*
X6235000Y-5665000D01*
X6235000Y-8235000D02*
X6265000Y-8265000D01*
X6265000Y-8235000D02*
X6235000Y-8265000D01*
X6285000Y-1435000D02*
X6315000Y-1465000D01*
X6315000Y-1435000D02*
X6285000Y-1465000D01*
X6285000Y-4035000D02*
X6315000Y-4065000D01*
X6315000Y-4035000D02*
X6285000Y-4065000D01*
X6285000Y-6635000D02*
X6315000Y-6665000D01*
X6315000Y-6635000D02*
X6285000Y-6665000D01*
X6285000Y-9235000D02*
X6315000Y-9265000D01*
X6315000Y-9235000D02*
X6285000Y-9265000D01*
X6435000Y-235000D02*
X6465000Y-265000D01*
X6465000Y-235000D02*
X6435000Y-265000D01*
X6435000Y-335000D02*
X6465000Y-365000D01*
X6465000Y-335000D02*
X6435000Y-365000D01*
X6435000Y-935000D02*
X6465000Y-965000D01*
X6465000Y-935000D02*
X6435000Y-965000D01*
X6435000Y-1035000D02*
X6465000Y-1065000D01*
X6465000Y-1035000D02*
X6435000Y-1065000D01*
X6435000Y-2835000D02*
X6465000Y-2865000D01*
X6465000Y-2835000D02*
X6435000Y-2865000D01*
X6435000Y-2935000D02*
X6465000Y-2965000D01*
X6465000Y-2935000D02*
X6435000Y-2965000D01*
X6435000Y-3535000D02*
X6465000Y-3565000D01*
X6465000Y-3535000D02*
X6435000Y-3565000D01*
X6435000Y-3635000D02*
X6465000Y-3665000D01*
X6465000Y-3635000D02*
X6435000Y-3665000D01*
X6435000Y-5435000D02*
X6465000Y-5465000D01*
X6465000Y-5435000D02*
X6435000Y-5465000D01*
X6435000Y-5535000D02*
X6465000Y-5565000D01*
X6465000Y-5535000D02*
X6435000Y-5565000D01*
X6435000Y-6135000D02*
X6465000Y-6165000D01*
X6465000Y-6135000D02*
X6435000Y-6165000D01*
X6435000Y-6235000D02*
X6465000Y-6265000D01*
X6465000Y-6235000D02*
X6435000Y-6265000D01*
X6435000Y-8035000D02*
X6465000Y-8065000D01*
X6465000Y-8035000D02*
X6435000Y-8065000D01*
X6435000Y-8135000D02*
X6465000Y-8165000D01*
X6465000Y-8135000D02*
X6435000Y-8165000D01*
X6435000Y-8735000D02*
X6465000Y-8765000D01*
X6465000Y-8735000D02*
X6435000Y-8765000D01*
X6435000Y-8835000D02*
X6465000Y-8865000D01*
X6465000Y-8835000D02*
X6435000Y-8865000D01*
X6585000Y-785000D02*
X6615000Y-815000D01*
X6615000Y-785000D02*
X6585000Y-815000D01*
X6585000Y-3385000D02*
X6615000Y-3415000D01*
X6615000Y-3385000D02*
X6585000Y-3415000D01*
X6585000Y-5985000D02*
X6615000Y-6015000D01*
X6615000Y-5985000D02*
X6585000Y-6015000D01*
X6585000Y-8585000D02*
X6615000Y-8615000D01*
X6615000Y-8585000D02*
X6585000Y-8615000D01*
X6785000Y-785000D02*
X6815000Y-815000D01*
X6815000Y-785000D02*
X6785000Y-815000D01*
X6785000Y-3385000D02*
X6815000Y-3415000D01*
X6815000Y-3385000D02*
X6785000Y-3415000D01*
X6785000Y-5985000D02*
X6815000Y-6015000D01*
X6815000Y-5985000D02*
X6785000Y-6015000D01*
X6785000Y-8585000D02*
X6815000Y-8615000D01*
X6815000Y-8585000D02*
X6785000Y-8615000D01*
X6875000Y-345000D02*
X6905000Y-375000D01*
X6905000Y-345000D02*
X6875000Y-375000D01*
X6875000Y-2945000D02*
X6905000Y-2975000D01*
X6905000Y-2945000D02*
X6875000Y-2975000D01*
X6875000Y-5545000D02*
X6905000Y-5575000D01*
X6905000Y-5545000D02*
X6875000Y-5575000D01*
X6875000Y-8145000D02*
X6905000Y-8175000D01*
X6905000Y-8145000D02*
X6875000Y-8175000D01*
X7085000Y-785000D02*
X7115000Y-815000D01*
X7115000Y-785000D02*
X7085000Y-815000D01*
X7085000Y-3385000D02*
X7115000Y-3415000D01*
X7115000Y-3385000D02*
X7085000Y-3415000D01*
X7085000Y-5985000D02*
X7115000Y-6015000D01*
X7115000Y-5985000D02*
X7085000Y-6015000D01*
X7085000Y-8585000D02*
X7115000Y-8615000D01*
X7115000Y-8585000D02*
X7085000Y-8615000D01*
X7185000Y-1385000D02*
X7215000Y-1415000D01*
X7215000Y-1385000D02*
X7185000Y-1415000D01*
X7185000Y-3985000D02*
X7215000Y-4015000D01*
X7215000Y-3985000D02*
X7185000Y-4015000D01*
X7185000Y-6585000D02*
X7215000Y-6615000D01*
X7215000Y-6585000D02*
X7185000Y-6615000D01*
X7185000Y-9185000D02*
X7215000Y-9215000D01*
X7215000Y-9185000D02*
X7185000Y-9215000D01*
X7235000Y-885000D02*
X7265000Y-915000D01*
X7265000Y-885000D02*
X7235000Y-915000D01*
X7235000Y-3485000D02*
X7265000Y-3515000D01*
X7265000Y-3485000D02*
X7235000Y-3515000D01*
X7235000Y-6085000D02*
X7265000Y-6115000D01*
X7265000Y-6085000D02*
X7235000Y-6115000D01*
X7235000Y-8685000D02*
X7265000Y-8715000D01*
X7265000Y-8685000D02*
X7235000Y-8715000D01*
X7285000Y-1385000D02*
X7315000Y-1415000D01*
X7315000Y-1385000D02*
X7285000Y-1415000D01*
X7285000Y-3985000D02*
X7315000Y-4015000D01*
X7315000Y-3985000D02*
X7285000Y-4015000D01*
X7285000Y-6585000D02*
X7315000Y-6615000D01*
X7315000Y-6585000D02*
X7285000Y-6615000D01*
X7285000Y-9185000D02*
X7315000Y-9215000D01*
X7315000Y-9185000D02*
X7285000Y-9215000D01*
X7435000Y-885000D02*
X7465000Y-915000D01*
X7465000Y-885000D02*
X7435000Y-915000D01*
X7435000Y-3485000D02*
X7465000Y-3515000D01*
X7465000Y-3485000D02*
X7435000Y-3515000D01*
X7435000Y-6085000D02*
X7465000Y-6115000D01*
X7465000Y-6085000D02*
X7435000Y-6115000D01*
X7435000Y-8685000D02*
X7465000Y-8715000D01*
X7465000Y-8685000D02*
X7435000Y-8715000D01*
X7735000Y-735000D02*
X7765000Y-765000D01*
X7765000Y-735000D02*
X7735000Y-765000D01*
X7735000Y-3335000D02*
X7765000Y-3365000D01*
X7765000Y-3335000D02*
X7735000Y-3365000D01*
X7735000Y-5935000D02*
X7765000Y-5965000D01*
X7765000Y-5935000D02*
X7735000Y-5965000D01*
X7735000Y-8535000D02*
X7765000Y-8565000D01*
X7765000Y-8535000D02*
X7735000Y-8565000D01*
X7785000Y-1235000D02*
X7815000Y-1265000D01*
X7815000Y-1235000D02*
X7785000Y-1265000D01*
X7785000Y-1385000D02*
X7815000Y-1415000D01*
X7815000Y-1385000D02*
X7785000Y-1415000D01*
X7785000Y-3835000D02*
X7815000Y-3865000D01*
X7815000Y-3835000D02*
X7785000Y-3865000D01*
X7785000Y-3985000D02*
X7815000Y-4015000D01*
X7815000Y-3985000D02*
X7785000Y-4015000D01*
X7785000Y-6435000D02*
X7815000Y-6465000D01*
X7815000Y-6435000D02*
X7785000Y-6465000D01*
X7785000Y-6585000D02*
X7815000Y-6615000D01*
X7815000Y-6585000D02*
X7785000Y-6615000D01*
X7785000Y-9035000D02*
X7815000Y-9065000D01*
X7815000Y-9035000D02*
X7785000Y-9065000D01*
X7785000Y-9185000D02*
X7815000Y-9215000D01*
X7815000Y-9185000D02*
X7785000Y-9215000D01*
X7885000Y-735000D02*
X7915000Y-765000D01*
X7915000Y-735000D02*
X7885000Y-765000D01*
X7885000Y-3335000D02*
X7915000Y-3365000D01*
X7915000Y-3335000D02*
X7885000Y-3365000D01*
X7885000Y-5935000D02*
X7915000Y-5965000D01*
X7915000Y-5935000D02*
X7885000Y-5965000D01*
X7885000Y-8535000D02*
X7915000Y-8565000D01*
X7915000Y-8535000D02*
X7885000Y-8565000D01*
X7985000Y-1235000D02*
X8015000Y-1265000D01*
X8015000Y-1235000D02*
X7985000Y-1265000D01*
X7985000Y-1385000D02*
X8015000Y-1415000D01*
X8015000Y-1385000D02*
X7985000Y-1415000D01*
X7985000Y-3835000D02*
X8015000Y-3865000D01*
X8015000Y-3835000D02*
X7985000Y-3865000D01*
X7985000Y-3985000D02*
X8015000Y-4015000D01*
X8015000Y-3985000D02*
X7985000Y-4015000D01*
X7985000Y-6435000D02*
X8015000Y-6465000D01*
X8015000Y-6435000D02*
X7985000Y-6465000D01*
X7985000Y-6585000D02*
X8015000Y-6615000D01*
X8015000Y-6585000D02*
X7985000Y-6615000D01*
X7985000Y-9035000D02*
X8015000Y-9065000D01*
X8015000Y-9035000D02*
X7985000Y-9065000D01*
X7985000Y-9185000D02*
X8015000Y-9215000D01*
X8015000Y-9185000D02*
X7985000Y-9215000D01*
X8165000Y-955000D02*
X8195000Y-985000D01*
X8195000Y-955000D02*
X8165000Y-985000D01*
X8165000Y-3555000D02*
X8195000Y-3585000D01*
X8195000Y-3555000D02*
X8165000Y-3585000D01*
X8165000Y-6155000D02*
X8195000Y-6185000D01*
X8195000Y-6155000D02*
X8165000Y-6185000D01*
X8165000Y-8755000D02*
X8195000Y-8785000D01*
X8195000Y-8755000D02*
X8165000Y-8785000D01*
X8485000Y-985000D02*
X8515000Y-1015000D01*
X8515000Y-985000D02*
X8485000Y-1015000D01*
X8485000Y-3585000D02*
X8515000Y-3615000D01*
X8515000Y-3585000D02*
X8485000Y-3615000D01*
X8485000Y-6185000D02*
X8515000Y-6215000D01*
X8515000Y-6185000D02*
X8485000Y-6215000D01*
X8485000Y-8785000D02*
X8515000Y-8815000D01*
X8515000Y-8785000D02*
X8485000Y-8815000D01*
X8585000Y-985000D02*
X8615000Y-1015000D01*
X8615000Y-985000D02*
X8585000Y-1015000D01*
X8585000Y-3585000D02*
X8615000Y-3615000D01*
X8615000Y-3585000D02*
X8585000Y-3615000D01*
X8585000Y-6185000D02*
X8615000Y-6215000D01*
X8615000Y-6185000D02*
X8585000Y-6215000D01*
X8585000Y-8785000D02*
X8615000Y-8815000D01*
X8615000Y-8785000D02*
X8585000Y-8815000D01*
X8885000Y-685000D02*
X8915000Y-715000D01*
X8915000Y-685000D02*
X8885000Y-715000D01*
X8885000Y-985000D02*
X8915000Y-1015000D01*
X8915000Y-985000D02*
X8885000Y-1015000D01*
X8885000Y-1285000D02*
X8915000Y-1315000D01*
X8915000Y-1285000D02*
X8885000Y-1315000D01*
X8885000Y-3285000D02*
X8915000Y-3315000D01*
X8915000Y-3285000D02*
X8885000Y-3315000D01*
X8885000Y-3585000D02*
X8915000Y-3615000D01*
X8915000Y-3585000D02*
X8885000Y-3615000D01*
X8885000Y-3885000D02*
X8915000Y-3915000D01*
X8915000Y-3885000D02*
X8885000Y-3915000D01*
X8885000Y-5885000D02*
X8915000Y-5915000D01*
X8915000Y-5885000D02*
X8885000Y-5915000D01*
X8885000Y-6185000D02*
X8915000Y-6215000D01*
X8915000Y-6185000D02*
X8885000Y-6215000D01*
X8885000Y-6485000D02*
X8915000Y-6515000D01*
X8915000Y-6485000D02*
X8885000Y-6515000D01*
X8885000Y-8485000D02*
X8915000Y-8515000D01*
X8915000Y-8485000D02*
X8885000Y-8515000D01*
X8885000Y-8785000D02*
X8915000Y-8815000D01*
X8915000Y-8785000D02*
X8885000Y-8815000D01*
X8885000Y-9085000D02*
X8915000Y-9115000D01*
X8915000Y-9085000D02*
X8885000Y-9115000D01*
D11*
X-441723Y-11113984D02*
X-441723Y-10913984D01*
X-441723Y-10913984D02*
X-394104Y-10913984D01*
X-394104Y-10913984D02*
X-365533Y-10923508D01*
X-365533Y-10923508D02*
X-346485Y-10942555D01*
X-346485Y-10942555D02*
X-336961Y-10961603D01*
X-336961Y-10961603D02*
X-327437Y-10999698D01*
X-327437Y-10999698D02*
X-327437Y-11028270D01*
X-327437Y-11028270D02*
X-336961Y-11066365D01*
X-336961Y-11066365D02*
X-346485Y-11085412D01*
X-346485Y-11085412D02*
X-365533Y-11104460D01*
X-365533Y-11104460D02*
X-394104Y-11113984D01*
X-394104Y-11113984D02*
X-441723Y-11113984D01*
X-241723Y-11113984D02*
X-241723Y-10980650D01*
X-241723Y-11018746D02*
X-232199Y-10999698D01*
X-232199Y-10999698D02*
X-222675Y-10990174D01*
X-222675Y-10990174D02*
X-203628Y-10980650D01*
X-203628Y-10980650D02*
X-184580Y-10980650D01*
X-117914Y-11113984D02*
X-117914Y-10980650D01*
X-117914Y-10913984D02*
X-127437Y-10923508D01*
X-127437Y-10923508D02*
X-117914Y-10933031D01*
X-117914Y-10933031D02*
X-108390Y-10923508D01*
X-108390Y-10923508D02*
X-117914Y-10913984D01*
X-117914Y-10913984D02*
X-117914Y-10933031D01*
X5896Y-11113984D02*
X-13152Y-11104460D01*
X-13152Y-11104460D02*
X-22675Y-11085412D01*
X-22675Y-11085412D02*
X-22675Y-10913984D01*
X110658Y-11113984D02*
X91610Y-11104460D01*
X91610Y-11104460D02*
X82086Y-11085412D01*
X82086Y-11085412D02*
X82086Y-10913984D01*
X339229Y-11113984D02*
X339229Y-10913984D01*
X339229Y-10913984D02*
X405896Y-11056841D01*
X405896Y-11056841D02*
X472562Y-10913984D01*
X472562Y-10913984D02*
X472562Y-11113984D01*
X653515Y-11113984D02*
X653515Y-11009222D01*
X653515Y-11009222D02*
X643991Y-10990174D01*
X643991Y-10990174D02*
X624944Y-10980650D01*
X624944Y-10980650D02*
X586848Y-10980650D01*
X586848Y-10980650D02*
X567801Y-10990174D01*
X653515Y-11104460D02*
X634467Y-11113984D01*
X634467Y-11113984D02*
X586848Y-11113984D01*
X586848Y-11113984D02*
X567801Y-11104460D01*
X567801Y-11104460D02*
X558277Y-11085412D01*
X558277Y-11085412D02*
X558277Y-11066365D01*
X558277Y-11066365D02*
X567801Y-11047317D01*
X567801Y-11047317D02*
X586848Y-11037793D01*
X586848Y-11037793D02*
X634467Y-11037793D01*
X634467Y-11037793D02*
X653515Y-11028270D01*
X748753Y-10980650D02*
X748753Y-11180650D01*
X748753Y-10990174D02*
X767801Y-10980650D01*
X767801Y-10980650D02*
X805896Y-10980650D01*
X805896Y-10980650D02*
X824943Y-10990174D01*
X824943Y-10990174D02*
X834467Y-10999698D01*
X834467Y-10999698D02*
X843991Y-11018746D01*
X843991Y-11018746D02*
X843991Y-11075889D01*
X843991Y-11075889D02*
X834467Y-11094936D01*
X834467Y-11094936D02*
X824943Y-11104460D01*
X824943Y-11104460D02*
X805896Y-11113984D01*
X805896Y-11113984D02*
X767801Y-11113984D01*
X767801Y-11113984D02*
X748753Y-11104460D01*
X929705Y-11094936D02*
X939229Y-11104460D01*
X939229Y-11104460D02*
X929705Y-11113984D01*
X929705Y-11113984D02*
X920182Y-11104460D01*
X920182Y-11104460D02*
X929705Y-11094936D01*
X929705Y-11094936D02*
X929705Y-11113984D01*
X929705Y-10990174D02*
X939229Y-10999698D01*
X939229Y-10999698D02*
X929705Y-11009222D01*
X929705Y-11009222D02*
X920182Y-10999698D01*
X920182Y-10999698D02*
X929705Y-10990174D01*
X929705Y-10990174D02*
X929705Y-11009222D01*
D12*
X-732500Y-11427500D02*
X-702500Y-11457500D01*
X-702500Y-11427500D02*
X-732500Y-11457500D01*
D11*
X-403628Y-11333984D02*
X-384580Y-11333984D01*
X-384580Y-11333984D02*
X-365533Y-11343508D01*
X-365533Y-11343508D02*
X-356009Y-11353031D01*
X-356009Y-11353031D02*
X-346485Y-11372079D01*
X-346485Y-11372079D02*
X-336961Y-11410174D01*
X-336961Y-11410174D02*
X-336961Y-11457793D01*
X-336961Y-11457793D02*
X-346485Y-11495888D01*
X-346485Y-11495888D02*
X-356009Y-11514936D01*
X-356009Y-11514936D02*
X-365533Y-11524460D01*
X-365533Y-11524460D02*
X-384580Y-11533984D01*
X-384580Y-11533984D02*
X-403628Y-11533984D01*
X-403628Y-11533984D02*
X-422675Y-11524460D01*
X-422675Y-11524460D02*
X-432199Y-11514936D01*
X-432199Y-11514936D02*
X-441723Y-11495888D01*
X-441723Y-11495888D02*
X-451247Y-11457793D01*
X-451247Y-11457793D02*
X-451247Y-11410174D01*
X-451247Y-11410174D02*
X-441723Y-11372079D01*
X-441723Y-11372079D02*
X-432199Y-11353031D01*
X-432199Y-11353031D02*
X-422675Y-11343508D01*
X-422675Y-11343508D02*
X-403628Y-11333984D01*
X-251247Y-11514936D02*
X-241723Y-11524460D01*
X-241723Y-11524460D02*
X-251247Y-11533984D01*
X-251247Y-11533984D02*
X-260771Y-11524460D01*
X-260771Y-11524460D02*
X-251247Y-11514936D01*
X-251247Y-11514936D02*
X-251247Y-11533984D01*
X-175056Y-11333984D02*
X-51247Y-11333984D01*
X-51247Y-11333984D02*
X-117914Y-11410174D01*
X-117914Y-11410174D02*
X-89342Y-11410174D01*
X-89342Y-11410174D02*
X-70295Y-11419698D01*
X-70295Y-11419698D02*
X-60771Y-11429222D01*
X-60771Y-11429222D02*
X-51247Y-11448269D01*
X-51247Y-11448269D02*
X-51247Y-11495888D01*
X-51247Y-11495888D02*
X-60771Y-11514936D01*
X-60771Y-11514936D02*
X-70295Y-11524460D01*
X-70295Y-11524460D02*
X-89342Y-11533984D01*
X-89342Y-11533984D02*
X-146485Y-11533984D01*
X-146485Y-11533984D02*
X-165533Y-11524460D01*
X-165533Y-11524460D02*
X-175056Y-11514936D01*
X72563Y-11333984D02*
X91610Y-11333984D01*
X91610Y-11333984D02*
X110658Y-11343508D01*
X110658Y-11343508D02*
X120182Y-11353031D01*
X120182Y-11353031D02*
X129705Y-11372079D01*
X129705Y-11372079D02*
X139229Y-11410174D01*
X139229Y-11410174D02*
X139229Y-11457793D01*
X139229Y-11457793D02*
X129705Y-11495888D01*
X129705Y-11495888D02*
X120182Y-11514936D01*
X120182Y-11514936D02*
X110658Y-11524460D01*
X110658Y-11524460D02*
X91610Y-11533984D01*
X91610Y-11533984D02*
X72563Y-11533984D01*
X72563Y-11533984D02*
X53515Y-11524460D01*
X53515Y-11524460D02*
X43991Y-11514936D01*
X43991Y-11514936D02*
X34467Y-11495888D01*
X34467Y-11495888D02*
X24943Y-11457793D01*
X24943Y-11457793D02*
X24943Y-11410174D01*
X24943Y-11410174D02*
X34467Y-11372079D01*
X34467Y-11372079D02*
X43991Y-11353031D01*
X43991Y-11353031D02*
X53515Y-11343508D01*
X53515Y-11343508D02*
X72563Y-11333984D01*
X263039Y-11333984D02*
X282086Y-11333984D01*
X282086Y-11333984D02*
X301134Y-11343508D01*
X301134Y-11343508D02*
X310658Y-11353031D01*
X310658Y-11353031D02*
X320182Y-11372079D01*
X320182Y-11372079D02*
X329705Y-11410174D01*
X329705Y-11410174D02*
X329705Y-11457793D01*
X329705Y-11457793D02*
X320182Y-11495888D01*
X320182Y-11495888D02*
X310658Y-11514936D01*
X310658Y-11514936D02*
X301134Y-11524460D01*
X301134Y-11524460D02*
X282086Y-11533984D01*
X282086Y-11533984D02*
X263039Y-11533984D01*
X263039Y-11533984D02*
X243991Y-11524460D01*
X243991Y-11524460D02*
X234467Y-11514936D01*
X234467Y-11514936D02*
X224943Y-11495888D01*
X224943Y-11495888D02*
X215420Y-11457793D01*
X215420Y-11457793D02*
X215420Y-11410174D01*
X215420Y-11410174D02*
X224943Y-11372079D01*
X224943Y-11372079D02*
X234467Y-11353031D01*
X234467Y-11353031D02*
X243991Y-11343508D01*
X243991Y-11343508D02*
X263039Y-11333984D01*
X415420Y-11533984D02*
X415420Y-11400650D01*
X415420Y-11419698D02*
X424943Y-11410174D01*
X424943Y-11410174D02*
X443991Y-11400650D01*
X443991Y-11400650D02*
X472563Y-11400650D01*
X472563Y-11400650D02*
X491610Y-11410174D01*
X491610Y-11410174D02*
X501134Y-11429222D01*
X501134Y-11429222D02*
X501134Y-11533984D01*
X501134Y-11429222D02*
X510658Y-11410174D01*
X510658Y-11410174D02*
X529705Y-11400650D01*
X529705Y-11400650D02*
X558277Y-11400650D01*
X558277Y-11400650D02*
X577325Y-11410174D01*
X577325Y-11410174D02*
X586848Y-11429222D01*
X586848Y-11429222D02*
X586848Y-11533984D01*
X682086Y-11533984D02*
X682086Y-11400650D01*
X682086Y-11419698D02*
X691610Y-11410174D01*
X691610Y-11410174D02*
X710658Y-11400650D01*
X710658Y-11400650D02*
X739229Y-11400650D01*
X739229Y-11400650D02*
X758277Y-11410174D01*
X758277Y-11410174D02*
X767801Y-11429222D01*
X767801Y-11429222D02*
X767801Y-11533984D01*
X767801Y-11429222D02*
X777324Y-11410174D01*
X777324Y-11410174D02*
X796372Y-11400650D01*
X796372Y-11400650D02*
X824943Y-11400650D01*
X824943Y-11400650D02*
X843991Y-11410174D01*
X843991Y-11410174D02*
X853515Y-11429222D01*
X853515Y-11429222D02*
X853515Y-11533984D01*
X1243991Y-11324460D02*
X1072563Y-11581603D01*
X1501134Y-11333984D02*
X1520182Y-11333984D01*
X1520182Y-11333984D02*
X1539229Y-11343508D01*
X1539229Y-11343508D02*
X1548753Y-11353031D01*
X1548753Y-11353031D02*
X1558277Y-11372079D01*
X1558277Y-11372079D02*
X1567801Y-11410174D01*
X1567801Y-11410174D02*
X1567801Y-11457793D01*
X1567801Y-11457793D02*
X1558277Y-11495888D01*
X1558277Y-11495888D02*
X1548753Y-11514936D01*
X1548753Y-11514936D02*
X1539229Y-11524460D01*
X1539229Y-11524460D02*
X1520182Y-11533984D01*
X1520182Y-11533984D02*
X1501134Y-11533984D01*
X1501134Y-11533984D02*
X1482086Y-11524460D01*
X1482086Y-11524460D02*
X1472563Y-11514936D01*
X1472563Y-11514936D02*
X1463039Y-11495888D01*
X1463039Y-11495888D02*
X1453515Y-11457793D01*
X1453515Y-11457793D02*
X1453515Y-11410174D01*
X1453515Y-11410174D02*
X1463039Y-11372079D01*
X1463039Y-11372079D02*
X1472563Y-11353031D01*
X1472563Y-11353031D02*
X1482086Y-11343508D01*
X1482086Y-11343508D02*
X1501134Y-11333984D01*
X1653515Y-11514936D02*
X1663039Y-11524460D01*
X1663039Y-11524460D02*
X1653515Y-11533984D01*
X1653515Y-11533984D02*
X1643991Y-11524460D01*
X1643991Y-11524460D02*
X1653515Y-11514936D01*
X1653515Y-11514936D02*
X1653515Y-11533984D01*
X1786848Y-11333984D02*
X1805896Y-11333984D01*
X1805896Y-11333984D02*
X1824944Y-11343508D01*
X1824944Y-11343508D02*
X1834467Y-11353031D01*
X1834467Y-11353031D02*
X1843991Y-11372079D01*
X1843991Y-11372079D02*
X1853515Y-11410174D01*
X1853515Y-11410174D02*
X1853515Y-11457793D01*
X1853515Y-11457793D02*
X1843991Y-11495888D01*
X1843991Y-11495888D02*
X1834467Y-11514936D01*
X1834467Y-11514936D02*
X1824944Y-11524460D01*
X1824944Y-11524460D02*
X1805896Y-11533984D01*
X1805896Y-11533984D02*
X1786848Y-11533984D01*
X1786848Y-11533984D02*
X1767801Y-11524460D01*
X1767801Y-11524460D02*
X1758277Y-11514936D01*
X1758277Y-11514936D02*
X1748753Y-11495888D01*
X1748753Y-11495888D02*
X1739229Y-11457793D01*
X1739229Y-11457793D02*
X1739229Y-11410174D01*
X1739229Y-11410174D02*
X1748753Y-11372079D01*
X1748753Y-11372079D02*
X1758277Y-11353031D01*
X1758277Y-11353031D02*
X1767801Y-11343508D01*
X1767801Y-11343508D02*
X1786848Y-11333984D01*
X2043991Y-11533984D02*
X1929706Y-11533984D01*
X1986848Y-11533984D02*
X1986848Y-11333984D01*
X1986848Y-11333984D02*
X1967801Y-11362555D01*
X1967801Y-11362555D02*
X1948753Y-11381603D01*
X1948753Y-11381603D02*
X1929706Y-11391127D01*
X2234468Y-11533984D02*
X2120182Y-11533984D01*
X2177325Y-11533984D02*
X2177325Y-11333984D01*
X2177325Y-11333984D02*
X2158277Y-11362555D01*
X2158277Y-11362555D02*
X2139229Y-11381603D01*
X2139229Y-11381603D02*
X2120182Y-11391127D01*
X2348753Y-11419698D02*
X2329706Y-11410174D01*
X2329706Y-11410174D02*
X2320182Y-11400650D01*
X2320182Y-11400650D02*
X2310658Y-11381603D01*
X2310658Y-11381603D02*
X2310658Y-11372079D01*
X2310658Y-11372079D02*
X2320182Y-11353031D01*
X2320182Y-11353031D02*
X2329706Y-11343508D01*
X2329706Y-11343508D02*
X2348753Y-11333984D01*
X2348753Y-11333984D02*
X2386849Y-11333984D01*
X2386849Y-11333984D02*
X2405896Y-11343508D01*
X2405896Y-11343508D02*
X2415420Y-11353031D01*
X2415420Y-11353031D02*
X2424944Y-11372079D01*
X2424944Y-11372079D02*
X2424944Y-11381603D01*
X2424944Y-11381603D02*
X2415420Y-11400650D01*
X2415420Y-11400650D02*
X2405896Y-11410174D01*
X2405896Y-11410174D02*
X2386849Y-11419698D01*
X2386849Y-11419698D02*
X2348753Y-11419698D01*
X2348753Y-11419698D02*
X2329706Y-11429222D01*
X2329706Y-11429222D02*
X2320182Y-11438746D01*
X2320182Y-11438746D02*
X2310658Y-11457793D01*
X2310658Y-11457793D02*
X2310658Y-11495888D01*
X2310658Y-11495888D02*
X2320182Y-11514936D01*
X2320182Y-11514936D02*
X2329706Y-11524460D01*
X2329706Y-11524460D02*
X2348753Y-11533984D01*
X2348753Y-11533984D02*
X2386849Y-11533984D01*
X2386849Y-11533984D02*
X2405896Y-11524460D01*
X2405896Y-11524460D02*
X2415420Y-11514936D01*
X2415420Y-11514936D02*
X2424944Y-11495888D01*
X2424944Y-11495888D02*
X2424944Y-11457793D01*
X2424944Y-11457793D02*
X2415420Y-11438746D01*
X2415420Y-11438746D02*
X2405896Y-11429222D01*
X2405896Y-11429222D02*
X2386849Y-11419698D01*
X2501134Y-11333984D02*
X2501134Y-11372079D01*
X2577325Y-11333984D02*
X2577325Y-11372079D01*
X2872563Y-11610174D02*
X2863039Y-11600650D01*
X2863039Y-11600650D02*
X2843991Y-11572079D01*
X2843991Y-11572079D02*
X2834468Y-11553031D01*
X2834468Y-11553031D02*
X2824944Y-11524460D01*
X2824944Y-11524460D02*
X2815420Y-11476841D01*
X2815420Y-11476841D02*
X2815420Y-11438746D01*
X2815420Y-11438746D02*
X2824944Y-11391127D01*
X2824944Y-11391127D02*
X2834468Y-11362555D01*
X2834468Y-11362555D02*
X2843991Y-11343508D01*
X2843991Y-11343508D02*
X2863039Y-11314936D01*
X2863039Y-11314936D02*
X2872563Y-11305412D01*
X2929706Y-11333984D02*
X3053515Y-11333984D01*
X3053515Y-11333984D02*
X2986848Y-11410174D01*
X2986848Y-11410174D02*
X3015420Y-11410174D01*
X3015420Y-11410174D02*
X3034468Y-11419698D01*
X3034468Y-11419698D02*
X3043991Y-11429222D01*
X3043991Y-11429222D02*
X3053515Y-11448269D01*
X3053515Y-11448269D02*
X3053515Y-11495888D01*
X3053515Y-11495888D02*
X3043991Y-11514936D01*
X3043991Y-11514936D02*
X3034468Y-11524460D01*
X3034468Y-11524460D02*
X3015420Y-11533984D01*
X3015420Y-11533984D02*
X2958277Y-11533984D01*
X2958277Y-11533984D02*
X2939229Y-11524460D01*
X2939229Y-11524460D02*
X2929706Y-11514936D01*
X3177325Y-11333984D02*
X3196372Y-11333984D01*
X3196372Y-11333984D02*
X3215420Y-11343508D01*
X3215420Y-11343508D02*
X3224944Y-11353031D01*
X3224944Y-11353031D02*
X3234468Y-11372079D01*
X3234468Y-11372079D02*
X3243991Y-11410174D01*
X3243991Y-11410174D02*
X3243991Y-11457793D01*
X3243991Y-11457793D02*
X3234468Y-11495888D01*
X3234468Y-11495888D02*
X3224944Y-11514936D01*
X3224944Y-11514936D02*
X3215420Y-11524460D01*
X3215420Y-11524460D02*
X3196372Y-11533984D01*
X3196372Y-11533984D02*
X3177325Y-11533984D01*
X3177325Y-11533984D02*
X3158277Y-11524460D01*
X3158277Y-11524460D02*
X3148753Y-11514936D01*
X3148753Y-11514936D02*
X3139229Y-11495888D01*
X3139229Y-11495888D02*
X3129706Y-11457793D01*
X3129706Y-11457793D02*
X3129706Y-11410174D01*
X3129706Y-11410174D02*
X3139229Y-11372079D01*
X3139229Y-11372079D02*
X3148753Y-11353031D01*
X3148753Y-11353031D02*
X3158277Y-11343508D01*
X3158277Y-11343508D02*
X3177325Y-11333984D01*
X3415420Y-11400650D02*
X3415420Y-11533984D01*
X3367801Y-11324460D02*
X3320182Y-11467317D01*
X3320182Y-11467317D02*
X3443991Y-11467317D01*
X3672563Y-11533984D02*
X3672563Y-11333984D01*
X3758277Y-11533984D02*
X3758277Y-11429222D01*
X3758277Y-11429222D02*
X3748753Y-11410174D01*
X3748753Y-11410174D02*
X3729706Y-11400650D01*
X3729706Y-11400650D02*
X3701134Y-11400650D01*
X3701134Y-11400650D02*
X3682087Y-11410174D01*
X3682087Y-11410174D02*
X3672563Y-11419698D01*
X3882087Y-11533984D02*
X3863039Y-11524460D01*
X3863039Y-11524460D02*
X3853515Y-11514936D01*
X3853515Y-11514936D02*
X3843991Y-11495888D01*
X3843991Y-11495888D02*
X3843991Y-11438746D01*
X3843991Y-11438746D02*
X3853515Y-11419698D01*
X3853515Y-11419698D02*
X3863039Y-11410174D01*
X3863039Y-11410174D02*
X3882087Y-11400650D01*
X3882087Y-11400650D02*
X3910658Y-11400650D01*
X3910658Y-11400650D02*
X3929706Y-11410174D01*
X3929706Y-11410174D02*
X3939230Y-11419698D01*
X3939230Y-11419698D02*
X3948753Y-11438746D01*
X3948753Y-11438746D02*
X3948753Y-11495888D01*
X3948753Y-11495888D02*
X3939230Y-11514936D01*
X3939230Y-11514936D02*
X3929706Y-11524460D01*
X3929706Y-11524460D02*
X3910658Y-11533984D01*
X3910658Y-11533984D02*
X3882087Y-11533984D01*
X4063039Y-11533984D02*
X4043991Y-11524460D01*
X4043991Y-11524460D02*
X4034468Y-11505412D01*
X4034468Y-11505412D02*
X4034468Y-11333984D01*
X4215420Y-11524460D02*
X4196373Y-11533984D01*
X4196373Y-11533984D02*
X4158277Y-11533984D01*
X4158277Y-11533984D02*
X4139230Y-11524460D01*
X4139230Y-11524460D02*
X4129706Y-11505412D01*
X4129706Y-11505412D02*
X4129706Y-11429222D01*
X4129706Y-11429222D02*
X4139230Y-11410174D01*
X4139230Y-11410174D02*
X4158277Y-11400650D01*
X4158277Y-11400650D02*
X4196373Y-11400650D01*
X4196373Y-11400650D02*
X4215420Y-11410174D01*
X4215420Y-11410174D02*
X4224944Y-11429222D01*
X4224944Y-11429222D02*
X4224944Y-11448269D01*
X4224944Y-11448269D02*
X4129706Y-11467317D01*
X4301134Y-11524460D02*
X4320182Y-11533984D01*
X4320182Y-11533984D02*
X4358277Y-11533984D01*
X4358277Y-11533984D02*
X4377325Y-11524460D01*
X4377325Y-11524460D02*
X4386849Y-11505412D01*
X4386849Y-11505412D02*
X4386849Y-11495888D01*
X4386849Y-11495888D02*
X4377325Y-11476841D01*
X4377325Y-11476841D02*
X4358277Y-11467317D01*
X4358277Y-11467317D02*
X4329706Y-11467317D01*
X4329706Y-11467317D02*
X4310658Y-11457793D01*
X4310658Y-11457793D02*
X4301134Y-11438746D01*
X4301134Y-11438746D02*
X4301134Y-11429222D01*
X4301134Y-11429222D02*
X4310658Y-11410174D01*
X4310658Y-11410174D02*
X4329706Y-11400650D01*
X4329706Y-11400650D02*
X4358277Y-11400650D01*
X4358277Y-11400650D02*
X4377325Y-11410174D01*
X4453515Y-11610174D02*
X4463039Y-11600650D01*
X4463039Y-11600650D02*
X4482087Y-11572079D01*
X4482087Y-11572079D02*
X4491611Y-11553031D01*
X4491611Y-11553031D02*
X4501134Y-11524460D01*
X4501134Y-11524460D02*
X4510658Y-11476841D01*
X4510658Y-11476841D02*
X4510658Y-11438746D01*
X4510658Y-11438746D02*
X4501134Y-11391127D01*
X4501134Y-11391127D02*
X4491611Y-11362555D01*
X4491611Y-11362555D02*
X4482087Y-11343508D01*
X4482087Y-11343508D02*
X4463039Y-11314936D01*
X4463039Y-11314936D02*
X4453515Y-11305412D01*
M02*
