%TF.GenerationSoftware,KiCad,Pcbnew,9.0.3*%
%TF.CreationDate,2025-08-08T18:23:31+02:00*%
%TF.ProjectId,iagabel-panel,69616761-6265-46c2-9d70-616e656c2e6b,rev?*%
%TF.SameCoordinates,Original*%
%TF.FileFunction,Paste,Top*%
%TF.FilePolarity,Positive*%
%FSLAX46Y46*%
G04 Gerber Fmt 4.6, Leading zero omitted, Abs format (unit mm)*
G04 Created by KiCad (PCBNEW 9.0.3) date 2025-08-08 18:23:31*
%MOMM*%
%LPD*%
G01*
G04 APERTURE LIST*
G04 Aperture macros list*
%AMRoundRect*
0 Rectangle with rounded corners*
0 $1 Rounding radius*
0 $2 $3 $4 $5 $6 $7 $8 $9 X,Y pos of 4 corners*
0 Add a 4 corners polygon primitive as box body*
4,1,4,$2,$3,$4,$5,$6,$7,$8,$9,$2,$3,0*
0 Add four circle primitives for the rounded corners*
1,1,$1+$1,$2,$3*
1,1,$1+$1,$4,$5*
1,1,$1+$1,$6,$7*
1,1,$1+$1,$8,$9*
0 Add four rect primitives between the rounded corners*
20,1,$1+$1,$2,$3,$4,$5,0*
20,1,$1+$1,$4,$5,$6,$7,0*
20,1,$1+$1,$6,$7,$8,$9,0*
20,1,$1+$1,$8,$9,$2,$3,0*%
G04 Aperture macros list end*
%ADD10RoundRect,0.250000X0.450000X-0.262500X0.450000X0.262500X-0.450000X0.262500X-0.450000X-0.262500X0*%
%ADD11RoundRect,0.200000X0.275000X-0.200000X0.275000X0.200000X-0.275000X0.200000X-0.275000X-0.200000X0*%
%ADD12RoundRect,0.100000X0.225000X0.100000X-0.225000X0.100000X-0.225000X-0.100000X0.225000X-0.100000X0*%
%ADD13RoundRect,0.200000X-0.275000X0.200000X-0.275000X-0.200000X0.275000X-0.200000X0.275000X0.200000X0*%
%ADD14RoundRect,0.218750X-0.256250X0.218750X-0.256250X-0.218750X0.256250X-0.218750X0.256250X0.218750X0*%
%ADD15RoundRect,0.225000X-0.225000X-0.250000X0.225000X-0.250000X0.225000X0.250000X-0.225000X0.250000X0*%
%ADD16R,0.700000X1.900000*%
%ADD17RoundRect,0.135000X-0.465000X-0.315000X0.465000X-0.315000X0.465000X0.315000X-0.465000X0.315000X0*%
%ADD18R,1.000000X1.900000*%
%ADD19R,3.800000X1.500000*%
%ADD20R,3.500000X1.000000*%
G04 APERTURE END LIST*
D10*
%TO.C,R2*%
X27000000Y-87087500D03*
X27000000Y-88912500D03*
%TD*%
D11*
%TO.C,R4*%
X15000000Y-83175000D03*
X15000000Y-84825000D03*
%TD*%
D12*
%TO.C,U1*%
X15050000Y-88650000D03*
X15050000Y-88000000D03*
X15050000Y-87350000D03*
X16950000Y-87350000D03*
X16950000Y-88000000D03*
X16950000Y-88650000D03*
%TD*%
D13*
%TO.C,R7*%
X17000000Y-92325000D03*
X17000000Y-90675000D03*
%TD*%
D14*
%TO.C,D1*%
X15500000Y-96287500D03*
X15500000Y-94712500D03*
%TD*%
D13*
%TO.C,R6*%
X15000000Y-92325000D03*
X15000000Y-90675000D03*
%TD*%
%TO.C,R5*%
X17500000Y-95825000D03*
X17500000Y-94175000D03*
%TD*%
D15*
%TO.C,C1*%
X16775000Y-80500000D03*
X15225000Y-80500000D03*
%TD*%
D16*
%TO.C,K1*%
X32600000Y-85550000D03*
D17*
X32350000Y-85050000D03*
D18*
X34000000Y-85550000D03*
D17*
X35650000Y-85050000D03*
D16*
X35400000Y-85550000D03*
D17*
X35650000Y-90950000D03*
D16*
X35400000Y-90450000D03*
X34000000Y-90450000D03*
X32600000Y-90450000D03*
D17*
X32350000Y-90950000D03*
%TD*%
D11*
%TO.C,R3*%
X17000000Y-83175000D03*
X17000000Y-84825000D03*
%TD*%
D19*
%TO.C,J1*%
X3500000Y-93350000D03*
X3500000Y-82650000D03*
D20*
X10650000Y-85000000D03*
X10650000Y-87000000D03*
X10650000Y-89000000D03*
X10650000Y-91000000D03*
%TD*%
D10*
%TO.C,R1*%
X29000000Y-87087500D03*
X29000000Y-88912500D03*
%TD*%
D15*
%TO.C,C1*%
X67775000Y-54500000D03*
X66225000Y-54500000D03*
%TD*%
D11*
%TO.C,R4*%
X66000000Y-57175000D03*
X66000000Y-58825000D03*
%TD*%
D19*
%TO.C,J1*%
X54500000Y-67350000D03*
X54500000Y-56650000D03*
D20*
X61650000Y-59000000D03*
X61650000Y-61000000D03*
X61650000Y-63000000D03*
X61650000Y-65000000D03*
%TD*%
D14*
%TO.C,D1*%
X66500000Y-70287500D03*
X66500000Y-68712500D03*
%TD*%
D11*
%TO.C,R3*%
X68000000Y-57175000D03*
X68000000Y-58825000D03*
%TD*%
D13*
%TO.C,R6*%
X66000000Y-66325000D03*
X66000000Y-64675000D03*
%TD*%
%TO.C,R5*%
X68500000Y-69825000D03*
X68500000Y-68175000D03*
%TD*%
D12*
%TO.C,U1*%
X66050000Y-62650000D03*
X66050000Y-62000000D03*
X66050000Y-61350000D03*
X67950000Y-61350000D03*
X67950000Y-62000000D03*
X67950000Y-62650000D03*
%TD*%
D13*
%TO.C,R7*%
X68000000Y-66325000D03*
X68000000Y-64675000D03*
%TD*%
D16*
%TO.C,K1*%
X83600000Y-59550000D03*
D17*
X83350000Y-59050000D03*
D18*
X85000000Y-59550000D03*
D17*
X86650000Y-59050000D03*
D16*
X86400000Y-59550000D03*
D17*
X86650000Y-64950000D03*
D16*
X86400000Y-64450000D03*
X85000000Y-64450000D03*
X83600000Y-64450000D03*
D17*
X83350000Y-64950000D03*
%TD*%
D10*
%TO.C,R1*%
X80000000Y-61087500D03*
X80000000Y-62912500D03*
%TD*%
%TO.C,R2*%
X78000000Y-61087500D03*
X78000000Y-62912500D03*
%TD*%
D13*
%TO.C,R5*%
X17500000Y-69825000D03*
X17500000Y-68175000D03*
%TD*%
D16*
%TO.C,K1*%
X32600000Y-59550000D03*
D17*
X32350000Y-59050000D03*
D18*
X34000000Y-59550000D03*
D17*
X35650000Y-59050000D03*
D16*
X35400000Y-59550000D03*
D17*
X35650000Y-64950000D03*
D16*
X35400000Y-64450000D03*
X34000000Y-64450000D03*
X32600000Y-64450000D03*
D17*
X32350000Y-64950000D03*
%TD*%
D14*
%TO.C,D1*%
X15500000Y-70287500D03*
X15500000Y-68712500D03*
%TD*%
D13*
%TO.C,R6*%
X15000000Y-66325000D03*
X15000000Y-64675000D03*
%TD*%
D12*
%TO.C,U1*%
X15050000Y-62650000D03*
X15050000Y-62000000D03*
X15050000Y-61350000D03*
X16950000Y-61350000D03*
X16950000Y-62000000D03*
X16950000Y-62650000D03*
%TD*%
D15*
%TO.C,C1*%
X16775000Y-54500000D03*
X15225000Y-54500000D03*
%TD*%
D13*
%TO.C,R7*%
X17000000Y-66325000D03*
X17000000Y-64675000D03*
%TD*%
D19*
%TO.C,J1*%
X3500000Y-67350000D03*
X3500000Y-56650000D03*
D20*
X10650000Y-59000000D03*
X10650000Y-61000000D03*
X10650000Y-63000000D03*
X10650000Y-65000000D03*
%TD*%
D11*
%TO.C,R4*%
X15000000Y-57175000D03*
X15000000Y-58825000D03*
%TD*%
D10*
%TO.C,R2*%
X27000000Y-61087500D03*
X27000000Y-62912500D03*
%TD*%
D11*
%TO.C,R3*%
X17000000Y-57175000D03*
X17000000Y-58825000D03*
%TD*%
D10*
%TO.C,R1*%
X29000000Y-61087500D03*
X29000000Y-62912500D03*
%TD*%
D11*
%TO.C,R3*%
X68000000Y-31175000D03*
X68000000Y-32825000D03*
%TD*%
D16*
%TO.C,K1*%
X83600000Y-33550000D03*
D17*
X83350000Y-33050000D03*
D18*
X85000000Y-33550000D03*
D17*
X86650000Y-33050000D03*
D16*
X86400000Y-33550000D03*
D17*
X86650000Y-38950000D03*
D16*
X86400000Y-38450000D03*
X85000000Y-38450000D03*
X83600000Y-38450000D03*
D17*
X83350000Y-38950000D03*
%TD*%
D10*
%TO.C,R1*%
X80000000Y-35087500D03*
X80000000Y-36912500D03*
%TD*%
D14*
%TO.C,D1*%
X66500000Y-44287500D03*
X66500000Y-42712500D03*
%TD*%
D13*
%TO.C,R6*%
X66000000Y-40325000D03*
X66000000Y-38675000D03*
%TD*%
%TO.C,R5*%
X68500000Y-43825000D03*
X68500000Y-42175000D03*
%TD*%
D12*
%TO.C,U1*%
X66050000Y-36650000D03*
X66050000Y-36000000D03*
X66050000Y-35350000D03*
X67950000Y-35350000D03*
X67950000Y-36000000D03*
X67950000Y-36650000D03*
%TD*%
D15*
%TO.C,C1*%
X67775000Y-28500000D03*
X66225000Y-28500000D03*
%TD*%
D13*
%TO.C,R7*%
X68000000Y-40325000D03*
X68000000Y-38675000D03*
%TD*%
D10*
%TO.C,R2*%
X78000000Y-35087500D03*
X78000000Y-36912500D03*
%TD*%
D11*
%TO.C,R4*%
X66000000Y-31175000D03*
X66000000Y-32825000D03*
%TD*%
D19*
%TO.C,J1*%
X54500000Y-41350000D03*
X54500000Y-30650000D03*
D20*
X61650000Y-33000000D03*
X61650000Y-35000000D03*
X61650000Y-37000000D03*
X61650000Y-39000000D03*
%TD*%
D13*
%TO.C,R5*%
X17500000Y-43825000D03*
X17500000Y-42175000D03*
%TD*%
D14*
%TO.C,D1*%
X15500000Y-44287500D03*
X15500000Y-42712500D03*
%TD*%
D13*
%TO.C,R6*%
X15000000Y-40325000D03*
X15000000Y-38675000D03*
%TD*%
D12*
%TO.C,U1*%
X15050000Y-36650000D03*
X15050000Y-36000000D03*
X15050000Y-35350000D03*
X16950000Y-35350000D03*
X16950000Y-36000000D03*
X16950000Y-36650000D03*
%TD*%
D15*
%TO.C,C1*%
X16775000Y-28500000D03*
X15225000Y-28500000D03*
%TD*%
D13*
%TO.C,R7*%
X17000000Y-40325000D03*
X17000000Y-38675000D03*
%TD*%
D16*
%TO.C,K1*%
X32600000Y-33550000D03*
D17*
X32350000Y-33050000D03*
D18*
X34000000Y-33550000D03*
D17*
X35650000Y-33050000D03*
D16*
X35400000Y-33550000D03*
D17*
X35650000Y-38950000D03*
D16*
X35400000Y-38450000D03*
X34000000Y-38450000D03*
X32600000Y-38450000D03*
D17*
X32350000Y-38950000D03*
%TD*%
D11*
%TO.C,R4*%
X15000000Y-31175000D03*
X15000000Y-32825000D03*
%TD*%
D10*
%TO.C,R2*%
X27000000Y-35087500D03*
X27000000Y-36912500D03*
%TD*%
D11*
%TO.C,R3*%
X17000000Y-31175000D03*
X17000000Y-32825000D03*
%TD*%
D10*
%TO.C,R1*%
X29000000Y-35087500D03*
X29000000Y-36912500D03*
%TD*%
D19*
%TO.C,J1*%
X3500000Y-41350000D03*
X3500000Y-30650000D03*
D20*
X10650000Y-33000000D03*
X10650000Y-35000000D03*
X10650000Y-37000000D03*
X10650000Y-39000000D03*
%TD*%
D12*
%TO.C,U1*%
X66050000Y-10650000D03*
X66050000Y-10000000D03*
X66050000Y-9350000D03*
X67950000Y-9350000D03*
X67950000Y-10000000D03*
X67950000Y-10650000D03*
%TD*%
D14*
%TO.C,D1*%
X66500000Y-18287500D03*
X66500000Y-16712500D03*
%TD*%
D16*
%TO.C,K1*%
X83600000Y-7550000D03*
D17*
X83350000Y-7050000D03*
D18*
X85000000Y-7550000D03*
D17*
X86650000Y-7050000D03*
D16*
X86400000Y-7550000D03*
D17*
X86650000Y-12950000D03*
D16*
X86400000Y-12450000D03*
X85000000Y-12450000D03*
X83600000Y-12450000D03*
D17*
X83350000Y-12950000D03*
%TD*%
D13*
%TO.C,R6*%
X66000000Y-14325000D03*
X66000000Y-12675000D03*
%TD*%
%TO.C,R5*%
X68500000Y-17825000D03*
X68500000Y-16175000D03*
%TD*%
D15*
%TO.C,C1*%
X67775000Y-2500000D03*
X66225000Y-2500000D03*
%TD*%
D13*
%TO.C,R7*%
X68000000Y-14325000D03*
X68000000Y-12675000D03*
%TD*%
D11*
%TO.C,R4*%
X66000000Y-5175000D03*
X66000000Y-6825000D03*
%TD*%
%TO.C,R3*%
X68000000Y-5175000D03*
X68000000Y-6825000D03*
%TD*%
D10*
%TO.C,R2*%
X78000000Y-9087500D03*
X78000000Y-10912500D03*
%TD*%
D19*
%TO.C,J1*%
X54500000Y-15350000D03*
X54500000Y-4650000D03*
D20*
X61650000Y-7000000D03*
X61650000Y-9000000D03*
X61650000Y-11000000D03*
X61650000Y-13000000D03*
%TD*%
D10*
%TO.C,R1*%
X80000000Y-9087500D03*
X80000000Y-10912500D03*
%TD*%
D11*
%TO.C,R4*%
X15000000Y-5175000D03*
X15000000Y-6825000D03*
%TD*%
D15*
%TO.C,C1*%
X16775000Y-2500000D03*
X15225000Y-2500000D03*
%TD*%
D14*
%TO.C,D1*%
X15500000Y-18287500D03*
X15500000Y-16712500D03*
%TD*%
D13*
%TO.C,R6*%
X15000000Y-14325000D03*
X15000000Y-12675000D03*
%TD*%
%TO.C,R5*%
X17500000Y-17825000D03*
X17500000Y-16175000D03*
%TD*%
D12*
%TO.C,U1*%
X15050000Y-10650000D03*
X15050000Y-10000000D03*
X15050000Y-9350000D03*
X16950000Y-9350000D03*
X16950000Y-10000000D03*
X16950000Y-10650000D03*
%TD*%
D13*
%TO.C,R7*%
X17000000Y-14325000D03*
X17000000Y-12675000D03*
%TD*%
D16*
%TO.C,K1*%
X32600000Y-7550000D03*
D17*
X32350000Y-7050000D03*
D18*
X34000000Y-7550000D03*
D17*
X35650000Y-7050000D03*
D16*
X35400000Y-7550000D03*
D17*
X35650000Y-12950000D03*
D16*
X35400000Y-12450000D03*
X34000000Y-12450000D03*
X32600000Y-12450000D03*
D17*
X32350000Y-12950000D03*
%TD*%
D10*
%TO.C,R1*%
X29000000Y-9087500D03*
X29000000Y-10912500D03*
%TD*%
%TO.C,R2*%
X27000000Y-9087500D03*
X27000000Y-10912500D03*
%TD*%
D19*
%TO.C,J1*%
X3500000Y-15350000D03*
X3500000Y-4650000D03*
D20*
X10650000Y-7000000D03*
X10650000Y-9000000D03*
X10650000Y-11000000D03*
X10650000Y-13000000D03*
%TD*%
D11*
%TO.C,R3*%
X17000000Y-5175000D03*
X17000000Y-6825000D03*
%TD*%
%TO.C,R3*%
X68000000Y-83175000D03*
X68000000Y-84825000D03*
%TD*%
D10*
%TO.C,R1*%
X80000000Y-87087500D03*
X80000000Y-88912500D03*
%TD*%
D19*
%TO.C,J1*%
X54500000Y-93350000D03*
X54500000Y-82650000D03*
D20*
X61650000Y-85000000D03*
X61650000Y-87000000D03*
X61650000Y-89000000D03*
X61650000Y-91000000D03*
%TD*%
D10*
%TO.C,R2*%
X78000000Y-87087500D03*
X78000000Y-88912500D03*
%TD*%
D11*
%TO.C,R4*%
X66000000Y-83175000D03*
X66000000Y-84825000D03*
%TD*%
D14*
%TO.C,D1*%
X66500000Y-96287500D03*
X66500000Y-94712500D03*
%TD*%
D13*
%TO.C,R6*%
X66000000Y-92325000D03*
X66000000Y-90675000D03*
%TD*%
%TO.C,R5*%
X68500000Y-95825000D03*
X68500000Y-94175000D03*
%TD*%
D12*
%TO.C,U1*%
X66050000Y-88650000D03*
X66050000Y-88000000D03*
X66050000Y-87350000D03*
X67950000Y-87350000D03*
X67950000Y-88000000D03*
X67950000Y-88650000D03*
%TD*%
D15*
%TO.C,C1*%
X67775000Y-80500000D03*
X66225000Y-80500000D03*
%TD*%
D13*
%TO.C,R7*%
X68000000Y-92325000D03*
X68000000Y-90675000D03*
%TD*%
D16*
%TO.C,K1*%
X83600000Y-85550000D03*
D17*
X83350000Y-85050000D03*
D18*
X85000000Y-85550000D03*
D17*
X86650000Y-85050000D03*
D16*
X86400000Y-85550000D03*
D17*
X86650000Y-90950000D03*
D16*
X86400000Y-90450000D03*
X85000000Y-90450000D03*
X83600000Y-90450000D03*
D17*
X83350000Y-90950000D03*
%TD*%
M02*
