%TF.GenerationSoftware,KiCad,Pcbnew,9.0.3*%
%TF.CreationDate,2025-08-08T18:23:31+02:00*%
%TF.ProjectId,iagabel-panel,69616761-6265-46c2-9d70-616e656c2e6b,rev?*%
%TF.SameCoordinates,Original*%
%TF.FileFunction,Copper,L2,Bot*%
%TF.FilePolarity,Positive*%
%FSLAX46Y46*%
G04 Gerber Fmt 4.6, Leading zero omitted, Abs format (unit mm)*
G04 Created by KiCad (PCBNEW 9.0.3) date 2025-08-08 18:23:31*
%MOMM*%
%LPD*%
G01*
G04 APERTURE LIST*
%TA.AperFunction,ViaPad*%
%ADD10C,0.600000*%
%TD*%
%TA.AperFunction,Conductor*%
%ADD11C,1.000000*%
%TD*%
G04 APERTURE END LIST*
D10*
%TO.N,GND*%
X28000000Y-85500000D03*
X12000000Y-92500000D03*
X9000000Y-82500000D03*
%TO.N,+3.3V*%
X35000000Y-88000000D03*
X13500000Y-81500000D03*
X34000000Y-88000000D03*
X13500000Y-88500000D03*
%TO.N,GND*%
X4500000Y-87000000D03*
X3000000Y-90000000D03*
X21000000Y-92000000D03*
X22000000Y-92000000D03*
X3000000Y-88500000D03*
X7000000Y-94000000D03*
X26500000Y-85500000D03*
X38000000Y-85000000D03*
X3000000Y-85500000D03*
X4500000Y-88500000D03*
X11500000Y-82500000D03*
X30800000Y-87700000D03*
X17900000Y-81600000D03*
X17000000Y-86000000D03*
%TO.N,+3.3V*%
X27000000Y-90500000D03*
%TO.N,GND*%
X3000000Y-87000000D03*
X23500000Y-87000000D03*
%TO.N,+3.3V*%
X13500000Y-87500000D03*
%TO.N,GND*%
X21500000Y-87000000D03*
X27000000Y-92000000D03*
X20000000Y-86000000D03*
X4500000Y-90000000D03*
X29000000Y-92000000D03*
X11000000Y-92500000D03*
X4500000Y-85500000D03*
X38000000Y-88000000D03*
X15000000Y-86000000D03*
X38000000Y-91000000D03*
%TO.N,+3.3V*%
X29000000Y-90500000D03*
X13500000Y-80500000D03*
%TO.N,GND*%
X8000000Y-88000000D03*
%TO.N,+3.3V*%
X64500000Y-62500000D03*
%TO.N,GND*%
X62000000Y-66500000D03*
X66000000Y-60000000D03*
%TO.N,+3.3V*%
X64500000Y-61500000D03*
%TO.N,GND*%
X89000000Y-59000000D03*
X58000000Y-68000000D03*
%TO.N,+3.3V*%
X64500000Y-54500000D03*
X64500000Y-55500000D03*
X85000000Y-62000000D03*
%TO.N,GND*%
X54000000Y-61000000D03*
X60000000Y-56500000D03*
X55500000Y-61000000D03*
X54000000Y-64000000D03*
X72000000Y-66000000D03*
X78000000Y-66000000D03*
X73000000Y-66000000D03*
X54000000Y-62500000D03*
X77500000Y-59500000D03*
X54000000Y-59500000D03*
X71000000Y-60000000D03*
X55500000Y-62500000D03*
X81800000Y-61700000D03*
X68900000Y-55600000D03*
X68000000Y-60000000D03*
%TO.N,+3.3V*%
X78000000Y-64500000D03*
%TO.N,GND*%
X74500000Y-61000000D03*
X55500000Y-64000000D03*
X63000000Y-66500000D03*
X80000000Y-66000000D03*
X62500000Y-56500000D03*
X55500000Y-59500000D03*
X89000000Y-65000000D03*
X72500000Y-61000000D03*
X89000000Y-62000000D03*
X79000000Y-59500000D03*
%TO.N,+3.3V*%
X86000000Y-62000000D03*
X80000000Y-64500000D03*
%TO.N,GND*%
X59000000Y-62000000D03*
X38000000Y-65000000D03*
X20000000Y-60000000D03*
X29000000Y-66000000D03*
X11000000Y-66500000D03*
X4500000Y-62500000D03*
X26500000Y-59500000D03*
%TO.N,+3.3V*%
X13500000Y-54500000D03*
X13500000Y-55500000D03*
X34000000Y-62000000D03*
%TO.N,GND*%
X3000000Y-62500000D03*
%TO.N,+3.3V*%
X13500000Y-62500000D03*
%TO.N,GND*%
X9000000Y-56500000D03*
X27000000Y-66000000D03*
X4500000Y-61000000D03*
X3000000Y-64000000D03*
X21000000Y-66000000D03*
X22000000Y-66000000D03*
X7000000Y-68000000D03*
X11500000Y-56500000D03*
X38000000Y-59000000D03*
X3000000Y-59500000D03*
X30800000Y-61700000D03*
X17900000Y-55600000D03*
X12000000Y-66500000D03*
X17000000Y-60000000D03*
%TO.N,+3.3V*%
X27000000Y-64500000D03*
%TO.N,GND*%
X23500000Y-61000000D03*
X3000000Y-61000000D03*
%TO.N,+3.3V*%
X13500000Y-61500000D03*
%TO.N,GND*%
X4500000Y-59500000D03*
%TO.N,+3.3V*%
X29000000Y-64500000D03*
%TO.N,GND*%
X4500000Y-64000000D03*
X28000000Y-59500000D03*
X21500000Y-61000000D03*
X38000000Y-62000000D03*
X15000000Y-60000000D03*
%TO.N,+3.3V*%
X35000000Y-62000000D03*
%TO.N,GND*%
X8000000Y-62000000D03*
X66000000Y-34000000D03*
X63000000Y-40500000D03*
X68000000Y-34000000D03*
X58000000Y-42000000D03*
X80000000Y-40000000D03*
%TO.N,+3.3V*%
X64500000Y-29500000D03*
X85000000Y-36000000D03*
X64500000Y-36500000D03*
%TO.N,GND*%
X60000000Y-30500000D03*
X55500000Y-35000000D03*
X54000000Y-38000000D03*
X72000000Y-40000000D03*
X73000000Y-40000000D03*
X54000000Y-36500000D03*
X77500000Y-33500000D03*
X89000000Y-33000000D03*
X54000000Y-35000000D03*
X54000000Y-33500000D03*
X55500000Y-38000000D03*
%TO.N,+3.3V*%
X80000000Y-38500000D03*
%TO.N,GND*%
X55500000Y-36500000D03*
X81800000Y-35700000D03*
X68900000Y-29600000D03*
X74500000Y-35000000D03*
%TO.N,+3.3V*%
X78000000Y-38500000D03*
X64500000Y-35500000D03*
%TO.N,GND*%
X78000000Y-40000000D03*
X71000000Y-34000000D03*
X62000000Y-40500000D03*
X62500000Y-30500000D03*
X55500000Y-33500000D03*
X72500000Y-35000000D03*
X89000000Y-36000000D03*
X79000000Y-33500000D03*
%TO.N,+3.3V*%
X86000000Y-36000000D03*
%TO.N,GND*%
X89000000Y-39000000D03*
%TO.N,+3.3V*%
X64500000Y-28500000D03*
%TO.N,GND*%
X59000000Y-36000000D03*
X26500000Y-33500000D03*
X30800000Y-35700000D03*
X3000000Y-38000000D03*
X22000000Y-40000000D03*
%TO.N,+3.3V*%
X13500000Y-35500000D03*
%TO.N,GND*%
X4500000Y-33500000D03*
%TO.N,+3.3V*%
X13500000Y-29500000D03*
X34000000Y-36000000D03*
X13500000Y-36500000D03*
%TO.N,GND*%
X9000000Y-30500000D03*
X4500000Y-35000000D03*
X21000000Y-40000000D03*
X3000000Y-36500000D03*
X12000000Y-40500000D03*
X7000000Y-42000000D03*
X38000000Y-33000000D03*
%TO.N,+3.3V*%
X29000000Y-38500000D03*
%TO.N,GND*%
X3000000Y-33500000D03*
X4500000Y-36500000D03*
X17900000Y-29600000D03*
X17000000Y-34000000D03*
%TO.N,+3.3V*%
X27000000Y-38500000D03*
%TO.N,GND*%
X3000000Y-35000000D03*
X23500000Y-35000000D03*
X27000000Y-40000000D03*
X21500000Y-35000000D03*
X20000000Y-34000000D03*
X4500000Y-38000000D03*
X29000000Y-40000000D03*
X11000000Y-40500000D03*
X11500000Y-30500000D03*
X38000000Y-36000000D03*
X38000000Y-39000000D03*
X15000000Y-34000000D03*
X28000000Y-33500000D03*
%TO.N,+3.3V*%
X35000000Y-36000000D03*
X13500000Y-28500000D03*
%TO.N,GND*%
X8000000Y-36000000D03*
X59000000Y-10000000D03*
X74500000Y-9000000D03*
X68900000Y-3600000D03*
%TO.N,+3.3V*%
X64500000Y-3500000D03*
X85000000Y-10000000D03*
X64500000Y-10500000D03*
%TO.N,GND*%
X60000000Y-4500000D03*
X55500000Y-9000000D03*
X54000000Y-12000000D03*
X72000000Y-14000000D03*
X73000000Y-14000000D03*
X54000000Y-10500000D03*
X58000000Y-16000000D03*
X77500000Y-7500000D03*
X89000000Y-7000000D03*
X54000000Y-7500000D03*
%TO.N,+3.3V*%
X64500000Y-2500000D03*
%TO.N,GND*%
X55500000Y-10500000D03*
X81800000Y-9700000D03*
X68000000Y-8000000D03*
%TO.N,+3.3V*%
X78000000Y-12500000D03*
%TO.N,GND*%
X54000000Y-9000000D03*
X62000000Y-14500000D03*
%TO.N,+3.3V*%
X64500000Y-9500000D03*
%TO.N,GND*%
X78000000Y-14000000D03*
X71000000Y-8000000D03*
X80000000Y-14000000D03*
X55500000Y-12000000D03*
X63000000Y-14500000D03*
X62500000Y-4500000D03*
X55500000Y-7500000D03*
X72500000Y-9000000D03*
X89000000Y-10000000D03*
X66000000Y-8000000D03*
X79000000Y-7500000D03*
%TO.N,+3.3V*%
X86000000Y-10000000D03*
%TO.N,GND*%
X89000000Y-13000000D03*
%TO.N,+3.3V*%
X80000000Y-12500000D03*
X13500000Y-9500000D03*
%TO.N,GND*%
X12000000Y-14500000D03*
X8000000Y-10000000D03*
X30800000Y-9700000D03*
%TO.N,+3.3V*%
X13500000Y-3500000D03*
X34000000Y-10000000D03*
X13500000Y-10500000D03*
%TO.N,GND*%
X9000000Y-4500000D03*
%TO.N,+3.3V*%
X35000000Y-10000000D03*
%TO.N,GND*%
X4500000Y-9000000D03*
X3000000Y-12000000D03*
X4500000Y-7500000D03*
X21000000Y-14000000D03*
X22000000Y-14000000D03*
X3000000Y-10500000D03*
X27000000Y-14000000D03*
X7000000Y-16000000D03*
X26500000Y-7500000D03*
X38000000Y-7000000D03*
X3000000Y-7500000D03*
X4500000Y-10500000D03*
X17900000Y-3600000D03*
X17000000Y-8000000D03*
X23500000Y-9000000D03*
%TO.N,+3.3V*%
X27000000Y-12500000D03*
%TO.N,GND*%
X3000000Y-9000000D03*
X20000000Y-8000000D03*
X4500000Y-12000000D03*
X29000000Y-14000000D03*
X11000000Y-14500000D03*
X11500000Y-4500000D03*
X21500000Y-9000000D03*
X38000000Y-13000000D03*
X38000000Y-10000000D03*
X15000000Y-8000000D03*
X28000000Y-7500000D03*
%TO.N,+3.3V*%
X29000000Y-12500000D03*
X13500000Y-2500000D03*
%TO.N,GND*%
X59000000Y-88000000D03*
%TO.N,+3.3V*%
X64500000Y-81500000D03*
X85000000Y-88000000D03*
X64500000Y-80500000D03*
X80000000Y-90500000D03*
%TO.N,GND*%
X89000000Y-91000000D03*
%TO.N,+3.3V*%
X86000000Y-88000000D03*
%TO.N,GND*%
X79000000Y-85500000D03*
%TO.N,+3.3V*%
X64500000Y-88500000D03*
%TO.N,GND*%
X66000000Y-86000000D03*
X60000000Y-82500000D03*
X55500000Y-87000000D03*
X54000000Y-90000000D03*
X72500000Y-87000000D03*
X89000000Y-88000000D03*
X72000000Y-92000000D03*
X73000000Y-92000000D03*
X54000000Y-88500000D03*
X55500000Y-85500000D03*
X58000000Y-94000000D03*
X77500000Y-85500000D03*
X62500000Y-82500000D03*
X89000000Y-85000000D03*
X62000000Y-92500000D03*
X80000000Y-92000000D03*
X63000000Y-92500000D03*
X54000000Y-85500000D03*
X55500000Y-90000000D03*
X55500000Y-88500000D03*
X71000000Y-86000000D03*
X81800000Y-87700000D03*
X68900000Y-81600000D03*
X68000000Y-86000000D03*
%TO.N,+3.3V*%
X78000000Y-90500000D03*
%TO.N,GND*%
X54000000Y-87000000D03*
X78000000Y-92000000D03*
X74500000Y-87000000D03*
%TO.N,+3.3V*%
X64500000Y-87500000D03*
%TD*%
D11*
%TO.N,+3.3V*%
X32500000Y-88000000D02*
X30000000Y-90500000D01*
X25000000Y-88500000D02*
X27000000Y-90500000D01*
X30000000Y-90500000D02*
X29000000Y-90500000D01*
X13500000Y-87500000D02*
X13500000Y-80500000D01*
X13500000Y-88500000D02*
X13500000Y-87500000D01*
X13500000Y-88500000D02*
X25000000Y-88500000D01*
X35000000Y-88000000D02*
X34000000Y-88000000D01*
X34000000Y-88000000D02*
X32500000Y-88000000D01*
X27000000Y-90500000D02*
X29000000Y-90500000D01*
X83500000Y-62000000D02*
X81000000Y-64500000D01*
X85000000Y-62000000D02*
X83500000Y-62000000D01*
X76000000Y-62500000D02*
X78000000Y-64500000D01*
X81000000Y-64500000D02*
X80000000Y-64500000D01*
X78000000Y-64500000D02*
X80000000Y-64500000D01*
X64500000Y-62500000D02*
X64500000Y-61500000D01*
X64500000Y-61500000D02*
X64500000Y-54500000D01*
X86000000Y-62000000D02*
X85000000Y-62000000D01*
X64500000Y-62500000D02*
X76000000Y-62500000D01*
X32500000Y-62000000D02*
X30000000Y-64500000D01*
X25000000Y-62500000D02*
X27000000Y-64500000D01*
X13500000Y-61500000D02*
X13500000Y-54500000D01*
X35000000Y-62000000D02*
X34000000Y-62000000D01*
X13500000Y-62500000D02*
X25000000Y-62500000D01*
X13500000Y-62500000D02*
X13500000Y-61500000D01*
X30000000Y-64500000D02*
X29000000Y-64500000D01*
X34000000Y-62000000D02*
X32500000Y-62000000D01*
X27000000Y-64500000D02*
X29000000Y-64500000D01*
X83500000Y-36000000D02*
X81000000Y-38500000D01*
X76000000Y-36500000D02*
X78000000Y-38500000D01*
X86000000Y-36000000D02*
X85000000Y-36000000D01*
X81000000Y-38500000D02*
X80000000Y-38500000D01*
X64500000Y-36500000D02*
X64500000Y-35500000D01*
X64500000Y-35500000D02*
X64500000Y-28500000D01*
X85000000Y-36000000D02*
X83500000Y-36000000D01*
X78000000Y-38500000D02*
X80000000Y-38500000D01*
X64500000Y-36500000D02*
X76000000Y-36500000D01*
X13500000Y-36500000D02*
X13500000Y-35500000D01*
X32500000Y-36000000D02*
X30000000Y-38500000D01*
X25000000Y-36500000D02*
X27000000Y-38500000D01*
X13500000Y-36500000D02*
X25000000Y-36500000D01*
X30000000Y-38500000D02*
X29000000Y-38500000D01*
X35000000Y-36000000D02*
X34000000Y-36000000D01*
X13500000Y-35500000D02*
X13500000Y-28500000D01*
X34000000Y-36000000D02*
X32500000Y-36000000D01*
X27000000Y-38500000D02*
X29000000Y-38500000D01*
X78000000Y-12500000D02*
X80000000Y-12500000D01*
X83500000Y-10000000D02*
X81000000Y-12500000D01*
X76000000Y-10500000D02*
X78000000Y-12500000D01*
X86000000Y-10000000D02*
X85000000Y-10000000D01*
X81000000Y-12500000D02*
X80000000Y-12500000D01*
X85000000Y-10000000D02*
X83500000Y-10000000D01*
X64500000Y-10500000D02*
X64500000Y-9500000D01*
X64500000Y-10500000D02*
X76000000Y-10500000D01*
X64500000Y-9500000D02*
X64500000Y-2500000D01*
X35000000Y-10000000D02*
X34000000Y-10000000D01*
X32500000Y-10000000D02*
X30000000Y-12500000D01*
X25000000Y-10500000D02*
X27000000Y-12500000D01*
X30000000Y-12500000D02*
X29000000Y-12500000D01*
X13500000Y-9500000D02*
X13500000Y-2500000D01*
X13500000Y-10500000D02*
X13500000Y-9500000D01*
X34000000Y-10000000D02*
X32500000Y-10000000D01*
X27000000Y-12500000D02*
X29000000Y-12500000D01*
X13500000Y-10500000D02*
X25000000Y-10500000D01*
X64500000Y-88500000D02*
X76000000Y-88500000D01*
X83500000Y-88000000D02*
X81000000Y-90500000D01*
X78000000Y-90500000D02*
X80000000Y-90500000D01*
X76000000Y-88500000D02*
X78000000Y-90500000D01*
X85000000Y-88000000D02*
X83500000Y-88000000D01*
X86000000Y-88000000D02*
X85000000Y-88000000D01*
X64500000Y-87500000D02*
X64500000Y-80500000D01*
X81000000Y-90500000D02*
X80000000Y-90500000D01*
X64500000Y-88500000D02*
X64500000Y-87500000D01*
%TD*%
%TA.AperFunction,Conductor*%
%TO.N,GND*%
G36*
X59730113Y-78519685D02*
G01*
X59773559Y-78567705D01*
X59844951Y-78707820D01*
X59969890Y-78879786D01*
X60120213Y-79030109D01*
X60292179Y-79155048D01*
X60292181Y-79155049D01*
X60292184Y-79155051D01*
X60481588Y-79251557D01*
X60683757Y-79317246D01*
X60893713Y-79350500D01*
X60893714Y-79350500D01*
X61106286Y-79350500D01*
X61106287Y-79350500D01*
X61316243Y-79317246D01*
X61518412Y-79251557D01*
X61707816Y-79155051D01*
X61734223Y-79135865D01*
X61879786Y-79030109D01*
X61879788Y-79030106D01*
X61879792Y-79030104D01*
X62030104Y-78879792D01*
X62030106Y-78879788D01*
X62030109Y-78879786D01*
X62155048Y-78707820D01*
X62155047Y-78707820D01*
X62155051Y-78707816D01*
X62226441Y-78567704D01*
X62274416Y-78516909D01*
X62336926Y-78500000D01*
X63567119Y-78500000D01*
X63567651Y-78500001D01*
X63575763Y-78500035D01*
X63578947Y-78500550D01*
X63683300Y-78500499D01*
X63749192Y-78500499D01*
X69697468Y-78500499D01*
X69711350Y-78501278D01*
X69864132Y-78518493D01*
X69891198Y-78524670D01*
X70014185Y-78567705D01*
X70033921Y-78574611D01*
X70058938Y-78586659D01*
X70186965Y-78667103D01*
X70208672Y-78684415D01*
X70315584Y-78791327D01*
X70332897Y-78813036D01*
X70413340Y-78941061D01*
X70425388Y-78966078D01*
X70475328Y-79108798D01*
X70481506Y-79135869D01*
X70498720Y-79288639D01*
X70499500Y-79302523D01*
X70499500Y-82275004D01*
X70499501Y-82275079D01*
X70499501Y-82302350D01*
X70499895Y-82304839D01*
X70499989Y-82311916D01*
X70499941Y-82312084D01*
X70500000Y-82313559D01*
X70500000Y-83500000D01*
X71686433Y-83500000D01*
X71696156Y-83500382D01*
X71697643Y-83500499D01*
X71697648Y-83500499D01*
X71734108Y-83500499D01*
X89697468Y-83500499D01*
X89711350Y-83501278D01*
X89864132Y-83518493D01*
X89891198Y-83524670D01*
X90033921Y-83574611D01*
X90058938Y-83586659D01*
X90186965Y-83667103D01*
X90208672Y-83684415D01*
X90315584Y-83791327D01*
X90332897Y-83813036D01*
X90413340Y-83941061D01*
X90425388Y-83966078D01*
X90475328Y-84108798D01*
X90481506Y-84135869D01*
X90498720Y-84288639D01*
X90499500Y-84302523D01*
X90499500Y-85309892D01*
X90498802Y-85412872D01*
X90499960Y-85420321D01*
X90499999Y-85429645D01*
X90499968Y-85429750D01*
X90500000Y-85430159D01*
X90500000Y-86663074D01*
X90480315Y-86730113D01*
X90432295Y-86773559D01*
X90292179Y-86844951D01*
X90120213Y-86969890D01*
X89969890Y-87120213D01*
X89844951Y-87292179D01*
X89748444Y-87481585D01*
X89682753Y-87683760D01*
X89649500Y-87893713D01*
X89649500Y-88106286D01*
X89678888Y-88291839D01*
X89682754Y-88316243D01*
X89733982Y-88473907D01*
X89748444Y-88518414D01*
X89844951Y-88707820D01*
X89969890Y-88879786D01*
X90120213Y-89030109D01*
X90292182Y-89155050D01*
X90292184Y-89155051D01*
X90432295Y-89226441D01*
X90483090Y-89274414D01*
X90500000Y-89336925D01*
X90500000Y-90567109D01*
X90499999Y-90567642D01*
X90499964Y-90575756D01*
X90499449Y-90578946D01*
X90499500Y-90683298D01*
X90499500Y-90683659D01*
X90499500Y-91697475D01*
X90498720Y-91711359D01*
X90481506Y-91864130D01*
X90475328Y-91891201D01*
X90425388Y-92033921D01*
X90413340Y-92058938D01*
X90332897Y-92186963D01*
X90315584Y-92208672D01*
X90208672Y-92315584D01*
X90186963Y-92332897D01*
X90058938Y-92413340D01*
X90033921Y-92425388D01*
X89891201Y-92475328D01*
X89864130Y-92481506D01*
X89711369Y-92498719D01*
X89697485Y-92499499D01*
X71727322Y-92499499D01*
X71727242Y-92499500D01*
X71697649Y-92499500D01*
X71695118Y-92499900D01*
X71687967Y-92499990D01*
X71687808Y-92499945D01*
X71686420Y-92500000D01*
X70500000Y-92500000D01*
X70500000Y-93686430D01*
X70499618Y-93696155D01*
X70499500Y-93697643D01*
X70499500Y-96697475D01*
X70498720Y-96711358D01*
X70498720Y-96711359D01*
X70481506Y-96864130D01*
X70475328Y-96891201D01*
X70425388Y-97033921D01*
X70413340Y-97058938D01*
X70332897Y-97186963D01*
X70315584Y-97208672D01*
X70208672Y-97315584D01*
X70186963Y-97332897D01*
X70058938Y-97413340D01*
X70033921Y-97425388D01*
X69891201Y-97475328D01*
X69864130Y-97481506D01*
X69711369Y-97498719D01*
X69697485Y-97499499D01*
X63690105Y-97499499D01*
X63587126Y-97498801D01*
X63579670Y-97499960D01*
X63570346Y-97499999D01*
X63570240Y-97499968D01*
X63569831Y-97500000D01*
X62336926Y-97500000D01*
X62269887Y-97480315D01*
X62226441Y-97432295D01*
X62175795Y-97332897D01*
X62155051Y-97292184D01*
X62155049Y-97292181D01*
X62155048Y-97292179D01*
X62030109Y-97120213D01*
X61879786Y-96969890D01*
X61707820Y-96844951D01*
X61518414Y-96748444D01*
X61518413Y-96748443D01*
X61518412Y-96748443D01*
X61316243Y-96682754D01*
X61316241Y-96682753D01*
X61316240Y-96682753D01*
X61154957Y-96657208D01*
X61106287Y-96649500D01*
X60893713Y-96649500D01*
X60845042Y-96657208D01*
X60683760Y-96682753D01*
X60481585Y-96748444D01*
X60292179Y-96844951D01*
X60120213Y-96969890D01*
X59969890Y-97120213D01*
X59844951Y-97292179D01*
X59773559Y-97432295D01*
X59725584Y-97483091D01*
X59663074Y-97500000D01*
X58432903Y-97500000D01*
X58432369Y-97499999D01*
X58424247Y-97499964D01*
X58421053Y-97499448D01*
X58316700Y-97499499D01*
X52302515Y-97499499D01*
X52288631Y-97498719D01*
X52135869Y-97481506D01*
X52108798Y-97475328D01*
X51966078Y-97425388D01*
X51941061Y-97413340D01*
X51813036Y-97332897D01*
X51791327Y-97315584D01*
X51684415Y-97208672D01*
X51667102Y-97186963D01*
X51625160Y-97120213D01*
X51586659Y-97058938D01*
X51574611Y-97033921D01*
X51524671Y-96891201D01*
X51518493Y-96864129D01*
X51501280Y-96711358D01*
X51500500Y-96697475D01*
X51500500Y-88598543D01*
X63499499Y-88598543D01*
X63537947Y-88791829D01*
X63537950Y-88791839D01*
X63613364Y-88973907D01*
X63613371Y-88973920D01*
X63722860Y-89137781D01*
X63722863Y-89137785D01*
X63862214Y-89277136D01*
X63862218Y-89277139D01*
X64026079Y-89386628D01*
X64026092Y-89386635D01*
X64208160Y-89462049D01*
X64208165Y-89462051D01*
X64208169Y-89462051D01*
X64208170Y-89462052D01*
X64401456Y-89500500D01*
X64401459Y-89500500D01*
X64598541Y-89500500D01*
X75534218Y-89500500D01*
X75601257Y-89520185D01*
X75621899Y-89536819D01*
X77219735Y-91134655D01*
X77219764Y-91134686D01*
X77362214Y-91277136D01*
X77362218Y-91277139D01*
X77526079Y-91386628D01*
X77526092Y-91386635D01*
X77654833Y-91439961D01*
X77697744Y-91457735D01*
X77708164Y-91462051D01*
X77804812Y-91481275D01*
X77853135Y-91490887D01*
X77901458Y-91500500D01*
X77901459Y-91500500D01*
X81098542Y-91500500D01*
X81129566Y-91494328D01*
X81195188Y-91481275D01*
X81291836Y-91462051D01*
X81345165Y-91439961D01*
X81473914Y-91386632D01*
X81637782Y-91277139D01*
X81777139Y-91137782D01*
X81777140Y-91137779D01*
X81784206Y-91130714D01*
X81784208Y-91130710D01*
X83878101Y-89036819D01*
X83939424Y-89003334D01*
X83965782Y-89000500D01*
X86098543Y-89000500D01*
X86232196Y-88973914D01*
X86291835Y-88962051D01*
X86473914Y-88886632D01*
X86637782Y-88777139D01*
X86777139Y-88637782D01*
X86886632Y-88473914D01*
X86962051Y-88291835D01*
X86974632Y-88228582D01*
X87000500Y-88098543D01*
X87000500Y-87901456D01*
X86962052Y-87708170D01*
X86962051Y-87708169D01*
X86962051Y-87708165D01*
X86951941Y-87683757D01*
X86886635Y-87526092D01*
X86886628Y-87526079D01*
X86777139Y-87362218D01*
X86777136Y-87362214D01*
X86637785Y-87222863D01*
X86637781Y-87222860D01*
X86473920Y-87113371D01*
X86473907Y-87113364D01*
X86291839Y-87037950D01*
X86291829Y-87037947D01*
X86098543Y-86999500D01*
X86098541Y-86999500D01*
X85098541Y-86999500D01*
X83401459Y-86999500D01*
X83401455Y-86999500D01*
X83304812Y-87018724D01*
X83208167Y-87037947D01*
X83208161Y-87037949D01*
X83154834Y-87060037D01*
X83154834Y-87060038D01*
X83109315Y-87078892D01*
X83026089Y-87113366D01*
X83026079Y-87113371D01*
X82862219Y-87222859D01*
X82792900Y-87292179D01*
X82722861Y-87362218D01*
X82722858Y-87362221D01*
X80621899Y-89463181D01*
X80560576Y-89496666D01*
X80534218Y-89499500D01*
X78465782Y-89499500D01*
X78398743Y-89479815D01*
X78378101Y-89463181D01*
X76781479Y-87866559D01*
X76781459Y-87866537D01*
X76637785Y-87722863D01*
X76637781Y-87722860D01*
X76473920Y-87613371D01*
X76473911Y-87613366D01*
X76401315Y-87583296D01*
X76345165Y-87560038D01*
X76291836Y-87537949D01*
X76291832Y-87537948D01*
X76291828Y-87537946D01*
X76195188Y-87518724D01*
X76098544Y-87499500D01*
X76098541Y-87499500D01*
X65624500Y-87499500D01*
X65557461Y-87479815D01*
X65511706Y-87427011D01*
X65500500Y-87375500D01*
X65500500Y-80401456D01*
X65462052Y-80208170D01*
X65462051Y-80208169D01*
X65462051Y-80208165D01*
X65462049Y-80208160D01*
X65386635Y-80026092D01*
X65386628Y-80026079D01*
X65277139Y-79862218D01*
X65277136Y-79862214D01*
X65137785Y-79722863D01*
X65137781Y-79722860D01*
X64973920Y-79613371D01*
X64973907Y-79613364D01*
X64791839Y-79537950D01*
X64791829Y-79537947D01*
X64598543Y-79499500D01*
X64598541Y-79499500D01*
X64401459Y-79499500D01*
X64401457Y-79499500D01*
X64208170Y-79537947D01*
X64208160Y-79537950D01*
X64026092Y-79613364D01*
X64026079Y-79613371D01*
X63862218Y-79722860D01*
X63862214Y-79722863D01*
X63722863Y-79862214D01*
X63722860Y-79862218D01*
X63613371Y-80026079D01*
X63613364Y-80026092D01*
X63537950Y-80208160D01*
X63537947Y-80208170D01*
X63499500Y-80401456D01*
X63499500Y-80401459D01*
X63499500Y-87401459D01*
X63499500Y-88598541D01*
X63499500Y-88598543D01*
X63499499Y-88598543D01*
X51500500Y-88598543D01*
X51500500Y-79302523D01*
X51501280Y-79288639D01*
X51518493Y-79135865D01*
X51524669Y-79108803D01*
X51574612Y-78966075D01*
X51586657Y-78941064D01*
X51667106Y-78813030D01*
X51684411Y-78791331D01*
X51791331Y-78684411D01*
X51813030Y-78667106D01*
X51941064Y-78586657D01*
X51966075Y-78574612D01*
X52108803Y-78524669D01*
X52135865Y-78518493D01*
X52288649Y-78501278D01*
X52302532Y-78500499D01*
X58250848Y-78500499D01*
X58316740Y-78500499D01*
X58316740Y-78500500D01*
X58421092Y-78500551D01*
X58424284Y-78500035D01*
X58432408Y-78500001D01*
X58432468Y-78500018D01*
X58432932Y-78500000D01*
X59663074Y-78500000D01*
X59730113Y-78519685D01*
G37*
%TD.AperFunction*%
%TD*%
%TA.AperFunction,Conductor*%
%TO.N,GND*%
G36*
X8730113Y-519685D02*
G01*
X8773559Y-567705D01*
X8844951Y-707820D01*
X8969890Y-879786D01*
X9120213Y-1030109D01*
X9292179Y-1155048D01*
X9292181Y-1155049D01*
X9292184Y-1155051D01*
X9481588Y-1251557D01*
X9683757Y-1317246D01*
X9893713Y-1350500D01*
X9893714Y-1350500D01*
X10106286Y-1350500D01*
X10106287Y-1350500D01*
X10316243Y-1317246D01*
X10518412Y-1251557D01*
X10707816Y-1155051D01*
X10734223Y-1135865D01*
X10879786Y-1030109D01*
X10879788Y-1030106D01*
X10879792Y-1030104D01*
X11030104Y-879792D01*
X11030106Y-879788D01*
X11030109Y-879786D01*
X11155048Y-707820D01*
X11155047Y-707820D01*
X11155051Y-707816D01*
X11226441Y-567704D01*
X11274416Y-516909D01*
X11336926Y-500000D01*
X12567119Y-500000D01*
X12567651Y-500001D01*
X12575763Y-500035D01*
X12578947Y-500550D01*
X12683300Y-500499D01*
X12749192Y-500499D01*
X18697468Y-500499D01*
X18711350Y-501278D01*
X18864132Y-518493D01*
X18891198Y-524670D01*
X19014185Y-567705D01*
X19033921Y-574611D01*
X19058938Y-586659D01*
X19186965Y-667103D01*
X19208672Y-684415D01*
X19315584Y-791327D01*
X19332897Y-813036D01*
X19413340Y-941061D01*
X19425388Y-966078D01*
X19475328Y-1108798D01*
X19481506Y-1135869D01*
X19498720Y-1288639D01*
X19499500Y-1302523D01*
X19499500Y-4275004D01*
X19499501Y-4275079D01*
X19499501Y-4302350D01*
X19499895Y-4304839D01*
X19499989Y-4311916D01*
X19499941Y-4312084D01*
X19500000Y-4313559D01*
X19500000Y-5500000D01*
X20686433Y-5500000D01*
X20696156Y-5500382D01*
X20697643Y-5500499D01*
X20697648Y-5500499D01*
X20734108Y-5500499D01*
X38697468Y-5500499D01*
X38711350Y-5501278D01*
X38864132Y-5518493D01*
X38891198Y-5524670D01*
X39033921Y-5574611D01*
X39058938Y-5586659D01*
X39186965Y-5667103D01*
X39208672Y-5684415D01*
X39315584Y-5791327D01*
X39332897Y-5813036D01*
X39413340Y-5941061D01*
X39425388Y-5966078D01*
X39475328Y-6108798D01*
X39481506Y-6135869D01*
X39498720Y-6288639D01*
X39499500Y-6302523D01*
X39499500Y-7309892D01*
X39498802Y-7412872D01*
X39499960Y-7420321D01*
X39499999Y-7429645D01*
X39499968Y-7429750D01*
X39500000Y-7430159D01*
X39500000Y-8663074D01*
X39480315Y-8730113D01*
X39432295Y-8773559D01*
X39292179Y-8844951D01*
X39120213Y-8969890D01*
X38969890Y-9120213D01*
X38844951Y-9292179D01*
X38748444Y-9481585D01*
X38682753Y-9683760D01*
X38649500Y-9893713D01*
X38649500Y-10106286D01*
X38678888Y-10291839D01*
X38682754Y-10316243D01*
X38733982Y-10473907D01*
X38748444Y-10518414D01*
X38844951Y-10707820D01*
X38969890Y-10879786D01*
X39120213Y-11030109D01*
X39292182Y-11155050D01*
X39292184Y-11155051D01*
X39432295Y-11226441D01*
X39483090Y-11274414D01*
X39500000Y-11336925D01*
X39500000Y-12567109D01*
X39499999Y-12567642D01*
X39499964Y-12575756D01*
X39499449Y-12578946D01*
X39499500Y-12683298D01*
X39499500Y-12683659D01*
X39499500Y-13697475D01*
X39498720Y-13711359D01*
X39481506Y-13864130D01*
X39475328Y-13891201D01*
X39425388Y-14033921D01*
X39413340Y-14058938D01*
X39332897Y-14186963D01*
X39315584Y-14208672D01*
X39208672Y-14315584D01*
X39186963Y-14332897D01*
X39058938Y-14413340D01*
X39033921Y-14425388D01*
X38891201Y-14475328D01*
X38864130Y-14481506D01*
X38711369Y-14498719D01*
X38697485Y-14499499D01*
X20727322Y-14499499D01*
X20727242Y-14499500D01*
X20697649Y-14499500D01*
X20695118Y-14499900D01*
X20687967Y-14499990D01*
X20687808Y-14499945D01*
X20686420Y-14500000D01*
X19500000Y-14500000D01*
X19500000Y-15686430D01*
X19499618Y-15696155D01*
X19499500Y-15697643D01*
X19499500Y-18697475D01*
X19498720Y-18711358D01*
X19498720Y-18711359D01*
X19481506Y-18864130D01*
X19475328Y-18891201D01*
X19425388Y-19033921D01*
X19413340Y-19058938D01*
X19332897Y-19186963D01*
X19315584Y-19208672D01*
X19208672Y-19315584D01*
X19186963Y-19332897D01*
X19058938Y-19413340D01*
X19033921Y-19425388D01*
X18891201Y-19475328D01*
X18864130Y-19481506D01*
X18711369Y-19498719D01*
X18697485Y-19499499D01*
X12690105Y-19499499D01*
X12587126Y-19498801D01*
X12579670Y-19499960D01*
X12570346Y-19499999D01*
X12570240Y-19499968D01*
X12569831Y-19500000D01*
X11336926Y-19500000D01*
X11269887Y-19480315D01*
X11226441Y-19432295D01*
X11175795Y-19332897D01*
X11155051Y-19292184D01*
X11155049Y-19292181D01*
X11155048Y-19292179D01*
X11030109Y-19120213D01*
X10879786Y-18969890D01*
X10707820Y-18844951D01*
X10518414Y-18748444D01*
X10518413Y-18748443D01*
X10518412Y-18748443D01*
X10316243Y-18682754D01*
X10316241Y-18682753D01*
X10316240Y-18682753D01*
X10154957Y-18657208D01*
X10106287Y-18649500D01*
X9893713Y-18649500D01*
X9845042Y-18657208D01*
X9683760Y-18682753D01*
X9481585Y-18748444D01*
X9292179Y-18844951D01*
X9120213Y-18969890D01*
X8969890Y-19120213D01*
X8844951Y-19292179D01*
X8773559Y-19432295D01*
X8725584Y-19483091D01*
X8663074Y-19500000D01*
X7432903Y-19500000D01*
X7432369Y-19499999D01*
X7424247Y-19499964D01*
X7421053Y-19499448D01*
X7316700Y-19499499D01*
X1302515Y-19499499D01*
X1288631Y-19498719D01*
X1135869Y-19481506D01*
X1108798Y-19475328D01*
X966078Y-19425388D01*
X941061Y-19413340D01*
X813036Y-19332897D01*
X791327Y-19315584D01*
X684415Y-19208672D01*
X667102Y-19186963D01*
X625160Y-19120213D01*
X586659Y-19058938D01*
X574611Y-19033921D01*
X524671Y-18891201D01*
X518493Y-18864129D01*
X501280Y-18711358D01*
X500500Y-18697475D01*
X500500Y-10598543D01*
X12499499Y-10598543D01*
X12537947Y-10791829D01*
X12537950Y-10791839D01*
X12613364Y-10973907D01*
X12613371Y-10973920D01*
X12722860Y-11137781D01*
X12722863Y-11137785D01*
X12862214Y-11277136D01*
X12862218Y-11277139D01*
X13026079Y-11386628D01*
X13026092Y-11386635D01*
X13208160Y-11462049D01*
X13208165Y-11462051D01*
X13208169Y-11462051D01*
X13208170Y-11462052D01*
X13401456Y-11500500D01*
X13401459Y-11500500D01*
X13598541Y-11500500D01*
X24534218Y-11500500D01*
X24601257Y-11520185D01*
X24621899Y-11536819D01*
X26219735Y-13134655D01*
X26219764Y-13134686D01*
X26362214Y-13277136D01*
X26362218Y-13277139D01*
X26526079Y-13386628D01*
X26526092Y-13386635D01*
X26654833Y-13439961D01*
X26697744Y-13457735D01*
X26708164Y-13462051D01*
X26804812Y-13481275D01*
X26853135Y-13490887D01*
X26901458Y-13500500D01*
X26901459Y-13500500D01*
X30098542Y-13500500D01*
X30129566Y-13494328D01*
X30195188Y-13481275D01*
X30291836Y-13462051D01*
X30345165Y-13439961D01*
X30473914Y-13386632D01*
X30637782Y-13277139D01*
X30777139Y-13137782D01*
X30777140Y-13137779D01*
X30784206Y-13130714D01*
X30784208Y-13130710D01*
X32878101Y-11036819D01*
X32939424Y-11003334D01*
X32965782Y-11000500D01*
X35098543Y-11000500D01*
X35232196Y-10973914D01*
X35291835Y-10962051D01*
X35473914Y-10886632D01*
X35637782Y-10777139D01*
X35777139Y-10637782D01*
X35886632Y-10473914D01*
X35962051Y-10291835D01*
X35974632Y-10228582D01*
X36000500Y-10098543D01*
X36000500Y-9901456D01*
X35962052Y-9708170D01*
X35962051Y-9708169D01*
X35962051Y-9708165D01*
X35951941Y-9683757D01*
X35886635Y-9526092D01*
X35886628Y-9526079D01*
X35777139Y-9362218D01*
X35777136Y-9362214D01*
X35637785Y-9222863D01*
X35637781Y-9222860D01*
X35473920Y-9113371D01*
X35473907Y-9113364D01*
X35291839Y-9037950D01*
X35291829Y-9037947D01*
X35098543Y-8999500D01*
X35098541Y-8999500D01*
X34098541Y-8999500D01*
X32401459Y-8999500D01*
X32401455Y-8999500D01*
X32304812Y-9018724D01*
X32208167Y-9037947D01*
X32208161Y-9037949D01*
X32154834Y-9060037D01*
X32154834Y-9060038D01*
X32109315Y-9078892D01*
X32026089Y-9113366D01*
X32026079Y-9113371D01*
X31862219Y-9222859D01*
X31792900Y-9292179D01*
X31722861Y-9362218D01*
X31722858Y-9362221D01*
X29621899Y-11463181D01*
X29560576Y-11496666D01*
X29534218Y-11499500D01*
X27465782Y-11499500D01*
X27398743Y-11479815D01*
X27378101Y-11463181D01*
X25781479Y-9866559D01*
X25781459Y-9866537D01*
X25637785Y-9722863D01*
X25637781Y-9722860D01*
X25473920Y-9613371D01*
X25473911Y-9613366D01*
X25401315Y-9583296D01*
X25345165Y-9560038D01*
X25291836Y-9537949D01*
X25291832Y-9537948D01*
X25291828Y-9537946D01*
X25195188Y-9518724D01*
X25098544Y-9499500D01*
X25098541Y-9499500D01*
X14624500Y-9499500D01*
X14557461Y-9479815D01*
X14511706Y-9427011D01*
X14500500Y-9375500D01*
X14500500Y-2401456D01*
X14462052Y-2208170D01*
X14462051Y-2208169D01*
X14462051Y-2208165D01*
X14462049Y-2208160D01*
X14386635Y-2026092D01*
X14386628Y-2026079D01*
X14277139Y-1862218D01*
X14277136Y-1862214D01*
X14137785Y-1722863D01*
X14137781Y-1722860D01*
X13973920Y-1613371D01*
X13973907Y-1613364D01*
X13791839Y-1537950D01*
X13791829Y-1537947D01*
X13598543Y-1499500D01*
X13598541Y-1499500D01*
X13401459Y-1499500D01*
X13401457Y-1499500D01*
X13208170Y-1537947D01*
X13208160Y-1537950D01*
X13026092Y-1613364D01*
X13026079Y-1613371D01*
X12862218Y-1722860D01*
X12862214Y-1722863D01*
X12722863Y-1862214D01*
X12722860Y-1862218D01*
X12613371Y-2026079D01*
X12613364Y-2026092D01*
X12537950Y-2208160D01*
X12537947Y-2208170D01*
X12499500Y-2401456D01*
X12499500Y-2401459D01*
X12499500Y-9401459D01*
X12499500Y-10598541D01*
X12499500Y-10598543D01*
X12499499Y-10598543D01*
X500500Y-10598543D01*
X500500Y-1302523D01*
X501280Y-1288639D01*
X518493Y-1135865D01*
X524669Y-1108803D01*
X574612Y-966075D01*
X586657Y-941064D01*
X667106Y-813030D01*
X684411Y-791331D01*
X791331Y-684411D01*
X813030Y-667106D01*
X941064Y-586657D01*
X966075Y-574612D01*
X1108803Y-524669D01*
X1135865Y-518493D01*
X1288649Y-501278D01*
X1302532Y-500499D01*
X7250848Y-500499D01*
X7316740Y-500499D01*
X7316740Y-500500D01*
X7421092Y-500551D01*
X7424284Y-500035D01*
X7432408Y-500001D01*
X7432468Y-500018D01*
X7432932Y-500000D01*
X8663074Y-500000D01*
X8730113Y-519685D01*
G37*
%TD.AperFunction*%
%TD*%
%TA.AperFunction,Conductor*%
%TO.N,GND*%
G36*
X59730113Y-519685D02*
G01*
X59773559Y-567705D01*
X59844951Y-707820D01*
X59969890Y-879786D01*
X60120213Y-1030109D01*
X60292179Y-1155048D01*
X60292181Y-1155049D01*
X60292184Y-1155051D01*
X60481588Y-1251557D01*
X60683757Y-1317246D01*
X60893713Y-1350500D01*
X60893714Y-1350500D01*
X61106286Y-1350500D01*
X61106287Y-1350500D01*
X61316243Y-1317246D01*
X61518412Y-1251557D01*
X61707816Y-1155051D01*
X61734223Y-1135865D01*
X61879786Y-1030109D01*
X61879788Y-1030106D01*
X61879792Y-1030104D01*
X62030104Y-879792D01*
X62030106Y-879788D01*
X62030109Y-879786D01*
X62155048Y-707820D01*
X62155047Y-707820D01*
X62155051Y-707816D01*
X62226441Y-567704D01*
X62274416Y-516909D01*
X62336926Y-500000D01*
X63567119Y-500000D01*
X63567651Y-500001D01*
X63575763Y-500035D01*
X63578947Y-500550D01*
X63683300Y-500499D01*
X63749192Y-500499D01*
X69697468Y-500499D01*
X69711350Y-501278D01*
X69864132Y-518493D01*
X69891198Y-524670D01*
X70014185Y-567705D01*
X70033921Y-574611D01*
X70058938Y-586659D01*
X70186965Y-667103D01*
X70208672Y-684415D01*
X70315584Y-791327D01*
X70332897Y-813036D01*
X70413340Y-941061D01*
X70425388Y-966078D01*
X70475328Y-1108798D01*
X70481506Y-1135869D01*
X70498720Y-1288639D01*
X70499500Y-1302523D01*
X70499500Y-4275004D01*
X70499501Y-4275079D01*
X70499501Y-4302350D01*
X70499895Y-4304839D01*
X70499989Y-4311916D01*
X70499941Y-4312084D01*
X70500000Y-4313559D01*
X70500000Y-5500000D01*
X71686433Y-5500000D01*
X71696156Y-5500382D01*
X71697643Y-5500499D01*
X71697648Y-5500499D01*
X71734108Y-5500499D01*
X89697468Y-5500499D01*
X89711350Y-5501278D01*
X89864132Y-5518493D01*
X89891198Y-5524670D01*
X90033921Y-5574611D01*
X90058938Y-5586659D01*
X90186965Y-5667103D01*
X90208672Y-5684415D01*
X90315584Y-5791327D01*
X90332897Y-5813036D01*
X90413340Y-5941061D01*
X90425388Y-5966078D01*
X90475328Y-6108798D01*
X90481506Y-6135869D01*
X90498720Y-6288639D01*
X90499500Y-6302523D01*
X90499500Y-7309892D01*
X90498802Y-7412872D01*
X90499960Y-7420321D01*
X90499999Y-7429645D01*
X90499968Y-7429750D01*
X90500000Y-7430159D01*
X90500000Y-8663074D01*
X90480315Y-8730113D01*
X90432295Y-8773559D01*
X90292179Y-8844951D01*
X90120213Y-8969890D01*
X89969890Y-9120213D01*
X89844951Y-9292179D01*
X89748444Y-9481585D01*
X89682753Y-9683760D01*
X89649500Y-9893713D01*
X89649500Y-10106286D01*
X89678888Y-10291839D01*
X89682754Y-10316243D01*
X89733982Y-10473907D01*
X89748444Y-10518414D01*
X89844951Y-10707820D01*
X89969890Y-10879786D01*
X90120213Y-11030109D01*
X90292182Y-11155050D01*
X90292184Y-11155051D01*
X90432295Y-11226441D01*
X90483090Y-11274414D01*
X90500000Y-11336925D01*
X90500000Y-12567109D01*
X90499999Y-12567642D01*
X90499964Y-12575756D01*
X90499449Y-12578946D01*
X90499500Y-12683298D01*
X90499500Y-12683659D01*
X90499500Y-13697475D01*
X90498720Y-13711359D01*
X90481506Y-13864130D01*
X90475328Y-13891201D01*
X90425388Y-14033921D01*
X90413340Y-14058938D01*
X90332897Y-14186963D01*
X90315584Y-14208672D01*
X90208672Y-14315584D01*
X90186963Y-14332897D01*
X90058938Y-14413340D01*
X90033921Y-14425388D01*
X89891201Y-14475328D01*
X89864130Y-14481506D01*
X89711369Y-14498719D01*
X89697485Y-14499499D01*
X71727322Y-14499499D01*
X71727242Y-14499500D01*
X71697649Y-14499500D01*
X71695118Y-14499900D01*
X71687967Y-14499990D01*
X71687808Y-14499945D01*
X71686420Y-14500000D01*
X70500000Y-14500000D01*
X70500000Y-15686430D01*
X70499618Y-15696155D01*
X70499500Y-15697643D01*
X70499500Y-18697475D01*
X70498720Y-18711358D01*
X70498720Y-18711359D01*
X70481506Y-18864130D01*
X70475328Y-18891201D01*
X70425388Y-19033921D01*
X70413340Y-19058938D01*
X70332897Y-19186963D01*
X70315584Y-19208672D01*
X70208672Y-19315584D01*
X70186963Y-19332897D01*
X70058938Y-19413340D01*
X70033921Y-19425388D01*
X69891201Y-19475328D01*
X69864130Y-19481506D01*
X69711369Y-19498719D01*
X69697485Y-19499499D01*
X63690105Y-19499499D01*
X63587126Y-19498801D01*
X63579670Y-19499960D01*
X63570346Y-19499999D01*
X63570240Y-19499968D01*
X63569831Y-19500000D01*
X62336926Y-19500000D01*
X62269887Y-19480315D01*
X62226441Y-19432295D01*
X62175795Y-19332897D01*
X62155051Y-19292184D01*
X62155049Y-19292181D01*
X62155048Y-19292179D01*
X62030109Y-19120213D01*
X61879786Y-18969890D01*
X61707820Y-18844951D01*
X61518414Y-18748444D01*
X61518413Y-18748443D01*
X61518412Y-18748443D01*
X61316243Y-18682754D01*
X61316241Y-18682753D01*
X61316240Y-18682753D01*
X61154957Y-18657208D01*
X61106287Y-18649500D01*
X60893713Y-18649500D01*
X60845042Y-18657208D01*
X60683760Y-18682753D01*
X60481585Y-18748444D01*
X60292179Y-18844951D01*
X60120213Y-18969890D01*
X59969890Y-19120213D01*
X59844951Y-19292179D01*
X59773559Y-19432295D01*
X59725584Y-19483091D01*
X59663074Y-19500000D01*
X58432903Y-19500000D01*
X58432369Y-19499999D01*
X58424247Y-19499964D01*
X58421053Y-19499448D01*
X58316700Y-19499499D01*
X52302515Y-19499499D01*
X52288631Y-19498719D01*
X52135869Y-19481506D01*
X52108798Y-19475328D01*
X51966078Y-19425388D01*
X51941061Y-19413340D01*
X51813036Y-19332897D01*
X51791327Y-19315584D01*
X51684415Y-19208672D01*
X51667102Y-19186963D01*
X51625160Y-19120213D01*
X51586659Y-19058938D01*
X51574611Y-19033921D01*
X51524671Y-18891201D01*
X51518493Y-18864129D01*
X51501280Y-18711358D01*
X51500500Y-18697475D01*
X51500500Y-10598543D01*
X63499499Y-10598543D01*
X63537947Y-10791829D01*
X63537950Y-10791839D01*
X63613364Y-10973907D01*
X63613371Y-10973920D01*
X63722860Y-11137781D01*
X63722863Y-11137785D01*
X63862214Y-11277136D01*
X63862218Y-11277139D01*
X64026079Y-11386628D01*
X64026092Y-11386635D01*
X64208160Y-11462049D01*
X64208165Y-11462051D01*
X64208169Y-11462051D01*
X64208170Y-11462052D01*
X64401456Y-11500500D01*
X64401459Y-11500500D01*
X64598541Y-11500500D01*
X75534218Y-11500500D01*
X75601257Y-11520185D01*
X75621899Y-11536819D01*
X77219735Y-13134655D01*
X77219764Y-13134686D01*
X77362214Y-13277136D01*
X77362218Y-13277139D01*
X77526079Y-13386628D01*
X77526092Y-13386635D01*
X77654833Y-13439961D01*
X77697744Y-13457735D01*
X77708164Y-13462051D01*
X77804812Y-13481275D01*
X77853135Y-13490887D01*
X77901458Y-13500500D01*
X77901459Y-13500500D01*
X81098542Y-13500500D01*
X81129566Y-13494328D01*
X81195188Y-13481275D01*
X81291836Y-13462051D01*
X81345165Y-13439961D01*
X81473914Y-13386632D01*
X81637782Y-13277139D01*
X81777139Y-13137782D01*
X81777140Y-13137779D01*
X81784206Y-13130714D01*
X81784208Y-13130710D01*
X83878101Y-11036819D01*
X83939424Y-11003334D01*
X83965782Y-11000500D01*
X86098543Y-11000500D01*
X86232196Y-10973914D01*
X86291835Y-10962051D01*
X86473914Y-10886632D01*
X86637782Y-10777139D01*
X86777139Y-10637782D01*
X86886632Y-10473914D01*
X86962051Y-10291835D01*
X86974632Y-10228582D01*
X87000500Y-10098543D01*
X87000500Y-9901456D01*
X86962052Y-9708170D01*
X86962051Y-9708169D01*
X86962051Y-9708165D01*
X86951941Y-9683757D01*
X86886635Y-9526092D01*
X86886628Y-9526079D01*
X86777139Y-9362218D01*
X86777136Y-9362214D01*
X86637785Y-9222863D01*
X86637781Y-9222860D01*
X86473920Y-9113371D01*
X86473907Y-9113364D01*
X86291839Y-9037950D01*
X86291829Y-9037947D01*
X86098543Y-8999500D01*
X86098541Y-8999500D01*
X85098541Y-8999500D01*
X83401459Y-8999500D01*
X83401455Y-8999500D01*
X83304812Y-9018724D01*
X83208167Y-9037947D01*
X83208161Y-9037949D01*
X83154834Y-9060037D01*
X83154834Y-9060038D01*
X83109315Y-9078892D01*
X83026089Y-9113366D01*
X83026079Y-9113371D01*
X82862219Y-9222859D01*
X82792900Y-9292179D01*
X82722861Y-9362218D01*
X82722858Y-9362221D01*
X80621899Y-11463181D01*
X80560576Y-11496666D01*
X80534218Y-11499500D01*
X78465782Y-11499500D01*
X78398743Y-11479815D01*
X78378101Y-11463181D01*
X76781479Y-9866559D01*
X76781459Y-9866537D01*
X76637785Y-9722863D01*
X76637781Y-9722860D01*
X76473920Y-9613371D01*
X76473911Y-9613366D01*
X76401315Y-9583296D01*
X76345165Y-9560038D01*
X76291836Y-9537949D01*
X76291832Y-9537948D01*
X76291828Y-9537946D01*
X76195188Y-9518724D01*
X76098544Y-9499500D01*
X76098541Y-9499500D01*
X65624500Y-9499500D01*
X65557461Y-9479815D01*
X65511706Y-9427011D01*
X65500500Y-9375500D01*
X65500500Y-2401456D01*
X65462052Y-2208170D01*
X65462051Y-2208169D01*
X65462051Y-2208165D01*
X65462049Y-2208160D01*
X65386635Y-2026092D01*
X65386628Y-2026079D01*
X65277139Y-1862218D01*
X65277136Y-1862214D01*
X65137785Y-1722863D01*
X65137781Y-1722860D01*
X64973920Y-1613371D01*
X64973907Y-1613364D01*
X64791839Y-1537950D01*
X64791829Y-1537947D01*
X64598543Y-1499500D01*
X64598541Y-1499500D01*
X64401459Y-1499500D01*
X64401457Y-1499500D01*
X64208170Y-1537947D01*
X64208160Y-1537950D01*
X64026092Y-1613364D01*
X64026079Y-1613371D01*
X63862218Y-1722860D01*
X63862214Y-1722863D01*
X63722863Y-1862214D01*
X63722860Y-1862218D01*
X63613371Y-2026079D01*
X63613364Y-2026092D01*
X63537950Y-2208160D01*
X63537947Y-2208170D01*
X63499500Y-2401456D01*
X63499500Y-2401459D01*
X63499500Y-9401459D01*
X63499500Y-10598541D01*
X63499500Y-10598543D01*
X63499499Y-10598543D01*
X51500500Y-10598543D01*
X51500500Y-1302523D01*
X51501280Y-1288639D01*
X51518493Y-1135865D01*
X51524669Y-1108803D01*
X51574612Y-966075D01*
X51586657Y-941064D01*
X51667106Y-813030D01*
X51684411Y-791331D01*
X51791331Y-684411D01*
X51813030Y-667106D01*
X51941064Y-586657D01*
X51966075Y-574612D01*
X52108803Y-524669D01*
X52135865Y-518493D01*
X52288649Y-501278D01*
X52302532Y-500499D01*
X58250848Y-500499D01*
X58316740Y-500499D01*
X58316740Y-500500D01*
X58421092Y-500551D01*
X58424284Y-500035D01*
X58432408Y-500001D01*
X58432468Y-500018D01*
X58432932Y-500000D01*
X59663074Y-500000D01*
X59730113Y-519685D01*
G37*
%TD.AperFunction*%
%TD*%
%TA.AperFunction,Conductor*%
%TO.N,GND*%
G36*
X8730113Y-26519685D02*
G01*
X8773559Y-26567705D01*
X8844951Y-26707820D01*
X8969890Y-26879786D01*
X9120213Y-27030109D01*
X9292179Y-27155048D01*
X9292181Y-27155049D01*
X9292184Y-27155051D01*
X9481588Y-27251557D01*
X9683757Y-27317246D01*
X9893713Y-27350500D01*
X9893714Y-27350500D01*
X10106286Y-27350500D01*
X10106287Y-27350500D01*
X10316243Y-27317246D01*
X10518412Y-27251557D01*
X10707816Y-27155051D01*
X10734223Y-27135865D01*
X10879786Y-27030109D01*
X10879788Y-27030106D01*
X10879792Y-27030104D01*
X11030104Y-26879792D01*
X11030106Y-26879788D01*
X11030109Y-26879786D01*
X11155048Y-26707820D01*
X11155047Y-26707820D01*
X11155051Y-26707816D01*
X11226441Y-26567704D01*
X11274416Y-26516909D01*
X11336926Y-26500000D01*
X12567119Y-26500000D01*
X12567651Y-26500001D01*
X12575763Y-26500035D01*
X12578947Y-26500550D01*
X12683300Y-26500499D01*
X12749192Y-26500499D01*
X18697468Y-26500499D01*
X18711350Y-26501278D01*
X18864132Y-26518493D01*
X18891198Y-26524670D01*
X19014185Y-26567705D01*
X19033921Y-26574611D01*
X19058938Y-26586659D01*
X19186965Y-26667103D01*
X19208672Y-26684415D01*
X19315584Y-26791327D01*
X19332897Y-26813036D01*
X19413340Y-26941061D01*
X19425388Y-26966078D01*
X19475328Y-27108798D01*
X19481506Y-27135869D01*
X19498720Y-27288639D01*
X19499500Y-27302523D01*
X19499500Y-30275004D01*
X19499501Y-30275079D01*
X19499501Y-30302350D01*
X19499895Y-30304839D01*
X19499989Y-30311916D01*
X19499941Y-30312084D01*
X19500000Y-30313559D01*
X19500000Y-31500000D01*
X20686433Y-31500000D01*
X20696156Y-31500382D01*
X20697643Y-31500499D01*
X20697648Y-31500499D01*
X20734108Y-31500499D01*
X38697468Y-31500499D01*
X38711350Y-31501278D01*
X38864132Y-31518493D01*
X38891198Y-31524670D01*
X39033921Y-31574611D01*
X39058938Y-31586659D01*
X39186965Y-31667103D01*
X39208672Y-31684415D01*
X39315584Y-31791327D01*
X39332897Y-31813036D01*
X39413340Y-31941061D01*
X39425388Y-31966078D01*
X39475328Y-32108798D01*
X39481506Y-32135869D01*
X39498720Y-32288639D01*
X39499500Y-32302523D01*
X39499500Y-33309892D01*
X39498802Y-33412872D01*
X39499960Y-33420321D01*
X39499999Y-33429645D01*
X39499968Y-33429750D01*
X39500000Y-33430159D01*
X39500000Y-34663074D01*
X39480315Y-34730113D01*
X39432295Y-34773559D01*
X39292179Y-34844951D01*
X39120213Y-34969890D01*
X38969890Y-35120213D01*
X38844951Y-35292179D01*
X38748444Y-35481585D01*
X38682753Y-35683760D01*
X38649500Y-35893713D01*
X38649500Y-36106286D01*
X38678888Y-36291839D01*
X38682754Y-36316243D01*
X38733982Y-36473907D01*
X38748444Y-36518414D01*
X38844951Y-36707820D01*
X38969890Y-36879786D01*
X39120213Y-37030109D01*
X39292182Y-37155050D01*
X39292184Y-37155051D01*
X39432295Y-37226441D01*
X39483090Y-37274414D01*
X39500000Y-37336925D01*
X39500000Y-38567109D01*
X39499999Y-38567642D01*
X39499964Y-38575756D01*
X39499449Y-38578946D01*
X39499500Y-38683298D01*
X39499500Y-38683659D01*
X39499500Y-39697475D01*
X39498720Y-39711359D01*
X39481506Y-39864130D01*
X39475328Y-39891201D01*
X39425388Y-40033921D01*
X39413340Y-40058938D01*
X39332897Y-40186963D01*
X39315584Y-40208672D01*
X39208672Y-40315584D01*
X39186963Y-40332897D01*
X39058938Y-40413340D01*
X39033921Y-40425388D01*
X38891201Y-40475328D01*
X38864130Y-40481506D01*
X38711369Y-40498719D01*
X38697485Y-40499499D01*
X20727322Y-40499499D01*
X20727242Y-40499500D01*
X20697649Y-40499500D01*
X20695118Y-40499900D01*
X20687967Y-40499990D01*
X20687808Y-40499945D01*
X20686420Y-40500000D01*
X19500000Y-40500000D01*
X19500000Y-41686430D01*
X19499618Y-41696155D01*
X19499500Y-41697643D01*
X19499500Y-44697475D01*
X19498720Y-44711358D01*
X19498720Y-44711359D01*
X19481506Y-44864130D01*
X19475328Y-44891201D01*
X19425388Y-45033921D01*
X19413340Y-45058938D01*
X19332897Y-45186963D01*
X19315584Y-45208672D01*
X19208672Y-45315584D01*
X19186963Y-45332897D01*
X19058938Y-45413340D01*
X19033921Y-45425388D01*
X18891201Y-45475328D01*
X18864130Y-45481506D01*
X18711369Y-45498719D01*
X18697485Y-45499499D01*
X12690105Y-45499499D01*
X12587126Y-45498801D01*
X12579670Y-45499960D01*
X12570346Y-45499999D01*
X12570240Y-45499968D01*
X12569831Y-45500000D01*
X11336926Y-45500000D01*
X11269887Y-45480315D01*
X11226441Y-45432295D01*
X11175795Y-45332897D01*
X11155051Y-45292184D01*
X11155049Y-45292181D01*
X11155048Y-45292179D01*
X11030109Y-45120213D01*
X10879786Y-44969890D01*
X10707820Y-44844951D01*
X10518414Y-44748444D01*
X10518413Y-44748443D01*
X10518412Y-44748443D01*
X10316243Y-44682754D01*
X10316241Y-44682753D01*
X10316240Y-44682753D01*
X10154957Y-44657208D01*
X10106287Y-44649500D01*
X9893713Y-44649500D01*
X9845042Y-44657208D01*
X9683760Y-44682753D01*
X9481585Y-44748444D01*
X9292179Y-44844951D01*
X9120213Y-44969890D01*
X8969890Y-45120213D01*
X8844951Y-45292179D01*
X8773559Y-45432295D01*
X8725584Y-45483091D01*
X8663074Y-45500000D01*
X7432903Y-45500000D01*
X7432369Y-45499999D01*
X7424247Y-45499964D01*
X7421053Y-45499448D01*
X7316700Y-45499499D01*
X1302515Y-45499499D01*
X1288631Y-45498719D01*
X1135869Y-45481506D01*
X1108798Y-45475328D01*
X966078Y-45425388D01*
X941061Y-45413340D01*
X813036Y-45332897D01*
X791327Y-45315584D01*
X684415Y-45208672D01*
X667102Y-45186963D01*
X625160Y-45120213D01*
X586659Y-45058938D01*
X574611Y-45033921D01*
X524671Y-44891201D01*
X518493Y-44864129D01*
X501280Y-44711358D01*
X500500Y-44697475D01*
X500500Y-36598543D01*
X12499499Y-36598543D01*
X12537947Y-36791829D01*
X12537950Y-36791839D01*
X12613364Y-36973907D01*
X12613371Y-36973920D01*
X12722860Y-37137781D01*
X12722863Y-37137785D01*
X12862214Y-37277136D01*
X12862218Y-37277139D01*
X13026079Y-37386628D01*
X13026092Y-37386635D01*
X13208160Y-37462049D01*
X13208165Y-37462051D01*
X13208169Y-37462051D01*
X13208170Y-37462052D01*
X13401456Y-37500500D01*
X13401459Y-37500500D01*
X13598541Y-37500500D01*
X24534218Y-37500500D01*
X24601257Y-37520185D01*
X24621899Y-37536819D01*
X26219735Y-39134655D01*
X26219764Y-39134686D01*
X26362214Y-39277136D01*
X26362218Y-39277139D01*
X26526079Y-39386628D01*
X26526092Y-39386635D01*
X26654833Y-39439961D01*
X26697744Y-39457735D01*
X26708164Y-39462051D01*
X26804812Y-39481275D01*
X26853135Y-39490887D01*
X26901458Y-39500500D01*
X26901459Y-39500500D01*
X30098542Y-39500500D01*
X30129566Y-39494328D01*
X30195188Y-39481275D01*
X30291836Y-39462051D01*
X30345165Y-39439961D01*
X30473914Y-39386632D01*
X30637782Y-39277139D01*
X30777139Y-39137782D01*
X30777140Y-39137779D01*
X30784206Y-39130714D01*
X30784208Y-39130710D01*
X32878101Y-37036819D01*
X32939424Y-37003334D01*
X32965782Y-37000500D01*
X35098543Y-37000500D01*
X35232196Y-36973914D01*
X35291835Y-36962051D01*
X35473914Y-36886632D01*
X35637782Y-36777139D01*
X35777139Y-36637782D01*
X35886632Y-36473914D01*
X35962051Y-36291835D01*
X35974632Y-36228582D01*
X36000500Y-36098543D01*
X36000500Y-35901456D01*
X35962052Y-35708170D01*
X35962051Y-35708169D01*
X35962051Y-35708165D01*
X35951941Y-35683757D01*
X35886635Y-35526092D01*
X35886628Y-35526079D01*
X35777139Y-35362218D01*
X35777136Y-35362214D01*
X35637785Y-35222863D01*
X35637781Y-35222860D01*
X35473920Y-35113371D01*
X35473907Y-35113364D01*
X35291839Y-35037950D01*
X35291829Y-35037947D01*
X35098543Y-34999500D01*
X35098541Y-34999500D01*
X34098541Y-34999500D01*
X32401459Y-34999500D01*
X32401455Y-34999500D01*
X32304812Y-35018724D01*
X32208167Y-35037947D01*
X32208161Y-35037949D01*
X32154834Y-35060037D01*
X32154834Y-35060038D01*
X32109315Y-35078892D01*
X32026089Y-35113366D01*
X32026079Y-35113371D01*
X31862219Y-35222859D01*
X31792900Y-35292179D01*
X31722861Y-35362218D01*
X31722858Y-35362221D01*
X29621899Y-37463181D01*
X29560576Y-37496666D01*
X29534218Y-37499500D01*
X27465782Y-37499500D01*
X27398743Y-37479815D01*
X27378101Y-37463181D01*
X25781479Y-35866559D01*
X25781459Y-35866537D01*
X25637785Y-35722863D01*
X25637781Y-35722860D01*
X25473920Y-35613371D01*
X25473911Y-35613366D01*
X25401315Y-35583296D01*
X25345165Y-35560038D01*
X25291836Y-35537949D01*
X25291832Y-35537948D01*
X25291828Y-35537946D01*
X25195188Y-35518724D01*
X25098544Y-35499500D01*
X25098541Y-35499500D01*
X14624500Y-35499500D01*
X14557461Y-35479815D01*
X14511706Y-35427011D01*
X14500500Y-35375500D01*
X14500500Y-28401456D01*
X14462052Y-28208170D01*
X14462051Y-28208169D01*
X14462051Y-28208165D01*
X14462049Y-28208160D01*
X14386635Y-28026092D01*
X14386628Y-28026079D01*
X14277139Y-27862218D01*
X14277136Y-27862214D01*
X14137785Y-27722863D01*
X14137781Y-27722860D01*
X13973920Y-27613371D01*
X13973907Y-27613364D01*
X13791839Y-27537950D01*
X13791829Y-27537947D01*
X13598543Y-27499500D01*
X13598541Y-27499500D01*
X13401459Y-27499500D01*
X13401457Y-27499500D01*
X13208170Y-27537947D01*
X13208160Y-27537950D01*
X13026092Y-27613364D01*
X13026079Y-27613371D01*
X12862218Y-27722860D01*
X12862214Y-27722863D01*
X12722863Y-27862214D01*
X12722860Y-27862218D01*
X12613371Y-28026079D01*
X12613364Y-28026092D01*
X12537950Y-28208160D01*
X12537947Y-28208170D01*
X12499500Y-28401456D01*
X12499500Y-28401459D01*
X12499500Y-35401459D01*
X12499500Y-36598541D01*
X12499500Y-36598543D01*
X12499499Y-36598543D01*
X500500Y-36598543D01*
X500500Y-27302523D01*
X501280Y-27288639D01*
X518493Y-27135865D01*
X524669Y-27108803D01*
X574612Y-26966075D01*
X586657Y-26941064D01*
X667106Y-26813030D01*
X684411Y-26791331D01*
X791331Y-26684411D01*
X813030Y-26667106D01*
X941064Y-26586657D01*
X966075Y-26574612D01*
X1108803Y-26524669D01*
X1135865Y-26518493D01*
X1288649Y-26501278D01*
X1302532Y-26500499D01*
X7250848Y-26500499D01*
X7316740Y-26500499D01*
X7316740Y-26500500D01*
X7421092Y-26500551D01*
X7424284Y-26500035D01*
X7432408Y-26500001D01*
X7432468Y-26500018D01*
X7432932Y-26500000D01*
X8663074Y-26500000D01*
X8730113Y-26519685D01*
G37*
%TD.AperFunction*%
%TD*%
%TA.AperFunction,Conductor*%
%TO.N,GND*%
G36*
X59730113Y-26519685D02*
G01*
X59773559Y-26567705D01*
X59844951Y-26707820D01*
X59969890Y-26879786D01*
X60120213Y-27030109D01*
X60292179Y-27155048D01*
X60292181Y-27155049D01*
X60292184Y-27155051D01*
X60481588Y-27251557D01*
X60683757Y-27317246D01*
X60893713Y-27350500D01*
X60893714Y-27350500D01*
X61106286Y-27350500D01*
X61106287Y-27350500D01*
X61316243Y-27317246D01*
X61518412Y-27251557D01*
X61707816Y-27155051D01*
X61734223Y-27135865D01*
X61879786Y-27030109D01*
X61879788Y-27030106D01*
X61879792Y-27030104D01*
X62030104Y-26879792D01*
X62030106Y-26879788D01*
X62030109Y-26879786D01*
X62155048Y-26707820D01*
X62155047Y-26707820D01*
X62155051Y-26707816D01*
X62226441Y-26567704D01*
X62274416Y-26516909D01*
X62336926Y-26500000D01*
X63567119Y-26500000D01*
X63567651Y-26500001D01*
X63575763Y-26500035D01*
X63578947Y-26500550D01*
X63683300Y-26500499D01*
X63749192Y-26500499D01*
X69697468Y-26500499D01*
X69711350Y-26501278D01*
X69864132Y-26518493D01*
X69891198Y-26524670D01*
X70014185Y-26567705D01*
X70033921Y-26574611D01*
X70058938Y-26586659D01*
X70186965Y-26667103D01*
X70208672Y-26684415D01*
X70315584Y-26791327D01*
X70332897Y-26813036D01*
X70413340Y-26941061D01*
X70425388Y-26966078D01*
X70475328Y-27108798D01*
X70481506Y-27135869D01*
X70498720Y-27288639D01*
X70499500Y-27302523D01*
X70499500Y-30275004D01*
X70499501Y-30275079D01*
X70499501Y-30302350D01*
X70499895Y-30304839D01*
X70499989Y-30311916D01*
X70499941Y-30312084D01*
X70500000Y-30313559D01*
X70500000Y-31500000D01*
X71686433Y-31500000D01*
X71696156Y-31500382D01*
X71697643Y-31500499D01*
X71697648Y-31500499D01*
X71734108Y-31500499D01*
X89697468Y-31500499D01*
X89711350Y-31501278D01*
X89864132Y-31518493D01*
X89891198Y-31524670D01*
X90033921Y-31574611D01*
X90058938Y-31586659D01*
X90186965Y-31667103D01*
X90208672Y-31684415D01*
X90315584Y-31791327D01*
X90332897Y-31813036D01*
X90413340Y-31941061D01*
X90425388Y-31966078D01*
X90475328Y-32108798D01*
X90481506Y-32135869D01*
X90498720Y-32288639D01*
X90499500Y-32302523D01*
X90499500Y-33309892D01*
X90498802Y-33412872D01*
X90499960Y-33420321D01*
X90499999Y-33429645D01*
X90499968Y-33429750D01*
X90500000Y-33430159D01*
X90500000Y-34663074D01*
X90480315Y-34730113D01*
X90432295Y-34773559D01*
X90292179Y-34844951D01*
X90120213Y-34969890D01*
X89969890Y-35120213D01*
X89844951Y-35292179D01*
X89748444Y-35481585D01*
X89682753Y-35683760D01*
X89649500Y-35893713D01*
X89649500Y-36106286D01*
X89678888Y-36291839D01*
X89682754Y-36316243D01*
X89733982Y-36473907D01*
X89748444Y-36518414D01*
X89844951Y-36707820D01*
X89969890Y-36879786D01*
X90120213Y-37030109D01*
X90292182Y-37155050D01*
X90292184Y-37155051D01*
X90432295Y-37226441D01*
X90483090Y-37274414D01*
X90500000Y-37336925D01*
X90500000Y-38567109D01*
X90499999Y-38567642D01*
X90499964Y-38575756D01*
X90499449Y-38578946D01*
X90499500Y-38683298D01*
X90499500Y-38683659D01*
X90499500Y-39697475D01*
X90498720Y-39711359D01*
X90481506Y-39864130D01*
X90475328Y-39891201D01*
X90425388Y-40033921D01*
X90413340Y-40058938D01*
X90332897Y-40186963D01*
X90315584Y-40208672D01*
X90208672Y-40315584D01*
X90186963Y-40332897D01*
X90058938Y-40413340D01*
X90033921Y-40425388D01*
X89891201Y-40475328D01*
X89864130Y-40481506D01*
X89711369Y-40498719D01*
X89697485Y-40499499D01*
X71727322Y-40499499D01*
X71727242Y-40499500D01*
X71697649Y-40499500D01*
X71695118Y-40499900D01*
X71687967Y-40499990D01*
X71687808Y-40499945D01*
X71686420Y-40500000D01*
X70500000Y-40500000D01*
X70500000Y-41686430D01*
X70499618Y-41696155D01*
X70499500Y-41697643D01*
X70499500Y-44697475D01*
X70498720Y-44711358D01*
X70498720Y-44711359D01*
X70481506Y-44864130D01*
X70475328Y-44891201D01*
X70425388Y-45033921D01*
X70413340Y-45058938D01*
X70332897Y-45186963D01*
X70315584Y-45208672D01*
X70208672Y-45315584D01*
X70186963Y-45332897D01*
X70058938Y-45413340D01*
X70033921Y-45425388D01*
X69891201Y-45475328D01*
X69864130Y-45481506D01*
X69711369Y-45498719D01*
X69697485Y-45499499D01*
X63690105Y-45499499D01*
X63587126Y-45498801D01*
X63579670Y-45499960D01*
X63570346Y-45499999D01*
X63570240Y-45499968D01*
X63569831Y-45500000D01*
X62336926Y-45500000D01*
X62269887Y-45480315D01*
X62226441Y-45432295D01*
X62175795Y-45332897D01*
X62155051Y-45292184D01*
X62155049Y-45292181D01*
X62155048Y-45292179D01*
X62030109Y-45120213D01*
X61879786Y-44969890D01*
X61707820Y-44844951D01*
X61518414Y-44748444D01*
X61518413Y-44748443D01*
X61518412Y-44748443D01*
X61316243Y-44682754D01*
X61316241Y-44682753D01*
X61316240Y-44682753D01*
X61154957Y-44657208D01*
X61106287Y-44649500D01*
X60893713Y-44649500D01*
X60845042Y-44657208D01*
X60683760Y-44682753D01*
X60481585Y-44748444D01*
X60292179Y-44844951D01*
X60120213Y-44969890D01*
X59969890Y-45120213D01*
X59844951Y-45292179D01*
X59773559Y-45432295D01*
X59725584Y-45483091D01*
X59663074Y-45500000D01*
X58432903Y-45500000D01*
X58432369Y-45499999D01*
X58424247Y-45499964D01*
X58421053Y-45499448D01*
X58316700Y-45499499D01*
X52302515Y-45499499D01*
X52288631Y-45498719D01*
X52135869Y-45481506D01*
X52108798Y-45475328D01*
X51966078Y-45425388D01*
X51941061Y-45413340D01*
X51813036Y-45332897D01*
X51791327Y-45315584D01*
X51684415Y-45208672D01*
X51667102Y-45186963D01*
X51625160Y-45120213D01*
X51586659Y-45058938D01*
X51574611Y-45033921D01*
X51524671Y-44891201D01*
X51518493Y-44864129D01*
X51501280Y-44711358D01*
X51500500Y-44697475D01*
X51500500Y-36598543D01*
X63499499Y-36598543D01*
X63537947Y-36791829D01*
X63537950Y-36791839D01*
X63613364Y-36973907D01*
X63613371Y-36973920D01*
X63722860Y-37137781D01*
X63722863Y-37137785D01*
X63862214Y-37277136D01*
X63862218Y-37277139D01*
X64026079Y-37386628D01*
X64026092Y-37386635D01*
X64208160Y-37462049D01*
X64208165Y-37462051D01*
X64208169Y-37462051D01*
X64208170Y-37462052D01*
X64401456Y-37500500D01*
X64401459Y-37500500D01*
X64598541Y-37500500D01*
X75534218Y-37500500D01*
X75601257Y-37520185D01*
X75621899Y-37536819D01*
X77219735Y-39134655D01*
X77219764Y-39134686D01*
X77362214Y-39277136D01*
X77362218Y-39277139D01*
X77526079Y-39386628D01*
X77526092Y-39386635D01*
X77654833Y-39439961D01*
X77697744Y-39457735D01*
X77708164Y-39462051D01*
X77804812Y-39481275D01*
X77853135Y-39490887D01*
X77901458Y-39500500D01*
X77901459Y-39500500D01*
X81098542Y-39500500D01*
X81129566Y-39494328D01*
X81195188Y-39481275D01*
X81291836Y-39462051D01*
X81345165Y-39439961D01*
X81473914Y-39386632D01*
X81637782Y-39277139D01*
X81777139Y-39137782D01*
X81777140Y-39137779D01*
X81784206Y-39130714D01*
X81784208Y-39130710D01*
X83878101Y-37036819D01*
X83939424Y-37003334D01*
X83965782Y-37000500D01*
X86098543Y-37000500D01*
X86232196Y-36973914D01*
X86291835Y-36962051D01*
X86473914Y-36886632D01*
X86637782Y-36777139D01*
X86777139Y-36637782D01*
X86886632Y-36473914D01*
X86962051Y-36291835D01*
X86974632Y-36228582D01*
X87000500Y-36098543D01*
X87000500Y-35901456D01*
X86962052Y-35708170D01*
X86962051Y-35708169D01*
X86962051Y-35708165D01*
X86951941Y-35683757D01*
X86886635Y-35526092D01*
X86886628Y-35526079D01*
X86777139Y-35362218D01*
X86777136Y-35362214D01*
X86637785Y-35222863D01*
X86637781Y-35222860D01*
X86473920Y-35113371D01*
X86473907Y-35113364D01*
X86291839Y-35037950D01*
X86291829Y-35037947D01*
X86098543Y-34999500D01*
X86098541Y-34999500D01*
X85098541Y-34999500D01*
X83401459Y-34999500D01*
X83401455Y-34999500D01*
X83304812Y-35018724D01*
X83208167Y-35037947D01*
X83208161Y-35037949D01*
X83154834Y-35060037D01*
X83154834Y-35060038D01*
X83109315Y-35078892D01*
X83026089Y-35113366D01*
X83026079Y-35113371D01*
X82862219Y-35222859D01*
X82792900Y-35292179D01*
X82722861Y-35362218D01*
X82722858Y-35362221D01*
X80621899Y-37463181D01*
X80560576Y-37496666D01*
X80534218Y-37499500D01*
X78465782Y-37499500D01*
X78398743Y-37479815D01*
X78378101Y-37463181D01*
X76781479Y-35866559D01*
X76781459Y-35866537D01*
X76637785Y-35722863D01*
X76637781Y-35722860D01*
X76473920Y-35613371D01*
X76473911Y-35613366D01*
X76401315Y-35583296D01*
X76345165Y-35560038D01*
X76291836Y-35537949D01*
X76291832Y-35537948D01*
X76291828Y-35537946D01*
X76195188Y-35518724D01*
X76098544Y-35499500D01*
X76098541Y-35499500D01*
X65624500Y-35499500D01*
X65557461Y-35479815D01*
X65511706Y-35427011D01*
X65500500Y-35375500D01*
X65500500Y-28401456D01*
X65462052Y-28208170D01*
X65462051Y-28208169D01*
X65462051Y-28208165D01*
X65462049Y-28208160D01*
X65386635Y-28026092D01*
X65386628Y-28026079D01*
X65277139Y-27862218D01*
X65277136Y-27862214D01*
X65137785Y-27722863D01*
X65137781Y-27722860D01*
X64973920Y-27613371D01*
X64973907Y-27613364D01*
X64791839Y-27537950D01*
X64791829Y-27537947D01*
X64598543Y-27499500D01*
X64598541Y-27499500D01*
X64401459Y-27499500D01*
X64401457Y-27499500D01*
X64208170Y-27537947D01*
X64208160Y-27537950D01*
X64026092Y-27613364D01*
X64026079Y-27613371D01*
X63862218Y-27722860D01*
X63862214Y-27722863D01*
X63722863Y-27862214D01*
X63722860Y-27862218D01*
X63613371Y-28026079D01*
X63613364Y-28026092D01*
X63537950Y-28208160D01*
X63537947Y-28208170D01*
X63499500Y-28401456D01*
X63499500Y-28401459D01*
X63499500Y-35401459D01*
X63499500Y-36598541D01*
X63499500Y-36598543D01*
X63499499Y-36598543D01*
X51500500Y-36598543D01*
X51500500Y-27302523D01*
X51501280Y-27288639D01*
X51518493Y-27135865D01*
X51524669Y-27108803D01*
X51574612Y-26966075D01*
X51586657Y-26941064D01*
X51667106Y-26813030D01*
X51684411Y-26791331D01*
X51791331Y-26684411D01*
X51813030Y-26667106D01*
X51941064Y-26586657D01*
X51966075Y-26574612D01*
X52108803Y-26524669D01*
X52135865Y-26518493D01*
X52288649Y-26501278D01*
X52302532Y-26500499D01*
X58250848Y-26500499D01*
X58316740Y-26500499D01*
X58316740Y-26500500D01*
X58421092Y-26500551D01*
X58424284Y-26500035D01*
X58432408Y-26500001D01*
X58432468Y-26500018D01*
X58432932Y-26500000D01*
X59663074Y-26500000D01*
X59730113Y-26519685D01*
G37*
%TD.AperFunction*%
%TD*%
%TA.AperFunction,Conductor*%
%TO.N,GND*%
G36*
X8730113Y-52519685D02*
G01*
X8773559Y-52567705D01*
X8844951Y-52707820D01*
X8969890Y-52879786D01*
X9120213Y-53030109D01*
X9292179Y-53155048D01*
X9292181Y-53155049D01*
X9292184Y-53155051D01*
X9481588Y-53251557D01*
X9683757Y-53317246D01*
X9893713Y-53350500D01*
X9893714Y-53350500D01*
X10106286Y-53350500D01*
X10106287Y-53350500D01*
X10316243Y-53317246D01*
X10518412Y-53251557D01*
X10707816Y-53155051D01*
X10734223Y-53135865D01*
X10879786Y-53030109D01*
X10879788Y-53030106D01*
X10879792Y-53030104D01*
X11030104Y-52879792D01*
X11030106Y-52879788D01*
X11030109Y-52879786D01*
X11155048Y-52707820D01*
X11155047Y-52707820D01*
X11155051Y-52707816D01*
X11226441Y-52567704D01*
X11274416Y-52516909D01*
X11336926Y-52500000D01*
X12567119Y-52500000D01*
X12567651Y-52500001D01*
X12575763Y-52500035D01*
X12578947Y-52500550D01*
X12683300Y-52500499D01*
X12749192Y-52500499D01*
X18697468Y-52500499D01*
X18711350Y-52501278D01*
X18864132Y-52518493D01*
X18891198Y-52524670D01*
X19014185Y-52567705D01*
X19033921Y-52574611D01*
X19058938Y-52586659D01*
X19186965Y-52667103D01*
X19208672Y-52684415D01*
X19315584Y-52791327D01*
X19332897Y-52813036D01*
X19413340Y-52941061D01*
X19425388Y-52966078D01*
X19475328Y-53108798D01*
X19481506Y-53135869D01*
X19498720Y-53288639D01*
X19499500Y-53302523D01*
X19499500Y-56275004D01*
X19499501Y-56275079D01*
X19499501Y-56302350D01*
X19499895Y-56304839D01*
X19499989Y-56311916D01*
X19499941Y-56312084D01*
X19500000Y-56313559D01*
X19500000Y-57500000D01*
X20686433Y-57500000D01*
X20696156Y-57500382D01*
X20697643Y-57500499D01*
X20697648Y-57500499D01*
X20734108Y-57500499D01*
X38697468Y-57500499D01*
X38711350Y-57501278D01*
X38864132Y-57518493D01*
X38891198Y-57524670D01*
X39033921Y-57574611D01*
X39058938Y-57586659D01*
X39186965Y-57667103D01*
X39208672Y-57684415D01*
X39315584Y-57791327D01*
X39332897Y-57813036D01*
X39413340Y-57941061D01*
X39425388Y-57966078D01*
X39475328Y-58108798D01*
X39481506Y-58135869D01*
X39498720Y-58288639D01*
X39499500Y-58302523D01*
X39499500Y-59309892D01*
X39498802Y-59412872D01*
X39499960Y-59420321D01*
X39499999Y-59429645D01*
X39499968Y-59429750D01*
X39500000Y-59430159D01*
X39500000Y-60663074D01*
X39480315Y-60730113D01*
X39432295Y-60773559D01*
X39292179Y-60844951D01*
X39120213Y-60969890D01*
X38969890Y-61120213D01*
X38844951Y-61292179D01*
X38748444Y-61481585D01*
X38682753Y-61683760D01*
X38649500Y-61893713D01*
X38649500Y-62106286D01*
X38678888Y-62291839D01*
X38682754Y-62316243D01*
X38733982Y-62473907D01*
X38748444Y-62518414D01*
X38844951Y-62707820D01*
X38969890Y-62879786D01*
X39120213Y-63030109D01*
X39292182Y-63155050D01*
X39292184Y-63155051D01*
X39432295Y-63226441D01*
X39483090Y-63274414D01*
X39500000Y-63336925D01*
X39500000Y-64567109D01*
X39499999Y-64567642D01*
X39499964Y-64575756D01*
X39499449Y-64578946D01*
X39499500Y-64683298D01*
X39499500Y-64683659D01*
X39499500Y-65697475D01*
X39498720Y-65711359D01*
X39481506Y-65864130D01*
X39475328Y-65891201D01*
X39425388Y-66033921D01*
X39413340Y-66058938D01*
X39332897Y-66186963D01*
X39315584Y-66208672D01*
X39208672Y-66315584D01*
X39186963Y-66332897D01*
X39058938Y-66413340D01*
X39033921Y-66425388D01*
X38891201Y-66475328D01*
X38864130Y-66481506D01*
X38711369Y-66498719D01*
X38697485Y-66499499D01*
X20727322Y-66499499D01*
X20727242Y-66499500D01*
X20697649Y-66499500D01*
X20695118Y-66499900D01*
X20687967Y-66499990D01*
X20687808Y-66499945D01*
X20686420Y-66500000D01*
X19500000Y-66500000D01*
X19500000Y-67686430D01*
X19499618Y-67696155D01*
X19499500Y-67697643D01*
X19499500Y-70697475D01*
X19498720Y-70711358D01*
X19498720Y-70711359D01*
X19481506Y-70864130D01*
X19475328Y-70891201D01*
X19425388Y-71033921D01*
X19413340Y-71058938D01*
X19332897Y-71186963D01*
X19315584Y-71208672D01*
X19208672Y-71315584D01*
X19186963Y-71332897D01*
X19058938Y-71413340D01*
X19033921Y-71425388D01*
X18891201Y-71475328D01*
X18864130Y-71481506D01*
X18711369Y-71498719D01*
X18697485Y-71499499D01*
X12690105Y-71499499D01*
X12587126Y-71498801D01*
X12579670Y-71499960D01*
X12570346Y-71499999D01*
X12570240Y-71499968D01*
X12569831Y-71500000D01*
X11336926Y-71500000D01*
X11269887Y-71480315D01*
X11226441Y-71432295D01*
X11175795Y-71332897D01*
X11155051Y-71292184D01*
X11155049Y-71292181D01*
X11155048Y-71292179D01*
X11030109Y-71120213D01*
X10879786Y-70969890D01*
X10707820Y-70844951D01*
X10518414Y-70748444D01*
X10518413Y-70748443D01*
X10518412Y-70748443D01*
X10316243Y-70682754D01*
X10316241Y-70682753D01*
X10316240Y-70682753D01*
X10154957Y-70657208D01*
X10106287Y-70649500D01*
X9893713Y-70649500D01*
X9845042Y-70657208D01*
X9683760Y-70682753D01*
X9481585Y-70748444D01*
X9292179Y-70844951D01*
X9120213Y-70969890D01*
X8969890Y-71120213D01*
X8844951Y-71292179D01*
X8773559Y-71432295D01*
X8725584Y-71483091D01*
X8663074Y-71500000D01*
X7432903Y-71500000D01*
X7432369Y-71499999D01*
X7424247Y-71499964D01*
X7421053Y-71499448D01*
X7316700Y-71499499D01*
X1302515Y-71499499D01*
X1288631Y-71498719D01*
X1135869Y-71481506D01*
X1108798Y-71475328D01*
X966078Y-71425388D01*
X941061Y-71413340D01*
X813036Y-71332897D01*
X791327Y-71315584D01*
X684415Y-71208672D01*
X667102Y-71186963D01*
X625160Y-71120213D01*
X586659Y-71058938D01*
X574611Y-71033921D01*
X524671Y-70891201D01*
X518493Y-70864129D01*
X501280Y-70711358D01*
X500500Y-70697475D01*
X500500Y-62598543D01*
X12499499Y-62598543D01*
X12537947Y-62791829D01*
X12537950Y-62791839D01*
X12613364Y-62973907D01*
X12613371Y-62973920D01*
X12722860Y-63137781D01*
X12722863Y-63137785D01*
X12862214Y-63277136D01*
X12862218Y-63277139D01*
X13026079Y-63386628D01*
X13026092Y-63386635D01*
X13208160Y-63462049D01*
X13208165Y-63462051D01*
X13208169Y-63462051D01*
X13208170Y-63462052D01*
X13401456Y-63500500D01*
X13401459Y-63500500D01*
X13598541Y-63500500D01*
X24534218Y-63500500D01*
X24601257Y-63520185D01*
X24621899Y-63536819D01*
X26219735Y-65134655D01*
X26219764Y-65134686D01*
X26362214Y-65277136D01*
X26362218Y-65277139D01*
X26526079Y-65386628D01*
X26526092Y-65386635D01*
X26654833Y-65439961D01*
X26697744Y-65457735D01*
X26708164Y-65462051D01*
X26804812Y-65481275D01*
X26853135Y-65490887D01*
X26901458Y-65500500D01*
X26901459Y-65500500D01*
X30098542Y-65500500D01*
X30129566Y-65494328D01*
X30195188Y-65481275D01*
X30291836Y-65462051D01*
X30345165Y-65439961D01*
X30473914Y-65386632D01*
X30637782Y-65277139D01*
X30777139Y-65137782D01*
X30777140Y-65137779D01*
X30784206Y-65130714D01*
X30784208Y-65130710D01*
X32878101Y-63036819D01*
X32939424Y-63003334D01*
X32965782Y-63000500D01*
X35098543Y-63000500D01*
X35232196Y-62973914D01*
X35291835Y-62962051D01*
X35473914Y-62886632D01*
X35637782Y-62777139D01*
X35777139Y-62637782D01*
X35886632Y-62473914D01*
X35962051Y-62291835D01*
X35974632Y-62228582D01*
X36000500Y-62098543D01*
X36000500Y-61901456D01*
X35962052Y-61708170D01*
X35962051Y-61708169D01*
X35962051Y-61708165D01*
X35951941Y-61683757D01*
X35886635Y-61526092D01*
X35886628Y-61526079D01*
X35777139Y-61362218D01*
X35777136Y-61362214D01*
X35637785Y-61222863D01*
X35637781Y-61222860D01*
X35473920Y-61113371D01*
X35473907Y-61113364D01*
X35291839Y-61037950D01*
X35291829Y-61037947D01*
X35098543Y-60999500D01*
X35098541Y-60999500D01*
X34098541Y-60999500D01*
X32401459Y-60999500D01*
X32401455Y-60999500D01*
X32304812Y-61018724D01*
X32208167Y-61037947D01*
X32208161Y-61037949D01*
X32154834Y-61060037D01*
X32154834Y-61060038D01*
X32109315Y-61078892D01*
X32026089Y-61113366D01*
X32026079Y-61113371D01*
X31862219Y-61222859D01*
X31792900Y-61292179D01*
X31722861Y-61362218D01*
X31722858Y-61362221D01*
X29621899Y-63463181D01*
X29560576Y-63496666D01*
X29534218Y-63499500D01*
X27465782Y-63499500D01*
X27398743Y-63479815D01*
X27378101Y-63463181D01*
X25781479Y-61866559D01*
X25781459Y-61866537D01*
X25637785Y-61722863D01*
X25637781Y-61722860D01*
X25473920Y-61613371D01*
X25473911Y-61613366D01*
X25401315Y-61583296D01*
X25345165Y-61560038D01*
X25291836Y-61537949D01*
X25291832Y-61537948D01*
X25291828Y-61537946D01*
X25195188Y-61518724D01*
X25098544Y-61499500D01*
X25098541Y-61499500D01*
X14624500Y-61499500D01*
X14557461Y-61479815D01*
X14511706Y-61427011D01*
X14500500Y-61375500D01*
X14500500Y-54401456D01*
X14462052Y-54208170D01*
X14462051Y-54208169D01*
X14462051Y-54208165D01*
X14462049Y-54208160D01*
X14386635Y-54026092D01*
X14386628Y-54026079D01*
X14277139Y-53862218D01*
X14277136Y-53862214D01*
X14137785Y-53722863D01*
X14137781Y-53722860D01*
X13973920Y-53613371D01*
X13973907Y-53613364D01*
X13791839Y-53537950D01*
X13791829Y-53537947D01*
X13598543Y-53499500D01*
X13598541Y-53499500D01*
X13401459Y-53499500D01*
X13401457Y-53499500D01*
X13208170Y-53537947D01*
X13208160Y-53537950D01*
X13026092Y-53613364D01*
X13026079Y-53613371D01*
X12862218Y-53722860D01*
X12862214Y-53722863D01*
X12722863Y-53862214D01*
X12722860Y-53862218D01*
X12613371Y-54026079D01*
X12613364Y-54026092D01*
X12537950Y-54208160D01*
X12537947Y-54208170D01*
X12499500Y-54401456D01*
X12499500Y-54401459D01*
X12499500Y-61401459D01*
X12499500Y-62598541D01*
X12499500Y-62598543D01*
X12499499Y-62598543D01*
X500500Y-62598543D01*
X500500Y-53302523D01*
X501280Y-53288639D01*
X518493Y-53135865D01*
X524669Y-53108803D01*
X574612Y-52966075D01*
X586657Y-52941064D01*
X667106Y-52813030D01*
X684411Y-52791331D01*
X791331Y-52684411D01*
X813030Y-52667106D01*
X941064Y-52586657D01*
X966075Y-52574612D01*
X1108803Y-52524669D01*
X1135865Y-52518493D01*
X1288649Y-52501278D01*
X1302532Y-52500499D01*
X7250848Y-52500499D01*
X7316740Y-52500499D01*
X7316740Y-52500500D01*
X7421092Y-52500551D01*
X7424284Y-52500035D01*
X7432408Y-52500001D01*
X7432468Y-52500018D01*
X7432932Y-52500000D01*
X8663074Y-52500000D01*
X8730113Y-52519685D01*
G37*
%TD.AperFunction*%
%TD*%
%TA.AperFunction,Conductor*%
%TO.N,GND*%
G36*
X59730113Y-52519685D02*
G01*
X59773559Y-52567705D01*
X59844951Y-52707820D01*
X59969890Y-52879786D01*
X60120213Y-53030109D01*
X60292179Y-53155048D01*
X60292181Y-53155049D01*
X60292184Y-53155051D01*
X60481588Y-53251557D01*
X60683757Y-53317246D01*
X60893713Y-53350500D01*
X60893714Y-53350500D01*
X61106286Y-53350500D01*
X61106287Y-53350500D01*
X61316243Y-53317246D01*
X61518412Y-53251557D01*
X61707816Y-53155051D01*
X61734223Y-53135865D01*
X61879786Y-53030109D01*
X61879788Y-53030106D01*
X61879792Y-53030104D01*
X62030104Y-52879792D01*
X62030106Y-52879788D01*
X62030109Y-52879786D01*
X62155048Y-52707820D01*
X62155047Y-52707820D01*
X62155051Y-52707816D01*
X62226441Y-52567704D01*
X62274416Y-52516909D01*
X62336926Y-52500000D01*
X63567119Y-52500000D01*
X63567651Y-52500001D01*
X63575763Y-52500035D01*
X63578947Y-52500550D01*
X63683300Y-52500499D01*
X63749192Y-52500499D01*
X69697468Y-52500499D01*
X69711350Y-52501278D01*
X69864132Y-52518493D01*
X69891198Y-52524670D01*
X70014185Y-52567705D01*
X70033921Y-52574611D01*
X70058938Y-52586659D01*
X70186965Y-52667103D01*
X70208672Y-52684415D01*
X70315584Y-52791327D01*
X70332897Y-52813036D01*
X70413340Y-52941061D01*
X70425388Y-52966078D01*
X70475328Y-53108798D01*
X70481506Y-53135869D01*
X70498720Y-53288639D01*
X70499500Y-53302523D01*
X70499500Y-56275004D01*
X70499501Y-56275079D01*
X70499501Y-56302350D01*
X70499895Y-56304839D01*
X70499989Y-56311916D01*
X70499941Y-56312084D01*
X70500000Y-56313559D01*
X70500000Y-57500000D01*
X71686433Y-57500000D01*
X71696156Y-57500382D01*
X71697643Y-57500499D01*
X71697648Y-57500499D01*
X71734108Y-57500499D01*
X89697468Y-57500499D01*
X89711350Y-57501278D01*
X89864132Y-57518493D01*
X89891198Y-57524670D01*
X90033921Y-57574611D01*
X90058938Y-57586659D01*
X90186965Y-57667103D01*
X90208672Y-57684415D01*
X90315584Y-57791327D01*
X90332897Y-57813036D01*
X90413340Y-57941061D01*
X90425388Y-57966078D01*
X90475328Y-58108798D01*
X90481506Y-58135869D01*
X90498720Y-58288639D01*
X90499500Y-58302523D01*
X90499500Y-59309892D01*
X90498802Y-59412872D01*
X90499960Y-59420321D01*
X90499999Y-59429645D01*
X90499968Y-59429750D01*
X90500000Y-59430159D01*
X90500000Y-60663074D01*
X90480315Y-60730113D01*
X90432295Y-60773559D01*
X90292179Y-60844951D01*
X90120213Y-60969890D01*
X89969890Y-61120213D01*
X89844951Y-61292179D01*
X89748444Y-61481585D01*
X89682753Y-61683760D01*
X89649500Y-61893713D01*
X89649500Y-62106286D01*
X89678888Y-62291839D01*
X89682754Y-62316243D01*
X89733982Y-62473907D01*
X89748444Y-62518414D01*
X89844951Y-62707820D01*
X89969890Y-62879786D01*
X90120213Y-63030109D01*
X90292182Y-63155050D01*
X90292184Y-63155051D01*
X90432295Y-63226441D01*
X90483090Y-63274414D01*
X90500000Y-63336925D01*
X90500000Y-64567109D01*
X90499999Y-64567642D01*
X90499964Y-64575756D01*
X90499449Y-64578946D01*
X90499500Y-64683298D01*
X90499500Y-64683659D01*
X90499500Y-65697475D01*
X90498720Y-65711359D01*
X90481506Y-65864130D01*
X90475328Y-65891201D01*
X90425388Y-66033921D01*
X90413340Y-66058938D01*
X90332897Y-66186963D01*
X90315584Y-66208672D01*
X90208672Y-66315584D01*
X90186963Y-66332897D01*
X90058938Y-66413340D01*
X90033921Y-66425388D01*
X89891201Y-66475328D01*
X89864130Y-66481506D01*
X89711369Y-66498719D01*
X89697485Y-66499499D01*
X71727322Y-66499499D01*
X71727242Y-66499500D01*
X71697649Y-66499500D01*
X71695118Y-66499900D01*
X71687967Y-66499990D01*
X71687808Y-66499945D01*
X71686420Y-66500000D01*
X70500000Y-66500000D01*
X70500000Y-67686430D01*
X70499618Y-67696155D01*
X70499500Y-67697643D01*
X70499500Y-70697475D01*
X70498720Y-70711358D01*
X70498720Y-70711359D01*
X70481506Y-70864130D01*
X70475328Y-70891201D01*
X70425388Y-71033921D01*
X70413340Y-71058938D01*
X70332897Y-71186963D01*
X70315584Y-71208672D01*
X70208672Y-71315584D01*
X70186963Y-71332897D01*
X70058938Y-71413340D01*
X70033921Y-71425388D01*
X69891201Y-71475328D01*
X69864130Y-71481506D01*
X69711369Y-71498719D01*
X69697485Y-71499499D01*
X63690105Y-71499499D01*
X63587126Y-71498801D01*
X63579670Y-71499960D01*
X63570346Y-71499999D01*
X63570240Y-71499968D01*
X63569831Y-71500000D01*
X62336926Y-71500000D01*
X62269887Y-71480315D01*
X62226441Y-71432295D01*
X62175795Y-71332897D01*
X62155051Y-71292184D01*
X62155049Y-71292181D01*
X62155048Y-71292179D01*
X62030109Y-71120213D01*
X61879786Y-70969890D01*
X61707820Y-70844951D01*
X61518414Y-70748444D01*
X61518413Y-70748443D01*
X61518412Y-70748443D01*
X61316243Y-70682754D01*
X61316241Y-70682753D01*
X61316240Y-70682753D01*
X61154957Y-70657208D01*
X61106287Y-70649500D01*
X60893713Y-70649500D01*
X60845042Y-70657208D01*
X60683760Y-70682753D01*
X60481585Y-70748444D01*
X60292179Y-70844951D01*
X60120213Y-70969890D01*
X59969890Y-71120213D01*
X59844951Y-71292179D01*
X59773559Y-71432295D01*
X59725584Y-71483091D01*
X59663074Y-71500000D01*
X58432903Y-71500000D01*
X58432369Y-71499999D01*
X58424247Y-71499964D01*
X58421053Y-71499448D01*
X58316700Y-71499499D01*
X52302515Y-71499499D01*
X52288631Y-71498719D01*
X52135869Y-71481506D01*
X52108798Y-71475328D01*
X51966078Y-71425388D01*
X51941061Y-71413340D01*
X51813036Y-71332897D01*
X51791327Y-71315584D01*
X51684415Y-71208672D01*
X51667102Y-71186963D01*
X51625160Y-71120213D01*
X51586659Y-71058938D01*
X51574611Y-71033921D01*
X51524671Y-70891201D01*
X51518493Y-70864129D01*
X51501280Y-70711358D01*
X51500500Y-70697475D01*
X51500500Y-62598543D01*
X63499499Y-62598543D01*
X63537947Y-62791829D01*
X63537950Y-62791839D01*
X63613364Y-62973907D01*
X63613371Y-62973920D01*
X63722860Y-63137781D01*
X63722863Y-63137785D01*
X63862214Y-63277136D01*
X63862218Y-63277139D01*
X64026079Y-63386628D01*
X64026092Y-63386635D01*
X64208160Y-63462049D01*
X64208165Y-63462051D01*
X64208169Y-63462051D01*
X64208170Y-63462052D01*
X64401456Y-63500500D01*
X64401459Y-63500500D01*
X64598541Y-63500500D01*
X75534218Y-63500500D01*
X75601257Y-63520185D01*
X75621899Y-63536819D01*
X77219735Y-65134655D01*
X77219764Y-65134686D01*
X77362214Y-65277136D01*
X77362218Y-65277139D01*
X77526079Y-65386628D01*
X77526092Y-65386635D01*
X77654833Y-65439961D01*
X77697744Y-65457735D01*
X77708164Y-65462051D01*
X77804812Y-65481275D01*
X77853135Y-65490887D01*
X77901458Y-65500500D01*
X77901459Y-65500500D01*
X81098542Y-65500500D01*
X81129566Y-65494328D01*
X81195188Y-65481275D01*
X81291836Y-65462051D01*
X81345165Y-65439961D01*
X81473914Y-65386632D01*
X81637782Y-65277139D01*
X81777139Y-65137782D01*
X81777140Y-65137779D01*
X81784206Y-65130714D01*
X81784208Y-65130710D01*
X83878101Y-63036819D01*
X83939424Y-63003334D01*
X83965782Y-63000500D01*
X86098543Y-63000500D01*
X86232196Y-62973914D01*
X86291835Y-62962051D01*
X86473914Y-62886632D01*
X86637782Y-62777139D01*
X86777139Y-62637782D01*
X86886632Y-62473914D01*
X86962051Y-62291835D01*
X86974632Y-62228582D01*
X87000500Y-62098543D01*
X87000500Y-61901456D01*
X86962052Y-61708170D01*
X86962051Y-61708169D01*
X86962051Y-61708165D01*
X86951941Y-61683757D01*
X86886635Y-61526092D01*
X86886628Y-61526079D01*
X86777139Y-61362218D01*
X86777136Y-61362214D01*
X86637785Y-61222863D01*
X86637781Y-61222860D01*
X86473920Y-61113371D01*
X86473907Y-61113364D01*
X86291839Y-61037950D01*
X86291829Y-61037947D01*
X86098543Y-60999500D01*
X86098541Y-60999500D01*
X85098541Y-60999500D01*
X83401459Y-60999500D01*
X83401455Y-60999500D01*
X83304812Y-61018724D01*
X83208167Y-61037947D01*
X83208161Y-61037949D01*
X83154834Y-61060037D01*
X83154834Y-61060038D01*
X83109315Y-61078892D01*
X83026089Y-61113366D01*
X83026079Y-61113371D01*
X82862219Y-61222859D01*
X82792900Y-61292179D01*
X82722861Y-61362218D01*
X82722858Y-61362221D01*
X80621899Y-63463181D01*
X80560576Y-63496666D01*
X80534218Y-63499500D01*
X78465782Y-63499500D01*
X78398743Y-63479815D01*
X78378101Y-63463181D01*
X76781479Y-61866559D01*
X76781459Y-61866537D01*
X76637785Y-61722863D01*
X76637781Y-61722860D01*
X76473920Y-61613371D01*
X76473911Y-61613366D01*
X76401315Y-61583296D01*
X76345165Y-61560038D01*
X76291836Y-61537949D01*
X76291832Y-61537948D01*
X76291828Y-61537946D01*
X76195188Y-61518724D01*
X76098544Y-61499500D01*
X76098541Y-61499500D01*
X65624500Y-61499500D01*
X65557461Y-61479815D01*
X65511706Y-61427011D01*
X65500500Y-61375500D01*
X65500500Y-54401456D01*
X65462052Y-54208170D01*
X65462051Y-54208169D01*
X65462051Y-54208165D01*
X65462049Y-54208160D01*
X65386635Y-54026092D01*
X65386628Y-54026079D01*
X65277139Y-53862218D01*
X65277136Y-53862214D01*
X65137785Y-53722863D01*
X65137781Y-53722860D01*
X64973920Y-53613371D01*
X64973907Y-53613364D01*
X64791839Y-53537950D01*
X64791829Y-53537947D01*
X64598543Y-53499500D01*
X64598541Y-53499500D01*
X64401459Y-53499500D01*
X64401457Y-53499500D01*
X64208170Y-53537947D01*
X64208160Y-53537950D01*
X64026092Y-53613364D01*
X64026079Y-53613371D01*
X63862218Y-53722860D01*
X63862214Y-53722863D01*
X63722863Y-53862214D01*
X63722860Y-53862218D01*
X63613371Y-54026079D01*
X63613364Y-54026092D01*
X63537950Y-54208160D01*
X63537947Y-54208170D01*
X63499500Y-54401456D01*
X63499500Y-54401459D01*
X63499500Y-61401459D01*
X63499500Y-62598541D01*
X63499500Y-62598543D01*
X63499499Y-62598543D01*
X51500500Y-62598543D01*
X51500500Y-53302523D01*
X51501280Y-53288639D01*
X51518493Y-53135865D01*
X51524669Y-53108803D01*
X51574612Y-52966075D01*
X51586657Y-52941064D01*
X51667106Y-52813030D01*
X51684411Y-52791331D01*
X51791331Y-52684411D01*
X51813030Y-52667106D01*
X51941064Y-52586657D01*
X51966075Y-52574612D01*
X52108803Y-52524669D01*
X52135865Y-52518493D01*
X52288649Y-52501278D01*
X52302532Y-52500499D01*
X58250848Y-52500499D01*
X58316740Y-52500499D01*
X58316740Y-52500500D01*
X58421092Y-52500551D01*
X58424284Y-52500035D01*
X58432408Y-52500001D01*
X58432468Y-52500018D01*
X58432932Y-52500000D01*
X59663074Y-52500000D01*
X59730113Y-52519685D01*
G37*
%TD.AperFunction*%
%TD*%
%TA.AperFunction,Conductor*%
%TO.N,GND*%
G36*
X8730113Y-78519685D02*
G01*
X8773559Y-78567705D01*
X8844951Y-78707820D01*
X8969890Y-78879786D01*
X9120213Y-79030109D01*
X9292179Y-79155048D01*
X9292181Y-79155049D01*
X9292184Y-79155051D01*
X9481588Y-79251557D01*
X9683757Y-79317246D01*
X9893713Y-79350500D01*
X9893714Y-79350500D01*
X10106286Y-79350500D01*
X10106287Y-79350500D01*
X10316243Y-79317246D01*
X10518412Y-79251557D01*
X10707816Y-79155051D01*
X10734223Y-79135865D01*
X10879786Y-79030109D01*
X10879788Y-79030106D01*
X10879792Y-79030104D01*
X11030104Y-78879792D01*
X11030106Y-78879788D01*
X11030109Y-78879786D01*
X11155048Y-78707820D01*
X11155047Y-78707820D01*
X11155051Y-78707816D01*
X11226441Y-78567704D01*
X11274416Y-78516909D01*
X11336926Y-78500000D01*
X12567119Y-78500000D01*
X12567651Y-78500001D01*
X12575763Y-78500035D01*
X12578947Y-78500550D01*
X12683300Y-78500499D01*
X12749192Y-78500499D01*
X18697468Y-78500499D01*
X18711350Y-78501278D01*
X18864132Y-78518493D01*
X18891198Y-78524670D01*
X19014185Y-78567705D01*
X19033921Y-78574611D01*
X19058938Y-78586659D01*
X19186965Y-78667103D01*
X19208672Y-78684415D01*
X19315584Y-78791327D01*
X19332897Y-78813036D01*
X19413340Y-78941061D01*
X19425388Y-78966078D01*
X19475328Y-79108798D01*
X19481506Y-79135869D01*
X19498720Y-79288639D01*
X19499500Y-79302523D01*
X19499500Y-82275004D01*
X19499501Y-82275079D01*
X19499501Y-82302350D01*
X19499895Y-82304839D01*
X19499989Y-82311916D01*
X19499941Y-82312084D01*
X19500000Y-82313559D01*
X19500000Y-83500000D01*
X20686433Y-83500000D01*
X20696156Y-83500382D01*
X20697643Y-83500499D01*
X20697648Y-83500499D01*
X20734108Y-83500499D01*
X38697468Y-83500499D01*
X38711350Y-83501278D01*
X38864132Y-83518493D01*
X38891198Y-83524670D01*
X39033921Y-83574611D01*
X39058938Y-83586659D01*
X39186965Y-83667103D01*
X39208672Y-83684415D01*
X39315584Y-83791327D01*
X39332897Y-83813036D01*
X39413340Y-83941061D01*
X39425388Y-83966078D01*
X39475328Y-84108798D01*
X39481506Y-84135869D01*
X39498720Y-84288639D01*
X39499500Y-84302523D01*
X39499500Y-85309892D01*
X39498802Y-85412872D01*
X39499960Y-85420321D01*
X39499999Y-85429645D01*
X39499968Y-85429750D01*
X39500000Y-85430159D01*
X39500000Y-86663074D01*
X39480315Y-86730113D01*
X39432295Y-86773559D01*
X39292179Y-86844951D01*
X39120213Y-86969890D01*
X38969890Y-87120213D01*
X38844951Y-87292179D01*
X38748444Y-87481585D01*
X38682753Y-87683760D01*
X38649500Y-87893713D01*
X38649500Y-88106286D01*
X38678888Y-88291839D01*
X38682754Y-88316243D01*
X38733982Y-88473907D01*
X38748444Y-88518414D01*
X38844951Y-88707820D01*
X38969890Y-88879786D01*
X39120213Y-89030109D01*
X39292182Y-89155050D01*
X39292184Y-89155051D01*
X39432295Y-89226441D01*
X39483090Y-89274414D01*
X39500000Y-89336925D01*
X39500000Y-90567109D01*
X39499999Y-90567642D01*
X39499964Y-90575756D01*
X39499449Y-90578946D01*
X39499500Y-90683298D01*
X39499500Y-90683659D01*
X39499500Y-91697475D01*
X39498720Y-91711359D01*
X39481506Y-91864130D01*
X39475328Y-91891201D01*
X39425388Y-92033921D01*
X39413340Y-92058938D01*
X39332897Y-92186963D01*
X39315584Y-92208672D01*
X39208672Y-92315584D01*
X39186963Y-92332897D01*
X39058938Y-92413340D01*
X39033921Y-92425388D01*
X38891201Y-92475328D01*
X38864130Y-92481506D01*
X38711369Y-92498719D01*
X38697485Y-92499499D01*
X20727322Y-92499499D01*
X20727242Y-92499500D01*
X20697649Y-92499500D01*
X20695118Y-92499900D01*
X20687967Y-92499990D01*
X20687808Y-92499945D01*
X20686420Y-92500000D01*
X19500000Y-92500000D01*
X19500000Y-93686430D01*
X19499618Y-93696155D01*
X19499500Y-93697643D01*
X19499500Y-96697475D01*
X19498720Y-96711358D01*
X19498720Y-96711359D01*
X19481506Y-96864130D01*
X19475328Y-96891201D01*
X19425388Y-97033921D01*
X19413340Y-97058938D01*
X19332897Y-97186963D01*
X19315584Y-97208672D01*
X19208672Y-97315584D01*
X19186963Y-97332897D01*
X19058938Y-97413340D01*
X19033921Y-97425388D01*
X18891201Y-97475328D01*
X18864130Y-97481506D01*
X18711369Y-97498719D01*
X18697485Y-97499499D01*
X12690105Y-97499499D01*
X12587126Y-97498801D01*
X12579670Y-97499960D01*
X12570346Y-97499999D01*
X12570240Y-97499968D01*
X12569831Y-97500000D01*
X11336926Y-97500000D01*
X11269887Y-97480315D01*
X11226441Y-97432295D01*
X11175795Y-97332897D01*
X11155051Y-97292184D01*
X11155049Y-97292181D01*
X11155048Y-97292179D01*
X11030109Y-97120213D01*
X10879786Y-96969890D01*
X10707820Y-96844951D01*
X10518414Y-96748444D01*
X10518413Y-96748443D01*
X10518412Y-96748443D01*
X10316243Y-96682754D01*
X10316241Y-96682753D01*
X10316240Y-96682753D01*
X10154957Y-96657208D01*
X10106287Y-96649500D01*
X9893713Y-96649500D01*
X9845042Y-96657208D01*
X9683760Y-96682753D01*
X9481585Y-96748444D01*
X9292179Y-96844951D01*
X9120213Y-96969890D01*
X8969890Y-97120213D01*
X8844951Y-97292179D01*
X8773559Y-97432295D01*
X8725584Y-97483091D01*
X8663074Y-97500000D01*
X7432903Y-97500000D01*
X7432369Y-97499999D01*
X7424247Y-97499964D01*
X7421053Y-97499448D01*
X7316700Y-97499499D01*
X1302515Y-97499499D01*
X1288631Y-97498719D01*
X1135869Y-97481506D01*
X1108798Y-97475328D01*
X966078Y-97425388D01*
X941061Y-97413340D01*
X813036Y-97332897D01*
X791327Y-97315584D01*
X684415Y-97208672D01*
X667102Y-97186963D01*
X625160Y-97120213D01*
X586659Y-97058938D01*
X574611Y-97033921D01*
X524671Y-96891201D01*
X518493Y-96864129D01*
X501280Y-96711358D01*
X500500Y-96697475D01*
X500500Y-88598543D01*
X12499499Y-88598543D01*
X12537947Y-88791829D01*
X12537950Y-88791839D01*
X12613364Y-88973907D01*
X12613371Y-88973920D01*
X12722860Y-89137781D01*
X12722863Y-89137785D01*
X12862214Y-89277136D01*
X12862218Y-89277139D01*
X13026079Y-89386628D01*
X13026092Y-89386635D01*
X13208160Y-89462049D01*
X13208165Y-89462051D01*
X13208169Y-89462051D01*
X13208170Y-89462052D01*
X13401456Y-89500500D01*
X13401459Y-89500500D01*
X13598541Y-89500500D01*
X24534218Y-89500500D01*
X24601257Y-89520185D01*
X24621899Y-89536819D01*
X26219735Y-91134655D01*
X26219764Y-91134686D01*
X26362214Y-91277136D01*
X26362218Y-91277139D01*
X26526079Y-91386628D01*
X26526092Y-91386635D01*
X26654833Y-91439961D01*
X26697744Y-91457735D01*
X26708164Y-91462051D01*
X26804812Y-91481275D01*
X26853135Y-91490887D01*
X26901458Y-91500500D01*
X26901459Y-91500500D01*
X30098542Y-91500500D01*
X30129566Y-91494328D01*
X30195188Y-91481275D01*
X30291836Y-91462051D01*
X30345165Y-91439961D01*
X30473914Y-91386632D01*
X30637782Y-91277139D01*
X30777139Y-91137782D01*
X30777140Y-91137779D01*
X30784206Y-91130714D01*
X30784208Y-91130710D01*
X32878101Y-89036819D01*
X32939424Y-89003334D01*
X32965782Y-89000500D01*
X35098543Y-89000500D01*
X35232196Y-88973914D01*
X35291835Y-88962051D01*
X35473914Y-88886632D01*
X35637782Y-88777139D01*
X35777139Y-88637782D01*
X35886632Y-88473914D01*
X35962051Y-88291835D01*
X35974632Y-88228582D01*
X36000500Y-88098543D01*
X36000500Y-87901456D01*
X35962052Y-87708170D01*
X35962051Y-87708169D01*
X35962051Y-87708165D01*
X35951941Y-87683757D01*
X35886635Y-87526092D01*
X35886628Y-87526079D01*
X35777139Y-87362218D01*
X35777136Y-87362214D01*
X35637785Y-87222863D01*
X35637781Y-87222860D01*
X35473920Y-87113371D01*
X35473907Y-87113364D01*
X35291839Y-87037950D01*
X35291829Y-87037947D01*
X35098543Y-86999500D01*
X35098541Y-86999500D01*
X34098541Y-86999500D01*
X32401459Y-86999500D01*
X32401455Y-86999500D01*
X32304812Y-87018724D01*
X32208167Y-87037947D01*
X32208161Y-87037949D01*
X32154834Y-87060037D01*
X32154834Y-87060038D01*
X32109315Y-87078892D01*
X32026089Y-87113366D01*
X32026079Y-87113371D01*
X31862219Y-87222859D01*
X31792900Y-87292179D01*
X31722861Y-87362218D01*
X31722858Y-87362221D01*
X29621899Y-89463181D01*
X29560576Y-89496666D01*
X29534218Y-89499500D01*
X27465782Y-89499500D01*
X27398743Y-89479815D01*
X27378101Y-89463181D01*
X25781479Y-87866559D01*
X25781459Y-87866537D01*
X25637785Y-87722863D01*
X25637781Y-87722860D01*
X25473920Y-87613371D01*
X25473911Y-87613366D01*
X25401315Y-87583296D01*
X25345165Y-87560038D01*
X25291836Y-87537949D01*
X25291832Y-87537948D01*
X25291828Y-87537946D01*
X25195188Y-87518724D01*
X25098544Y-87499500D01*
X25098541Y-87499500D01*
X14624500Y-87499500D01*
X14557461Y-87479815D01*
X14511706Y-87427011D01*
X14500500Y-87375500D01*
X14500500Y-80401456D01*
X14462052Y-80208170D01*
X14462051Y-80208169D01*
X14462051Y-80208165D01*
X14462049Y-80208160D01*
X14386635Y-80026092D01*
X14386628Y-80026079D01*
X14277139Y-79862218D01*
X14277136Y-79862214D01*
X14137785Y-79722863D01*
X14137781Y-79722860D01*
X13973920Y-79613371D01*
X13973907Y-79613364D01*
X13791839Y-79537950D01*
X13791829Y-79537947D01*
X13598543Y-79499500D01*
X13598541Y-79499500D01*
X13401459Y-79499500D01*
X13401457Y-79499500D01*
X13208170Y-79537947D01*
X13208160Y-79537950D01*
X13026092Y-79613364D01*
X13026079Y-79613371D01*
X12862218Y-79722860D01*
X12862214Y-79722863D01*
X12722863Y-79862214D01*
X12722860Y-79862218D01*
X12613371Y-80026079D01*
X12613364Y-80026092D01*
X12537950Y-80208160D01*
X12537947Y-80208170D01*
X12499500Y-80401456D01*
X12499500Y-80401459D01*
X12499500Y-87401459D01*
X12499500Y-88598541D01*
X12499500Y-88598543D01*
X12499499Y-88598543D01*
X500500Y-88598543D01*
X500500Y-79302523D01*
X501280Y-79288639D01*
X518493Y-79135865D01*
X524669Y-79108803D01*
X574612Y-78966075D01*
X586657Y-78941064D01*
X667106Y-78813030D01*
X684411Y-78791331D01*
X791331Y-78684411D01*
X813030Y-78667106D01*
X941064Y-78586657D01*
X966075Y-78574612D01*
X1108803Y-78524669D01*
X1135865Y-78518493D01*
X1288649Y-78501278D01*
X1302532Y-78500499D01*
X7250848Y-78500499D01*
X7316740Y-78500499D01*
X7316740Y-78500500D01*
X7421092Y-78500551D01*
X7424284Y-78500035D01*
X7432408Y-78500001D01*
X7432468Y-78500018D01*
X7432932Y-78500000D01*
X8663074Y-78500000D01*
X8730113Y-78519685D01*
G37*
%TD.AperFunction*%
%TD*%
M02*
