M48
; DRILL file {KiCad 9.0.3} date 2025-08-08T18:23:52+0200
; FORMAT={-:-/ absolute / metric / decimal}
; #@! TF.CreationDate,2025-08-08T18:23:52+02:00
; #@! TF.GenerationSoftware,Kicad,Pcbnew,9.0.3
; #@! TF.FileFunction,Plated,1,2,PTH
FMAT,2
METRIC
; #@! TA.AperFunction,Plated,PTH,ViaDrill
T1C0.300
%
G90
G05
T1
X3.0Y-7.5
X3.0Y-9.0
X3.0Y-10.5
X3.0Y-12.0
X3.0Y-33.5
X3.0Y-35.0
X3.0Y-36.5
X3.0Y-38.0
X3.0Y-59.5
X3.0Y-61.0
X3.0Y-62.5
X3.0Y-64.0
X3.0Y-85.5
X3.0Y-87.0
X3.0Y-88.5
X3.0Y-90.0
X4.5Y-7.5
X4.5Y-9.0
X4.5Y-10.5
X4.5Y-12.0
X4.5Y-33.5
X4.5Y-35.0
X4.5Y-36.5
X4.5Y-38.0
X4.5Y-59.5
X4.5Y-61.0
X4.5Y-62.5
X4.5Y-64.0
X4.5Y-85.5
X4.5Y-87.0
X4.5Y-88.5
X4.5Y-90.0
X7.0Y-16.0
X7.0Y-42.0
X7.0Y-68.0
X7.0Y-94.0
X8.0Y-10.0
X8.0Y-36.0
X8.0Y-62.0
X8.0Y-88.0
X9.0Y-4.5
X9.0Y-30.5
X9.0Y-56.5
X9.0Y-82.5
X11.0Y-14.5
X11.0Y-40.5
X11.0Y-66.5
X11.0Y-92.5
X11.5Y-4.5
X11.5Y-30.5
X11.5Y-56.5
X11.5Y-82.5
X12.0Y-14.5
X12.0Y-40.5
X12.0Y-66.5
X12.0Y-92.5
X13.5Y-2.5
X13.5Y-3.5
X13.5Y-9.5
X13.5Y-10.5
X13.5Y-28.5
X13.5Y-29.5
X13.5Y-35.5
X13.5Y-36.5
X13.5Y-54.5
X13.5Y-55.5
X13.5Y-61.5
X13.5Y-62.5
X13.5Y-80.5
X13.5Y-81.5
X13.5Y-87.5
X13.5Y-88.5
X15.0Y-8.0
X15.0Y-34.0
X15.0Y-60.0
X15.0Y-86.0
X17.0Y-8.0
X17.0Y-34.0
X17.0Y-60.0
X17.0Y-86.0
X17.9Y-3.6
X17.9Y-29.6
X17.9Y-55.6
X17.9Y-81.6
X20.0Y-8.0
X20.0Y-34.0
X20.0Y-60.0
X20.0Y-86.0
X21.0Y-14.0
X21.0Y-40.0
X21.0Y-66.0
X21.0Y-92.0
X21.5Y-9.0
X21.5Y-35.0
X21.5Y-61.0
X21.5Y-87.0
X22.0Y-14.0
X22.0Y-40.0
X22.0Y-66.0
X22.0Y-92.0
X23.5Y-9.0
X23.5Y-35.0
X23.5Y-61.0
X23.5Y-87.0
X26.5Y-7.5
X26.5Y-33.5
X26.5Y-59.5
X26.5Y-85.5
X27.0Y-12.5
X27.0Y-14.0
X27.0Y-38.5
X27.0Y-40.0
X27.0Y-64.5
X27.0Y-66.0
X27.0Y-90.5
X27.0Y-92.0
X28.0Y-7.5
X28.0Y-33.5
X28.0Y-59.5
X28.0Y-85.5
X29.0Y-12.5
X29.0Y-14.0
X29.0Y-38.5
X29.0Y-40.0
X29.0Y-64.5
X29.0Y-66.0
X29.0Y-90.5
X29.0Y-92.0
X30.8Y-9.7
X30.8Y-35.7
X30.8Y-61.7
X30.8Y-87.7
X34.0Y-10.0
X34.0Y-36.0
X34.0Y-62.0
X34.0Y-88.0
X35.0Y-10.0
X35.0Y-36.0
X35.0Y-62.0
X35.0Y-88.0
X38.0Y-7.0
X38.0Y-10.0
X38.0Y-13.0
X38.0Y-33.0
X38.0Y-36.0
X38.0Y-39.0
X38.0Y-59.0
X38.0Y-62.0
X38.0Y-65.0
X38.0Y-85.0
X38.0Y-88.0
X38.0Y-91.0
X54.0Y-7.5
X54.0Y-9.0
X54.0Y-10.5
X54.0Y-12.0
X54.0Y-33.5
X54.0Y-35.0
X54.0Y-36.5
X54.0Y-38.0
X54.0Y-59.5
X54.0Y-61.0
X54.0Y-62.5
X54.0Y-64.0
X54.0Y-85.5
X54.0Y-87.0
X54.0Y-88.5
X54.0Y-90.0
X55.5Y-7.5
X55.5Y-9.0
X55.5Y-10.5
X55.5Y-12.0
X55.5Y-33.5
X55.5Y-35.0
X55.5Y-36.5
X55.5Y-38.0
X55.5Y-59.5
X55.5Y-61.0
X55.5Y-62.5
X55.5Y-64.0
X55.5Y-85.5
X55.5Y-87.0
X55.5Y-88.5
X55.5Y-90.0
X58.0Y-16.0
X58.0Y-42.0
X58.0Y-68.0
X58.0Y-94.0
X59.0Y-10.0
X59.0Y-36.0
X59.0Y-62.0
X59.0Y-88.0
X60.0Y-4.5
X60.0Y-30.5
X60.0Y-56.5
X60.0Y-82.5
X62.0Y-14.5
X62.0Y-40.5
X62.0Y-66.5
X62.0Y-92.5
X62.5Y-4.5
X62.5Y-30.5
X62.5Y-56.5
X62.5Y-82.5
X63.0Y-14.5
X63.0Y-40.5
X63.0Y-66.5
X63.0Y-92.5
X64.5Y-2.5
X64.5Y-3.5
X64.5Y-9.5
X64.5Y-10.5
X64.5Y-28.5
X64.5Y-29.5
X64.5Y-35.5
X64.5Y-36.5
X64.5Y-54.5
X64.5Y-55.5
X64.5Y-61.5
X64.5Y-62.5
X64.5Y-80.5
X64.5Y-81.5
X64.5Y-87.5
X64.5Y-88.5
X66.0Y-8.0
X66.0Y-34.0
X66.0Y-60.0
X66.0Y-86.0
X68.0Y-8.0
X68.0Y-34.0
X68.0Y-60.0
X68.0Y-86.0
X68.9Y-3.6
X68.9Y-29.6
X68.9Y-55.6
X68.9Y-81.6
X71.0Y-8.0
X71.0Y-34.0
X71.0Y-60.0
X71.0Y-86.0
X72.0Y-14.0
X72.0Y-40.0
X72.0Y-66.0
X72.0Y-92.0
X72.5Y-9.0
X72.5Y-35.0
X72.5Y-61.0
X72.5Y-87.0
X73.0Y-14.0
X73.0Y-40.0
X73.0Y-66.0
X73.0Y-92.0
X74.5Y-9.0
X74.5Y-35.0
X74.5Y-61.0
X74.5Y-87.0
X77.5Y-7.5
X77.5Y-33.5
X77.5Y-59.5
X77.5Y-85.5
X78.0Y-12.5
X78.0Y-14.0
X78.0Y-38.5
X78.0Y-40.0
X78.0Y-64.5
X78.0Y-66.0
X78.0Y-90.5
X78.0Y-92.0
X79.0Y-7.5
X79.0Y-33.5
X79.0Y-59.5
X79.0Y-85.5
X80.0Y-12.5
X80.0Y-14.0
X80.0Y-38.5
X80.0Y-40.0
X80.0Y-64.5
X80.0Y-66.0
X80.0Y-90.5
X80.0Y-92.0
X81.8Y-9.7
X81.8Y-35.7
X81.8Y-61.7
X81.8Y-87.7
X85.0Y-10.0
X85.0Y-36.0
X85.0Y-62.0
X85.0Y-88.0
X86.0Y-10.0
X86.0Y-36.0
X86.0Y-62.0
X86.0Y-88.0
X89.0Y-7.0
X89.0Y-10.0
X89.0Y-13.0
X89.0Y-33.0
X89.0Y-36.0
X89.0Y-39.0
X89.0Y-59.0
X89.0Y-62.0
X89.0Y-65.0
X89.0Y-85.0
X89.0Y-88.0
X89.0Y-91.0
M30
