%TF.GenerationSoftware,KiCad,Pcbnew,9.0.3*%
%TF.CreationDate,2025-08-08T18:23:31+02:00*%
%TF.ProjectId,iagabel-panel,69616761-6265-46c2-9d70-616e656c2e6b,rev?*%
%TF.SameCoordinates,Original*%
%TF.FileFunction,Soldermask,Bot*%
%TF.FilePolarity,Negative*%
%FSLAX46Y46*%
G04 Gerber Fmt 4.6, Leading zero omitted, Abs format (unit mm)*
G04 Created by KiCad (PCBNEW 9.0.3) date 2025-08-08 18:23:31*
%MOMM*%
%LPD*%
G01*
G04 APERTURE LIST*
%ADD10C,2.200000*%
%ADD11C,0.600000*%
G04 APERTURE END LIST*
D10*
%TO.C,H1*%
X10000000Y-78000000D03*
%TD*%
%TO.C,H3*%
X10000000Y-98000000D03*
%TD*%
%TO.C,H2*%
X40000000Y-88000000D03*
%TD*%
D11*
%TO.C,REF\u002A\u002A3*%
X25100000Y-93200000D03*
%TD*%
%TO.C,REF\u002A\u002A3*%
X25100000Y-82800000D03*
%TD*%
%TO.C,REF\u002A\u002A2*%
X24100000Y-93200000D03*
%TD*%
%TO.C,REF\u002A\u002A7*%
X-200000Y-88000000D03*
%TD*%
%TO.C,REF\u002A\u002A1*%
X23100000Y-93200000D03*
%TD*%
%TO.C,REF\u002A\u002A4*%
X26100000Y-93200000D03*
%TD*%
%TO.C,REF\u002A\u002A11*%
X46400000Y-82800000D03*
%TD*%
%TO.C,REF\u002A\u002A5*%
X-200000Y-86000000D03*
%TD*%
%TO.C,REF\u002A\u002A*%
X28100000Y-93200000D03*
%TD*%
%TO.C,REF\u002A\u002A2*%
X24100000Y-82800000D03*
%TD*%
%TO.C,REF\u002A\u002A5*%
X48500000Y-93200000D03*
%TD*%
%TO.C,REF\u002A\u002A1*%
X23100000Y-82800000D03*
%TD*%
%TO.C,REF\u002A\u002A9*%
X44400000Y-82800000D03*
%TD*%
%TO.C,REF\u002A\u002A11*%
X46500000Y-93200000D03*
%TD*%
%TO.C,REF\u002A\u002A*%
X27100000Y-93200000D03*
%TD*%
%TO.C,REF\u002A\u002A4*%
X26100000Y-82800000D03*
%TD*%
%TO.C,REF\u002A\u002A*%
X28100000Y-82800000D03*
%TD*%
%TO.C,REF\u002A\u002A8*%
X-200000Y-89000000D03*
%TD*%
%TO.C,REF\u002A\u002A*%
X27100000Y-82800000D03*
%TD*%
%TO.C,REF\u002A\u002A10*%
X45500000Y-93200000D03*
%TD*%
%TO.C,REF\u002A\u002A*%
X-200000Y-90000000D03*
%TD*%
%TO.C,REF\u002A\u002A10*%
X45400000Y-82800000D03*
%TD*%
%TO.C,REF\u002A\u002A6*%
X-200000Y-87000000D03*
%TD*%
%TO.C,REF\u002A\u002A5*%
X48400000Y-82800000D03*
%TD*%
%TO.C,REF\u002A\u002A12*%
X47500000Y-93200000D03*
%TD*%
%TO.C,REF\u002A\u002A12*%
X47400000Y-82800000D03*
%TD*%
%TO.C,REF\u002A\u002A9*%
X44500000Y-93200000D03*
%TD*%
D10*
%TO.C,H2*%
X91000000Y-62000000D03*
%TD*%
%TO.C,H1*%
X61000000Y-52000000D03*
%TD*%
%TO.C,H3*%
X61000000Y-72000000D03*
%TD*%
D11*
%TO.C,REF\u002A\u002A3*%
X76100000Y-67200000D03*
%TD*%
%TO.C,REF\u002A\u002A3*%
X76100000Y-56800000D03*
%TD*%
%TO.C,REF\u002A\u002A2*%
X75100000Y-67200000D03*
%TD*%
%TO.C,REF\u002A\u002A7*%
X50800000Y-62000000D03*
%TD*%
%TO.C,REF\u002A\u002A1*%
X74100000Y-67200000D03*
%TD*%
%TO.C,REF\u002A\u002A4*%
X77100000Y-67200000D03*
%TD*%
%TO.C,REF\u002A\u002A11*%
X97400000Y-56800000D03*
%TD*%
%TO.C,REF\u002A\u002A5*%
X50800000Y-60000000D03*
%TD*%
%TO.C,REF\u002A\u002A*%
X79100000Y-67200000D03*
%TD*%
%TO.C,REF\u002A\u002A2*%
X75100000Y-56800000D03*
%TD*%
%TO.C,REF\u002A\u002A5*%
X99500000Y-67200000D03*
%TD*%
%TO.C,REF\u002A\u002A1*%
X74100000Y-56800000D03*
%TD*%
%TO.C,REF\u002A\u002A9*%
X95400000Y-56800000D03*
%TD*%
%TO.C,REF\u002A\u002A11*%
X97500000Y-67200000D03*
%TD*%
%TO.C,REF\u002A\u002A*%
X78100000Y-67200000D03*
%TD*%
%TO.C,REF\u002A\u002A4*%
X77100000Y-56800000D03*
%TD*%
%TO.C,REF\u002A\u002A*%
X79100000Y-56800000D03*
%TD*%
%TO.C,REF\u002A\u002A8*%
X50800000Y-63000000D03*
%TD*%
%TO.C,REF\u002A\u002A*%
X78100000Y-56800000D03*
%TD*%
%TO.C,REF\u002A\u002A10*%
X96500000Y-67200000D03*
%TD*%
%TO.C,REF\u002A\u002A*%
X50800000Y-64000000D03*
%TD*%
%TO.C,REF\u002A\u002A10*%
X96400000Y-56800000D03*
%TD*%
%TO.C,REF\u002A\u002A6*%
X50800000Y-61000000D03*
%TD*%
%TO.C,REF\u002A\u002A5*%
X99400000Y-56800000D03*
%TD*%
%TO.C,REF\u002A\u002A12*%
X98500000Y-67200000D03*
%TD*%
%TO.C,REF\u002A\u002A12*%
X98400000Y-56800000D03*
%TD*%
%TO.C,REF\u002A\u002A9*%
X95500000Y-67200000D03*
%TD*%
D10*
%TO.C,H1*%
X10000000Y-52000000D03*
%TD*%
%TO.C,H2*%
X40000000Y-62000000D03*
%TD*%
%TO.C,H3*%
X10000000Y-72000000D03*
%TD*%
D11*
%TO.C,REF\u002A\u002A3*%
X25100000Y-67200000D03*
%TD*%
%TO.C,REF\u002A\u002A3*%
X25100000Y-56800000D03*
%TD*%
%TO.C,REF\u002A\u002A2*%
X24100000Y-67200000D03*
%TD*%
%TO.C,REF\u002A\u002A7*%
X-200000Y-62000000D03*
%TD*%
%TO.C,REF\u002A\u002A1*%
X23100000Y-67200000D03*
%TD*%
%TO.C,REF\u002A\u002A4*%
X26100000Y-67200000D03*
%TD*%
%TO.C,REF\u002A\u002A11*%
X46400000Y-56800000D03*
%TD*%
%TO.C,REF\u002A\u002A5*%
X-200000Y-60000000D03*
%TD*%
%TO.C,REF\u002A\u002A*%
X28100000Y-67200000D03*
%TD*%
%TO.C,REF\u002A\u002A2*%
X24100000Y-56800000D03*
%TD*%
%TO.C,REF\u002A\u002A5*%
X48500000Y-67200000D03*
%TD*%
%TO.C,REF\u002A\u002A1*%
X23100000Y-56800000D03*
%TD*%
%TO.C,REF\u002A\u002A9*%
X44400000Y-56800000D03*
%TD*%
%TO.C,REF\u002A\u002A11*%
X46500000Y-67200000D03*
%TD*%
%TO.C,REF\u002A\u002A*%
X27100000Y-67200000D03*
%TD*%
%TO.C,REF\u002A\u002A4*%
X26100000Y-56800000D03*
%TD*%
%TO.C,REF\u002A\u002A*%
X28100000Y-56800000D03*
%TD*%
%TO.C,REF\u002A\u002A8*%
X-200000Y-63000000D03*
%TD*%
%TO.C,REF\u002A\u002A*%
X27100000Y-56800000D03*
%TD*%
%TO.C,REF\u002A\u002A10*%
X45500000Y-67200000D03*
%TD*%
%TO.C,REF\u002A\u002A*%
X-200000Y-64000000D03*
%TD*%
%TO.C,REF\u002A\u002A10*%
X45400000Y-56800000D03*
%TD*%
%TO.C,REF\u002A\u002A6*%
X-200000Y-61000000D03*
%TD*%
%TO.C,REF\u002A\u002A5*%
X48400000Y-56800000D03*
%TD*%
%TO.C,REF\u002A\u002A12*%
X47500000Y-67200000D03*
%TD*%
%TO.C,REF\u002A\u002A12*%
X47400000Y-56800000D03*
%TD*%
%TO.C,REF\u002A\u002A9*%
X44500000Y-67200000D03*
%TD*%
D10*
%TO.C,H1*%
X61000000Y-26000000D03*
%TD*%
%TO.C,H3*%
X61000000Y-46000000D03*
%TD*%
%TO.C,H2*%
X91000000Y-36000000D03*
%TD*%
D11*
%TO.C,REF\u002A\u002A3*%
X76100000Y-41200000D03*
%TD*%
%TO.C,REF\u002A\u002A3*%
X76100000Y-30800000D03*
%TD*%
%TO.C,REF\u002A\u002A2*%
X75100000Y-41200000D03*
%TD*%
%TO.C,REF\u002A\u002A7*%
X50800000Y-36000000D03*
%TD*%
%TO.C,REF\u002A\u002A1*%
X74100000Y-41200000D03*
%TD*%
%TO.C,REF\u002A\u002A4*%
X77100000Y-41200000D03*
%TD*%
%TO.C,REF\u002A\u002A11*%
X97400000Y-30800000D03*
%TD*%
%TO.C,REF\u002A\u002A5*%
X50800000Y-34000000D03*
%TD*%
%TO.C,REF\u002A\u002A*%
X79100000Y-41200000D03*
%TD*%
%TO.C,REF\u002A\u002A2*%
X75100000Y-30800000D03*
%TD*%
%TO.C,REF\u002A\u002A5*%
X99500000Y-41200000D03*
%TD*%
%TO.C,REF\u002A\u002A1*%
X74100000Y-30800000D03*
%TD*%
%TO.C,REF\u002A\u002A9*%
X95400000Y-30800000D03*
%TD*%
%TO.C,REF\u002A\u002A11*%
X97500000Y-41200000D03*
%TD*%
%TO.C,REF\u002A\u002A*%
X78100000Y-41200000D03*
%TD*%
%TO.C,REF\u002A\u002A4*%
X77100000Y-30800000D03*
%TD*%
%TO.C,REF\u002A\u002A*%
X79100000Y-30800000D03*
%TD*%
%TO.C,REF\u002A\u002A8*%
X50800000Y-37000000D03*
%TD*%
%TO.C,REF\u002A\u002A*%
X78100000Y-30800000D03*
%TD*%
%TO.C,REF\u002A\u002A10*%
X96500000Y-41200000D03*
%TD*%
%TO.C,REF\u002A\u002A*%
X50800000Y-38000000D03*
%TD*%
%TO.C,REF\u002A\u002A10*%
X96400000Y-30800000D03*
%TD*%
%TO.C,REF\u002A\u002A6*%
X50800000Y-35000000D03*
%TD*%
%TO.C,REF\u002A\u002A5*%
X99400000Y-30800000D03*
%TD*%
%TO.C,REF\u002A\u002A12*%
X98500000Y-41200000D03*
%TD*%
%TO.C,REF\u002A\u002A12*%
X98400000Y-30800000D03*
%TD*%
%TO.C,REF\u002A\u002A9*%
X95500000Y-41200000D03*
%TD*%
D10*
%TO.C,H2*%
X40000000Y-36000000D03*
%TD*%
%TO.C,H1*%
X10000000Y-26000000D03*
%TD*%
%TO.C,H3*%
X10000000Y-46000000D03*
%TD*%
D11*
%TO.C,REF\u002A\u002A3*%
X25100000Y-41200000D03*
%TD*%
%TO.C,REF\u002A\u002A3*%
X25100000Y-30800000D03*
%TD*%
%TO.C,REF\u002A\u002A2*%
X24100000Y-41200000D03*
%TD*%
%TO.C,REF\u002A\u002A7*%
X-200000Y-36000000D03*
%TD*%
%TO.C,REF\u002A\u002A1*%
X23100000Y-41200000D03*
%TD*%
%TO.C,REF\u002A\u002A4*%
X26100000Y-41200000D03*
%TD*%
%TO.C,REF\u002A\u002A11*%
X46400000Y-30800000D03*
%TD*%
%TO.C,REF\u002A\u002A5*%
X-200000Y-34000000D03*
%TD*%
%TO.C,REF\u002A\u002A*%
X28100000Y-41200000D03*
%TD*%
%TO.C,REF\u002A\u002A2*%
X24100000Y-30800000D03*
%TD*%
%TO.C,REF\u002A\u002A5*%
X48500000Y-41200000D03*
%TD*%
%TO.C,REF\u002A\u002A1*%
X23100000Y-30800000D03*
%TD*%
%TO.C,REF\u002A\u002A9*%
X44400000Y-30800000D03*
%TD*%
%TO.C,REF\u002A\u002A11*%
X46500000Y-41200000D03*
%TD*%
%TO.C,REF\u002A\u002A*%
X27100000Y-41200000D03*
%TD*%
%TO.C,REF\u002A\u002A4*%
X26100000Y-30800000D03*
%TD*%
%TO.C,REF\u002A\u002A*%
X28100000Y-30800000D03*
%TD*%
%TO.C,REF\u002A\u002A8*%
X-200000Y-37000000D03*
%TD*%
%TO.C,REF\u002A\u002A*%
X27100000Y-30800000D03*
%TD*%
%TO.C,REF\u002A\u002A10*%
X45500000Y-41200000D03*
%TD*%
%TO.C,REF\u002A\u002A*%
X-200000Y-38000000D03*
%TD*%
%TO.C,REF\u002A\u002A10*%
X45400000Y-30800000D03*
%TD*%
%TO.C,REF\u002A\u002A6*%
X-200000Y-35000000D03*
%TD*%
%TO.C,REF\u002A\u002A5*%
X48400000Y-30800000D03*
%TD*%
%TO.C,REF\u002A\u002A12*%
X47500000Y-41200000D03*
%TD*%
%TO.C,REF\u002A\u002A12*%
X47400000Y-30800000D03*
%TD*%
%TO.C,REF\u002A\u002A9*%
X44500000Y-41200000D03*
%TD*%
D10*
%TO.C,H1*%
X61000000Y0D03*
%TD*%
%TO.C,H3*%
X61000000Y-20000000D03*
%TD*%
%TO.C,H2*%
X91000000Y-10000000D03*
%TD*%
D11*
%TO.C,REF\u002A\u002A3*%
X76100000Y-15200000D03*
%TD*%
%TO.C,REF\u002A\u002A3*%
X76100000Y-4800000D03*
%TD*%
%TO.C,REF\u002A\u002A2*%
X75100000Y-15200000D03*
%TD*%
%TO.C,REF\u002A\u002A7*%
X50800000Y-10000000D03*
%TD*%
%TO.C,REF\u002A\u002A1*%
X74100000Y-15200000D03*
%TD*%
%TO.C,REF\u002A\u002A4*%
X77100000Y-15200000D03*
%TD*%
%TO.C,REF\u002A\u002A11*%
X97400000Y-4800000D03*
%TD*%
%TO.C,REF\u002A\u002A5*%
X50800000Y-8000000D03*
%TD*%
%TO.C,REF\u002A\u002A*%
X79100000Y-15200000D03*
%TD*%
%TO.C,REF\u002A\u002A2*%
X75100000Y-4800000D03*
%TD*%
%TO.C,REF\u002A\u002A5*%
X99500000Y-15200000D03*
%TD*%
%TO.C,REF\u002A\u002A1*%
X74100000Y-4800000D03*
%TD*%
%TO.C,REF\u002A\u002A9*%
X95400000Y-4800000D03*
%TD*%
%TO.C,REF\u002A\u002A11*%
X97500000Y-15200000D03*
%TD*%
%TO.C,REF\u002A\u002A*%
X78100000Y-15200000D03*
%TD*%
%TO.C,REF\u002A\u002A4*%
X77100000Y-4800000D03*
%TD*%
%TO.C,REF\u002A\u002A*%
X79100000Y-4800000D03*
%TD*%
%TO.C,REF\u002A\u002A8*%
X50800000Y-11000000D03*
%TD*%
%TO.C,REF\u002A\u002A*%
X78100000Y-4800000D03*
%TD*%
%TO.C,REF\u002A\u002A10*%
X96500000Y-15200000D03*
%TD*%
%TO.C,REF\u002A\u002A*%
X50800000Y-12000000D03*
%TD*%
%TO.C,REF\u002A\u002A10*%
X96400000Y-4800000D03*
%TD*%
%TO.C,REF\u002A\u002A6*%
X50800000Y-9000000D03*
%TD*%
%TO.C,REF\u002A\u002A5*%
X99400000Y-4800000D03*
%TD*%
%TO.C,REF\u002A\u002A12*%
X98500000Y-15200000D03*
%TD*%
%TO.C,REF\u002A\u002A12*%
X98400000Y-4800000D03*
%TD*%
%TO.C,REF\u002A\u002A9*%
X95500000Y-15200000D03*
%TD*%
D10*
%TO.C,H1*%
X10000000Y0D03*
%TD*%
%TO.C,H3*%
X10000000Y-20000000D03*
%TD*%
%TO.C,H2*%
X40000000Y-10000000D03*
%TD*%
D11*
%TO.C,REF\u002A\u002A3*%
X25100000Y-15200000D03*
%TD*%
%TO.C,REF\u002A\u002A3*%
X25100000Y-4800000D03*
%TD*%
%TO.C,REF\u002A\u002A2*%
X24100000Y-15200000D03*
%TD*%
%TO.C,REF\u002A\u002A7*%
X-200000Y-10000000D03*
%TD*%
%TO.C,REF\u002A\u002A1*%
X23100000Y-15200000D03*
%TD*%
%TO.C,REF\u002A\u002A4*%
X26100000Y-15200000D03*
%TD*%
%TO.C,REF\u002A\u002A11*%
X46400000Y-4800000D03*
%TD*%
%TO.C,REF\u002A\u002A5*%
X-200000Y-8000000D03*
%TD*%
%TO.C,REF\u002A\u002A*%
X28100000Y-15200000D03*
%TD*%
%TO.C,REF\u002A\u002A2*%
X24100000Y-4800000D03*
%TD*%
%TO.C,REF\u002A\u002A5*%
X48500000Y-15200000D03*
%TD*%
%TO.C,REF\u002A\u002A1*%
X23100000Y-4800000D03*
%TD*%
%TO.C,REF\u002A\u002A9*%
X44400000Y-4800000D03*
%TD*%
%TO.C,REF\u002A\u002A11*%
X46500000Y-15200000D03*
%TD*%
%TO.C,REF\u002A\u002A*%
X27100000Y-15200000D03*
%TD*%
%TO.C,REF\u002A\u002A4*%
X26100000Y-4800000D03*
%TD*%
%TO.C,REF\u002A\u002A*%
X28100000Y-4800000D03*
%TD*%
%TO.C,REF\u002A\u002A8*%
X-200000Y-11000000D03*
%TD*%
%TO.C,REF\u002A\u002A*%
X27100000Y-4800000D03*
%TD*%
%TO.C,REF\u002A\u002A10*%
X45500000Y-15200000D03*
%TD*%
%TO.C,REF\u002A\u002A*%
X-200000Y-12000000D03*
%TD*%
%TO.C,REF\u002A\u002A10*%
X45400000Y-4800000D03*
%TD*%
%TO.C,REF\u002A\u002A6*%
X-200000Y-9000000D03*
%TD*%
%TO.C,REF\u002A\u002A5*%
X48400000Y-4800000D03*
%TD*%
%TO.C,REF\u002A\u002A12*%
X47500000Y-15200000D03*
%TD*%
%TO.C,REF\u002A\u002A12*%
X47400000Y-4800000D03*
%TD*%
%TO.C,REF\u002A\u002A9*%
X44500000Y-15200000D03*
%TD*%
D10*
%TO.C,H1*%
X61000000Y-78000000D03*
%TD*%
%TO.C,H2*%
X91000000Y-88000000D03*
%TD*%
%TO.C,H3*%
X61000000Y-98000000D03*
%TD*%
D11*
%TO.C,REF\u002A\u002A1*%
X74100000Y-93200000D03*
%TD*%
%TO.C,REF\u002A\u002A12*%
X98500000Y-93200000D03*
%TD*%
%TO.C,REF\u002A\u002A*%
X79100000Y-93200000D03*
%TD*%
%TO.C,REF\u002A\u002A2*%
X75100000Y-82800000D03*
%TD*%
%TO.C,REF\u002A\u002A1*%
X74100000Y-82800000D03*
%TD*%
%TO.C,REF\u002A\u002A11*%
X97400000Y-82800000D03*
%TD*%
%TO.C,REF\u002A\u002A9*%
X95400000Y-82800000D03*
%TD*%
%TO.C,REF\u002A\u002A11*%
X97500000Y-93200000D03*
%TD*%
%TO.C,REF\u002A\u002A8*%
X50800000Y-89000000D03*
%TD*%
%TO.C,REF\u002A\u002A9*%
X95500000Y-93200000D03*
%TD*%
%TO.C,REF\u002A\u002A2*%
X75100000Y-93200000D03*
%TD*%
%TO.C,REF\u002A\u002A*%
X50800000Y-90000000D03*
%TD*%
%TO.C,REF\u002A\u002A*%
X78100000Y-93200000D03*
%TD*%
%TO.C,REF\u002A\u002A10*%
X96400000Y-82800000D03*
%TD*%
%TO.C,REF\u002A\u002A6*%
X50800000Y-87000000D03*
%TD*%
%TO.C,REF\u002A\u002A5*%
X99400000Y-82800000D03*
%TD*%
%TO.C,REF\u002A\u002A12*%
X98400000Y-82800000D03*
%TD*%
%TO.C,REF\u002A\u002A3*%
X76100000Y-82800000D03*
%TD*%
%TO.C,REF\u002A\u002A*%
X78100000Y-82800000D03*
%TD*%
%TO.C,REF\u002A\u002A3*%
X76100000Y-93200000D03*
%TD*%
%TO.C,REF\u002A\u002A*%
X79100000Y-82800000D03*
%TD*%
%TO.C,REF\u002A\u002A7*%
X50800000Y-88000000D03*
%TD*%
%TO.C,REF\u002A\u002A4*%
X77100000Y-82800000D03*
%TD*%
%TO.C,REF\u002A\u002A4*%
X77100000Y-93200000D03*
%TD*%
%TO.C,REF\u002A\u002A10*%
X96500000Y-93200000D03*
%TD*%
%TO.C,REF\u002A\u002A5*%
X99500000Y-93200000D03*
%TD*%
%TO.C,REF\u002A\u002A5*%
X50800000Y-86000000D03*
%TD*%
M02*
