M48
; DRILL file {KiCad 9.0.3} date 2025-08-08T18:23:52+0200
; FORMAT={-:-/ absolute / metric / decimal}
; #@! TF.CreationDate,2025-08-08T18:23:52+02:00
; #@! TF.GenerationSoftware,Kicad,Pcbnew,9.0.3
; #@! TF.FileFunction,NonPlated,1,2,NPTH
FMAT,2
METRIC
; #@! TA.AperFunction,NonPlated,NPTH,ComponentDrill
T1C0.600
; #@! TA.AperFunction,NonPlated,NPTH,ComponentDrill
T2C2.200
%
G90
G05
T1
X-0.2Y-8.0
X-0.2Y-9.0
X-0.2Y-10.0
X-0.2Y-11.0
X-0.2Y-12.0
X-0.2Y-34.0
X-0.2Y-35.0
X-0.2Y-36.0
X-0.2Y-37.0
X-0.2Y-38.0
X-0.2Y-60.0
X-0.2Y-61.0
X-0.2Y-62.0
X-0.2Y-63.0
X-0.2Y-64.0
X-0.2Y-86.0
X-0.2Y-87.0
X-0.2Y-88.0
X-0.2Y-89.0
X-0.2Y-90.0
X23.1Y-4.8
X23.1Y-15.2
X23.1Y-30.8
X23.1Y-41.2
X23.1Y-56.8
X23.1Y-67.2
X23.1Y-82.8
X23.1Y-93.2
X24.1Y-4.8
X24.1Y-15.2
X24.1Y-30.8
X24.1Y-41.2
X24.1Y-56.8
X24.1Y-67.2
X24.1Y-82.8
X24.1Y-93.2
X25.1Y-4.8
X25.1Y-15.2
X25.1Y-30.8
X25.1Y-41.2
X25.1Y-56.8
X25.1Y-67.2
X25.1Y-82.8
X25.1Y-93.2
X26.1Y-4.8
X26.1Y-15.2
X26.1Y-30.8
X26.1Y-41.2
X26.1Y-56.8
X26.1Y-67.2
X26.1Y-82.8
X26.1Y-93.2
X27.1Y-4.8
X27.1Y-15.2
X27.1Y-30.8
X27.1Y-41.2
X27.1Y-56.8
X27.1Y-67.2
X27.1Y-82.8
X27.1Y-93.2
X28.1Y-4.8
X28.1Y-15.2
X28.1Y-30.8
X28.1Y-41.2
X28.1Y-56.8
X28.1Y-67.2
X28.1Y-82.8
X28.1Y-93.2
X44.4Y-4.8
X44.4Y-30.8
X44.4Y-56.8
X44.4Y-82.8
X44.5Y-15.2
X44.5Y-41.2
X44.5Y-67.2
X44.5Y-93.2
X45.4Y-4.8
X45.4Y-30.8
X45.4Y-56.8
X45.4Y-82.8
X45.5Y-15.2
X45.5Y-41.2
X45.5Y-67.2
X45.5Y-93.2
X46.4Y-4.8
X46.4Y-30.8
X46.4Y-56.8
X46.4Y-82.8
X46.5Y-15.2
X46.5Y-41.2
X46.5Y-67.2
X46.5Y-93.2
X47.4Y-4.8
X47.4Y-30.8
X47.4Y-56.8
X47.4Y-82.8
X47.5Y-15.2
X47.5Y-41.2
X47.5Y-67.2
X47.5Y-93.2
X48.4Y-4.8
X48.4Y-30.8
X48.4Y-56.8
X48.4Y-82.8
X48.5Y-15.2
X48.5Y-41.2
X48.5Y-67.2
X48.5Y-93.2
X50.8Y-8.0
X50.8Y-9.0
X50.8Y-10.0
X50.8Y-11.0
X50.8Y-12.0
X50.8Y-34.0
X50.8Y-35.0
X50.8Y-36.0
X50.8Y-37.0
X50.8Y-38.0
X50.8Y-60.0
X50.8Y-61.0
X50.8Y-62.0
X50.8Y-63.0
X50.8Y-64.0
X50.8Y-86.0
X50.8Y-87.0
X50.8Y-88.0
X50.8Y-89.0
X50.8Y-90.0
X74.1Y-4.8
X74.1Y-15.2
X74.1Y-30.8
X74.1Y-41.2
X74.1Y-56.8
X74.1Y-67.2
X74.1Y-82.8
X74.1Y-93.2
X75.1Y-4.8
X75.1Y-15.2
X75.1Y-30.8
X75.1Y-41.2
X75.1Y-56.8
X75.1Y-67.2
X75.1Y-82.8
X75.1Y-93.2
X76.1Y-4.8
X76.1Y-15.2
X76.1Y-30.8
X76.1Y-41.2
X76.1Y-56.8
X76.1Y-67.2
X76.1Y-82.8
X76.1Y-93.2
X77.1Y-4.8
X77.1Y-15.2
X77.1Y-30.8
X77.1Y-41.2
X77.1Y-56.8
X77.1Y-67.2
X77.1Y-82.8
X77.1Y-93.2
X78.1Y-4.8
X78.1Y-15.2
X78.1Y-30.8
X78.1Y-41.2
X78.1Y-56.8
X78.1Y-67.2
X78.1Y-82.8
X78.1Y-93.2
X79.1Y-4.8
X79.1Y-15.2
X79.1Y-30.8
X79.1Y-41.2
X79.1Y-56.8
X79.1Y-67.2
X79.1Y-82.8
X79.1Y-93.2
X95.4Y-4.8
X95.4Y-30.8
X95.4Y-56.8
X95.4Y-82.8
X95.5Y-15.2
X95.5Y-41.2
X95.5Y-67.2
X95.5Y-93.2
X96.4Y-4.8
X96.4Y-30.8
X96.4Y-56.8
X96.4Y-82.8
X96.5Y-15.2
X96.5Y-41.2
X96.5Y-67.2
X96.5Y-93.2
X97.4Y-4.8
X97.4Y-30.8
X97.4Y-56.8
X97.4Y-82.8
X97.5Y-15.2
X97.5Y-41.2
X97.5Y-67.2
X97.5Y-93.2
X98.4Y-4.8
X98.4Y-30.8
X98.4Y-56.8
X98.4Y-82.8
X98.5Y-15.2
X98.5Y-41.2
X98.5Y-67.2
X98.5Y-93.2
X99.4Y-4.8
X99.4Y-30.8
X99.4Y-56.8
X99.4Y-82.8
X99.5Y-15.2
X99.5Y-41.2
X99.5Y-67.2
X99.5Y-93.2
T2
X10.0Y0.0
X10.0Y-20.0
X10.0Y-26.0
X10.0Y-46.0
X10.0Y-52.0
X10.0Y-72.0
X10.0Y-78.0
X10.0Y-98.0
X40.0Y-10.0
X40.0Y-36.0
X40.0Y-62.0
X40.0Y-88.0
X61.0Y0.0
X61.0Y-20.0
X61.0Y-26.0
X61.0Y-46.0
X61.0Y-52.0
X61.0Y-72.0
X61.0Y-78.0
X61.0Y-98.0
X91.0Y-10.0
X91.0Y-36.0
X91.0Y-62.0
X91.0Y-88.0
M30
