M48
; DRILL file {KiCad 9.0.3} date 2025-08-09T09:53:04+0200
; FORMAT={-:-/ absolute / metric / decimal}
; #@! TF.CreationDate,2025-08-09T09:53:04+02:00
; #@! TF.GenerationSoftware,Kicad,Pcbnew,9.0.3
; #@! TF.FileFunction,Plated,1,2,PTH
FMAT,2
METRIC
; #@! TA.AperFunction,Plated,PTH,ViaDrill
T1C0.300
%
G90
G05
T1
X2.5Y-7.0
X2.5Y-8.5
X2.5Y-10.0
X2.5Y-11.5
X2.5Y-13.0
X5.0Y-4.0
X5.5Y-17.0
X6.538Y-4.0
X7.5Y-17.0
X8.5Y-4.0
X9.5Y-17.0
X12.25Y-11.25
X12.5Y-10.0
X13.0Y-12.0
X14.0Y-12.5
X14.9Y-7.4
X15.0Y-12.5
X15.5Y-13.0
X16.0Y-11.7
X16.2Y-7.4
X17.0Y-5.0
X17.5Y-10.0
X18.0Y-2.0
X18.0Y-3.5
X18.0Y-6.0
X18.0Y-7.5
X18.0Y-8.5
X18.0Y-9.5
X18.0Y-13.0
X18.0Y-15.5
X18.0Y-17.5
M30
