%TF.GenerationSoftware,KiCad,Pcbnew,9.0.3*%
%TF.CreationDate,2025-08-09T09:56:12+02:00*%
%TF.ProjectId,ialed,69616c65-642e-46b6-9963-61645f706362,rev?*%
%TF.SameCoordinates,Original*%
%TF.FileFunction,Copper,L2,Bot*%
%TF.FilePolarity,Positive*%
%FSLAX46Y46*%
G04 Gerber Fmt 4.6, Leading zero omitted, Abs format (unit mm)*
G04 Created by KiCad (PCBNEW 9.0.3) date 2025-08-09 09:56:12*
%MOMM*%
%LPD*%
G01*
G04 APERTURE LIST*
G04 Aperture macros list*
%AMRoundRect*
0 Rectangle with rounded corners*
0 $1 Rounding radius*
0 $2 $3 $4 $5 $6 $7 $8 $9 X,Y pos of 4 corners*
0 Add a 4 corners polygon primitive as box body*
4,1,4,$2,$3,$4,$5,$6,$7,$8,$9,$2,$3,0*
0 Add four circle primitives for the rounded corners*
1,1,$1+$1,$2,$3*
1,1,$1+$1,$4,$5*
1,1,$1+$1,$6,$7*
1,1,$1+$1,$8,$9*
0 Add four rect primitives between the rounded corners*
20,1,$1+$1,$2,$3,$4,$5,0*
20,1,$1+$1,$4,$5,$6,$7,0*
20,1,$1+$1,$6,$7,$8,$9,0*
20,1,$1+$1,$8,$9,$2,$3,0*%
G04 Aperture macros list end*
%TA.AperFunction,Conductor*%
%ADD10C,0.200000*%
%TD*%
%TA.AperFunction,SMDPad,CuDef*%
%ADD11RoundRect,0.243750X-0.243750X-0.456250X0.243750X-0.456250X0.243750X0.456250X-0.243750X0.456250X0*%
%TD*%
%TA.AperFunction,ViaPad*%
%ADD12C,0.600000*%
%TD*%
%TA.AperFunction,Conductor*%
%ADD13C,0.500000*%
%TD*%
%TA.AperFunction,Conductor*%
%ADD14C,1.000000*%
%TD*%
G04 APERTURE END LIST*
%TO.N,Net-(D1-K)*%
D10*
X5500000Y-5500000D02*
X13000000Y-5500000D01*
X13000000Y-14500000D01*
X5500000Y-14500000D01*
X5500000Y-5500000D01*
%TA.AperFunction,Conductor*%
G36*
X5500000Y-5500000D02*
G01*
X13000000Y-5500000D01*
X13000000Y-14500000D01*
X5500000Y-14500000D01*
X5500000Y-5500000D01*
G37*
%TD.AperFunction*%
%TO.N,Net-(D1-A)*%
X17000000Y-8000000D02*
X19000000Y-8000000D01*
X19000000Y-12000000D01*
X17000000Y-12000000D01*
X17000000Y-8000000D01*
%TA.AperFunction,Conductor*%
G36*
X17000000Y-8000000D02*
G01*
X19000000Y-8000000D01*
X19000000Y-12000000D01*
X17000000Y-12000000D01*
X17000000Y-8000000D01*
G37*
%TD.AperFunction*%
%TD*%
D11*
%TO.P,D1,1,K*%
%TO.N,Net-(D1-K)*%
X14062500Y-10000000D03*
%TO.P,D1,2,A*%
%TO.N,Net-(D1-A)*%
X15937500Y-10000000D03*
%TD*%
D12*
%TO.N,GND*%
X16000000Y-11700000D03*
X16200000Y-7400000D03*
X14900000Y-7400000D03*
%TO.N,Net-(D1-K)*%
X13000000Y-12000000D03*
X15000000Y-12500000D03*
X12250000Y-11250000D03*
X12500000Y-10000000D03*
X15500000Y-13000000D03*
X14000000Y-12500000D03*
%TO.N,Net-(D1-A)*%
X18000000Y-7500000D03*
X18000000Y-9500000D03*
X18000000Y-6000000D03*
X17500000Y-10000000D03*
X17000000Y-5000000D03*
X18000000Y-8500000D03*
%TO.N,GND*%
X18000000Y-3500000D03*
X18000000Y-13000000D03*
X5500000Y-17000000D03*
X2500000Y-11500000D03*
X7500000Y-17000000D03*
X18000000Y-2000000D03*
X2500000Y-7000000D03*
X2500000Y-10000000D03*
X8500000Y-4000000D03*
X6537983Y-4000000D03*
X2500000Y-13000000D03*
X18000000Y-17500000D03*
X5000000Y-4000000D03*
X2500000Y-8500000D03*
X9500000Y-17000000D03*
X18000000Y-15500000D03*
%TD*%
D13*
%TO.N,Net-(D1-K)*%
X14062500Y-10000000D02*
X12500000Y-10000000D01*
D14*
X15000000Y-12500000D02*
X15500000Y-13000000D01*
X13500000Y-12500000D02*
X15000000Y-12500000D01*
X12250000Y-11250000D02*
X13500000Y-12500000D01*
D13*
%TO.N,Net-(D1-A)*%
X17000000Y-10000000D02*
X15937500Y-10000000D01*
D14*
X18000000Y-9500000D02*
X18000000Y-6000000D01*
X18000000Y-6000000D02*
X17000000Y-5000000D01*
%TD*%
%TA.AperFunction,Conductor*%
%TO.N,GND*%
G36*
X8629839Y-193381D02*
G01*
X8670367Y-250296D01*
X8675660Y-271454D01*
X8681339Y-307314D01*
X8682754Y-316243D01*
X8743119Y-502027D01*
X8748444Y-518414D01*
X8844951Y-707820D01*
X8969890Y-879786D01*
X9120213Y-1030109D01*
X9292179Y-1155048D01*
X9292181Y-1155049D01*
X9292184Y-1155051D01*
X9481588Y-1251557D01*
X9683757Y-1317246D01*
X9893713Y-1350500D01*
X9893714Y-1350500D01*
X10106286Y-1350500D01*
X10106287Y-1350500D01*
X10316243Y-1317246D01*
X10518412Y-1251557D01*
X10707816Y-1155051D01*
X10729789Y-1139086D01*
X10879786Y-1030109D01*
X10879788Y-1030106D01*
X10879792Y-1030104D01*
X11030104Y-879792D01*
X11030106Y-879788D01*
X11030109Y-879786D01*
X11155048Y-707820D01*
X11155047Y-707820D01*
X11155051Y-707816D01*
X11251557Y-518412D01*
X11317246Y-316243D01*
X11324340Y-271452D01*
X11354266Y-208321D01*
X11413577Y-171389D01*
X11483440Y-172385D01*
X11541673Y-210994D01*
X11554199Y-228851D01*
X11599500Y-307314D01*
X11692686Y-400500D01*
X11806814Y-466392D01*
X11934108Y-500500D01*
X19134108Y-500500D01*
X19190243Y-500500D01*
X19209640Y-502027D01*
X19225080Y-504472D01*
X19273154Y-512086D01*
X19310046Y-524073D01*
X19358544Y-548783D01*
X19389929Y-571586D01*
X19428413Y-610070D01*
X19451217Y-641457D01*
X19475925Y-689950D01*
X19487913Y-726845D01*
X19497973Y-790358D01*
X19499500Y-809757D01*
X19499500Y-7380214D01*
X19479815Y-7447253D01*
X19427011Y-7493008D01*
X19357853Y-7502952D01*
X19313501Y-7487602D01*
X19231784Y-7440423D01*
X19231785Y-7440423D01*
X19143044Y-7416645D01*
X19092405Y-7403076D01*
X19032746Y-7366712D01*
X19002217Y-7303865D01*
X19000500Y-7283302D01*
X19000500Y-6104675D01*
X19000501Y-6104654D01*
X19000501Y-5901457D01*
X19000500Y-5901455D01*
X18962053Y-5708172D01*
X18962052Y-5708165D01*
X18886632Y-5526086D01*
X18886631Y-5526085D01*
X18886628Y-5526079D01*
X18777140Y-5362219D01*
X18777137Y-5362215D01*
X17637784Y-4222863D01*
X17637780Y-4222860D01*
X17473920Y-4113372D01*
X17473910Y-4113367D01*
X17291836Y-4037949D01*
X17291828Y-4037947D01*
X17098543Y-3999500D01*
X17098540Y-3999500D01*
X16901460Y-3999500D01*
X16901457Y-3999500D01*
X16708171Y-4037947D01*
X16708163Y-4037949D01*
X16526089Y-4113367D01*
X16526079Y-4113372D01*
X16362219Y-4222860D01*
X16362215Y-4222863D01*
X16222863Y-4362215D01*
X16222860Y-4362219D01*
X16113372Y-4526079D01*
X16113367Y-4526089D01*
X16037949Y-4708163D01*
X16037947Y-4708171D01*
X15999500Y-4901455D01*
X15999500Y-5098544D01*
X16037947Y-5291828D01*
X16037949Y-5291836D01*
X16113367Y-5473910D01*
X16113372Y-5473920D01*
X16222860Y-5637780D01*
X16222863Y-5637784D01*
X16963181Y-6378101D01*
X16996666Y-6439424D01*
X16999500Y-6465782D01*
X16999500Y-7283302D01*
X16979815Y-7350341D01*
X16927011Y-7396096D01*
X16907595Y-7403076D01*
X16876654Y-7411367D01*
X16768214Y-7440423D01*
X16768209Y-7440426D01*
X16631290Y-7519475D01*
X16631282Y-7519481D01*
X16519481Y-7631282D01*
X16519475Y-7631290D01*
X16440426Y-7768209D01*
X16440423Y-7768216D01*
X16399500Y-7920943D01*
X16399500Y-8679416D01*
X16379815Y-8746455D01*
X16327011Y-8792210D01*
X16262898Y-8802774D01*
X16230857Y-8799500D01*
X16230848Y-8799500D01*
X15644152Y-8799500D01*
X15644144Y-8799500D01*
X15542223Y-8809913D01*
X15377077Y-8864637D01*
X15377066Y-8864642D01*
X15229000Y-8955971D01*
X15228996Y-8955974D01*
X15105974Y-9078996D01*
X15105971Y-9079000D01*
X15105538Y-9079703D01*
X15105114Y-9080083D01*
X15101493Y-9084664D01*
X15100710Y-9084045D01*
X15053590Y-9126428D01*
X14984628Y-9137649D01*
X14920546Y-9109806D01*
X14898657Y-9084544D01*
X14898507Y-9084664D01*
X14895859Y-9081315D01*
X14894462Y-9079703D01*
X14894028Y-9079000D01*
X14894025Y-9078996D01*
X14771003Y-8955974D01*
X14770999Y-8955971D01*
X14622933Y-8864642D01*
X14622927Y-8864639D01*
X14622925Y-8864638D01*
X14622922Y-8864637D01*
X14457776Y-8809913D01*
X14355855Y-8799500D01*
X14355848Y-8799500D01*
X13769152Y-8799500D01*
X13769142Y-8799500D01*
X13737102Y-8802774D01*
X13668409Y-8790005D01*
X13617525Y-8742124D01*
X13600500Y-8679416D01*
X13600500Y-5420945D01*
X13600500Y-5420943D01*
X13559577Y-5268216D01*
X13559573Y-5268209D01*
X13480524Y-5131290D01*
X13480518Y-5131282D01*
X13368717Y-5019481D01*
X13368709Y-5019475D01*
X13231790Y-4940426D01*
X13231786Y-4940424D01*
X13231784Y-4940423D01*
X13079057Y-4899500D01*
X5579057Y-4899500D01*
X5420943Y-4899500D01*
X5268216Y-4940423D01*
X5268209Y-4940426D01*
X5131290Y-5019475D01*
X5131282Y-5019481D01*
X5019481Y-5131282D01*
X5019475Y-5131290D01*
X4940426Y-5268209D01*
X4940423Y-5268216D01*
X4899500Y-5420943D01*
X4899500Y-14579056D01*
X4940423Y-14731783D01*
X4940426Y-14731790D01*
X5019475Y-14868709D01*
X5019479Y-14868714D01*
X5019480Y-14868716D01*
X5131284Y-14980520D01*
X5131286Y-14980521D01*
X5131290Y-14980524D01*
X5268209Y-15059573D01*
X5268216Y-15059577D01*
X5420943Y-15100500D01*
X5420945Y-15100500D01*
X13079055Y-15100500D01*
X13079057Y-15100500D01*
X13231784Y-15059577D01*
X13368716Y-14980520D01*
X13480520Y-14868716D01*
X13559577Y-14731784D01*
X13600500Y-14579057D01*
X13600500Y-13624500D01*
X13620185Y-13557461D01*
X13672989Y-13511706D01*
X13724500Y-13500500D01*
X14534218Y-13500500D01*
X14601257Y-13520185D01*
X14621899Y-13536819D01*
X14862215Y-13777136D01*
X14862219Y-13777139D01*
X15026079Y-13886627D01*
X15026083Y-13886629D01*
X15026086Y-13886631D01*
X15208164Y-13962051D01*
X15401455Y-14000499D01*
X15401458Y-14000500D01*
X15401460Y-14000500D01*
X15598542Y-14000500D01*
X15598543Y-14000499D01*
X15791836Y-13962051D01*
X15973914Y-13886631D01*
X16137781Y-13777139D01*
X16277139Y-13637781D01*
X16386631Y-13473914D01*
X16462051Y-13291836D01*
X16500500Y-13098540D01*
X16500500Y-12901460D01*
X16500500Y-12901457D01*
X16500499Y-12901455D01*
X16462052Y-12708171D01*
X16462051Y-12708164D01*
X16419975Y-12606586D01*
X16412507Y-12537119D01*
X16443782Y-12474640D01*
X16503870Y-12438987D01*
X16573696Y-12441480D01*
X16622218Y-12471454D01*
X16631284Y-12480520D01*
X16631286Y-12480521D01*
X16631290Y-12480524D01*
X16710207Y-12526086D01*
X16768216Y-12559577D01*
X16920943Y-12600500D01*
X16920945Y-12600500D01*
X19079055Y-12600500D01*
X19079057Y-12600500D01*
X19231784Y-12559577D01*
X19313502Y-12512397D01*
X19381400Y-12495925D01*
X19447427Y-12518777D01*
X19490618Y-12573699D01*
X19499500Y-12619785D01*
X19499500Y-19190242D01*
X19497973Y-19209639D01*
X19497973Y-19209641D01*
X19487913Y-19273154D01*
X19475925Y-19310049D01*
X19451217Y-19358542D01*
X19428413Y-19389929D01*
X19389929Y-19428413D01*
X19358542Y-19451217D01*
X19310049Y-19475925D01*
X19273154Y-19487913D01*
X19235734Y-19493840D01*
X19209639Y-19497973D01*
X19190243Y-19499500D01*
X11934106Y-19499500D01*
X11806813Y-19533608D01*
X11806810Y-19533609D01*
X11692684Y-19599500D01*
X11625793Y-19666390D01*
X11625794Y-19666391D01*
X11599499Y-19692686D01*
X11554199Y-19771147D01*
X11503631Y-19819362D01*
X11435024Y-19832584D01*
X11370159Y-19806616D01*
X11329631Y-19749701D01*
X11324341Y-19728556D01*
X11317246Y-19683757D01*
X11251557Y-19481588D01*
X11155051Y-19292184D01*
X11155049Y-19292181D01*
X11155048Y-19292179D01*
X11030109Y-19120213D01*
X10879786Y-18969890D01*
X10707820Y-18844951D01*
X10518414Y-18748444D01*
X10518413Y-18748443D01*
X10518412Y-18748443D01*
X10316243Y-18682754D01*
X10316241Y-18682753D01*
X10316240Y-18682753D01*
X10154957Y-18657208D01*
X10106287Y-18649500D01*
X9893713Y-18649500D01*
X9845042Y-18657208D01*
X9683760Y-18682753D01*
X9481585Y-18748444D01*
X9292179Y-18844951D01*
X9120213Y-18969890D01*
X8969890Y-19120213D01*
X8844951Y-19292179D01*
X8748444Y-19481585D01*
X8682753Y-19683758D01*
X8675660Y-19728543D01*
X8665719Y-19749510D01*
X8660068Y-19772011D01*
X8651036Y-19780484D01*
X8645730Y-19791677D01*
X8626031Y-19803942D01*
X8609112Y-19819815D01*
X8596932Y-19822060D01*
X8586418Y-19828607D01*
X8563218Y-19828275D01*
X8540401Y-19832482D01*
X8528940Y-19827785D01*
X8516555Y-19827609D01*
X8497215Y-19814785D01*
X8475748Y-19805989D01*
X8464884Y-19793348D01*
X8458323Y-19788998D01*
X8451600Y-19780250D01*
X8448507Y-19775831D01*
X8400503Y-19692686D01*
X8374209Y-19666392D01*
X8307318Y-19599500D01*
X8193189Y-19533608D01*
X8065896Y-19499500D01*
X8065895Y-19499500D01*
X809757Y-19499500D01*
X790360Y-19497973D01*
X749549Y-19491509D01*
X726845Y-19487913D01*
X689950Y-19475925D01*
X641457Y-19451217D01*
X610070Y-19428413D01*
X571586Y-19389929D01*
X548782Y-19358542D01*
X524073Y-19310046D01*
X512086Y-19273152D01*
X502027Y-19209639D01*
X500500Y-19190242D01*
X500500Y-809758D01*
X502027Y-790360D01*
X510936Y-734109D01*
X512087Y-726845D01*
X524072Y-689955D01*
X548786Y-641452D01*
X571585Y-610073D01*
X610073Y-571585D01*
X641452Y-548786D01*
X689955Y-524072D01*
X726846Y-512086D01*
X790360Y-502026D01*
X809758Y-500500D01*
X8065890Y-500500D01*
X8065892Y-500500D01*
X8193186Y-466392D01*
X8307314Y-400500D01*
X8400500Y-307314D01*
X8445800Y-228851D01*
X8496367Y-180636D01*
X8564974Y-167413D01*
X8629839Y-193381D01*
G37*
%TD.AperFunction*%
%TA.AperFunction,Conductor*%
G36*
X15079448Y-10890188D02*
G01*
X15101342Y-10915455D01*
X15101493Y-10915336D01*
X15104143Y-10918687D01*
X15105540Y-10920299D01*
X15105974Y-10921003D01*
X15105975Y-10921004D01*
X15228996Y-11044025D01*
X15229000Y-11044028D01*
X15377066Y-11135357D01*
X15377069Y-11135358D01*
X15377075Y-11135362D01*
X15542225Y-11190087D01*
X15644152Y-11200500D01*
X15644157Y-11200500D01*
X16230843Y-11200500D01*
X16230848Y-11200500D01*
X16262897Y-11197225D01*
X16331588Y-11209993D01*
X16382473Y-11257872D01*
X16399500Y-11320583D01*
X16399500Y-12079056D01*
X16428157Y-12186006D01*
X16426494Y-12255856D01*
X16387331Y-12313718D01*
X16323103Y-12341222D01*
X16254201Y-12329635D01*
X16220701Y-12305780D01*
X15781479Y-11866559D01*
X15781459Y-11866537D01*
X15637782Y-11722860D01*
X15473919Y-11613371D01*
X15473916Y-11613369D01*
X15473914Y-11613368D01*
X15473911Y-11613366D01*
X15473906Y-11613364D01*
X15347658Y-11561071D01*
X15347653Y-11561069D01*
X15340549Y-11558127D01*
X15291836Y-11537949D01*
X15195188Y-11518724D01*
X15190771Y-11517845D01*
X15190766Y-11517844D01*
X15098544Y-11499500D01*
X15098541Y-11499500D01*
X13965782Y-11499500D01*
X13936341Y-11490855D01*
X13906355Y-11484332D01*
X13901339Y-11480577D01*
X13898743Y-11479815D01*
X13878101Y-11463181D01*
X13827101Y-11412181D01*
X13793616Y-11350858D01*
X13798600Y-11281166D01*
X13840472Y-11225233D01*
X13905936Y-11200816D01*
X13914782Y-11200500D01*
X14355843Y-11200500D01*
X14355848Y-11200500D01*
X14457775Y-11190087D01*
X14622925Y-11135362D01*
X14771003Y-11044026D01*
X14894026Y-10921003D01*
X14894458Y-10920301D01*
X14894881Y-10919921D01*
X14898507Y-10915336D01*
X14899290Y-10915955D01*
X14946402Y-10873575D01*
X15015364Y-10862349D01*
X15079448Y-10890188D01*
G37*
%TD.AperFunction*%
%TD*%
M02*
