%TF.GenerationSoftware,KiCad,Pcbnew,9.0.3*%
%TF.CreationDate,2025-08-09T09:56:12+02:00*%
%TF.ProjectId,ialed,69616c65-642e-46b6-9963-61645f706362,rev?*%
%TF.SameCoordinates,Original*%
%TF.FileFunction,Legend,Bot*%
%TF.FilePolarity,Positive*%
%FSLAX46Y46*%
G04 Gerber Fmt 4.6, Leading zero omitted, Abs format (unit mm)*
G04 Created by KiCad (PCBNEW 9.0.3) date 2025-08-09 09:56:12*
%MOMM*%
%LPD*%
G01*
G04 APERTURE LIST*
%ADD10C,0.100000*%
%ADD11C,0.150000*%
%ADD12C,0.120000*%
G04 APERTURE END LIST*
D10*
X17596115Y-10691466D02*
X16834211Y-10691466D01*
X17215163Y-11072419D02*
X17215163Y-10310514D01*
D11*
X15738094Y-12104819D02*
X15738094Y-11104819D01*
X15738094Y-11104819D02*
X15499999Y-11104819D01*
X15499999Y-11104819D02*
X15357142Y-11152438D01*
X15357142Y-11152438D02*
X15261904Y-11247676D01*
X15261904Y-11247676D02*
X15214285Y-11342914D01*
X15214285Y-11342914D02*
X15166666Y-11533390D01*
X15166666Y-11533390D02*
X15166666Y-11676247D01*
X15166666Y-11676247D02*
X15214285Y-11866723D01*
X15214285Y-11866723D02*
X15261904Y-11961961D01*
X15261904Y-11961961D02*
X15357142Y-12057200D01*
X15357142Y-12057200D02*
X15499999Y-12104819D01*
X15499999Y-12104819D02*
X15738094Y-12104819D01*
X14214285Y-12104819D02*
X14785713Y-12104819D01*
X14499999Y-12104819D02*
X14499999Y-11104819D01*
X14499999Y-11104819D02*
X14595237Y-11247676D01*
X14595237Y-11247676D02*
X14690475Y-11342914D01*
X14690475Y-11342914D02*
X14785713Y-11390533D01*
D12*
%TO.C,D1*%
X13315000Y-9040000D02*
X16000000Y-9040000D01*
X13315000Y-10960000D02*
X13315000Y-9040000D01*
X16000000Y-10960000D02*
X13315000Y-10960000D01*
%TD*%
M02*
