%TF.GenerationSoftware,KiCad,Pcbnew,8.0.4*%
%TF.CreationDate,2024-09-18T19:52:04+02:00*%
%TF.ProjectId,fredo,66726564-6f2e-46b6-9963-61645f706362,rev?*%
%TF.SameCoordinates,Original*%
%TF.FileFunction,Copper,L2,Bot*%
%TF.FilePolarity,Positive*%
%FSLAX46Y46*%
G04 Gerber Fmt 4.6, Leading zero omitted, Abs format (unit mm)*
G04 Created by KiCad (PCBNEW 8.0.4) date 2024-09-18 19:52:04*
%MOMM*%
%LPD*%
G01*
G04 APERTURE LIST*
%TA.AperFunction,ComponentPad*%
%ADD10C,4.400000*%
%TD*%
%TA.AperFunction,ComponentPad*%
%ADD11C,1.600000*%
%TD*%
%TA.AperFunction,ViaPad*%
%ADD12C,0.800000*%
%TD*%
%TA.AperFunction,Conductor*%
%ADD13C,0.500000*%
%TD*%
%TA.AperFunction,Conductor*%
%ADD14C,1.000000*%
%TD*%
%TA.AperFunction,Conductor*%
%ADD15C,0.250000*%
%TD*%
G04 APERTURE END LIST*
D10*
%TO.P,H3,1,1*%
%TO.N,GND*%
X87000000Y-87000000D03*
%TD*%
D11*
%TO.P,J1,*%
%TO.N,*%
X50820000Y-39370000D03*
X50820000Y-85090000D03*
%TD*%
D10*
%TO.P,H2,1,1*%
%TO.N,GND*%
X34000000Y-96000000D03*
%TD*%
D11*
%TO.P,J2,*%
%TO.N,VSYS*%
X71100000Y-39370000D03*
%TO.N,*%
X71100000Y-85090000D03*
%TD*%
D10*
%TO.P,H1,1,1*%
%TO.N,GND*%
X60000000Y-40000000D03*
%TD*%
D12*
%TO.N,GND*%
X81000000Y-87000000D03*
X82500000Y-85500000D03*
X79500000Y-85500000D03*
X76000000Y-60000000D03*
X86000000Y-70500000D03*
X58500000Y-61000000D03*
X57000000Y-58500000D03*
X59000000Y-57500000D03*
X59000000Y-54500000D03*
X69500000Y-75000000D03*
X69500000Y-72500000D03*
X50500000Y-75000000D03*
X50500000Y-72500000D03*
%TO.N,I2C1_SCL{slash}GP7*%
X78425000Y-50000000D03*
X58500000Y-52000000D03*
%TO.N,I2C1_SDA{slash}GP6*%
X81425000Y-47000000D03*
X58500000Y-50500000D03*
%TO.N,UART1_TX{slash}SPI0_RX{slash}GP4*%
X37500000Y-46000000D03*
X51000000Y-50800000D03*
%TO.N,GP13*%
X63000000Y-81500000D03*
X56000000Y-78740000D03*
%TO.N,GND*%
X43500000Y-43000000D03*
X53000000Y-94500000D03*
X58500000Y-88500000D03*
X51000000Y-89000000D03*
X43500000Y-79000000D03*
X62000000Y-80500000D03*
X33500000Y-73000000D03*
X65500000Y-86000000D03*
X80000000Y-38000000D03*
X56500000Y-83500000D03*
X86000000Y-54500000D03*
X53500000Y-89000000D03*
X56500000Y-50500000D03*
X62000000Y-93500000D03*
X33500000Y-57000000D03*
X62000000Y-96500000D03*
X81000000Y-85500000D03*
X39000000Y-85000000D03*
X33500000Y-49000000D03*
X53000000Y-93000000D03*
X48000000Y-89000000D03*
X86000000Y-46500000D03*
X59500000Y-63500000D03*
X42000000Y-83500000D03*
X80925000Y-63000000D03*
X56500000Y-49500000D03*
X34500000Y-90500000D03*
X60000000Y-84000000D03*
X65500000Y-85000000D03*
X63000000Y-56000000D03*
X65500000Y-83000000D03*
X58500000Y-85000000D03*
X56500000Y-88500000D03*
X43500000Y-59000000D03*
X43500000Y-82000000D03*
X33000000Y-87500000D03*
X51000000Y-94500000D03*
X65500000Y-87000000D03*
X58500000Y-82000000D03*
X43500000Y-85000000D03*
X33000000Y-86300000D03*
X62000000Y-98000000D03*
X40500000Y-85000000D03*
X33000000Y-89000000D03*
X58500000Y-83500000D03*
X65500000Y-84000000D03*
X42000000Y-85000000D03*
X56500000Y-80500000D03*
X40500000Y-83500000D03*
X86000000Y-62500000D03*
X60000000Y-85500000D03*
X86000000Y-38500000D03*
X33000000Y-90500000D03*
X33500000Y-65000000D03*
X58500000Y-80500000D03*
X51000000Y-96000000D03*
X53000000Y-96000000D03*
X63000000Y-54500000D03*
X63000000Y-53000000D03*
X53000000Y-97500000D03*
X58500000Y-86500000D03*
X80500000Y-55000000D03*
X56500000Y-82000000D03*
X81500000Y-45000000D03*
X33500000Y-41000000D03*
X43500000Y-73000000D03*
X62000000Y-95000000D03*
X43500000Y-80500000D03*
X56500000Y-85000000D03*
X56500000Y-86500000D03*
X43500000Y-83500000D03*
X58500000Y-64500000D03*
%TO.N,UART1_RX{slash}SPI0_CS{slash}GP5*%
X35500000Y-47500000D03*
X51000000Y-53340000D03*
%TO.N,UART0_RX{slash}GP1*%
X35500000Y-39500000D03*
X50500000Y-41000000D03*
%TO.N,GP11*%
X59000000Y-76000000D03*
X64000000Y-77500000D03*
%TO.N,GP12*%
X64500000Y-80000000D03*
X58000000Y-77500000D03*
%TO.N,UART0_TX{slash}GP0*%
X50478149Y-37600000D03*
X37500000Y-38000000D03*
%TO.N,GP10*%
X57000000Y-74000000D03*
X64012653Y-76487347D03*
%TO.N,VSYS*%
X65000000Y-44500000D03*
X60500000Y-43000000D03*
X59000000Y-43000000D03*
X62000000Y-43000000D03*
X63500000Y-43000000D03*
X59500000Y-47000000D03*
X57500000Y-43000000D03*
X65000000Y-40000000D03*
X65000000Y-43000000D03*
X61000000Y-47000000D03*
X65000000Y-41500000D03*
X65000000Y-38500000D03*
%TO.N,GP16*%
X35500000Y-54500000D03*
X71500000Y-87000000D03*
%TO.N,GP17*%
X37500000Y-55500000D03*
X71500000Y-83500000D03*
%TO.N,GP18*%
X35500000Y-63000000D03*
X63000000Y-67000000D03*
%TO.N,GP19*%
X64500000Y-69500000D03*
X37500000Y-63000000D03*
%TO.N,GP20*%
X35500000Y-71500000D03*
X66500000Y-73500000D03*
%TO.N,GP21*%
X37500000Y-70000000D03*
X66500000Y-71000000D03*
%TD*%
D13*
%TO.N,I2C1_SCL{slash}GP7*%
X76425000Y-52000000D02*
X58500000Y-52000000D01*
X78425000Y-50000000D02*
X76425000Y-52000000D01*
%TO.N,I2C1_SDA{slash}GP6*%
X79925000Y-47000000D02*
X76425000Y-50500000D01*
X81425000Y-47000000D02*
X79925000Y-47000000D01*
X76425000Y-50500000D02*
X58500000Y-50500000D01*
D14*
%TO.N,UART1_TX{slash}SPI0_RX{slash}GP4*%
X49700000Y-49500000D02*
X44500000Y-49500000D01*
X41000000Y-46000000D02*
X44500000Y-49500000D01*
X51000000Y-50800000D02*
X49700000Y-49500000D01*
X37500000Y-46000000D02*
X41000000Y-46000000D01*
D15*
%TO.N,GP13*%
X56000000Y-78740000D02*
X56240000Y-78500000D01*
X62000000Y-78500000D02*
X63000000Y-79500000D01*
X56240000Y-78500000D02*
X62000000Y-78500000D01*
X63000000Y-79500000D02*
X63000000Y-81500000D01*
D14*
%TO.N,UART1_RX{slash}SPI0_CS{slash}GP5*%
X35500000Y-47500000D02*
X40000000Y-47500000D01*
X40000000Y-47500000D02*
X44500000Y-52000000D01*
X51000000Y-53340000D02*
X49660000Y-52000000D01*
X49660000Y-52000000D02*
X44500000Y-52000000D01*
D13*
%TO.N,UART0_RX{slash}GP1*%
X50232504Y-40732504D02*
X36732504Y-40732504D01*
X36732504Y-40732504D02*
X35500000Y-39500000D01*
X50500000Y-41000000D02*
X50232504Y-40732504D01*
D15*
%TO.N,GP11*%
X64000000Y-77500000D02*
X62500000Y-76000000D01*
X62500000Y-76000000D02*
X59000000Y-76000000D01*
%TO.N,GP12*%
X64500000Y-79500000D02*
X62500000Y-77500000D01*
X64500000Y-80000000D02*
X64500000Y-79500000D01*
X62500000Y-77500000D02*
X58000000Y-77500000D01*
D13*
%TO.N,UART0_TX{slash}GP0*%
X37507496Y-38007496D02*
X37500000Y-38000000D01*
X50478149Y-37600000D02*
X50070653Y-38007496D01*
X50070653Y-38007496D02*
X37507496Y-38007496D01*
D15*
%TO.N,GP10*%
X64012652Y-76487347D02*
X62525305Y-75000000D01*
X62525305Y-75000000D02*
X58000000Y-75000000D01*
X58000000Y-75000000D02*
X57000000Y-74000000D01*
X64012653Y-76487347D02*
X64012652Y-76487347D01*
D13*
%TO.N,GP16*%
X42250000Y-53500000D02*
X36500000Y-53500000D01*
X71500000Y-87000000D02*
X73000000Y-85500000D01*
X36500000Y-53500000D02*
X35500000Y-54500000D01*
X73000000Y-85500000D02*
X73000000Y-70000000D01*
X73000000Y-70000000D02*
X62500000Y-59500000D01*
X48250000Y-59500000D02*
X42250000Y-53500000D01*
X62500000Y-59500000D02*
X48250000Y-59500000D01*
%TO.N,GP17*%
X48500000Y-62000000D02*
X42000000Y-55500000D01*
X71500000Y-83500000D02*
X71500000Y-72500000D01*
X61000000Y-62000000D02*
X48500000Y-62000000D01*
X42000000Y-55500000D02*
X37500000Y-55500000D01*
X71500000Y-72500000D02*
X61000000Y-62000000D01*
D14*
%TO.N,GP18*%
X58000000Y-67000000D02*
X56000000Y-65000000D01*
X40300000Y-61800000D02*
X36700000Y-61800000D01*
X56000000Y-65000000D02*
X43500000Y-65000000D01*
X43500000Y-65000000D02*
X40300000Y-61800000D01*
X63000000Y-67000000D02*
X58000000Y-67000000D01*
X36700000Y-61800000D02*
X35500000Y-63000000D01*
%TO.N,GP19*%
X64500000Y-69500000D02*
X58000000Y-69500000D01*
X39500000Y-63000000D02*
X37500000Y-63000000D01*
X43050000Y-66550000D02*
X39500000Y-63000000D01*
X55050000Y-66550000D02*
X43050000Y-66550000D01*
X58000000Y-69500000D02*
X55050000Y-66550000D01*
D13*
%TO.N,GP20*%
X66500000Y-73500000D02*
X59500000Y-73500000D01*
X37500000Y-71500000D02*
X35500000Y-71500000D01*
X39500000Y-69500000D02*
X37500000Y-71500000D01*
X58500000Y-72500000D02*
X56500000Y-72500000D01*
X53500000Y-69500000D02*
X39500000Y-69500000D01*
X59500000Y-73500000D02*
X58500000Y-72500000D01*
X56500000Y-72500000D02*
X53500000Y-69500000D01*
%TO.N,GP21*%
X54500000Y-67500000D02*
X40000000Y-67500000D01*
X58000000Y-71000000D02*
X54500000Y-67500000D01*
X66500000Y-71000000D02*
X58000000Y-71000000D01*
X40000000Y-67500000D02*
X37500000Y-70000000D01*
%TD*%
%TA.AperFunction,Conductor*%
%TO.N,VSYS*%
G36*
X75008059Y-36501061D02*
G01*
X75113223Y-36514906D01*
X75144491Y-36523284D01*
X75234918Y-36560740D01*
X75262952Y-36576925D01*
X75340602Y-36636509D01*
X75363491Y-36659398D01*
X75423074Y-36737048D01*
X75439259Y-36765081D01*
X75476715Y-36855508D01*
X75485093Y-36886775D01*
X75498939Y-36991939D01*
X75500000Y-37008125D01*
X75500000Y-41491874D01*
X75498939Y-41508060D01*
X75485093Y-41613224D01*
X75476715Y-41644491D01*
X75439259Y-41734918D01*
X75423074Y-41762951D01*
X75363491Y-41840601D01*
X75340601Y-41863491D01*
X75262951Y-41923074D01*
X75234918Y-41939259D01*
X75144491Y-41976715D01*
X75113224Y-41985093D01*
X75019398Y-41997446D01*
X75008058Y-41998939D01*
X74991874Y-42000000D01*
X74000000Y-42000000D01*
X73891399Y-42352951D01*
X73891398Y-42352955D01*
X72111507Y-48137599D01*
X72104236Y-48155908D01*
X72047429Y-48271279D01*
X72024719Y-48303321D01*
X71941689Y-48387994D01*
X71910095Y-48411329D01*
X71804748Y-48465787D01*
X71767444Y-48478069D01*
X71653498Y-48496345D01*
X71640469Y-48498435D01*
X71620833Y-48500000D01*
X56258126Y-48500000D01*
X56241941Y-48498939D01*
X56228917Y-48497224D01*
X56136775Y-48485093D01*
X56105508Y-48476715D01*
X56015081Y-48439259D01*
X55987048Y-48423074D01*
X55909398Y-48363491D01*
X55886508Y-48340601D01*
X55826925Y-48262951D01*
X55810740Y-48234918D01*
X55773284Y-48144491D01*
X55764906Y-48113223D01*
X55751061Y-48008059D01*
X55750000Y-47991874D01*
X55750000Y-39999994D01*
X57594754Y-39999994D01*
X57594754Y-40000005D01*
X57613718Y-40301446D01*
X57613719Y-40301453D01*
X57670320Y-40598164D01*
X57763659Y-40885431D01*
X57763661Y-40885436D01*
X57892265Y-41158732D01*
X57892268Y-41158738D01*
X58054111Y-41413763D01*
X58054114Y-41413767D01*
X58054115Y-41413768D01*
X58219119Y-41613224D01*
X58246652Y-41646505D01*
X58466836Y-41853272D01*
X58466846Y-41853280D01*
X58711193Y-42030808D01*
X58711198Y-42030810D01*
X58711205Y-42030816D01*
X58975896Y-42176332D01*
X58975901Y-42176334D01*
X58975903Y-42176335D01*
X58975904Y-42176336D01*
X59256734Y-42287524D01*
X59256737Y-42287525D01*
X59354259Y-42312564D01*
X59549302Y-42362642D01*
X59696039Y-42381179D01*
X59848963Y-42400499D01*
X59848969Y-42400499D01*
X59848973Y-42400500D01*
X59848975Y-42400500D01*
X60151025Y-42400500D01*
X60151027Y-42400500D01*
X60151032Y-42400499D01*
X60151036Y-42400499D01*
X60230591Y-42390448D01*
X60450698Y-42362642D01*
X60743262Y-42287525D01*
X60743265Y-42287524D01*
X61024095Y-42176336D01*
X61024096Y-42176335D01*
X61024094Y-42176335D01*
X61024104Y-42176332D01*
X61288795Y-42030816D01*
X61533162Y-41853274D01*
X61753349Y-41646504D01*
X61945885Y-41413768D01*
X62107733Y-41158736D01*
X62236341Y-40885430D01*
X62329681Y-40598160D01*
X62386280Y-40301457D01*
X62405246Y-40000000D01*
X62386280Y-39698543D01*
X62329681Y-39401840D01*
X62236341Y-39114570D01*
X62107733Y-38841264D01*
X61945885Y-38586232D01*
X61753349Y-38353496D01*
X61533162Y-38146726D01*
X61533159Y-38146724D01*
X61533153Y-38146719D01*
X61288806Y-37969191D01*
X61288799Y-37969186D01*
X61288795Y-37969184D01*
X61024104Y-37823668D01*
X61024101Y-37823666D01*
X61024096Y-37823664D01*
X61024095Y-37823663D01*
X60743265Y-37712475D01*
X60743262Y-37712474D01*
X60450695Y-37637357D01*
X60151036Y-37599500D01*
X60151027Y-37599500D01*
X59848973Y-37599500D01*
X59848963Y-37599500D01*
X59549304Y-37637357D01*
X59256737Y-37712474D01*
X59256734Y-37712475D01*
X58975904Y-37823663D01*
X58975903Y-37823664D01*
X58711205Y-37969184D01*
X58711193Y-37969191D01*
X58466846Y-38146719D01*
X58466836Y-38146727D01*
X58246652Y-38353494D01*
X58054111Y-38586236D01*
X57892268Y-38841261D01*
X57892265Y-38841267D01*
X57763661Y-39114563D01*
X57763659Y-39114568D01*
X57670320Y-39401835D01*
X57613719Y-39698546D01*
X57613718Y-39698553D01*
X57594754Y-39999994D01*
X55750000Y-39999994D01*
X55750000Y-37008125D01*
X55751061Y-36991940D01*
X55764906Y-36886776D01*
X55773284Y-36855508D01*
X55810740Y-36765081D01*
X55826923Y-36737050D01*
X55886513Y-36659392D01*
X55909392Y-36636513D01*
X55987050Y-36576923D01*
X56015079Y-36560740D01*
X56105509Y-36523283D01*
X56136775Y-36514906D01*
X56241941Y-36501061D01*
X56258126Y-36500000D01*
X74991874Y-36500000D01*
X75008059Y-36501061D01*
G37*
%TD.AperFunction*%
%TD*%
%TA.AperFunction,Conductor*%
%TO.N,GND*%
G36*
X90943039Y-34019685D02*
G01*
X90988794Y-34072489D01*
X91000000Y-34124000D01*
X91000000Y-99876000D01*
X90980315Y-99943039D01*
X90927511Y-99988794D01*
X90876000Y-100000000D01*
X30124000Y-100000000D01*
X30056961Y-99980315D01*
X30011206Y-99927511D01*
X30000000Y-99876000D01*
X30000000Y-95999994D01*
X31495057Y-95999994D01*
X31495057Y-96000005D01*
X31514807Y-96313942D01*
X31514808Y-96313949D01*
X31573755Y-96622958D01*
X31670963Y-96922132D01*
X31670965Y-96922137D01*
X31804900Y-97206761D01*
X31804903Y-97206767D01*
X31973455Y-97472364D01*
X32128312Y-97659554D01*
X33123219Y-96664647D01*
X33160967Y-96716602D01*
X33283398Y-96839033D01*
X33335351Y-96876779D01*
X32340759Y-97871371D01*
X32340759Y-97871372D01*
X32403296Y-97930098D01*
X32657772Y-98114985D01*
X32657790Y-98114996D01*
X32933447Y-98266540D01*
X32933455Y-98266544D01*
X33225926Y-98382340D01*
X33530620Y-98460573D01*
X33530629Y-98460575D01*
X33842701Y-98499999D01*
X33842715Y-98500000D01*
X34157285Y-98500000D01*
X34157298Y-98499999D01*
X34469370Y-98460575D01*
X34469379Y-98460573D01*
X34774073Y-98382340D01*
X35066544Y-98266544D01*
X35066552Y-98266540D01*
X35342209Y-98114996D01*
X35342219Y-98114990D01*
X35596715Y-97930087D01*
X35659239Y-97871372D01*
X35659239Y-97871371D01*
X34664647Y-96876779D01*
X34716602Y-96839033D01*
X34839033Y-96716602D01*
X34876779Y-96664647D01*
X35871686Y-97659555D01*
X36026539Y-97472371D01*
X36026542Y-97472367D01*
X36195096Y-97206767D01*
X36195099Y-97206761D01*
X36329034Y-96922137D01*
X36329036Y-96922132D01*
X36426244Y-96622958D01*
X36485191Y-96313949D01*
X36485192Y-96313942D01*
X36504943Y-96000005D01*
X36504943Y-95999994D01*
X36485192Y-95686057D01*
X36485191Y-95686050D01*
X36426244Y-95377041D01*
X36329036Y-95077867D01*
X36329034Y-95077862D01*
X36195099Y-94793238D01*
X36195096Y-94793232D01*
X36026544Y-94527635D01*
X35871685Y-94340443D01*
X34876778Y-95335351D01*
X34839033Y-95283398D01*
X34716602Y-95160967D01*
X34664647Y-95123220D01*
X35659239Y-94128627D01*
X35659239Y-94128626D01*
X35596712Y-94069909D01*
X35596702Y-94069901D01*
X35342227Y-93885014D01*
X35342209Y-93885003D01*
X35066552Y-93733459D01*
X35066544Y-93733455D01*
X34774073Y-93617659D01*
X34469379Y-93539426D01*
X34469370Y-93539424D01*
X34157298Y-93500000D01*
X33842701Y-93500000D01*
X33530629Y-93539424D01*
X33530620Y-93539426D01*
X33225926Y-93617659D01*
X32933455Y-93733455D01*
X32933447Y-93733459D01*
X32657790Y-93885003D01*
X32657772Y-93885014D01*
X32403297Y-94069901D01*
X32403287Y-94069909D01*
X32340759Y-94128626D01*
X32340758Y-94128627D01*
X33335352Y-95123220D01*
X33283398Y-95160967D01*
X33160967Y-95283398D01*
X33123220Y-95335351D01*
X32128312Y-94340443D01*
X32128311Y-94340443D01*
X31973459Y-94527629D01*
X31973457Y-94527632D01*
X31804903Y-94793232D01*
X31804900Y-94793238D01*
X31670965Y-95077862D01*
X31670963Y-95077867D01*
X31573755Y-95377041D01*
X31514808Y-95686050D01*
X31514807Y-95686057D01*
X31495057Y-95999994D01*
X30000000Y-95999994D01*
X30000000Y-85089999D01*
X49714785Y-85089999D01*
X49714785Y-85090000D01*
X49733602Y-85293082D01*
X49789417Y-85489247D01*
X49789422Y-85489260D01*
X49880327Y-85671821D01*
X50003237Y-85834581D01*
X50153958Y-85971980D01*
X50153960Y-85971982D01*
X50167863Y-85980590D01*
X50327363Y-86079348D01*
X50517544Y-86153024D01*
X50718024Y-86190500D01*
X50718026Y-86190500D01*
X50921974Y-86190500D01*
X50921976Y-86190500D01*
X51122456Y-86153024D01*
X51312637Y-86079348D01*
X51486041Y-85971981D01*
X51636764Y-85834579D01*
X51759673Y-85671821D01*
X51850582Y-85489250D01*
X51906397Y-85293083D01*
X51925215Y-85090000D01*
X51906397Y-84886917D01*
X51850582Y-84690750D01*
X51759673Y-84508179D01*
X51636764Y-84345421D01*
X51636762Y-84345418D01*
X51486041Y-84208019D01*
X51486039Y-84208017D01*
X51312642Y-84100655D01*
X51312635Y-84100651D01*
X51217546Y-84063814D01*
X51122456Y-84026976D01*
X50921976Y-83989500D01*
X50718024Y-83989500D01*
X50517544Y-84026976D01*
X50517541Y-84026976D01*
X50517541Y-84026977D01*
X50327364Y-84100651D01*
X50327357Y-84100655D01*
X50153960Y-84208017D01*
X50153958Y-84208019D01*
X50003237Y-84345418D01*
X49880327Y-84508178D01*
X49789422Y-84690739D01*
X49789417Y-84690752D01*
X49733602Y-84886917D01*
X49714785Y-85089999D01*
X30000000Y-85089999D01*
X30000000Y-78740000D01*
X55294355Y-78740000D01*
X55314859Y-78908869D01*
X55314860Y-78908874D01*
X55375182Y-79067931D01*
X55437475Y-79158177D01*
X55471817Y-79207929D01*
X55506596Y-79238740D01*
X55599150Y-79320736D01*
X55749773Y-79399789D01*
X55749775Y-79399790D01*
X55914944Y-79440500D01*
X56085056Y-79440500D01*
X56250225Y-79399790D01*
X56372223Y-79335760D01*
X56400849Y-79320736D01*
X56400850Y-79320734D01*
X56400852Y-79320734D01*
X56528183Y-79207929D01*
X56624818Y-79067930D01*
X56648483Y-79005528D01*
X56690661Y-78949826D01*
X56756258Y-78925769D01*
X56764425Y-78925500D01*
X61772390Y-78925500D01*
X61839429Y-78945185D01*
X61860071Y-78961819D01*
X62538181Y-79639929D01*
X62571666Y-79701252D01*
X62574500Y-79727610D01*
X62574500Y-80885294D01*
X62554815Y-80952333D01*
X62532727Y-80978109D01*
X62471818Y-81032069D01*
X62375182Y-81172068D01*
X62314860Y-81331125D01*
X62314859Y-81331130D01*
X62294355Y-81500000D01*
X62314859Y-81668869D01*
X62314860Y-81668874D01*
X62375182Y-81827931D01*
X62437475Y-81918177D01*
X62471817Y-81967929D01*
X62577505Y-82061560D01*
X62599150Y-82080736D01*
X62749773Y-82159789D01*
X62749775Y-82159790D01*
X62914944Y-82200500D01*
X63085056Y-82200500D01*
X63250225Y-82159790D01*
X63329692Y-82118081D01*
X63400849Y-82080736D01*
X63400850Y-82080734D01*
X63400852Y-82080734D01*
X63528183Y-81967929D01*
X63624818Y-81827930D01*
X63685140Y-81668872D01*
X63705645Y-81500000D01*
X63685140Y-81331128D01*
X63624818Y-81172070D01*
X63528183Y-81032071D01*
X63528181Y-81032069D01*
X63467273Y-80978109D01*
X63430146Y-80918920D01*
X63425500Y-80885294D01*
X63425500Y-79443984D01*
X63425500Y-79443982D01*
X63396503Y-79335763D01*
X63396500Y-79335759D01*
X63396407Y-79335532D01*
X63396384Y-79335321D01*
X63394399Y-79327912D01*
X63395554Y-79327602D01*
X63388937Y-79266063D01*
X63420211Y-79203583D01*
X63480299Y-79167929D01*
X63550124Y-79170422D01*
X63598648Y-79200396D01*
X63881798Y-79483546D01*
X63915283Y-79544869D01*
X63910299Y-79614561D01*
X63896168Y-79641666D01*
X63875182Y-79672069D01*
X63814860Y-79831125D01*
X63814859Y-79831130D01*
X63794355Y-80000000D01*
X63814859Y-80168869D01*
X63814860Y-80168874D01*
X63875182Y-80327931D01*
X63937475Y-80418177D01*
X63971817Y-80467929D01*
X64077505Y-80561560D01*
X64099150Y-80580736D01*
X64249773Y-80659789D01*
X64249775Y-80659790D01*
X64414944Y-80700500D01*
X64585056Y-80700500D01*
X64750225Y-80659790D01*
X64829692Y-80618081D01*
X64900849Y-80580736D01*
X64900850Y-80580734D01*
X64900852Y-80580734D01*
X65028183Y-80467929D01*
X65124818Y-80327930D01*
X65185140Y-80168872D01*
X65205645Y-80000000D01*
X65185140Y-79831128D01*
X65124818Y-79672070D01*
X65103831Y-79641666D01*
X65028184Y-79532073D01*
X65028183Y-79532071D01*
X65028180Y-79532068D01*
X65028178Y-79532066D01*
X64952388Y-79464922D01*
X64915261Y-79405733D01*
X64914840Y-79404201D01*
X64896503Y-79335763D01*
X64840485Y-79238737D01*
X64012948Y-78411200D01*
X63979463Y-78349877D01*
X63984447Y-78280185D01*
X64026319Y-78224252D01*
X64078066Y-78203484D01*
X64077773Y-78202295D01*
X64085056Y-78200500D01*
X64250225Y-78159790D01*
X64329692Y-78118081D01*
X64400849Y-78080736D01*
X64400850Y-78080734D01*
X64400852Y-78080734D01*
X64528183Y-77967929D01*
X64624818Y-77827930D01*
X64685140Y-77668872D01*
X64705645Y-77500000D01*
X64685140Y-77331128D01*
X64624818Y-77172070D01*
X64556625Y-77073276D01*
X64534743Y-77006924D01*
X64552208Y-76939273D01*
X64556608Y-76932425D01*
X64637471Y-76815277D01*
X64697793Y-76656219D01*
X64718298Y-76487347D01*
X64697793Y-76318475D01*
X64637471Y-76159417D01*
X64540836Y-76019418D01*
X64413505Y-75906613D01*
X64413502Y-75906610D01*
X64262879Y-75827557D01*
X64097709Y-75786847D01*
X63965261Y-75786847D01*
X63898222Y-75767162D01*
X63877580Y-75750528D01*
X62786570Y-74659517D01*
X62786569Y-74659516D01*
X62786568Y-74659515D01*
X62689542Y-74603497D01*
X62581323Y-74574500D01*
X62581322Y-74574500D01*
X58227610Y-74574500D01*
X58160571Y-74554815D01*
X58139929Y-74538181D01*
X57737087Y-74135339D01*
X57703602Y-74074016D01*
X57701672Y-74032715D01*
X57705645Y-74000000D01*
X57685140Y-73831128D01*
X57624818Y-73672070D01*
X57622608Y-73668869D01*
X57590476Y-73622318D01*
X57528183Y-73532071D01*
X57400852Y-73419266D01*
X57400849Y-73419263D01*
X57250226Y-73340210D01*
X57085056Y-73299500D01*
X56914944Y-73299500D01*
X56749773Y-73340210D01*
X56599150Y-73419263D01*
X56471816Y-73532072D01*
X56375182Y-73672068D01*
X56314860Y-73831125D01*
X56314859Y-73831130D01*
X56294355Y-74000000D01*
X56314859Y-74168869D01*
X56314860Y-74168874D01*
X56375182Y-74327931D01*
X56437475Y-74418177D01*
X56471817Y-74467929D01*
X56569891Y-74554815D01*
X56599150Y-74580736D01*
X56749247Y-74659513D01*
X56749775Y-74659790D01*
X56914944Y-74700500D01*
X57047390Y-74700500D01*
X57114429Y-74720185D01*
X57135071Y-74736819D01*
X57738737Y-75340485D01*
X57835763Y-75396503D01*
X57943982Y-75425500D01*
X58056019Y-75425500D01*
X58309115Y-75425500D01*
X58376154Y-75445185D01*
X58421909Y-75497989D01*
X58431853Y-75567147D01*
X58411165Y-75619940D01*
X58375182Y-75672068D01*
X58314860Y-75831125D01*
X58314859Y-75831130D01*
X58294355Y-76000000D01*
X58314859Y-76168869D01*
X58314860Y-76168874D01*
X58375182Y-76327931D01*
X58437475Y-76418177D01*
X58471817Y-76467929D01*
X58577505Y-76561560D01*
X58599150Y-76580736D01*
X58742965Y-76656216D01*
X58749775Y-76659790D01*
X58914944Y-76700500D01*
X59085056Y-76700500D01*
X59250225Y-76659790D01*
X59329692Y-76618081D01*
X59400849Y-76580736D01*
X59400850Y-76580734D01*
X59400852Y-76580734D01*
X59528183Y-76467929D01*
X59528185Y-76467925D01*
X59528767Y-76467270D01*
X59529312Y-76466927D01*
X59533797Y-76462955D01*
X59534457Y-76463700D01*
X59587958Y-76430145D01*
X59621580Y-76425500D01*
X62272390Y-76425500D01*
X62339429Y-76445185D01*
X62360071Y-76461819D01*
X62799604Y-76901352D01*
X62833089Y-76962674D01*
X62828105Y-77032365D01*
X62786234Y-77088299D01*
X62720769Y-77112716D01*
X62672286Y-77104861D01*
X62672088Y-77105601D01*
X62664804Y-77103649D01*
X62664481Y-77103597D01*
X62664246Y-77103499D01*
X62598696Y-77085935D01*
X62556018Y-77074500D01*
X62556017Y-77074500D01*
X58621580Y-77074500D01*
X58554541Y-77054815D01*
X58533799Y-77037042D01*
X58533797Y-77037045D01*
X58533627Y-77036894D01*
X58528767Y-77032730D01*
X58528185Y-77032073D01*
X58400849Y-76919263D01*
X58250226Y-76840210D01*
X58085056Y-76799500D01*
X57914944Y-76799500D01*
X57749773Y-76840210D01*
X57599150Y-76919263D01*
X57471816Y-77032072D01*
X57375182Y-77172068D01*
X57314860Y-77331125D01*
X57314859Y-77331130D01*
X57294355Y-77500000D01*
X57314859Y-77668869D01*
X57314860Y-77668874D01*
X57375182Y-77827931D01*
X57411165Y-77880060D01*
X57433048Y-77946414D01*
X57415583Y-78014066D01*
X57364315Y-78061536D01*
X57309115Y-78074500D01*
X56242115Y-78074500D01*
X56212440Y-78070897D01*
X56085056Y-78039500D01*
X55914944Y-78039500D01*
X55749773Y-78080210D01*
X55599150Y-78159263D01*
X55471816Y-78272072D01*
X55375182Y-78412068D01*
X55314860Y-78571125D01*
X55314859Y-78571130D01*
X55294355Y-78740000D01*
X30000000Y-78740000D01*
X30000000Y-62921153D01*
X34699500Y-62921153D01*
X34699500Y-63078846D01*
X34730261Y-63233489D01*
X34730264Y-63233501D01*
X34790602Y-63379172D01*
X34790609Y-63379185D01*
X34878210Y-63510288D01*
X34878213Y-63510292D01*
X34989707Y-63621786D01*
X34989711Y-63621789D01*
X35120814Y-63709390D01*
X35120827Y-63709397D01*
X35266498Y-63769735D01*
X35266503Y-63769737D01*
X35421153Y-63800499D01*
X35421156Y-63800500D01*
X35421158Y-63800500D01*
X35578844Y-63800500D01*
X35578845Y-63800499D01*
X35733497Y-63769737D01*
X35879179Y-63709394D01*
X36010289Y-63621789D01*
X36511193Y-63120883D01*
X36572516Y-63087399D01*
X36642207Y-63092383D01*
X36698141Y-63134254D01*
X36720491Y-63184373D01*
X36730261Y-63233491D01*
X36730264Y-63233501D01*
X36790602Y-63379172D01*
X36790609Y-63379185D01*
X36878210Y-63510288D01*
X36878213Y-63510292D01*
X36989707Y-63621786D01*
X36989711Y-63621789D01*
X37120814Y-63709390D01*
X37120827Y-63709397D01*
X37266498Y-63769735D01*
X37266503Y-63769737D01*
X37421153Y-63800499D01*
X37421156Y-63800500D01*
X37421158Y-63800500D01*
X39117060Y-63800500D01*
X39184099Y-63820185D01*
X39204741Y-63836819D01*
X42105741Y-66737819D01*
X42139226Y-66799142D01*
X42134242Y-66868834D01*
X42092370Y-66924767D01*
X42026906Y-66949184D01*
X42018060Y-66949500D01*
X39927525Y-66949500D01*
X39822517Y-66977637D01*
X39787514Y-66987016D01*
X39661986Y-67059489D01*
X39661983Y-67059491D01*
X37448718Y-69272756D01*
X37390712Y-69305472D01*
X37249773Y-69340210D01*
X37099150Y-69419263D01*
X36971816Y-69532072D01*
X36875182Y-69672068D01*
X36814860Y-69831125D01*
X36814859Y-69831130D01*
X36794355Y-70000000D01*
X36814859Y-70168869D01*
X36814860Y-70168874D01*
X36875182Y-70327931D01*
X36883658Y-70340210D01*
X36971817Y-70467929D01*
X37044219Y-70532071D01*
X37099150Y-70580736D01*
X37249774Y-70659790D01*
X37272405Y-70665367D01*
X37286538Y-70668851D01*
X37346919Y-70704006D01*
X37378708Y-70766225D01*
X37371813Y-70835754D01*
X37344546Y-70876928D01*
X37308295Y-70913180D01*
X37246973Y-70946666D01*
X37220613Y-70949500D01*
X35982006Y-70949500D01*
X35914967Y-70929815D01*
X35902925Y-70920697D01*
X35900845Y-70919261D01*
X35750226Y-70840210D01*
X35585056Y-70799500D01*
X35414944Y-70799500D01*
X35249773Y-70840210D01*
X35099150Y-70919263D01*
X34971816Y-71032072D01*
X34875182Y-71172068D01*
X34814860Y-71331125D01*
X34814859Y-71331130D01*
X34801578Y-71440510D01*
X34794355Y-71500000D01*
X34795932Y-71512984D01*
X34814859Y-71668869D01*
X34814860Y-71668874D01*
X34875182Y-71827931D01*
X34934027Y-71913181D01*
X34971817Y-71967929D01*
X35022673Y-72012983D01*
X35099150Y-72080736D01*
X35249773Y-72159789D01*
X35249775Y-72159790D01*
X35414944Y-72200500D01*
X35585056Y-72200500D01*
X35750225Y-72159790D01*
X35839547Y-72112909D01*
X35900845Y-72080738D01*
X35900846Y-72080736D01*
X35900852Y-72080734D01*
X35900856Y-72080730D01*
X35907020Y-72076476D01*
X35907960Y-72077839D01*
X35963011Y-72051963D01*
X35982006Y-72050500D01*
X37572472Y-72050500D01*
X37572474Y-72050500D01*
X37572475Y-72050500D01*
X37712485Y-72012984D01*
X37757463Y-71987016D01*
X37838015Y-71940510D01*
X39691706Y-70086819D01*
X39753029Y-70053334D01*
X39779387Y-70050500D01*
X53220613Y-70050500D01*
X53287652Y-70070185D01*
X53308294Y-70086819D01*
X54771976Y-71550500D01*
X56161986Y-72940510D01*
X56242537Y-72987016D01*
X56287515Y-73012984D01*
X56427525Y-73050500D01*
X56427526Y-73050500D01*
X56572474Y-73050500D01*
X58220613Y-73050500D01*
X58287652Y-73070185D01*
X58308294Y-73086819D01*
X58753547Y-73532071D01*
X59161986Y-73940510D01*
X59265026Y-74000000D01*
X59287515Y-74012984D01*
X59427525Y-74050500D01*
X59427526Y-74050500D01*
X59572475Y-74050500D01*
X66017994Y-74050500D01*
X66085033Y-74070185D01*
X66097074Y-74079302D01*
X66099154Y-74080738D01*
X66249773Y-74159789D01*
X66249775Y-74159790D01*
X66414944Y-74200500D01*
X66585056Y-74200500D01*
X66750225Y-74159790D01*
X66878154Y-74092647D01*
X66900849Y-74080736D01*
X66900850Y-74080734D01*
X66900852Y-74080734D01*
X67028183Y-73967929D01*
X67124818Y-73827930D01*
X67185140Y-73668872D01*
X67205645Y-73500000D01*
X67185140Y-73331128D01*
X67124818Y-73172070D01*
X67028183Y-73032071D01*
X66924829Y-72940508D01*
X66900849Y-72919263D01*
X66750226Y-72840210D01*
X66585056Y-72799500D01*
X66414944Y-72799500D01*
X66249773Y-72840210D01*
X66099154Y-72919261D01*
X66092980Y-72923524D01*
X66092039Y-72922160D01*
X66036989Y-72948037D01*
X66017994Y-72949500D01*
X59779386Y-72949500D01*
X59712347Y-72929815D01*
X59691705Y-72913181D01*
X58838016Y-72059491D01*
X58838015Y-72059490D01*
X58712485Y-71987016D01*
X58641252Y-71967929D01*
X58641251Y-71967928D01*
X58590903Y-71954437D01*
X58572475Y-71949500D01*
X58572474Y-71949500D01*
X56779386Y-71949500D01*
X56712347Y-71929815D01*
X56691705Y-71913181D01*
X53838016Y-69059491D01*
X53838015Y-69059490D01*
X53712485Y-68987016D01*
X53712486Y-68987016D01*
X53677482Y-68977637D01*
X53572475Y-68949500D01*
X39628386Y-68949500D01*
X39561347Y-68929815D01*
X39515592Y-68877011D01*
X39505648Y-68807853D01*
X39534673Y-68744297D01*
X39540705Y-68737819D01*
X40191706Y-68086819D01*
X40253029Y-68053334D01*
X40279387Y-68050500D01*
X54220613Y-68050500D01*
X54287652Y-68070185D01*
X54308294Y-68086819D01*
X57661985Y-71440510D01*
X57765026Y-71500000D01*
X57787515Y-71512984D01*
X57927525Y-71550500D01*
X66017994Y-71550500D01*
X66085033Y-71570185D01*
X66097074Y-71579302D01*
X66099154Y-71580738D01*
X66249773Y-71659789D01*
X66249775Y-71659790D01*
X66414944Y-71700500D01*
X66585056Y-71700500D01*
X66750225Y-71659790D01*
X66829692Y-71618081D01*
X66900849Y-71580736D01*
X66900850Y-71580734D01*
X66900852Y-71580734D01*
X67028183Y-71467929D01*
X67124818Y-71327930D01*
X67185140Y-71168872D01*
X67205645Y-71000000D01*
X67185140Y-70831128D01*
X67124818Y-70672070D01*
X67028183Y-70532071D01*
X66933316Y-70448026D01*
X66900849Y-70419263D01*
X66750226Y-70340210D01*
X66585056Y-70299500D01*
X66414944Y-70299500D01*
X66249773Y-70340210D01*
X66099154Y-70419261D01*
X66092980Y-70423524D01*
X66092039Y-70422160D01*
X66036989Y-70448037D01*
X66017994Y-70449500D01*
X64922902Y-70449500D01*
X64855863Y-70429815D01*
X64810108Y-70377011D01*
X64800164Y-70307853D01*
X64829189Y-70244297D01*
X64875451Y-70210938D01*
X64879179Y-70209394D01*
X65010289Y-70121789D01*
X65121789Y-70010289D01*
X65209394Y-69879179D01*
X65229299Y-69831125D01*
X65269737Y-69733497D01*
X65269737Y-69733495D01*
X65300500Y-69578842D01*
X65300500Y-69421158D01*
X65300500Y-69421155D01*
X65300499Y-69421153D01*
X65277488Y-69305472D01*
X65269737Y-69266503D01*
X65269735Y-69266498D01*
X65209397Y-69120827D01*
X65209390Y-69120814D01*
X65121789Y-68989711D01*
X65121786Y-68989707D01*
X65010292Y-68878213D01*
X65010288Y-68878210D01*
X64879185Y-68790609D01*
X64879172Y-68790602D01*
X64733501Y-68730264D01*
X64733489Y-68730261D01*
X64578845Y-68699500D01*
X64578842Y-68699500D01*
X58382940Y-68699500D01*
X58315901Y-68679815D01*
X58295259Y-68663181D01*
X57584745Y-67952666D01*
X57551260Y-67891343D01*
X57556244Y-67821651D01*
X57598116Y-67765718D01*
X57663580Y-67741301D01*
X57719874Y-67750423D01*
X57766503Y-67769737D01*
X57921153Y-67800499D01*
X57921156Y-67800500D01*
X57921158Y-67800500D01*
X63078844Y-67800500D01*
X63078845Y-67800499D01*
X63233497Y-67769737D01*
X63379179Y-67709394D01*
X63510289Y-67621789D01*
X63621789Y-67510289D01*
X63709394Y-67379179D01*
X63769737Y-67233497D01*
X63800500Y-67078842D01*
X63800500Y-66921158D01*
X63800500Y-66921155D01*
X63800499Y-66921153D01*
X63769738Y-66766510D01*
X63769737Y-66766503D01*
X63757856Y-66737819D01*
X63709397Y-66620827D01*
X63709390Y-66620814D01*
X63621789Y-66489711D01*
X63621786Y-66489707D01*
X63510292Y-66378213D01*
X63510288Y-66378210D01*
X63379185Y-66290609D01*
X63379172Y-66290602D01*
X63233501Y-66230264D01*
X63233489Y-66230261D01*
X63078845Y-66199500D01*
X63078842Y-66199500D01*
X58382940Y-66199500D01*
X58315901Y-66179815D01*
X58295259Y-66163181D01*
X56510292Y-64378213D01*
X56510288Y-64378210D01*
X56379185Y-64290609D01*
X56379172Y-64290602D01*
X56233501Y-64230264D01*
X56233489Y-64230261D01*
X56078845Y-64199500D01*
X56078842Y-64199500D01*
X43882940Y-64199500D01*
X43815901Y-64179815D01*
X43795259Y-64163181D01*
X40810292Y-61178213D01*
X40810288Y-61178210D01*
X40679185Y-61090609D01*
X40679172Y-61090602D01*
X40533501Y-61030264D01*
X40533489Y-61030261D01*
X40378845Y-60999500D01*
X40378842Y-60999500D01*
X36778842Y-60999500D01*
X36621157Y-60999500D01*
X36621155Y-60999500D01*
X36466508Y-61030261D01*
X36466498Y-61030264D01*
X36320827Y-61090602D01*
X36320814Y-61090609D01*
X36189712Y-61178209D01*
X36133962Y-61233960D01*
X36078211Y-61289711D01*
X36078209Y-61289713D01*
X34878213Y-62489707D01*
X34878210Y-62489711D01*
X34790609Y-62620814D01*
X34790602Y-62620827D01*
X34730264Y-62766498D01*
X34730261Y-62766510D01*
X34699500Y-62921153D01*
X30000000Y-62921153D01*
X30000000Y-54500000D01*
X34794355Y-54500000D01*
X34814859Y-54668869D01*
X34814860Y-54668874D01*
X34875182Y-54827931D01*
X34883658Y-54840210D01*
X34971817Y-54967929D01*
X35044219Y-55032071D01*
X35099150Y-55080736D01*
X35249773Y-55159789D01*
X35249775Y-55159790D01*
X35414944Y-55200500D01*
X35585056Y-55200500D01*
X35750225Y-55159790D01*
X35829692Y-55118081D01*
X35900849Y-55080736D01*
X35900850Y-55080734D01*
X35900852Y-55080734D01*
X36028183Y-54967929D01*
X36124818Y-54827930D01*
X36185140Y-54668872D01*
X36190414Y-54625428D01*
X36218034Y-54561252D01*
X36225818Y-54552704D01*
X36691705Y-54086819D01*
X36753028Y-54053334D01*
X36779386Y-54050500D01*
X41970613Y-54050500D01*
X42037652Y-54070185D01*
X42058294Y-54086819D01*
X47911985Y-59940510D01*
X48037515Y-60012984D01*
X48177525Y-60050500D01*
X62220613Y-60050500D01*
X62287652Y-60070185D01*
X62308294Y-60086819D01*
X72413181Y-70191706D01*
X72446666Y-70253029D01*
X72449500Y-70279387D01*
X72449500Y-83458362D01*
X72437367Y-83499678D01*
X72447821Y-83521298D01*
X72449500Y-83541637D01*
X72449500Y-85044175D01*
X72429815Y-85111214D01*
X72377011Y-85156969D01*
X72307853Y-85166913D01*
X72244297Y-85137888D01*
X72206523Y-85079110D01*
X72202029Y-85055616D01*
X72186397Y-84886917D01*
X72185852Y-84885003D01*
X72130582Y-84690750D01*
X72039673Y-84508179D01*
X71916764Y-84345421D01*
X71916762Y-84345418D01*
X71857448Y-84291347D01*
X71821166Y-84231636D01*
X71822927Y-84161789D01*
X71862170Y-84103981D01*
X71883360Y-84089914D01*
X71900852Y-84080734D01*
X72028183Y-83967929D01*
X72124818Y-83827930D01*
X72185140Y-83668872D01*
X72202404Y-83526689D01*
X72212663Y-83502852D01*
X72206523Y-83493297D01*
X72202404Y-83473309D01*
X72185140Y-83331130D01*
X72185139Y-83331125D01*
X72124817Y-83172068D01*
X72072450Y-83096201D01*
X72050567Y-83029846D01*
X72050500Y-83025761D01*
X72050500Y-72427527D01*
X72050500Y-72427525D01*
X72012984Y-72287515D01*
X71962746Y-72200500D01*
X71940510Y-72161985D01*
X61338015Y-61559490D01*
X61212485Y-61487016D01*
X61212486Y-61487016D01*
X61177482Y-61477637D01*
X61072475Y-61449500D01*
X61072472Y-61449500D01*
X48779387Y-61449500D01*
X48712348Y-61429815D01*
X48691706Y-61413181D01*
X42338016Y-55059491D01*
X42338015Y-55059490D01*
X42212485Y-54987016D01*
X42141252Y-54967929D01*
X42141251Y-54967928D01*
X42090903Y-54954437D01*
X42072475Y-54949500D01*
X42072474Y-54949500D01*
X37982006Y-54949500D01*
X37914967Y-54929815D01*
X37902925Y-54920697D01*
X37900845Y-54919261D01*
X37750226Y-54840210D01*
X37585056Y-54799500D01*
X37414944Y-54799500D01*
X37249773Y-54840210D01*
X37099150Y-54919263D01*
X36971816Y-55032072D01*
X36875182Y-55172068D01*
X36814860Y-55331125D01*
X36814859Y-55331130D01*
X36794355Y-55500000D01*
X36814859Y-55668869D01*
X36814860Y-55668874D01*
X36875182Y-55827931D01*
X36937475Y-55918177D01*
X36971817Y-55967929D01*
X37065021Y-56050500D01*
X37099150Y-56080736D01*
X37249773Y-56159789D01*
X37249775Y-56159790D01*
X37414944Y-56200500D01*
X37585056Y-56200500D01*
X37750225Y-56159790D01*
X37839547Y-56112909D01*
X37900845Y-56080738D01*
X37900846Y-56080736D01*
X37900852Y-56080734D01*
X37900856Y-56080730D01*
X37907020Y-56076476D01*
X37907960Y-56077839D01*
X37963011Y-56051963D01*
X37982006Y-56050500D01*
X41720613Y-56050500D01*
X41787652Y-56070185D01*
X41808294Y-56086819D01*
X48161985Y-62440510D01*
X48247205Y-62489711D01*
X48287515Y-62512984D01*
X48427525Y-62550500D01*
X60720613Y-62550500D01*
X60787652Y-62570185D01*
X60808294Y-62586819D01*
X70913181Y-72691706D01*
X70946666Y-72753029D01*
X70949500Y-72779387D01*
X70949500Y-83025761D01*
X70929815Y-83092800D01*
X70927550Y-83096201D01*
X70875183Y-83172068D01*
X70875182Y-83172068D01*
X70814860Y-83331125D01*
X70814859Y-83331130D01*
X70794355Y-83500000D01*
X70814859Y-83668869D01*
X70814860Y-83668874D01*
X70875182Y-83827931D01*
X70875184Y-83827933D01*
X70879476Y-83834152D01*
X70901357Y-83900507D01*
X70883890Y-83968158D01*
X70832620Y-84015627D01*
X70800215Y-84026476D01*
X70797546Y-84026974D01*
X70607364Y-84100651D01*
X70607357Y-84100655D01*
X70433960Y-84208017D01*
X70433958Y-84208019D01*
X70283237Y-84345418D01*
X70160327Y-84508178D01*
X70069422Y-84690739D01*
X70069417Y-84690752D01*
X70013602Y-84886917D01*
X69994785Y-85089999D01*
X69994785Y-85090000D01*
X70013602Y-85293082D01*
X70069417Y-85489247D01*
X70069422Y-85489260D01*
X70160327Y-85671821D01*
X70283237Y-85834581D01*
X70433958Y-85971980D01*
X70433960Y-85971982D01*
X70447863Y-85980590D01*
X70607363Y-86079348D01*
X70797544Y-86153024D01*
X70998024Y-86190500D01*
X70998026Y-86190500D01*
X71032643Y-86190500D01*
X71099682Y-86210185D01*
X71145437Y-86262989D01*
X71155381Y-86332147D01*
X71126356Y-86395703D01*
X71103083Y-86416550D01*
X71099150Y-86419264D01*
X70971816Y-86532072D01*
X70875182Y-86672068D01*
X70814860Y-86831125D01*
X70814859Y-86831130D01*
X70794355Y-87000000D01*
X70814859Y-87168869D01*
X70814860Y-87168874D01*
X70875182Y-87327931D01*
X70937475Y-87418177D01*
X70971817Y-87467929D01*
X71077505Y-87561560D01*
X71099150Y-87580736D01*
X71249773Y-87659789D01*
X71249775Y-87659790D01*
X71414944Y-87700500D01*
X71585056Y-87700500D01*
X71750225Y-87659790D01*
X71829692Y-87618081D01*
X71900849Y-87580736D01*
X71900850Y-87580734D01*
X71900852Y-87580734D01*
X72028183Y-87467929D01*
X72124818Y-87327930D01*
X72185140Y-87168872D01*
X72190414Y-87125429D01*
X72218034Y-87061252D01*
X72225818Y-87052705D01*
X72278529Y-86999994D01*
X84495057Y-86999994D01*
X84495057Y-87000005D01*
X84514807Y-87313942D01*
X84514808Y-87313949D01*
X84573755Y-87622958D01*
X84670963Y-87922132D01*
X84670965Y-87922137D01*
X84804900Y-88206761D01*
X84804903Y-88206767D01*
X84973455Y-88472364D01*
X85128312Y-88659554D01*
X86123219Y-87664647D01*
X86160967Y-87716602D01*
X86283398Y-87839033D01*
X86335351Y-87876779D01*
X85340759Y-88871371D01*
X85340759Y-88871372D01*
X85403296Y-88930098D01*
X85657772Y-89114985D01*
X85657790Y-89114996D01*
X85933447Y-89266540D01*
X85933455Y-89266544D01*
X86225926Y-89382340D01*
X86530620Y-89460573D01*
X86530629Y-89460575D01*
X86842701Y-89499999D01*
X86842715Y-89500000D01*
X87157285Y-89500000D01*
X87157298Y-89499999D01*
X87469370Y-89460575D01*
X87469379Y-89460573D01*
X87774073Y-89382340D01*
X88066544Y-89266544D01*
X88066552Y-89266540D01*
X88342209Y-89114996D01*
X88342219Y-89114990D01*
X88596715Y-88930087D01*
X88659239Y-88871372D01*
X88659239Y-88871371D01*
X87664647Y-87876779D01*
X87716602Y-87839033D01*
X87839033Y-87716602D01*
X87876779Y-87664648D01*
X88871686Y-88659555D01*
X89026539Y-88472371D01*
X89026542Y-88472367D01*
X89195096Y-88206767D01*
X89195099Y-88206761D01*
X89329034Y-87922137D01*
X89329036Y-87922132D01*
X89426244Y-87622958D01*
X89485191Y-87313949D01*
X89485192Y-87313942D01*
X89504943Y-87000005D01*
X89504943Y-86999994D01*
X89485192Y-86686057D01*
X89485191Y-86686050D01*
X89426244Y-86377041D01*
X89329036Y-86077867D01*
X89329034Y-86077862D01*
X89195099Y-85793238D01*
X89195096Y-85793232D01*
X89026544Y-85527635D01*
X88871685Y-85340443D01*
X87876778Y-86335351D01*
X87839033Y-86283398D01*
X87716602Y-86160967D01*
X87664647Y-86123220D01*
X88659239Y-85128627D01*
X88659239Y-85128626D01*
X88596712Y-85069909D01*
X88596702Y-85069901D01*
X88342227Y-84885014D01*
X88342209Y-84885003D01*
X88066552Y-84733459D01*
X88066544Y-84733455D01*
X87774073Y-84617659D01*
X87469379Y-84539426D01*
X87469370Y-84539424D01*
X87157298Y-84500000D01*
X86842701Y-84500000D01*
X86530629Y-84539424D01*
X86530620Y-84539426D01*
X86225926Y-84617659D01*
X85933455Y-84733455D01*
X85933447Y-84733459D01*
X85657790Y-84885003D01*
X85657772Y-84885014D01*
X85403297Y-85069901D01*
X85403287Y-85069909D01*
X85340759Y-85128626D01*
X85340758Y-85128627D01*
X86335352Y-86123220D01*
X86283398Y-86160967D01*
X86160967Y-86283398D01*
X86123220Y-86335351D01*
X85128312Y-85340443D01*
X85128311Y-85340443D01*
X84973459Y-85527629D01*
X84973457Y-85527632D01*
X84804903Y-85793232D01*
X84804900Y-85793238D01*
X84670965Y-86077862D01*
X84670963Y-86077867D01*
X84573755Y-86377041D01*
X84514808Y-86686050D01*
X84514807Y-86686057D01*
X84495057Y-86999994D01*
X72278529Y-86999994D01*
X73440510Y-85838015D01*
X73512984Y-85712485D01*
X73525966Y-85664035D01*
X73550500Y-85572475D01*
X73550500Y-69927525D01*
X73512984Y-69787515D01*
X73481797Y-69733497D01*
X73440510Y-69661985D01*
X62838015Y-59059490D01*
X62712485Y-58987016D01*
X62712486Y-58987016D01*
X62677482Y-58977637D01*
X62572475Y-58949500D01*
X62572472Y-58949500D01*
X48529387Y-58949500D01*
X48462348Y-58929815D01*
X48441706Y-58913181D01*
X42588016Y-53059491D01*
X42588015Y-53059490D01*
X42462485Y-52987016D01*
X42462486Y-52987016D01*
X42427482Y-52977637D01*
X42322475Y-52949500D01*
X36427525Y-52949500D01*
X36343519Y-52972009D01*
X36287513Y-52987016D01*
X36287512Y-52987017D01*
X36161989Y-53059487D01*
X36161984Y-53059491D01*
X35448718Y-53772756D01*
X35390712Y-53805472D01*
X35249773Y-53840210D01*
X35099150Y-53919263D01*
X34971816Y-54032072D01*
X34875182Y-54172068D01*
X34814860Y-54331125D01*
X34814859Y-54331130D01*
X34794355Y-54500000D01*
X30000000Y-54500000D01*
X30000000Y-47421153D01*
X34699500Y-47421153D01*
X34699500Y-47578846D01*
X34730261Y-47733489D01*
X34730264Y-47733501D01*
X34790602Y-47879172D01*
X34790609Y-47879185D01*
X34878210Y-48010288D01*
X34878213Y-48010292D01*
X34989707Y-48121786D01*
X34989711Y-48121789D01*
X35120814Y-48209390D01*
X35120827Y-48209397D01*
X35266498Y-48269735D01*
X35266503Y-48269737D01*
X35421153Y-48300499D01*
X35421156Y-48300500D01*
X35421158Y-48300500D01*
X39617060Y-48300500D01*
X39684099Y-48320185D01*
X39704741Y-48336819D01*
X43878211Y-52510289D01*
X43944398Y-52576476D01*
X43989712Y-52621790D01*
X44120814Y-52709390D01*
X44120827Y-52709397D01*
X44266498Y-52769735D01*
X44266503Y-52769737D01*
X44421153Y-52800499D01*
X44421156Y-52800500D01*
X44421158Y-52800500D01*
X49277060Y-52800500D01*
X49344099Y-52820185D01*
X49364741Y-52836819D01*
X50489705Y-53961784D01*
X50489712Y-53961790D01*
X50620819Y-54049392D01*
X50620820Y-54049392D01*
X50620821Y-54049393D01*
X50766503Y-54109737D01*
X50766507Y-54109737D01*
X50766508Y-54109738D01*
X50921154Y-54140500D01*
X50921157Y-54140500D01*
X51078844Y-54140500D01*
X51078845Y-54140499D01*
X51233497Y-54109737D01*
X51379179Y-54049393D01*
X51510289Y-53961789D01*
X51621789Y-53850289D01*
X51709393Y-53719179D01*
X51769737Y-53573497D01*
X51800500Y-53418842D01*
X51800500Y-53261157D01*
X51800500Y-53261154D01*
X51769738Y-53106508D01*
X51769737Y-53106507D01*
X51769737Y-53106503D01*
X51709393Y-52960821D01*
X51626538Y-52836819D01*
X51621790Y-52829712D01*
X51621784Y-52829705D01*
X50516463Y-51724384D01*
X50482978Y-51663061D01*
X50487962Y-51593369D01*
X50529834Y-51537436D01*
X50595298Y-51513019D01*
X50651597Y-51522142D01*
X50766503Y-51569738D01*
X50921153Y-51600499D01*
X50921157Y-51600500D01*
X50921158Y-51600500D01*
X51078844Y-51600500D01*
X51078845Y-51600499D01*
X51233498Y-51569738D01*
X51379179Y-51509394D01*
X51510290Y-51421789D01*
X51621789Y-51310290D01*
X51709394Y-51179179D01*
X51769738Y-51033498D01*
X51800500Y-50878843D01*
X51800500Y-50721158D01*
X51769738Y-50566503D01*
X51742191Y-50500000D01*
X57794355Y-50500000D01*
X57814859Y-50668869D01*
X57814860Y-50668874D01*
X57875182Y-50827931D01*
X57937475Y-50918177D01*
X57971817Y-50967929D01*
X58065021Y-51050500D01*
X58099150Y-51080736D01*
X58212456Y-51140204D01*
X58262669Y-51188789D01*
X58278643Y-51256808D01*
X58255308Y-51322665D01*
X58212456Y-51359796D01*
X58099150Y-51419263D01*
X57971816Y-51532072D01*
X57875182Y-51672068D01*
X57814860Y-51831125D01*
X57814859Y-51831130D01*
X57794355Y-52000000D01*
X57814859Y-52168869D01*
X57814860Y-52168874D01*
X57875182Y-52327931D01*
X57937475Y-52418177D01*
X57971817Y-52467929D01*
X58019632Y-52510289D01*
X58099150Y-52580736D01*
X58249773Y-52659789D01*
X58249775Y-52659790D01*
X58414944Y-52700500D01*
X58585056Y-52700500D01*
X58750225Y-52659790D01*
X58839547Y-52612909D01*
X58900845Y-52580738D01*
X58900846Y-52580736D01*
X58900852Y-52580734D01*
X58900856Y-52580730D01*
X58907020Y-52576476D01*
X58907960Y-52577839D01*
X58963011Y-52551963D01*
X58982006Y-52550500D01*
X76497472Y-52550500D01*
X76497474Y-52550500D01*
X76497475Y-52550500D01*
X76637485Y-52512984D01*
X76659108Y-52500500D01*
X76763015Y-52440510D01*
X78476283Y-50727241D01*
X78534286Y-50694527D01*
X78675225Y-50659790D01*
X78825849Y-50580736D01*
X78825850Y-50580734D01*
X78825852Y-50580734D01*
X78953183Y-50467929D01*
X79049818Y-50327930D01*
X79110140Y-50168872D01*
X79130645Y-50000000D01*
X79110140Y-49831128D01*
X79049818Y-49672070D01*
X78953183Y-49532071D01*
X78825852Y-49419266D01*
X78825849Y-49419263D01*
X78675227Y-49340210D01*
X78638459Y-49331148D01*
X78578079Y-49295991D01*
X78546291Y-49233772D01*
X78553187Y-49164243D01*
X78580452Y-49123072D01*
X80116706Y-47586819D01*
X80178029Y-47553334D01*
X80204387Y-47550500D01*
X80942994Y-47550500D01*
X81010033Y-47570185D01*
X81022074Y-47579302D01*
X81024154Y-47580738D01*
X81174773Y-47659789D01*
X81174775Y-47659790D01*
X81339944Y-47700500D01*
X81510056Y-47700500D01*
X81675225Y-47659790D01*
X81754692Y-47618081D01*
X81825849Y-47580736D01*
X81825850Y-47580734D01*
X81825852Y-47580734D01*
X81953183Y-47467929D01*
X82049818Y-47327930D01*
X82110140Y-47168872D01*
X82130645Y-47000000D01*
X82110140Y-46831128D01*
X82098524Y-46800500D01*
X82060221Y-46699500D01*
X82049818Y-46672070D01*
X81953183Y-46532071D01*
X81858316Y-46448026D01*
X81825849Y-46419263D01*
X81675226Y-46340210D01*
X81510056Y-46299500D01*
X81339944Y-46299500D01*
X81174773Y-46340210D01*
X81024154Y-46419261D01*
X81017980Y-46423524D01*
X81017039Y-46422160D01*
X80961989Y-46448037D01*
X80942994Y-46449500D01*
X79852525Y-46449500D01*
X79747517Y-46477637D01*
X79712514Y-46487016D01*
X79586986Y-46559489D01*
X79586983Y-46559491D01*
X76233294Y-49913181D01*
X76171971Y-49946666D01*
X76145613Y-49949500D01*
X58982006Y-49949500D01*
X58914967Y-49929815D01*
X58902925Y-49920697D01*
X58900845Y-49919261D01*
X58750226Y-49840210D01*
X58585056Y-49799500D01*
X58414944Y-49799500D01*
X58249773Y-49840210D01*
X58099150Y-49919263D01*
X57971816Y-50032072D01*
X57875182Y-50172068D01*
X57814860Y-50331125D01*
X57814859Y-50331130D01*
X57794355Y-50500000D01*
X51742191Y-50500000D01*
X51709394Y-50420821D01*
X51709392Y-50420818D01*
X51709390Y-50420814D01*
X51621789Y-50289711D01*
X51621786Y-50289707D01*
X50210292Y-48878213D01*
X50210288Y-48878210D01*
X50079185Y-48790609D01*
X50079172Y-48790602D01*
X49933501Y-48730264D01*
X49933489Y-48730261D01*
X49778845Y-48699500D01*
X49778842Y-48699500D01*
X44882940Y-48699500D01*
X44815901Y-48679815D01*
X44795259Y-48663181D01*
X41510292Y-45378213D01*
X41510288Y-45378210D01*
X41379185Y-45290609D01*
X41379172Y-45290602D01*
X41233501Y-45230264D01*
X41233489Y-45230261D01*
X41078845Y-45199500D01*
X41078842Y-45199500D01*
X37421158Y-45199500D01*
X37421155Y-45199500D01*
X37266510Y-45230261D01*
X37266498Y-45230264D01*
X37120827Y-45290602D01*
X37120814Y-45290609D01*
X36989711Y-45378210D01*
X36989707Y-45378213D01*
X36878213Y-45489707D01*
X36878210Y-45489711D01*
X36790609Y-45620814D01*
X36790602Y-45620827D01*
X36730264Y-45766498D01*
X36730261Y-45766510D01*
X36699500Y-45921153D01*
X36699500Y-46078846D01*
X36730261Y-46233489D01*
X36730264Y-46233501D01*
X36790602Y-46379172D01*
X36790609Y-46379185D01*
X36875752Y-46506609D01*
X36896630Y-46573286D01*
X36878146Y-46640666D01*
X36826167Y-46687357D01*
X36772650Y-46699500D01*
X35421155Y-46699500D01*
X35266510Y-46730261D01*
X35266498Y-46730264D01*
X35120827Y-46790602D01*
X35120814Y-46790609D01*
X34989711Y-46878210D01*
X34989707Y-46878213D01*
X34878213Y-46989707D01*
X34878210Y-46989711D01*
X34790609Y-47120814D01*
X34790602Y-47120827D01*
X34730264Y-47266498D01*
X34730261Y-47266510D01*
X34699500Y-47421153D01*
X30000000Y-47421153D01*
X30000000Y-39500000D01*
X34794355Y-39500000D01*
X34814859Y-39668869D01*
X34814860Y-39668874D01*
X34875182Y-39827931D01*
X34934197Y-39913428D01*
X34971817Y-39967929D01*
X35062920Y-40048639D01*
X35099150Y-40080736D01*
X35249774Y-40159790D01*
X35249773Y-40159790D01*
X35339902Y-40182004D01*
X35390711Y-40194527D01*
X35448718Y-40227243D01*
X36394489Y-41173014D01*
X36499849Y-41233843D01*
X36520019Y-41245488D01*
X36660029Y-41283004D01*
X36660030Y-41283004D01*
X36804978Y-41283004D01*
X49779092Y-41283004D01*
X49846131Y-41302689D01*
X49881140Y-41336563D01*
X49971817Y-41467929D01*
X50077505Y-41561560D01*
X50099150Y-41580736D01*
X50237032Y-41653102D01*
X50249775Y-41659790D01*
X50414944Y-41700500D01*
X50585056Y-41700500D01*
X50750225Y-41659790D01*
X50830961Y-41617416D01*
X50900849Y-41580736D01*
X50900850Y-41580734D01*
X50900852Y-41580734D01*
X51028183Y-41467929D01*
X51124818Y-41327930D01*
X51185140Y-41168872D01*
X51205645Y-41000000D01*
X51185140Y-40831128D01*
X51124818Y-40672070D01*
X51124817Y-40672068D01*
X51124816Y-40672066D01*
X51083386Y-40612046D01*
X51061502Y-40545692D01*
X51078967Y-40478040D01*
X51130234Y-40430570D01*
X51140627Y-40425984D01*
X51312637Y-40359348D01*
X51486041Y-40251981D01*
X51636764Y-40114579D01*
X51759673Y-39951821D01*
X51850582Y-39769250D01*
X51906397Y-39573083D01*
X51925215Y-39370000D01*
X51906397Y-39166917D01*
X51850582Y-38970750D01*
X51759673Y-38788179D01*
X51662718Y-38659790D01*
X51636762Y-38625418D01*
X51486041Y-38488019D01*
X51486039Y-38488017D01*
X51312642Y-38380655D01*
X51312635Y-38380651D01*
X51122454Y-38306975D01*
X51052959Y-38293984D01*
X50990678Y-38262316D01*
X50955406Y-38202004D01*
X50958340Y-38132196D01*
X50993520Y-38079279D01*
X51006332Y-38067929D01*
X51102967Y-37927930D01*
X51163289Y-37768872D01*
X51183794Y-37600000D01*
X51163289Y-37431128D01*
X51158790Y-37419266D01*
X51102966Y-37272068D01*
X51068625Y-37222318D01*
X51006332Y-37132071D01*
X50879001Y-37019266D01*
X50878998Y-37019263D01*
X50857799Y-37008137D01*
X55444500Y-37008137D01*
X55444500Y-47991861D01*
X55445154Y-48011861D01*
X55446216Y-48028063D01*
X55448173Y-48047925D01*
X55462021Y-48153103D01*
X55469813Y-48192283D01*
X55478195Y-48223565D01*
X55491041Y-48261407D01*
X55491042Y-48261409D01*
X55528495Y-48351830D01*
X55546156Y-48387642D01*
X55546167Y-48387663D01*
X55562354Y-48415701D01*
X55584560Y-48448935D01*
X55608382Y-48479979D01*
X55644139Y-48526578D01*
X55670487Y-48556622D01*
X55693377Y-48579512D01*
X55723421Y-48605860D01*
X55759725Y-48633717D01*
X55801063Y-48665438D01*
X55822580Y-48679815D01*
X55834297Y-48687644D01*
X55862330Y-48703829D01*
X55862350Y-48703838D01*
X55862356Y-48703842D01*
X55898168Y-48721503D01*
X55935978Y-48737164D01*
X55988598Y-48758960D01*
X56026438Y-48771805D01*
X56057705Y-48780183D01*
X56096898Y-48787979D01*
X56189040Y-48800110D01*
X56189040Y-48800109D01*
X56196989Y-48801156D01*
X56202057Y-48801824D01*
X56202073Y-48801825D01*
X56204050Y-48802086D01*
X56204072Y-48802088D01*
X56228528Y-48805308D01*
X56236106Y-48804993D01*
X56236114Y-48804779D01*
X56238123Y-48804844D01*
X56238142Y-48804846D01*
X56258126Y-48805500D01*
X56258139Y-48805500D01*
X71620832Y-48805500D01*
X71620833Y-48805500D01*
X71645105Y-48804534D01*
X71664741Y-48802969D01*
X71688856Y-48800079D01*
X71701879Y-48797990D01*
X71815825Y-48779714D01*
X71862982Y-48768246D01*
X71900286Y-48755964D01*
X71945037Y-48737171D01*
X72050384Y-48682713D01*
X72091596Y-48657068D01*
X72123190Y-48633733D01*
X72159816Y-48601888D01*
X72242846Y-48517215D01*
X72273965Y-48479976D01*
X72296675Y-48447934D01*
X72321506Y-48406231D01*
X72378313Y-48290860D01*
X72388166Y-48268664D01*
X72395437Y-48250355D01*
X72403497Y-48227442D01*
X74183388Y-42442798D01*
X74183389Y-42442797D01*
X74198702Y-42393032D01*
X74237232Y-42334746D01*
X74301157Y-42306545D01*
X74317218Y-42305500D01*
X74991861Y-42305500D01*
X74991874Y-42305500D01*
X75011859Y-42304846D01*
X75028043Y-42303785D01*
X75028059Y-42303783D01*
X75028065Y-42303783D01*
X75037199Y-42302882D01*
X75047935Y-42301825D01*
X75051429Y-42301364D01*
X75055244Y-42300863D01*
X75055251Y-42300862D01*
X75059276Y-42300332D01*
X75153102Y-42287979D01*
X75192294Y-42280183D01*
X75223561Y-42271805D01*
X75261401Y-42258960D01*
X75351828Y-42221504D01*
X75387669Y-42203829D01*
X75415702Y-42187644D01*
X75448928Y-42165443D01*
X75526578Y-42105860D01*
X75556622Y-42079512D01*
X75579512Y-42056622D01*
X75605860Y-42026578D01*
X75665443Y-41948928D01*
X75687644Y-41915702D01*
X75703829Y-41887669D01*
X75721504Y-41851828D01*
X75758960Y-41761401D01*
X75771805Y-41723561D01*
X75780183Y-41692294D01*
X75787979Y-41653102D01*
X75801825Y-41547938D01*
X75803785Y-41528043D01*
X75804846Y-41511857D01*
X75805500Y-41491874D01*
X75805500Y-37008125D01*
X75804846Y-36988142D01*
X75803785Y-36971956D01*
X75801825Y-36952061D01*
X75787979Y-36846897D01*
X75780183Y-36807705D01*
X75771805Y-36776438D01*
X75758960Y-36738598D01*
X75721504Y-36648171D01*
X75721500Y-36648163D01*
X75703842Y-36612356D01*
X75703831Y-36612335D01*
X75703829Y-36612330D01*
X75687644Y-36584297D01*
X75665438Y-36551063D01*
X75633717Y-36509725D01*
X75605860Y-36473421D01*
X75579512Y-36443377D01*
X75556623Y-36420488D01*
X75556622Y-36420487D01*
X75556618Y-36420483D01*
X75526588Y-36394147D01*
X75526577Y-36394138D01*
X75448935Y-36334559D01*
X75448933Y-36334558D01*
X75415714Y-36312362D01*
X75415702Y-36312354D01*
X75415699Y-36312352D01*
X75415689Y-36312346D01*
X75387659Y-36296163D01*
X75351835Y-36278498D01*
X75351815Y-36278489D01*
X75261409Y-36241042D01*
X75261407Y-36241041D01*
X75223565Y-36228195D01*
X75223550Y-36228191D01*
X75192290Y-36219815D01*
X75192291Y-36219815D01*
X75192283Y-36219813D01*
X75153103Y-36212021D01*
X75153098Y-36212020D01*
X75122033Y-36207930D01*
X75047925Y-36198173D01*
X75028063Y-36196216D01*
X75011861Y-36195154D01*
X75008111Y-36195031D01*
X74991874Y-36194500D01*
X56258126Y-36194500D01*
X56240806Y-36195066D01*
X56238140Y-36195154D01*
X56221950Y-36196215D01*
X56202055Y-36198175D01*
X56096904Y-36212018D01*
X56057725Y-36219811D01*
X56057700Y-36219816D01*
X56026468Y-36228184D01*
X56026445Y-36228191D01*
X55988602Y-36241036D01*
X55988599Y-36241037D01*
X55898159Y-36278498D01*
X55862332Y-36296167D01*
X55862329Y-36296169D01*
X55834302Y-36312350D01*
X55801064Y-36334560D01*
X55723420Y-36394139D01*
X55693366Y-36420496D01*
X55670496Y-36443366D01*
X55644147Y-36473411D01*
X55630055Y-36491775D01*
X55584555Y-36551072D01*
X55584548Y-36551081D01*
X55584546Y-36551085D01*
X55562348Y-36584305D01*
X55546162Y-36612341D01*
X55528498Y-36648163D01*
X55528489Y-36648183D01*
X55491042Y-36738589D01*
X55491041Y-36738591D01*
X55478195Y-36776433D01*
X55469813Y-36807715D01*
X55462021Y-36846895D01*
X55448173Y-36952073D01*
X55446216Y-36971935D01*
X55445154Y-36988137D01*
X55444500Y-37008137D01*
X50857799Y-37008137D01*
X50728375Y-36940210D01*
X50563205Y-36899500D01*
X50393093Y-36899500D01*
X50227922Y-36940210D01*
X50077299Y-37019263D01*
X49949965Y-37132072D01*
X49853331Y-37272068D01*
X49853331Y-37272069D01*
X49813549Y-37376967D01*
X49771371Y-37432670D01*
X49705773Y-37456727D01*
X49697607Y-37456996D01*
X37990467Y-37456996D01*
X37923428Y-37437311D01*
X37908250Y-37425820D01*
X37900852Y-37419266D01*
X37900847Y-37419263D01*
X37900844Y-37419261D01*
X37750226Y-37340210D01*
X37585056Y-37299500D01*
X37414944Y-37299500D01*
X37249773Y-37340210D01*
X37099150Y-37419263D01*
X36971816Y-37532072D01*
X36875182Y-37672068D01*
X36814860Y-37831125D01*
X36814859Y-37831130D01*
X36794355Y-38000000D01*
X36814859Y-38168869D01*
X36814860Y-38168874D01*
X36875182Y-38327931D01*
X36912905Y-38382581D01*
X36971817Y-38467929D01*
X37073482Y-38557996D01*
X37099150Y-38580736D01*
X37249773Y-38659789D01*
X37249775Y-38659790D01*
X37414944Y-38700500D01*
X37585056Y-38700500D01*
X37750225Y-38659790D01*
X37900852Y-38580734D01*
X37901996Y-38579945D01*
X37902965Y-38579625D01*
X37907493Y-38577249D01*
X37907888Y-38578001D01*
X37968351Y-38558063D01*
X37972434Y-38557996D01*
X49805127Y-38557996D01*
X49872166Y-38577681D01*
X49917921Y-38630485D01*
X49927865Y-38699643D01*
X49904082Y-38756722D01*
X49880327Y-38788179D01*
X49789422Y-38970739D01*
X49789417Y-38970752D01*
X49733602Y-39166917D01*
X49714785Y-39369999D01*
X49714785Y-39370000D01*
X49733602Y-39573082D01*
X49789417Y-39769247D01*
X49789422Y-39769260D01*
X49818637Y-39827931D01*
X49880327Y-39951821D01*
X49892490Y-39967927D01*
X49904082Y-39983278D01*
X49928773Y-40048639D01*
X49914207Y-40116974D01*
X49865010Y-40166586D01*
X49805127Y-40182004D01*
X37011891Y-40182004D01*
X36944852Y-40162319D01*
X36924210Y-40145685D01*
X36225829Y-39447304D01*
X36192344Y-39385981D01*
X36190414Y-39374568D01*
X36185140Y-39331128D01*
X36124818Y-39172070D01*
X36028183Y-39032071D01*
X35900852Y-38919266D01*
X35900849Y-38919263D01*
X35750226Y-38840210D01*
X35585056Y-38799500D01*
X35414944Y-38799500D01*
X35249773Y-38840210D01*
X35099150Y-38919263D01*
X34971816Y-39032072D01*
X34875182Y-39172068D01*
X34814860Y-39331125D01*
X34814859Y-39331130D01*
X34794355Y-39500000D01*
X30000000Y-39500000D01*
X30000000Y-34124000D01*
X30019685Y-34056961D01*
X30072489Y-34011206D01*
X30124000Y-34000000D01*
X90876000Y-34000000D01*
X90943039Y-34019685D01*
G37*
%TD.AperFunction*%
%TD*%
M02*
